<svg version="1.1" xmlns="http://www.w3.org/2000/svg" xmlns:xlink="http://www.w3.org/1999/xlink" width="489.98949" height="375.87538" viewBox="0,0,489.98949,375.87538"><defs><linearGradient x1="245.86423" y1="144.21204" x2="215.02432" y2="169.47355" gradientUnits="userSpaceOnUse" id="color-1"><stop offset="0" stop-color="#ffdf9e"/><stop offset="1" stop-color="#eccf93"/></linearGradient></defs><g transform="translate(4.61937,8.9387)"><g data-paper-data="{&quot;isPaintingLayer&quot;:true}" fill-rule="nonzero" stroke-linecap="butt" stroke-linejoin="miter" stroke-miterlimit="10" stroke-dasharray="" stroke-dashoffset="0" style="mix-blend-mode: normal"><path d="M-4.36937,366.68669v-375.37538h489.48949v375.37538z" fill="none" stroke-opacity="0.02419" stroke="#000000" stroke-width="0.5"/><g data-paper-data="{&quot;index&quot;:null}" stroke="none"><path d="M239.80216,255.00392l-0.75166,-1.59091l18.74347,-10.78791l0.61826,1.01226z" fill="#c1c1c1" stroke-width="0"/><path d="M239.11089,253.42182c0,0 -1.7059,-2.24975 -1.94901,-5.48745c-0.17521,-2.33322 6.44825,-4.4838 8.19332,-8.07064c1.01384,-2.08384 -2.05644,-9.76815 -2.05644,-9.76815l4.88833,-3.19949l9.74955,15.96262z" fill="#0078c7" stroke-width="0"/><path d="M244.99021,239.62189c2.31354,-1.24979 4.79221,3.01969 1.82751,3.31323c0.02537,0.14269 -0.00324,0.31582 -0.17842,0.48744c-0.41447,0.40602 -0.82048,-0.00845 -0.82048,-0.00845c-0.45495,-0.4667 -0.93197,-0.81718 -1.46359,-1.19467l-0.00435,-0.00316c-0.40672,0.1077 -0.86053,0.1382 -1.3776,-0.1418c-0.75863,-0.41083 -1.29606,-2.26847 -0.87563,-3.00719c1.08097,-1.89931 2.22335,-0.7793 2.86347,0.61503zM243.56099,241.07393c0.03545,0.02068 0.07679,0.03555 0.12331,0.04543c0.01328,-0.02312 0.02847,-0.04659 0.04574,-0.07039c0.13801,-0.19022 0.29717,-0.24748 0.43771,-0.24828c-0.21249,-0.87416 -0.62674,-1.99573 -1.03858,-1.20192c-0.13855,0.26702 0.21775,1.35029 0.43182,1.47515zM245.59506,240.61218l0.06452,0.15786c0.28727,-0.05139 0.56485,-0.078 0.80625,-0.04841c-0.19053,-0.29935 -0.44238,-0.44301 -0.87077,-0.10946z" fill="#c1c1c1" stroke-width="0.5"/><path d="M241.70634,242.47867c0.21466,-0.53903 0.75369,-0.32436 0.75369,-0.32436l0.29329,0.12328c0.9933,0.57762 1.40867,1.4914 2.2864,2.15061c0,0 0.46001,0.35359 0.10643,0.81359c-0.35359,0.46001 -0.81359,0.10643 -0.81359,0.10643c-0.83119,-0.65031 -1.22968,-1.53475 -2.15899,-2.06546l-0.14287,-0.05041c0,0 -0.53903,-0.21466 -0.32436,-0.75369z" fill="#c1c1c1" stroke-width="0.5"/><path d="M240.00198,243.67493c0.41774,-0.40264 0.82037,0.01511 0.82037,0.01511l0.28962,0.30077c0.74758,0.73596 1.54841,1.40407 2.16597,2.25542c0,0 0.33951,0.4705 -0.13099,0.81001c-0.4705,0.33951 -0.81001,-0.13099 -0.81001,-0.13099c-0.57185,-0.79731 -1.34076,-1.42018 -2.03901,-2.10746l-0.3111,-0.32249c0,0 -0.40264,-0.41774 0.01511,-0.82037z" fill="#c1c1c1" stroke-width="0.5"/></g><path d="M223.20461,214.25897c-4.86108,0.93705 -9.56139,-2.244 -10.49844,-7.10507c-0.93705,-4.86108 2.244,-9.56139 7.10507,-10.49844c4.86108,-0.93705 9.56139,2.244 10.49844,7.10507c0.93705,4.86108 -2.244,9.56139 -7.10507,10.49844z" data-paper-data="{&quot;index&quot;:null}" fill="#dabe87" stroke="none" stroke-width="NaN"/><path d="M239.30212,156.31834c11.41713,-2.20084 23.34962,9.90264 26.65195,27.0339c3.30233,17.13125 -3.276,32.80302 -14.69314,35.00386c-11.41714,2.20084 -23.34962,-9.90265 -26.65195,-27.03391c-3.30233,-17.13125 3.27601,-32.80301 14.69315,-35.00385z" data-paper-data="{&quot;index&quot;:null}" fill="#007eff" stroke="none" stroke-width="0"/><path d="M271.56407,197.54169c-4.86108,0.93705 -9.56139,-2.244 -10.49844,-7.10507c-0.93705,-4.86108 2.244,-9.56139 7.10507,-10.49844c4.86108,-0.93705 9.56139,2.244 10.49844,7.10507c0.93705,4.86108 -2.244,9.56139 -7.10507,10.49844z" data-paper-data="{&quot;index&quot;:null}" fill="#ffdf9e" stroke="none" stroke-width="NaN"/><g data-paper-data="{&quot;index&quot;:null}" stroke="none"><path d="M265.48396,246.81583l-0.54545,-1.67286l19.95217,-8.34313l0.48594,1.08203z" fill="#ffffff" stroke-width="0"/><path d="M264.99732,245.15931c0,0 -1.40919,-2.44656 -1.24289,-5.68911c0.11984,-2.33672 6.9613,-3.63659 9.14392,-6.97528c1.26804,-1.93968 -0.81071,-9.9493 -0.81071,-9.9493l5.25214,-2.55882l7.66302,17.06274z" fill="#0098ff" stroke-width="0"/><path d="M272.56671,232.20906c2.45245,-0.94869 4.37404,3.59881 1.39598,3.51689c0.00722,0.14475 -0.04294,0.31291 -0.23834,0.46111c-0.46227,0.35062 -0.8129,-0.11164 -0.8129,-0.11164c-0.3926,-0.52025 -0.82172,-0.92798 -1.3016,-1.36937l-0.00393,-0.00369c-0.41703,0.05565 -0.87109,0.0288 -1.3488,-0.31406c-0.7009,-0.50304 -1.00025,-2.41356 -0.4902,-3.09348c1.31142,-1.74816 2.30376,-0.49328 2.7633,0.97053zM270.9661,233.46968c0.03257,0.02498 0.07171,0.04494 0.11661,0.0606c0.01608,-0.02126 0.03409,-0.04263 0.05423,-0.06407c0.16086,-0.17133 0.32596,-0.2081 0.46548,-0.19122c-0.10079,-0.89396 -0.37059,-2.05874 -0.87905,-1.32308c-0.17105,0.24747 0.04609,1.36695 0.24273,1.51778zM273.04211,233.26761l0.04412,0.16473c0.29146,-0.01482 0.57018,-0.00629 0.80592,0.05345c-0.15133,-0.32095 -0.38309,-0.49516 -0.85005,-0.21819z" fill="#ffffff" stroke-width="0.5"/><path d="M268.94941,234.62986c0.2808,-0.50773 0.78852,-0.22693 0.78852,-0.22693l0.27542,0.1592c0.91269,0.69804 1.20977,1.65683 1.99755,2.42127c0,0 0.41184,0.40866 0.00318,0.82051c-0.40866,0.41184 -0.82051,0.00318 -0.82051,0.00318c-0.74274,-0.74974 -1.02675,-1.67731 -1.88187,-2.32074l-0.13538,-0.068c0,0 -0.50773,-0.2808 -0.22693,-0.78852z" fill="#ffffff" stroke-width="0.5"/><path d="M267.10802,235.60208c0.4651,-0.34685 0.81196,0.11825 0.81196,0.11825l0.24945,0.33484c0.64901,0.82419 1.35938,1.58777 1.86489,2.51009c0,0 0.2776,0.50949 -0.23189,0.78708c-0.50949,0.2776 -0.78708,-0.23189 -0.78708,-0.23189c-0.46697,-0.86296 -1.15137,-1.57765 -1.75757,-2.34734l-0.26803,-0.35907c0,0 -0.34685,-0.4651 0.11825,-0.81196z" fill="#ffffff" stroke-width="0.5"/></g><g data-paper-data="{&quot;index&quot;:null}" stroke="none"><path d="M243.07503,172.26275c-8.51621,6.97577 -21.07494,5.72701 -28.05071,-2.78919c-6.97577,-8.51621 -5.72701,-21.07494 2.78919,-28.05071c8.51621,-6.97577 21.07494,-5.72701 28.05071,2.78919c6.97577,8.51621 5.72701,21.07494 -2.78919,28.05071z" fill="url(#color-1)" stroke-width="NaN"/><path d="M236.12126,149.14524c-0.3671,-0.1904 -1.01006,-0.38213 -1.71169,-0.60094c-4.47235,-0.25911 -8.79626,-0.2875 -12.73554,2.89603c-1.33427,1.0783 -5.81608,4.03854 -7.75019,6.62226c-0.14122,0.39763 -0.34791,0.7513 -0.64135,1.04472c-0.14186,0.30852 -0.23021,0.606 -0.25352,0.88784c-0.10778,1.30338 0.01343,2.8643 -0.88997,3.95505c-1.31996,1.59368 -4.21162,2.32639 -5.96473,1.52847c-3.38145,-1.53906 -3.48467,-5.04853 -3.92338,-8.34593c-1.05779,-7.95051 2.63138,-16.78258 8.67571,-22.16493c6.91703,-6.15947 18.50548,-8.71857 27.28679,-5.69411c2.4322,0.8377 4.36378,2.97544 6.46448,3.98481c1.34243,1.29717 2.54411,2.73389 3.54177,4.35464c0,0 0.32896,0.53208 0.90563,0.69658c1.25546,1.97349 2.77053,3.7308 3.79017,5.85961c0.34231,0.71466 0.69362,1.53867 0.98376,2.39924c-0.27325,0.14108 -0.48539,0.26747 -0.58575,0.35944c-0.61666,0.56509 -0.98405,2.09697 -1.14358,3.87985c-0.70179,0.42971 -0.66247,1.34802 -0.66247,1.34802l0.08501,0.68657c-0.29024,0.38215 -0.3353,0.8354 -0.3353,0.8354l-0.07266,0.75165c-0.0428,0.29523 -0.07634,0.59249 -0.10037,0.8908c-0.04453,-0.03037 -0.09003,-0.05877 -0.13669,-0.08484c-2.02438,-1.1313 -4.1709,-1.88407 -6.28009,-2.87033c-2.10139,-0.49482 -4.11375,-1.30636 -5.58372,-2.42377c-0.15126,-0.06181 -0.29589,-0.12497 -0.43408,-0.1894c-0.88223,-0.10766 -1.77407,-0.21556 -2.52824,-0.60674z" fill="#382500" stroke-width="0.5"/></g></g></g></svg>