<svg version="1.1" xmlns="http://www.w3.org/2000/svg" xmlns:xlink="http://www.w3.org/1999/xlink" width="489.98949" height="375.87538" viewBox="0,0,489.98949,375.87538"><defs><linearGradient x1="237.7329" y1="146.26766" x2="213.3354" y2="177.79552" gradientUnits="userSpaceOnUse" id="color-1"><stop offset="0" stop-color="#ffdf9e"/><stop offset="1" stop-color="#eccf93"/></linearGradient></defs><g transform="translate(4.61937,8.9387)"><g data-paper-data="{&quot;isPaintingLayer&quot;:true}" fill-rule="nonzero" stroke-linecap="butt" stroke-linejoin="miter" stroke-miterlimit="10" stroke-dasharray="" stroke-dashoffset="0" style="mix-blend-mode: normal"><g data-paper-data="{&quot;index&quot;:null}" stroke="none"><path d="M245.10334,261.63375l-1.23918,-1.24917l14.07283,-16.42108l0.92045,0.74813z" fill="#c1c1c1" stroke-width="0"/><path d="M243.92403,260.37275c0,0 -2.35851,-1.55206 -3.66744,-4.52334c-0.94328,-2.14122 4.58382,-6.37754 5.03282,-10.34101c0.26087,-2.30265 -5.19629,-8.52316 -5.19629,-8.52316l3.5415,-4.64654l14.51478,11.79746z" fill="#0078c7" stroke-width="0"/><path d="M244.86466,245.40213c1.76431,-1.94979 5.52491,1.24868 2.82782,2.51411c0.0715,0.12606 0.10227,0.29882 -0.00565,0.51904c-0.25534,0.521 -0.77633,0.26566 -0.77633,0.26566c-0.58454,-0.28826 -1.15114,-0.4596 -1.77821,-0.63819l-0.00516,-0.00153c-0.34752,0.23717 -0.76518,0.41727 -1.34603,0.32573c-0.85221,-0.13432 -1.97838,-1.70639 -1.82837,-2.54303c0.38569,-2.15107 1.83618,-1.47615 2.90465,-0.37511zM244.00149,247.24767c0.04032,0.00767 0.08425,0.00791 0.1314,0.00171c0.00481,-0.02623 0.0113,-0.05342 0.01965,-0.08161c0.06667,-0.22535 0.19763,-0.33242 0.32985,-0.38004c-0.49185,-0.75325 -1.25641,-1.67247 -1.37995,-0.78676c-0.04157,0.29794 0.65559,1.20037 0.89905,1.2467zM245.76513,246.13402l0.11347,0.12731c0.25369,-0.14425 0.5065,-0.26191 0.74395,-0.31451c-0.27945,-0.21868 -0.56479,-0.27012 -0.85742,0.1872z" fill="#c1c1c1" stroke-width="0.5"/><path d="M242.72148,249.1905c0.02261,-0.57976 0.60237,-0.55714 0.60237,-0.55714l0.31761,0.01842c1.12907,0.2133 1.8254,0.93625 2.87272,1.26501c0,0 0.55159,0.17994 0.37166,0.73152c-0.17994,0.55159 -0.73152,0.37166 -0.73152,0.37166c-1.00048,-0.33589 -1.67111,-1.03681 -2.7242,-1.22722l-0.1515,0.00012c0,0 -0.57976,-0.02261 -0.55714,-0.60237z" fill="#c1c1c1" stroke-width="0.5"/><path d="M241.51363,250.88667c0.25955,-0.5189 0.77845,-0.25934 0.77845,-0.25934l0.37335,0.18697c0.95022,0.44452 1.92801,0.80732 2.79414,1.40398c0,0 0.47698,0.33034 0.14664,0.80732c-0.33034,0.47698 -0.80732,0.14664 -0.80732,0.14664c-0.80501,-0.56096 -1.73762,-0.89175 -2.6251,-1.30683l-0.40084,-0.20028c0,0 -0.5189,-0.25955 -0.25934,-0.77845z" fill="#c1c1c1" stroke-width="0.5"/></g><path d="M221.87128,219.5923c-4.86108,0.93705 -9.56139,-2.244 -10.49844,-7.10507c-0.93705,-4.86108 2.244,-9.56139 7.10507,-10.49844c4.86108,-0.93705 9.56139,2.244 10.49844,7.10507c0.93705,4.86108 -2.244,9.56139 -7.10507,10.49844z" data-paper-data="{&quot;index&quot;:null}" fill="#dabe87" stroke="none" stroke-width="NaN"/><path d="M237.30212,159.985c11.41713,-2.20084 23.34962,9.90264 26.65195,27.0339c3.30233,17.13125 -3.276,32.80302 -14.69314,35.00386c-11.41714,2.20084 -23.34962,-9.90265 -26.65195,-27.03391c-3.30233,-17.13125 3.27601,-32.80301 14.69315,-35.00385z" data-paper-data="{&quot;index&quot;:null}" fill="#007eff" stroke="none" stroke-width="0"/><path d="M271.56407,202.87502c-4.86108,0.93705 -9.56139,-2.244 -10.49844,-7.10507c-0.93705,-4.86108 2.244,-9.56139 7.10507,-10.49844c4.86108,-0.93705 9.56139,2.244 10.49844,7.10507c0.93705,4.86108 -2.244,9.56139 -7.10507,10.49844z" data-paper-data="{&quot;index&quot;:null}" fill="#ffdf9e" stroke="none" stroke-width="NaN"/><g data-paper-data="{&quot;index&quot;:null}" stroke="none"><path d="M269.54051,251.42581l-0.90732,-1.50756l17.56784,-12.61221l0.7166,0.9452z" fill="#ffffff" stroke-width="0"/><path d="M268.69417,249.92096c0,0 -1.9228,-2.06744 -2.4892,-5.26447c-0.40818,-2.30391 5.96638,-5.10752 7.34316,-8.8512c0.79987,-2.17497 -3.02514,-9.51285 -3.02514,-9.51285l4.54304,-3.67333l11.30036,14.90506z" fill="#0098ff" stroke-width="0"/><path d="M273.16074,235.60124c2.17663,-1.47539 5.07072,2.52417 2.15038,3.11338c0.03955,0.13943 0.02845,0.31456 -0.12866,0.50287c-0.37169,0.44551 -0.8172,0.07383 -0.8172,0.07383c-0.49944,-0.41875 -1.00919,-0.71966 -1.57596,-1.04196l-0.00466,-0.00271c-0.39387,0.14792 -0.84235,0.22376 -1.38488,-0.00302c-0.79599,-0.33272 -1.5169,-2.12715 -1.17263,-2.90428c0.88517,-1.99809 2.13406,-0.99822 2.9107,0.32493zM271.88425,237.18922c0.03735,0.01702 0.07997,0.02768 0.12724,0.03285c0.01089,-0.02433 0.02364,-0.0492 0.03845,-0.07462c0.11826,-0.20309 0.27088,-0.27601 0.41062,-0.2909c-0.29905,-0.84847 -0.82362,-1.92286 -1.15382,-1.09178c-0.11108,0.27957 0.352,1.32166 0.5775,1.42445zM273.8618,236.52593l0.08,0.15061c0.28068,-0.07992 0.55419,-0.13422 0.79733,-0.12897c-0.21956,-0.27875 -0.48454,-0.39644 -0.87734,-0.02164z" fill="#ffffff" stroke-width="0.5"/><path d="M270.17975,238.7728c0.15956,-0.55783 0.71738,-0.39827 0.71738,-0.39827l0.30415,0.09326c1.04618,0.47516 1.55106,1.3427 2.49044,1.91062c0,0 0.49312,0.30569 0.18743,0.79882c-0.30569,0.49312 -0.79882,0.18743 -0.79882,0.18743c-0.89219,-0.56372 -1.37732,-1.40377 -2.35513,-1.83865l-0.1472,-0.03585c0,0 -0.55783,-0.15956 -0.39827,-0.71738z" fill="#ffffff" stroke-width="0.5"/><path d="M268.60384,240.13385c0.37529,-0.44247 0.81777,-0.06718 0.81777,-0.06718l0.3183,0.27024c0.81758,0.65732 1.68133,1.24179 2.38112,2.02697c0,0 0.38496,0.4341 -0.04914,0.81906c-0.4341,0.38496 -0.81906,-0.04914 -0.81906,-0.04914c-0.6489,-0.73599 -1.47636,-1.27866 -2.23998,-1.89249l-0.34185,-0.28968c0,0 -0.44247,-0.37529 -0.06718,-0.81777z" fill="#ffffff" stroke-width="0.5"/></g><g data-paper-data="{&quot;index&quot;:null}" stroke="none"><path d="M241.29808,174.23034c-6.73719,8.70618 -19.2565,10.30237 -27.96268,3.56519c-8.70618,-6.73719 -10.30237,-19.2565 -3.56519,-27.96268c6.73719,-8.70618 19.2565,-10.30237 27.96268,-3.56519c8.70618,6.73719 10.30237,19.2565 3.56519,27.96268z" fill="url(#color-1)" stroke-width="NaN"/><path d="M229.34258,153.25797c-0.40042,-0.10333 -1.06999,-0.14616 -1.80281,-0.20224c-4.41674,0.7493 -8.63713,1.69021 -11.76318,5.67526c-1.05882,1.34978 -4.76363,5.23874 -6.06982,8.19006c-0.04856,0.41916 -0.17077,0.81014 -0.39103,1.16184c-0.06914,0.33246 -0.08861,0.64217 -0.0482,0.92207c0.18692,1.2944 0.65471,2.7885 0.0186,4.0539c-0.92942,1.84886 -3.58347,3.2107 -5.47077,2.82576c-3.64028,-0.74249 -4.52701,-4.13965 -5.69321,-7.25499c-2.81186,-7.51152 -1.19487,-16.94554 3.49019,-23.54508c5.3615,-7.55239 16.08222,-12.64233 25.31787,-11.66179c2.55804,0.27159 4.9194,1.92232 7.19282,2.43547c1.59889,0.96349 3.09186,2.09452 4.42723,3.4506c0,0 0.43979,0.44487 1.03865,0.47601c1.66563,1.64211 3.53584,3.01538 5.00644,4.86169c0.4937,0.61982 1.02066,1.3442 1.4962,2.1179c-0.2347,0.1987 -0.41314,0.3694 -0.49035,0.48152c-0.47441,0.68887 -0.48931,2.26411 -0.24541,4.03742c-0.5877,0.57599 -0.34367,1.46216 -0.34367,1.46216l0.23664,0.65008c-0.19726,0.43745 -0.13965,0.88928 -0.13965,0.88928l0.09756,0.74883c0.02442,0.29732 0.05832,0.59453 0.10173,0.89065c-0.0502,-0.01962 -0.10091,-0.03711 -0.15222,-0.05206c-2.22635,-0.64908 -4.48695,-0.90189 -6.76347,-1.39062c-2.15883,-0.01152 -4.30184,-0.35166 -5.98476,-1.1114c-0.16126,-0.02636 -0.31636,-0.05551 -0.46548,-0.08735c-0.88393,0.0927 -1.77727,0.18732 -2.5999,-0.02498z" fill="#382500" stroke-width="0.5"/></g><path d="M-4.36937,366.68669v-375.37538h489.48949v375.37538z" fill="none" stroke-opacity="0.02419" stroke="#000000" stroke-width="0.5"/></g></g></svg>