<svg version="1.1" xmlns="http://www.w3.org/2000/svg" xmlns:xlink="http://www.w3.org/1999/xlink" width="489.98949" height="375.87538" viewBox="0,0,489.98949,375.87538"><defs><linearGradient x1="244.98745" y1="140.89449" x2="212.30262" y2="163.71873" gradientUnits="userSpaceOnUse" id="color-1"><stop offset="0" stop-color="#ffdf9e"/><stop offset="1" stop-color="#eccf93"/></linearGradient></defs><g transform="translate(4.61937,8.9387)"><g data-paper-data="{&quot;isPaintingLayer&quot;:true}" fill-rule="nonzero" stroke-linecap="butt" stroke-linejoin="miter" stroke-miterlimit="10" stroke-dasharray="" stroke-dashoffset="0" style="mix-blend-mode: normal"><g data-paper-data="{&quot;index&quot;:null}" stroke="none"><path d="M224.45985,246.3018l-0.98033,-1.46114l16.92665,-13.4605l0.7622,0.90883z" fill="#c1c1c1" stroke-width="0"/><path d="M223.54055,244.84037c0,0 -2.0221,-1.97043 -2.74496,-5.13575c-0.52093,-2.28106 5.70811,-5.39462 6.89921,-9.20145c0.692,-2.21165 -3.48908,-9.35265 -3.48908,-9.35265l4.35699,-3.8922l12.01935,14.33158z" fill="#0078c7" stroke-width="0"/><path d="M227.29784,230.31842c2.10148,-1.58059 5.18868,2.27187 2.30082,3.00392c0.04635,0.13732 0.04386,0.31278 -0.10379,0.50859c-0.34934,0.46325 -0.81258,0.11391 -0.81258,0.11391c-0.51941,-0.39369 -1.04334,-0.66918 -1.62527,-0.96324l-0.00478,-0.00248c-0.38613,0.1671 -0.83033,0.26489 -1.38335,0.06506c-0.81138,-0.2932 -1.61963,-2.05002 -1.31397,-2.84314c0.78588,-2.03918 2.0824,-1.10191 2.92314,0.18147zM226.10094,231.96722c0.03814,0.01516 0.08123,0.02371 0.1287,0.02655c0.00969,-0.02484 0.02121,-0.05031 0.03474,-0.07642c0.10812,-0.20866 0.25698,-0.289 0.39582,-0.31074c-0.34038,-0.83273 -0.91713,-1.88005 -1.20608,-1.03374c-0.09721,0.28469 0.41653,1.30276 0.64682,1.39434zM228.0435,231.20753l0.08732,0.14649c0.27641,-0.09362 0.54692,-0.1613 0.79003,-0.16801c-0.23301,-0.26762 -0.50345,-0.37214 -0.87735,0.02152z" fill="#c1c1c1" stroke-width="0.5"/><path d="M224.47633,233.63265c0.13194,-0.565 0.69694,-0.43305 0.69694,-0.43305l0.30838,0.0782c1.06828,0.42316 1.61519,1.26484 2.58135,1.7859c0,0 0.50756,0.28109 0.22648,0.78865c-0.28109,0.50756 -0.78865,0.22648 -0.78865,0.22648c-0.91882,-0.51919 -1.44465,-1.33438 -2.44266,-1.72068l-0.14878,-0.02856c0,0 -0.565,-0.13194 -0.43305,-0.69694z" fill="#c1c1c1" stroke-width="0.5"/><path d="M222.96926,235.06953c0.35308,-0.46039 0.81347,-0.1073 0.81347,-0.1073l0.33121,0.25426c0.8489,0.61634 1.74035,1.15766 2.47788,1.90748c0,0 0.40583,0.41465 -0.00882,0.82048c-0.41465,0.40583 -0.82048,-0.00882 -0.82048,-0.00882c-0.68428,-0.70319 -1.53742,-1.20453 -2.33029,-1.78009l-0.35568,-0.27253c0,0 -0.46039,-0.35308 -0.1073,-0.81347z" fill="#c1c1c1" stroke-width="0.5"/></g><path d="M214.46338,222.9146c-4.95057,0 -8.9638,-4.01323 -8.9638,-8.9638c0,-4.95057 4.01323,-8.9638 8.9638,-8.9638c4.95057,0 8.9638,4.01323 8.9638,8.9638c0,4.95057 -4.01323,8.9638 -8.9638,8.9638z" data-paper-data="{&quot;index&quot;:null}" fill="#dabe87" stroke="none" stroke-width="NaN"/><path d="M240.18459,153.20565c11.62732,0 21.05313,14.14329 21.05313,31.58993c0,17.44664 -9.4258,31.58994 -21.05313,31.58994c-11.62733,0 -21.05313,-14.1433 -21.05313,-31.58994c0,-17.44664 9.4258,-31.58993 21.05313,-31.58993z" data-paper-data="{&quot;index&quot;:null}" fill="#007eff" stroke="none" stroke-width="0"/><path d="M264.20329,220.37334c-4.95057,0 -8.9638,-4.01323 -8.9638,-8.9638c0,-4.95057 4.01323,-8.9638 8.9638,-8.9638c4.95057,0 8.9638,4.01323 8.9638,8.9638c0,4.95057 -4.01323,8.9638 -8.9638,8.9638z" data-paper-data="{&quot;index&quot;:null}" fill="#ffdf9e" stroke="none" stroke-width="NaN"/><g data-paper-data="{&quot;index&quot;:null}" stroke="none"><path d="M246.87149,242.67861l-0.60556,-1.65205l19.63752,-9.05894l0.52474,1.06375z" fill="#ffffff" stroke-width="0"/><path d="M246.32529,241.04076c0,0 -1.49671,-2.39402 -1.44773,-5.64046c0.03529,-2.33952 6.82528,-3.88586 8.88579,-7.30127c1.19709,-1.98425 -1.16984,-9.91349 -1.16984,-9.91349l5.15621,-2.74701l8.27482,16.77457z" fill="#0098ff" stroke-width="0"/><path d="M253.42158,227.82535c2.41655,-1.03672 4.50128,3.43834 1.5222,3.46413c0.01244,0.1444 -0.03161,0.31426 -0.22152,0.46943c-0.4493,0.3671 -0.8164,-0.08219 -0.8164,-0.08219c-0.41115,-0.50572 -0.85473,-0.89767 -1.35025,-1.32143l-0.00406,-0.00354c-0.41475,0.07069 -0.86948,0.06027 -1.35927,-0.2651c-0.71862,-0.47737 -1.08685,-2.37582 -0.6017,-3.07374c1.24737,-1.79442 2.28443,-0.57624 2.79658,0.87zM251.86759,229.143c0.03345,0.02378 0.07328,0.04232 0.11872,0.05634c0.0153,-0.02183 0.03253,-0.04384 0.05188,-0.06599c0.15456,-0.17703 0.31823,-0.21975 0.45826,-0.20792c-0.13304,-0.88974 -0.44477,-2.044 -0.92631,-1.29044c-0.16199,0.25349 0.09547,1.3644 0.29744,1.50801zM253.93494,228.86602l0.05005,0.16303c0.29073,-0.02535 0.56958,-0.0269 0.80733,0.02428c-0.16283,-0.31527 -0.40074,-0.48099 -0.85738,-0.18731z" fill="#ffffff" stroke-width="0.5"/><path d="M249.89416,230.37533c0.26226,-0.51754 0.7798,-0.25528 0.7798,-0.25528l0.281,0.14914c0.93733,0.66459 1.26887,1.61201 2.08377,2.34748c0,0 0.42634,0.3935 0.03284,0.81986c-0.3935,0.42634 -0.81986,0.03284 -0.81986,0.03284c-0.76936,-0.7224 -1.08671,-1.63909 -1.96453,-2.2512l-0.13775,-0.06306c0,0 -0.51754,-0.26226 -0.25528,-0.7798z" fill="#ffffff" stroke-width="0.5"/><path d="M248.08912,231.41348c0.45226,-0.36344 0.8157,0.08882 0.8157,0.08882l0.2614,0.3256c0.67838,0.80019 1.41589,1.53759 1.95441,2.44103c0,0 0.29583,0.49912 -0.20328,0.79495c-0.49912,0.29583 -0.79495,-0.20328 -0.79495,-0.20328c-0.49786,-0.84551 -1.20764,-1.53499 -1.84127,-2.28227l-0.28084,-0.34915c0,0 -0.36344,-0.45226 0.08882,-0.8157z" fill="#ffffff" stroke-width="0.5"/></g><g data-paper-data="{&quot;index&quot;:null}" stroke="none"><path d="M240.05716,168.64903c-9.02567,6.30275 -21.45179,4.09539 -27.75454,-4.93028c-6.30275,-9.02567 -4.09539,-21.45179 4.93028,-27.75454c9.02567,-6.30275 21.45179,-4.09539 27.75454,4.93028c6.30275,9.02567 4.09539,21.45179 -4.93028,27.75454z" fill="url(#color-1)" stroke-width="NaN"/><path d="M234.89513,145.06666c-0.35143,-0.21797 -0.97781,-0.4584 -1.66062,-0.73033c-4.43934,-0.60103 -8.74837,-0.96064 -12.92,1.9117c-1.41297,0.97289 -6.10842,3.58103 -8.23481,6.00897c-0.17127,0.38564 -0.40444,0.72243 -0.71952,0.99251c-0.16508,0.29675 -0.27597,0.58658 -0.32081,0.8658c-0.20733,1.29129 -0.20607,2.85691 -1.1904,3.87523c-1.43819,1.48786 -4.37749,1.99685 -6.06431,1.06695c-3.25358,-1.79363 -3.0876,-5.30069 -3.27237,-8.62201c-0.4455,-8.00819 3.90955,-16.53162 10.34852,-21.43503c7.36864,-5.61137 19.11912,-7.27502 27.64286,-3.58661c2.36086,1.0216 4.12297,3.30106 6.14015,4.46841c1.2391,1.39621 2.32715,2.92078 3.19771,4.61321c0,0 0.28723,0.55572 0.84959,0.76392c1.10056,2.06389 2.47653,3.93211 3.33006,6.1328c0.28654,0.73879 0.57368,1.5873 0.79704,2.46756c-0.28325,0.11972 -0.50446,0.22949 -0.61158,0.31351c-0.65815,0.51618 -1.14183,2.0154 -1.43749,3.78082c-0.73265,0.37467 -0.76381,1.29329 -0.76381,1.29329l0.03215,0.69106c-0.31866,0.35878 -0.39833,0.80725 -0.39833,0.80725l-0.13004,0.74387c-0.0653,0.29109 -0.12151,0.5849 -0.16833,0.88049c-0.04207,-0.03369 -0.08527,-0.0655 -0.12978,-0.09506c-1.93175,-1.28308 -4.01428,-2.19811 -6.0417,-3.34308c-2.0573,-0.65437 -4.00156,-1.61772 -5.38159,-2.84448c-0.14608,-0.07322 -0.28544,-0.14726 -0.4183,-0.2221c-0.87138,-0.17494 -1.75234,-0.35086 -2.47431,-0.79867z" fill="#382500" stroke-width="0.5"/></g><path d="M-4.36937,366.68668v-375.37538h489.48949v375.37538z" fill="none" stroke-opacity="0.02419" stroke="#000000" stroke-width="0.5"/></g></g></svg>