<svg version="1.1" xmlns="http://www.w3.org/2000/svg" xmlns:xlink="http://www.w3.org/1999/xlink" width="489.98949" height="375.87538" viewBox="0,0,489.98949,375.87538"><defs><linearGradient x1="252.90387" y1="140.87318" x2="215.45712" y2="154.54742" gradientUnits="userSpaceOnUse" id="color-1"><stop offset="0" stop-color="#ffdf9e"/><stop offset="1" stop-color="#eccf93"/></linearGradient></defs><g transform="translate(4.61937,8.93869)"><g data-paper-data="{&quot;isPaintingLayer&quot;:true}" fill-rule="nonzero" stroke-linecap="butt" stroke-linejoin="miter" stroke-miterlimit="10" stroke-dasharray="" stroke-dashoffset="0" style="mix-blend-mode: normal"><g data-paper-data="{&quot;index&quot;:null}" stroke="none"><path d="M222.79318,242.30181l-0.98033,-1.46114l16.92665,-13.4605l0.7622,0.90883z" fill="#c1c1c1" stroke-width="0"/><path d="M221.87388,240.84038c0,0 -2.0221,-1.97043 -2.74496,-5.13575c-0.52093,-2.28106 5.70811,-5.39462 6.89921,-9.20145c0.692,-2.21165 -3.48908,-9.35265 -3.48908,-9.35265l4.35699,-3.8922l12.01935,14.33158z" fill="#0078c7" stroke-width="0"/><path d="M225.63117,226.31843c2.10148,-1.58059 5.18868,2.27187 2.30082,3.00392c0.04635,0.13732 0.04386,0.31278 -0.10379,0.50859c-0.34934,0.46325 -0.81258,0.11391 -0.81258,0.11391c-0.51941,-0.39369 -1.04334,-0.66918 -1.62527,-0.96324l-0.00478,-0.00248c-0.38613,0.1671 -0.83033,0.26489 -1.38335,0.06506c-0.81138,-0.2932 -1.61963,-2.05002 -1.31397,-2.84314c0.78588,-2.03918 2.0824,-1.10191 2.92314,0.18147zM224.43427,227.96723c0.03814,0.01516 0.08123,0.02371 0.1287,0.02655c0.00969,-0.02484 0.02121,-0.05031 0.03474,-0.07642c0.10812,-0.20866 0.25698,-0.289 0.39582,-0.31074c-0.34038,-0.83273 -0.91713,-1.88005 -1.20608,-1.03374c-0.09721,0.28469 0.41653,1.30276 0.64682,1.39434zM226.37683,227.20754l0.08732,0.14649c0.27641,-0.09362 0.54692,-0.1613 0.79003,-0.16801c-0.23301,-0.26762 -0.50345,-0.37214 -0.87735,0.02152z" fill="#c1c1c1" stroke-width="0.5"/><path d="M222.80966,229.63266c0.13194,-0.565 0.69694,-0.43305 0.69694,-0.43305l0.30838,0.0782c1.06828,0.42316 1.61519,1.26484 2.58135,1.7859c0,0 0.50756,0.28109 0.22648,0.78865c-0.28109,0.50756 -0.78865,0.22648 -0.78865,0.22648c-0.91882,-0.51919 -1.44465,-1.33438 -2.44266,-1.72068l-0.14878,-0.02856c0,0 -0.565,-0.13194 -0.43305,-0.69694z" fill="#c1c1c1" stroke-width="0.5"/><path d="M221.30259,231.06954c0.35308,-0.46039 0.81347,-0.1073 0.81347,-0.1073l0.33121,0.25426c0.8489,0.61634 1.74035,1.15766 2.47788,1.90748c0,0 0.40583,0.41465 -0.00882,0.82048c-0.41465,0.40583 -0.82048,-0.00882 -0.82048,-0.00882c-0.68428,-0.70319 -1.53742,-1.20453 -2.33029,-1.78009l-0.35568,-0.27253c0,0 -0.46039,-0.35308 -0.1073,-0.81347z" fill="#c1c1c1" stroke-width="0.5"/></g><path d="M216.13004,216.24793c-4.95057,0 -8.9638,-4.01323 -8.9638,-8.9638c0,-4.95057 4.01323,-8.9638 8.9638,-8.9638c4.95057,0 8.9638,4.01323 8.9638,8.9638c0,4.95057 -4.01323,8.9638 -8.9638,8.9638z" data-paper-data="{&quot;index&quot;:null}" fill="#dabe87" stroke="none" stroke-width="NaN"/><path d="M240.85126,152.20566c11.62732,0 21.05313,14.14329 21.05313,31.58993c0,17.44664 -9.4258,31.58994 -21.05313,31.58994c-11.62733,0 -21.05313,-14.1433 -21.05313,-31.58994c0,-17.44664 9.4258,-31.58993 21.05313,-31.58993z" data-paper-data="{&quot;index&quot;:null}" fill="#007eff" stroke="none" stroke-width="0"/><path d="M264.86996,214.70667c-4.95057,0 -8.9638,-4.01323 -8.9638,-8.9638c0,-4.95057 4.01323,-8.9638 8.9638,-8.9638c4.95057,0 8.9638,4.01323 8.9638,8.9638c0,4.95057 -4.01323,8.9638 -8.9638,8.9638z" data-paper-data="{&quot;index&quot;:null}" fill="#ffdf9e" stroke="none" stroke-width="NaN"/><g data-paper-data="{&quot;index&quot;:null}" stroke="none"><path d="M246.53816,238.67862l-0.60556,-1.65205l19.63752,-9.05894l0.52474,1.06375z" fill="#ffffff" stroke-width="0"/><path d="M245.99196,237.04077c0,0 -1.49671,-2.39402 -1.44773,-5.64046c0.03529,-2.33952 6.82528,-3.88586 8.88579,-7.30127c1.19709,-1.98425 -1.16984,-9.91349 -1.16984,-9.91349l5.15621,-2.74701l8.27482,16.77457z" fill="#0098ff" stroke-width="0"/><path d="M253.08825,223.82536c2.41655,-1.03672 4.50128,3.43834 1.5222,3.46413c0.01244,0.1444 -0.03161,0.31426 -0.22152,0.46943c-0.4493,0.3671 -0.8164,-0.08219 -0.8164,-0.08219c-0.41115,-0.50572 -0.85473,-0.89767 -1.35025,-1.32143l-0.00406,-0.00354c-0.41475,0.07069 -0.86948,0.06027 -1.35927,-0.2651c-0.71862,-0.47737 -1.08685,-2.37582 -0.6017,-3.07374c1.24737,-1.79442 2.28443,-0.57624 2.79658,0.87zM251.53426,225.14301c0.03345,0.02378 0.07328,0.04232 0.11872,0.05634c0.0153,-0.02183 0.03253,-0.04384 0.05188,-0.06599c0.15456,-0.17703 0.31823,-0.21975 0.45826,-0.20792c-0.13304,-0.88974 -0.44477,-2.044 -0.92631,-1.29044c-0.16199,0.25349 0.09547,1.3644 0.29744,1.50801zM253.60161,224.86603l0.05005,0.16303c0.29073,-0.02535 0.56958,-0.0269 0.80733,0.02428c-0.16283,-0.31527 -0.40074,-0.48099 -0.85738,-0.18731z" fill="#ffffff" stroke-width="0.5"/><path d="M249.56083,226.37534c0.26226,-0.51754 0.7798,-0.25528 0.7798,-0.25528l0.281,0.14914c0.93733,0.66459 1.26887,1.61201 2.08377,2.34748c0,0 0.42634,0.3935 0.03284,0.81986c-0.3935,0.42634 -0.81986,0.03284 -0.81986,0.03284c-0.76936,-0.7224 -1.08671,-1.63909 -1.96453,-2.2512l-0.13775,-0.06306c0,0 -0.51754,-0.26226 -0.25528,-0.7798z" fill="#ffffff" stroke-width="0.5"/><path d="M247.75579,227.41349c0.45226,-0.36344 0.8157,0.08882 0.8157,0.08882l0.2614,0.3256c0.67838,0.80019 1.41589,1.53759 1.95441,2.44103c0,0 0.29583,0.49912 -0.20328,0.79495c-0.49912,0.29583 -0.79495,-0.20328 -0.79495,-0.20328c-0.49786,-0.84551 -1.20764,-1.53499 -1.84127,-2.28227l-0.28084,-0.34915c0,0 -0.36344,-0.45226 0.08882,-0.8157z" fill="#ffffff" stroke-width="0.5"/></g><g data-paper-data="{&quot;index&quot;:null}" stroke="none"><path d="M241.01762,166.43368c-10.34064,3.77604 -21.78446,-1.54561 -25.5605,-11.88625c-3.77604,-10.34064 1.54561,-21.78446 11.88625,-25.5605c10.34064,-3.77604 21.78446,1.54561 25.5605,11.88625c3.77604,10.34064 -1.54561,21.78446 -11.88625,25.5605z" fill="url(#color-1)" stroke-width="NaN"/><path d="M242.07893,142.3163c-0.28374,-0.30084 -0.82747,-0.69393 -1.41765,-1.13195c-4.13653,-1.71992 -8.20905,-3.17306 -12.97799,-1.46719c-1.61529,0.5778 -6.82273,1.89391 -9.50088,3.69501c-0.26448,0.32879 -0.57626,0.59448 -0.95008,0.77468c-0.23569,0.24446 -0.41723,0.49614 -0.53221,0.75451c-0.5317,1.19487 -0.93217,2.7084 -2.14482,3.44009c-1.77179,1.06906 -4.74329,0.80687 -6.13506,-0.52469c-2.68448,-2.56836 -1.62424,-5.91544 -0.95067,-9.17299c1.62408,-7.85442 8.02021,-14.97515 15.50171,-18.06237c8.56169,-3.53295 20.34567,-2.12608 27.63775,3.6258c2.01972,1.59313 3.138,4.24839 4.78815,5.89422c0.83939,1.66739 1.49986,3.42009 1.90705,5.27922c0,0 0.13503,0.61081 0.62515,0.95633c0.53419,2.27717 1.38476,4.43589 1.64509,6.7819c0.0874,0.78758 0.14722,1.68135 0.13725,2.58946c-0.30449,0.04304 -0.54645,0.09238 -0.67154,0.1461c-0.76856,0.33004 -1.6207,1.65498 -2.35942,3.28544c-0.80425,0.17415 -1.07006,1.05403 -1.07006,1.05403l-0.14623,0.67618c-0.40005,0.26501 -0.59211,0.67803 -0.59211,0.67803l-0.31654,0.68561c-0.1378,0.26459 -0.26751,0.53414 -0.3886,0.80783c-0.03202,-0.04336 -0.06561,-0.08518 -0.10105,-0.12518c-1.53788,-1.73576 -3.31593,-3.15448 -4.98172,-4.7813c-1.82054,-1.16031 -3.45255,-2.59025 -4.47163,-4.13002c-0.1224,-0.10825 -0.2381,-0.21557 -0.34731,-0.32199c-0.79733,-0.39266 -1.60366,-0.78871 -2.18657,-1.40677z" fill="#382500" stroke-width="0.5"/></g><path d="M-4.36937,366.6867v-375.37538h489.48949v375.37538z" fill="none" stroke-opacity="0.02419" stroke="#000000" stroke-width="0.5"/></g></g></svg>