<svg version="1.1" xmlns="http://www.w3.org/2000/svg" xmlns:xlink="http://www.w3.org/1999/xlink" width="489.98949" height="375.87538" viewBox="0,0,489.98949,375.87538"><defs><linearGradient x1="249.76481" y1="141.89438" x2="213.04578" y2="157.41714" gradientUnits="userSpaceOnUse" id="color-1"><stop offset="0" stop-color="#ffdf9e"/><stop offset="1" stop-color="#eccf93"/></linearGradient></defs><g transform="translate(4.61937,8.9387)"><g data-paper-data="{&quot;isPaintingLayer&quot;:true}" fill-rule="nonzero" stroke-linecap="butt" stroke-linejoin="miter" stroke-miterlimit="10" stroke-dasharray="" stroke-dashoffset="0" style="mix-blend-mode: normal"><g data-paper-data="{&quot;index&quot;:null}" stroke="none"><path d="M222.41404,245.45924l-0.94162,-1.48638l17.27432,-13.01132l0.73807,0.92853z" fill="#c1c1c1" stroke-width="0"/><path d="M221.53344,243.97417c0,0 -1.96965,-2.02286 -2.60913,-5.20607c-0.46084,-2.29395 5.84782,-5.24285 7.13849,-9.01708c0.74985,-2.19271 -3.24225,-9.44106 -3.24225,-9.44106l4.45771,-3.77643l11.63882,14.6423z" fill="#0078c7" stroke-width="0"/><path d="M225.67082,229.5559c2.14227,-1.52485 5.12722,2.40736 2.22114,3.06331c0.04273,0.13849 0.03563,0.31382 -0.11711,0.50569c-0.36139,0.45392 -0.81529,0.09253 -0.81529,0.09253c-0.50889,-0.4072 -1.02541,-0.69635 -1.59941,-1.00559l-0.00471,-0.0026c-0.39039,0.1569 -0.837,0.24299 -1.38458,0.02871c-0.8034,-0.31441 -1.56523,-2.09185 -1.23885,-2.87667c0.83916,-2.01784 2.11062,-1.04684 2.91737,0.25818zM224.43103,231.1727c0.03773,0.01616 0.08058,0.02584 0.12796,0.02992c0.01034,-0.02458 0.02252,-0.04974 0.03674,-0.07548c0.11356,-0.20575 0.26448,-0.28215 0.40384,-0.30024c-0.31839,-0.84138 -0.86744,-1.90349 -1.17852,-1.06506c-0.10465,0.28204 0.38217,1.31325 0.60998,1.41085zM226.39287,230.46429l0.08344,0.14873c0.27877,-0.08633 0.55097,-0.14688 0.79417,-0.1472c-0.2259,-0.27365 -0.4935,-0.38523 -0.87761,-0.00153z" fill="#c1c1c1" stroke-width="0.5"/><path d="M222.76324,232.79489c0.14673,-0.56134 0.70807,-0.4146 0.70807,-0.4146l0.30622,0.08627c1.0568,0.45107 1.58141,1.30682 2.53356,1.85308c0,0 0.5,0.29432 0.20569,0.79433c-0.29432,0.5 -0.79433,0.20569 -0.79433,0.20569c-0.90487,-0.54314 -1.40911,-1.37186 -2.39663,-1.78424l-0.14798,-0.03246c0,0 -0.56134,-0.14673 -0.4146,-0.70807z" fill="#c1c1c1" stroke-width="0.5"/><path d="M221.21896,234.19169c0.36505,-0.45096 0.81601,-0.0859 0.81601,-0.0859l0.32442,0.26287c0.83242,0.63842 1.70935,1.20297 2.42693,1.9719c0,0 0.3948,0.42517 -0.03037,0.81997c-0.42517,0.3948 -0.81997,-0.03037 -0.81997,-0.03037c-0.66558,-0.72092 -1.50526,-1.24449 -2.28274,-1.84068l-0.3484,-0.28178c0,0 -0.45096,-0.36505 -0.0859,-0.81601z" fill="#c1c1c1" stroke-width="0.5"/></g><path d="M214.79671,219.24792c-4.95057,0 -8.9638,-4.01323 -8.9638,-8.9638c0,-4.95057 4.01323,-8.9638 8.9638,-8.9638c4.95057,0 8.9638,4.01323 8.9638,8.9638c0,4.95057 -4.01323,8.9638 -8.9638,8.9638z" data-paper-data="{&quot;index&quot;:null}" fill="#dabe87" stroke="none" stroke-width="NaN"/><path d="M240.85126,152.20565c11.62732,0 21.05313,14.14329 21.05313,31.58993c0,17.44664 -9.4258,31.58994 -21.05313,31.58994c-11.62733,0 -21.05313,-14.1433 -21.05313,-31.58994c0,-17.44664 9.4258,-31.58993 21.05313,-31.58993z" data-paper-data="{&quot;index&quot;:null}" fill="#007eff" stroke="none" stroke-width="0"/><path d="M264.53662,217.37333c-4.95057,0 -8.9638,-4.01323 -8.9638,-8.9638c0,-4.95057 4.01323,-8.9638 8.9638,-8.9638c4.95057,0 8.9638,4.01323 8.9638,8.9638c0,4.95057 -4.01323,8.9638 -8.9638,8.9638z" data-paper-data="{&quot;index&quot;:null}" fill="#ffdf9e" stroke="none" stroke-width="NaN"/><g data-paper-data="{&quot;index&quot;:null}" stroke="none"><path d="M245.34089,240.08112l-0.49726,-1.68781l20.18315,-7.76768l0.45472,1.09551z" fill="#ffffff" stroke-width="0"/><path d="M244.90195,238.41133c0,0 -1.33847,-2.48596 -1.07927,-5.7224c0.18678,-2.33232 7.06269,-3.43552 9.34014,-6.71026c1.32313,-1.90253 -0.52513,-9.96845 -0.52513,-9.96845l5.32334,-2.40719l7.17069,17.27542z" fill="#0098ff" stroke-width="0"/><path d="M252.8395,225.68342c2.47864,-0.87798 4.26907,3.72273 1.29458,3.55547c0.00306,0.1449 -0.0519,0.31155 -0.25147,0.45409c-0.47214,0.33722 -0.80936,-0.13491 -0.80936,-0.13491c-0.37752,-0.53129 -0.79478,-0.95116 -1.2618,-1.40613l-0.00382,-0.0038c-0.41846,0.04367 -0.87156,0.00381 -1.33924,-0.3526c-0.68618,-0.52292 -0.93065,-2.44124 -0.4013,-3.10626c1.361,-1.70984 2.31696,-0.42703 2.73434,1.04935zM251.20341,226.89762c0.03184,0.0259 0.07038,0.04698 0.11482,0.06391c0.01668,-0.02079 0.0353,-0.04164 0.05605,-0.06249c0.1657,-0.16664 0.3318,-0.19867 0.47077,-0.17779c-0.07512,-0.89649 -0.31141,-2.06852 -0.84076,-1.34774c-0.17807,0.24246 0.00688,1.36772 0.19912,1.52411zM253.28436,226.75516l0.03938,0.16593c0.29176,-0.00646 0.57013,0.01006 0.80406,0.07653c-0.14206,-0.32516 -0.36874,-0.50594 -0.84344,-0.24246z" fill="#ffffff" stroke-width="0.5"/><path d="M249.15429,227.99952c0.29524,-0.49946 0.7947,-0.20422 0.7947,-0.20422l0.27075,0.16703c0.89231,0.72392 1.16177,1.69083 1.92731,2.47755c0,0 0.39995,0.42029 -0.02034,0.82027c-0.42029,0.39995 -0.82027,-0.02034 -0.82027,-0.02034c-0.72094,-0.77073 -0.97824,-1.70605 -1.81456,-2.37374l-0.13338,-0.07185c0,0 -0.49946,-0.29524 -0.20422,-0.7947z" fill="#ffffff" stroke-width="0.5"/><path d="M247.28578,228.91854c0.47486,-0.33338 0.80823,0.14148 0.80823,0.14148l0.23976,0.34185c0.62511,0.84246 1.3133,1.62609 1.79216,2.56252c0,0 0.26287,0.51724 -0.25435,0.78011c-0.51724,0.26287 -0.78011,-0.25435 -0.78011,-0.25435c-0.44204,-0.87599 -1.10566,-1.61 -1.68954,-2.39676l-0.25763,-0.36661c0,0 -0.33338,-0.47486 0.14148,-0.80823z" fill="#ffffff" stroke-width="0.5"/></g><g data-paper-data="{&quot;index&quot;:null}" stroke="none"><path d="M239.16668,168.01528c-10.13969,4.2865 -21.83441,-0.45844 -26.12091,-10.59813c-4.2865,-10.13969 0.45844,-21.83441 10.59813,-26.12091c10.13969,-4.2865 21.83441,0.45844 26.12091,10.59813c4.2865,10.13969 -0.45844,21.83441 -10.59813,26.12091z" fill="url(#color-1)" stroke-width="NaN"/><path d="M239.02521,143.87498c-0.29837,-0.28633 -0.86101,-0.65185 -1.47228,-1.05992c-4.21708,-1.51171 -8.35693,-2.76017 -13.03497,-0.81884c-1.5845,0.65755 -6.71991,2.23145 -9.30501,4.16373c-0.24777,0.34156 -0.54593,0.62245 -0.91031,0.82105c-0.22322,0.2559 -0.392,0.51631 -0.49396,0.78009c-0.47151,1.21987 -0.79609,2.75148 -1.97078,3.54267c-1.71633,1.156 -4.6972,1.04217 -6.15358,-0.2184c-2.8091,-2.43144 -1.91692,-5.82718 -1.40647,-9.11424c1.23078,-7.92558 7.26423,-15.3561 14.58264,-18.8122c8.37506,-3.95509 20.21449,-3.13701 27.78406,2.24445c2.09658,1.49053 3.34575,4.08679 5.07584,5.64837c0.92141,1.6235 1.66838,3.34112 2.16768,5.17766c0,0 0.16529,0.60332 0.67202,0.924c0.64697,2.24773 1.60403,4.3614 1.9809,6.69152c0.12653,0.78225 0.2308,1.67193 0.26608,2.57941c-0.30197,0.05816 -0.54117,0.11949 -0.66343,0.17937c-0.75116,0.36792 -1.53624,1.73366 -2.19282,3.3989c-0.79458,0.214 -1.01622,1.10603 -1.01622,1.10603l-0.11236,0.68263c-0.38635,0.28461 -0.5576,0.70669 -0.5576,0.70669l-0.28199,0.70053c-0.12445,0.27113 -0.24057,0.5468 -0.34787,0.82619c-0.03414,-0.04171 -0.06977,-0.08181 -0.10716,-0.11999c-1.62244,-1.65699 -3.46896,-2.98537 -5.21373,-4.52719c-1.87608,-1.06817 -3.5773,-2.41504 -4.67183,-3.90213c-0.12764,-0.10202 -0.24854,-0.20344 -0.36292,-0.30429c-0.8159,-0.35245 -1.64096,-0.70784 -2.25394,-1.29609z" fill="#382500" stroke-width="0.5"/></g><path d="M-4.36937,366.68669v-375.37538h489.48949v375.37538z" fill="none" stroke-opacity="0.02419" stroke="#000000" stroke-width="0.5"/></g></g></svg>