<svg version="1.1" xmlns="http://www.w3.org/2000/svg" xmlns:xlink="http://www.w3.org/1999/xlink" width="489.98949" height="375.87538" viewBox="0,0,489.98949,375.87538"><defs><linearGradient x1="253.97179" y1="141.22467" x2="216.07329" y2="153.59186" gradientUnits="userSpaceOnUse" id="color-1"><stop offset="0" stop-color="#ffdf9e"/><stop offset="1" stop-color="#eccf93"/></linearGradient></defs><g transform="translate(4.61937,8.93869)"><g data-paper-data="{&quot;isPaintingLayer&quot;:true}" fill-rule="nonzero" stroke-linecap="butt" stroke-linejoin="miter" stroke-miterlimit="10" stroke-dasharray="" stroke-dashoffset="0" style="mix-blend-mode: normal"><g data-paper-data="{&quot;index&quot;:null}" stroke="none"><path d="M223.12651,240.63514l-0.98033,-1.46114l16.92665,-13.4605l0.7622,0.90883z" fill="#c1c1c1" stroke-width="0"/><path d="M222.20721,239.17371c0,0 -2.0221,-1.97043 -2.74496,-5.13575c-0.52093,-2.28106 5.70811,-5.39462 6.89921,-9.20145c0.692,-2.21165 -3.48908,-9.35265 -3.48908,-9.35265l4.35699,-3.8922l12.01935,14.33158z" fill="#0078c7" stroke-width="0"/><path d="M225.9645,224.65176c2.10148,-1.58059 5.18868,2.27187 2.30082,3.00392c0.04635,0.13732 0.04386,0.31278 -0.10379,0.50859c-0.34934,0.46325 -0.81258,0.11391 -0.81258,0.11391c-0.51941,-0.39369 -1.04334,-0.66918 -1.62527,-0.96324l-0.00478,-0.00248c-0.38613,0.1671 -0.83033,0.26489 -1.38335,0.06506c-0.81138,-0.2932 -1.61963,-2.05002 -1.31397,-2.84314c0.78588,-2.03918 2.0824,-1.10191 2.92314,0.18147zM224.7676,226.30056c0.03814,0.01516 0.08123,0.02371 0.1287,0.02655c0.00969,-0.02484 0.02121,-0.05031 0.03474,-0.07642c0.10812,-0.20866 0.25698,-0.289 0.39582,-0.31074c-0.34038,-0.83273 -0.91713,-1.88005 -1.20608,-1.03374c-0.09721,0.28469 0.41653,1.30276 0.64682,1.39434zM226.71016,225.54087l0.08732,0.14649c0.27641,-0.09362 0.54692,-0.1613 0.79003,-0.16801c-0.23301,-0.26762 -0.50345,-0.37214 -0.87735,0.02152z" fill="#c1c1c1" stroke-width="0.5"/><path d="M223.14299,227.96599c0.13194,-0.565 0.69694,-0.43305 0.69694,-0.43305l0.30838,0.0782c1.06828,0.42316 1.61519,1.26484 2.58135,1.7859c0,0 0.50756,0.28109 0.22648,0.78865c-0.28109,0.50756 -0.78865,0.22648 -0.78865,0.22648c-0.91882,-0.51919 -1.44465,-1.33438 -2.44266,-1.72068l-0.14878,-0.02856c0,0 -0.565,-0.13194 -0.43305,-0.69694z" fill="#c1c1c1" stroke-width="0.5"/><path d="M221.63592,229.40287c0.35308,-0.46039 0.81347,-0.1073 0.81347,-0.1073l0.33121,0.25426c0.8489,0.61634 1.74035,1.15766 2.47788,1.90748c0,0 0.40583,0.41465 -0.00882,0.82048c-0.41465,0.40583 -0.82048,-0.00882 -0.82048,-0.00882c-0.68428,-0.70319 -1.53742,-1.20453 -2.33029,-1.78009l-0.35568,-0.27253c0,0 -0.46039,-0.35308 -0.1073,-0.81347z" fill="#c1c1c1" stroke-width="0.5"/></g><path d="M216.46338,214.9146c-4.95057,0 -8.9638,-4.01323 -8.9638,-8.9638c0,-4.95057 4.01323,-8.9638 8.9638,-8.9638c4.95057,0 8.9638,4.01323 8.9638,8.9638c0,4.95057 -4.01323,8.9638 -8.9638,8.9638z" data-paper-data="{&quot;index&quot;:null}" fill="#dabe87" stroke="none" stroke-width="NaN"/><path d="M240.85126,152.20566c11.62732,0 21.05313,14.14329 21.05313,31.58993c0,17.44664 -9.4258,31.58994 -21.05313,31.58994c-11.62733,0 -21.05313,-14.1433 -21.05313,-31.58994c0,-17.44664 9.4258,-31.58993 21.05313,-31.58993z" data-paper-data="{&quot;index&quot;:null}" fill="#007eff" stroke="none" stroke-width="0"/><path d="M264.53662,213.70667c-4.95057,0 -8.9638,-4.01323 -8.9638,-8.9638c0,-4.95057 4.01323,-8.9638 8.9638,-8.9638c4.95057,0 8.9638,4.01323 8.9638,8.9638c0,4.95057 -4.01323,8.9638 -8.9638,8.9638z" data-paper-data="{&quot;index&quot;:null}" fill="#ffdf9e" stroke="none" stroke-width="NaN"/><g data-paper-data="{&quot;index&quot;:null}" stroke="none"><path d="M246.20483,237.67862l-0.60556,-1.65205l19.63752,-9.05894l0.52474,1.06375z" fill="#ffffff" stroke-width="0"/><path d="M245.65863,236.04077c0,0 -1.49671,-2.39402 -1.44773,-5.64046c0.03529,-2.33952 6.82528,-3.88586 8.88579,-7.30127c1.19709,-1.98425 -1.16984,-9.91349 -1.16984,-9.91349l5.15621,-2.74701l8.27482,16.77457z" fill="#0098ff" stroke-width="0"/><path d="M252.75492,222.82536c2.41655,-1.03672 4.50128,3.43834 1.5222,3.46413c0.01244,0.1444 -0.03161,0.31426 -0.22152,0.46943c-0.4493,0.3671 -0.8164,-0.08219 -0.8164,-0.08219c-0.41115,-0.50572 -0.85473,-0.89767 -1.35025,-1.32143l-0.00406,-0.00354c-0.41475,0.07069 -0.86948,0.06027 -1.35927,-0.2651c-0.71862,-0.47737 -1.08685,-2.37582 -0.6017,-3.07374c1.24737,-1.79442 2.28443,-0.57624 2.79658,0.87zM251.20093,224.14301c0.03345,0.02378 0.07328,0.04232 0.11872,0.05634c0.0153,-0.02183 0.03253,-0.04384 0.05188,-0.06599c0.15456,-0.17703 0.31823,-0.21975 0.45826,-0.20792c-0.13304,-0.88974 -0.44477,-2.044 -0.92631,-1.29044c-0.16199,0.25349 0.09547,1.3644 0.29744,1.50801zM253.26828,223.86603l0.05005,0.16303c0.29073,-0.02535 0.56958,-0.0269 0.80733,0.02428c-0.16283,-0.31527 -0.40074,-0.48099 -0.85738,-0.18731z" fill="#ffffff" stroke-width="0.5"/><path d="M249.2275,225.37534c0.26226,-0.51754 0.7798,-0.25528 0.7798,-0.25528l0.281,0.14914c0.93733,0.66459 1.26887,1.61201 2.08377,2.34748c0,0 0.42634,0.3935 0.03284,0.81986c-0.3935,0.42634 -0.81986,0.03284 -0.81986,0.03284c-0.76936,-0.7224 -1.08671,-1.63909 -1.96453,-2.2512l-0.13775,-0.06306c0,0 -0.51754,-0.26226 -0.25528,-0.7798z" fill="#ffffff" stroke-width="0.5"/><path d="M247.42246,226.41349c0.45226,-0.36344 0.8157,0.08882 0.8157,0.08882l0.2614,0.3256c0.67838,0.80019 1.41589,1.53759 1.95441,2.44103c0,0 0.29583,0.49912 -0.20328,0.79495c-0.49912,0.29583 -0.79495,-0.20328 -0.79495,-0.20328c-0.49786,-0.84551 -1.20764,-1.53499 -1.84127,-2.28227l-0.28084,-0.34915c0,0 -0.36344,-0.45226 0.08882,-0.8157z" fill="#ffffff" stroke-width="0.5"/></g><g data-paper-data="{&quot;index&quot;:null}" stroke="none"><path d="M241.20614,166.35753c-10.46539,3.41511 -21.71774,-2.30026 -25.13285,-12.76565c-3.41511,-10.46539 2.30026,-21.71774 12.76565,-25.13285c10.46539,-3.41511 21.71774,2.30026 25.13285,12.76565c3.41511,10.46539 -2.30026,21.71774 -12.76565,25.13285z" fill="url(#color-1)" stroke-width="NaN"/><path d="M243.10331,142.29147c-0.27313,-0.3105 -0.8029,-0.72221 -1.37754,-1.18044c-4.07439,-1.86236 -8.09405,-3.45588 -12.91929,-1.91644c-1.63436,0.52143 -6.88431,1.65613 -9.62332,3.36325c-0.27572,0.31942 -0.59653,0.57413 -0.97638,0.74126c-0.24403,0.23614 -0.43419,0.48137 -0.55806,0.7356c-0.57282,1.17571 -1.02555,2.67444 -2.26285,3.36363c-1.8078,1.00696 -4.76842,0.64187 -6.11317,-0.73717c-2.59378,-2.65992 -1.41809,-5.96822 -0.63194,-9.20044c1.89553,-7.79336 8.53479,-14.68796 16.11887,-17.51383c8.67908,-3.23387 20.40717,-1.41912 27.49536,4.58222c1.96325,1.66222 2.98876,4.35467 4.58083,6.05675c0.78105,1.6955 1.38033,3.47005 1.7228,5.34219c0,0 0.11376,0.61513 0.5916,0.97744c0.45489,2.29433 1.23007,4.48125 1.40887,6.83488c0.06003,0.79014 0.08881,1.68544 0.04735,2.59266c-0.3058,0.03245 -0.54933,0.07337 -0.6762,0.12272c-0.77954,0.30318 -1.67713,1.59777 -2.47195,3.20163c-0.80981,0.14615 -1.10597,1.01628 -1.10597,1.01628l-0.1696,0.6707c-0.409,0.25097 -0.61527,0.65708 -0.61527,0.65708l-0.34013,0.67422c-0.14689,0.25965 -0.28588,0.52454 -0.41639,0.79387c-0.0305,-0.04444 -0.06262,-0.0874 -0.09665,-0.12861c-1.47675,-1.78806 -3.20452,-3.26759 -4.81289,-4.95121c-1.7792,-1.22276 -3.36063,-2.70844 -4.32569,-4.28263c-0.11857,-0.11243 -0.23048,-0.2237 -0.33593,-0.33384c-0.78323,-0.42008 -1.57534,-0.84386 -2.13646,-1.48176z" fill="#382500" stroke-width="0.5"/></g><path d="M-4.36937,366.6867v-375.37538h489.48949v375.37538z" fill="none" stroke-opacity="0.02419" stroke="#000000" stroke-width="0.5"/></g></g></svg>