<svg version="1.1" xmlns="http://www.w3.org/2000/svg" xmlns:xlink="http://www.w3.org/1999/xlink" width="489.98949" height="375.87538" viewBox="0,0,489.98949,375.87538"><defs><linearGradient x1="250.5911" y1="139.65442" x2="214.63392" y2="156.86852" gradientUnits="userSpaceOnUse" id="color-1"><stop offset="0" stop-color="#ffdf9e"/><stop offset="1" stop-color="#eccf93"/></linearGradient></defs><g transform="translate(4.61937,8.93869)"><g data-paper-data="{&quot;isPaintingLayer&quot;:true}" fill-rule="nonzero" stroke-linecap="butt" stroke-linejoin="miter" stroke-miterlimit="10" stroke-dasharray="" stroke-dashoffset="0" style="mix-blend-mode: normal"><g data-paper-data="{&quot;index&quot;:null}" stroke="none"><path d="M222.79318,242.30181l-0.98033,-1.46114l16.92665,-13.4605l0.7622,0.90883z" fill="#c1c1c1" stroke-width="0"/><path d="M221.87388,240.84038c0,0 -2.0221,-1.97043 -2.74496,-5.13575c-0.52093,-2.28106 5.70811,-5.39462 6.89921,-9.20145c0.692,-2.21165 -3.48908,-9.35265 -3.48908,-9.35265l4.35699,-3.8922l12.01935,14.33158z" fill="#0078c7" stroke-width="0"/><path d="M225.63117,226.31843c2.10148,-1.58059 5.18868,2.27187 2.30082,3.00392c0.04635,0.13732 0.04386,0.31278 -0.10379,0.50859c-0.34934,0.46325 -0.81258,0.11391 -0.81258,0.11391c-0.51941,-0.39369 -1.04334,-0.66918 -1.62527,-0.96324l-0.00478,-0.00248c-0.38613,0.1671 -0.83033,0.26489 -1.38335,0.06506c-0.81138,-0.2932 -1.61963,-2.05002 -1.31397,-2.84314c0.78588,-2.03918 2.0824,-1.10191 2.92314,0.18147zM224.43427,227.96723c0.03814,0.01516 0.08123,0.02371 0.1287,0.02655c0.00969,-0.02484 0.02121,-0.05031 0.03474,-0.07642c0.10812,-0.20866 0.25698,-0.289 0.39582,-0.31074c-0.34038,-0.83273 -0.91713,-1.88005 -1.20608,-1.03374c-0.09721,0.28469 0.41653,1.30276 0.64682,1.39434zM226.37683,227.20754l0.08732,0.14649c0.27641,-0.09362 0.54692,-0.1613 0.79003,-0.16801c-0.23301,-0.26762 -0.50345,-0.37214 -0.87735,0.02152z" fill="#c1c1c1" stroke-width="0.5"/><path d="M222.80966,229.63266c0.13194,-0.565 0.69694,-0.43305 0.69694,-0.43305l0.30838,0.0782c1.06828,0.42316 1.61519,1.26484 2.58135,1.7859c0,0 0.50756,0.28109 0.22648,0.78865c-0.28109,0.50756 -0.78865,0.22648 -0.78865,0.22648c-0.91882,-0.51919 -1.44465,-1.33438 -2.44266,-1.72068l-0.14878,-0.02856c0,0 -0.565,-0.13194 -0.43305,-0.69694z" fill="#c1c1c1" stroke-width="0.5"/><path d="M221.30259,231.06954c0.35308,-0.46039 0.81347,-0.1073 0.81347,-0.1073l0.33121,0.25426c0.8489,0.61634 1.74035,1.15766 2.47788,1.90748c0,0 0.40583,0.41465 -0.00882,0.82048c-0.41465,0.40583 -0.82048,-0.00882 -0.82048,-0.00882c-0.68428,-0.70319 -1.53742,-1.20453 -2.33029,-1.78009l-0.35568,-0.27253c0,0 -0.46039,-0.35308 -0.1073,-0.81347z" fill="#c1c1c1" stroke-width="0.5"/></g><path d="M215.79671,216.58127c-4.95057,0 -8.9638,-4.01323 -8.9638,-8.9638c0,-4.95057 4.01323,-8.9638 8.9638,-8.9638c4.95057,0 8.9638,4.01323 8.9638,8.9638c0,4.95057 -4.01323,8.9638 -8.9638,8.9638z" data-paper-data="{&quot;index&quot;:null}" fill="#dabe87" stroke="none" stroke-width="NaN"/><path d="M240.85126,152.20565c11.62732,0 21.05313,14.14329 21.05313,31.58993c0,17.44664 -9.4258,31.58994 -21.05313,31.58994c-11.62733,0 -21.05313,-14.1433 -21.05313,-31.58994c0,-17.44664 9.4258,-31.58993 21.05313,-31.58993z" data-paper-data="{&quot;index&quot;:null}" fill="#007eff" stroke="none" stroke-width="0"/><path d="M264.20329,215.04001c-4.95057,0 -8.9638,-4.01323 -8.9638,-8.9638c0,-4.95057 4.01323,-8.9638 8.9638,-8.9638c4.95057,0 8.9638,4.01323 8.9638,8.9638c0,4.95057 -4.01323,8.9638 -8.9638,8.9638z" data-paper-data="{&quot;index&quot;:null}" fill="#ffdf9e" stroke="none" stroke-width="NaN"/><g data-paper-data="{&quot;index&quot;:null}" stroke="none"><path d="M246.53816,238.67862l-0.60556,-1.65205l19.63752,-9.05894l0.52474,1.06375z" fill="#ffffff" stroke-width="0"/><path d="M245.99196,237.04077c0,0 -1.49671,-2.39402 -1.44773,-5.64046c0.03529,-2.33952 6.82528,-3.88586 8.88579,-7.30127c1.19709,-1.98425 -1.16984,-9.91349 -1.16984,-9.91349l5.15621,-2.74701l8.27482,16.77457z" fill="#0098ff" stroke-width="0"/><path d="M253.08825,223.82536c2.41655,-1.03672 4.50128,3.43834 1.5222,3.46413c0.01244,0.1444 -0.03161,0.31426 -0.22152,0.46943c-0.4493,0.3671 -0.8164,-0.08219 -0.8164,-0.08219c-0.41115,-0.50572 -0.85473,-0.89767 -1.35025,-1.32143l-0.00406,-0.00354c-0.41475,0.07069 -0.86948,0.06027 -1.35927,-0.2651c-0.71862,-0.47737 -1.08685,-2.37582 -0.6017,-3.07374c1.24737,-1.79442 2.28443,-0.57624 2.79658,0.87zM251.53426,225.14301c0.03345,0.02378 0.07328,0.04232 0.11872,0.05634c0.0153,-0.02183 0.03253,-0.04384 0.05188,-0.06599c0.15456,-0.17703 0.31823,-0.21975 0.45826,-0.20792c-0.13304,-0.88974 -0.44477,-2.044 -0.92631,-1.29044c-0.16199,0.25349 0.09547,1.3644 0.29744,1.50801zM253.60161,224.86603l0.05005,0.16303c0.29073,-0.02535 0.56958,-0.0269 0.80733,0.02428c-0.16283,-0.31527 -0.40074,-0.48099 -0.85738,-0.18731z" fill="#ffffff" stroke-width="0.5"/><path d="M249.56083,226.37534c0.26226,-0.51754 0.7798,-0.25528 0.7798,-0.25528l0.281,0.14914c0.93733,0.66459 1.26887,1.61201 2.08377,2.34748c0,0 0.42634,0.3935 0.03284,0.81986c-0.3935,0.42634 -0.81986,0.03284 -0.81986,0.03284c-0.76936,-0.7224 -1.08671,-1.63909 -1.96453,-2.2512l-0.13775,-0.06306c0,0 -0.51754,-0.26226 -0.25528,-0.7798z" fill="#ffffff" stroke-width="0.5"/><path d="M247.75579,227.41349c0.45226,-0.36344 0.8157,0.08882 0.8157,0.08882l0.2614,0.3256c0.67838,0.80019 1.41589,1.53759 1.95441,2.44103c0,0 0.29583,0.49912 -0.20328,0.79495c-0.49912,0.29583 -0.79495,-0.20328 -0.79495,-0.20328c-0.49786,-0.84551 -1.20764,-1.53499 -1.84127,-2.28227l-0.28084,-0.34915c0,0 -0.36344,-0.45226 0.08882,-0.8157z" fill="#ffffff" stroke-width="0.5"/></g><g data-paper-data="{&quot;index&quot;:null}" stroke="none"><path d="M241.21957,166.24006c-9.92931,4.75355 -21.8321,0.55777 -26.58564,-9.37153c-4.75355,-9.92931 -0.55777,-21.8321 9.37153,-26.58564c9.92931,-4.75355 21.8321,-0.55777 26.58564,9.37153c4.75355,9.92931 0.55777,21.8321 -9.37153,26.58564z" fill="url(#color-1)" stroke-width="NaN"/><path d="M239.95526,142.13247c-0.31137,-0.27214 -0.8904,-0.61109 -1.51999,-0.99028c-4.28283,-1.3139 -8.47628,-2.36842 -13.05895,-0.21157c-1.5522,0.73055 -6.60883,2.54164 -9.10124,4.59209c-0.23161,0.35271 -0.51638,0.64717 -0.87113,0.86251c-0.21107,0.266 -0.36755,0.53399 -0.45714,0.80222c-0.41426,1.24049 -0.66723,2.78553 -1.80384,3.63051c-1.6607,1.23459 -4.64364,1.25955 -6.15708,0.06809c-2.91916,-2.29813 -2.18592,-5.7317 -1.82893,-9.03895c0.86075,-7.97425 6.54201,-15.6774 13.69172,-19.47021c8.182,-4.3404 20.04668,-4.07398 27.85839,0.94953c2.16365,1.39139 3.53224,3.92672 5.3331,5.40613c0.99594,1.57888 1.822,3.2599 2.40619,5.07122c0,0 0.19318,0.59498 0.71427,0.89174c0.75083,2.2152 1.80518,4.28206 2.29004,6.59213c0.16278,0.77552 0.30832,1.65938 0.38578,2.56424c-0.29894,0.07214 -0.53502,0.14453 -0.65437,0.21004c-0.73324,0.40246 -1.45393,1.80325 -2.03233,3.49723c-0.78376,0.25073 -0.96367,1.15211 -0.96367,1.15211l-0.08049,0.68711c-0.37269,0.30228 -0.52412,0.73186 -0.52412,0.73186l-0.2491,0.71289c-0.1117,0.27662 -0.21487,0.5574 -0.30906,0.84147c-0.03604,-0.04008 -0.0735,-0.07847 -0.11263,-0.11488c-1.69777,-1.57972 -3.60408,-2.82077 -5.41868,-4.27975c-1.92374,-0.97974 -3.68578,-2.24601 -4.84829,-3.68057c-0.13225,-0.09597 -0.25774,-0.19166 -0.37668,-0.28708c-0.83141,-0.31411 -1.67211,-0.63074 -2.31179,-1.18984z" fill="#382500" stroke-width="0.5"/></g><path d="M-4.36937,366.6867v-375.37538h489.48949v375.37538z" fill="none" stroke-opacity="0.02419" stroke="#000000" stroke-width="0.5"/></g></g></svg>