<svg version="1.1" xmlns="http://www.w3.org/2000/svg" xmlns:xlink="http://www.w3.org/1999/xlink" width="489.98949" height="375.87538" viewBox="0,0,489.98949,375.87538"><defs><linearGradient x1="219.80332" y1="134.71621" x2="191.10178" y2="162.38325" gradientUnits="userSpaceOnUse" id="color-1"><stop offset="0" stop-color="#ffdf9e"/><stop offset="1" stop-color="#eccf93"/></linearGradient></defs><g transform="translate(4.61937,8.93868)"><g data-paper-data="{&quot;isPaintingLayer&quot;:true}" fill-rule="nonzero" stroke-linecap="butt" stroke-linejoin="miter" stroke-miterlimit="10" stroke-dasharray="" stroke-dashoffset="0" style="mix-blend-mode: normal"><g data-paper-data="{&quot;index&quot;:null}" stroke="none"><path d="M268.03907,237.18145l-1.652,-0.60569l5.7799,-20.83961l1.15086,0.28713z" fill="#c1c1c1" stroke-width="0"/><path d="M266.43627,236.53965c0,0 -2.79414,-0.40526 -5.2397,-2.54092c-1.76237,-1.53904 1.44628,-7.71963 0.17191,-11.4994c-0.74036,-2.19593 -8.32065,-5.51476 -8.32065,-5.51476l1.23651,-5.70996l18.14822,4.52781z" fill="#0078c7" stroke-width="0"/><path d="M260.93875,222.58323c0.77082,-2.51402 5.53298,-1.21242 3.62717,1.07746c0.11822,0.08384 0.21935,0.22724 0.21502,0.47244c-0.01027,0.58012 -0.59038,0.56984 -0.59038,0.56984c-0.65162,-0.01313 -1.23741,0.07201 -1.88103,0.17623l-0.00532,0.0008c-0.21413,0.36217 -0.51598,0.70241 -1.08082,0.86586c-0.82873,0.2398 -2.51535,-0.70625 -2.73434,-1.52753c-0.56303,-2.1116 1.03679,-2.11558 2.47137,-1.57162zM260.93979,224.62066c0.03977,-0.01016 0.07965,-0.02857 0.11972,-0.05418c-0.00676,-0.02579 -0.01242,-0.05317 -0.01682,-0.08224c-0.0352,-0.23236 0.03799,-0.38486 0.13753,-0.48407c-0.76489,-0.47354 -1.84714,-0.98173 -1.58337,-0.12723c0.08872,0.28745 1.10281,0.80901 1.34294,0.74771zM262.06463,222.86413l0.15675,0.06717c0.16857,-0.23823 0.34761,-0.452 0.54033,-0.60035c-0.34582,-0.07951 -0.62604,-0.00508 -0.69709,0.53318z" fill="#c1c1c1" stroke-width="0.5"/><path d="M260.6046,226.92298c-0.22541,-0.53462 0.30922,-0.76003 0.30922,-0.76003l0.29544,-0.11803c1.11295,-0.28569 2.05018,0.07368 3.13807,-0.07278c0,0 0.57584,-0.07099 0.64684,0.50484c0.07099,0.57584 -0.50484,0.64684 -0.50484,0.64684c-1.0485,0.12014 -1.9531,-0.23019 -2.98754,0.04401l-0.13715,0.06436c0,0 -0.53462,0.22541 -0.76003,-0.30922z" fill="#c1c1c1" stroke-width="0.5"/><path d="M260.23015,228.97131c0.01498,-0.58 0.59498,-0.56501 0.59498,-0.56501l0.41741,0.01098c1.04905,-0.00045 2.08842,-0.0866 3.12584,0.0864c0,0 0.57206,0.09686 0.4752,0.66892c-0.09686,0.57206 -0.66892,0.4752 -0.66892,0.4752c-0.96694,-0.16658 -1.95181,-0.07061 -2.93156,-0.07011l-0.44794,-0.01137c0,0 -0.58,-0.01498 -0.56501,-0.59498z" fill="#c1c1c1" stroke-width="0.5"/></g><path d="M267.25893,183.48768c-4.00479,2.91029 -9.61057,2.02301 -12.52086,-1.98178c-2.91029,-4.00479 -2.02301,-9.61057 1.98178,-12.52086c4.00479,-2.91029 9.61057,-2.02301 12.52086,1.98178c2.91029,4.00479 2.02301,9.61057 -1.98178,12.52086z" data-paper-data="{&quot;index&quot;:null}" fill="#dabe87" stroke="none" stroke-width="NaN"/><path d="M210.68252,155.34851c9.40599,-6.83534 25.34546,-0.93519 35.6018,13.17838c10.25634,14.11356 10.94569,31.09601 1.53969,37.93136c-9.406,6.83535 -25.34547,0.93518 -35.60181,-13.17839c-10.25634,-14.11356 -10.94569,-31.096 -1.53969,-37.93135z" data-paper-data="{&quot;index&quot;:null}" fill="#007eff" stroke="none" stroke-width="0"/><g data-paper-data="{&quot;index&quot;:null}" stroke="none"><path d="M271.11776,224.62484l-1.46106,-0.98045l10.56042,-18.87258l1.04984,0.55205z" fill="#ffffff" stroke-width="0"/><path d="M269.71306,223.62098c0,0 -2.61814,-1.05679 -4.487,-3.71181c-1.34678,-1.91331 3.23697,-7.15586 2.89602,-11.13009c-0.19809,-2.3089 -6.77418,-7.33186 -6.77418,-7.33186l2.55626,-5.25339l16.55522,8.70538z" fill="#0098ff" stroke-width="0"/><path d="M267.68472,208.75861c1.34543,-2.25928 5.66263,0.1353 3.26785,1.90747c0.09495,0.1095 0.15917,0.27281 0.09676,0.50997c-0.14766,0.5611 -0.70875,0.41345 -0.70875,0.41345c-0.6299,-0.1674 -1.21915,-0.22371 -1.86912,-0.27521l-0.00537,-0.00048c-0.29396,0.301 -0.66794,0.5599 -1.25543,0.58462c-0.86196,0.03628 -2.27589,-1.28301 -2.29371,-2.1328c-0.04582,-2.1849 1.50925,-1.8091 2.77376,-0.94023zM267.20222,210.73807c0.04104,-0.00043 0.08416,-0.00884 0.12916,-0.02422c-0.00046,-0.02665 0.00054,-0.05459 0.00318,-0.08388c0.02096,-0.23407 0.12825,-0.36485 0.24848,-0.4376c-0.63067,-0.64155 -1.5614,-1.39204 -1.50795,-0.49936c0.01798,0.30029 0.87932,1.04762 1.12713,1.04506zM268.71178,209.29868l0.13633,0.10246c0.22029,-0.19142 0.44495,-0.3566 0.66737,-0.45496c-0.31706,-0.15932 -0.60694,-0.15352 -0.8037,0.3525z" fill="#ffffff" stroke-width="0.5"/><path d="M266.33025,212.89509c-0.09209,-0.57284 0.48075,-0.66493 0.48075,-0.66493l0.31499,-0.04454c1.14895,-0.0134 1.97411,0.55812 3.06569,0.67402c0,0 0.57622,0.06769 0.50854,0.64393c-0.06769,0.57622 -0.64393,0.50854 -0.64393,0.50854c-1.04706,-0.13211 -1.84267,-0.68711 -2.91263,-0.66624l-0.1485,0.02997c0,0 -0.57284,0.09209 -0.66493,-0.48075z" fill="#ffffff" stroke-width="0.5"/><path d="M265.48034,214.79604c0.1522,-0.55988 0.71208,-0.40767 0.71208,-0.40767l0.40287,0.10973c1.01919,0.24852 2.04929,0.41148 3.01604,0.82575c0,0 0.53273,0.22986 0.30288,0.76258c-0.22986,0.53273 -0.76258,0.30288 -0.76258,0.30288c-0.8998,-0.3913 -1.8793,-0.53181 -2.83118,-0.76383l-0.43244,-0.11735c0,0 -0.55988,-0.1522 -0.40767,-0.71208z" fill="#ffffff" stroke-width="0.5"/></g><g data-paper-data="{&quot;index&quot;:null}" stroke="none"><path d="M219.28608,162.9005c-7.92572,7.64005 -20.54425,7.40847 -28.1843,-0.51724c-7.64005,-7.92572 -7.40847,-20.54425 0.51724,-28.1843c7.92572,-7.64005 20.54425,-7.40847 28.1843,0.51724c7.64005,7.92572 7.40847,20.54425 -0.51724,28.1843z" fill="url(#color-1)" stroke-width="NaN"/><path d="M210.49007,140.4193c-0.38126,-0.16017 -1.0376,-0.2994 -1.7546,-0.4609c-4.47867,0.10251 -8.79078,0.42303 -12.46041,3.91397c-1.24294,1.18242 -5.47133,4.49456 -7.19071,7.2259c-0.10868,0.40773 -0.28616,0.77691 -0.55498,1.09306c-0.11651,0.31896 -0.18058,0.6226 -0.18108,0.9054c-0.00229,1.30783 0.24446,2.85388 -0.56801,4.01395c-1.1871,1.69497 -4.01022,2.65856 -5.82199,2.00467c-3.49459,-1.26126 -3.88058,-4.75097 -4.58386,-8.00223c-1.69571,-7.83927 1.26895,-16.94015 6.85938,-22.79257c6.3976,-6.69739 17.74185,-10.18299 26.73851,-7.87678c2.49185,0.63877 4.58959,2.61372 6.76487,3.45033c1.4427,1.18464 2.75635,2.51974 3.88152,4.05472c0,0 0.37081,0.50381 0.95887,0.62125c1.41058,1.86578 3.06246,3.49514 4.25052,5.53476c0.39885,0.68472 0.81548,1.4777 1.1741,2.31206c-0.26098,0.16266 -0.46223,0.30575 -0.55485,0.40553c-0.56907,0.613 -0.81168,2.16952 -0.82686,3.95946c-0.66483,0.48492 -0.55156,1.39706 -0.55156,1.39706l0.14012,0.67747c-0.25846,0.40431 -0.26682,0.85972 -0.26682,0.85972l-0.01178,0.75506c-0.01885,0.29773 -0.02829,0.59671 -0.02818,0.89599c-0.04684,-0.02668 -0.09448,-0.05131 -0.14309,-0.07354c-2.10904,-0.9643 -4.3093,-1.54146 -6.49118,-2.35436c-2.13446,-0.32368 -4.20573,-0.97024 -5.76104,-1.96543c-0.15575,-0.04941 -0.305,-0.10068 -0.44795,-0.15376c-0.88804,-0.03614 -1.78568,-0.07174 -2.56894,-0.4008z" fill="#382500" stroke-width="0.5"/></g><path d="M-4.36937,366.6867v-375.37538h489.48949v375.37538z" fill="none" stroke-opacity="0.02419" stroke="#000000" stroke-width="0.5"/><path d="M275.17833,184.78413c-4.00479,2.91029 -9.61057,2.02301 -12.52086,-1.98178c-2.91029,-4.00479 -2.02301,-9.61057 1.98178,-12.52086c4.00479,-2.91029 9.61057,-2.02301 12.52086,1.98178c2.91029,4.00479 2.02301,9.61057 -1.98178,12.52086z" data-paper-data="{&quot;index&quot;:null}" fill="#ffdf9e" stroke="none" stroke-width="NaN"/></g></g></svg>