<svg version="1.1" xmlns="http://www.w3.org/2000/svg" xmlns:xlink="http://www.w3.org/1999/xlink" width="489.98949" height="375.87538" viewBox="0,0,489.98949,375.87538"><defs><linearGradient x1="233.43018" y1="140.04734" x2="200.01294" y2="161.78513" gradientUnits="userSpaceOnUse" id="color-1"><stop offset="0" stop-color="#ffdf9e"/><stop offset="1" stop-color="#eccf93"/></linearGradient></defs><g transform="translate(4.61937,8.93868)"><g data-paper-data="{&quot;isPaintingLayer&quot;:true}" fill-rule="nonzero" stroke-linecap="butt" stroke-linejoin="miter" stroke-miterlimit="10" stroke-dasharray="" stroke-dashoffset="0" style="mix-blend-mode: normal"><path d="M-4.36937,366.6867v-375.37538h489.48949v375.37538z" fill="none" stroke-opacity="0.02419" stroke="#000000" stroke-width="0.5"/><g data-paper-data="{&quot;index&quot;:null}" stroke="none"><path d="M248.38605,246.04657l-1.15471,-1.32763l15.118,-15.46423l0.86948,0.8068z" fill="#c1c1c1" stroke-width="0"/><path d="M247.29185,244.71105c0,0 -2.25182,-1.70318 -3.36335,-4.75379c-0.80102,-2.1984 4.99163,-6.06367 5.69923,-9.98922c0.4111,-2.28062 -4.62697,-8.84516 -4.62697,-8.84516l3.83818,-4.40464l13.71104,12.72267z" fill="#0078c7" stroke-width="0"/><path d="M249.21086,229.83417c1.88822,-1.83007 5.43128,1.60782 2.65711,2.69391c0.06309,0.13048 0.08248,0.30488 -0.03963,0.51755c-0.28891,0.50316 -0.79206,0.21425 -0.79206,0.21425c-0.5644,-0.32593 -1.11858,-0.534 -1.7326,-0.75327l-0.00505,-0.00187c-0.36231,0.2139 -0.79086,0.36625 -1.36447,0.23688c-0.84158,-0.18984 -1.86238,-1.83229 -1.65791,-2.65731c0.52573,-2.12119 1.92891,-1.35274 2.92297,-0.18408zM248.22868,231.61922c0.03973,0.01029 0.08355,0.01341 0.131,0.01031c0.00651,-0.02586 0.01478,-0.05256 0.02495,-0.08016c0.08129,-0.22051 0.21898,-0.31876 0.35403,-0.35762c-0.44146,-0.78385 -1.14419,-1.75115 -1.32546,-0.87544c-0.06099,0.29458 0.57558,1.24073 0.81548,1.3029zM250.06147,230.62347l0.10488,0.13447c0.26259,-0.12732 0.52256,-0.22817 0.76295,-0.26512c-0.26453,-0.23651 -0.54588,-0.30652 -0.86783,0.13065z" fill="#c1c1c1" stroke-width="0.5"/><path d="M246.82419,233.47406c0.06053,-0.57704 0.63756,-0.5165 0.63756,-0.5165l0.31572,0.03917c1.11268,0.28679 1.76016,1.05378 2.78371,1.45043c0,0 0.53862,0.21567 0.32296,0.75429c-0.21567,0.53862 -0.75429,0.32296 -0.75429,0.32296c-0.97634,-0.40068 -1.59962,-1.14402 -2.63798,-1.40299l-0.15117,-0.0098c0,0 -0.57704,-0.06053 -0.5165,-0.63757z" fill="#c1c1c1" stroke-width="0.5"/><path d="M245.50785,235.08748c0.29297,-0.50079 0.79378,-0.2078 0.79378,-0.2078l0.3603,0.21102c0.91907,0.50579 1.871,0.93185 2.6962,1.58395c0,0 0.45432,0.36087 0.09346,0.81519c-0.36087,0.45432 -0.81518,0.09346 -0.81518,0.09346c-0.76654,-0.61247 -1.6755,-1.00363 -2.53389,-1.47594l-0.38685,-0.22611c0,0 -0.50079,-0.29297 -0.2078,-0.79376z" fill="#c1c1c1" stroke-width="0.5"/></g><path d="M271.12028,188.18912c-4.33603,2.38894 -9.78768,0.81054 -12.17663,-3.52548c-2.38894,-4.33603 -0.81053,-9.78769 3.52549,-12.17664c4.33603,-2.38894 9.78769,-0.81052 12.17663,3.52549c2.38894,4.33603 0.81052,9.78769 -3.52549,12.17663z" data-paper-data="{&quot;index&quot;:null}" fill="#dabe87" stroke="none" stroke-width="NaN"/><path d="M220.72036,154.17592c10.18394,-5.61088 25.26464,2.2282 33.68369,17.50906c8.41905,15.28086 6.98833,32.21696 -3.19563,37.82785c-10.18395,5.61088 -25.26464,-2.2282 -33.68369,-17.50907c-8.41905,-15.28086 -6.98832,-32.21696 3.19563,-37.82785z" data-paper-data="{&quot;index&quot;:null}" fill="#007eff" stroke="none" stroke-width="0"/><g data-paper-data="{&quot;index&quot;:null}" stroke="none"><path d="M263.74053,226.13581l-0.97102,-1.46734l17.01181,-13.35272l0.75641,0.91365z" fill="#ffffff" stroke-width="0"/><path d="M262.83054,224.66857c0,0 -2.00955,-1.98324 -2.71229,-5.15308c-0.50644,-2.28433 5.74226,-5.35825 6.95752,-9.15745c0.70603,-2.20722 -3.4296,-9.37462 -3.4296,-9.37462l4.38162,-3.86445l11.92808,14.40763z" fill="#0098ff" stroke-width="0"/><path d="M266.67999,210.17077c2.11147,-1.56722 5.17413,2.30479 2.28169,3.01848c0.04548,0.13761 0.04189,0.31305 -0.10701,0.50792c-0.35227,0.46101 -0.81329,0.10874 -0.81329,0.10874c-0.51691,-0.397 -1.03907,-0.6758 -1.61912,-0.97354l-0.00476,-0.00251c-0.38718,0.16465 -0.832,0.25962 -1.38374,0.05627c-0.8095,-0.29834 -1.60658,-2.06027 -1.29588,-2.85142c0.79882,-2.03415 2.08937,-1.08867 2.92194,0.20002zM265.47265,211.81193c0.03804,0.0154 0.08108,0.02423 0.12853,0.02738c0.00985,-0.02478 0.02151,-0.05017 0.03522,-0.0762c0.10945,-0.20796 0.25882,-0.28735 0.3978,-0.30821c-0.33509,-0.83489 -0.90518,-1.88584 -1.1995,-1.04138c-0.09902,0.28406 0.40825,1.30538 0.63794,1.39842zM267.41999,211.0646l0.08638,0.14705c0.27699,-0.09187 0.54794,-0.15783 0.79108,-0.16298c-0.2313,-0.26909 -0.50106,-0.37534 -0.87746,0.01594z" fill="#ffffff" stroke-width="0.5"/><path d="M263.83751,213.46704c0.13553,-0.56414 0.69967,-0.42861 0.69967,-0.42861l0.30786,0.08015c1.06556,0.42993 1.60712,1.27506 2.56995,1.80226c0,0 0.50575,0.2843 0.22146,0.79006c-0.28429,0.50574 -0.79007,0.22146 -0.79007,0.22146c-0.91551,-0.525 -1.43615,-1.34352 -2.43168,-1.73615l-0.1486,-0.02951c0,0 -0.56414,-0.13553 -0.42861,-0.69967z" fill="#ffffff" stroke-width="0.5"/><path d="M262.32132,214.8943c0.356,-0.45814 0.81414,-0.10213 0.81414,-0.10213l0.32958,0.25635c0.84496,0.62171 1.73296,1.16867 2.46571,1.92318c0,0 0.40319,0.41723 -0.01403,0.82041c-0.41722,0.40319 -0.82041,-0.01402 -0.82041,-0.01402c-0.67981,-0.70753 -1.52974,-1.21429 -2.31894,-1.79488l-0.35394,-0.27478c0,0 -0.45814,-0.356 -0.10214,-0.81413z" fill="#ffffff" stroke-width="0.5"/></g><g data-paper-data="{&quot;index&quot;:null}" stroke="none"><path d="M227.59046,167.62486c-9.22791,6.00274 -21.5748,3.3882 -27.57752,-5.83973c-6.00274,-9.22791 -3.3882,-21.5748 5.83973,-27.57752c9.22791,-6.00274 21.5748,-3.3882 27.57752,5.83973c6.00274,9.22791 3.3882,21.5748 -5.83973,27.57752z" fill="url(#color-1)" stroke-width="NaN"/><path d="M223.2062,143.8856c-0.34408,-0.22941 -0.96223,-0.49029 -1.63573,-0.7845c-4.41719,-0.74659 -8.71208,-1.24762 -12.97584,1.48607c-1.44418,0.92593 -6.22281,3.37834 -8.42783,5.7351c-0.18385,0.3798 -0.42797,0.70875 -0.75174,0.96833c-0.17473,0.29117 -0.29509,0.5772 -0.34909,0.8548c-0.24966,1.28378 -0.29985,2.84859 -1.31711,3.83403c-1.4863,1.43979 -4.44075,1.85192 -6.0961,0.86707c-3.19288,-1.89958 -2.91174,-5.39929 -2.98726,-8.7249c-0.18209,-8.0185 4.45072,-16.3942 11.04735,-21.08337c7.54906,-5.36618 19.34786,-6.64277 27.7458,-2.67625c2.32602,1.09864 4.01226,3.43477 5.99,4.66779c1.19255,1.43619 2.2299,2.99568 3.04438,4.7158c0,0 0.26882,0.56486 0.82403,0.79143c1.03213,2.09893 2.34596,4.01137 3.12671,6.23891c0.26211,0.74781 0.52121,1.60529 0.71552,2.49243c-0.28704,0.11035 -0.51173,0.2128 -0.62155,0.29324c-0.67476,0.49428 -1.20744,1.97679 -1.56097,3.73153c-0.74457,0.35039 -0.80589,1.26749 -0.80589,1.26749l0.00942,0.69176c-0.33029,0.34811 -0.42465,0.79372 -0.42465,0.79372l-0.15442,0.7392c-0.07484,0.28879 -0.14066,0.58058 -0.19717,0.87448c-0.04094,-0.03505 -0.08308,-0.06826 -0.1266,-0.09927c-1.88854,-1.34587 -3.93987,-2.32885 -5.92857,-3.53983c-2.03469,-0.72162 -3.94623,-1.74835 -5.2852,-3.01979c-0.14359,-0.07798 -0.28045,-0.15656 -0.41077,-0.23572c-0.86517,-0.20349 -1.73987,-0.40825 -2.44673,-0.87955z" fill="#382500" stroke-width="0.5"/></g><path d="M269.67779,193.68204c-4.33603,2.38894 -9.78769,0.81052 -12.17664,-3.52549c-2.38894,-4.33603 -0.81052,-9.78769 3.52549,-12.17663c4.33603,-2.38894 9.78768,-0.81053 12.17663,3.52549c2.38894,4.33603 0.81053,9.78769 -3.52548,12.17663z" data-paper-data="{&quot;index&quot;:null}" fill="#ffdf9e" stroke="none" stroke-width="NaN"/></g></g></svg>