<svg version="1.1" xmlns="http://www.w3.org/2000/svg" xmlns:xlink="http://www.w3.org/1999/xlink" width="489.98949" height="375.87538" viewBox="0,0,489.98949,375.87538"><defs><linearGradient x1="269.8495" y1="139.10587" x2="234.11025" y2="156.76799" gradientUnits="userSpaceOnUse" id="color-1"><stop offset="0" stop-color="#ffdf9e"/><stop offset="1" stop-color="#eccf93"/></linearGradient></defs><g transform="translate(4.61937,8.93868)"><g data-paper-data="{&quot;isPaintingLayer&quot;:true}" fill-rule="nonzero" stroke-linecap="butt" stroke-linejoin="miter" stroke-miterlimit="10" stroke-dasharray="" stroke-dashoffset="0" style="mix-blend-mode: normal"><path d="M-4.36937,366.6867v-375.37538h489.48949v375.37538z" fill="none" stroke-opacity="0.02419" stroke="#000000" stroke-width="0.5"/><g data-paper-data="{&quot;index&quot;:null}" stroke="none"><path d="M183.89347,224.33162l0.92457,-1.49704l19.25785,9.84032l-0.51202,1.06993z" fill="#c1c1c1" stroke-width="0"/><path d="M184.84357,222.89003c0,0 0.95717,-2.65618 3.53974,-4.62396c1.8611,-1.41806 7.27298,2.96448 11.2315,2.47373c2.29978,-0.28511 7.07086,-7.04618 7.07086,-7.04618l5.34616,2.35609l-8.0741,16.87211z" fill="#0078c7" stroke-width="0"/><path d="M199.61876,220.30196c2.30846,1.25916 0.0786,5.66371 -1.78273,3.33754c-0.10584,0.09902 -0.2666,0.16934 -0.50595,0.11595c-0.56628,-0.12635 -0.43991,-0.69263 -0.43991,-0.69263c0.1435,-0.63576 0.17752,-1.22673 0.20444,-1.87817l0.00029,-0.00537c-0.31189,-0.2824 -0.58472,-0.64632 -0.63161,-1.23247c-0.0688,-0.85998 1.19617,-2.32271 2.04468,-2.3726c2.18161,-0.12829 1.86478,1.43985 1.04428,2.73627zM197.62248,219.89454c0.00199,0.041 0.01203,0.08376 0.02908,0.12815c0.02663,-0.00146 0.05458,-0.00151 0.08395,0.00001c0.2347,0.01209 0.36943,0.11438 0.44668,0.23177c0.61726,-0.65442 1.33209,-1.61284 0.44206,-1.52572c-0.2994,0.02929 -1.01368,0.91824 -1.00176,1.16578zM199.11785,221.34868l-0.09723,0.14011c0.1996,0.2129 0.37314,0.43116 0.47984,0.64971c0.14723,-0.32287 0.13048,-0.61231 -0.3826,-0.78982z" fill="#c1c1c1" stroke-width="0.5"/><path d="M195.4341,219.1046c0.56896,-0.11366 0.6826,0.45531 0.6826,0.45531l0.05641,0.3131c0.05678,1.14764 -0.48318,1.99378 -0.55779,3.08896c0,0 -0.04589,0.57839 -0.62427,0.5325c-0.57838,-0.0459 -0.5325,-0.62427 -0.5325,-0.62427c0.09249,-1.0513 0.61705,-1.86731 0.55579,-2.93571l-0.03556,-0.14726c0,0 -0.11366,-0.56896 0.45531,-0.6826z" fill="#c1c1c1" stroke-width="0.5"/><path d="M193.50242,218.32712c0.56522,0.13095 0.43427,0.69617 0.43427,0.69617l-0.09443,0.40673c-0.20986,1.02784 -0.33382,2.06338 -0.71129,3.04507c0,0 -0.20957,0.54103 -0.75061,0.33145c-0.54103,-0.20957 -0.33145,-0.75061 -0.33145,-0.75061c0.35704,-0.91391 0.46046,-1.89803 0.65638,-2.858l0.10094,-0.43656c0,0 0.13095,-0.56522 0.69617,-0.43426z" fill="#c1c1c1" stroke-width="0.5"/></g><path d="M199.97924,189.37282c-4.6153,-1.79084 -6.90499,-6.98404 -5.11415,-11.59935c1.79084,-4.6153 6.98404,-6.90499 11.59935,-5.11415c4.6153,1.79084 6.90499,6.98404 5.11415,11.59935c-1.79084,4.6153 -6.98404,6.90499 -11.59935,5.11415z" data-paper-data="{&quot;index&quot;:null}" fill="#dabe87" stroke="none" stroke-width="NaN"/><path d="M258.55319,152.57791c10.83989,4.20611 14.51112,20.80131 8.1999,37.06642c-6.31122,16.26511 -20.21493,26.04087 -31.05483,21.83475c-10.8399,-4.20611 -14.51111,-20.80132 -8.19989,-37.06643c6.31122,-16.26511 20.21492,-26.04086 31.05482,-21.83475z" data-paper-data="{&quot;index&quot;:null}" fill="#007eff" stroke="none" stroke-width="0"/><path d="M269.8689,238.34743c-4.6153,-1.79084 -6.90499,-6.98404 -5.11415,-11.59935c1.79084,-4.6153 6.98404,-6.90499 11.59935,-5.11415c4.6153,1.79084 6.90499,6.98404 5.11415,11.59935c-1.79084,4.6153 -6.98404,6.90499 -11.59935,5.11415z" data-paper-data="{&quot;index&quot;:null}" fill="#ffdf9e" stroke="none" stroke-width="NaN"/><g data-paper-data="{&quot;index&quot;:null}" stroke="none"><path d="M213.32887,242.82979l0.3697,-1.72026l21.44152,2.82093l-0.12404,1.17963z" fill="#ffffff" stroke-width="0"/><path d="M213.74118,241.15321c0,0 0.01213,-2.82336 1.78634,-5.54253c1.27856,-1.95956 7.84582,0.35695 11.41125,-1.43146c2.07141,-1.03902 4.30206,-9.00766 4.30206,-9.00766l5.82653,0.42915l-1.95591,18.60197z" fill="#0098ff" stroke-width="0"/><path d="M226.79584,233.76538c2.59688,0.41314 1.97125,5.31016 -0.56175,3.74189c-0.06656,0.12875 -0.19447,0.24889 -0.43789,0.27873c-0.57589,0.07062 -0.64651,-0.50526 -0.64651,-0.50526c-0.07776,-0.64711 -0.24366,-1.21532 -0.4365,-1.83816l-0.00155,-0.00516c-0.38846,-0.16159 -0.76743,-0.41312 -1.00796,-0.94969c-0.3529,-0.78724 0.34901,-2.5892 1.13179,-2.92044c2.0126,-0.85166 2.23938,0.73202 1.90054,2.22839zM224.77843,234.05019c0.0156,0.03796 0.03937,0.0749 0.07032,0.11101c0.02459,-0.01029 0.05091,-0.01971 0.07909,-0.02812c0.22519,-0.06721 0.3864,-0.01598 0.4985,0.06877c0.36239,-0.82341 0.71488,-1.96588 -0.09455,-1.58567c-0.27228,0.12789 -0.64751,1.20475 -0.55338,1.43399zM226.67449,234.91941l-0.04469,0.16458c0.25938,0.13373 0.49602,0.28127 0.66975,0.45144c0.03058,-0.35351 -0.08215,-0.62065 -0.62506,-0.61602z" fill="#ffffff" stroke-width="0.5"/><path d="M222.45185,234.03898c0.49802,-0.29768 0.79568,0.20035 0.79568,0.20035l0.15802,0.2761c0.43792,1.06231 0.2126,2.04043 0.50914,3.09734c0,0 0.1505,0.56032 -0.40983,0.71084c-0.56032,0.1505 -0.71084,-0.40983 -0.71084,-0.40983c-0.26501,-1.02154 -0.04409,-1.96611 -0.45971,-2.95228l-0.08283,-0.12685c0,0 -0.29768,-0.49802 0.20034,-0.79568z" fill="#ffffff" stroke-width="0.5"/><path d="M220.37132,233.95343c0.57644,-0.06595 0.64238,0.51049 0.64238,0.51049l0.04725,0.41486c0.14657,1.03876 0.37665,2.05598 0.34983,3.10741c0,0 -0.01624,0.57998 -0.59621,0.56374c-0.57998,-0.01624 -0.56375,-0.5962 -0.56375,-0.5962c0.03028,-0.98074 -0.20193,-1.94264 -0.33889,-2.91277l-0.05113,-0.44516c0,0 -0.06595,-0.57644 0.51049,-0.64238z" fill="#ffffff" stroke-width="0.5"/></g><g data-paper-data="{&quot;index&quot;:null}" stroke="none"><path d="M260.81095,165.80654c-9.86913,4.87725 -21.82343,0.83058 -26.70068,-9.03856c-4.87725,-9.86913 -0.83057,-21.82342 9.03856,-26.70068c9.86913,-4.87725 21.82342,-0.83057 26.70068,9.03856c4.87725,9.86913 0.83057,21.82342 -9.03855,26.70068z" fill="url(#color-1)" stroke-width="NaN"/><path d="M259.24546,141.71664c-0.31475,-0.26823 -0.89796,-0.5999 -1.53225,-0.9712c-4.29892,-1.26028 -8.50523,-2.26231 -13.06056,-0.04835c-1.54294,0.74989 -6.57655,2.62403 -9.04314,4.70546c-0.22719,0.35559 -0.50825,0.65357 -0.86028,0.87334c-0.20772,0.26862 -0.36086,0.53855 -0.44708,0.80788c-0.39871,1.24557 -0.63236,2.79365 -1.75832,3.65277c-1.64514,1.25524 -4.62754,1.31749 -6.15575,0.14503c-2.94765,-2.26147 -2.25737,-5.70394 -1.94175,-9.01538c0.76103,-7.98438 6.34557,-15.75794 13.44732,-19.6398c8.12711,-4.44231 19.9942,-4.3242 27.86808,0.60129c2.18087,1.36424 3.58105,3.88226 5.40025,5.33904c1.0156,1.5663 1.8626,3.23687 2.46939,5.04075c0,0 0.2006,0.59253 0.72536,0.88274c0.77845,2.20564 1.85855,4.25916 2.37225,6.56299c0.17245,0.77342 0.32903,1.65541 0.4178,2.55921c-0.29801,0.07587 -0.53318,0.15121 -0.65169,0.2182c-0.72814,0.41159 -1.43128,1.82129 -1.98847,3.52235c-0.78057,0.26051 -0.94921,1.16406 -0.94921,1.16406l-0.07189,0.68806c-0.36888,0.30691 -0.51494,0.73836 -0.51494,0.73836l-0.24017,0.71595c-0.10823,0.278 -0.20789,0.56004 -0.29853,0.84527c-0.03655,-0.03963 -0.07447,-0.07755 -0.11405,-0.11346c-1.71738,-1.55838 -3.63904,-2.7755 -5.47174,-4.21169c-1.93584,-0.95562 -3.71356,-2.19977 -4.89392,-3.6197c-0.13344,-0.09431 -0.26012,-0.18842 -0.38025,-0.28235c-0.83527,-0.3037 -1.67987,-0.60979 -2.32647,-1.16086z" fill="#382500" stroke-width="0.5"/></g></g></g></svg>