<svg version="1.1" xmlns="http://www.w3.org/2000/svg" xmlns:xlink="http://www.w3.org/1999/xlink" width="489.98949" height="375.87538" viewBox="0,0,489.98949,375.87538"><defs><linearGradient x1="279.33458" y1="143.98271" x2="240.74816" y2="153.99931" gradientUnits="userSpaceOnUse" id="color-1"><stop offset="0" stop-color="#ffdf9e"/><stop offset="1" stop-color="#eccf93"/></linearGradient></defs><g transform="translate(4.61937,8.9387)"><g data-paper-data="{&quot;isPaintingLayer&quot;:true}" fill-rule="nonzero" stroke-linecap="butt" stroke-linejoin="miter" stroke-miterlimit="10" stroke-dasharray="" stroke-dashoffset="0" style="mix-blend-mode: normal"><g data-paper-data="{&quot;index&quot;:null}" stroke="none"><path d="M195.63912,209.37953l1.53754,-0.85554l12.00763,17.98648l-0.96901,0.68406z" fill="#c1c1c1" stroke-width="0"/><path d="M197.17188,208.58483c0,0 2.13162,-1.8514 5.34606,-2.30877c2.31645,-0.32961 4.90172,6.13658 8.59642,7.63985c2.14651,0.87336 9.6102,-2.69996 9.6102,-2.69996l3.51675,4.6653l-15.28064,10.78707z" fill="#0078c7" stroke-width="0"/><path d="M211.33145,213.53567c1.40053,2.22554 -2.69511,4.98198 -3.18469,2.04329c-0.1407,0.03478 -0.31534,0.01772 -0.49821,-0.14569c-0.43262,-0.38662 -0.046,-0.81923 -0.046,-0.81923c0.43548,-0.4849 0.75355,-0.98413 1.09494,-1.53962l0.00287,-0.00456c-0.13444,-0.39868 -0.19499,-0.84947 0.0501,-1.38397c0.3596,-0.78421 2.1775,-1.44371 2.94248,-1.07321c1.96684,0.95259 0.92509,2.16675 -0.42371,2.89796zM209.78779,212.20592c-0.01828,0.03675 -0.03038,0.07898 -0.03715,0.12605c0.02395,0.01172 0.04837,0.02532 0.07327,0.04097c0.19896,0.12508 0.26665,0.2801 0.27678,0.42027c0.85813,-0.27002 1.94975,-0.75776 1.13037,-1.11602c-0.27563,-0.12053 -1.33286,0.30685 -1.44326,0.52874zM210.38346,214.20488l-0.15324,0.07485c0.07033,0.28323 0.1153,0.55843 0.10179,0.80126c0.28605,-0.20997 0.41268,-0.47079 0.05145,-0.8761z" fill="#c1c1c1" stroke-width="0.5"/><path d="M208.2631,210.44855c0.55208,0.17843 0.37365,0.73051 0.37365,0.73051l-0.10355,0.30082c-0.51045,1.02943 -1.39466,1.50452 -1.99419,2.42405c0,0 -0.32229,0.48245 -0.80474,0.16017c-0.48245,-0.32229 -0.16017,-0.80474 -0.16017,-0.80474c0.59373,-0.87251 1.44979,-1.32879 1.91768,-2.29125l0.04082,-0.14589c0,0 0.17843,-0.55208 0.73051,-0.37365z" fill="#c1c1c1" stroke-width="0.5"/><path d="M206.9564,208.82731c0.42946,0.39011 0.03934,0.81957 0.03934,0.81957l-0.2809,0.30894c-0.68474,0.79476 -1.29825,1.63815 -2.10676,2.31083c0,0 -0.44693,0.36998 -0.81691,-0.07696c-0.36998,-0.44693 0.07696,-0.81691 0.07696,-0.81691c0.75761,-0.62349 1.3281,-1.43203 1.96754,-2.17434l0.30114,-0.33181c0,0 0.39011,-0.42946 0.81957,-0.03934z" fill="#c1c1c1" stroke-width="0.5"/></g><path d="M195.77717,184.85083c-4.40577,-2.25773 -6.14709,-7.65957 -3.88936,-12.06534c2.25773,-4.40577 7.65957,-6.14709 12.06534,-3.88936c4.40577,2.25773 6.14709,7.65957 3.88936,12.06534c-2.25773,4.40577 -7.65957,6.14709 -12.06534,3.88936z" data-paper-data="{&quot;index&quot;:null}" fill="#dabe87" stroke="none" stroke-width="NaN"/><path d="M264.43334,155.31926c10.34775,5.3027 12.28614,22.18823 4.32951,37.7149c-7.95663,15.52666 -22.79526,23.81483 -33.14302,18.51212c-10.34776,-5.30271 -12.28614,-22.18824 -4.3295,-37.7149c7.95663,-15.52666 22.79526,-23.81482 33.14302,-18.51211z" data-paper-data="{&quot;index&quot;:null}" fill="#007eff" stroke="none" stroke-width="0"/><path d="M277.55957,238.55527c-4.40577,-2.25773 -6.14709,-7.65957 -3.88936,-12.06534c2.25773,-4.40577 7.65957,-6.14709 12.06534,-3.88936c4.40577,2.25773 6.14709,7.65957 3.88936,12.06534c-2.25773,4.40577 -7.65957,6.14709 -12.06534,3.88936z" data-paper-data="{&quot;index&quot;:null}" fill="#ffdf9e" stroke="none" stroke-width="NaN"/><g data-paper-data="{&quot;index&quot;:null}" stroke="none"><path d="M212.57649,231.5985l1.0066,-1.44317l18.67935,10.89855l-0.57086,1.03973z" fill="#ffffff" stroke-width="0"/><path d="M213.60548,230.21211c0,0 1.10376,-2.59869 3.792,-4.41944c1.93726,-1.31211 7.09641,3.36531 11.07613,3.09597c2.3121,-0.15648 7.45266,-6.64106 7.45266,-6.64106l5.2065,2.65045l-9.00208,16.39577z" fill="#0098ff" stroke-width="0"/><path d="M228.50197,228.45172c2.23468,1.38589 -0.23725,5.65928 -1.96601,3.23297c-0.11119,0.09296 -0.27563,0.15423 -0.51163,0.08756c-0.55835,-0.15774 -0.40062,-0.71608 -0.40062,-0.71608c0.17872,-0.62678 0.24562,-1.21493 0.30882,-1.86386l0.00057,-0.00536c-0.29566,-0.29933 -0.54778,-0.67791 -0.56192,-1.26576c-0.02076,-0.86248 1.32378,-2.25241 2.17376,-2.25493c2.18537,-0.00647 1.78163,1.54158 0.89013,2.79024zM226.53151,227.93365c-0.00031,0.04104 0.00733,0.0843 0.02189,0.12957c0.02666,0.00002 0.05457,0.00153 0.08381,0.00469c0.23366,0.02517 0.36248,0.1348 0.43305,0.25632c0.6528,-0.61902 1.41993,-1.53608 0.52643,-1.49872c-0.30057,0.01257 -1.06328,0.86031 -1.06518,1.10813zM227.94349,229.46889l-0.1049,0.13446c0.18742,0.2237 0.34853,0.4513 0.44287,0.67545c0.165,-0.31414 0.16442,-0.60408 -0.33797,-0.80991z" fill="#ffffff" stroke-width="0.5"/><path d="M224.39055,227.02298c0.57441,-0.08176 0.65617,0.49265 0.65617,0.49265l0.03886,0.31574c-0.00729,1.14901 -0.59357,1.96374 -0.72912,3.05306c0,0 -0.07806,0.5749 -0.65298,0.49686c-0.5749,-0.07806 -0.49686,-0.65298 -0.49686,-0.65298c0.15094,-1.04451 0.72018,-1.83 0.71858,-2.90016l-0.02729,-0.14902c0,0 -0.08176,-0.57441 0.49265,-0.65617z" fill="#ffffff" stroke-width="0.5"/><path d="M222.50521,226.13899c0.55705,0.16226 0.39478,0.71931 0.39478,0.71931l-0.11696,0.40083c-0.26683,1.01455 -0.44832,2.04155 -0.87993,3.00068c0,0 -0.23941,0.52851 -0.76791,0.2891c-0.52851,-0.23941 -0.2891,-0.76791 -0.2891,-0.76791c0.40744,-0.8926 0.56556,-1.86942 0.81469,-2.81697l0.12512,-0.43026c0,0 0.16226,-0.55705 0.71931,-0.39478z" fill="#ffffff" stroke-width="0.5"/></g><g data-paper-data="{&quot;index&quot;:null}" stroke="none"><path d="M265.04967,168.28423c-10.65535,2.76601 -21.5355,-3.62956 -24.30151,-14.28491c-2.76601,-10.65535 3.62956,-21.5355 14.28491,-24.30151c10.65535,-2.76601 21.5355,3.62956 24.30151,14.28491c2.76601,10.65535 -3.62956,21.5355 -14.28491,24.30151z" fill="url(#color-1)" stroke-width="NaN"/><path d="M268.4211,144.38009c-0.25355,-0.32669 -0.75704,-0.77015 -1.30245,-1.2628c-3.95233,-2.10904 -7.86656,-3.94639 -12.77723,-2.70617c-1.66329,0.42008 -6.97302,1.23025 -9.81169,2.76596c-0.29482,0.30188 -0.63066,0.53642 -1.02005,0.6799c-0.25807,0.22071 -0.46293,0.4538 -0.60218,0.69994c-0.64394,1.13831 -1.18784,2.60641 -2.46513,3.21832c-1.86623,0.89405 -4.79884,0.34784 -6.05637,-1.11117c-2.42555,-2.81418 -1.04892,-6.04403 -0.06577,-9.22189c2.37052,-7.66226 9.42064,-14.13614 17.16393,-16.49096c8.86128,-2.6948 20.4558,-0.16329 27.16209,6.262c1.85747,1.77965 2.71571,4.52999 4.20026,6.32662c0.67546,1.74026 1.16464,3.54827 1.39149,5.4379c0,0 0.07578,0.62095 0.53047,1.01192c0.31314,2.31793 0.95257,4.54833 0.9865,6.9085c0.0114,0.79233 -0.01485,1.68772 -0.11195,2.59068c-0.30722,0.01361 -0.55279,0.0395 -0.68246,0.08096c-0.79669,0.25474 -1.77208,1.49177 -2.66389,3.04379c-0.81725,0.09615 -1.16629,0.94645 -1.16629,0.94645l-0.21046,0.65902c-0.42364,0.22539 -0.65446,0.61806 -0.65446,0.61806l-0.38089,0.65206c-0.16256,0.25014 -0.31755,0.506 -0.46435,0.7668c-0.02771,-0.04623 -0.05713,-0.09108 -0.08857,-0.1343c-1.36416,-1.87537 -2.99782,-3.45821 -4.49976,-5.23742c-1.70076,-1.32971 -3.18797,-2.9097 -4.05454,-4.54018c-0.11144,-0.1195 -0.21631,-0.23743 -0.3148,-0.35384c-0.75596,-0.46738 -1.52055,-0.939 -2.04144,-1.61016z" fill="#382500" stroke-width="0.5"/></g><path d="M-4.36937,366.68669v-375.37538h489.48949v375.37538z" fill="none" stroke-opacity="0.02419" stroke="#000000" stroke-width="0.5"/></g></g></svg>