<svg version="1.1" xmlns="http://www.w3.org/2000/svg" xmlns:xlink="http://www.w3.org/1999/xlink" width="489.98949" height="375.87538" viewBox="0,0,489.98949,375.87538"><defs><linearGradient x1="261.16494" y1="131.43458" x2="221.29962" y2="131.44241" gradientUnits="userSpaceOnUse" id="color-1"><stop offset="0" stop-color="#ffdf9e"/><stop offset="1" stop-color="#eccf93"/></linearGradient></defs><g transform="translate(4.61937,8.93868)"><g data-paper-data="{&quot;isPaintingLayer&quot;:true}" fill-rule="nonzero" stroke-linecap="butt" stroke-linejoin="miter" stroke-miterlimit="10" stroke-dasharray="" stroke-dashoffset="0" style="mix-blend-mode: normal"><g data-paper-data="{&quot;index&quot;:null}" stroke="none"><path d="M211.27432,238.9568l-0.24257,-1.74274l21.10896,-4.70197l0.28796,1.15065z" fill="#c1c1c1" stroke-width="0"/><path d="M211.08676,237.2405c0,0 -0.95668,-2.65636 -0.22238,-5.81904c0.52916,-2.27916 7.4926,-2.35487 10.22867,-5.25738c1.58958,-1.68627 0.95272,-9.9367 0.95272,-9.9367l5.62046,-1.59467l4.54092,18.14495z" fill="#0078c7" stroke-width="0"/><path d="M220.81687,225.82432c2.58112,-0.50232 3.67252,4.31236 0.75533,3.70767c-0.01838,0.14376 -0.09735,0.30046 -0.31577,0.41198c-0.51676,0.26381 -0.78056,-0.25295 -0.78056,-0.25295c-0.29492,-0.58121 -0.6456,-1.05809 -1.04031,-1.57705l-0.00321,-0.00432c-0.42032,-0.0186 -0.86256,-0.12493 -1.27249,-0.5465c-0.60143,-0.61853 -0.55993,-2.55191 0.06182,-3.13148c1.59858,-1.49011 2.3546,-0.08019 2.54938,1.44164zM219.01941,226.7836c0.02767,0.03031 0.06268,0.05685 0.10413,0.08016c0.01958,-0.0181 0.04108,-0.03597 0.06466,-0.05353c0.18849,-0.14036 0.35749,-0.1475 0.49186,-0.10633c0.0581,-0.89773 -0.00252,-2.09182 -0.63251,-1.45711c-0.21193,0.2135 -0.19519,1.35373 -0.02814,1.5368zM221.09858,226.95l0.01446,0.16993c0.28952,0.0367 0.56238,0.09414 0.78395,0.19443c-0.0925,-0.34258 -0.28999,-0.55485 -0.7984,-0.36436z" fill="#c1c1c1" stroke-width="0.5"/><path d="M216.83003,227.57078c0.36576,-0.45039 0.81615,-0.08463 0.81615,-0.08463l0.24312,0.2052c0.77562,0.84776 0.89934,1.84387 1.54031,2.735c0,0 0.33351,0.47476 -0.14125,0.80828c-0.47476,0.33351 -0.80828,-0.14125 -0.80828,-0.14125c-0.59922,-0.86875 -0.71556,-1.83182 -1.44411,-2.6157l-0.12131,-0.09075c0,0 -0.45039,-0.36576 -0.08463,-0.81615z" fill="#c1c1c1" stroke-width="0.5"/><path d="M214.84631,228.20383c0.51887,-0.2596 0.77847,0.25928 0.77847,0.25928l0.18665,0.37351c0.49385,0.92554 1.05877,1.80222 1.39409,2.79909c0,0 0.18361,0.55038 -0.36677,0.73399c-0.55038,0.18361 -0.73399,-0.36677 -0.73399,-0.36677c-0.30782,-0.93164 -0.85578,-1.75562 -1.31708,-2.61998l-0.20067,-0.40064c0,0 -0.2596,-0.51887 0.25928,-0.77847z" fill="#c1c1c1" stroke-width="0.5"/></g><path d="M207.46338,207.91462c-4.95057,0 -8.9638,-4.01323 -8.9638,-8.9638c0,-4.95057 4.01323,-8.9638 8.9638,-8.9638c4.95057,0 8.9638,4.01323 8.9638,8.9638c0,4.95057 -4.01323,8.9638 -8.9638,8.9638z" data-paper-data="{&quot;index&quot;:null}" fill="#dabe87" stroke="none" stroke-width="NaN"/><path d="M241.43249,141.3113c11.58844,0.95007 19.82708,15.81626 18.4015,33.20456c-1.42557,17.3883 -11.97551,30.71412 -23.56396,29.76404c-11.58845,-0.95008 -19.82707,-15.81627 -18.4015,-33.20457c1.42557,-17.3883 11.97551,-30.71411 23.56396,-29.76403z" data-paper-data="{&quot;index&quot;:null}" fill="#007eff" stroke="none" stroke-width="0"/><g data-paper-data="{&quot;index&quot;:null}" stroke="none"><path d="M236.04006,232.32263l0.4352,-1.70487l21.31798,3.63871l-0.16905,1.17403z" fill="#ffffff" stroke-width="0"/><path d="M236.51618,230.66305c0,0 0.12008,-2.82083 1.99696,-5.47018c1.35256,-1.90924 7.82644,0.65669 11.45764,-0.99409c2.10962,-0.95905 4.64334,-8.83658 4.64334,-8.83658l5.80586,0.65162l-2.66575,18.51358z" fill="#0098ff" stroke-width="0"/><path d="M249.84378,223.77976c2.57919,0.51214 1.76677,5.38166 -0.70441,3.71767c-0.07143,0.12611 -0.20384,0.24126 -0.44822,0.26179c-0.57817,0.04855 -0.62672,-0.52961 -0.62672,-0.52961c-0.05296,-0.64961 -0.19702,-1.22375 -0.36591,-1.8535l-0.00135,-0.00522c-0.382,-0.17633 -0.75108,-0.44216 -0.97091,-0.98754c-0.32254,-0.80017 0.44776,-2.57396 1.24263,-2.87503c2.04369,-0.77407 2.20975,0.81711 1.81395,2.29943zM247.81695,223.98723c0.01413,0.03853 0.03649,0.07635 0.06603,0.11362c0.02497,-0.00935 0.05162,-0.01775 0.08011,-0.02507c0.2276,-0.05855 0.38673,-0.00119 0.49551,0.08778c0.39361,-0.80895 0.78952,-1.93712 -0.03385,-1.58812c-0.27698,0.11739 -0.69311,1.17911 -0.6078,1.41179zM249.6784,224.92832l-0.05095,0.16275c0.25408,0.14356 0.4849,0.30003 0.652,0.47672c0.04407,-0.35209 -0.05836,-0.62333 -0.60105,-0.63947z" fill="#ffffff" stroke-width="0.5"/><path d="M245.4925,223.88706c0.50903,-0.27841 0.78745,0.23062 0.78745,0.23062l0.14735,0.28194c0.39698,1.07827 0.13442,2.04708 0.39035,3.11454c0,0 0.12897,0.56566 -0.43671,0.69465c-0.56566,0.12897 -0.69465,-0.43671 -0.69465,-0.43671c-0.22577,-1.03092 0.03111,-1.96636 -0.34649,-2.9677l-0.07792,-0.12992c0,0 -0.27841,-0.50903 0.23062,-0.78745z" fill="#ffffff" stroke-width="0.5"/><path d="M243.41677,223.72203c0.57854,-0.04386 0.62239,0.53468 0.62239,0.53468l0.03136,0.41637c0.10674,1.0436 0.29776,2.06888 0.23076,3.11851c0,0 -0.0384,0.57893 -0.61733,0.54053c-0.57893,-0.0384 -0.54053,-0.61733 -0.54053,-0.61733c0.06776,-0.97886 -0.1275,-1.94893 -0.22727,-2.92359l-0.03407,-0.44678c0,0 -0.04386,-0.57854 0.53468,-0.62239z" fill="#ffffff" stroke-width="0.5"/></g><g data-paper-data="{&quot;index&quot;:null}" stroke="none"><path d="M241.2362,151.37116c-11.00851,0.00216 -19.93442,-8.92023 -19.93659,-19.92874c-0.00216,-11.00851 8.92023,-19.93442 19.92874,-19.93659c11.00851,-0.00216 19.93442,8.92023 19.93659,19.92874c0.00216,11.00851 -8.92023,19.93442 -19.92874,19.93659z" fill="url(#color-1)" stroke-width="NaN"/><path d="M250.50127,129.07916c-0.16341,-0.37988 -0.53943,-0.93556 -0.94368,-1.54936c-3.29622,-3.0338 -6.62376,-5.79505 -11.68852,-5.82747c-1.71549,-0.01098 -7.05855,-0.55987 -10.19186,0.21394c-0.36117,0.21819 -0.74514,0.3609 -1.15808,0.40202c-0.30521,0.14884 -0.56204,0.32304 -0.75862,0.52633c-0.90911,0.94018 -1.80419,2.2247 -3.19419,2.49632c-2.03092,0.39686 -4.73246,-0.86815 -5.58339,-2.59615c-1.6413,-3.33302 0.50216,-6.11379 2.25168,-8.94301c4.21836,-6.82166 12.66805,-11.3181 20.75454,-11.65338c9.25403,-0.38368 19.84157,4.97779 24.71985,12.88102c1.35116,2.189 1.49137,5.06672 2.47729,7.17853c0.2169,1.85411 0.23647,3.72702 -0.01837,5.61308c0,0 -0.08255,0.62009 0.25941,1.11269c-0.27886,2.32231 -0.2199,4.6418 -0.77962,6.93489c-0.1879,0.76981 -0.43811,1.62993 -0.7588,2.47959c-0.30079,-0.06396 -0.545,-0.10056 -0.68093,-0.09298c-0.83513,0.04656 -2.08985,0.99907 -3.34277,2.27747c-0.81521,-0.11212 -1.36656,0.62331 -1.36656,0.62331l-0.36918,0.58507c-0.46666,0.1118 -0.78867,0.43395 -0.78867,0.43395l-0.5324,0.53554c-0.22016,0.20131 -0.43442,0.41006 -0.642,0.62565c-0.01521,-0.05171 -0.03243,-0.10251 -0.05201,-0.15224c-0.84962,-2.1578 -2.03354,-4.1001 -3.04067,-6.19941c-1.31243,-1.71412 -2.35532,-3.6169 -2.78476,-5.41273c-0.07787,-0.14365 -0.14977,-0.28413 -0.21588,-0.42154c-0.6144,-0.64221 -1.23609,-1.29069 -1.57178,-2.07113z" fill="#382500" stroke-width="0.5"/></g><path d="M-4.36937,366.6867v-375.37538h489.48949v375.37538z" fill="none" stroke-opacity="0.02419" stroke="#000000" stroke-width="0.5"/><path d="M271.86996,142.70669c-4.95057,0 -8.9638,-4.01323 -8.9638,-8.9638c0,-4.95057 4.01323,-8.9638 8.9638,-8.9638c4.95057,0 8.9638,4.01323 8.9638,8.9638c0,4.95057 -4.01323,8.9638 -8.9638,8.9638z" data-paper-data="{&quot;index&quot;:null}" fill="#ffdf9e" stroke="none" stroke-width="NaN"/></g></g></svg>