<svg version="1.1" xmlns="http://www.w3.org/2000/svg" xmlns:xlink="http://www.w3.org/1999/xlink" width="489.98949" height="375.87538" viewBox="0,0,489.98949,375.87538"><defs><linearGradient x1="256.90003" y1="136.26258" x2="217.28328" y2="140.70743" gradientUnits="userSpaceOnUse" id="color-1"><stop offset="0" stop-color="#ffdf9e"/><stop offset="1" stop-color="#eccf93"/></linearGradient></defs><g transform="translate(4.61937,8.93868)"><g data-paper-data="{&quot;isPaintingLayer&quot;:true}" fill-rule="nonzero" stroke-linecap="butt" stroke-linejoin="miter" stroke-miterlimit="10" stroke-dasharray="" stroke-dashoffset="0" style="mix-blend-mode: normal"><path d="M-4.36937,366.6867v-375.37538h489.48949v375.37538z" fill="none" stroke-opacity="0.02419" stroke="#000000" stroke-width="0.5"/><g data-paper-data="{&quot;index&quot;:null}" stroke="none"><path d="M210.72711,233.34588l0.10878,-1.75617l21.62239,-0.41096l0.05342,1.18493z" fill="#c1c1c1" stroke-width="0"/><path d="M210.88456,231.62655c0,0 -0.40941,-2.79354 0.93907,-5.74707c0.97176,-2.12844 7.81122,-0.81809 11.06977,-3.11863c1.89313,-1.33654 2.90943,-9.54887 2.90943,-9.54887l5.82531,-0.44531l0.84247,18.68554z" fill="#0078c7" stroke-width="0"/><path d="M222.69029,222.37296c2.62946,0.02092 2.74176,4.95647 0.00305,3.78382c-0.0466,0.13724 -0.15515,0.2751 -0.39138,0.34097c-0.5589,0.15579 -0.71468,-0.4031 -0.71468,-0.4031c-0.17347,-0.62824 -0.42233,-1.16533 -0.70597,-1.75241l-0.00229,-0.00487c-0.40823,-0.1018 -0.8205,-0.29394 -1.13842,-0.7886c-0.46644,-0.72576 -0.04135,-2.61229 0.68322,-3.05666c1.86294,-1.14251 2.32353,0.38958 2.21183,1.91975zM220.73798,222.9557c0.02109,0.03521 0.05012,0.06818 0.08611,0.09926c0.02279,-0.01385 0.04741,-0.02708 0.07401,-0.0396c0.21263,-0.10008 0.37968,-0.07347 0.50318,-0.00641c0.23544,-0.86825 0.41345,-2.05056 -0.33016,-1.55378c-0.25015,0.1671 -0.46046,1.28789 -0.33314,1.50052zM222.74255,223.53218l-0.01962,0.16941c0.27644,0.09353 0.53243,0.20408 0.72964,0.34642c-0.02254,-0.35413 -0.17388,-0.60143 -0.71001,-0.51583z" fill="#c1c1c1" stroke-width="0.5"/><path d="M218.4358,223.29184c0.44801,-0.36867 0.81668,0.07934 0.81668,0.07934l0.19747,0.24944c0.59157,0.98505 0.51476,1.98587 0.96575,2.98665c0,0 0.23245,0.53159 -0.29914,0.76406c-0.53159,0.23245 -0.76406,-0.29914 -0.76406,-0.29914c-0.41452,-0.97055 -0.33705,-1.93752 -0.89519,-2.85061l-0.10084,-0.11306c0,0 -0.36867,-0.44801 0.07934,-0.81668z" fill="#c1c1c1" stroke-width="0.5"/><path d="M216.36582,223.51783c0.56013,-0.15125 0.71137,0.40889 0.71137,0.40889l0.10866,0.40316c0.29996,1.00525 0.67929,1.97675 0.80971,3.02039c0,0 0.07051,0.5759 -0.50539,0.64641c-0.5759,0.07051 -0.64641,-0.50539 -0.64641,-0.50539c-0.11643,-0.97424 -0.48962,-1.89072 -0.76985,-2.82955l-0.117,-0.43254c0,0 -0.15125,-0.56013 0.40889,-0.71137z" fill="#c1c1c1" stroke-width="0.5"/></g><path d="M206.13005,200.91462c-4.95057,0 -8.9638,-4.01323 -8.9638,-8.9638c0,-4.95057 4.01323,-8.9638 8.9638,-8.9638c4.95057,0 8.9638,4.01323 8.9638,8.9638c0,4.95057 -4.01323,8.9638 -8.9638,8.9638z" data-paper-data="{&quot;index&quot;:null}" fill="#dabe87" stroke="none" stroke-width="NaN"/><path d="M236.53596,149.54643c11.62459,0.25201 20.74164,14.59629 20.36348,32.03883c-0.37814,17.44254 -10.10828,31.37822 -21.73288,31.1262c-11.6246,-0.25202 -20.74163,-14.5963 -20.36349,-32.03884c0.37814,-17.44254 10.10828,-31.37821 21.73288,-31.12619z" data-paper-data="{&quot;index&quot;:null}" fill="#007eff" stroke="none" stroke-width="0"/><g data-paper-data="{&quot;index&quot;:null}" stroke="none"><path d="M241.88927,234.00795l-0.44062,-1.70348l20.43131,-7.0893l0.41788,1.11009z" fill="#ffffff" stroke-width="0"/><path d="M241.50633,232.32444c0,0 -1.2547,-2.52928 -0.88756,-5.75525c0.26457,-2.32478 7.17349,-3.19773 9.55902,-6.39459c1.38593,-1.85728 -0.19193,-9.98043 -0.19193,-9.98043l5.40077,-2.22807l6.58975,17.50526z" fill="#0098ff" stroke-width="0"/><path d="M249.86452,219.8687c2.50658,-0.79471 4.14236,3.86323 1.17512,3.59672c-0.00178,0.14492 -0.06228,0.30964 -0.26649,0.44544c-0.48314,0.32127 -0.8044,-0.16186 -0.8044,-0.16186c-0.35957,-0.5436 -0.76257,-0.97717 -1.21414,-1.44749l-0.0037,-0.00392c-0.41969,0.02967 -0.8712,-0.02529 -1.32672,-0.39713c-0.66834,-0.54555 -0.8486,-2.47096 -0.29734,-3.11793c1.41734,-1.66343 2.32993,-0.34942 2.69778,1.14008zM248.1888,221.02759c0.03095,0.02694 0.06878,0.0493 0.11263,0.06771c0.01737,-0.02023 0.03667,-0.04044 0.0581,-0.06058c0.17118,-0.16102 0.33825,-0.18748 0.47644,-0.16198c-0.04514,-0.89849 -0.24216,-2.07777 -0.79528,-1.37506c-0.18607,0.23638 -0.03881,1.36719 0.14811,1.52991zM250.27334,220.95471l0.03382,0.16715c0.29181,0.00329 0.56947,0.0291 0.80105,0.10334c-0.13113,-0.32972 -0.35163,-0.51798 -0.83488,-0.27049z" fill="#ffffff" stroke-width="0.5"/><path d="M246.10401,222.06044c0.31175,-0.48932 0.80108,-0.17757 0.80108,-0.17757l0.26502,0.17598c0.86763,0.75331 1.10465,1.72868 1.84349,2.54053c0,0 0.38569,0.43341 -0.04772,0.81913c-0.43341,0.38569 -0.81913,-0.04772 -0.81913,-0.04772c-0.6948,-0.79437 -0.92071,-1.73777 -1.73427,-2.43302l-0.1309,-0.07626c0,0 -0.48932,-0.31175 -0.17757,-0.80108z" fill="#ffffff" stroke-width="0.5"/><path d="M244.20587,222.91655c0.48573,-0.31734 0.80305,0.16839 0.80305,0.16839l0.2282,0.34967c0.59663,0.86286 1.25827,1.66904 1.70559,2.62094c0,0 0.24546,0.52572 -0.28027,0.77118c-0.52572,0.24546 -0.77118,-0.28027 -0.77118,-0.28027c-0.41254,-0.89027 -1.05127,-1.64603 -1.60856,-2.45185l-0.24524,-0.37501c0,0 -0.31734,-0.48573 0.16839,-0.80305z" fill="#ffffff" stroke-width="0.5"/></g><g data-paper-data="{&quot;index&quot;:null}" stroke="none"><path d="M239.31408,158.29339c-10.93987,1.22741 -20.80339,-6.64608 -22.03081,-17.58595c-1.22741,-10.93987 6.64608,-20.80339 17.58595,-22.03081c10.93987,-1.22741 20.80339,6.64608 22.03081,17.58595c1.22741,10.93987 -6.64608,20.80339 -17.58595,22.03081z" fill="url(#color-1)" stroke-width="NaN"/><path d="M246.04046,135.10868c-0.20468,-0.35933 -0.64021,-0.86971 -1.11026,-1.4347c-3.61341,-2.64808 -7.2276,-5.02181 -12.2645,-4.49032c-1.70605,0.18002 -7.07701,0.22923 -10.10472,1.34698c-0.33464,0.25703 -0.70034,0.44159 -1.10614,0.52842c-0.28675,0.18189 -0.52259,0.38359 -0.69533,0.6075c-0.79882,1.03552 -1.54537,2.41169 -2.8965,2.83633c-1.97413,0.62044 -4.79968,-0.33603 -5.83765,-1.95858c-2.00207,-3.12963 -0.18143,-6.13169 1.24232,-9.13806c3.43289,-7.24878 11.32962,-12.65775 19.32855,-13.89098c9.15383,-1.41128 20.27232,2.73847 25.99993,10.04964c1.5864,2.02501 2.04604,4.86925 3.26088,6.8582c0.42192,1.81845 0.64982,3.67754 0.60649,5.58025c0,0 -0.01302,0.62543 0.38164,1.0769c-0.01865,2.33892 0.2981,4.63743 -0.00291,6.97857c-0.10105,0.78594 -0.25397,1.66856 -0.4781,2.54864c-0.30604,-0.03008 -0.55281,-0.03928 -0.68705,-0.01661c-0.82476,0.13922 -1.96567,1.22547 -3.06852,2.63537c-0.82262,-0.02069 -1.28869,0.77154 -1.28869,0.77154l-0.30177,0.62252c-0.45132,0.16305 -0.73547,0.51903 -0.73547,0.51903l-0.46949,0.59147c-0.19639,0.22456 -0.38608,0.45586 -0.56838,0.69322c-0.02087,-0.0497 -0.04364,-0.09826 -0.06863,-0.14551c-1.08451,-2.04983 -2.47725,-3.84829 -3.71178,-5.82246c-1.49506,-1.55739 -2.74325,-3.33228 -3.3699,-5.06915c-0.09337,-0.13409 -0.18046,-0.2657 -0.26146,-0.39489c-0.68206,-0.56984 -1.37207,-1.14509 -1.79253,-1.88332z" fill="#382500" stroke-width="0.5"/></g><path d="M271.53663,147.37335c-4.95057,0 -8.9638,-4.01323 -8.9638,-8.9638c0,-4.95057 4.01323,-8.9638 8.9638,-8.9638c4.95057,0 8.9638,4.01323 8.9638,8.9638c0,4.95057 -4.01323,8.9638 -8.9638,8.9638z" data-paper-data="{&quot;index&quot;:null}" fill="#ffdf9e" stroke="none" stroke-width="NaN"/></g></g></svg>