<svg version="1.1" xmlns="http://www.w3.org/2000/svg" xmlns:xlink="http://www.w3.org/1999/xlink" width="488.45341" height="366.63712" viewBox="0,0,488.45341,366.63712"><g transform="translate(4.22671,3.31856)"><g data-paper-data="{&quot;isPaintingLayer&quot;:true}" fill-rule="nonzero" stroke-linejoin="miter" stroke-miterlimit="10" stroke-dasharray="" stroke-dashoffset="0" style="mix-blend-mode: normal"><g><g stroke="none" stroke-width="0.5" stroke-linecap="butt"><path d="M143.73384,163.38789c1.05104,-2.72428 3.35642,-4.83114 5.46002,-6.50472c1.41733,-0.57745 2.65184,-1.55995 4.01076,-2.28295c1.18783,-0.632 2.71701,-0.71632 3.98947,-1.03887c4.27289,-1.08309 9.96943,-2.43321 13.48229,1.09237c1.83119,1.81769 7.5845,7.48752 8.68532,10.02258c2.81571,6.48425 -5.87988,10.52716 -10.87635,12.6978c-7.49019,3.28799 -15.27527,0.60607 -23.08771,0.43908l-0.54513,-1.00368c-0.13391,-0.41353 -2.47392,-1.10078 -2.60819,-1.56461c-1.06528,-3.6802 0.19546,-8.50276 1.48954,-11.85697z" data-paper-data="{&quot;noHover&quot;:false,&quot;origItem&quot;:[&quot;Path&quot;,{&quot;applyMatrix&quot;:true,&quot;segments&quot;:[[[-7.40945,28.4],[-2.99455,-7.39936],[0,0]],[[-6.91969,28.4],[0,0],[16.93921,0]],[[42.49188,23.30896],[-15.86413,6.95372],[10.58495,-4.59285]],[[58.23465,-5.4689],[6.80628,12.95535],[-2.66096,-5.06498]],[[45.95327,-17.26356],[4.16461,3.58677],[-7.99327,-6.95856]],[[16.7362,-18.85898],[9.13644,-2.36841],[-2.72081,0.70531]],[[8.23958,-16.60831],[2.50374,-1.32573],[-2.86433,1.51666]],[[-0.17539,-11.85647],[3.00679,-1.22562],[-4.37351,3.46578]],[[-11.2758,1.44907],[1.97911,-5.53932],[-2.74385,7.67976]]],&quot;closed&quot;:true}]}" fill="#485e84"/><path d="M156.48223,176.99656c1.58977,0.03397 3.69427,0.44094 5.24868,0.07044c1.8608,-0.44354 3.70659,-1.90791 5.41631,-2.76972c3.21741,-2.43617 8.49838,-3.35615 10.94212,-6.79154c0.2413,0.99553 0.45683,1.9862 0.41301,2.82783c-0.29922,5.74888 -0.42436,10.08326 -4.25699,14.64454c-1.64538,2.69205 -4.27331,3.703 -6.90445,4.9014c-2.25328,1.0263 -4.52153,2.28711 -6.79215,3.21844c-2.49308,1.02258 -5.90328,0.39076 -8.48583,0.34456c-1.50277,-0.30043 -2.51895,-2.12094 -3.56583,-3.20406c-2.19756,-2.27362 -4.84347,-4.78844 -5.61258,-8.22558c-0.55141,-2.46418 -0.06008,-5.34109 0.06727,-7.86808c0.01586,-0.31456 0.03247,-0.63122 0.04832,-0.94578c3.77525,3.25255 8.62356,3.69371 13.48214,3.79756z" data-paper-data="{&quot;noHover&quot;:false,&quot;origItem&quot;:[&quot;Path&quot;,{&quot;applyMatrix&quot;:true,&quot;segments&quot;:[[[-12.6,19.29482],[8.53184,6.39664],[0,0.63506]],[[-12.6,21.2],[0,-0.63506],[0,5.10165]],[[-11.88291,37.03011],[-1.46324,-4.9457],[2.04098,6.89848]],[[1.14868,53.32315],[-5.00785,-4.49044],[2.38565,2.13917]],[[9.19708,59.60973],[-3.28764,-0.5411],[5.5986,-0.01815]],[[27.47881,58.53456],[-5.28814,2.16968],[4.81629,-1.97608]],[[41.78069,51.77552],[-4.76837,2.16687],[5.56798,-2.53023]],[[56.16943,41.64187],[-3.26991,5.49996],[7.80325,-9.3639]],[[63.8,12],[-0.02062,11.6066],[0.00302,-1.69919]],[[62.60332,6.32523],[0.63128,1.99726],[-4.91792,7.03342]],[[39.65146,20.5013],[6.70271,-5.05168],[-3.60901,1.81169]],[[28.25951,26.3465],[3.9819,-0.97471],[-3.32624,0.81421]],[[17,26.4],[3.44697,0],[-10.53452,0]]],&quot;closed&quot;:true}]}" fill="#343545"/><path d="M176.02207,178.43665c-1.50558,-2.37253 -1.42851,-5.37951 -1.24313,-8.42965c-0.95149,-0.60035 -1.93674,-0.96054 -3.26861,-0.98901c-0.2998,-0.00641 -0.58158,0.0032 -0.84917,0.02739c0.28578,2.13137 -0.12093,4.564 -0.22823,6.69331c-0.01708,0.33877 -0.13357,2.90594 -0.20291,3.0861c-0.94049,2.4435 -4.30182,2.02623 -5.50116,0.37745c-1.17777,-1.61909 -1.83202,-3.66981 -2.54075,-5.64269c-1.50609,1.10306 -2.94455,2.36236 -4.10319,3.82454c2.50518,1.29944 5.0803,2.49363 7.13697,4.54342c0.04608,4.49338 -2.98469,4.60157 -6.35804,3.86157c-1.25966,-0.27632 -2.59916,-0.68171 -3.93658,-1.2094c-0.18729,0.5993 -0.36566,1.21793 -0.5245,1.84491c2.20777,-0.32186 4.43876,-0.66211 6.01091,0.37278c0.63772,0.41978 0.84506,1.35268 1.43038,1.85089c0.93362,0.79467 1.60724,1.34948 2.00071,2.05894c1.4613,-0.69688 2.8315,-1.69264 4.37873,-2.7231c1.06752,-0.71098 2.35271,-1.49024 3.54059,-2.36821c0.89506,-0.96292 1.73035,-1.96861 2.49679,-2.98724c0.39102,-0.51969 0.70973,-1.08062 0.98453,-1.6658c0.17703,-0.67395 0.33446,-1.34653 0.56772,-1.89524c0.08499,-0.19991 0.16969,-0.40157 0.25387,-0.60489zM152.13832,190.62024c0.03185,-0.63201 0.08049,-1.25096 0.14681,-1.86064c-1.28628,-0.01027 -2.52256,-0.11916 -3.41759,-0.42705c-0.56387,-0.19397 -1.12348,-0.51556 -1.67713,-0.89151c0.81506,1.23107 1.865,2.45784 3.17396,2.91692c0.56185,0.19704 1.15214,0.36567 1.7606,0.50981c0.00571,-0.10469 0.01045,-0.18999 0.01335,-0.24754zM153.92871,156.80038c1.4031,-0.86982 2.89024,-1.66407 4.49927,-2.477c-0.63392,0.08538 -1.26829,0.15861 -1.90063,0.24036c-1.06488,0.42579 -2.09991,0.95021 -3.09522,1.56687c0.16879,0.21558 0.33439,0.44023 0.49658,0.66979zM176.74048,171.50992c-0.09396,-0.07908 -0.18649,-0.15672 -0.27783,-0.23285c-0.06066,1.7433 0.01438,3.41635 0.52051,4.82242c0.22999,-0.64223 0.44673,-1.29523 0.64348,-1.95582c0.12337,-0.53624 0.24088,-1.10702 0.34578,-1.69681c-0.46919,-0.23281 -0.88393,-0.64398 -1.23193,-0.9369zM176.60382,168.84481c0.45417,0.34751 0.92361,0.74915 1.32344,1.10371c0.05939,0.05267 0.13911,0.12687 0.22003,0.20964c-0.07417,-1.02541 0.14794,-3.03067 0.18771,-3.82889c-0.03309,-0.29164 -0.07671,-0.57314 -0.13194,-0.84204c-0.37289,-1.22014 -1.28273,-2.76937 -2.30635,-4.03002c-0.19473,-0.22618 -0.38985,-0.44899 -0.58015,-0.66939c-0.33597,-0.36175 -0.67553,-0.68227 -1.00486,-0.94146c0.84238,1.3646 1.75273,2.64665 2.39219,4.22664c0.13133,1.46314 0.01573,3.10849 -0.10008,4.77181zM168.84899,169.48175c-1.04974,0.42038 -1.99787,1.08806 -3.25914,1.84684c-0.61211,0.36824 -1.23959,0.75702 -1.8677,1.16954c0.04051,0.09743 0.08094,0.19533 0.12134,0.29375c0.37147,0.9053 1.67802,5.33208 2.74025,5.71687c2.26795,0.8215 1.92494,-1.23304 2.00438,-2.80948c0.098,-1.94474 0.52456,-4.26081 0.26087,-6.21751zM149.15263,172.41028c-0.69053,1.4531 -1.21832,3.0028 -1.54909,4.67189c1.53315,2.16103 3.85283,3.64365 6.30099,4.77787c0.27687,-1.31244 0.7547,-2.52066 1.38084,-3.63628c-0.91556,-0.58734 -1.79115,-1.20467 -2.5991,-1.86154c-1.26616,-1.02941 -2.44626,-2.44255 -3.53365,-3.95194zM156.86889,179.19135c-0.55045,0.98676 -0.96764,2.0548 -1.20427,3.21449c-0.0219,0.06045 -0.04385,0.12133 -0.06585,0.18261c0.97655,0.39178 1.94964,0.741 2.8787,1.06798c1.81384,0.63839 4.47491,1.35004 5.04968,-0.87808c-2.12158,-1.14277 -4.45522,-2.29898 -6.65826,-3.58699zM153.9294,188.72698c-0.12718,0.83861 -0.19706,1.66836 -0.18474,2.46347c1.92011,0.31752 3.92545,0.44059 5.72804,0.47912c0.84523,0.02613 1.62049,-0.06061 2.35163,-0.23481c-0.89508,-0.99312 -1.65758,-2.36676 -2.51429,-3.00854c-0.51759,-0.38775 -1.99326,0.06068 -2.54316,0.10634c-0.78787,0.06543 -1.78773,0.14886 -2.83748,0.19444zM162.98046,157.73612c-0.67488,-0.90731 -1.35366,-1.76583 -2.00503,-2.55552c-0.2378,0.13311 -0.48671,0.2679 -0.75135,0.40208c-1.90236,0.96454 -3.6261,1.84729 -5.23467,2.82574c0.55173,0.87261 1.04784,1.67826 1.47726,2.18975c0.58482,-0.49313 1.18244,-0.93095 1.78188,-1.25703c1.4468,-0.78702 3.05397,-1.29043 4.73189,-1.605zM155.04039,161.91089c-0.6367,-0.75507 -1.21225,-1.56219 -1.78718,-2.37172c-1.87192,1.31117 -3.60686,2.86294 -5.32052,4.9791c-0.27829,0.45313 -0.56342,0.92619 -0.84973,1.41598c0.12113,0.10884 0.23331,0.21912 0.33171,0.33219c0.51821,0.80981 1.0718,1.71144 1.66041,2.63161c1.11919,-1.8032 2.49535,-3.50221 4.13321,-5.13774c0.56961,-0.56879 1.18605,-1.21479 1.83209,-1.84942zM145.76778,177.79029c-0.00491,-0.00762 -0.00981,-0.01524 -0.0147,-0.02287c-0.66556,-1.18242 -1.41147,-2.28482 -2.14668,-3.39117c-0.08357,1.24464 -0.1125,2.49705 -0.09913,3.74359c0.3634,1.86762 0.89507,3.68213 1.61106,5.40184c0.01317,0.00769 0.02635,0.01545 0.03952,0.02328c0.08837,-0.85501 0.22021,-1.701 0.25496,-2.39068c0.05866,-1.16409 0.1768,-2.28383 0.35497,-3.36397zM162.68499,154.21746c0.8048,0.98922 1.6393,2.07137 2.45343,3.21392c1.99797,-0.19952 4.0402,-0.19867 5.98669,-0.14556c-0.48617,-0.74985 -0.99573,-1.46452 -1.52397,-2.11576c-1.38707,-0.84815 -2.90016,-1.39915 -4.69099,-1.68682c-0.85321,0.11217 -1.54334,0.38294 -2.22516,0.73422zM152.13268,157.99298c-0.20554,-0.27181 -0.41556,-0.54015 -0.63254,-0.80302c-2.52819,1.91305 -4.31445,4.32289 -5.5473,7.02106c0.17525,-0.2917 0.34965,-0.57731 0.52218,-0.85624c1.81936,-2.25571 3.66339,-3.93869 5.65766,-5.36181zM150.15956,170.53996c1.11961,1.62846 2.34911,3.17821 3.68638,4.23802c0.81371,0.64487 1.68354,1.19932 2.58043,1.71077c1.39744,-1.84511 3.18767,-3.40706 5.05744,-4.75491c-0.09463,-0.22148 -0.19259,-0.43961 -0.2948,-0.65357c-1.4021,-2.93509 -2.97688,-5.31552 -4.93045,-7.71904c-0.63646,0.62061 -1.24651,1.25889 -1.81639,1.82797c-1.65663,1.65426 -3.11621,3.41657 -4.28262,5.35078zM157.68723,162.06585c2.18634,2.74202 3.80366,5.44708 5.26468,8.65948c0.5949,-0.39071 1.18959,-0.76197 1.77435,-1.11596c1.37519,-0.8325 2.47764,-1.55825 3.6803,-2.02519c-0.82463,-2.70256 -2.41605,-5.52978 -4.17516,-8.09784c-1.85937,0.23961 -3.63686,0.70966 -5.16609,1.60136c-0.46405,0.27059 -0.92484,0.60571 -1.37809,0.97816zM174.91301,167.76621c0.05274,-1.06786 0.07421,-2.12312 0.00022,-3.14007c-0.66917,-1.59179 -1.54528,-3.47967 -2.56944,-5.31122c-1.86251,-0.02819 -3.90681,-0.11023 -5.93107,-0.01409c1.63354,2.51351 3.06007,5.21682 3.81688,7.80923c0.42965,-0.05799 0.88611,-0.08398 1.38059,-0.07341c1.37446,0.02938 2.28619,0.21155 3.30284,0.72956zM152.59093,186.65796c0.17283,-0.94199 0.39296,-1.8718 0.664,-2.80468c-2.23714,-1.06477 -4.3702,-2.47207 -6.00185,-4.18916c-0.14781,1.76918 -0.14343,3.48093 -0.28559,5.19561c0.81928,0.64113 1.65242,1.27441 2.48875,1.5739c0.91678,0.3283 1.99582,0.33333 3.13469,0.22431zM144.38306,171.29232c0.72332,0.99849 1.4214,2.38707 2.03056,3.60913c0.413,-1.44385 0.94941,-2.81601 1.61084,-4.13042c-0.6937,-1.04795 -1.34345,-2.09296 -1.94715,-3.04466c-0.61003,1.13838 -1.1941,2.33787 -1.69423,3.56593zM157.88207,150.19292c0,0 0.0318,-0.00356 0.08609,-0.00446c0.05427,-0.00402 0.0861,-0.00335 0.0861,-0.00335c1.1069,0.02365 3.13619,0.06704 4.24308,0.0907c0.16748,0.00358 0.3332,0.00865 0.49721,0.01521c1.76387,-0.05643 3.54185,0.11565 5.29394,0.53564c5.14335,1.23289 9.58029,7.25346 12.52878,11.48943c1.22845,4.07789 0.83616,8.29442 -0.29273,12.33642c-0.15647,0.69841 -0.32515,1.3583 -0.49712,1.96025c-0.84153,1.8512 -1.33664,3.87502 -2.19371,5.7262c-0.28691,0.97512 -0.6038,1.94495 -1.20555,2.74735c-0.75939,1.01259 -1.77295,1.91537 -2.86103,2.73762c-1.31008,0.99001 -2.72815,1.86324 -3.94064,2.67074c-3.45769,2.30279 -6.18065,4.20306 -10.30361,4.14688c-0.79769,-0.01704 -1.63994,-0.0493 -2.50139,-0.10597c-0.20545,1.23819 -1.43264,1.21195 -1.43264,1.21195l-0.18448,-0.00394c-7.54428,-0.21239 -12.24038,-6.82842 -14.3091,-13.93332c-0.07457,-1.0566 -0.12382,-2.12336 -0.14247,-3.19367c-0.55108,-2.96047 -0.72159,-6.03494 -0.57209,-9.07817c0.35827,-7.10927 4.85785,-14.59817 11.53982,-16.94595c1.92365,-1.21333 3.9829,-2.1363 6.16152,-2.39955z" fill="#000000"/><path d="M184.67779,207.94351c-0.0056,-0.01025 -0.01119,-0.0205 -0.01677,-0.03076l-0.16654,0.1663l-0.69799,-0.8083c-0.15789,-0.18283 -0.24865,-0.43271 -0.23487,-0.70628c0.00515,-0.10222 0.02454,-0.2005 0.05598,-0.2927c-6.28156,-5.39638 -14.9515,-11.96387 -14.49409,-21.04049c0,0 0.04992,-0.99066 0.97233,-0.97095c0.28475,0.00608 0.47683,0.1047 0.60632,0.23813c2.21348,-3.72859 7.85823,-7.2131 10.74852,-2.82699c1.36065,1.57568 1.40361,4.31296 2.92498,5.69737c1.31361,1.19536 2.94104,2.52258 3.92361,4.08118c3.04305,4.82698 5.3259,8.64176 9.52691,12.53631c1.20513,1.74918 2.47486,4.97097 1.2815,7.32086c-0.53017,1.04395 -2.44466,2.40482 -3.32683,3.20009c-1.40534,1.26694 -2.56712,3.14107 -4.64949,2.2299c-0.79025,-0.34578 -1.23814,-2.22091 -1.79299,-2.91224c-1.59661,-1.98931 -3.36917,-3.59643 -4.57729,-5.73175l-0.08644,-0.05949l0.00933,-0.01512c-0.01602,-0.00438 -0.03204,-0.00875 -0.04805,-0.01312z" fill="#485e84"/><path d="M171.83928,185.256c-0.66361,0.38014 -1.82354,1.39804 -2.02227,2.153c-0.50169,1.90591 0.56467,2.27855 1.57511,3.38846c2.18422,2.39924 4.15385,4.98036 6.36299,7.35941c3.38029,4.45888 6.76187,8.70293 10.22197,13.09421c0.5442,0.69065 3.06947,4.62136 4.03139,4.37645c0.84062,-0.21404 1.28634,-1.25609 1.87864,-1.94298c1.59284,-1.84725 3.00068,-3.91118 4.49089,-5.88594c0.40948,0.64347 1.01146,1.30626 1.18055,1.54556c1.25986,1.78325 2.28131,2.80728 3.76561,4.37226c0.43317,0.45672 1.96875,1.86842 2.29318,2.42047c1.83086,3.11529 -2.54254,6.39986 -4.53952,8.03151c-8.45634,3.26307 -13.7115,-7.69851 -19.06051,-12.62648c-5.36261,-4.39385 -9.16286,-10.46702 -13.98119,-15.38363c-1.37817,-1.40627 -5.19522,-4.06191 -7.04025,-3.28659c1.52188,-1.26197 2.05046,-3.99786 2.88031,-5.84799c1.87946,-4.19017 5.83183,-8.26246 10.17197,-9.08203c1.56995,-0.29646 2.98689,-0.85426 4.12951,0.34527c0.47833,0.97853 0.81653,2.06545 1.23723,3.02914c-2.48024,1.60058 -5.05495,2.49599 -7.5756,3.93991z" data-paper-data="{&quot;noHover&quot;:false,&quot;origItem&quot;:[&quot;Path&quot;,{&quot;applyMatrix&quot;:true,&quot;segments&quot;:[[[67.03686,33.96408],[-5.19724,3.33479],[-1.01636,-1.92532]],[[64.08098,28.10099],[1.14282,1.95276],[-2.60571,-2.36983]],[[55.11455,27.5767],[3.36801,-0.66554],[-9.31085,1.83989]],[[34.11501,46.29425],[3.61337,-8.5313],[-1.59544,3.76689]],[[28.52556,58.18884],[3.15847,-2.6106],[3.91153,-1.64312]],[[44.13384,64.50974],[-3.13845,-2.7766],[10.97265,9.70755]],[[76.00638,94.80481],[-12.09448,-8.62985],[12.12329,9.70759]],[[118.59304,119.47199],[-17.95943,6.9451],[4.14717,-3.3766]],[[125.53032,103.50098],[4.3055,6.20366],[-0.76295,-1.09931]],[[122.29901,101.11902],[0.98806,0.90239],[-3.38563,-3.09209]],[[113.65965,89.67567],[2.92337,3.54195],[-0.39231,-0.47532]],[[111.1187,86.68623],[0.95712,1.28001],[-3.01208,4.04671]],[[102.01074,98.78554],[3.24832,-3.79401],[-1.20789,1.41081]],[[98.14178,102.79497],[1.79735,-0.46787],[-2.05671,0.53538]],[[88.92315,94.14868],[1.25408,1.36939],[-7.97354,-8.70669]],[[65.21498,68.05325],[7.80802,8.84646],[-5.04445,-4.70255]],[[50.6411,53.46744],[4.99267,4.74437],[-2.30967,-2.19481]],[[46.86457,46.6959],[-0.87859,3.86526],[0.34802,-1.5311]],[[51.02015,42.25647],[-1.39582,0.79522],[5.30188,-3.02057]]],&quot;closed&quot;:true}]}" fill="#343545"/><path d="M172.5754,179.84646c-4.04019,2.44796 -6.5365,5.24995 -9.13216,9.33294c-0.29518,0.46431 -0.44573,1.39257 -0.59759,2.40062c0.40337,0.28025 0.37397,0.86385 0.37397,0.86385l-0.25437,1.38298c-0.2688,0.35364 -0.58298,0.7329 -0.92788,1.06991c-0.20234,0.35556 -0.45866,0.59443 -0.79355,0.65187c-0.00809,0.00139 -0.01614,0.00274 -0.02415,0.00404c-0.861,0.53139 -1.82191,0.59203 -2.7151,-0.59192c-1.25117,-1.65847 -0.04383,-7.57153 0.68042,-9.29127c1.76616,-4.74026 5.40139,-8.69111 9.8928,-10.66693c1.48499,-0.65326 6.57669,-0.33138 7.90756,1.13774c0.08739,-0.01851 0.17555,-0.0361 0.2645,-0.0527l0.08856,0.04824l0.00257,-0.0511l0.92241,0.01971c0.50943,0.01089 0.90005,0.46325 0.87249,1.01038c-0.02756,0.54713 -0.4629,0.98183 -0.97234,0.97094l-0.85324,-0.01824c-1.71608,0.34266 -3.09315,1.12734 -4.73495,1.77895z" fill="#485e84"/><path d="M162.01475,188.17064c-0.06243,-0.00262 -0.12514,-0.00822 -0.18802,-0.01689c0.04603,0.21083 0.08787,0.31203 0.14352,0.13769c0.01209,-0.03788 0.02702,-0.07822 0.04449,-0.12081zM159.22355,185.30176c-0.10757,-0.6325 0.03508,-1.24791 0.3364,-1.77968c0.72429,-1.85394 2.50404,-3.41682 4.09262,-2.40923c2.96082,1.87801 1.74078,4.71035 0.11822,7.08026c-0.45948,0.6711 -0.64836,1.75128 -1.38059,2.01165c-1.21538,0.43218 -3.0201,-2.52551 -3.59531,-3.40916c0,0 -0.51351,-0.80436 0.25437,-1.38298c0.05968,-0.04496 0.1178,-0.08156 0.17429,-0.11085z" fill="#8fbbbe"/><path d="M167.676,183.58395c-0.90697,0.22115 -1.08226,-0.74472 -1.08226,-0.74472l-0.00545,-0.43899c-0.75177,-1.18464 -1.65351,-2.23409 -2.41302,-3.42344c0,0 -0.5135,-0.80436 0.25438,-1.38298c0.76788,-0.57862 1.2814,0.22573 1.2814,0.22573c0.75996,1.19072 1.65373,2.24027 2.41301,3.42344l0.28364,1.15395c0,0 0.17529,0.96586 -0.7317,1.18701z" fill="#8fbbbe"/><path d="M162.06802,197.33723c-0.25027,0.30404 -0.53169,0.53118 -0.85035,0.65285c-0.80385,0.3069 -1.58892,-0.57292 -2.3322,-0.9754c-4.23799,-2.29482 -1.95394,-9.84639 -0.28446,-13.55434c1.83762,-4.43626 7.51573,-8.87624 12.02598,-9.76973c1.47198,-0.29161 3.40365,0.04238 4.89178,0.07419c0.65326,0.01397 3.4896,0.05573 3.78722,0.1698c1.60198,0.61404 3.99561,3.85659 3.27915,5.82157c-0.13139,0.36036 -0.42336,0.57618 -0.76826,0.74435c0.61512,1.47288 1.16923,3.04222 1.81315,3.9052c3.66765,4.9154 7.60256,9.55782 11.17216,14.60341c3.59056,3.44566 6.51137,8.29163 9.43252,12.40023c1.26446,1.77847 3.20051,4.28231 2.93195,6.70696c-0.42388,3.82686 -6.79697,7.59898 -9.69408,8.65531c-3.9579,-0.09747 -5.69845,-2.94287 -8.28119,-5.69923c-5.46833,-5.83591 -10.2655,-12.31232 -15.98596,-17.88253c-1.71763,-2.83405 -5.20441,-5.82458 -8.02245,-7.7615c-0.0992,0.22834 -0.24917,0.42671 -0.43325,0.57842l-1.14833,0.95991zM178.25694,176.72378c-0.01347,-0.00694 -0.02481,-0.01196 -0.0338,-0.01486c-1.60285,-0.52004 -4.27446,0.017 -5.99032,-0.03918c-3.83015,-0.12541 -9.64161,4.14026 -11.11965,7.95291c-1.13519,2.4854 -1.96606,5.71122 -1.82643,8.46345c0.05816,1.14635 0.7801,0.95281 1.12341,1.57531c-0.00721,-0.04654 -0.011,-0.08825 -0.00969,-0.12064c0.02327,-0.57247 0.10179,-1.14977 0.25183,-1.70436c0.33205,-1.22732 0.73048,-2.43552 1.13126,-3.6413c1.54513,-4.6488 4.91208,-7.78517 8.73065,-10.19018c1.90817,-0.96017 5.2183,-2.61627 7.74275,-2.28112zM164.0664,191.38319c0.92213,0.17942 2.52568,1.6163 3.13698,2.11711c2.8896,2.36734 6.1244,4.39833 8.13216,7.71111c5.73714,5.40508 10.42096,11.94389 15.83248,17.70631c1.65957,1.76718 3.39659,4.88185 5.95817,4.91908c2.33273,-0.90739 4.13536,-2.63254 5.95426,-4.41953c0.24972,-0.24533 1.28178,-1.02391 1.34489,-1.63618c0.13898,-1.34833 -1.70279,-3.5245 -2.41234,-4.51459c-2.89939,-4.04578 -5.7292,-8.79649 -9.27342,-12.19773c-3.65943,-5.09176 -7.64107,-9.83159 -11.35273,-14.83644c-0.86557,-1.16714 -1.67588,-2.87859 -2.31543,-4.21563c-0.3437,-0.71855 -0.20304,-1.84736 -0.85686,-2.24655c-1.44265,-0.88086 -5.17254,1.20241 -6.47735,1.85585c-3.1944,2.00337 -6.09829,4.56555 -7.35537,8.50712c-0.10519,0.32986 -0.20741,0.76021 -0.31544,1.25009z" fill="#000000"/></g><path d="M230.25189,186.9683c1.12119,-1.94258 2.25934,-3.8592 3.34237,-5.8376c1.86837,-2.4165 4.22981,-7.13489 7.07975,-8.44628c3.7201,-1.7118 7.28508,1.02455 8.55003,4.31812c2.76663,7.20354 3.44049,13.14602 -0.74793,19.83809c-1.53474,3.39395 -3.47524,6.45186 -6.37662,8.86644c-2.11058,1.75646 -4.69872,2.86992 -6.85579,4.57557c-2.92829,2.31547 -5.45906,4.27375 -9.45062,2.91407c-2.81104,-0.95755 -4.55086,-4.81033 -6.09576,-7.12702c-2.65206,-3.83449 -6.91062,-8.2285 -7.07959,-13.08629c-0.07113,-2.04511 0.13555,-4.95712 2.31101,-6.09131c1.12836,-0.58828 2.53528,-0.23648 3.80686,-0.28499c3.4869,-0.13303 7.00559,-0.0013 10.4954,-0.0013c0,0 0.58196,0 1.0209,0.36249z" fill="#db93e6" stroke="none" stroke-width="0.5" stroke-linecap="butt"/><path d="M251.99167,191.78097c-1.67931,7.56069 -4.86498,11.02742 -10.17167,16.33872c-1.81279,1.81436 -7.40825,5.80632 -9.94499,6.51542c-2.53682,0.70913 -5.125,1.40966 -7.54956,0.66422c-3.58679,-3.01326 -5.33763,-8.01703 -8.07578,-11.73921c-1.78163,-2.4219 -4.19287,-4.80161 -5.14903,-7.73429c-1.02489,-3.14351 0.16023,-6.15745 1.23903,-9.03005c0.01627,-0.08586 0.47817,-1.11653 1.25014,-1.21309c3.30226,-0.41309 12.54587,0.06984 16.58395,0.06984c0.50895,-1.80091 2.05171,-4.36716 2.80751,-6.02073c1.59398,-3.48739 2.64835,-5.68237 6.05679,-7.50601c1.01875,-0.54507 2.71038,-1.11283 3.82553,-1.53416c0,0 1.93626,-0.74282 2.51461,0.41369c5.83564,2.01066 7.04018,6.00766 7.17656,12.00408c0.04912,2.15992 -0.35992,6.94201 -0.56309,8.77158zM213.95867,194.91386c1.09354,3.17706 9.46638,14.90074 12.07269,17.21776c7.94803,2.18273 21.21549,-12.35586 22.8716,-19.69298c2.51216,-11.12971 -0.56256,-24.20893 -10.79823,-16.17436c-3.91874,3.07604 -5.45068,11.17783 -7.12759,11.70102c-1.71044,0.53365 -7.7391,-0.2224 -11.89136,-0.46917c-2.56697,-0.15255 -4.25154,0.22009 -4.25154,0.22009c-0.77855,1.97613 -1.60749,5.07119 -0.87556,7.19764z" fill="#000000" stroke="none" stroke-width="0.5" stroke-linecap="butt"/><g stroke="none" stroke-width="0.5" stroke-linecap="butt"><path d="M214.58133,192.48624c-4.20891,0.75236 -7.8243,2.73415 -12.24717,2.89347c-2.38046,0.08575 -4.58592,0.01797 -6.92708,-0.41238c-1.86935,-0.34362 -5.25638,-1.37067 -7.25462,-0.8943c-1.29838,0.30953 -1.08759,4.70591 -1.09063,5.45371c1.84592,7.26119 6.75539,15.63398 13.89421,18.82967c2.23582,1.00086 5.43358,2.31271 7.97895,1.65712c1.14923,-0.296 2.15328,-0.99905 3.24274,-1.46962c1.6231,-0.70105 2.73474,-1.71032 3.96826,-2.94759c3.56931,-4.14544 10.41107,-9.13992 8.231,-15.79011c-0.56989,-1.73842 -2.78946,-3.26232 -4.06129,-4.42942c-1.44601,-1.32693 -2.68237,-2.30281 -4.59883,-2.76147l-0.41346,0.04478c0,0 -0.35662,0 -0.72208,-0.17388zM217.40218,190.00773c3.70502,1.36776 8.6189,5.28095 9.81376,8.82882c0.98663,2.92958 0.09032,7.02327 -1.23444,9.68664c-1.93267,3.88556 -4.93686,5.94903 -7.63436,9.11149c-1.53879,1.53486 -2.96101,2.77017 -4.97027,3.65915c-1.24832,0.5523 -2.42664,1.31529 -3.75263,1.63944c-7.07834,1.73037 -13.85023,-3.8296 -18.04863,-8.69108c-1.90369,-2.20436 -3.87653,-4.23828 -5.04869,-6.94411c-1.03643,-2.39252 -1.81981,-4.87982 -2.44261,-7.4048c-0.00808,-2.52745 -0.18573,-7.25037 2.79568,-8.53703c3.18152,-1.37301 8.112,0.72928 11.25302,1.02939c2.40566,0.22985 5.88808,0.40986 8.18582,-0.32938c3.34357,-1.07572 5.98854,-2.44227 9.62604,-2.77863c0,0 1.03018,-0.09365 1.45732,0.73009z" fill="#000000"/><path d="M215.33169,192.61888l0.41422,-0.04425c1.91646,0.45866 3.16355,1.44495 4.60956,2.77188c1.27183,1.16709 3.49875,2.70461 4.06864,4.44303c2.18007,6.65019 -4.67176,11.69492 -8.24107,15.84036c-1.23352,1.23727 -2.35942,2.25747 -3.98252,2.95852c-1.08945,0.47056 -2.10556,1.17795 -3.25478,1.47394c-2.54537,0.65559 -5.77298,-0.65888 -8.00879,-1.65974c-7.13881,-3.19568 -12.07621,-11.63166 -13.92213,-18.89286c0.00304,-0.7478 -0.20188,-5.1556 1.0965,-5.46513c1.99823,-0.47637 5.39247,0.54238 7.26182,0.886c2.34116,0.43035 4.565,0.48732 6.94546,0.40157c4.42287,-0.15932 8.08032,-2.136 12.28924,-2.88836c0.36547,0.17388 0.72386,0.17505 0.72386,0.17505z" data-paper-data="{&quot;noHover&quot;:false,&quot;origItem&quot;:[&quot;Path&quot;,{&quot;applyMatrix&quot;:true,&quot;segments&quot;:[[[429.90791,387.32211],[0.73093,0.34776],[-8.41783,1.50473]],[[405.41357,393.10906],[8.84574,-0.31865],[-4.76092,0.1715]],[[391.55941,392.2843],[4.68232,0.8607],[-3.73869,-0.68724]],[[377.05018,390.4957],[3.99646,-0.95274],[-2.59677,0.61906]],[[374.86892,401.40313],[0.00607,-1.4956],[3.69184,14.52239]],[[402.65734,439.06246],[-14.27763,-6.39137],[4.47163,2.00172]],[[418.61523,442.3767],[-5.09074,1.31118],[2.29846,-0.59199]],[[425.1007,439.43747],[-2.17891,0.94112],[3.24619,-1.4021]],[[433.03722,433.5423],[-2.46703,2.47453],[7.13862,-8.29088]],[[449.49922,401.96208],[4.36015,13.30038],[-1.13978,-3.47683]],[[441.37664,393.10325],[2.54365,2.33419],[-2.89202,-2.65387]],[[432.17899,387.5803],[3.83292,0.91732],[0,0]],[431.35207,387.66987]],&quot;closed&quot;:true}]}" fill="#f89587"/></g><path d="M162.30587,188.49029c0.00481,-0.01694 0.00966,-0.03382 0.01457,-0.05064z" fill="#000000" stroke="none" stroke-width="0.5" stroke-linecap="butt"/><path d="M194.31192,176.15888c-0.65677,-1.4954 -1.34257,-2.98531 -1.90144,-4.51621c-1.72573,-2.69323 -5.55316,-0.72931 -7.43168,0.83568c-3.90396,3.25239 -7.01161,9.95886 -7.2216,15.02203l0.2127,0.05318l-0.00985,0.03942c0.09739,0.0152 0.19431,0.03542 0.29071,0.06139c0.87035,0.23442 1.5056,0.95833 2.19278,1.57252c3.79235,2.14511 5.32163,6.56105 8.91777,8.95973c1.54127,0.49172 3.27203,0.58554 4.77354,0.80104c0.666,0.09558 1.36812,0.20884 2.08181,0.30681c0.74666,-0.06811 1.44011,-0.12899 1.98694,-0.12673c2.07283,0.00853 4.00726,-0.57817 5.59524,-1.93942c0.18068,-0.1732 0.35595,-0.36349 0.52481,-0.56867c0.03552,-0.07955 0.06979,-0.16115 0.10279,-0.24485c0.05691,-0.03697 0.11344,-0.07232 0.1695,-0.10637c2.29861,-3.14344 3.18651,-9.06004 -0.24804,-11.45c-2.27978,-0.34401 -5.71615,1.01103 -7.51584,-0.20883c-0.73156,-0.49587 -0.23181,-1.49072 -0.55431,-2.4477c-0.62392,-1.85142 -1.66046,-4.09403 -1.96581,-6.043zM183.05825,170.17368c3.69225,-3.07761 8.74941,-4.19531 11.94823,-0.0099c0.43496,0.25077 0.65243,0.68572 0.65243,0.68572l0.45148,0.9214c0.19431,0.51818 0.38864,1.03635 0.58295,1.55453c0.3055,0.81811 0.51905,1.58872 0.67832,2.34872c0.38719,0.90863 0.75732,1.82067 1.08431,2.74184c0.2736,0.77077 -0.23448,1.9898 0.46804,2.4086c0.8482,0.50564 1.98105,-0.23104 2.96053,-0.10565c1.34259,0.17188 2.46367,0.63107 3.61259,1.3173c0.1257,0.03185 0.2493,0.06789 0.37048,0.10864c0.85551,0.2877 2.93885,1.66676 3.36799,2.45246c0.46389,0.84932 0.37719,2.83765 0.37809,3.82847c0.00337,3.72281 0.78563,7.65841 -2.80666,9.85288c-0.02913,0.0394 -0.05845,0.07855 -0.08794,0.11746c-1.7005,4.62367 -7.18872,4.3343 -11.48428,3.77265c-1.21215,0.00276 -4.4476,0.00555 -4.64362,-0.06188c-0.39852,-0.13709 -0.93867,-0.4412 -1.53056,-0.82671c-0.39885,-0.10611 -0.78725,-0.23574 -1.15944,-0.39785c-0.52104,-0.22694 -3.02979,-1.87635 -3.44104,-2.31799c-1.01699,-1.09214 -1.76771,-2.70857 -2.61338,-4.01256c-0.38074,-0.47129 -0.76602,-0.92108 -1.19409,-1.33976c-0.83464,-0.63407 -1.90915,-1.14528 -2.62753,-1.76983c-0.44547,-0.19254 -0.93736,-0.36449 -1.48682,-0.51305l-0.1841,-0.30157l-0.09704,0.11644l-1.1571,-0.96425c-0.3349,-0.2751 -0.54852,-0.69243 -0.54852,-1.15966c0,-0.26925 0.07095,-0.52194 0.19516,-0.74039c0.06331,-5.92417 3.67782,-13.84374 8.31151,-17.70606z" fill="#000000" stroke="none" stroke-width="0.5" stroke-linecap="butt"/><path d="M196.31991,182.17503c0.3225,0.95697 -0.16945,1.97705 0.56211,2.47291c1.79969,1.21986 5.23609,-0.1333 7.51587,0.21071c3.43455,2.38995 2.5333,8.34033 0.23469,11.48377c-0.05606,0.03405 -0.11298,0.06982 -0.16989,0.10679c-0.033,0.0837 -0.06778,0.16582 -0.1033,0.24537c-0.16886,0.20517 -0.34575,0.39705 -0.52643,0.57026c-1.58797,1.36126 -3.53723,1.95754 -5.61006,1.94901c-0.54683,-0.00225 -1.24622,0.06069 -1.99287,0.12879c-0.71368,-0.09796 -1.4224,-0.20987 -2.0884,-0.30545c-1.50151,-0.2155 -3.2494,-0.30994 -4.79067,-0.80166c-3.59614,-2.39868 -5.16186,-6.84591 -8.95421,-8.99102c-0.68717,-0.61419 -1.32462,-1.34569 -2.19497,-1.58012c-0.0964,-0.02597 -0.19341,-0.04659 -0.29079,-0.06179l0.00983,-0.03955l-0.21276,-0.05348c0.20999,-5.06318 3.34153,-11.82198 7.24549,-15.07437c1.87852,-1.56499 5.73203,-3.53575 7.45776,-0.84252c0.55888,1.5309 1.25576,3.02225 1.91252,4.51765c0.30535,1.94897 1.37217,4.21329 1.99608,6.0647z" data-paper-data="{&quot;noHover&quot;:false,&quot;origItem&quot;:[&quot;Path&quot;,{&quot;applyMatrix&quot;:true,&quot;segments&quot;:[[[389.36914,354.6674],[0.6107,3.89794],[-1.31353,-2.99079]],[[385.56625,345.63498],[1.11775,3.06181],[-3.45147,-5.38647]],[[370.7029,347.30633],[3.75704,-3.12998],[-7.80792,6.50477]],[[356.2597,377.35039],[0.41999,-10.12635],[0,0]],[356.6851,377.45674],[[356.66539,377.53558],[0,0],[0.19477,0.0304]],[[357.24681,377.65835],[-0.1928,-0.05193],[1.7407,0.46885]],[[361.63236,380.80338],[-1.37435,-1.22838],[7.5847,4.29022]],[[379.46789,398.72284],[-7.19228,-4.79736],[3.08253,0.98344]],[[389.01497,400.32492],[-3.00301,-0.431],[1.332,0.19117]],[[393.17858,400.93854],[-1.42736,-0.19593],[1.49331,-0.13621]],[[397.15247,400.68507],[-1.09366,-0.0045],[4.14566,0.01706]],[[408.34294,396.80622],[-3.17594,2.72251],[0.36135,-0.34641]],[[409.39255,395.66889],[-0.33772,0.41035],[0.07104,-0.1591]],[[409.59814,395.17919],[-0.066,0.1674],[0.11382,-0.07393]],[[409.93714,394.96645],[-0.11212,0.0681],[4.59722,-6.28687]],[[409.44106,372.06646],[6.86911,4.77991],[-4.55956,-0.68801]],[[394.40938,371.64879],[3.59938,2.43973],[-1.46312,-0.99173]],[[393.30076,366.75339],[0.64499,1.91395],[-1.24783,-3.70283]]],&quot;closed&quot;:true}]}" fill="#fddfbd" stroke="none" stroke-width="0.5" stroke-linecap="butt"/><path d="M206.5134,194.04077c-1.35842,8.91856 -12.19726,5.3902 -17.63959,3.08225c-1.53113,-1.55716 -2.50767,-3.19237 -3.90158,-4.80659c-1.25488,-1.4532 -4.01312,-2.82144 -4.97998,-4.30944c-0.60294,-0.92792 1.16678,-3.30088 1.1762,-3.95041c0.00595,-0.41031 -0.56722,-0.59956 -0.79269,-0.94242c-0.30237,-0.45981 0.98321,0.69349 1.39004,1.06408c0.91375,0.83236 1.94273,1.4409 3.12354,1.8062c3.12018,0.96528 6.47101,1.48205 9.4861,2.75108c0.85913,0.35736 3.48385,0.98761 4.76708,1.48136c0.62282,0.23964 1.65043,0.56276 1.99909,0.76696c0.42872,0.25109 0.1336,0.32239 0.48131,-0.16236c0.58952,-0.82186 0.67864,-0.65858 1.33316,-1.49429c0.71311,-0.91052 2.18386,-2.24961 2.93908,-2.93277c0.07545,1.20184 0.65074,0.53343 0.83008,2.06773c0.14288,1.22227 -0.07356,4.67069 -0.21185,5.57862z" data-paper-data="{&quot;noHover&quot;:false,&quot;origItem&quot;:[&quot;Path&quot;,{&quot;applyMatrix&quot;:true,&quot;segments&quot;:[[[413.22832,377.33554],[0.27112,4.31854],[-2.89675,2.62042]],[[404.09091,383.98571],[3.28737,-0.9633],[-3.99464,1.17055]],[[389.45722,379.91278],[3.57765,1.48814],[-6.03017,-2.53807]],[[370.60791,374.37288],[6.24037,1.93056],[-2.36162,-0.7306]],[[364.19226,370.65287],[1.82749,1.66472],[-0.81367,-0.74119]],[[361.58091,368.63208],[-0.60474,-0.91963],[0.45093,0.68573]],[[363.16764,370.51474],[0.0119,-0.82063],[-0.01884,1.29905]],[[360.82667,378.38841],[-1.20588,-1.85584],[1.93373,2.97599]],[[370.78915,386.97148],[-2.50976,-2.90641],[2.78782,3.22843]],[[378.55363,396.51621],[-3.06225,-3.11433],[10.88465,4.6159]],[[413.67402,390.41164],[-2.71684,17.83712],[0.62376,-4.09526]]],&quot;closed&quot;:true}]}" fill="#f89587" stroke="none" stroke-width="0.5" stroke-linecap="butt"/><path d="M192.2574,193.01076c0,0 2.06149,-1.18009 3.88345,0.01857c0.68073,0.44785 3.07335,2.12586 4.16642,3.14776c2.35855,2.20498 2.47344,4.39099 2.47344,4.39099c0,0 5.13387,0.9147 6.45819,3.01603c0.58658,0.93073 2.78239,3.51981 3.10934,5.38271c0.51034,2.90783 -1.02058,5.16283 -1.02058,5.16283c0,0 -11.14827,11.58631 -16.34609,13.84557c-1.38324,0.60123 -3.9262,0.22669 -3.9262,0.22669c0,0 -1.9817,-1.45039 -3.10045,-2.35821c-1.52881,-1.24057 -4.45539,-3.62651 -4.45539,-3.62651c0,0 -2.75187,0.14662 -3.61484,0.28227c-0.64294,0.10107 -1.87726,-0.3184 -1.87726,-0.3184c0,0 -0.97084,-1.22216 -1.94189,-2.68891c-1.09314,-1.65118 -2.23847,-3.61233 -2.99424,-4.48879c-0.90429,-1.0487 -2.21595,-0.62666 -2.21595,-0.62666l-8.68707,0.74113c0,0 -2.07163,-3.02429 -2.69379,-5.94367c-0.73594,-3.45324 -0.07789,-11.30696 -0.07789,-11.30696c0,0 9.73464,-10.6209 14.64389,-13.6625c4.83669,-2.99665 12.2654,-5.0372 12.2654,-5.0372c0,0 2.81419,2.2258 3.93267,3.55468c1.26988,1.50876 3.29021,5.02694 3.29021,5.02694l-1.27135,5.26166z" fill="#fddfbd" stroke="#000000" stroke-width="3" stroke-linecap="round"/><path d="M160.90991,200.07755c0,0 0.61612,3.02353 1.22804,4.45133c0.64567,1.50656 2.55016,4.36447 2.55016,4.36447c0,0 4.52752,-0.81532 6.6334,-1.83196c3.70515,-1.78869 13.65693,-7.96338 13.65693,-7.96338c0,0 -1.96081,3.82347 -2.59633,6.03507c-0.49525,1.72349 -0.90201,6.13914 -0.90201,6.13914c0,0 1.6082,2.66143 2.47081,3.41344c0.94838,0.8268 2.98659,1.34429 2.98659,1.34429c0,0 3.3336,-0.963 4.48863,-1.73302c1.33704,-0.89136 3.06777,-3.30458 3.06777,-3.30458c0,0 -1.13084,3.63311 -1.38918,5.10566c-0.17205,0.98069 -0.01015,2.87054 -0.01015,2.87054c0,0 6.72789,-4.80641 8.96627,-5.39216c2.67452,-0.69987 6.0066,1.47402 6.0066,1.47402c0,0 -3.68818,4.40596 -5.7951,6.28341c-1.89987,1.69295 -5.57376,4.31259 -7.8191,5.36214c-0.7415,0.34661 -2.29313,0.25854 -2.29313,0.25854c0,0 -1.15418,-0.44407 -2.55522,-1.50886c-1.26783,-0.96355 -3.59978,-3.48676 -5.04665,-4.62812c-0.75211,-0.5933 -1.26506,-0.30972 -1.26506,-0.30972c0,0 -2.39014,0.67602 -3.3974,0.63385c-0.6974,-0.02919 -1.08047,-0.86259 -1.08047,-0.86259c0,0 -1.31459,-1.48496 -2.23725,-2.56617c-0.18266,-0.21405 -1.3878,-1.90336 -2.33857,-3.19584c-0.51443,-0.69932 -0.55301,-1.28246 -1.60555,-1.45291c-1.85793,-0.30087 -3.97329,-0.52632 -7.81309,0.09021c-1.10926,0.1781 -1.88384,0.62051 -2.36907,0.08525c-2.37521,-2.62007 -1.54189,-13.16208 -1.54189,-13.16208z" fill="#f89587" stroke="#f89587" stroke-width="0.5" stroke-linecap="round"/><path d="M180.10387,202.2946c3.10813,-3.70659 8.13224,-6.99291 11.92033,-10.00299c0.26489,-0.74984 0.33961,0.7459 0.40082,1.78958c-5.13736,3.45698 -9.25682,7.60559 -14.07109,11.5001c0.62035,-1.13046 1.30896,-2.7608 1.74993,-3.28669z" data-paper-data="{&quot;noHover&quot;:false,&quot;origItem&quot;:[&quot;Path&quot;,{&quot;applyMatrix&quot;:true,&quot;segments&quot;:[[[357.52884,410.33784],[1.2407,-2.033],[9.62855,-7.00379]],[[385.50984,389.77357],[-10.27473,6.21694],[-0.12243,-1.87693]],[[384.71883,386.56966],[0.52978,-1.34849],[-7.57618,5.41327]],[[361.03917,404.44173],[6.21626,-6.66584],[-0.88195,0.94574]]],&quot;closed&quot;:true}]}" fill="#000000" stroke="none" stroke-width="0.5" stroke-linecap="butt"/><path d="M192.64902,193.01076c0,0 1.66989,-1.18009 3.49185,0.01857c0.68073,0.44785 3.07335,2.12586 4.16642,3.14776c2.35855,2.20498 2.47344,4.39099 2.47344,4.39099c0,0 5.13387,0.9147 6.45819,3.01603c0.58658,0.93073 2.78239,3.51981 3.10934,5.38271c0.51034,2.90783 -1.02058,5.16283 -1.02058,5.16283c0,0 -11.14827,11.58631 -16.34609,13.84557c-1.38324,0.60123 -3.9262,0.22669 -3.9262,0.22669c0,0 -1.9817,-1.45039 -3.10045,-2.35821c-1.52881,-1.24057 -4.45539,-3.62651 -4.45539,-3.62651c0,0 -2.75187,0.14662 -3.61484,0.28227c-0.64294,0.10107 -1.87726,-0.3184 -1.87726,-0.3184c0,0 -0.97084,-1.22216 -1.94189,-2.68891c-1.09314,-1.65118 -2.23847,-3.61233 -2.99424,-4.48879c-0.90429,-1.0487 -2.21595,-0.62666 -2.21595,-0.62666l-8.68707,0.74113c0,0 -2.07163,-3.02429 -2.69379,-5.94367c-0.73594,-3.45324 -0.07789,-11.30696 -0.07789,-11.30696c0,0 9.73464,-10.6209 14.64389,-13.6625c4.83669,-2.99665 12.2654,-5.0372 12.2654,-5.0372c0,0 2.81419,2.2258 3.93267,3.55468c1.26988,1.50876 3.29021,5.02694 3.29021,5.02694l-1.27135,5.26166z" fill="#fddfbd" stroke="#000000" stroke-width="3" stroke-linecap="round"/><path d="M160.90991,200.07755c0,0 0.61612,3.02353 1.22804,4.45133c0.64567,1.50656 2.55016,4.36447 2.55016,4.36447c0,0 4.52752,-0.81532 6.6334,-1.83196c3.70515,-1.78869 13.65693,-7.96338 13.65693,-7.96338c0,0 -1.96081,3.82347 -2.59633,6.03507c-0.49525,1.72349 -0.90201,6.13914 -0.90201,6.13914c0,0 1.6082,2.66143 2.47081,3.41344c0.94838,0.8268 2.98659,1.34429 2.98659,1.34429c0,0 3.3336,-0.963 4.48863,-1.73302c1.33704,-0.89136 3.06777,-3.30458 3.06777,-3.30458c0,0 -1.13084,3.63311 -1.38918,5.10566c-0.17205,0.98069 -0.01015,2.87054 -0.01015,2.87054c0,0 6.72789,-4.80641 8.96627,-5.39216c2.67452,-0.69987 6.0066,1.47402 6.0066,1.47402c0,0 -3.68818,4.40596 -5.7951,6.28341c-1.89987,1.69295 -5.57376,4.31259 -7.8191,5.36214c-0.7415,0.34661 -2.29313,0.25854 -2.29313,0.25854c0,0 -1.15418,-0.44407 -2.55522,-1.50886c-1.26783,-0.96355 -3.59978,-3.48676 -5.04665,-4.62812c-0.75211,-0.5933 -1.26506,-0.30972 -1.26506,-0.30972c0,0 -2.39014,0.67602 -3.3974,0.63385c-0.6974,-0.02919 -1.08047,-0.86259 -1.08047,-0.86259c0,0 -1.31459,-1.48496 -2.23725,-2.56617c-0.18266,-0.21405 -1.3878,-1.90336 -2.33857,-3.19584c-0.51443,-0.69932 -0.55301,-1.28246 -1.60555,-1.45291c-1.85793,-0.30087 -3.97329,-0.52632 -7.81309,0.09021c-1.10926,0.1781 -1.88384,0.62051 -2.36907,0.08525c-2.37521,-2.62007 -1.54189,-13.16208 -1.54189,-13.16208z" fill="#f89587" stroke="#f89587" stroke-width="0.5" stroke-linecap="round"/><path d="M180.10387,202.2946c3.10813,-3.70659 8.13224,-6.99291 11.92033,-10.00299c0.26489,-0.74984 0.33961,0.7459 0.40082,1.78958c-5.13736,3.45698 -9.25682,7.60559 -14.07109,11.5001c0.62035,-1.13046 1.30896,-2.7608 1.74993,-3.28669z" data-paper-data="{&quot;noHover&quot;:false,&quot;origItem&quot;:[&quot;Path&quot;,{&quot;applyMatrix&quot;:true,&quot;segments&quot;:[[[357.52884,410.33784],[1.2407,-2.033],[9.62855,-7.00379]],[[385.50984,389.77357],[-10.27473,6.21694],[-0.12243,-1.87693]],[[384.71883,386.56966],[0.52978,-1.34849],[-7.57618,5.41327]],[[361.03917,404.44173],[6.21626,-6.66584],[-0.88195,0.94574]]],&quot;closed&quot;:true}]}" fill="#000000" stroke="none" stroke-width="0.5" stroke-linecap="butt"/><path d="M192.02205,214.52873c1.2134,-7.27712 7.86561,-8.96125 7.86561,-13.94792c0,-1.05798 0.03019,-7.28474 2.16448,-3.16917c0.63079,1.21635 -0.09396,2.41504 0.77693,3.6235c0.69692,0.96705 1.56358,1.41437 2.52033,1.78993c-4.70747,2.54165 -13.39088,12.08467 -13.32735,11.70367z" data-paper-data="{&quot;noHover&quot;:false,&quot;origItem&quot;:[&quot;Path&quot;,{&quot;applyMatrix&quot;:true,&quot;segments&quot;:[[[411.34699,408.02386],[-9.41495,5.0833],[-1.9135,-0.75112]],[[406.3273,404.4848],[1.39384,1.93411],[-1.74178,-2.41692]],[[404.80791,397.26385],[1.26158,2.43271],[-4.26858,-8.23113]],[[400.49427,403.60774],[0,-2.11596],[0,9.97335]],[[386.41035,424.72565],[3.20408,-8.72475],[-0.26631,0.72517]],[[385.48269,427.98414],[0.3701,-1.29924],[0.43786,-0.37882]],[[386.82394,426.89155],[-0.45713,0.34787],[8.57583,-6.40439]]],&quot;closed&quot;:true}]}" fill="#000000" stroke="none" stroke-width="0.5" stroke-linecap="butt"/><path d="M192.02205,214.52873c1.2134,-7.27712 7.86561,-8.96125 7.86561,-13.94792c0,-1.05798 0.03019,-7.28474 2.16448,-3.16917c0.63079,1.21635 -0.09396,2.41504 0.77693,3.6235c0.69692,0.96705 1.56358,1.41437 2.52033,1.78993c-4.70747,2.54165 -13.39088,12.08467 -13.32735,11.70367z" data-paper-data="{&quot;noHover&quot;:false,&quot;origItem&quot;:[&quot;Path&quot;,{&quot;applyMatrix&quot;:true,&quot;segments&quot;:[[[411.34699,408.02386],[-9.41495,5.0833],[-1.9135,-0.75112]],[[406.3273,404.4848],[1.39384,1.93411],[-1.74178,-2.41692]],[[404.80791,397.26385],[1.26158,2.43271],[-4.26858,-8.23113]],[[400.49427,403.60774],[0,-2.11596],[0,9.97335]],[[386.41035,424.72565],[3.20408,-8.72475],[-0.26631,0.72517]],[[385.48269,427.98414],[0.3701,-1.29924],[0.43786,-0.37882]],[[386.82394,426.89155],[-0.45713,0.34787],[8.57583,-6.40439]]],&quot;closed&quot;:true}]}" fill="#000000" stroke="none" stroke-width="0.5" stroke-linecap="butt"/></g><g stroke-width="0.5"><path d="M222.00669,237.88762c-1.65814,0.33281 -3.43159,0.44571 -5.59002,0.44571c0,0 -0.26771,0 -0.48324,-0.15994c-0.52024,0.50819 -1.24283,1.02941 -1.68323,1.46879c-3.04224,2.43145 -6.30134,3.45932 -9.61793,5.41976c-3.01946,1.78481 -6.30266,4.5095 -9.74796,5.2262c0.13762,1.03221 0.02216,2.19778 -0.42278,3.53236c-0.43559,1.30654 -0.77062,1.40079 -1.39616,2.47261c-1.03979,1.78159 -1.75305,4.35983 -3.98202,4.54022c-6.47281,0 -15.17998,0.84634 -20.0873,-4.19846c-0.07141,0.02024 -0.15295,0.03179 -0.24603,0.03179c-0.75,0 -0.75,-0.75 -0.75,-0.75l0.01456,-0.64709c0.96269,-4.81347 5.4677,-7.05415 9.09838,-9.90366c2.73173,-2.14398 5.27264,-4.50443 8.94319,-3.3006c3.27341,1.86009 7.15277,3.61967 8.44204,6.77143c3.25376,-0.58729 6.52549,-3.38571 9.36957,-5.06536c3.24366,-1.91563 6.42008,-2.87461 9.38207,-5.24691c0.30092,-0.30169 2.62038,-2.01304 2.15433,-2.62304c-0.95483,-1.24976 -3.46894,-2.00239 -4.92545,-2.31285c-4.01123,-0.85501 -7.86528,-0.24037 -11.37085,-2.59193c-0.80354,-0.80354 -2.057,-1.37446 -2.54252,-2.44055c-1.58051,-3.47045 1.38194,-5.25467 4.10129,-6.4197c4.96088,-2.12536 10.13935,-2.19 15.44256,-2.1113c1.86938,1.02803 6.72129,2.91678 7.5029,5.11062c1.69199,4.74912 -3.38217,8.20605 -7.20572,9.82189c0.4197,0.53092 0.61464,1.15048 0.3878,1.87723c1.67467,0.01288 3.39673,0.09754 5.06471,-0.11038c0.22221,-0.22449 0.55781,-0.22449 0.55781,-0.22449c0.18306,0 0.53279,0 0.71586,0c0.68689,-0.1608 1.35961,-0.3899 2.01061,-0.71438c-0.10808,-0.24224 -0.16091,-0.55834 -0.13751,-0.96059c0.06292,-1.08178 2.75653,-2.90399 3.58631,-3.64162c1.18889,-1.05685 2.61286,-2.07671 3.63516,-3.29852c2.20665,-2.63729 3.25067,-5.98163 7.20932,-3.13911c0.79416,0.76634 2.53363,1.69286 2.99802,2.69754c1.17876,2.55015 -1.69312,4.74039 -3.48783,5.84525c-4.83856,2.9787 -9.84918,4.71143 -15.52994,4.71143c-0.27778,0 -0.55556,0 -0.83333,0h-0.16667c0,0 -0.21158,0 -0.40998,-0.11238z" fill="#ff2d32" stroke="none" stroke-linecap="butt"/><path d="M191.34469,263.65533l-0.6357,-0.40629c0,0 -0.10731,-0.07154 -0.20327,-0.19979c-1.67315,-0.69703 -3.34995,-2.40437 -3.35491,-4.11155c-0.00045,-0.15626 1.00524,-2.7945 1.10425,-3.05767c1.9845,-5.27493 5.27399,-8.9998 9.59815,-12.59368c2.64736,-2.19794 5.51965,-3.95712 8.28587,-5.98645c1.70288,-1.24926 3.29186,-3.04603 5.10949,-4.07357c2.76299,-1.56197 5.88458,-2.7332 8.5,-4.5c2.77104,-1.33763 6.2892,-0.32027 9.30254,-0.59767c4.36502,-0.40183 8.40589,-0.50365 12.8239,-0.50365c2.36639,0.08649 3.61634,2.49875 5.0571,4.12284c3.27601,3.69289 6.29522,9.0731 6.85396,14.03516c0.13013,1.15569 0.33616,2.89917 -0.25799,3.94633c-0.09772,0.17223 -2.35708,1.99811 -2.56818,2.17072c-9.75016,4.44025 -19.51145,5.84077 -30.10529,6.86713c-3.86908,0.37485 -7.40225,1.51283 -11.19011,2.23961c-5.43004,1.04186 -11.39102,1.17671 -16.36624,3.59793l-0.77349,0.01699c-0.20421,0.0518 -0.37625,-0.00266 -0.50586,-0.08132c-0.13697,-0.06403 -0.27731,-0.17652 -0.34768,-0.37413c-0.10885,-0.17031 -0.2177,-0.34062 -0.32655,-0.51093z" fill="#ab164a" stroke="none" stroke-linecap="butt"/><path d="M256.54299,270.49517c-1.66346,-1.23753 -3.64576,-3.07958 -4.33955,-5.01324c-1.14041,-3.17842 0.96883,-5.24419 1.6564,-8.09617c0.55803,-2.31466 0.70797,-4.99742 0.20241,-7.31987c-1.836,-2.96565 -6.2424,-3.89289 -9.6341,-5.17041c-0.82789,-0.31183 -1.84126,-0.16641 -2.56773,-0.67128c-3.90461,-2.71355 -1.12049,-8.34159 2.33461,-9.52403c3.65567,-1.02354 10.04504,-0.99963 13.84179,-0.35715c1.3,0.21999 1.21742,-2.17833 5.30321,-4.52881c2.58193,-1.48533 9.83177,-3.40206 10.62681,-3.19885c2.65018,0.67737 -1.83882,10.36004 0.86991,10.38465c7.40665,-0.00004 10.76755,-1.96609 17.61861,-4.59647c1.5101,-0.57978 5.11764,-1.28666 5.92418,-2.746c0.59729,-3.94971 3.01943,-4.7929 6.58367,-5.31452c1.03836,-0.15196 1.75097,-1.13411 2.90715,-0.61926c2.60615,1.16052 2.48223,5.23652 0.7232,6.90929c-1.26136,1.19951 -2.84577,2.27651 -4.21205,3.37221c-0.61183,0.47191 -1.47098,0.60338 -2.00692,1.15996c-0.40413,0.4197 0.27893,1.13821 0.51894,1.66912c0.76881,1.70068 2.93639,1.58868 4.35672,2.24392c3.68193,1.69859 10.0492,7.40573 8.87987,11.73639c-1.19631,3.28725 -1.40095,7.49421 -4.00573,10.12142c-1.85307,1.86903 -4.25167,1.86966 -6.70233,2.25658c-4.02459,0.63542 -7.89229,1.29766 -11.96817,1.49018c-10.09161,0.47667 -21.42144,0.11644 -30.36948,5.03873c-1.82835,0.88817 -3.43155,1.93678 -5.50106,1.9451l-0.66874,-0.24585c0,0 -0.6171,-0.30855 -0.37161,-0.92565z" fill="#ff2d32" stroke="none" stroke-linecap="butt"/><path d="M219.76777,211.6992c0.01561,-0.01729 0.02467,-0.02635 0.02467,-0.02635l0.05885,0.00313c0.00052,-0.00013 0.00105,-0.00026 0.00157,-0.00039c3.21721,-5.28836 9.30639,-6.1228 15.06036,-5.86945c11.46511,0.50482 23.30776,1.25842 34.53776,3.6409c1.23249,0.52798 4.70053,1.95749 5.14824,2.56947c0.53544,0.73189 -0.00844,1.81883 -0.1308,2.71738c-0.74256,5.45316 -4.54856,8.69756 -9.2648,11.07228c-4.364,2.19736 -11.93551,1.99543 -16.57622,0.80992c-3.68479,-0.94132 -6.05383,-2.38334 -9.94564,-2.38696c-0.92104,0.14279 -1.96596,-0.00708 -2.75227,0.49334c-3.07912,1.95958 -3.13275,7.62944 -7.92282,7.65384c-2.60336,0.01326 -3.74712,-2.65729 -4.65532,-4.57911c-1.06807,-2.26011 -1.00827,-4.76897 -1.53582,-7.17537c-0.55338,-2.52422 -1.88115,-4.51832 -3.01836,-6.78894c0,0 -0.67082,-1.34164 0.67082,-2.01246c0.10395,-0.05198 0.20388,-0.09187 0.29977,-0.12124z" fill="#0f1b82" stroke="none" stroke-linecap="butt"/><path d="M273.9632,221.982c0.25423,-0.39341 0.64765,-0.59012 0.64765,-0.59012l0.54445,-0.2435c1.39707,-0.3896 2.87791,-0.36904 4.30834,-0.60873c1.69592,-0.28418 3.21249,-1.24764 4.87474,-1.68787c3.63565,-0.96287 7.83223,-1.62574 11.58269,-1.47385c2.86343,0.11597 7.46846,2.80331 6.53338,6.42029c-0.4478,1.73213 -3.03215,3.29816 -4.29033,4.45875c-1.60772,1.48302 -2.38457,3.84071 -3.35724,5.7499c-2.32301,2.6088 -5.44842,7.11296 -8.74612,8.51361c-3.37393,1.43302 -5.31941,-1.65215 -6.87972,-3.94807c-0.90181,-1.32697 -2.1255,-2.43165 -2.92405,-3.8232c-0.92742,-1.61613 -0.93204,-3.65217 -1.53439,-5.37853c-0.67392,-1.9315 -1.46767,-3.57638 -1.90763,-5.60857c0,0 -0.3137,-1.46392 1.14824,-1.7801z" fill="#0f1b82" stroke="none" stroke-linecap="butt"/><path d="M219.28166,212.87637c0,0 2.83257,7.09321 3.32945,8.9099c0.83919,3.06831 2.5277,8.0901 2.5277,8.0901l-6.85714,-7.85714l-7.42857,-1l-6,0.85714l-5.42857,0.85714l2.42857,-9.71429l2.71429,-4.14286l8,2l6,3z" fill="#0066cc" stroke="#0066cc" stroke-linecap="round"/><path d="M278.56737,208.4478l18,5l3,5.28571c0,0 -11.10562,15.05826 -14.29553,15.52485c-1.91523,0.22428 -10.99018,-9.09627 -10.99018,-9.09627l-10.14286,4.14285l-5.28572,3.57143l-0.14285,4.28572l-11.42857,-3.14286l-2.42857,-4.71428l-7.57143,-6.28572c0,0 9.89465,3.76659 18.57568,2.02914c11.2374,-2.24908 15.71004,-7.02914 15.71004,-7.02914z" fill="#0066cc" stroke="#0066cc" stroke-linecap="round"/><path d="M269.63881,195.59066c0,-1.5 1.5,-1.5 1.5,-1.5l0.58954,0.00866c4.96379,0.54305 10.30901,2.14226 14.9853,3.89062c1.06709,0.42412 2.26071,0.61366 3.2013,1.27234c2.62739,1.8399 1.84309,5.8051 2.84892,8.36726c0.86679,2.20797 3.8049,1.49245 3.58435,4.79631c-0.12966,1.94239 -2.39943,3.17157 -3.95434,3.50011c-1.64071,0.34667 -2.58246,-0.33326 -3.92588,-0.99365c-3.03132,-1.49011 -5.83132,-3.80017 -9.10629,-4.59069c-1.337,0.90427 -2.62873,1.85852 -3.92106,2.82637c-0.16641,0.19404 -0.41237,0.35848 -0.77386,0.44534c-0.26412,0.08211 -0.6019,0.11977 -0.94475,-0.02415c-0.34929,-0.12751 -0.57142,-0.38472 -0.70932,-0.62449c-0.20669,-0.31034 -0.27509,-0.59892 -0.26475,-0.85491l-0.23968,-1.32718c-0.34885,-4.50884 -0.15615,-9.0651 -0.15519,-13.5868c-0.31716,-0.04242 -0.63283,-0.08044 -0.94667,-0.1138l-0.26761,0.00866c0,0 -1.5,0 -1.5,-1.5z" fill="#fddfbd" stroke="none" stroke-linecap="butt"/><path d="M276.71024,189.87637l14.57143,8.85714v4.85715c0,0 -2.38779,1.10509 -8.49442,-1.57684c-6.26164,-2.75 -10.07701,-7.2803 -10.07701,-7.2803z" fill="#f89587" stroke="#f89587" stroke-linecap="round"/><path d="M246.3214,172.8669c3.45069,-2.87502 8.03181,-5.72989 12.34308,-7.12783c2.7493,-0.89148 6.33943,-0.36392 9.18863,-0.36269c3.36543,0.00145 8.36341,-0.13535 11.37032,1.57963c4.54196,2.59049 1.3298,5.2112 -1.84976,6.51489c-1.83355,0.26755 -3.65676,0.3871 -5.47613,0.45027c-0.11885,0.68697 -0.60633,0.97041 -0.98835,1.08736c-3.09692,2.35589 -6.68248,1.79601 -10.48312,1.80292c-4.12376,0.00751 -7.9642,0.19909 -11.85009,-0.30166c-0.04303,0.00886 -0.08605,0.0177 -0.12905,0.02654l0.00702,0.35119l-2.99449,0.05989c-0.01161,0.00027 -0.02324,0.0004 -0.03491,0.0004c-0.82843,0 -1.5,-0.67157 -1.5,-1.5c0,-0.78363 0.6009,-1.42691 1.36706,-1.49419l0.46193,-0.04626c0.06242,-0.61925 0.56787,-1.04046 0.56787,-1.04046z" fill="#f89587" stroke="none" stroke-linecap="butt"/><path d="M246.11601,183.81412l0.73308,0.03113c2.35308,-1.27821 4.7318,-2.35916 7.082,-3.67196c1.88045,-1.05041 4.0036,-2.84021 6.17036,-3.28339c4.68917,-0.95909 9.60883,-0.83044 14.30804,-1.76878c3.68153,-0.73513 6.91872,-2.08 10.69197,-2.63854c2.00146,-0.29063 5.70672,-1.19501 7.45051,0.45325c0.67734,0.64022 -0.2309,1.853 -0.44036,2.76118c-0.44446,1.92706 -0.94742,4.14156 -0.25775,6.153c0.72546,2.11584 1.88077,5.15671 2.99256,7.0999c0.7668,1.34021 1.8596,1.96761 2.05609,3.95617c0.69434,7.02694 -9.34908,5.09544 -13.26673,3.18126c-3.00569,-1.36899 -5.70661,-2.91255 -8.05995,-5.16867c-0.11691,-0.11208 0.22629,0.27475 0.21392,0.43623c-0.03584,0.46783 -0.2224,0.91191 -0.35176,1.36292c-0.61412,2.14117 -1.02875,3.95142 -1.39131,6.12106c-0.82305,4.92535 -0.00937,9.67418 0.01998,14.58284c0.07524,0.46517 -0.0661,0.8103 -0.26576,1.05802c-0.1719,0.26779 -0.45467,0.51105 -0.91989,0.58673l-0.34755,0.11419c-2.29498,0.61803 -4.28371,1.82706 -6.69953,2.04774c-2.0684,0.18894 -3.72187,-0.11574 -5.74059,0.55717c-11.57861,0.10692 -24.25699,0.9436 -34.56408,-5.04011c-3.32675,-1.93132 -5.97474,-3.42543 -7.96478,-6.84938c-0.06239,-0.95325 -0.32811,-1.91491 -0.18716,-2.85973c0.59532,-3.99062 5.61759,-5.76306 8.58891,-7.46247c2.29864,-1.31467 4.13561,-3.34009 6.42276,-4.71095c3.97376,-2.38177 8.44242,-3.94308 12.42255,-6.28223c0,0 0.05971,-0.03483 0.16097,-0.07672c0.37109,-0.60405 1.14347,-0.68986 1.14347,-0.68986z" fill="#feebf7" stroke="none" stroke-linecap="butt"/><path d="M273.09416,203.13531l-5.25,-25l5,9.625l3,3.75z" fill="#db93e6" stroke="#db93e6" stroke-linecap="round"/><path d="M242.71916,176.63531l3.25,-3.25l6.75,2.375l7.625,0.125l6.75,-1.75l7.875,-5.25l9.625,-6.625l6.125,-0.75l2.375,2.125l2.25,4l-2.875,5.625l-48.375,13.125z" fill="#db93e6" stroke="#db93e6" stroke-linecap="round"/><path d="M274.12724,240.07415c1.23065,-1.0344 2.75199,-0.77899 4.34826,-1.00658c1.75845,-0.15921 2.73828,3.94928 4.94169,3.86211c3.50066,-0.13848 8.31166,-4.26276 10.77177,-2.89086c2.54111,1.41708 2.02939,4.74597 4.6248,5.44202c1.10171,0.4734 2.75564,0.48011 3.69694,1.23031c0.70586,0.56255 0.52803,1.72892 0.86973,2.56435c0.41737,1.02045 2.8869,0.79808 3.24127,1.85477c0.17887,0.53337 -0.09129,1.19156 -0.44696,1.62743c-0.18168,0.22264 -1.63397,0.34903 -1.96805,0.41582c-2.27229,0.45429 -4.47273,0.86967 -6.75896,1.2517c-2.61404,0.51685 -5.30073,0.31412 -7.94835,0.50973c-5.01169,0.37028 -10.96446,1.91701 -15.47645,4.17338c-1.70059,0.84864 -7.39425,4.01012 -8.78588,0.97221c-0.65234,-1.42405 1.39257,-2.89225 1.21294,-4.25684c-0.16062,-1.22023 -2.08437,-0.11729 -2.71294,-1.61816c-0.49611,-1.18458 1.01793,-2.00517 0.57403,-3.11935c-4.5491,0.42751 -2.89982,-3.79092 -1.05179,-5.78007c2.17132,-2.33713 7.56812,-5.02997 10.86797,-5.23197z" fill="#feebf7" stroke="none" stroke-linecap="butt"/><path d="M241.29286,229.8577c0,0 2.33531,1.16766 2.33531,2.33531c0,1.16765 -2.91804,1.5418 -3.23534,1.38526c-0.40792,-0.18206 -1.39417,-3.58638 0.90003,-3.72057z" fill="#000000" stroke="none" stroke-linecap="butt"/><path d="M246.98178,192.52946c1.10376,3.83423 1.98836,8.23764 3.6271,11.88699c2.53704,-1.38396 8.18804,-5.09253 9.44267,-8.79757c0.2873,-0.84841 0.34407,-1.69664 0.08013,-2.51673c-0.05798,-0.18014 -1.50038,-0.38023 -2.26654,-0.42804c-1.06286,-0.06632 -1.63319,0.04487 -2.63156,-0.12402c-1.17782,-0.19925 -0.87228,-0.94561 -2.01863,-0.92717c-3.27775,0.05271 -5.83075,0.77797 -6.23317,0.90654zM238.3489,199.08228c-2.38141,3.56911 0.04146,6.00636 3.10217,6.71876c1.79277,0.41729 3.47593,-0.16777 5.41313,-0.37314c0.42193,-0.16457 0.60907,-0.34815 1.05703,-0.54866c-1.66965,-3.69998 -2.34409,-7.27795 -3.46613,-11.15227c-1.62112,0.90911 -5.04574,3.76595 -6.1062,5.3553zM260.26813,189.69647c3.69797,1.30257 3.95298,4.12174 1.85201,7.47743c-1.80814,2.88798 -3.9284,5.7099 -7.15352,8.03444c-2.16546,1.56078 -5.30954,2.96597 -7.39248,3.75935c-2.32998,0.26821 -7.07792,-0.01195 -9.30887,-0.9486c-5.40037,-2.26732 -5.08223,-7.21805 -1.92583,-11.95577c1.66651,-2.50142 6.24946,-5.40031 12.15959,-6.63386c4.47662,-0.93435 10.74552,-0.09355 11.76911,0.267z" fill="#ff0000" stroke="none" stroke-linecap="butt"/><path d="M276.93751,239.3125c0,0 1.50605,0.10347 2.78362,0.19124c0.82413,0.05662 2.82539,3.65976 4.53819,3.77743c1.54532,0.10617 2.76284,-3.27584 4.31063,-3.1695c2.61319,0.17953 4.74256,0.32582 4.74256,0.32582c0,0 -6.96426,11.25 -9.625,11.5c-1.05663,0.09928 -10.25,-11.5 -10.25,-11.5z" fill="#db93e6" stroke="#db93e6" stroke-linecap="round"/><path d="M240.31252,245.6875l1.125,-6.25c0,0 6.25543,0.30564 9.34059,1.18054c2.16722,0.61458 6.90941,3.69446 6.90941,3.69446l-5,2.375z" fill="#ab164a" stroke="#ab164a" stroke-linecap="round"/><path d="M310.56251,226.34925v0.08825c-0.0037,2.35321 -0.97812,4.15459 -2.61925,5.80382c-2.86553,2.38352 -6.08382,3.91539 -9.24005,5.83638c-1.00752,0.61321 -3.41361,2.37658 -4.59789,2.35858c-3.6219,-0.05505 -1.50269,-4.59794 -0.29301,-5.80762c4.52462,-3.62345 10.37711,-6.84589 15.70475,-9.13051c0,0 0.68936,-0.29544 0.9848,0.39392c0.07634,0.17813 0.08693,0.32997 0.06064,0.45719z" fill="#ab164a" stroke="none" stroke-linecap="butt"/><path d="M184.91307,240.15974l0.08463,-0.21159c2.94445,-3.30436 8.16821,1.10565 10.87138,3.03699c0.75237,0.60285 2.11071,1.54885 2.422,2.51661c0.56968,1.77105 -0.21995,4.38047 -2.5467,3.81153c-1.85382,-0.4533 -2.34696,-2.42536 -3.76622,-3.45484c-2.22756,-1.6158 -5.0657,-2.86966 -7.44734,-4.29865c0,0 -0.64312,-0.38587 -0.25725,-1.02899c0.18692,-0.31153 0.4342,-0.38161 0.6395,-0.37106z" fill="#feebf7" stroke="none" stroke-linecap="butt"/><path d="M192.3225,239.03883c-0.03007,0.22721 -0.15679,0.54112 -0.61586,0.61763c-0.7398,0.1233 -0.86309,-0.6165 -0.86309,-0.6165l-0.17432,-1.06144c0.01908,-2.71816 1.85473,-3.35563 4.2701,-2.55265c3.49691,1.16253 7.64807,3.60653 10.20286,6.15727c1.9281,2.56578 0.48961,6.08101 -3.05908,4.50526c-3.48069,-1.54555 -6.98898,-4.37004 -9.76061,-7.04957z" fill="#feebf7" stroke="none" stroke-linecap="butt"/><path d="M201.29795,237.06974c-0.18957,0.09693 -0.38129,0.09693 -0.38129,0.09693l-0.61667,-0.15c-1.94988,-1.58761 -1.5247,-4.62711 1.1415,-5.1698c3.25817,-0.66318 6.07713,0.83579 9.19644,1.7566c3.30536,1.52553 5.37763,7.02345 0.82327,7.39521c-3.55112,0.28986 -7.01196,-2.16173 -10.16326,-3.92894z" fill="#feebf7" stroke="none" stroke-linecap="butt"/><path d="M186.75002,261.83333c0.24092,0 0.40445,0.07739 0.51545,0.18245c0.17841,0.00546 0.35681,0.01093 0.53522,0.01639c2.5984,1.67583 4.74634,8.02146 0.47516,9.27603c-1.86014,0.54638 -5.03252,0.12962 -6.87329,-0.33032c-3.21382,-0.80302 -6.73766,-0.84327 -10.03292,-1.50898c-3.05588,-1.2141 -6.61965,-2.80372 -8.29624,-5.89534c-1.70677,-3.14728 0.77304,-7.07579 3.63841,-8.31407c0.19977,-0.12644 0.38786,-0.12743 0.54166,-0.08306c0.16397,0.02831 0.33986,0.11687 0.46557,0.33556l0.41647,0.51465c0.50998,1.25278 0.87048,2.94042 2.05303,3.78159c1.23783,0.88049 3.53526,0.8234 4.99444,1.03175c3.66459,0.52324 7.57762,0.39379 11.22658,1.05926c0.09151,-0.04089 0.20347,-0.06591 0.34044,-0.06591z" fill="#feebf7" stroke="none" stroke-linecap="butt"/><path d="M276.81251,277.6875c-7.997,0 -13.86167,-2.75195 -20.5121,-6.09554c-0.00892,0.0275 -0.01771,0.05507 -0.02638,0.08271c0,0 -0.23717,0.71151 -0.94868,0.47434c-0.71151,-0.23717 -0.47434,-0.94868 -0.47434,-0.94868c0.03343,-0.09621 0.06803,-0.19169 0.10378,-0.28645c-0.5278,-0.26614 -1.06157,-0.53501 -1.60268,-0.80556c0,0 -0.67082,-0.33541 -0.33541,-1.00623c0.33541,-0.67082 1.00623,-0.33541 1.00623,-0.33541c0.52395,0.26197 1.04058,0.5225 1.55127,0.78059c3.05972,-5.74192 10.58629,-8.51356 16.32996,-10.26402c3.56825,-1.07881 3.38428,-0.80007 6.76661,-2.33666c4.46716,-2.02942 3.14434,-0.52466 7.97939,-1.00816c0.33162,-0.00039 18.62069,-2.37593 18.62069,-2.37593c3.45308,0.00002 0.4706,-3.55582 3.322,-1.28033c0.85254,1.0544 2.6349,3.37628 3.83347,4.8267c1.58319,-3.05028 1.49165,-7.75463 1.89079,-11.37919c0,0 0.08282,-0.74541 0.82824,-0.66259c0.0632,0.00702 0.12045,0.01881 0.17229,0.0345c0.61047,-0.23496 0.9157,0.3755 0.9157,0.3755c0.98495,1.96991 2.46837,3.90618 3.05672,6.02825c1.59798,5.76361 -2.09297,11.78961 -5.39178,16.19245c-3.14651,4.01951 -6.92251,6.47265 -11.64193,8.33923l-0.96277,0.14294c0,0 -0.43179,0.06168 -0.68384,-0.23831c-8.00824,0.09381 -15.72844,1.74585 -23.79723,1.74585z" fill="#ab164a" stroke="none" stroke-linecap="butt"/><path d="M273.986,230.07625c0.0352,1.17236 5.7277,7.43419 4.46407,8.31597c-0.27927,0.13929 -0.64534,0.36828 -1.06667,0.63938c-1.80421,1.16089 -4.62176,3.09383 -5.97621,2.06122c-0.64789,-0.49394 -0.13432,-3.83738 -0.09318,-4.45256c0.23166,-3.46386 0.81343,-6.55333 1.6459,-9.88467c0,0 0.1819,-0.72761 0.90951,-0.54571c0.50785,0.12696 0.02611,0.85323 0.11658,3.86637z" fill="#ab164a" stroke="none" stroke-linecap="butt"/><path d="M318.16668,248.25c0,-0.75 0.75,-0.75 0.75,-0.75h0.16667c2.32214,0.02359 4.09187,1.53514 5.86366,2.88634c1.0965,1.54504 0.71967,3.50829 0.71967,5.36366c0,5.78905 -2.99093,13.39951 -8.04022,16.81535c-6.33451,3.17256 -12.8874,5.92044 -19.66399,7.90393c-2.55022,0.74644 -4.65917,1.69108 -7.37912,1.69739c-9.11925,0 -17.53636,-0.56204 -26.49269,-2.03799c-7.54094,-1.24276 -18.04673,-6.48582 -16.24502,-15.68055c0.2786,-1.67158 0.69464,-4.51915 2.04071,-5.72845c0.81875,-0.73557 1.92324,-1.18996 2.81805,-0.05681c0.5831,0.73841 0.04022,3.28017 -0.04027,4.149c-0.24559,2.65098 0.0359,4.99776 2.41916,6.43292c7.41303,2.96521 13.63673,5.46293 21.95346,4.42333c7.3428,-0.01017 15.50625,0.18677 22.44231,-2.61746c6.30175,-2.35806 11.67594,-6.6549 16.70244,-10.96774c0.14721,-2.65582 1.36236,-5.0947 2.551,-7.4735l0.10354,-0.25942c-0.23808,-1.21203 -0.49937,-2.43457 -0.50269,-3.60001c0,0 0,-0.00063 0.00002,-0.00185c-0.09695,-0.11049 -0.16668,-0.26945 -0.16668,-0.49815z" fill="#feebf7" stroke="none" stroke-linecap="butt"/><path d="M248.41669,269.75c0,0 13.07066,16.86133 53.81477,5.39237c7.58291,-2.13449 15.23217,-8.45693 19.36723,-14.28468c3.04585,-4.29267 2.65133,-9.94103 2.65133,-9.94103c0,0 0.80965,2.54918 0.98506,4.65402c0.20793,2.49512 0.18161,9.34598 0.18161,9.34598l-7.33333,8l-19.33333,7.16667l-22.83333,2.16667l-14.83333,-2.33333l-8,-4.33333z" fill="#db93e6" stroke="#db93e6" stroke-linecap="round"/><path d="M245.14618,252.41235c1.94765,-0.81731 2.63489,-1.68501 4.21865,-3.09148c0.41224,-0.3661 1.61224,-1.38029 2.23421,-1.27146c1.63452,0.286 1.83194,1.83177 2.43624,2.99378c0.17311,0.33287 1.34957,2.26673 1.32966,2.68074c-0.05639,1.17276 -1.20461,1.96255 -1.94237,2.63497c-1.94344,1.77131 -3.57959,3.80042 -5.64258,5.47888c-4.40616,2.31336 -10.52058,1.98025 -15.38767,2.10364c-2.7847,0.07059 -5.46893,0.47347 -8.25832,0.20936l-0.72085,-0.11383c0,0 -0.59241,-0.09482 -0.63273,-0.64469c-3.66822,0.24008 -7.23474,0.92545 -10.72484,2.26898c-3.3066,1.31913 -6.29531,3.32709 -9.58239,4.6663c-3.54092,1.44263 -8.24904,1.6355 -12.02484,1.6355c0,0 -0.29094,0 -0.51041,-0.18121c-0.34631,0.0366 -0.61519,-0.23228 -0.61519,-0.23228l-0.52588,-0.52949c-0.8588,-0.6116 -3.55265,-4.08904 -4.13627,-5.00894c-0.22282,-0.35121 -0.31284,-1.86729 -0.31618,-1.96404c-0.00916,-0.26532 0.63351,1.44936 0.97697,0.77664c0.12492,-0.24468 0.21026,-1.69047 0.21026,-2.09021c0,0 0,-0.75 0.75,-0.75c0.2535,0 0.42131,0.08568 0.53241,0.19912c1.69479,-1.17795 4.57158,-0.63626 6.55095,-0.63626c4.56533,0 9.60505,0.70757 13.85998,-1.26776c4.85369,-2.11028 9.7124,-4.35026 14.73618,-6.02708l0.1205,-0.13849c0,0 0.6,-0.45 1.05,0.15c0.02957,0.03943 0.05461,0.07821 0.07558,0.11626c7.20604,-0.01724 14.89542,-0.58044 21.93891,-1.96695z" fill="#db93e6" stroke="none" stroke-linecap="butt"/><path d="M203.15281,248.14985l-0.49971,-0.65919c0,0 -0.06921,-0.09228 -0.14365,-0.24484c-0.40554,0.04573 -0.90191,-0.06374 -1.31377,-0.6521c-0.86019,-1.22885 0.36865,-2.08904 0.36865,-2.08904c0.47619,-0.33333 0.95238,-0.66667 1.42857,-1l0.68125,-0.41242c0.06714,-0.04515 0.14108,-0.08828 0.22241,-0.12895c0.43796,-0.21898 0.80444,-0.22351 1.09944,-0.13026c0.29894,0.07971 0.60569,0.28028 0.85762,0.70016c0.06698,0.11163 0.11845,0.21938 0.15661,0.32309c0.50921,1.1648 0.74831,2.46536 0.77143,3.73437v0.49322c0.06221,0.30316 0.03835,0.66518 -0.21673,1.02668c-0.13983,0.2533 -0.36989,0.4981 -0.74839,0.61796c-0.36378,0.15903 -0.69811,0.1263 -0.97015,0.02775c-0.43002,-0.10409 -0.68636,-0.36083 -0.83918,-0.62994c-0.28481,-0.3255 -0.56962,-0.65099 -0.85442,-0.97649z" fill="#db93e6" stroke="none" stroke-linecap="butt"/><path d="M213.46799,236.10616c0.37461,-0.1873 0.69692,-0.21771 0.96693,-0.16424c0.27016,0.05274 0.55696,0.20292 0.83275,0.51812c0.17045,0.1948 0.27788,0.38541 0.33895,0.56746c0.51315,1.00626 1.28057,2.41413 1.17314,3.49596c-0.15263,1.53703 -1.33136,3.96352 -3.17496,4.24627c-1.98147,0.30389 -4.19743,-0.7674 -4.26009,-2.93373c-0.27936,-0.1241 -0.54804,-0.36647 -0.73337,-0.81127c-0.57692,-1.38462 0.80769,-1.96154 0.80769,-1.96154c0.95239,-0.37663 1.84078,-0.97396 2.55215,-1.71075l0.96381,-0.84424c0.12583,-0.14732 0.29874,-0.2849 0.533,-0.40203z" fill="#db93e6" stroke="none" stroke-linecap="butt"/><path d="M200.06739,250.73352c0,0.80434 -0.63309,1.46082 -1.42815,1.49831c-0.19495,0.09268 -0.41305,0.14455 -0.64327,0.14455c-0.82843,0 -1.5,-0.67157 -1.5,-1.5c0,-0.11462 0.01286,-0.22624 0.03721,-0.33349l-0.71409,-0.4138c-0.38568,0.14241 -1.29888,0.34088 -1.85424,-0.67729c-0.71828,-1.31684 0.59857,-2.03512 0.59857,-2.03512c0.52381,-0.28571 1.04762,-0.57143 1.57143,-0.85714l0.61334,-0.30773c0.00184,-0.00093 0.00369,-0.00185 0.00554,-0.00278c0.46595,-0.23297 0.85098,-0.22321 1.15511,-0.11122c0.3105,0.09288 0.62438,0.3161 0.85735,0.78204c0.04117,0.08233 0.07475,0.16214 0.10154,0.23941c0.36578,0.78718 0.99881,1.54217 0.8946,2.38596c-0.00944,0.07643 -0.02597,0.14989 -0.04862,0.22077c0.22068,0.26119 0.3537,0.59882 0.3537,0.96752z" fill="#db93e6" stroke="none" stroke-linecap="butt"/><path d="M200.47827,236.09065c2.88157,0.25897 5.04646,1.73301 6.72965,2.70855c2.32874,1.34968 5.24262,7.44185 7.57147,3.04386c1.54126,-2.45248 -0.38975,-4.98769 -2.63752,-6.35166c-0.69977,-0.42462 -8.59553,-2.16242 -9.67383,-2.14817c-3.47074,0.04585 -2.46935,2.58946 -1.98977,2.74742zM213.20821,233.79938c1.47271,0.89867 4.61627,3.96661 4.98749,6.31166c0.35596,2.24868 -2.33989,4.78006 -2.51814,4.99309c-3.61137,4.31585 -6.12604,-1.73354 -8.86872,-3.27922c-0.87322,-0.49212 -1.87472,-1.53581 -2.80384,-1.79684c1.91007,1.68044 3.09138,3.01897 3.81875,4.68542c0.76348,1.74918 0.07258,4.44963 -1.77493,6.33345c-0.36123,0.16866 -0.97343,0.47004 -1.56378,0.08429c-1.38214,-0.90313 -3.01792,-3.33194 -3.71167,-3.97434c-0.56095,-0.51943 -1.12635,-1.04628 -1.69855,-1.5725c1.27725,1.92102 2.13203,3.96727 1.64287,6.55452c-0.32958,0.90704 -1.53095,1.49169 -2.66204,1.58696c-0.75138,0.06328 -1.47174,-0.13596 -1.88491,-0.43115c-2.41957,-1.7287 -3.7553,-4.32578 -5.52574,-6.6347c-0.88508,-1.15427 -3.09225,-3.44522 -4.5488,-4.0556c-5.08009,2.15301 -12.70211,5.28125 -14.81262,7.87022c-0.93359,1.14524 -1.24014,4.12888 -0.60947,5.65501c0.34075,0.82456 1.1326,0.99196 1.81853,1.50907c3.38872,1.91613 24.55822,4.00524 29.82923,2.96773c2.65641,-0.52287 3.6552,-1.57886 6.25647,-2.36623l0.51995,-0.21331c0,0 0.21187,-0.08475 0.49078,-0.0913c1.42449,-0.7797 4.05094,-1.64427 5.716,-2.33111c2.1343,-0.8804 3.33202,-1.52726 5.24908,-1.95226c3.25729,-0.72212 5.61537,-0.48469 9.12558,-0.83267c3.87859,-0.38449 14.78973,-1.35186 16.32092,-2.34336c1.43703,-0.93053 2.70153,-2.87233 2.70153,-2.87233c-2.51003,0.41133 -4.59147,-0.01568 -6.75839,-0.01568c-0.64618,-0.04719 -1.37182,0.17245 -1.93854,-0.14156c-0.13786,-0.07638 -0.2516,-0.19452 -0.34459,-0.3459c-0.22516,-0.10128 -0.44396,-0.2188 -0.6547,-0.33717c-0.23246,-2.3748 -0.19201,-4.06592 0.42407,-5.8996c0.20069,-1.06095 1.13068,-3.21758 2.35995,-5.08295c0.06366,-0.20319 -1.68426,-0.16216 -1.28569,-0.35176c0.30202,-0.14367 2.30046,-0.81924 2.72508,-0.87772c0.3407,-0.20925 0.71443,-0.38238 1.12453,-0.50956c0.4636,-0.14377 0.96008,-0.2481 1.48016,-0.31874c-1.97943,-2.38207 -4.09314,-6.88431 -8.54006,-8.28295c-0.31638,-0.09951 -1.44472,-0.19106 -2.05912,0.39111c-0.77351,0.73291 -1.10469,2.26776 -2.16023,3.20997c-2.55389,2.27966 -4.20136,3.89143 -4.73045,3.88879c-0.00432,0.14008 -0.24599,2.51515 -1.47684,3.19566c-2.75741,1.52449 -7.92189,1.85117 -8.3645,1.32004c-0.38877,-0.46651 3.40544,-2.03587 5.47797,-3.24344c1.34035,-0.78096 1.27308,-1.35771 1.20404,-1.56509c-0.01173,-0.02916 -0.02191,-0.05794 -0.03074,-0.08594c-0.00216,-0.00564 -0.00435,-0.01128 -0.00656,-0.0169c0,0 -0.00449,-0.01346 -0.01079,-0.03772c-1.63809,-2.55864 -4.26619,-7.57176 -9.54988,-9.42454c-4.50012,-1.57801 -11.7161,-0.24566 -13.37449,0.18582c-3.85618,1.0033 -6.53746,2.57372 -2.92917,6.57963c0.25029,0.25014 0.50059,0.50027 0.75089,0.7504l0.59914,0.45621c0,0 0.05876,0.0457 0.13175,0.1282c0.13971,0.00106 4.04245,0.14912 6.29918,0.47089c2.89844,0.41326 4.43492,1.11308 6.14402,2.15599zM191.90827,237.61979c3.78924,2.05529 5.42701,2.90539 8.55733,5.81965c0.09354,0.08708 3.91719,5.73504 5.169,5.27662c1.47689,-4.43434 -4.59562,-9.08196 -8.02311,-11.0982c-2.36116,-1.38896 -4.81143,-3.13371 -5.70323,0.00192zM189.6199,235.38089c0.64658,-1.17146 1.20452,-1.77103 2.7942,-2.18769c1.0814,-0.28343 3.17749,-0.48223 4.01138,-0.71883c0.94652,-0.26855 0.73949,-1.17743 0.65684,-1.26014c-0.54021,-0.60067 -0.39404,-1.22904 -0.82538,-1.91382c-3.20811,-2.48051 -0.67771,-5.00994 0.31315,-5.98807c0.59822,-0.59053 1.85412,-0.92995 1.85412,-0.92995c0.38263,-2.30169 0.81068,-5.15815 1.54999,-7.3749c0.77229,-2.00795 1.74653,-5.66927 3.5104,-7.08893c1.12008,-0.9015 2.29423,-0.66921 3.53597,-0.51225c3.79986,0.48032 7.9656,3.01964 11.32911,4.85182l0.17107,-0.21994c0.36473,-0.48183 0.67883,-1.00384 0.95183,-1.5434c-1.19772,-1.26155 -4.93207,-6.03501 -4.47333,-7.99104c0.81612,-3.47987 12.11736,-10.24088 14.8778,-11.89735c3.89803,-2.3391 8.55437,-4.33361 12.46424,-6.53174c-0.20287,-1.72555 -1.07876,-3.81594 -1.09126,-5.67468c0,0 -0.62195,-2.01941 0.69511,-3.99929c1.23702,-1.85957 4.87603,-4.52981 6.09615,-5.4691c5.04867,-3.88663 15.23097,-5.88161 21.50874,-5.88161c2.46839,0 7.36252,0.96466 7.58551,1.11283c1.72449,-1.40896 4.94561,-3.21608 8.69434,-3.87687c2.02127,-0.35629 5.34852,-0.02467 6.07038,0.08018c4.34673,0.63141 5.35691,4.5857 4.19291,8.40657c-0.27799,0.91253 -3.98884,6.31841 -3.58871,10.57633c0.4284,4.55874 5.3486,12.98177 5.44044,16.16378c0.07452,0.29269 0.0073,0.56067 -0.08846,0.76618c-0.08317,0.22832 -0.24026,0.48417 -0.53693,0.6362l-0.46046,0.40283c-1.27484,0.63742 -2.38124,1.29725 -3.71542,1.59015c-0.00257,0.04352 -0.00616,0.06859 -0.00616,0.06859c-0.60906,4.19232 -0.26416,6.58975 2.33865,9.84235l0.42281,0.19586c0.23147,0.07789 0.43265,0.2217 0.58122,0.40912c0.1046,0.12224 0.2063,0.28048 0.25935,0.4712c0.61054,0.32943 0.61054,1.10469 0.61054,1.10469c0,0.46667 0,0.93333 0,1.4l-0.08192,0.38076c0.08567,0.0688 0.16705,0.15606 0.24067,0.26589l0.63131,0.65997c1.74077,2.62017 3.44734,5.3449 5.00987,8.09831c0.14718,-0.10818 0.40432,-0.25916 0.71357,-0.27938l1.10363,-0.2683c2.81982,-0.69349 3.66884,0.16185 4.88185,2.29575c1.84579,3.24708 2.3025,4.96871 1.1928,7.13257c-1.28702,2.50961 -4.59234,4.41687 -7.10603,6.13385c4.41629,1.68682 7.22162,3.41047 11.00158,6.68035l3.32781,2.11356c2.1227,1.06074 5.69561,3.21084 7.81872,4.27239c0.3528,0.09371 0.56085,0.31295 0.68354,0.53893c0.14725,0.2108 0.2503,0.49493 0.17634,0.85239c0,3.64952 0,7.41574 0,11.06116c0,1.45108 0.25878,3.24315 -0.35066,4.61644c-1.84228,4.15141 -8.35283,7.70775 -12.30183,9.2908c-8.64337,3.59956 -17.37437,7.04262 -26.74887,7.43271c-18.73179,0.51232 -23.50231,-1.46882 -25.30522,-2.12192c-4.6549,-1.15876 -10.00798,-3.9183 -13.55231,-7.45916c-2.60543,-2.60287 -2.98083,-7.30664 -2.25506,-11.19193c-2.15142,0.91906 -4.4515,1.03321 -6.89182,1.27729c-0.40523,0.04053 -0.81002,0.08026 -1.21445,0.11906c-6.23392,1.39906 -13.19377,2.1174 -19.48828,1.75116c-0.23677,0.44632 -0.794,0.50445 -0.794,0.50445l-1.40238,0.14553c-3.30497,0.61014 -5.83096,1.5709 -10.20086,3.07297c-3.49961,2.17795 -6.06791,2.82796 -10.51333,3.31624c-6.35259,0.69777 -13.46953,0.40594 -19.45036,-0.98119c-1.86598,-0.43277 -2.64793,-0.8217 -4.30468,-1.31857c-2.52338,-0.77603 -5.7746,-1.25308 -7.80833,-3.46805c-0.63824,-0.69511 -1.88261,-3.43712 -2.40816,-4.59612c-0.7568,-1.66898 -0.60862,-1.90985 0.05259,-3.6535c0.38679,-1.01998 1.59708,-2.35183 2.21075,-3.29508c0.77032,-1.18403 1.75826,-2.18697 2.82021,-3.10108c0,0 0.31615,-0.90914 0.88143,-1.86498c0.44102,-0.74573 1.10485,-1.51989 1.42332,-1.91289c2.93847,-3.62616 12.71514,-8.83181 12.71514,-8.83181c0,0 -0.07514,-2.2252 1.96155,-3.36513c0.96422,-0.53967 2.30094,-0.30927 4.37831,-0.36978c0.86594,-0.02523 1.15718,-0.81779 1.22342,-0.95277zM185.65352,240.18994c4.99712,1.97897 6.55255,4.53491 9.9752,8.52688c0.67593,0.78835 3.07782,4.20904 3.61477,2.10172c0.01928,-1.57594 -0.9468,-2.48488 -1.82263,-3.69746c-1.64352,-2.27543 -4.0045,-5.33785 -6.53775,-7.04721c-0.02328,0.00377 -1.78677,-1.15755 -2.74923,-1.15226c-1.68518,0.00926 -2.48036,1.26832 -2.48036,1.26832zM304.68591,249.07051c2.58999,0.97232 4.9237,4.03731 1.0361,5.2823c-4.23525,1.35632 -8.92604,0.64851 -13.23803,1.52267c-5.73169,0.4804 -11.48915,1.50208 -17.03465,3.18713c-2.27359,0.69085 -7.57954,3.71731 -10.86893,2.40375c-1.50767,-0.60206 0.46236,-4.70246 0.64855,-5.11222c-0.20909,-0.02378 -0.93273,0.46701 -1.50275,0.51503c-3.28271,0.27654 -1.02169,-3.67338 -0.0913,-5.06044c-1.6706,0.0189 -3.27794,1.07706 -3.96573,-0.99842c0.27579,-1.17543 0.67708,-2.63165 1.44506,-3.9476c0.62622,-1.07304 1.56328,-2.05281 2.32506,-2.71105c-0.28658,-0.13476 -0.45257,-0.38375 -0.45257,-0.38375l-0.5362,-0.80856c-0.7824,-1.37345 -1.77451,-2.38003 -2.31079,-3.87436l-0.09404,-0.21222c-3.96323,-1.55871 -9.26647,-3.17943 -13.35192,-3.15957c0,0 -0.47086,0.00001 -0.8346,-0.28898c-2.82546,0.85585 -4.18555,3.23424 -4.67508,6.15913c-0.17776,1.06212 -0.66179,2.93996 -0.30514,3.90649c0.10879,-0.02663 0.18982,-0.02663 0.18982,-0.02663h0.625c0.34951,0 0.69772,-0.00566 1.04483,-0.01599c-0.07715,-0.3212 -0.02056,-0.60415 -0.02056,-0.60415c0.58651,-2.14449 0.79817,-2.97188 4.22573,-2.55031c3.09605,-0.25149 2.78591,2.14744 2.28954,2.64721c1.43571,-0.12687 5.52659,-0.08331 5.08546,0.52324c-0.54546,0.75 -1.25627,0.75302 -1.50862,0.75867c-0.05537,0.02814 -0.11135,0.05571 -0.16789,0.08272c1.18075,2.11461 2.39192,4.44576 3.23784,6.6825l0.06925,0.20666c0.12288,0.19953 0.13848,0.4142 0.11825,0.59044c-0.00419,0.15164 -0.03828,0.3274 -0.14178,0.48779c0.03163,0.2062 0.00183,0.37011 0.00183,0.37011c-0.42329,2.32634 -0.91062,3.88516 -2.45329,5.69693c-0.21066,1.80635 -0.38909,3.84235 0.14267,5.31792c0.55166,1.53075 2.20169,2.22344 3.47336,2.98649c3.69181,2.21524 7.89954,2.82057 12.07287,3.71418c6.16992,0.87873 12.06544,0.81142 18.14362,-0.49167l0.51191,-0.02775c0,0 0.05732,0 0.1474,0.01227l0.6238,-0.13295c5.85015,-0.48749 12.38252,-2.40607 17.56338,-5.18748c5.08647,-3.71149 12.77806,-8.34598 10.70701,-15.87213c-0.1484,-0.53928 -2.87718,-4.61278 -6.07899,-7.25952c-3.65827,-3.02406 -8.01736,-4.6576 -11.29309,-5.2022c0,0 -1.23299,0.43086 -1.02749,-0.80213c0.2055,-1.23299 3.79656,-2.92246 4.69682,-3.50468c-0.59203,-0.09848 -0.58883,-0.43122 -0.58883,-1.05119c0,-0.22846 0.06129,-0.44261 0.16833,-0.6269l0.61397,-1.10515l0.04014,0.0223l0.03012,-0.13437c1.31128,-1.50691 3.43658,-4.15496 4.99992,-0.83362c0.16096,-0.21864 0.30354,-0.44177 0.42449,-0.66962c1.36384,-2.56936 -0.79136,-6.10057 -3.78363,-5.3236c-0.02351,0.0061 -2.43989,1.68359 -3.74222,2.91306c-1.72002,1.62379 -2.51174,3.00741 -3.30622,4.07368c-2.55899,3.4344 -3.00653,4.7782 -5.41473,7.16259c2.68625,0.44223 4.65118,1.77308 5.80656,4.8426l0.06367,0.97612c0,0 0,0.08126 -0.02317,0.19746c0.09127,0.0378 2.74347,0.68114 3.17873,0.91464c2.32581,1.2477 3.06117,3.82311 3.06117,3.82311zM275.039,257.158c5.65248,-1.72045 11.32111,-2.77907 17.16535,-3.26288c3.14302,-0.62058 6.46475,-0.52209 9.65438,-0.8787c0.65103,-0.07279 3.54981,-0.1655 3.86784,-0.55086c0.31095,-0.37679 -2.22758,-2.10496 -4.29444,-1.94684c-7.38004,0.56459 -19.31695,1.80099 -22.87052,2.34486c-2.04253,0.3126 -8.53217,1.6999 -11.43188,3.6313c-1.43923,0.95862 -1.33751,3.20494 -1.35233,3.62952c3.01668,-0.29109 6.33491,-2.0756 9.26162,-2.96641zM287.39632,242.99135c3.09142,-0.03423 5.52222,-0.24326 8.57324,0.50534c-1.12324,-2.84305 -3.13719,-2.6916 -5.95889,-2.75579c-1.09472,0.94944 -1.1475,1.43086 -2.61435,2.25045zM268.41942,250.20329c-0.76214,0.53144 -4.88643,3.06726 -3.6663,3.86855c3.60349,-0.42899 12.68821,-3.04071 16.2042,-3.58496c6.57118,-1.01718 7.87293,-1.55157 14.56187,-1.55157c1.23859,0 2.65253,-0.2856 4.01398,-0.30029c0.91733,-0.0099 1.81081,0.32161 2.61077,0.12004c-0.41037,-0.80941 -1.46454,-2.68545 -3.51942,-3.23022c-2.07988,-0.55139 -9.36405,-1.2235 -15.92862,-0.27463c-6.42421,0.92858 -12.12965,3.45612 -14.27647,4.95307zM277.61949,239.79593c-3.26621,0.96898 -8.5491,3.36236 -12.08268,5.86811c-1.82067,1.29108 -3.03002,1.95092 -3.56765,3.84626c-0.13126,0.44914 3.35688,-0.64174 3.98866,-0.64975c6.27975,-3.12456 9.73505,-4.25863 15.26618,-5.39294c-1.21871,-0.97511 -2.47026,-2.14943 -3.60451,-3.67168zM218.18752,262.84659c2.7458,-0.27272 18.30476,-0.88601 22.79772,-1.72843c0.83819,-0.30005 1.79967,-0.31943 2.68073,-0.48504c1.98969,-0.67284 3.71975,-1.44193 5.24352,-3.0386c0.94049,-1.55786 1.78193,-2.86691 3.57414,-3.8177c0.233,-0.12361 0.90253,-0.66388 1.03496,-0.69051c-0.61649,-1.59376 -1.06814,-2.97974 -1.91272,-4.53956c-0.16948,0.35215 -0.47498,0.55582 -0.47498,0.55582l-0.24525,0.15066c-1.19287,1.03977 -1.10418,0.4865 -1.74793,1.09694c-0.75782,0.71859 -2.25007,2.55882 -3.93485,3.3199c-4.0291,1.10666 -11.14651,1.22205 -15.25755,1.63537c-2.77961,0.27946 -8.27675,-0.05808 -10.88348,0.42017c-1.26209,0.23155 0.14713,0.56875 -0.811,0.98955c-2.07309,0.91049 -5.3743,2.21242 -7.94315,3.68266c0,0 -6.10255,2.10179 -8.89088,2.66621c-4.72857,0.95716 -23.09821,-0.65679 -30.99026,-2.97789c-2.24669,-0.66077 -3.56073,-3.49198 -3.57167,-3.58076c-0.4862,0.4955 -0.8434,0.30165 -1.21908,0.88576c-0.57615,0.8958 -1.37917,1.45443 -1.76653,2.40947c-0.20288,0.50021 0.8426,2.45205 1.72719,3.55862c1.98129,2.4785 3.80087,4.09687 6.06345,4.79189c10.1231,3.0379 24.43755,3.69039 32.98164,-0.75625c2.6627,-1.33222 10.1807,-4.21401 13.54597,-4.54826zM232.55745,218.78696c0.34877,-0.93721 6.13673,4.19659 6.21635,4.42674c3.24138,0.77023 6.79176,4.73192 8.52107,7.33992c0.23057,0.34773 1.19191,2.02677 1.29218,3.07034c4.07162,0.18173 8.55521,1.579 10.12441,2.12269c-0.87809,-3.39893 1.32137,-5.47899 4.23333,-7.05134c0.80858,-0.7241 2.71708,-1.67147 5.13324,-2.52347c1.98503,-0.69997 5.55861,-1.44882 6.06059,-1.67604c0.83698,-0.37886 1.15183,4.56274 1.39886,5.37744c0.56624,1.86741 4.47979,8.88329 7.65966,11.88058c2.73588,-0.1419 4.84141,-2.04594 6.60888,-3.90871c2.91473,-3.07189 4.9101,-7.0346 7.29703,-10.19908c1.16715,-1.54735 2.68505,-2.81199 4.15613,-4.10506c-1.56083,-2.7934 -3.28495,-5.5761 -5.05395,-8.2301c-1.34109,0.66774 -2.58387,1.52604 -3.94617,2.20719l-0.16918,0.0846c-0.23527,0.19716 -0.5073,0.251 -0.73774,0.24964c-0.2319,0.02069 -0.51077,-0.01122 -0.76366,-0.19303c-3.8134,-1.58993 -7.23221,-4.27232 -10.79864,-6.31811l-0.43039,-0.14092c-2.56061,2.11921 -5.44605,5.02536 -8.69626,8.29316c0,0 0.08985,-1.35033 0.5321,-2.33273c0.1225,-0.27212 0.21302,-0.78239 0.24444,-0.85601c-0.99768,0.4193 -3.53991,1.30782 -5.59786,1.69653c-7.55594,1.42719 -19.33485,1.6461 -29.68022,-0.23396c-6.24409,-1.13473 -12.95517,-4.44764 -15.18154,-5.85707c-0.26263,0.4646 -0.55181,0.91469 -0.86991,1.34205l-0.67177,0.86376c-0.18171,0.27862 -0.40712,0.39313 -0.61938,0.42664c-0.20861,0.05239 -0.46114,0.03528 -0.73781,-0.15034c-2.27806,-1.26942 -7.26337,-3.39142 -10.53368,-4.20999c-1.50746,-0.37732 -2.89284,-0.1748 -3.04736,-0.02583c-1.36187,1.31301 -1.9914,3.83112 -2.64345,5.52645c-0.69418,2.08365 -1.08823,4.02947 -1.45001,6.19433c0,0 9.9507,-3.10665 13.50735,-2.52636c6.24024,1.01814 11.61155,9.79665 13.32141,12.45947c0.28528,-0.32917 3.1706,-2.65245 4.79016,-4.5469c0.49335,-0.57708 1.19913,-2.35147 1.26026,-2.45032c0.59189,-0.95716 1.37883,-1.47769 2.28695,-1.68761l-0.01539,-0.01522c0,0 -3.16165,-3.88893 -3,-4.32331zM275.67929,236.52456c-1.42392,-3.07668 -2.32524,-7.46678 -2.41822,-8.15865c-0.02451,-0.18237 -0.0307,-0.4654 -0.01919,-0.75851c-0.19072,0.1449 -1.85145,-0.09187 -2.40578,0.10205c-1.02632,0.35904 -2.36794,0.82515 -3.67302,1.2209c-3.79627,1.49817 -8.26594,3.1174 -5.96182,7.72427c0.17037,0.06504 0.33889,0.12995 0.50543,0.1946c0.32508,0.0423 1.11207,0.24715 1.11207,1.23898c0,0.54678 -0.23917,0.85439 -0.50829,1.02744c0.50337,1.00537 1.29821,1.8422 1.87653,2.85143l0.4638,0.69143c0,0 0.11948,0.17921 0.16436,0.42675c3.48518,-2.43683 8.10449,-3.944 11.65849,-5.02954c-0.27808,-0.48043 -0.54385,-0.98985 -0.79437,-1.53115zM319.2772,250.0185c2.39157,8.82382 -3.05854,13.66111 -10.15662,17.71878c-5.51768,2.97876 -14.08431,5.9517 -20.32299,6.47161l-0.95764,0.22455c0,0 -0.26969,0.05993 -0.58367,-0.00335c-6.19754,1.25417 -12.23445,1.29094 -18.53197,0.38869c-5.32448,-1.14173 -15.17717,-2.19732 -17.45378,-8.29932c-0.51135,-1.37057 -0.53533,-3.06682 -0.42,-4.73422c-0.02294,-0.51471 -0.03121,-1.03972 -0.03166,-1.57527c-1.41665,1.59471 -1.84042,3.57402 -2.14122,5.30712c0,0 -0.00673,0.03697 -0.02473,0.09528c-0.01382,0.05261 -0.03231,0.10944 -0.05706,0.16733c-0.10466,2.50072 0.28102,3.97159 1.7659,5.45871c3.24248,3.24739 7.99629,6.58871 12.24314,7.65447c1.08107,0.39434 13.26608,2.55772 25.57929,1.52948c10.4731,-0.87457 20.37745,-5.1257 24.52571,-6.85505c2.76562,-1.10366 10.6506,-7.23637 11.40272,-8.86828c0.60566,-1.31414 0.33116,-2.33024 0.33116,-3.73584c0,-3.03415 0,-6.06831 0,-9.10246c-1.82978,-0.91489 -3.65654,-1.8283 -5.48577,-2.74341c0.12643,0.29624 0.23645,0.59589 0.31919,0.90115zM293.74091,194.8547c0.12127,-0.48507 1.06788,0.09774 1.06788,0.09774l0.59361,0.1586c0.01074,0.00782 0.02148,0.01565 0.03221,0.02347c-0.19556,-2.93166 -3.46365,-8.58104 -4.80027,-12.92112c-0.8771,-2.84801 -0.42851,-5.13221 -0.30879,-5.71471c0.52461,-2.55267 2.37358,-5.66922 3.13133,-8.09638c0.30385,-0.97324 -0.5649,-4.50549 -1.56153,-5.09485c-2.1173,-1.25206 -3.97876,-0.45598 -6.32621,-0.45936c-2.42457,0.22977 -4.05102,1.60094 -5.86115,3.10569c-3.33546,2.77273 -7.15222,5.99124 -11.04167,7.96058c-0.21279,0.43696 -0.6739,0.63458 -0.6739,0.63458c-3.31916,1.41637 -8.99125,2.58816 -13.62682,2.17216c-4.44547,-0.39893 -7.92764,-2.35852 -7.92764,-2.35852c-0.23042,0.31725 -2.45071,2.38351 -2.86104,2.60198c-0.27967,0.14891 1.38788,6.16452 1.80029,8.25943c0.21579,1.09611 -0.24445,1.50358 -0.24445,1.50358c-4.06748,2.35791 -9.14143,3.75034 -13.20977,6.19102c-3.79618,2.27742 -12.55075,6.99795 -13.81234,9.78484c-0.34883,0.77056 1.82909,4.61527 5.82027,7.36864c3.89547,2.68735 9.28012,4.53179 15.0257,5.50234c7.88899,1.33263 16.3496,1.4739 22.8513,0.69952c3.08621,-0.36758 5.82788,-1.42566 7.6776,-1.76104c1.65534,-0.30014 3.61349,-0.63668 3.61349,-0.63668c-0.05813,-3.67363 -1.23741,-8.00962 -0.42208,-11.73422c0.25694,-1.17377 0.40295,-4.14642 0.76373,-6.00487c0.547,-2.81777 1.28798,-4.4729 1.28798,-4.4729c-5.16245,-7.03978 -3.72708,-7.98138 -3.72708,-7.98138c3.10897,4.68955 9.16534,11.0458 14.43595,12.51359c2.04177,0.5686 4.48612,0.46242 6.57389,0.35672c0.86782,-0.04394 1.61392,-0.35794 2.34634,-0.7364c-0.11374,-0.08885 -0.68105,-0.70524 -0.61684,-0.96205zM280.81021,209.05887c3.45632,1.96929 6.76666,4.59412 10.43979,6.16817c1.18045,-0.59937 2.26495,-1.29574 3.40636,-1.91139c-0.01405,-0.23872 0.03096,-0.41881 0.03096,-0.41881l0.16268,-0.49683c0,-0.37736 0,-0.75472 0,-1.13208c-0.03298,-0.02012 -0.06495,-0.04171 -0.09582,-0.0647l-1.23027,-0.82235c-2.93111,-3.66495 -3.49892,-6.7235 -2.92953,-11.24683c-1.94828,0.06848 -3.51802,-0.24455 -5.29343,-0.76123c-2.72411,-0.79277 -4.24474,-2.2498 -8.92145,-4.93475c-1.25781,2.97922 -1.42507,15.19332 -1.16415,18.14541c0.92289,-0.9147 1.89778,-1.78419 2.92757,-2.6177c0.21267,-0.27015 0.48886,-0.37417 0.73615,-0.40449c0.24284,-0.05712 0.53843,-0.05491 0.83175,0.12577zM274.37991,166.69854c-2.66156,-0.69468 -5.33223,-0.64853 -8.07989,-0.64853c-5.90024,0 -16.57015,3.27822 -18.73228,7.06574c3.82202,2.06798 12.15454,2.54255 18.05453,0.41834c4.93668,-1.77738 7.75798,-5.97398 8.75763,-6.83555z" fill="#000000" stroke="none" stroke-linecap="butt"/></g><g><g><path d="M343.64053,155.54032c-0.34543,0.51815 -0.79842,0.49851 -1.09105,0.40995c-0.30898,2.54857 -2.71836,4.20585 -4.79938,5.7624c-1.43543,1.07366 -3.29642,1.36873 -4.90728,1.09185c-4.18676,-0.71962 -7.45653,-1.88123 -11.32475,-3.54742c-2.23311,-1.58442 -7.91174,-3.07619 -8.30258,-6.15333c-0.37955,-2.98821 3.34445,-2.91524 5.193,-2.91815c6.57364,-0.01032 12.65201,0.31165 19.0574,1.96262c1.77053,0.4571 3.45357,0.80226 5.13652,1.51823l0.76078,0.48709c0,0 0.83205,0.5547 0.27735,1.38675z" fill="#0f1b82" stroke="none" stroke-width="0.5" stroke-linecap="butt"/><path d="M313.82935,149.54943c0.14355,-0.76381 0.97913,-0.76381 0.97913,-0.76381h1.4c2.73987,0 5.46882,0.20207 8.2,0.2c5.33427,0 13.94879,-1.27842 18.24075,2.43225c2.19287,1.89587 0.49109,6.03769 -1.62753,7.27838c-0.81198,0.4755 -3.10866,0.01819 -3.9935,-0.12702c-8.29782,-1.70321 -15.76028,-2.90425 -23.13421,-7.32612c0,0 -0.85749,-0.5145 -0.343,-1.37199c0.0852,-0.142 0.1798,-0.24637 0.27836,-0.32169z" fill="#0066cc" stroke="none" stroke-width="0.5" stroke-linecap="butt"/><path d="M311.91549,141.56058c0.01671,-0.13741 0.08196,-0.28663 0.23118,-0.43585c0.53033,-0.53033 1.06066,0 1.06066,0l0.76549,0.81992c0.5834,3.33742 -0.16776,5.61264 -1.20631,8.6884c-0.73121,2.16556 -0.67597,4.83572 -1.24003,7.091c-0.60664,2.09829 -2.72887,6.33936 -5.13812,6.43c-2.35537,0.08861 -4.45056,-2.61082 -5.49169,-3.96867c-0.921,-1.20118 -3.89598,0.31295 -4.79987,-2.02501c-0.1608,-0.41592 -0.02688,-0.89144 -0.04032,-1.33715c1.15339,-5.13047 6.27735,-7.10427 9.73554,-10.34309c1.93703,-1.81415 3.94305,-3.3836 6.12347,-4.91955z" fill="#fddfbd" stroke="none" stroke-width="0.5" stroke-linecap="butt"/><path d="M306.21461,154.4512l0.20267,0.07399c-0.05219,0.1577 -0.11341,0.32387 -0.18091,0.49669c-0.04494,1.18332 -0.63228,2.32333 -1.32341,3.54342c-0.324,1.49893 0.04037,2.7132 2.51401,2.71475c0.56925,0.00036 1.13648,-0.09313 1.69585,-0.2039c0.12069,-0.05487 0.27217,-0.07715 0.45953,-0.0313c0.13846,0.02277 0.29816,0.08325 0.41878,0.22834c0.12901,0.13768 0.16921,0.30365 0.17464,0.44387c0.02335,0.20095 -0.0228,0.35346 -0.09843,0.46841l-0.12419,0.34169c-1.77142,3.09788 -4.57583,10.2569 -9.25972,6.32621c-0.05266,-0.0442 -1.95147,-2.05835 -1.98657,-2.09553c-0.98581,-0.82876 -2.88907,-1.95092 -3.35697,-3.21399c-2.08871,-5.63831 5.68811,-10.16407 9.96491,-11.6003c0,0 0.71151,-0.23717 0.94868,0.47434c0.08643,0.25927 0.04688,0.45556 -0.03831,0.60034c0.10129,0.10844 0.17078,0.24695 0.19362,0.40069l0.12297,0.73784l-0.1148,0.01914v0.22916h-0.21801c0.00199,0.0154 0.00387,0.03078 0.00566,0.04614z" fill="#f89587" stroke="none" stroke-width="0.5" stroke-linecap="butt"/><path d="M294.40594,101.22068c3.1456,4.60606 2.98501,12.76301 1.98847,18.1142c-0.98883,5.30977 -8.15574,13.83453 -10.02423,16.93464c-3.03177,5.03016 -3.48036,7.05472 -7.27257,10.30518c-4.28102,3.66944 -14.10683,0.24234 -19.17043,0.32224c-3.5481,0.05599 -7.40697,0.17696 -10.95501,0.23615c-7.64088,0.12747 -15.95572,0.21192 -23.59641,0.25256c-0.06913,0.00037 -4.19006,0.27559 -7.41245,-0.01079c-0.15378,-0.01103 -0.30644,-0.02616 -0.45785,-0.04527c-3.16624,-0.39964 -5.78985,-2.54098 -6.8808,-5.43397c-2.95945,-5.64183 -2.3577,-14.69911 -2.98401,-19.9743c-0.36154,-3.04503 -0.51904,-6.03963 -0.81004,-9.0709c-0.39778,-4.14358 -1.48581,-6.28862 -0.75,-10.70348c0.49794,-2.98761 -0.5581,-11.18109 1.42457,-12.31404l0.88827,-0.50758c4.84952,-5.5071 16.93681,-7.33069 22.52397,-8.64852c4.70604,-1.11 10.8221,-0.66384 15.27504,-0.77987c1.71941,-0.0448 3.15498,-0.96247 4.88816,-0.75c2.1943,0.269 4.65459,1.69155 6.7964,1.75c11.0729,0.30222 23.93192,2.02033 33.46401,7.73959l1.25,1.25c1.3159,1.3159 2.20234,3.06125 2.43108,5.00778c0.07114,0.36706 0.09165,0.71356 0.05838,1.05036c-0.00896,1.63084 -0.47721,3.15295 -1.28197,4.44354c0.21091,0.27106 0.4135,0.54849 0.60744,0.83246z" fill="#ff2d32" stroke="none" stroke-width="0.5" stroke-linecap="butt"/><path d="M291.14367,89.78215c0.33541,-0.67082 1.00623,-0.33541 1.00623,-0.33541l0.51459,0.27082c0.68068,0.51242 1.3061,1.09766 1.90884,1.69981c1.75598,2.19142 1.32852,3.04707 3.186,4.98478c1.50205,1.56692 4.46043,5.53007 4.98132,7.52783c0.86077,3.30132 1.86133,6.07944 3.36674,9.10057c0.69905,2.09717 1.76599,3.95946 2.05147,6.19537c0.16701,1.30809 0.05475,2.77303 0.55757,4.02751c0.847,2.11317 2.44087,3.8511 3.20471,6.01288c0.83081,2.3513 0.5043,5.02091 0.02506,7.41579c-1.10352,4.41883 -3.58045,7.11509 -6.81552,10.17955c-1.62249,1.53692 -3.45409,3.75446 -5.77438,4.19238c-1.2649,0.23873 -2.84463,0.01353 -4.14183,0.01353c-1.97863,-0.02345 -3.55147,-1.19521 -5.49164,-1.40562c-3.19022,-0.34598 -5.13066,-1.62775 -8.00616,-2.85604c-2.94321,-1.25722 -6.07189,-1.99837 -9.06124,-3.13043c-2.53395,-1.45433 -1.85575,-3.26938 -1.37867,-5.89312c0.72706,-3.99845 2.38771,-7.98544 2.38771,-12.06479c0,0 0,-0.03564 0.00777,-0.09137c0.00598,-0.05595 0.01463,-0.09052 0.01463,-0.09052l0.19332,-0.77082c0.57968,-3.41579 1.98708,-6.86352 2.80651,-10.22847c0.00011,-0.00047 0.00017,-0.00071 0.00017,-0.00071v-0.00001l0.20752,-0.82778c1.98599,-5.95797 3.02995,-11.62858 5.7557,-17.32532c-0.00975,-0.13348 0.02501,-0.25469 0.07054,-0.35239c0.03876,-0.1064 0.10427,-0.22275 0.21499,-0.31215c0.9169,-3.78448 4.51807,-5.66364 8.20024,-5.91994c0.00254,-0.00528 0.00514,-0.01059 0.0078,-0.01591z" fill="#ab164a" stroke="none" stroke-width="0.5" stroke-linecap="butt"/><path d="M210.66669,145c0,0 -2.77206,-20.12929 -3.72973,-36.66301c-0.58236,-10.05428 -1.33403,-18.77894 2.04268,-20.83888c18.93162,-11.54913 44.93022,-7.07231 57.68602,-5.76135c7.64048,0.78524 21.53881,3.69567 26.04829,8.77286c8.81674,9.92668 12.88316,21.43997 15.70287,29.79123c2.52758,7.48605 4.24986,12.36582 4.24986,12.36582l-3,10l-12.16667,10.08334c0,0 -34.27288,-14.08022 -49.82955,-14.80892c-24.72798,-1.15831 -37.00378,7.05892 -37.00378,7.05892z" fill="none" stroke="#000000" stroke-width="3" stroke-linecap="round"/><path d="M270.93751,143c0,0 2.61274,-26.72599 12.43944,-48.3852c1.83485,-4.04423 7.31056,-4.6148 7.31056,-4.6148" fill="none" stroke="#000000" stroke-width="1.5" stroke-linecap="round"/><path d="M213.9294,150.46935c2.71185,-5.18866 7.20794,-6.20176 12.71265,-7.57794c2.41386,-0.60346 4.90581,-1.47546 7.36633,-1.83579c6.93302,-1.01532 14.95537,0.80876 21.53408,2.83464c9.58281,3.60235 20.24097,5.89253 27.7935,13.13038c1.27985,1.25298 1.48712,1.86373 2.11939,3.50951c3.78328,9.8477 -9.3243,10.32961 -15.46832,12.96275c-5.85959,2.34419 -12.90323,4.10657 -19.23315,4.65516c-2.54483,0.22055 2.26624,-0.80831 -0.25854,-0.39177c-8.43231,1.05358 -25.00002,1.60296 -33.26963,-0.22575c-4.77375,-1.059 -10.14118,-2.60252 -14.15286,-5.49501c-3.5076,-2.52903 -3.2748,-6.06339 -0.38188,-8.86416c2.83719,-1.14258 5.57389,-2.48119 8.57528,-3.17657c0.69889,-0.16192 3.2182,-0.29117 3.78112,-0.96432c0.32549,-0.38924 -0.19375,-0.99615 -0.28506,-1.49526c-0.39243,-2.14523 -1.31955,-4.07218 -1.79443,-6.17251c0,0 -0.1627,-0.73214 0.56944,-0.89484c0.1549,-0.03442 0.28431,-0.02879 0.39208,0.00149z" fill="#fddfbd" stroke="none" stroke-width="0.5" stroke-linecap="butt"/><path d="M210.70001,145.19999c0,0 24.64145,-8.47063 37.84337,-7.28154c15.34203,1.38185 48.75663,15.08155 48.75663,15.08155l-1.6,9.4l-2.2,1l-9.8,4.4l-3.2,-6l-9,9c0,0 -8.95042,-18.65856 -10.97118,-19.08522c-2.02533,-0.42763 -16.82882,9.68522 -16.82882,9.68522l-1.8,-17.2l-28,10.8z" fill="#f89587" stroke="#f89587" stroke-width="0.5" stroke-linecap="round"/><path d="M305.48001,153.34696c-1.86225,0.83058 -3.90902,1.80427 -5.75715,2.73878c0.49345,1.7683 1.87517,4.16203 2.89992,5.88062c1.04133,-2.77558 2.55011,-5.7079 2.85724,-8.61939zM297.21666,157.42765c-0.54129,2.44975 -0.79704,5.2769 -0.79704,5.2769c1.17253,0.89646 6.71877,6.58496 7.83179,6.27599c2.27341,-0.63108 3.8666,-6.12804 4.76133,-7.9315c0.65831,-1.32692 1.18617,-2.61371 1.61568,-3.88502c1.45788,-4.31517 1.78276,-8.45203 2.23028,-13.37487c0.04874,-0.48272 0.55104,-1.67533 0.12112,-1.45047c-2.503,1.30909 -4.49411,3.30998 -6.66758,5.10366c-2.53296,2.09035 -6.31062,4.1872 -8.0977,7.04415c-0.22089,0.35313 -0.42034,0.84468 -0.59895,1.41353c0.7208,-0.12904 1.31801,-1.00309 2.06414,-1.39451c1.40065,-0.73478 1.91321,-1.52227 3.14227,-2.15274c0.23557,-0.12084 3.89794,-2.25072 4.19151,-0.59037c0.44452,2.51407 -2.58719,9.4706 -3.30198,11.61761l-0.27285,0.44411c-0.04276,0.12682 -0.1318,0.25454 -0.2969,0.36416c-0.1096,0.08277 -0.26132,0.15787 -0.44571,0.14955c-0.18457,-0.00046 -0.33257,-0.08269 -0.4381,-0.17058c-0.1486,-0.10919 -0.23066,-0.23089 -0.27091,-0.35098c-1.20709,-2.02294 -2.6716,-4.46537 -3.36677,-6.71078c-0.45921,0.15446 -0.92621,0.26672 -1.40364,0.32216zM316.2143,147.17857c6.52938,0 14.05495,-0.57293 20.43005,0.89058c2.41212,0.55374 5.76322,1.58694 6.88121,4.05805c1.03767,2.29358 0.5887,5.15305 -0.41277,7.13565c-0.99838,1.15769 -1.63002,4.73855 -3.06426,5.2052c-2.53921,0.82615 -7.96558,0.16445 -10.236,-0.72797c-5.13365,-2.01787 -11.99088,-4.69509 -16.31066,-8.1141c-0.68176,3.09956 -1.30801,4.24593 -2.59958,7.09918c-1.13011,2.49658 -3.14556,7.87721 -6.15368,8.72286c-2.10683,0.59228 -6.0127,-2.95485 -6.0127,-2.95485c-2.07436,-1.20653 -3.68571,-2.44478 -5.51368,-3.84916l-0.35248,0.19425c-3.70349,1.3167 -7.38682,3.78856 -10.87748,5.6635c-7.22592,2.90271 -15.17012,5.44221 -22.81596,6.86222c-3.73619,0.6939 -7.56417,0.91618 -11.26447,1.78183c-0.26783,0.37616 -17.89392,0.61061 -30.02655,-0.73848c-4.61375,-0.51303 -10.57158,-2.68071 -11.34183,-3.06568c0,0 -0.03087,-0.01543 -0.08089,-0.0463c-0.05162,-0.02812 -0.08033,-0.04727 -0.08033,-0.04727l-0.22511,-0.17185c-1.73341,-0.80088 -3.32883,-1.62811 -4.91774,-2.68529c0,0 -0.02445,-0.0163 -0.06421,-0.04775c-0.04145,-0.02919 -0.06402,-0.048 -0.06402,-0.048c0,0 -3.98243,-2.63253 -1.78824,-6.3642c0.5876,-0.99935 1.31063,-2.03986 2.36051,-2.79878c4.03173,-2.91438 10.92573,-4.13389 11.64599,-4.25692c-1.35901,-4.49769 -3.17136,-8.81207 -4.01951,-13.46411c0,0 -0.26833,-1.47581 1.20747,-1.74413c1.47581,-0.26833 1.74414,1.20748 1.74414,1.20748c0.92124,5.08164 3.04505,9.76297 4.39991,14.7308l0.02046,0.20804c0.01204,0.06468 0.02121,0.13293 0.02721,0.20493c0.04612,0.55341 -0.12972,0.91901 -0.3695,1.16001c-0.20974,0.2466 -0.5369,0.44481 -1.04719,0.46317c-0.87324,0.07256 -11.28435,2.18166 -12.98377,4.13411c-2.58872,2.97415 3.59369,6.24499 4.45245,6.59492c4.65112,1.89521 12.47484,3.88175 14.79879,4.06395c12.47293,0.97789 33.26083,-0.97861 37.06831,-1.68664c7.40376,-1.37678 15.08731,-4.17441 22.09381,-6.96384c3.5806,-1.93308 7.32978,-4.36098 11.12252,-5.76508l0.57374,-0.34653c0.35141,-0.30941 0.72301,-0.36825 1.04023,-0.32916c0.00538,0.00006 0.01078,0.00014 0.01619,0.00026c0.60825,-2.65965 0.73534,-6.07153 2.16793,-8.40139c2.30332,-3.74597 7.14894,-6.52332 10.4801,-9.24679c2.25326,-1.84221 7.18583,-8.16491 9.60037,-3.6008c0.41947,0.7929 0.08834,2.93472 0.13251,3.83065c-0.09801,1.07815 -0.17872,2.16438 -0.2604,3.25346zM330.45065,160.55988c1.68107,0.66008 4.15551,2.04928 6.07228,1.5435c0.84769,-0.22368 2.74927,-2.64118 3.36432,-3.36623c0.64126,-1.30199 1.94813,-4.20663 1.30152,-5.72149c-0.83141,-1.9478 -5.24076,-2.58404 -6.96799,-2.77312c-5.91545,-0.64756 -12.05371,-0.56396 -18.00646,-0.56396h-0.81628c-0.10532,1.22358 -0.22949,2.44573 -0.3983,3.65906c4.12823,4.0135 10.21332,5.1657 15.45091,7.22224z" fill="#000000" stroke="none" stroke-width="0.5" stroke-linecap="butt"/></g><g stroke-width="0.5"><path d="M240.92413,123.0626c0.10604,5.84731 -6.73729,4.75117 -10.62642,4.84112c-0.93043,0.02152 0.09794,1.99741 -0.4395,2.75723c-0.66214,0.93613 -1.51234,1.7622 -2.46713,2.39713c-1.7651,1.17377 -5.70035,-0.67433 -7.04333,-0.0537c-2.05289,0.9487 -3.27475,3.12185 -4.84372,4.75057c-2.82146,2.92891 -5.42597,6.06672 -8.32463,8.91925c-0.49012,0.48232 -2.71162,1.78324 -3.65528,1.5884c-2.64064,-0.54521 -16.32432,14.1196 -16,11.2c0.03516,-0.31649 0.99284,-3.16952 3.74388,-8.33637c3.25432,-6.11212 8.37921,-14.66339 8.319,-14.66363c-2.18391,-0.00848 -8.3145,-0.15219 -12.68938,0.06424c-4.16419,0.206 -6.6249,0.85109 -6.93425,-2.10727c-0.03976,-0.38023 6.5074,-8.94451 7.00273,-9.52752c4.56062,-5.36803 9.44026,-12.44703 14.54022,-17.28269c1.07965,-1.0237 6.14379,-6.28787 8.17824,-5.1466c0.01318,-0.0001 0.02638,-0.00015 0.03958,-0.00015c1.15685,0 2.22193,0.39288 3.06911,1.05249c0.57905,0.23435 1.07814,0.4575 1.41564,0.5973c5.46381,2.26319 10.56485,4.32439 15.79434,7.10611c1.07162,0.57003 3.80098,2.84991 3.93876,2.86131c0.83786,0.06932 -0.41128,-5.51129 2.34486,-10.65167c1.21954,-2.27452 7.40516,-7.03633 7.78367,-6.80335c1.38576,0.85295 -3.74638,20.85151 -3.74638,22.23781c0,0.56874 -0.09496,1.1153 -0.26989,1.62469c0.51202,0.83422 0.85551,1.78258 0.86989,2.57531z" fill="#66ffff" stroke="none" stroke-linecap="butt"/><path d="M245.72415,101.0626l5.8,18.2l8.8,20l-12,9l-1.4,-10.8l-6.6,0.6l-20.6,5.8l-9.2,3.8l0.8,3l-7.2,1.4l-7.4,3l-5.89353,2.33435c0,0 13.49809,-14.14433 18.81349,-19.41506c2.70968,-2.6869 11.53651,-10.88493 11.53651,-10.88493c0,0 -7.58643,1.35424 -11.03969,1.87659c-5.48734,0.83002 -19.31031,3.42341 -19.31031,3.42341c0,0 17.1231,-16.8455 20.2422,-17.66972c2.23625,-0.59093 28.3578,10.76972 28.3578,10.76972c0,0 -1.06848,-3.62861 0.06233,-9.11716c0.81064,-3.93461 6.08767,-20.73283 6.08767,-20.73283z" fill="#50a5eb" stroke="#50a5eb" stroke-linecap="round"/><path d="M232.93863,109.85859c0,0 0.03012,-0.21078 0.15981,-0.42392c0.28397,-1.21402 0.72993,-2.6996 1.43266,-4.20124c0.40575,-0.86704 1.83396,-2.81012 2.27113,-3.45808c3.64138,-5.39713 9.1332,-10.24566 9.49685,-8.2468c2.74862,15.10848 11.46613,38.95277 15.54534,45.12217c0.13429,0.12517 0.24224,0.30715 0.27226,0.57176c0.03796,0.1857 0.0361,0.4135 -0.09235,0.63383c-0.11208,0.2291 -0.30059,0.35701 -0.47615,0.42843c-0.1304,0.06707 -0.25306,0.10058 -0.36678,0.1101c-4.54964,3.40096 -8.77973,6.33474 -12.71794,10.54725c-0.10475,0.17501 -0.27739,0.33869 -0.56197,0.40356c-0.18223,0.06315 -0.40591,0.08292 -0.64616,-0.0257c-0.25018,-0.08325 -0.40106,-0.24956 -0.49205,-0.41961c-0.16774,-0.24477 -0.18122,-0.48605 -0.13678,-0.6877l0.0043,-0.47903c-0.44731,-3.60591 -1.21981,-7.05396 -1.8478,-10.60859h-0.40799c-3.73164,-0.01089 -8.06508,1.60786 -11.79637,2.22905c-3.82156,0.95865 -7.39805,2.44957 -11.19696,3.48745c-2.7946,0.7635 -6.14207,1.56112 -8.54957,3.24061c-0.73523,0.5129 0.04435,2.21139 0.37257,2.94433c0.09902,0.13924 0.16692,0.32677 0.1702,0.57934c0.01023,0.17792 -0.01651,0.397 -0.15298,0.59259c-0.13092,0.19934 -0.3244,0.30554 -0.49339,0.36212c-0.22012,0.08475 -0.40851,0.09613 -0.5677,0.0645h-0.78581c-3.7285,-0.05732 -9.27762,1.4255 -12.68875,2.78102c-2.67783,1.06413 -5.93354,3.10098 -9.41145,4.70067c-2.42947,1.11745 -4.41313,3.46048 -4.57013,2.24986c-0.5632,-4.34271 4.82785,-12.39024 6.51996,-15.23466c0.93264,-1.56776 5.11159,-7.56575 6.31799,-9.15173c-5.37872,-1.51224 -10.642,-0.57252 -16.69764,0.31936c-1.45811,0.21475 -2.86277,0.36047 -4.1788,0.37035c-0.07186,0.01632 0.65104,-2.31688 4.881,-8.44056c5.61233,-8.12493 15.76907,-21.18456 22.50944,-27.29552c1.45946,-1.32318 2.96706,-2.69035 4.72726,-2.70564c5.3353,-0.04632 11.8653,4.76004 12.71672,5.20926c3.79922,2.00452 7.21772,3.3638 10.54391,6.29423c0.19422,0.13416 0.38628,0.27151 0.576,0.41228c0.0308,-0.2191 0.0948,-0.77084 0.23562,-1.53764c0.02077,-0.24435 0.04766,-0.48987 0.08247,-0.73771zM234.78575,113.14287v0.42858c0,0 0,0.21317 -0.09843,0.44267l0.24128,0.70019c0,0 0,1 -1,1c-0.61206,0 -0.8495,-0.37462 -0.94162,-0.66528c-2.1098,-2.02132 -17.61462,-11.17268 -24.05421,-11.93295c-1.24087,-0.1465 -8.55909,6.72341 -14.06512,13.43093c-6.5847,8.02155 -11.56093,16.30249 -13.82495,18.75954c4.24544,-0.25482 8.41871,-0.5634 12.59858,-0.58716c2.34329,-0.01333 4.68865,-0.32897 7.04997,0.45694l0.45486,0.21933c0.11284,0.03728 0.23131,0.10065 0.35361,0.19849c0.22701,0.18161 0.33523,0.37641 0.37454,0.5614c0.04182,0.18443 0.0252,0.40666 -0.10481,0.66669c-0.06653,0.13306 -0.14296,0.23644 -0.22487,0.316c-5.15443,6.43419 -8.79367,13.76631 -12.77831,20.91654c6.80889,-3.41411 14.1582,-7.62393 21.59518,-7.84915c-0.45132,-1.36523 -0.68083,-2.47778 0.48504,-3.53771c1.74861,-1.58972 5.13675,-2.47446 7.29172,-3.26759c4.52034,-1.66372 9.36025,-2.83981 14.03319,-4.00435c1.93878,-0.32345 13.85074,-4.38035 14.93913,-2.88786c0.15838,0.21717 1.04728,2.58826 1.21858,4.17844c0.3293,3.05677 0.50352,5.87963 0.66955,7.00093c3.52334,-3.46337 6.13887,-5.70405 10.12399,-8.67786c-3.02396,-4.7551 -7.53727,-15.68734 -10.77665,-25.5799c-2.41932,-7.38823 -4.06489,-14.44925 -4.19034,-16.55775c-5.3017,4.65515 -7.80156,9.23078 -9.35075,14.54281c-0.02396,0.57081 -0.01917,1.14081 -0.01917,1.72809z" fill="#000000" stroke="none" stroke-linecap="butt"/><path d="M263.93019,140.88942c0.12538,-0.01318 0.22845,0.01927 0.22845,0.01927l0.69018,0.21787c3.73727,0.81227 6.99647,2.61243 10.54538,3.79482c5.68409,2.68897 12.61449,3.07814 18.09792,6.06758c4.32861,2.36106 1.50892,7.94881 1.01109,11.87979c-0.2208,1.74345 0.16953,3.94551 -2.13065,3.9577c-1.88924,-2.48155 -4.20036,-4.58569 -6.50124,-6.67163c-2.3206,-2.10381 -3.83743,-4.29857 -6.7138,-5.73675c-2.13599,-1.53047 -3.11372,3.95097 -4.73464,4.81339c-3.09461,1.6465 -4.64327,-3.16076 -5.4648,-5.23765c-2.02634,-5.13673 -6.0496,-8.00648 -6.0496,-13.80819c0,0 0,-0.5 0.5,-0.5c0.5,0 0.5,0.5 0.5,0.5c0,0.23943 0.00739,0.47391 0.02171,0.70381z" fill="#50a5eb" stroke="none" stroke-linecap="butt"/><path d="M264.80845,145.18562c0,0 5.48746,2.21924 6.81694,2.75822c0.69356,0.28117 0.38306,10.04178 0.38306,10.04178z" fill="#66ffff" stroke="#66ffff" stroke-linecap="round"/><path d="M262.91404,139.92264c1.00792,0.224 2.01758,0.44013 3.02782,0.65336c5.86971,1.54706 11.62827,3.31709 17.39108,5.24122c3.86194,1.28945 12.88455,4.51214 13.0695,4.70895c0.19682,0.18494 0.34758,0.4683 0.34758,0.90242v0.14286c0,5.86826 -0.94603,11.74634 -2.88028,17.27901c-0.06721,0.38258 -0.27192,0.61442 -0.49534,0.75491c-0.25295,0.20048 -0.62543,0.32909 -1.14754,0.14482c-0.25398,-0.08963 -0.43391,-0.21468 -0.55993,-0.35572l-0.1669,-0.07302c-3.73683,-4.98245 -8.30142,-10.32522 -12.95083,-14.59355c-1.78595,2.29545 -3.59055,4.59754 -5.16249,7.04454c-0.06198,0.13037 -0.15512,0.26377 -0.28852,0.39718c-0.2552,0.2552 -0.51041,0.36303 -0.74434,0.38733c-0.23363,0.02704 -0.50615,-0.02287 -0.81064,-0.21663c-0.18564,-0.11813 -0.3178,-0.24815 -0.40956,-0.3822l-0.40791,-0.43845c-4.15525,-6.68023 -7.52276,-14.19759 -11.05803,-21.24634c0,0 -0.55902,-1.11804 0.55901,-1.67705c1.11804,-0.55901 1.67705,0.55902 1.67705,0.55902c0.09453,0.18971 0.18896,0.37982 0.28332,0.57028c0.24645,-0.01451 0.4547,0.05786 0.62228,0.15977zM265.36564,143.00869c-0.23814,-0.05016 -0.47626,-0.10052 -0.71431,-0.15111c2.76177,5.14966 5.31716,10.42544 7.92621,15.64526c1.29896,-1.84751 2.69343,-3.63205 4.07862,-5.41312l0.93657,-0.94988c0.2936,-0.3161 0.59872,-0.41624 0.86982,-0.41422c0.26938,-0.01786 0.57838,0.06343 0.88872,0.35869c4.50957,4.02276 8.99669,9.07697 12.79941,13.96995c1.3121,-4.35747 1.99991,-8.90259 2.08929,-13.46001c-4.02301,-0.50423 -23.08053,-8.06319 -28.87433,-9.58555z" fill="#000000" stroke="none" stroke-linecap="butt"/></g><g stroke-linecap="round"><path d="M234.75659,150.11071c0,0 -1.44751,2.34767 -1.43095,3.99259c0.03622,3.59889 0.40038,7.91844 -0.83376,8.44858c-2.19342,0.94222 -5.28141,-7.08073 -6.57177,-12.96431c-0.5118,-2.3336 1.00314,-8.47686 1.00314,-8.47686z" fill="#000000" stroke="#000000" stroke-width="1.5"/><path d="M263.58991,136.94404c0,0 -2.85243,5.24174 -4.49525,10.5123c-0.82402,2.64365 -1.74162,5.4685 -2.22226,7.94549c-0.39443,2.03265 -0.38574,3.83103 -0.71582,5.10278c-0.33701,1.29842 -0.94245,1.78514 -1.16471,1.88061c-2.19342,0.94221 -3.78141,-2.91407 -5.07177,-8.79765c-0.51179,-2.33361 1.16981,-4.8102 1.16981,-4.8102z" fill="#000000" stroke="#000000" stroke-width="1.5"/><path d="M293.25658,113.27739c0,0 -9.86957,7.971 -17.12264,14.40419c-14.9321,13.24419 -33.34714,30.22544 -33.82693,29.56913c-3.19887,-1.53458 -2.69814,-1.66412 -7.78327,-6.40231c-3.5034,-3.26438 -10.38091,-11.151 -12.80563,-14.45265c-8.23789,-11.2172 -10.17892,-22.39755 -9.70292,-21.88263c0.78398,0.84808 1.72695,3.46148 3.56549,6.94506c2.1977,4.1641 5.53208,9.57155 9.45586,14.69342c5.5414,7.23342 14.68694,15.02625 16.92334,17.85994c0.44045,0.55808 18.00524,-16.64868 31.63843,-27.68455c4.9867,-4.03667 6.20219,-5.7805 10.18019,-8.24522c2.97489,-1.8432 9.47807,-4.80439 9.47807,-4.80439z" fill="#000000" stroke="#000000" stroke-width="0.5"/><path d="M234.02028,167.5625c0,0 12.59013,2.22292 17.81374,1.28267c2.82479,-0.50847 6.63173,-2.46399 8.8286,-3.99805c0.85341,-0.59592 2.68043,-2.79534 2.33346,-2.94143c-0.50037,-0.21068 -2.54722,-0.48605 -2.54722,-0.48605c0,0 1.05165,-2.13272 5.17595,-2.41638c2.59926,-0.17876 8.05261,0.70209 8.05261,0.70209c0,0 -3.38446,10.12521 -6.50595,10.41555c-0.68124,0.12198 -11.11359,1.21218 -18.66037,0.69389c-10.31723,-0.70855 -14.49082,-3.25229 -14.49082,-3.25229z" fill="#000000" stroke="#000000" stroke-width="0.5"/><path d="M259.59171,168.27678c0,0 4.35047,-2.42224 5.85297,-3.84567c1.02196,-0.96817 2.28989,-3.15433 2.28989,-3.15433l2,-0.14285c0,0 -2.81266,6.13366 -3.31813,6.41266c-0.90857,0.5015 -6.82473,0.7302 -6.82473,0.7302z" fill="#ffffff" stroke="#ffffff" stroke-width="0.5"/></g></g><path d="M-3.9767,363.06856v-366.13712h487.95341v366.13712z" fill="none" stroke-opacity="0.01384" stroke="#ff0000" stroke-width="0.5" stroke-linecap="butt"/></g></g></svg>