<svg version="1.1" xmlns="http://www.w3.org/2000/svg" xmlns:xlink="http://www.w3.org/1999/xlink" width="202.6254" height="198.21456" viewBox="0,0,202.6254,198.21456"><g transform="translate(-140.8544,-85.54724)"><g data-paper-data="{&quot;isPaintingLayer&quot;:true}" fill-rule="nonzero" stroke-linejoin="miter" stroke-miterlimit="10" stroke-dasharray="" stroke-dashoffset="0" style="mix-blend-mode: normal"><g><g stroke="none" stroke-width="0.5" stroke-linecap="butt"><path d="M145.09862,165.36894c1.23203,-2.64735 3.674,-4.59425 5.88548,-6.12244c1.45299,-0.48074 2.75083,-1.37791 4.15534,-2.0078c1.22768,-0.55062 2.75906,-0.53181 4.05036,-0.76798c4.33611,-0.79301 10.11061,-1.75662 13.37818,1.99742c1.70469,1.93683 7.06329,7.98107 7.99098,10.58447c2.37285,6.65908 -6.57515,10.10749 -11.7064,11.93689c-7.69452,2.77635 -15.28142,-0.42352 -23.0649,-1.116l-0.47634,-1.0381c-0.10577,-0.42161 -2.39421,-1.2648 -2.49695,-1.73662c-0.81514,-3.74356 0.76736,-8.47032 2.28428,-11.72982z" data-paper-data="{&quot;noHover&quot;:false,&quot;origItem&quot;:[&quot;Path&quot;,{&quot;applyMatrix&quot;:true,&quot;segments&quot;:[[[-7.40945,28.4],[-2.99455,-7.39936],[0,0]],[[-6.91969,28.4],[0,0],[16.93921,0]],[[42.49188,23.30896],[-15.86413,6.95372],[10.58495,-4.59285]],[[58.23465,-5.4689],[6.80628,12.95535],[-2.66096,-5.06498]],[[45.95327,-17.26356],[4.16461,3.58677],[-7.99327,-6.95856]],[[16.7362,-18.85898],[9.13644,-2.36841],[-2.72081,0.70531]],[[8.23958,-16.60831],[2.50374,-1.32573],[-2.86433,1.51666]],[[-0.17539,-11.85647],[3.00679,-1.22562],[-4.37351,3.46578]],[[-11.2758,1.44907],[1.97911,-5.53932],[-2.74385,7.67976]]],&quot;closed&quot;:true}]}" fill="#485e84"/><path d="M156.90206,179.80486c1.58387,0.1409 3.65621,0.68861 5.23203,0.42358c1.88643,-0.31728 3.82661,-1.65408 5.59046,-2.39885c3.3741,-2.21407 8.70501,-2.7765 11.37445,-6.0396c0.17374,1.00951 0.32209,2.01245 0.22172,2.84922c-0.68551,5.7157 -1.10213,10.03182 -5.23309,14.32478c-1.82285,2.57519 -4.51287,3.40695 -7.21872,4.42553c-2.31725,0.8723 -4.66523,1.97757 -6.99339,2.75395c-2.55626,0.85245 -5.91619,-0.00749 -8.48978,-0.22742c-1.47913,-0.4009 -2.37047,-2.28569 -3.34207,-3.43682c-2.03953,-2.41638 -4.51016,-5.10361 -5.04616,-8.58472c-0.38429,-2.49571 0.29958,-5.33302 0.59674,-7.84571c0.037,-0.31278 0.07488,-0.62761 0.11187,-0.94039c3.54775,3.49929 8.35537,4.2658 13.19594,4.69646z" data-paper-data="{&quot;noHover&quot;:false,&quot;origItem&quot;:[&quot;Path&quot;,{&quot;applyMatrix&quot;:true,&quot;segments&quot;:[[[-12.6,19.29482],[8.53184,6.39664],[0,0.63506]],[[-12.6,21.2],[0,-0.63506],[0,5.10165]],[[-11.88291,37.03011],[-1.46324,-4.9457],[2.04098,6.89848]],[[1.14868,53.32315],[-5.00785,-4.49044],[2.38565,2.13917]],[[9.19708,59.60973],[-3.28764,-0.5411],[5.5986,-0.01815]],[[27.47881,58.53456],[-5.28814,2.16968],[4.81629,-1.97608]],[[41.78069,51.77552],[-4.76837,2.16687],[5.56798,-2.53023]],[[56.16943,41.64187],[-3.26991,5.49996],[7.80325,-9.3639]],[[63.8,12],[-0.02062,11.6066],[0.00302,-1.69919]],[[62.60332,6.32523],[0.63128,1.99726],[-4.91792,7.03342]],[[39.65146,20.5013],[6.70271,-5.05168],[-3.60901,1.81169]],[[28.25951,26.3465],[3.9819,-0.97471],[-3.32624,0.81421]],[[17,26.4],[3.44697,0],[-10.53452,0]]],&quot;closed&quot;:true}]}" fill="#343545"/><path d="M176.30065,182.55695c-1.34247,-2.46849 -1.06317,-5.46347 -0.67289,-8.49421c-0.90892,-0.66303 -1.86769,-1.08872 -3.19463,-1.20678c-0.29868,-0.02658 -0.58047,-0.03595 -0.84908,-0.02983c0.14167,2.14577 -0.42787,4.54551 -0.67825,6.66276c-0.03985,0.33686 -0.32888,2.89036 -0.41018,3.06544c-1.10284,2.37465 -4.42846,1.73207 -5.51409,0.0063c-1.06611,-1.6947 -1.58085,-3.7848 -2.15516,-5.80092c-1.57693,0.99918 -3.09689,2.1588 -4.35133,3.53967c2.41203,1.46512 4.90092,2.82994 6.81495,5.01352c-0.25648,4.48629 -3.28766,4.39023 -6.60355,3.42484c-1.2382,-0.36049 -2.54738,-0.85511 -3.84625,-1.47164c-0.2272,0.58534 -0.44682,1.19056 -0.6475,1.80542c2.22443,-0.17252 4.47326,-0.36182 5.97219,0.77654c0.60802,0.46176 0.7521,1.40649 1.30255,1.94297c0.87801,0.85571 1.51276,1.4546 1.85758,2.18894c1.50489,-0.59693 2.93901,-1.49821 4.5521,-2.42219c1.11296,-0.63751 2.44769,-1.3285 3.69197,-2.12451c0.95785,-0.90049 1.85894,-1.84767 2.6922,-2.8124c0.42512,-0.49219 0.78086,-1.03039 1.09442,-1.59575c0.22199,-0.66051 0.42434,-1.32096 0.694,-1.85273c0.09826,-0.19374 0.19634,-0.38924 0.29401,-0.58642zM151.65099,193.10523c0.07432,-0.62843 0.16451,-1.2427 0.27173,-1.84653c-1.28267,-0.09683 -2.50882,-0.28869 -3.3811,-0.65613c-0.54953,-0.23148 -1.08623,-0.59001 -1.61332,-1.00238c0.73035,1.28315 1.69533,2.5778 2.97042,3.12395c0.54732,0.23441 1.12491,0.44239 1.72229,0.62716c0.01274,-0.10407 0.02322,-0.18886 0.02999,-0.24608zM155.7138,159.48259c1.45846,-0.7734 2.99569,-1.46575 4.65579,-2.16852c-0.63823,0.04252 -1.27609,0.07288 -1.9125,0.11188c-1.09112,0.35314 -2.15911,0.80671 -3.19367,1.35497c0.15389,0.22645 0.304,0.46174 0.45037,0.7017zM177.48371,175.69429c-0.08843,-0.08522 -0.17552,-0.16892 -0.26152,-0.25102c-0.17787,1.73526 -0.21562,3.40956 0.19473,4.84652c0.2727,-0.62529 0.5329,-1.26222 0.77367,-1.90807c0.15919,-0.52672 0.31485,-1.0883 0.45921,-1.66969c-0.45245,-0.26386 -0.83858,-0.70201 -1.16607,-1.01769zM177.52673,173.02602c0.42975,0.37729 0.87109,0.80962 1.24614,1.19029c0.05571,0.05655 0.13026,0.13595 0.20542,0.22397c-0.00498,-1.02807 0.35161,-3.01384 0.44502,-3.80757c-0.01338,-0.2932 -0.03796,-0.57701 -0.07496,-0.84901c-0.28992,-1.24247 -1.0934,-2.84944 -2.02985,-4.17612c-0.17907,-0.23878 -0.35874,-0.47421 -0.53377,-0.70692c-0.31086,-0.38355 -0.62807,-0.72619 -0.93921,-1.00697c0.74861,1.41821 1.57061,2.75863 2.10226,4.37808c0.03255,1.46866 -0.19354,3.1025 -0.42105,4.75425zM169.74662,173.13952c-1.07565,0.34876 -2.06658,0.95112 -3.37607,1.62328c-0.63551,0.32621 -1.28774,0.67186 -1.94219,1.04117c0.03386,0.09994 0.0676,0.20033 0.10129,0.30125c0.30969,0.92825 1.3153,5.43294 2.34922,5.88836c2.20751,0.97229 2.00357,-1.10067 2.18895,-2.66819c0.22868,-1.93373 0.81017,-4.21583 0.67879,-6.18585zM149.89782,174.7356c-0.78678,1.40332 -1.41768,2.91398 -1.86005,4.55702c1.38421,2.25932 3.59883,3.89473 5.96509,5.19116c0.36459,-1.29082 0.92266,-2.46414 1.62247,-3.53509c-0.87395,-0.64764 -1.70599,-1.32251 -2.4679,-2.03227c-1.19399,-1.11231 -2.2763,-2.60167 -3.25962,-4.18083zM157.14013,182.02069c-0.61562,0.94747 -1.10376,1.98501 -1.41791,3.12614c-0.02592,0.05884 -0.05192,0.11811 -0.078,0.17776c0.94797,0.45662 1.89534,0.87055 2.80029,1.25933c1.76676,0.75904 4.37389,1.6482 5.09733,-0.53619c-2.03984,-1.28299 -4.29037,-2.59366 -6.40171,-4.02704zM153.56543,191.33683c-0.18334,0.82814 -0.30892,1.65131 -0.35014,2.44545c1.89438,0.44605 3.88689,0.70382 5.6828,0.8636c0.84156,0.08296 1.62089,0.0486 2.3621,-0.07598c-0.8262,-1.05112 -1.49451,-2.47296 -2.30607,-3.17096c-0.49031,-0.42171 -1.99282,-0.07362 -2.54455,-0.06509c-0.79049,0.01224 -1.7937,0.02819 -2.84414,0.00301zM164.68204,161.02552c-0.61228,-0.95068 -1.23173,-1.85294 -1.82847,-2.68469c-0.24622,0.1168 -0.50364,0.23453 -0.77671,0.35059c-1.96297,0.8343 -3.74222,1.59902 -5.41301,2.46697c0.49174,0.90777 0.93249,1.74499 1.32651,2.28422c0.61668,-0.45265 1.24242,-0.84924 1.86246,-1.13424c1.4965,-0.68784 3.1339,-1.08194 4.8292,-1.28284zM156.47897,164.65635c-0.58443,-0.79622 -1.10434,-1.64025 -1.62348,-2.48664c-1.95593,1.18219 -3.79139,2.61366 -5.64361,4.60967c-0.30816,0.43337 -0.62449,0.88617 -0.94312,1.35557c0.11353,0.11674 0.21803,0.23433 0.3086,0.35376c0.46253,0.84285 0.95417,1.7797 1.47951,2.73741c1.23803,-1.72377 2.72543,-3.32629 4.46967,-4.84787c0.6066,-0.52916 1.26513,-1.1322 1.95243,-1.7219zM146.15849,179.87557c-0.00439,-0.00793 -0.00876,-0.01587 -0.01313,-0.02381c-0.58446,-1.22454 -1.25448,-2.37465 -1.91354,-3.52798c-0.16716,1.2362 -0.28033,2.48381 -0.35089,3.72843c0.23686,1.88785 0.64518,3.73403 1.24379,5.49804c0.01262,0.00856 0.02525,0.01718 0.03786,0.02589c0.14573,-0.84712 0.33421,-1.68232 0.41531,-2.36809c0.13688,-1.15751 0.33013,-2.26675 0.58061,-3.33245zM164.6241,157.49495c0.73639,1.04115 1.49616,2.17702 2.23153,3.37178c2.00687,-0.06458 4.04441,0.07373 5.98291,0.25775c-0.4346,-0.78087 -0.89489,-1.52822 -1.3781,-2.21354c-1.32684,-0.93959 -2.79941,-1.59119 -4.56681,-1.99875c-0.85882,0.05449 -1.56562,0.27819 -2.26953,0.58277zM153.84158,160.5516c-0.18678,-0.28503 -0.37826,-0.5669 -0.57705,-0.84377c-2.65123,1.73853 -4.59565,4.02267 -6.00732,6.63173c0.19449,-0.27924 0.38772,-0.55247 0.57863,-0.81915c1.96708,-2.12813 3.9202,-3.68316 6.00575,-4.96882zM151.02836,172.9373c1.00745,1.70013 2.12985,3.32913 3.39275,4.47655c0.76845,0.69818 1.59899,1.30992 2.45942,1.88058c1.51847,-1.74686 3.40978,-3.18477 5.36603,-4.4037c-0.07951,-0.22735 -0.16256,-0.45157 -0.25014,-0.67193c-1.20136,-3.02281 -2.61233,-5.50384 -4.39968,-8.03341c-0.67679,0.57636 -1.32842,1.17213 -1.93531,1.70156c-1.76422,1.539 -3.33912,3.19906 -4.63308,5.05037zM159.10938,164.98912c1.99681,2.88297 3.42838,5.69076 4.66985,8.99421c0.61985,-0.34978 1.23818,-0.68017 1.84544,-0.994c1.42811,-0.73805 2.57691,-1.38794 3.80828,-1.77287c-0.64085,-2.75194 -2.03835,-5.67987 -3.62061,-8.36051c-1.87128,0.11391 -3.67638,0.46324 -5.26217,1.24999c-0.48121,0.23874 -0.96351,0.54208 -1.44081,0.88318zM175.91236,171.83606c0.1245,-1.06188 0.21695,-2.11331 0.21159,-3.13294c-0.56051,-1.63322 -1.30755,-3.5758 -2.2061,-5.47213c-1.85639,-0.1535 -3.89053,-0.37296 -5.91667,-0.41329c1.46064,2.61777 2.70197,5.41097 3.28257,8.04845c0.43258,-0.02894 0.88976,-0.02414 1.3824,0.01969c1.36937,0.12183 2.26676,0.36496 3.24624,0.95023zM152.36926,189.18241c0.23585,-0.92822 0.51806,-1.8411 0.85128,-2.75362c-2.1604,-1.21295 -4.19388,-2.76063 -5.70626,-4.58366c-0.26656,1.75522 -0.37742,3.46338 -0.63467,5.16461c0.77427,0.69482 1.56289,1.38275 2.37716,1.73785c0.8926,0.38927 1.96885,0.46692 3.11249,0.43481zM145.21433,173.29913c0.65446,1.04492 1.2575,2.47733 1.78302,3.73762c0.50925,-1.41278 1.13681,-2.74572 1.88522,-4.01263c-0.62158,-1.09227 -1.19953,-2.17865 -1.73779,-3.16882c-0.68527,1.09473 -1.34876,2.25219 -1.93041,3.4438zM160.10296,153.15623c0,0 0.03197,-0.00141 0.08619,0.00134c0.05441,-0.00036 0.08613,0.00245 0.08613,0.00245c1.1028,0.0981 3.12456,0.27799 4.22735,0.37611c0.16686,0.01485 0.33186,0.03106 0.49506,0.04864c1.76367,0.06243 3.52604,0.35379 5.24588,0.89077c5.0487,1.5763 9.07032,7.88188 11.72699,12.30671c0.95117,4.15133 0.27595,8.33189 -1.12246,12.28874c-0.20312,0.68629 -0.41584,1.33334 -0.62794,1.92234c-0.96423,1.79036 -1.59444,3.77626 -2.57418,5.56555c-0.3519,0.95359 -0.73335,1.8999 -1.38775,2.65997c-0.82583,0.95917 -1.89785,1.79169 -3.03882,2.53883c-1.37375,0.89958 -2.84738,1.67537 -4.11148,2.39943c-3.60485,2.06482 -6.44955,3.77749 -10.55938,3.44391c-0.79473,-0.0707 -1.6329,-0.15957 -2.48859,-0.2741c-0.28833,1.22156 -1.51097,1.11276 -1.51097,1.11276l-0.18379,-0.01635c-7.51287,-0.71973 -11.75298,-7.63686 -13.33876,-14.86489c-0.00328,-1.05922 0.01939,-2.12688 0.07282,-3.19601c-0.35056,-2.99085 -0.31372,-6.06982 0.04028,-9.09609c0.836,-7.06903 5.82947,-14.23806 12.65431,-16.13074c2.00096,-1.0811 4.11767,-1.86336 6.30906,-1.97936z" fill="#000000"/><path d="M182.95057,212.57953c-0.0049,-0.01061 -0.00978,-0.0212 -0.01466,-0.03182l-0.17736,0.15472l-0.642,-0.85345c-0.14522,-0.19304 -0.21896,-0.44847 -0.18679,-0.72049c0.01202,-0.10164 0.03798,-0.1984 0.07555,-0.28827c-5.90407,-5.80697 -14.11227,-12.94315 -13.04493,-21.9684c0,0 0.11649,-0.98505 1.03548,-0.9033c0.28369,0.02524 0.4687,0.13656 0.58891,0.2784c2.45944,-3.57114 8.32593,-6.66779 10.91443,-2.09707c1.2515,1.66369 1.11011,4.39766 2.53484,5.88134c1.23017,1.28107 2.76457,2.71483 3.64,4.33603c2.71123,5.02087 4.73213,8.98066 8.66146,13.14915c1.08466,1.82634 2.13464,5.12628 0.78581,7.39051c-0.59924,1.00589 -2.60099,2.23481 -3.53469,2.9689c-1.48743,1.16947 -2.77273,2.96115 -4.78905,1.91188c-0.76518,-0.39819 -1.08584,-2.29922 -1.59289,-3.02632c-1.45909,-2.09227 -3.11945,-3.81506 -4.1811,-6.02686l-0.08224,-0.06517l0.01033,-0.01446c-0.01569,-0.00545 -0.03137,-0.01089 -0.04706,-0.01633z" fill="#485e84"/><path d="M171.66832,189.07928c-0.6877,0.33461 -1.91351,1.27212 -2.16261,2.012c-0.62884,1.86782 0.41002,2.31139 1.34346,3.4868c2.01777,2.54083 3.80919,5.24867 5.85318,7.77102c3.07248,4.6763 6.16072,9.13835 9.31738,13.75258c0.49648,0.72572 2.75144,4.81749 3.72766,4.63788c0.85312,-0.15697 1.36797,-1.16666 2.00516,-1.81212c1.71357,-1.73584 3.25715,-3.70033 4.8769,-5.5703c0.36524,0.66957 0.92124,1.37138 1.07384,1.62152c1.13697,1.86401 2.08717,2.95447 3.46276,4.61582c0.40144,0.48485 1.83852,1.99671 2.12505,2.56934c1.61701,3.23146 -2.96756,6.2142 -5.06984,7.70773c-8.65681,2.68645 -13.1622,-8.604 -18.16736,-13.88085c-5.05469,-4.74486 -8.43752,-11.06005 -12.91398,-16.28985c-1.28039,-1.49585 -4.91002,-4.4024 -6.80305,-3.75303c1.60338,-1.15666 2.31492,-3.85077 3.26742,-5.64084c2.15724,-4.05416 6.37477,-7.85117 10.76023,-8.37673c1.58635,-0.19011 3.03761,-0.65127 4.0969,0.62245c0.41138,1.00851 0.67565,2.11572 1.03053,3.10555c-2.58235,1.43 -5.21149,2.15007 -7.82362,3.42105z" data-paper-data="{&quot;noHover&quot;:false,&quot;origItem&quot;:[&quot;Path&quot;,{&quot;applyMatrix&quot;:true,&quot;segments&quot;:[[[67.03686,33.96408],[-5.19724,3.33479],[-1.01636,-1.92532]],[[64.08098,28.10099],[1.14282,1.95276],[-2.60571,-2.36983]],[[55.11455,27.5767],[3.36801,-0.66554],[-9.31085,1.83989]],[[34.11501,46.29425],[3.61337,-8.5313],[-1.59544,3.76689]],[[28.52556,58.18884],[3.15847,-2.6106],[3.91153,-1.64312]],[[44.13384,64.50974],[-3.13845,-2.7766],[10.97265,9.70755]],[[76.00638,94.80481],[-12.09448,-8.62985],[12.12329,9.70759]],[[118.59304,119.47199],[-17.95943,6.9451],[4.14717,-3.3766]],[[125.53032,103.50098],[4.3055,6.20366],[-0.76295,-1.09931]],[[122.29901,101.11902],[0.98806,0.90239],[-3.38563,-3.09209]],[[113.65965,89.67567],[2.92337,3.54195],[-0.39231,-0.47532]],[[111.1187,86.68623],[0.95712,1.28001],[-3.01208,4.04671]],[[102.01074,98.78554],[3.24832,-3.79401],[-1.20789,1.41081]],[[98.14178,102.79497],[1.79735,-0.46787],[-2.05671,0.53538]],[[88.92315,94.14868],[1.25408,1.36939],[-7.97354,-8.70669]],[[65.21498,68.05325],[7.80802,8.84646],[-5.04445,-4.70255]],[[50.6411,53.46744],[4.99267,4.74437],[-2.30967,-2.19481]],[[46.86457,46.6959],[-0.87859,3.86526],[0.34802,-1.5311]],[[51.02015,42.25647],[-1.39582,0.79522],[5.30188,-3.02057]]],&quot;closed&quot;:true}]}" fill="#343545"/><path d="M172.7669,183.73155c-4.1958,2.17046 -6.87506,4.79805 -9.73967,8.69706c-0.32576,0.44339 -0.53845,1.35941 -0.75782,2.35495c0.38359,0.30677 0.31498,0.88706 0.31498,0.88706l-0.34688,1.36272c-0.292,0.33475 -0.63099,0.692 -0.9978,1.00503c-0.22581,0.34113 -0.49763,0.56221 -0.83563,0.59697c-0.00816,0.00084 -0.01629,0.00164 -0.02436,0.00241c-0.89482,0.47222 -1.85763,0.46805 -2.6691,-0.77334c-1.1367,-1.73893 0.46593,-7.5573 1.3043,-9.2244c2.08124,-4.61063 5.97416,-8.30782 10.58838,-9.97683c1.52559,-0.55182 6.58408,0.11207 7.81305,1.66744c0.08843,-0.01259 0.17758,-0.0242 0.26745,-0.03477l0.08511,0.05409l0.006,-0.05081l0.91899,0.08175c0.50754,0.04515 0.86682,0.52278 0.8025,1.06682c-0.06432,0.54404 -0.52794,0.94844 -1.03549,0.90329l-0.85008,-0.07563c-1.73525,0.22637 -3.16202,0.91657 -4.84396,1.45619z" fill="#485e84"/><path d="M161.66991,191.32599c-0.06211,-0.00682 -0.1243,-0.01663 -0.18646,-0.0295c0.03174,0.21345 0.06667,0.31723 0.13392,0.14704c0.01461,-0.03698 0.03223,-0.07623 0.05252,-0.11754zM159.07813,188.27574c-0.06475,-0.6383 0.119,-1.24272 0.45543,-1.753c0.84744,-1.80098 2.72836,-3.24052 4.24551,-2.12828c2.82769,2.07305 1.41977,4.81684 -0.35863,7.07216c-0.50361,0.63865 -0.76477,1.70367 -1.51287,1.91416c-1.24171,0.34939 -2.84325,-2.72307 -3.35767,-3.64343c0,0 -0.45821,-0.8371 0.34688,-1.36272c0.06257,-0.04084 0.12302,-0.07344 0.18135,-0.09887z" fill="#8fbbbe"/><path d="M167.62704,187.13078c-0.91979,0.1596 -1.02967,-0.81588 -1.02967,-0.81588l0.02411,-0.43836c-0.67032,-1.23256 -1.49938,-2.34032 -2.17711,-3.5781c0,0 -0.4582,-0.8371 0.34689,-1.36272c0.80509,-0.52562 1.2633,0.31147 1.2633,0.31147c0.67809,1.23918 1.49918,2.34651 2.1771,3.5781l0.20532,1.17042c0,0 0.10988,0.97547 -0.80994,1.13507z" fill="#8fbbbe"/><path d="M161.10603,200.47539c-0.27017,0.2865 -0.56624,0.49418 -0.89237,0.59413c-0.82268,0.2521 -1.54675,-0.67857 -2.26126,-1.13017c-4.07391,-2.57488 -1.28672,-9.95558 0.62856,-13.54275c2.13207,-4.30251 8.09617,-8.35021 12.65632,-8.93807c1.48827,-0.19187 3.39307,0.27139 4.87569,0.4033c0.65084,0.05791 3.47794,0.29049 3.7672,0.42434c1.55701,0.72048 3.72695,4.1168 2.87985,6.02909c-0.15535,0.35069 -0.46118,0.54638 -0.81662,0.69095c0.51458,1.51095 0.9618,3.11402 1.54617,4.01839c3.32846,5.15113 6.94196,10.04789 10.16384,15.32231c3.35048,3.67953 5.93847,8.71112 8.57644,13.00703c1.14188,1.85955 2.90499,4.48803 2.47384,6.88911c-0.68052,3.78965 -7.29306,7.12423 -10.2547,7.98315c-3.94236,-0.36366 -5.48743,-3.31977 -7.87878,-6.24373c-5.0631,-6.19076 -9.41345,-12.97539 -14.74599,-18.91803c-1.52297,-2.94324 -4.80054,-6.16169 -7.48181,-8.2839c-0.11434,0.22115 -0.27732,0.40897 -0.4712,0.54795l-1.21034,0.88043zM178.64576,180.9984c-0.01297,-0.00784 -0.02395,-0.0136 -0.03272,-0.0171c-1.56421,-0.62675 -4.26591,-0.27076 -5.9741,-0.44231c-3.81302,-0.38294 -9.89843,3.48187 -11.62976,7.18638c-1.29992,2.40335 -2.34603,5.56593 -2.39198,8.32132c-0.01914,1.14767 0.71419,1.00316 1.01483,1.64736c-0.00406,-0.04692 -0.00503,-0.08879 -0.00154,-0.12102c0.06175,-0.56961 0.17895,-1.14031 0.36598,-1.68355c0.41391,-1.20218 0.89276,-2.38082 1.3738,-3.55689c1.85455,-4.53425 5.42498,-7.43687 9.39677,-9.57939c1.96848,-0.82955 5.38257,-2.25908 7.87874,-1.75476zM163.50063,194.66936c0.90796,0.24108 2.41115,1.78264 2.98736,2.32346c2.7237,2.55647 5.81445,4.80061 7.59467,8.24101c5.3603,5.779 9.59336,12.61826 14.60472,18.73187c1.53685,1.87488 3.06028,5.09941 5.61354,5.30898c2.38852,-0.74831 4.30318,-2.34821 6.23824,-4.00871c0.26566,-0.22796 1.3478,-0.93531 1.45198,-1.54194c0.22942,-1.33592 -1.46168,-3.63112 -2.10298,-4.66673c-2.62049,-4.23177 -5.1241,-9.16219 -8.43133,-12.79428c-3.30839,-5.32654 -6.96196,-10.32363 -10.32831,-15.56697c-0.78504,-1.22275 -1.47832,-2.98487 -2.02641,-4.36193c-0.29455,-0.74005 -0.07823,-1.85684 -0.7037,-2.29913c-1.38009,-0.97597 -5.24175,0.85151 -6.58758,1.41563c-3.32201,1.7838 -6.39177,4.14471 -7.91132,7.99271c-0.12715,0.32203 -0.25811,0.74453 -0.39887,1.22602z" fill="#000000"/></g><path d="M229.83319,194.71958c1.24941,-1.86271 2.51399,-3.69836 3.72774,-5.59938c2.02679,-2.28525 4.70048,-6.83399 7.63223,-7.95057c3.82688,-1.45751 7.1996,1.5126 8.23998,4.88385c2.27547,7.37343 2.54779,13.34779 -2.08158,19.74275c-1.75972,3.28295 -3.90165,6.2033 -6.95898,8.41711c-2.22403,1.61041 -4.88124,2.54713 -7.14824,4.10371c-3.07751,2.11311 -5.73435,3.89659 -9.62534,2.27132c-2.74021,-1.14459 -4.21674,-5.10575 -5.6022,-7.52118c-2.38794,-4.00431 -6.34106,-8.67501 -6.18267,-13.53315c0.0667,-2.04526 0.46892,-4.93675 2.71579,-5.92193c1.1654,-0.511 2.54545,-0.06529 3.8174,-0.0281c3.48795,0.10199 6.98979,0.47026 10.47168,0.70517c0,0 0.58064,0.03917 0.99419,0.43039z" fill="#db93e6" stroke="none" stroke-width="0.5" stroke-linecap="butt"/><path d="M251.19971,200.98468c-2.18443,7.4305 -5.59623,10.67493 -11.24839,15.61698c-1.93081,1.68823 -7.78229,5.29449 -10.361,5.83122c-2.5788,0.53676 -5.20827,1.06148 -7.57715,0.15454c-3.37582,-3.24786 -4.78588,-8.35814 -7.26727,-12.25619c-1.61456,-2.53633 -3.86015,-5.07295 -4.61674,-8.06334c-0.81097,-3.20537 0.57434,-6.1327 1.84405,-8.92616c0.02202,-0.08457 0.55224,-1.08181 1.32896,-1.12619c3.32257,-0.18987 12.51271,0.91417 16.54164,1.18599c0.62902,-1.76257 2.34102,-4.21915 3.20641,-5.8181c1.82511,-3.37218 3.02483,-5.49121 6.5483,-7.08129c1.05313,-0.47526 2.77914,-0.92787 3.92012,-1.27317c0,0 1.98187,-0.6108 2.48106,0.58202c5.68706,2.39891 6.61982,6.46792 6.35226,12.45993c-0.09638,2.15833 -0.82638,6.90204 -1.15224,8.71378zM213.04209,201.55038c0.8772,3.24346 8.4419,15.50415 10.88634,17.99135c7.78308,2.71278 21.99907,-10.89977 24.14531,-18.10878c3.25563,-10.93537 1.06828,-24.19189 -9.68501,-16.86453c-4.1169,2.80529 -6.19072,10.78558 -7.89904,11.1947c-1.74248,0.41731 -7.70658,-0.74283 -11.83281,-1.26854c-2.55088,-0.32499 -4.25671,-0.06659 -4.25671,-0.06659c-0.90981,1.91924 -1.9452,4.95149 -1.35806,7.12238z" fill="#000000" stroke="none" stroke-width="0.5" stroke-linecap="butt"/><g stroke="none" stroke-width="0.5" stroke-linecap="butt"><path d="M213.82675,199.17018c-4.25,0.46734 -7.99059,2.20127 -12.41416,2.06252c-2.38084,-0.07468 -4.57673,-0.29076 -6.88361,-0.87772c-1.84199,-0.46867 -5.15219,-1.72138 -7.17797,-1.38059c-1.31627,0.22143 -1.40189,4.62203 -1.45526,5.36793c1.35297,7.36898 5.68771,16.05324 12.59523,19.72221c2.16338,1.14909 5.26559,2.67321 7.84931,2.19044c1.16655,-0.21797 2.21564,-0.85184 3.33431,-1.24801c1.66661,-0.5902 2.84366,-1.52236 4.15767,-2.6738c3.84025,-3.89578 11.00268,-8.4184 9.2752,-15.20025c-0.45158,-1.77284 -2.56354,-3.44269 -3.75393,-4.69275c-1.35341,-1.42125 -2.52128,-2.47815 -4.40251,-3.06477l-0.41554,0.01685c0,0 -0.35581,-0.02401 -0.70874,-0.22209zM216.80804,196.88717c3.60455,1.61405 8.24388,5.84913 9.19721,9.46938c0.7872,2.98934 -0.38264,7.01342 -1.88367,9.58158c-2.18983,3.74665 -5.32611,5.60322 -8.23036,8.57694c-1.63861,1.4278 -3.14076,2.56457 -5.2053,3.31629c-1.28266,0.46702 -2.50967,1.14897 -3.85447,1.38312c-7.17876,1.24999 -13.56104,-4.75321 -17.42268,-9.88627c-1.75099,-2.32751 -3.58245,-4.48961 -4.56981,-7.2682c-0.87303,-2.45686 -1.48722,-4.99125 -1.93863,-7.55242c0.16207,-2.52226 0.30273,-7.24643 3.36399,-8.32948c3.26673,-1.15574 8.04451,1.27366 11.1582,1.78452c2.38473,0.39126 5.84714,0.80527 8.18942,0.22237c3.40839,-0.84822 6.13935,-2.03363 9.79124,-2.12438c0,0 1.03415,-0.0241 1.40487,0.82653z" fill="#000000"/><path d="M214.56647,199.35303l0.41626,-0.01626c1.88124,0.58662 3.05911,1.65462 4.41253,3.07587c1.19039,1.25005 3.30877,2.93399 3.76034,4.70682c1.72748,6.78185 -5.44838,11.35393 -9.28863,15.24971c-1.314,1.15143 -2.50602,2.09353 -4.17263,2.68374c-1.11865,0.39616 -2.18007,1.03355 -3.34661,1.25151c-2.58373,0.48277 -5.71554,-1.04598 -7.8789,-2.19507c-6.90751,-3.66896 -11.26587,-12.41815 -12.61883,-19.78714c0.05337,-0.7459 0.14561,-5.1575 1.46188,-5.37893c2.02576,-0.34078 5.34374,0.90413 7.18571,1.3728c2.30688,0.58696 4.52184,0.79349 6.90268,0.86817c4.42356,0.13876 8.20578,-1.58725 12.45579,-2.0546c0.35294,0.19809 0.71044,0.22338 0.71044,0.22338z" data-paper-data="{&quot;noHover&quot;:false,&quot;origItem&quot;:[&quot;Path&quot;,{&quot;applyMatrix&quot;:true,&quot;segments&quot;:[[[429.90791,387.32211],[0.73093,0.34776],[-8.41783,1.50473]],[[405.41357,393.10906],[8.84574,-0.31865],[-4.76092,0.1715]],[[391.55941,392.2843],[4.68232,0.8607],[-3.73869,-0.68724]],[[377.05018,390.4957],[3.99646,-0.95274],[-2.59677,0.61906]],[[374.86892,401.40313],[0.00607,-1.4956],[3.69184,14.52239]],[[402.65734,439.06246],[-14.27763,-6.39137],[4.47163,2.00172]],[[418.61523,442.3767],[-5.09074,1.31118],[2.29846,-0.59199]],[[425.1007,439.43747],[-2.17891,0.94112],[3.24619,-1.4021]],[[433.03722,433.5423],[-2.46703,2.47453],[7.13862,-8.29088]],[[449.49922,401.96208],[4.36015,13.30038],[-1.13978,-3.47683]],[[441.37664,393.10325],[2.54365,2.33419],[-2.89202,-2.65387]],[[432.17899,387.5803],[3.83292,0.91732],[0,0]],[431.35207,387.66987]],&quot;closed&quot;:true}]}" fill="#f89587"/></g><path d="M161.93885,191.66452c0.00594,-0.01658 0.01191,-0.03309 0.01795,-0.04955z" fill="#000000" stroke="none" stroke-width="0.5" stroke-linecap="butt"/><path d="M194.70236,181.51548c-0.55462,-1.53622 -1.13858,-3.06891 -1.59313,-4.63396c-1.54052,-2.80329 -5.49147,-1.10145 -7.47107,0.33354c-4.11403,2.98223 -7.66606,9.4643 -8.21638,14.50186l0.20864,0.06738l-0.01248,0.03867c0.09615,0.02172 0.19148,0.04842 0.28591,0.08082c0.85259,0.29247 1.43768,1.0575 2.08196,1.71655c3.63936,2.39552 4.86792,6.90438 8.29445,9.53969c1.50467,0.59436 3.2252,0.80446 4.70879,1.12054c0.65806,0.14019 1.35096,0.30045 2.05644,0.44625c0.74955,-0.0177 1.44553,-0.03176 1.99096,0.0073c2.06756,0.14803 4.03709,-0.30712 5.7131,-1.55839c0.19193,-0.16064 0.37961,-0.33871 0.5619,-0.53205c0.04079,-0.07698 0.08048,-0.15609 0.11904,-0.23737c0.05927,-0.03306 0.11805,-0.06452 0.17627,-0.09472c2.50499,-2.98159 3.78913,-8.825 0.52325,-11.44073c-2.25145,-0.49669 -5.77124,0.62397 -7.48474,-0.71426c-0.69653,-0.54399 -0.13094,-1.50295 -0.3883,-2.47946c-0.49788,-1.88922 -1.38111,-4.19652 -1.55459,-6.16162zM183.87709,174.78635c3.89104,-2.8221 9.01196,-3.59685 11.92179,0.79439c0.41709,0.27948 0.60479,0.72808 0.60479,0.72808l0.38844,0.9497c0.15899,0.53009 0.318,1.06016 0.47699,1.59025c0.24973,0.83682 0.41094,1.62005 0.51869,2.38906c0.32515,0.93263 0.63305,1.86751 0.89729,2.80861c0.22109,0.78743 -0.36789,1.96951 0.30485,2.43464c0.81224,0.56159 1.99211,-0.09717 2.96093,0.09387c1.32798,0.26187 2.4156,0.79547 3.51572,1.55748c0.12327,0.04023 0.24416,0.08452 0.36232,0.13333c0.83421,0.34463 2.81999,1.8608 3.19527,2.6736c0.40567,0.87862 0.18532,2.8566 0.11953,3.84524c-0.24723,3.7146 0.26834,7.69392 -3.46351,9.64161c-0.03171,0.03735 -0.0636,0.07443 -0.09565,0.11127c-2.00787,4.49872 -7.46416,3.84058 -11.71217,2.99106c-1.20959,-0.07884 -4.43788,-0.29384 -4.62892,-0.37431c-0.38839,-0.16361 -0.90684,-0.50339 -1.47144,-0.92786c-0.3908,-0.13272 -0.7696,-0.2882 -1.13003,-0.47499c-0.50458,-0.2615 -2.89661,-2.07604 -3.2772,-2.54436c-0.94117,-1.15812 -1.58138,-2.82142 -2.33736,-4.17937c-0.34815,-0.49585 -0.70228,-0.97056 -1.1012,-1.4171c-0.79007,-0.68881 -1.82772,-1.27119 -2.50244,-1.94268c-0.4315,-0.22209 -0.9107,-0.42676 -1.44891,-0.61196l-0.16338,-0.31328l-0.10466,0.10965l-1.08957,-1.03995c-0.31562,-0.29702 -0.50067,-0.72778 -0.46921,-1.19395c0.01813,-0.26864 0.10592,-0.51598 0.24455,-0.72558c0.46193,-5.90648 4.60134,-13.56478 9.48449,-17.10643z" fill="#000000" stroke="none" stroke-width="0.5" stroke-linecap="butt"/><path d="M196.30084,187.65314c0.25735,0.97651 -0.30215,1.96116 0.39438,2.50514c1.7135,1.33823 5.23318,0.21946 7.48464,0.71614c3.26589,2.61572 1.96615,8.49194 -0.53884,11.47352c-0.05822,0.03019 -0.11742,0.06205 -0.17669,0.09511c-0.03856,0.08129 -0.07878,0.16088 -0.11958,0.23786c-0.18228,0.19334 -0.37169,0.37288 -0.56363,0.53353c-1.676,1.25129 -3.66097,1.715 -5.72853,1.56697c-0.54543,-0.03905 -1.24748,-0.02333 -1.99702,-0.00565c-0.70547,-0.14577 -1.40505,-0.30514 -2.0631,-0.44533c-1.4836,-0.31608 -3.22117,-0.52797 -4.72584,-1.12231c-3.42653,-2.63531 -4.68934,-7.17784 -8.3287,-9.57335c-0.64427,-0.65905 -1.23103,-1.4318 -2.08363,-1.72428c-0.09443,-0.0324 -0.18984,-0.0595 -0.28598,-0.08122l0.01247,-0.0388l-0.20867,-0.06767c0.55033,-5.03756 4.12972,-11.57025 8.24374,-14.55247c1.9796,-1.43499 5.95703,-3.14189 7.49756,-0.33861c0.45456,1.56504 1.04948,3.09992 1.60409,4.63614c0.17347,1.96511 1.08545,4.29609 1.58332,6.1853z" data-paper-data="{&quot;noHover&quot;:false,&quot;origItem&quot;:[&quot;Path&quot;,{&quot;applyMatrix&quot;:true,&quot;segments&quot;:[[[389.36914,354.6674],[0.6107,3.89794],[-1.31353,-2.99079]],[[385.56625,345.63498],[1.11775,3.06181],[-3.45147,-5.38647]],[[370.7029,347.30633],[3.75704,-3.12998],[-7.80792,6.50477]],[[356.2597,377.35039],[0.41999,-10.12635],[0,0]],[356.6851,377.45674],[[356.66539,377.53558],[0,0],[0.19477,0.0304]],[[357.24681,377.65835],[-0.1928,-0.05193],[1.7407,0.46885]],[[361.63236,380.80338],[-1.37435,-1.22838],[7.5847,4.29022]],[[379.46789,398.72284],[-7.19228,-4.79736],[3.08253,0.98344]],[[389.01497,400.32492],[-3.00301,-0.431],[1.332,0.19117]],[[393.17858,400.93854],[-1.42736,-0.19593],[1.49331,-0.13621]],[[397.15247,400.68507],[-1.09366,-0.0045],[4.14566,0.01706]],[[408.34294,396.80622],[-3.17594,2.72251],[0.36135,-0.34641]],[[409.39255,395.66889],[-0.33772,0.41035],[0.07104,-0.1591]],[[409.59814,395.17919],[-0.066,0.1674],[0.11382,-0.07393]],[[409.93714,394.96645],[-0.11212,0.0681],[4.59722,-6.28687]],[[409.44106,372.06646],[6.86911,4.77991],[-4.55956,-0.68801]],[[394.40938,371.64879],[3.59938,2.43973],[-1.46312,-0.99173]],[[393.30076,366.75339],[0.64499,1.91395],[-1.24783,-3.70283]]],&quot;closed&quot;:true}]}" fill="#fddfbd" stroke="none" stroke-width="0.5" stroke-linecap="butt"/><path d="M205.6725,200.17811c-1.95567,8.80689 -12.53242,4.55695 -17.80706,1.8879c-1.42284,-1.65669 -2.28709,-3.35392 -3.56918,-5.05831c-1.15422,-1.53438 -3.8141,-3.08517 -4.67861,-4.63488c-0.53911,-0.9664 1.38632,-3.21486 1.43944,-3.86228c0.03355,-0.40898 -0.52557,-0.63638 -0.72746,-0.99364c-0.27073,-0.47912 0.9343,0.7581 1.31526,1.15523c0.85565,0.89198 1.84133,1.56841 2.99488,2.01236c3.04813,1.17312 6.35657,1.91427 9.2794,3.38337c0.83313,0.41438 3.40947,1.21988 4.65655,1.79888c0.60528,0.28102 1.60881,0.67258 1.94293,0.89978c0.41085,0.27938 0.11159,0.33065 0.49114,-0.12959c0.6435,-0.78031 0.72143,-0.6114 1.43072,-1.40116c0.77278,-0.86046 2.33034,-2.0975 3.12983,-2.72828c-0.00562,1.2042 0.61336,0.57602 0.68902,2.11892c0.06028,1.22912 -0.38779,4.65515 -0.58688,5.55171z" data-paper-data="{&quot;noHover&quot;:false,&quot;origItem&quot;:[&quot;Path&quot;,{&quot;applyMatrix&quot;:true,&quot;segments&quot;:[[[413.22832,377.33554],[0.27112,4.31854],[-2.89675,2.62042]],[[404.09091,383.98571],[3.28737,-0.9633],[-3.99464,1.17055]],[[389.45722,379.91278],[3.57765,1.48814],[-6.03017,-2.53807]],[[370.60791,374.37288],[6.24037,1.93056],[-2.36162,-0.7306]],[[364.19226,370.65287],[1.82749,1.66472],[-0.81367,-0.74119]],[[361.58091,368.63208],[-0.60474,-0.91963],[0.45093,0.68573]],[[363.16764,370.51474],[0.0119,-0.82063],[-0.01884,1.29905]],[[360.82667,378.38841],[-1.20588,-1.85584],[1.93373,2.97599]],[[370.78915,386.97148],[-2.50976,-2.90641],[2.78782,3.22843]],[[378.55363,396.51621],[-3.06225,-3.11433],[10.88465,4.6159]],[[413.67402,390.41164],[-2.71684,17.83712],[0.62376,-4.09526]]],&quot;closed&quot;:true}]}" fill="#f89587" stroke="none" stroke-width="0.5" stroke-linecap="butt"/><path d="M191.51816,198.19084c0,0 2.13625,-1.03865 3.87339,0.27993c0.64904,0.49265 2.92328,2.32791 3.94509,3.42107c2.20478,2.35874 2.17227,4.54752 2.17227,4.54752c0,0 5.06065,1.2582 6.24052,3.44391c0.5226,0.96811 2.53916,3.69912 2.73997,5.5798c0.31345,2.93559 -1.36578,5.08243 -1.36578,5.08243c0,0 -11.90288,10.80961 -17.241,12.71387c-1.42057,0.50676 -3.93256,-0.0381 -3.93256,-0.0381c0,0 -1.87958,-1.58049 -2.93468,-2.56156c-1.44184,-1.34066 -4.20118,-3.91819 -4.20118,-3.91819c0,0 -2.7555,-0.03895 -3.62564,0.03831c-0.64829,0.05756 -1.85157,-0.44404 -1.85157,-0.44404c0,0 -0.88637,-1.28474 -1.75648,-2.81353c-0.97951,-1.72102 -1.99024,-3.75481 -2.6853,-4.68016c-0.83164,-1.10719 -2.16874,-0.77439 -2.16874,-0.77439l-8.71725,0.15471c0,0 -1.86336,-3.15687 -2.2876,-6.11151c-0.50182,-3.49495 0.68339,-11.28656 0.68339,-11.28656c0,0 10.42748,-9.94155 15.53034,-12.6458c5.02743,-2.66428 12.57665,-4.20016 12.57665,-4.20016c0,0 2.65799,2.41018 3.68448,3.81134c1.16544,1.59082 2.94437,5.23701 2.94437,5.23701l-1.62264,5.16414z" fill="#fddfbd" stroke="#000000" stroke-width="3" stroke-linecap="round"/><path d="M159.76609,203.13154c0,0 0.4112,3.05814 0.92563,4.52389c0.5428,1.5466 2.25059,4.52623 2.25059,4.52623c0,0 4.57213,-0.50871 6.74167,-1.3813c3.81715,-1.53523 14.16198,-7.02604 14.16198,-7.02604c0,0 -2.21373,3.68281 -2.99668,5.84662c-0.61014,1.68625 -1.3132,6.0645 -1.3132,6.0645c0,0 1.42541,2.76365 2.23544,3.57202c0.89057,0.88876 2.88933,1.54227 2.88933,1.54227c0,0 3.39087,-0.73642 4.5951,-1.42695c1.39401,-0.79934 3.28325,-3.09059 3.28325,-3.09059c0,0 -1.37283,3.54875 -1.7297,5.00057c-0.23767,0.96688 -0.20335,2.86335 -0.20335,2.86335c0,0 7.03616,-4.34264 9.30889,-4.77639c2.71557,-0.51826 5.89376,1.87499 5.89376,1.87499c0,0 -3.97639,4.14771 -6.20491,5.87908c-2.00951,1.56123 -5.85141,3.92762 -8.1623,4.82365c-0.76315,0.29592 -2.30533,0.1036 -2.30533,0.1036c0,0 -1.12167,-0.52075 -2.44786,-1.67743c-1.2001,-1.04671 -3.35692,-3.72116 -4.72368,-4.95732c-0.71047,-0.64258 -1.24134,-0.39417 -1.24134,-0.39417c0,0 -2.43023,0.5136 -3.43236,0.40372c-0.69385,-0.07607 -1.01996,-0.93336 -1.01996,-0.93336c0,0 -1.21165,-1.57008 -2.05944,-2.71094c-0.16784,-0.22586 -1.25653,-1.99246 -2.11815,-3.34601c-0.46619,-0.73236 -0.46543,-1.31678 -1.50411,-1.55769c-1.83346,-0.42525 -3.92885,-0.79258 -7.80144,-0.43591c-1.11874,0.10302 -1.92133,0.4923 -2.36944,-0.07442c-2.19346,-2.77401 -0.65242,-13.23601 -0.65242,-13.23601z" fill="#f89587" stroke="#f89587" stroke-width="0.5" stroke-linecap="round"/><path d="M178.76726,206.63554c3.35058,-3.48896 8.58451,-6.42965 12.56662,-9.17792c0.31477,-0.73031 0.28863,0.76707 0.27945,1.81251c-5.3584,3.10334 -9.74778,6.96524 -14.81328,10.52687c0.69503,-1.08614 1.49183,-2.66643 1.96719,-3.16144z" data-paper-data="{&quot;noHover&quot;:false,&quot;origItem&quot;:[&quot;Path&quot;,{&quot;applyMatrix&quot;:true,&quot;segments&quot;:[[[357.52884,410.33784],[1.2407,-2.033],[9.62855,-7.00379]],[[385.50984,389.77357],[-10.27473,6.21694],[-0.12243,-1.87693]],[[384.71883,386.56966],[0.52978,-1.34849],[-7.57618,5.41327]],[[361.03917,404.44173],[6.21626,-6.66584],[-0.88195,0.94574]]],&quot;closed&quot;:true}]}" fill="#000000" stroke="none" stroke-width="0.5" stroke-linecap="butt"/><path d="M191.90887,198.2172c0,0 1.74554,-1.06501 3.48268,0.25357c0.64904,0.49265 2.92328,2.32791 3.94509,3.42107c2.20478,2.35874 2.17227,4.54752 2.17227,4.54752c0,0 5.06065,1.2582 6.24052,3.44391c0.5226,0.96811 2.53916,3.69912 2.73997,5.5798c0.31345,2.93559 -1.36578,5.08243 -1.36578,5.08243c0,0 -11.90288,10.80961 -17.241,12.71387c-1.42057,0.50676 -3.93256,-0.0381 -3.93256,-0.0381c0,0 -1.87958,-1.58049 -2.93468,-2.56156c-1.44184,-1.34066 -4.20118,-3.91819 -4.20118,-3.91819c0,0 -2.7555,-0.03895 -3.62564,0.03831c-0.64829,0.05756 -1.85157,-0.44404 -1.85157,-0.44404c0,0 -0.88637,-1.28474 -1.75648,-2.81353c-0.97951,-1.72102 -1.99024,-3.75481 -2.6853,-4.68016c-0.83164,-1.10719 -2.16874,-0.77439 -2.16874,-0.77439l-8.71725,0.15471c0,0 -1.86336,-3.15687 -2.2876,-6.11151c-0.50182,-3.49495 0.68339,-11.28656 0.68339,-11.28656c0,0 10.42748,-9.94155 15.53034,-12.6458c5.02743,-2.66428 12.57665,-4.20016 12.57665,-4.20016c0,0 2.65799,2.41018 3.68448,3.81134c1.16544,1.59082 2.94437,5.23701 2.94437,5.23701l-1.62264,5.16414z" fill="#fddfbd" stroke="#000000" stroke-width="3" stroke-linecap="round"/><path d="M159.76609,203.13154c0,0 0.4112,3.05814 0.92563,4.52389c0.5428,1.5466 2.25059,4.52623 2.25059,4.52623c0,0 4.57213,-0.50871 6.74167,-1.3813c3.81715,-1.53523 14.16198,-7.02604 14.16198,-7.02604c0,0 -2.21373,3.68281 -2.99668,5.84662c-0.61014,1.68625 -1.3132,6.0645 -1.3132,6.0645c0,0 1.42541,2.76365 2.23544,3.57202c0.89057,0.88876 2.88933,1.54227 2.88933,1.54227c0,0 3.39087,-0.73642 4.5951,-1.42695c1.39401,-0.79934 3.28325,-3.09059 3.28325,-3.09059c0,0 -1.37283,3.54875 -1.7297,5.00057c-0.23767,0.96688 -0.20335,2.86335 -0.20335,2.86335c0,0 7.03616,-4.34264 9.30889,-4.77639c2.71557,-0.51826 5.89376,1.87499 5.89376,1.87499c0,0 -3.97639,4.14771 -6.20491,5.87908c-2.00951,1.56123 -5.85141,3.92762 -8.1623,4.82365c-0.76315,0.29592 -2.30533,0.1036 -2.30533,0.1036c0,0 -1.12167,-0.52075 -2.44786,-1.67743c-1.2001,-1.04671 -3.35692,-3.72116 -4.72368,-4.95732c-0.71047,-0.64258 -1.24134,-0.39417 -1.24134,-0.39417c0,0 -2.43023,0.5136 -3.43236,0.40372c-0.69385,-0.07607 -1.01996,-0.93336 -1.01996,-0.93336c0,0 -1.21165,-1.57008 -2.05944,-2.71094c-0.16784,-0.22586 -1.25653,-1.99246 -2.11815,-3.34601c-0.46619,-0.73236 -0.46543,-1.31678 -1.50411,-1.55769c-1.83346,-0.42525 -3.92885,-0.79258 -7.80144,-0.43591c-1.11874,0.10302 -1.92133,0.4923 -2.36944,-0.07442c-2.19346,-2.77401 -0.65242,-13.23601 -0.65242,-13.23601z" fill="#f89587" stroke="#f89587" stroke-width="0.5" stroke-linecap="round"/><path d="M178.76726,206.63554c3.35058,-3.48896 8.58451,-6.42965 12.56662,-9.17792c0.31477,-0.73031 0.28863,0.76707 0.27945,1.81251c-5.3584,3.10334 -9.74778,6.96524 -14.81328,10.52687c0.69503,-1.08614 1.49183,-2.66643 1.96719,-3.16144z" data-paper-data="{&quot;noHover&quot;:false,&quot;origItem&quot;:[&quot;Path&quot;,{&quot;applyMatrix&quot;:true,&quot;segments&quot;:[[[357.52884,410.33784],[1.2407,-2.033],[9.62855,-7.00379]],[[385.50984,389.77357],[-10.27473,6.21694],[-0.12243,-1.87693]],[[384.71883,386.56966],[0.52978,-1.34849],[-7.57618,5.41327]],[[361.03917,404.44173],[6.21626,-6.66584],[-0.88195,0.94574]]],&quot;closed&quot;:true}]}" fill="#000000" stroke="none" stroke-width="0.5" stroke-linecap="butt"/><path d="M189.8349,219.64416c1.70049,-7.17894 8.45097,-8.41147 8.78663,-13.38683c0.07121,-1.05558 0.52047,-7.26618 2.37289,-3.01629c0.54748,1.25605 -0.25631,2.40324 0.53126,3.66758c0.63025,1.01177 1.46483,1.51641 2.39413,1.95552c-4.86787,2.21902 -14.17395,11.15589 -14.08492,10.78004z" data-paper-data="{&quot;noHover&quot;:false,&quot;origItem&quot;:[&quot;Path&quot;,{&quot;applyMatrix&quot;:true,&quot;segments&quot;:[[[411.34699,408.02386],[-9.41495,5.0833],[-1.9135,-0.75112]],[[406.3273,404.4848],[1.39384,1.93411],[-1.74178,-2.41692]],[[404.80791,397.26385],[1.26158,2.43271],[-4.26858,-8.23113]],[[400.49427,403.60774],[0,-2.11596],[0,9.97335]],[[386.41035,424.72565],[3.20408,-8.72475],[-0.26631,0.72517]],[[385.48269,427.98414],[0.3701,-1.29924],[0.43786,-0.37882]],[[386.82394,426.89155],[-0.45713,0.34787],[8.57583,-6.40439]]],&quot;closed&quot;:true}]}" fill="#000000" stroke="none" stroke-width="0.5" stroke-linecap="butt"/><path d="M189.8349,219.64416c1.70049,-7.17894 8.45097,-8.41147 8.78663,-13.38683c0.07121,-1.05558 0.52047,-7.26618 2.37289,-3.01629c0.54748,1.25605 -0.25631,2.40324 0.53126,3.66758c0.63025,1.01177 1.46483,1.51641 2.39413,1.95552c-4.86787,2.21902 -14.17395,11.15589 -14.08492,10.78004z" data-paper-data="{&quot;noHover&quot;:false,&quot;origItem&quot;:[&quot;Path&quot;,{&quot;applyMatrix&quot;:true,&quot;segments&quot;:[[[411.34699,408.02386],[-9.41495,5.0833],[-1.9135,-0.75112]],[[406.3273,404.4848],[1.39384,1.93411],[-1.74178,-2.41692]],[[404.80791,397.26385],[1.26158,2.43271],[-4.26858,-8.23113]],[[400.49427,403.60774],[0,-2.11596],[0,9.97335]],[[386.41035,424.72565],[3.20408,-8.72475],[-0.26631,0.72517]],[[385.48269,427.98414],[0.3701,-1.29924],[0.43786,-0.37882]],[[386.82394,426.89155],[-0.45713,0.34787],[8.57583,-6.40439]]],&quot;closed&quot;:true}]}" fill="#000000" stroke="none" stroke-width="0.5" stroke-linecap="butt"/></g><g stroke-width="0.5"><path d="M222.00669,237.88762c-1.65814,0.33281 -3.43159,0.44571 -5.59002,0.44571c0,0 -0.26771,0 -0.48324,-0.15994c-0.52024,0.50819 -1.24283,1.02941 -1.68323,1.46879c-3.04224,2.43145 -6.30134,3.45932 -9.61793,5.41976c-3.01946,1.78481 -6.30266,4.5095 -9.74796,5.2262c0.13762,1.03221 0.02216,2.19778 -0.42278,3.53236c-0.43559,1.30654 -0.77062,1.40079 -1.39616,2.47261c-1.03979,1.78159 -1.75305,4.35983 -3.98202,4.54022c-6.47281,0 -15.17998,0.84634 -20.0873,-4.19846c-0.07141,0.02024 -0.15295,0.03179 -0.24603,0.03179c-0.75,0 -0.75,-0.75 -0.75,-0.75l0.01456,-0.64709c0.96269,-4.81347 5.4677,-7.05415 9.09838,-9.90366c2.73173,-2.14398 5.27264,-4.50443 8.94319,-3.3006c3.27341,1.86009 7.15277,3.61967 8.44204,6.77143c3.25376,-0.58729 6.52549,-3.38571 9.36957,-5.06536c3.24366,-1.91563 6.42008,-2.87461 9.38207,-5.24691c0.30092,-0.30169 2.62038,-2.01304 2.15433,-2.62304c-0.95483,-1.24976 -3.46894,-2.00239 -4.92545,-2.31285c-4.01123,-0.85501 -7.86528,-0.24037 -11.37085,-2.59193c-0.80354,-0.80354 -2.057,-1.37446 -2.54252,-2.44055c-1.58051,-3.47045 1.38194,-5.25467 4.10129,-6.4197c4.96088,-2.12536 10.13935,-2.19 15.44256,-2.1113c1.86938,1.02803 6.72129,2.91678 7.5029,5.11062c1.69199,4.74912 -3.38217,8.20605 -7.20572,9.82189c0.4197,0.53092 0.61464,1.15048 0.3878,1.87723c1.67467,0.01288 3.39673,0.09754 5.06471,-0.11038c0.22221,-0.22449 0.55781,-0.22449 0.55781,-0.22449c0.18306,0 0.53279,0 0.71586,0c0.68689,-0.1608 1.35961,-0.3899 2.01061,-0.71438c-0.10808,-0.24224 -0.16091,-0.55834 -0.13751,-0.96059c0.06292,-1.08178 2.75653,-2.90399 3.58631,-3.64162c1.18889,-1.05685 2.61286,-2.07671 3.63516,-3.29852c2.20665,-2.63729 3.25067,-5.98163 7.20932,-3.13911c0.79416,0.76634 2.53363,1.69286 2.99802,2.69754c1.17876,2.55015 -1.69312,4.74039 -3.48783,5.84525c-4.83856,2.9787 -9.84918,4.71143 -15.52994,4.71143c-0.27778,0 -0.55556,0 -0.83333,0h-0.16667c0,0 -0.21158,0 -0.40998,-0.11238z" fill="#ff2d32" stroke="none" stroke-linecap="butt"/><path d="M191.34467,263.65533l-0.6357,-0.40629c0,0 -0.10731,-0.07154 -0.20327,-0.19979c-1.67315,-0.69703 -3.34995,-2.40437 -3.35491,-4.11155c-0.00045,-0.15626 1.00524,-2.7945 1.10425,-3.05767c1.9845,-5.27493 5.27399,-8.9998 9.59815,-12.59368c2.64736,-2.19794 5.51965,-3.95712 8.28587,-5.98645c1.70288,-1.24926 3.29186,-3.04603 5.10949,-4.07357c2.76299,-1.56197 5.88458,-2.7332 8.5,-4.5c2.77104,-1.33763 6.2892,-0.32027 9.30254,-0.59767c4.36502,-0.40183 8.40589,-0.50365 12.8239,-0.50365c2.36639,0.08649 3.61634,2.49875 5.0571,4.12284c3.27601,3.69289 6.29522,9.0731 6.85396,14.03516c0.13013,1.15569 0.33616,2.89917 -0.25799,3.94633c-0.09772,0.17223 -2.35708,1.99811 -2.56818,2.17072c-9.75016,4.44025 -19.51145,5.84077 -30.10529,6.86713c-3.86908,0.37485 -7.40225,1.51283 -11.19011,2.23961c-5.43004,1.04186 -11.39102,1.17671 -16.36624,3.59793l-0.77349,0.01699c-0.20421,0.0518 -0.37625,-0.00266 -0.50586,-0.08132c-0.13697,-0.06403 -0.27731,-0.17652 -0.34768,-0.37413c-0.10885,-0.17031 -0.2177,-0.34062 -0.32655,-0.51093z" fill="#ab164a" stroke="none" stroke-linecap="butt"/><path d="M256.54298,270.49517c-1.66346,-1.23753 -3.64576,-3.07958 -4.33955,-5.01324c-1.14041,-3.17842 0.96883,-5.24419 1.6564,-8.09617c0.55803,-2.31466 0.70797,-4.99742 0.20241,-7.31987c-1.836,-2.96565 -6.2424,-3.89289 -9.6341,-5.17041c-0.82789,-0.31183 -1.84126,-0.16641 -2.56773,-0.67128c-3.90461,-2.71355 -1.12049,-8.34159 2.33461,-9.52403c3.65567,-1.02354 10.04504,-0.99963 13.84179,-0.35715c1.3,0.21999 1.21742,-2.17833 5.30321,-4.52881c2.58193,-1.48533 9.83177,-3.40206 10.62681,-3.19885c2.65018,0.67737 -1.83882,10.36004 0.86991,10.38465c7.40665,-0.00004 10.76755,-1.96609 17.61861,-4.59647c1.5101,-0.57978 5.11764,-1.28666 5.92418,-2.746c0.59729,-3.94971 3.01943,-4.7929 6.58367,-5.31452c1.03836,-0.15196 1.75097,-1.13411 2.90715,-0.61926c2.60615,1.16052 2.48223,5.23652 0.7232,6.90929c-1.26136,1.19951 -2.84577,2.27651 -4.21205,3.37221c-0.61183,0.47191 -1.47098,0.60338 -2.00692,1.15996c-0.40413,0.4197 0.27893,1.13821 0.51894,1.66912c0.76881,1.70068 2.93639,1.58868 4.35672,2.24392c3.68193,1.69859 10.0492,7.40573 8.87987,11.73639c-1.19631,3.28725 -1.40095,7.49421 -4.00573,10.12142c-1.85307,1.86903 -4.25167,1.86966 -6.70233,2.25658c-4.02459,0.63542 -7.89229,1.29766 -11.96817,1.49018c-10.09161,0.47667 -21.42144,0.11644 -30.36948,5.03873c-1.82835,0.88817 -3.43155,1.93678 -5.50106,1.9451l-0.66874,-0.24585c0,0 -0.6171,-0.30855 -0.37161,-0.92565z" fill="#ff2d32" stroke="none" stroke-linecap="butt"/><path d="M219.76775,211.6992c0.01561,-0.01729 0.02467,-0.02635 0.02467,-0.02635l0.05885,0.00313c0.00052,-0.00013 0.00105,-0.00026 0.00157,-0.00039c3.21721,-5.28836 9.30639,-6.1228 15.06036,-5.86945c11.46511,0.50482 23.30776,1.25842 34.53776,3.6409c1.23249,0.52798 4.70053,1.95749 5.14824,2.56947c0.53544,0.73189 -0.00844,1.81883 -0.1308,2.71738c-0.74256,5.45316 -4.54856,8.69756 -9.2648,11.07228c-4.364,2.19736 -11.93551,1.99543 -16.57622,0.80992c-3.68479,-0.94132 -6.05383,-2.38334 -9.94564,-2.38696c-0.92104,0.14279 -1.96596,-0.00708 -2.75227,0.49334c-3.07912,1.95958 -3.13275,7.62944 -7.92282,7.65384c-2.60336,0.01326 -3.74712,-2.65729 -4.65532,-4.57911c-1.06807,-2.26011 -1.00827,-4.76897 -1.53582,-7.17537c-0.55338,-2.52422 -1.88115,-4.51832 -3.01836,-6.78894c0,0 -0.67082,-1.34164 0.67082,-2.01246c0.10395,-0.05198 0.20388,-0.09187 0.29977,-0.12124z" fill="#0f1b82" stroke="none" stroke-linecap="butt"/><path d="M273.96319,221.982c0.25423,-0.39341 0.64765,-0.59012 0.64765,-0.59012l0.54445,-0.2435c1.39707,-0.3896 2.87791,-0.36904 4.30834,-0.60873c1.69592,-0.28418 3.21249,-1.24764 4.87474,-1.68787c3.63565,-0.96287 7.83223,-1.62574 11.58269,-1.47385c2.86343,0.11597 7.46846,2.80331 6.53338,6.42029c-0.4478,1.73213 -3.03215,3.29816 -4.29033,4.45875c-1.60772,1.48302 -2.38457,3.84071 -3.35724,5.7499c-2.32301,2.6088 -5.44842,7.11296 -8.74612,8.51361c-3.37393,1.43302 -5.31941,-1.65215 -6.87972,-3.94807c-0.90181,-1.32697 -2.1255,-2.43165 -2.92405,-3.8232c-0.92742,-1.61613 -0.93204,-3.65217 -1.53439,-5.37853c-0.67392,-1.9315 -1.46767,-3.57638 -1.90763,-5.60857c0,0 -0.3137,-1.46392 1.14824,-1.7801z" fill="#0f1b82" stroke="none" stroke-linecap="butt"/><path d="M219.28165,212.87637c0,0 2.83257,7.09321 3.32945,8.9099c0.83919,3.06831 2.5277,8.0901 2.5277,8.0901l-6.85714,-7.85714l-7.42857,-1l-6,0.85714l-5.42857,0.85714l2.42857,-9.71429l2.71429,-4.14286l8,2l6,3z" fill="#0066cc" stroke="#0066cc" stroke-linecap="round"/><path d="M278.56736,208.4478l18,5l3,5.28571c0,0 -11.10562,15.05826 -14.29553,15.52485c-1.91523,0.22428 -10.99018,-9.09627 -10.99018,-9.09627l-10.14286,4.14285l-5.28572,3.57143l-0.14285,4.28572l-11.42857,-3.14286l-2.42857,-4.71428l-7.57143,-6.28572c0,0 9.89465,3.76659 18.57568,2.02914c11.2374,-2.24908 15.71004,-7.02914 15.71004,-7.02914z" fill="#0066cc" stroke="#0066cc" stroke-linecap="round"/><path d="M269.6388,195.59066c0,-1.5 1.5,-1.5 1.5,-1.5l0.58954,0.00866c4.96379,0.54305 10.30901,2.14226 14.9853,3.89062c1.06709,0.42412 2.26071,0.61366 3.2013,1.27234c2.62739,1.8399 1.84309,5.8051 2.84892,8.36726c0.86679,2.20797 3.8049,1.49245 3.58435,4.79631c-0.12966,1.94239 -2.39943,3.17157 -3.95434,3.50011c-1.64071,0.34667 -2.58246,-0.33326 -3.92588,-0.99365c-3.03132,-1.49011 -5.83132,-3.80017 -9.10629,-4.59069c-1.337,0.90427 -2.62873,1.85852 -3.92106,2.82637c-0.16641,0.19404 -0.41237,0.35848 -0.77386,0.44534c-0.26412,0.08211 -0.6019,0.11977 -0.94475,-0.02415c-0.34929,-0.12751 -0.57142,-0.38472 -0.70932,-0.62449c-0.20669,-0.31034 -0.27509,-0.59892 -0.26475,-0.85491l-0.23968,-1.32718c-0.34885,-4.50884 -0.15615,-9.0651 -0.15519,-13.5868c-0.31716,-0.04242 -0.63283,-0.08044 -0.94667,-0.1138l-0.26761,0.00866c0,0 -1.5,0 -1.5,-1.5z" fill="#fddfbd" stroke="none" stroke-linecap="butt"/><path d="M276.71022,189.87637l14.57143,8.85714v4.85715c0,0 -2.38779,1.10509 -8.49442,-1.57684c-6.26164,-2.75 -10.07701,-7.2803 -10.07701,-7.2803z" fill="#f89587" stroke="#f89587" stroke-linecap="round"/><path d="M246.32138,172.8669c3.45069,-2.87502 8.03181,-5.72989 12.34308,-7.12783c2.7493,-0.89148 6.33943,-0.36392 9.18863,-0.36269c3.36543,0.00145 8.36341,-0.13535 11.37032,1.57963c4.54196,2.59049 1.3298,5.2112 -1.84976,6.51489c-1.83355,0.26755 -3.65676,0.3871 -5.47613,0.45027c-0.11885,0.68697 -0.60633,0.97041 -0.98835,1.08736c-3.09692,2.35589 -6.68248,1.79601 -10.48312,1.80292c-4.12376,0.00751 -7.9642,0.19909 -11.85009,-0.30166c-0.04303,0.00886 -0.08605,0.0177 -0.12905,0.02654l0.00702,0.35119l-2.99449,0.05989c-0.01161,0.00027 -0.02324,0.0004 -0.03491,0.0004c-0.82843,0 -1.5,-0.67157 -1.5,-1.5c0,-0.78363 0.6009,-1.42691 1.36706,-1.49419l0.46193,-0.04626c0.06242,-0.61925 0.56787,-1.04046 0.56787,-1.04046z" fill="#f89587" stroke="none" stroke-linecap="butt"/><path d="M246.11601,183.81412l0.73308,0.03113c2.35308,-1.27821 4.7318,-2.35916 7.082,-3.67196c1.88045,-1.05041 4.0036,-2.84021 6.17036,-3.28339c4.68917,-0.95909 9.60883,-0.83044 14.30804,-1.76878c3.68153,-0.73513 6.91872,-2.08 10.69197,-2.63854c2.00146,-0.29063 5.70672,-1.19501 7.45051,0.45325c0.67734,0.64022 -0.2309,1.853 -0.44036,2.76118c-0.44446,1.92706 -0.94742,4.14156 -0.25775,6.153c0.72546,2.11584 1.88077,5.15671 2.99256,7.0999c0.7668,1.34021 1.8596,1.96761 2.05609,3.95617c0.69434,7.02694 -9.34908,5.09544 -13.26673,3.18126c-3.00569,-1.36899 -5.70661,-2.91255 -8.05995,-5.16867c-0.11691,-0.11208 0.22629,0.27475 0.21392,0.43623c-0.03584,0.46783 -0.2224,0.91191 -0.35176,1.36292c-0.61412,2.14117 -1.02875,3.95142 -1.39131,6.12106c-0.82305,4.92535 -0.00937,9.67418 0.01998,14.58284c0.07524,0.46517 -0.0661,0.8103 -0.26576,1.05802c-0.1719,0.26779 -0.45467,0.51105 -0.91989,0.58673l-0.34755,0.11419c-2.29498,0.61803 -4.28371,1.82706 -6.69953,2.04774c-2.0684,0.18894 -3.72187,-0.11574 -5.74059,0.55717c-11.57861,0.10692 -24.25699,0.9436 -34.56408,-5.04011c-3.32675,-1.93132 -5.97474,-3.42543 -7.96478,-6.84938c-0.06239,-0.95325 -0.32811,-1.91491 -0.18716,-2.85973c0.59532,-3.99062 5.61759,-5.76306 8.58891,-7.46247c2.29864,-1.31467 4.13561,-3.34009 6.42276,-4.71095c3.97376,-2.38177 8.44242,-3.94308 12.42255,-6.28223c0,0 0.05971,-0.03483 0.16097,-0.07672c0.37109,-0.60405 1.14347,-0.68986 1.14347,-0.68986z" fill="#feebf7" stroke="none" stroke-linecap="butt"/><path d="M273.09416,203.13531l-5.25,-25l5,9.625l3,3.75z" fill="#db93e6" stroke="#db93e6" stroke-linecap="round"/><path d="M242.71916,176.63531l3.25,-3.25l6.75,2.375l7.625,0.125l6.75,-1.75l7.875,-5.25l9.625,-6.625l6.125,-0.75l2.375,2.125l2.25,4l-2.875,5.625l-48.375,13.125z" fill="#db93e6" stroke="#db93e6" stroke-linecap="round"/><path d="M274.12723,240.07415c1.23065,-1.0344 2.75199,-0.77899 4.34826,-1.00658c1.75845,-0.15921 2.73828,3.94928 4.94169,3.86211c3.50066,-0.13848 8.31166,-4.26276 10.77177,-2.89086c2.54111,1.41708 2.02939,4.74597 4.6248,5.44202c1.10171,0.4734 2.75564,0.48011 3.69694,1.23031c0.70586,0.56255 0.52803,1.72892 0.86973,2.56435c0.41737,1.02045 2.8869,0.79808 3.24127,1.85477c0.17887,0.53337 -0.09129,1.19156 -0.44696,1.62743c-0.18168,0.22264 -1.63397,0.34903 -1.96805,0.41582c-2.27229,0.45429 -4.47273,0.86967 -6.75896,1.2517c-2.61404,0.51685 -5.30073,0.31412 -7.94835,0.50973c-5.01169,0.37028 -10.96446,1.91701 -15.47645,4.17338c-1.70059,0.84864 -7.39425,4.01012 -8.78588,0.97221c-0.65234,-1.42405 1.39257,-2.89225 1.21294,-4.25684c-0.16062,-1.22023 -2.08437,-0.11729 -2.71294,-1.61816c-0.49611,-1.18458 1.01793,-2.00517 0.57403,-3.11935c-4.5491,0.42751 -2.89982,-3.79092 -1.05179,-5.78007c2.17132,-2.33713 7.56812,-5.02997 10.86797,-5.23197z" fill="#feebf7" stroke="none" stroke-linecap="butt"/><path d="M241.29286,229.8577c0,0 2.33531,1.16766 2.33531,2.33531c0,1.16765 -2.91804,1.5418 -3.23534,1.38526c-0.40792,-0.18206 -1.39417,-3.58638 0.90003,-3.72057z" fill="#000000" stroke="none" stroke-linecap="butt"/><path d="M246.98177,192.52946c1.10376,3.83423 1.98836,8.23764 3.6271,11.88699c2.53704,-1.38396 8.18804,-5.09253 9.44267,-8.79757c0.2873,-0.84841 0.34407,-1.69664 0.08013,-2.51673c-0.05798,-0.18014 -1.50038,-0.38023 -2.26654,-0.42804c-1.06286,-0.06632 -1.63319,0.04487 -2.63156,-0.12402c-1.17782,-0.19925 -0.87228,-0.94561 -2.01863,-0.92717c-3.27775,0.05271 -5.83075,0.77797 -6.23317,0.90654zM238.34888,199.08228c-2.38141,3.56911 0.04146,6.00636 3.10217,6.71876c1.79277,0.41729 3.47593,-0.16777 5.41313,-0.37314c0.42193,-0.16457 0.60907,-0.34815 1.05703,-0.54866c-1.66965,-3.69998 -2.34409,-7.27795 -3.46613,-11.15227c-1.62112,0.90911 -5.04574,3.76595 -6.1062,5.3553zM260.26812,189.69647c3.69797,1.30257 3.95298,4.12174 1.85201,7.47743c-1.80814,2.88798 -3.9284,5.7099 -7.15352,8.03444c-2.16546,1.56078 -5.30954,2.96597 -7.39248,3.75935c-2.32998,0.26821 -7.07792,-0.01195 -9.30887,-0.9486c-5.40037,-2.26732 -5.08223,-7.21805 -1.92583,-11.95577c1.66651,-2.50142 6.24946,-5.40031 12.15959,-6.63386c4.47662,-0.93435 10.74552,-0.09355 11.76911,0.267z" fill="#ff0000" stroke="none" stroke-linecap="butt"/><path d="M276.9375,239.3125c0,0 1.50605,0.10347 2.78362,0.19124c0.82413,0.05662 2.82539,3.65976 4.53819,3.77743c1.54532,0.10617 2.76284,-3.27584 4.31063,-3.1695c2.61319,0.17953 4.74256,0.32582 4.74256,0.32582c0,0 -6.96426,11.25 -9.625,11.5c-1.05663,0.09928 -10.25,-11.5 -10.25,-11.5z" fill="#db93e6" stroke="#db93e6" stroke-linecap="round"/><path d="M240.3125,245.6875l1.125,-6.25c0,0 6.25543,0.30564 9.34059,1.18054c2.16722,0.61458 6.90941,3.69446 6.90941,3.69446l-5,2.375z" fill="#ab164a" stroke="#ab164a" stroke-linecap="round"/><path d="M310.5625,226.34925v0.08825c-0.0037,2.35321 -0.97812,4.15459 -2.61925,5.80382c-2.86553,2.38352 -6.08382,3.91539 -9.24005,5.83638c-1.00752,0.61321 -3.41361,2.37658 -4.59789,2.35858c-3.6219,-0.05505 -1.50269,-4.59794 -0.29301,-5.80762c4.52462,-3.62345 10.37711,-6.84589 15.70475,-9.13051c0,0 0.68936,-0.29544 0.9848,0.39392c0.07634,0.17813 0.08693,0.32997 0.06064,0.45719z" fill="#ab164a" stroke="none" stroke-linecap="butt"/><path d="M184.91305,240.15974l0.08463,-0.21159c2.94445,-3.30436 8.16821,1.10565 10.87138,3.03699c0.75237,0.60285 2.11071,1.54885 2.422,2.51661c0.56968,1.77105 -0.21995,4.38047 -2.5467,3.81153c-1.85382,-0.4533 -2.34696,-2.42536 -3.76622,-3.45484c-2.22756,-1.6158 -5.0657,-2.86966 -7.44734,-4.29865c0,0 -0.64312,-0.38587 -0.25725,-1.02899c0.18692,-0.31153 0.4342,-0.38161 0.6395,-0.37106z" fill="#feebf7" stroke="none" stroke-linecap="butt"/><path d="M192.3225,239.03883c-0.03007,0.22721 -0.15679,0.54112 -0.61586,0.61763c-0.7398,0.1233 -0.86309,-0.6165 -0.86309,-0.6165l-0.17432,-1.06144c0.01908,-2.71816 1.85473,-3.35563 4.2701,-2.55265c3.49691,1.16253 7.64807,3.60653 10.20286,6.15727c1.9281,2.56578 0.48961,6.08101 -3.05908,4.50526c-3.48069,-1.54555 -6.98898,-4.37004 -9.76061,-7.04957z" fill="#feebf7" stroke="none" stroke-linecap="butt"/><path d="M201.29795,237.06974c-0.18957,0.09693 -0.38129,0.09693 -0.38129,0.09693l-0.61667,-0.15c-1.94988,-1.58761 -1.5247,-4.62711 1.1415,-5.1698c3.25817,-0.66318 6.07713,0.83579 9.19644,1.7566c3.30536,1.52553 5.37763,7.02345 0.82327,7.39521c-3.55112,0.28986 -7.01196,-2.16173 -10.16326,-3.92894z" fill="#feebf7" stroke="none" stroke-linecap="butt"/><path d="M186.75,261.83333c0.24092,0 0.40445,0.07739 0.51545,0.18245c0.17841,0.00546 0.35681,0.01093 0.53522,0.01639c2.5984,1.67583 4.74634,8.02146 0.47516,9.27603c-1.86014,0.54638 -5.03252,0.12962 -6.87329,-0.33032c-3.21382,-0.80302 -6.73766,-0.84327 -10.03292,-1.50898c-3.05588,-1.2141 -6.61965,-2.80372 -8.29624,-5.89534c-1.70677,-3.14728 0.77304,-7.07579 3.63841,-8.31407c0.19977,-0.12644 0.38786,-0.12743 0.54166,-0.08306c0.16397,0.02831 0.33986,0.11687 0.46557,0.33556l0.41647,0.51465c0.50998,1.25278 0.87048,2.94042 2.05303,3.78159c1.23783,0.88049 3.53526,0.8234 4.99444,1.03175c3.66459,0.52324 7.57762,0.39379 11.22658,1.05926c0.09151,-0.04089 0.20347,-0.06591 0.34044,-0.06591z" fill="#feebf7" stroke="none" stroke-linecap="butt"/><path d="M276.8125,277.6875c-7.997,0 -13.86167,-2.75195 -20.5121,-6.09554c-0.00892,0.0275 -0.01771,0.05507 -0.02638,0.08271c0,0 -0.23717,0.71151 -0.94868,0.47434c-0.71151,-0.23717 -0.47434,-0.94868 -0.47434,-0.94868c0.03343,-0.09621 0.06803,-0.19169 0.10378,-0.28645c-0.5278,-0.26614 -1.06157,-0.53501 -1.60268,-0.80556c0,0 -0.67082,-0.33541 -0.33541,-1.00623c0.33541,-0.67082 1.00623,-0.33541 1.00623,-0.33541c0.52395,0.26197 1.04058,0.5225 1.55127,0.78059c3.05972,-5.74192 10.58629,-8.51356 16.32996,-10.26402c3.56825,-1.07881 3.38428,-0.80007 6.76661,-2.33666c4.46716,-2.02942 3.14434,-0.52466 7.97939,-1.00816c0.33162,-0.00039 18.62069,-2.37593 18.62069,-2.37593c3.45308,0.00002 0.4706,-3.55582 3.322,-1.28033c0.85254,1.0544 2.6349,3.37628 3.83347,4.8267c1.58319,-3.05028 1.49165,-7.75463 1.89079,-11.37919c0,0 0.08282,-0.74541 0.82824,-0.66259c0.0632,0.00702 0.12045,0.01881 0.17229,0.0345c0.61047,-0.23496 0.9157,0.3755 0.9157,0.3755c0.98495,1.96991 2.46837,3.90618 3.05672,6.02825c1.59798,5.76361 -2.09297,11.78961 -5.39178,16.19245c-3.14651,4.01951 -6.92251,6.47265 -11.64193,8.33923l-0.96277,0.14294c0,0 -0.43179,0.06168 -0.68384,-0.23831c-8.00824,0.09381 -15.72844,1.74585 -23.79723,1.74585z" fill="#ab164a" stroke="none" stroke-linecap="butt"/><path d="M273.98598,230.07625c0.0352,1.17236 5.7277,7.43419 4.46407,8.31597c-0.27927,0.13929 -0.64534,0.36828 -1.06667,0.63938c-1.80421,1.16089 -4.62176,3.09383 -5.97621,2.06122c-0.64789,-0.49394 -0.13432,-3.83738 -0.09318,-4.45256c0.23166,-3.46386 0.81343,-6.55333 1.6459,-9.88467c0,0 0.1819,-0.72761 0.90951,-0.54571c0.50785,0.12696 0.02611,0.85323 0.11658,3.86637z" fill="#ab164a" stroke="none" stroke-linecap="butt"/><path d="M318.16667,248.25c0,-0.75 0.75,-0.75 0.75,-0.75h0.16667c2.32214,0.02359 4.09187,1.53514 5.86366,2.88634c1.0965,1.54504 0.71967,3.50829 0.71967,5.36366c0,5.78905 -2.99093,13.39951 -8.04022,16.81535c-6.33451,3.17256 -12.8874,5.92044 -19.66399,7.90393c-2.55022,0.74644 -4.65917,1.69108 -7.37912,1.69739c-9.11925,0 -17.53636,-0.56204 -26.49269,-2.03799c-7.54094,-1.24276 -18.04673,-6.48582 -16.24502,-15.68055c0.2786,-1.67158 0.69464,-4.51915 2.04071,-5.72845c0.81875,-0.73557 1.92324,-1.18996 2.81805,-0.05681c0.5831,0.73841 0.04022,3.28017 -0.04027,4.149c-0.24559,2.65098 0.0359,4.99776 2.41916,6.43292c7.41303,2.96521 13.63673,5.46293 21.95346,4.42333c7.3428,-0.01017 15.50625,0.18677 22.44231,-2.61746c6.30175,-2.35806 11.67594,-6.6549 16.70244,-10.96774c0.14721,-2.65582 1.36236,-5.0947 2.551,-7.4735l0.10354,-0.25942c-0.23808,-1.21203 -0.49937,-2.43457 -0.50269,-3.60001c0,0 0,-0.00063 0.00002,-0.00185c-0.09695,-0.11049 -0.16668,-0.26945 -0.16668,-0.49815z" fill="#feebf7" stroke="none" stroke-linecap="butt"/><path d="M248.41667,269.75c0,0 13.07066,16.86133 53.81477,5.39237c7.58291,-2.13449 15.23217,-8.45693 19.36723,-14.28468c3.04585,-4.29267 2.65133,-9.94103 2.65133,-9.94103c0,0 0.80965,2.54918 0.98506,4.65402c0.20793,2.49512 0.18161,9.34598 0.18161,9.34598l-7.33333,8l-19.33333,7.16667l-22.83333,2.16667l-14.83333,-2.33333l-8,-4.33333z" fill="#db93e6" stroke="#db93e6" stroke-linecap="round"/><path d="M245.14618,252.41235c1.94765,-0.81731 2.63489,-1.68501 4.21865,-3.09148c0.41224,-0.3661 1.61224,-1.38029 2.23421,-1.27146c1.63452,0.286 1.83194,1.83177 2.43624,2.99378c0.17311,0.33287 1.34957,2.26673 1.32966,2.68074c-0.05639,1.17276 -1.20461,1.96255 -1.94237,2.63497c-1.94344,1.77131 -3.57959,3.80042 -5.64258,5.47888c-4.40616,2.31336 -10.52058,1.98025 -15.38767,2.10364c-2.7847,0.07059 -5.46893,0.47347 -8.25832,0.20936l-0.72085,-0.11383c0,0 -0.59241,-0.09482 -0.63273,-0.64469c-3.66822,0.24008 -7.23474,0.92545 -10.72484,2.26898c-3.3066,1.31913 -6.29531,3.32709 -9.58239,4.6663c-3.54092,1.44263 -8.24904,1.6355 -12.02484,1.6355c0,0 -0.29094,0 -0.51041,-0.18121c-0.34631,0.0366 -0.61519,-0.23228 -0.61519,-0.23228l-0.52588,-0.52949c-0.8588,-0.6116 -3.55265,-4.08904 -4.13627,-5.00894c-0.22282,-0.35121 -0.31284,-1.86729 -0.31618,-1.96404c-0.00916,-0.26532 0.63351,1.44936 0.97697,0.77664c0.12492,-0.24468 0.21026,-1.69047 0.21026,-2.09021c0,0 0,-0.75 0.75,-0.75c0.2535,0 0.42131,0.08568 0.53241,0.19912c1.69479,-1.17795 4.57158,-0.63626 6.55095,-0.63626c4.56533,0 9.60505,0.70757 13.85998,-1.26776c4.85369,-2.11028 9.7124,-4.35026 14.73618,-6.02708l0.1205,-0.13849c0,0 0.6,-0.45 1.05,0.15c0.02957,0.03943 0.05461,0.07821 0.07558,0.11626c7.20604,-0.01724 14.89542,-0.58044 21.93891,-1.96695z" fill="#db93e6" stroke="none" stroke-linecap="butt"/><path d="M203.15279,248.14985l-0.49971,-0.65919c0,0 -0.06921,-0.09228 -0.14365,-0.24484c-0.40554,0.04573 -0.90191,-0.06374 -1.31377,-0.6521c-0.86019,-1.22885 0.36865,-2.08904 0.36865,-2.08904c0.47619,-0.33333 0.95238,-0.66667 1.42857,-1l0.68125,-0.41242c0.06714,-0.04515 0.14108,-0.08828 0.22241,-0.12895c0.43796,-0.21898 0.80444,-0.22351 1.09944,-0.13026c0.29894,0.07971 0.60569,0.28028 0.85762,0.70016c0.06698,0.11163 0.11845,0.21938 0.15661,0.32309c0.50921,1.1648 0.74831,2.46536 0.77143,3.73437v0.49322c0.06221,0.30316 0.03835,0.66518 -0.21673,1.02668c-0.13983,0.2533 -0.36989,0.4981 -0.74839,0.61796c-0.36378,0.15903 -0.69811,0.1263 -0.97015,0.02775c-0.43002,-0.10409 -0.68636,-0.36083 -0.83918,-0.62994c-0.28481,-0.3255 -0.56962,-0.65099 -0.85442,-0.97649z" fill="#db93e6" stroke="none" stroke-linecap="butt"/><path d="M213.46798,236.10616c0.37461,-0.1873 0.69692,-0.21771 0.96693,-0.16424c0.27016,0.05274 0.55696,0.20292 0.83275,0.51812c0.17045,0.1948 0.27788,0.38541 0.33895,0.56746c0.51315,1.00626 1.28057,2.41413 1.17314,3.49596c-0.15263,1.53703 -1.33136,3.96352 -3.17496,4.24627c-1.98147,0.30389 -4.19743,-0.7674 -4.26009,-2.93373c-0.27936,-0.1241 -0.54804,-0.36647 -0.73337,-0.81127c-0.57692,-1.38462 0.80769,-1.96154 0.80769,-1.96154c0.95239,-0.37663 1.84078,-0.97396 2.55215,-1.71075l0.96381,-0.84424c0.12583,-0.14732 0.29874,-0.2849 0.533,-0.40203z" fill="#db93e6" stroke="none" stroke-linecap="butt"/><path d="M200.06737,250.73352c0,0.80434 -0.63309,1.46082 -1.42815,1.49831c-0.19495,0.09268 -0.41305,0.14455 -0.64327,0.14455c-0.82843,0 -1.5,-0.67157 -1.5,-1.5c0,-0.11462 0.01286,-0.22624 0.03721,-0.33349l-0.71409,-0.4138c-0.38568,0.14241 -1.29888,0.34088 -1.85424,-0.67729c-0.71828,-1.31684 0.59857,-2.03512 0.59857,-2.03512c0.52381,-0.28571 1.04762,-0.57143 1.57143,-0.85714l0.61334,-0.30773c0.00184,-0.00093 0.00369,-0.00185 0.00554,-0.00278c0.46595,-0.23297 0.85098,-0.22321 1.15511,-0.11122c0.3105,0.09288 0.62438,0.3161 0.85735,0.78204c0.04117,0.08233 0.07475,0.16214 0.10154,0.23941c0.36578,0.78718 0.99881,1.54217 0.8946,2.38596c-0.00944,0.07643 -0.02597,0.14989 -0.04862,0.22077c0.22068,0.26119 0.3537,0.59882 0.3537,0.96752z" fill="#db93e6" stroke="none" stroke-linecap="butt"/><path d="M200.47825,236.09065c2.88157,0.25897 5.04646,1.73301 6.72965,2.70855c2.32874,1.34968 5.24262,7.44185 7.57147,3.04386c1.54126,-2.45248 -0.38975,-4.98769 -2.63752,-6.35166c-0.69977,-0.42462 -8.59553,-2.16242 -9.67383,-2.14817c-3.47074,0.04585 -2.46935,2.58946 -1.98977,2.74742zM213.20819,233.79938c1.47271,0.89867 4.61627,3.96661 4.98749,6.31166c0.35596,2.24868 -2.33989,4.78006 -2.51814,4.99309c-3.61137,4.31585 -6.12604,-1.73354 -8.86872,-3.27922c-0.87322,-0.49212 -1.87472,-1.53581 -2.80384,-1.79684c1.91007,1.68044 3.09138,3.01897 3.81875,4.68542c0.76348,1.74918 0.07258,4.44963 -1.77493,6.33345c-0.36123,0.16866 -0.97343,0.47004 -1.56378,0.08429c-1.38214,-0.90313 -3.01792,-3.33194 -3.71167,-3.97434c-0.56095,-0.51943 -1.12635,-1.04628 -1.69855,-1.5725c1.27725,1.92102 2.13203,3.96727 1.64287,6.55452c-0.32958,0.90704 -1.53095,1.49169 -2.66204,1.58696c-0.75138,0.06328 -1.47174,-0.13596 -1.88491,-0.43115c-2.41957,-1.7287 -3.7553,-4.32578 -5.52574,-6.6347c-0.88508,-1.15427 -3.09225,-3.44522 -4.5488,-4.0556c-5.08009,2.15301 -12.70211,5.28125 -14.81262,7.87022c-0.93359,1.14524 -1.24014,4.12888 -0.60947,5.65501c0.34075,0.82456 1.1326,0.99196 1.81853,1.50907c3.38872,1.91613 24.55822,4.00524 29.82923,2.96773c2.65641,-0.52287 3.6552,-1.57886 6.25647,-2.36623l0.51995,-0.21331c0,0 0.21187,-0.08475 0.49078,-0.0913c1.42449,-0.7797 4.05094,-1.64427 5.716,-2.33111c2.1343,-0.8804 3.33202,-1.52726 5.24908,-1.95226c3.25729,-0.72212 5.61537,-0.48469 9.12558,-0.83267c3.87859,-0.38449 14.78973,-1.35186 16.32092,-2.34336c1.43703,-0.93053 2.70153,-2.87233 2.70153,-2.87233c-2.51003,0.41133 -4.59147,-0.01568 -6.75839,-0.01568c-0.64618,-0.04719 -1.37182,0.17245 -1.93854,-0.14156c-0.13786,-0.07638 -0.2516,-0.19452 -0.34459,-0.3459c-0.22516,-0.10128 -0.44396,-0.2188 -0.6547,-0.33717c-0.23246,-2.3748 -0.19201,-4.06592 0.42407,-5.8996c0.20069,-1.06095 1.13068,-3.21758 2.35995,-5.08295c0.06366,-0.20319 -1.68426,-0.16216 -1.28569,-0.35176c0.30202,-0.14367 2.30046,-0.81924 2.72508,-0.87772c0.3407,-0.20925 0.71443,-0.38238 1.12453,-0.50956c0.4636,-0.14377 0.96008,-0.2481 1.48016,-0.31874c-1.97943,-2.38207 -4.09314,-6.88431 -8.54006,-8.28295c-0.31638,-0.09951 -1.44472,-0.19106 -2.05912,0.39111c-0.77351,0.73291 -1.10469,2.26776 -2.16023,3.20997c-2.55389,2.27966 -4.20136,3.89143 -4.73045,3.88879c-0.00432,0.14008 -0.24599,2.51515 -1.47684,3.19566c-2.75741,1.52449 -7.92189,1.85117 -8.3645,1.32004c-0.38877,-0.46651 3.40544,-2.03587 5.47797,-3.24344c1.34035,-0.78096 1.27308,-1.35771 1.20404,-1.56509c-0.01173,-0.02916 -0.02191,-0.05794 -0.03074,-0.08594c-0.00216,-0.00564 -0.00435,-0.01128 -0.00656,-0.0169c0,0 -0.00449,-0.01346 -0.01079,-0.03772c-1.63809,-2.55864 -4.26619,-7.57176 -9.54988,-9.42454c-4.50012,-1.57801 -11.7161,-0.24566 -13.37449,0.18582c-3.85618,1.0033 -6.53746,2.57372 -2.92917,6.57963c0.25029,0.25014 0.50059,0.50027 0.75089,0.7504l0.59914,0.45621c0,0 0.05876,0.0457 0.13175,0.1282c0.13971,0.00106 4.04245,0.14912 6.29918,0.47089c2.89844,0.41326 4.43492,1.11308 6.14402,2.15599zM191.90825,237.61979c3.78924,2.05529 5.42701,2.90539 8.55733,5.81965c0.09354,0.08708 3.91719,5.73504 5.169,5.27662c1.47689,-4.43434 -4.59562,-9.08196 -8.02311,-11.0982c-2.36116,-1.38896 -4.81143,-3.13371 -5.70323,0.00192zM189.61988,235.38089c0.64658,-1.17146 1.20452,-1.77103 2.7942,-2.18769c1.0814,-0.28343 3.17749,-0.48223 4.01138,-0.71883c0.94652,-0.26855 0.73949,-1.17743 0.65684,-1.26014c-0.54021,-0.60067 -0.39404,-1.22904 -0.82538,-1.91382c-3.20811,-2.48051 -0.67771,-5.00994 0.31315,-5.98807c0.59822,-0.59053 1.85412,-0.92995 1.85412,-0.92995c0.38263,-2.30169 0.81068,-5.15815 1.54999,-7.3749c0.77229,-2.00795 1.74653,-5.66927 3.5104,-7.08893c1.12008,-0.9015 2.29423,-0.66921 3.53597,-0.51225c3.79986,0.48032 7.9656,3.01964 11.32911,4.85182l0.17107,-0.21994c0.36473,-0.48183 0.67883,-1.00384 0.95183,-1.5434c-1.19772,-1.26155 -4.93207,-6.03501 -4.47333,-7.99104c0.81612,-3.47987 12.11736,-10.24088 14.8778,-11.89735c3.89803,-2.3391 8.55437,-4.33361 12.46424,-6.53174c-0.20287,-1.72555 -1.07876,-3.81594 -1.09126,-5.67468c0,0 -0.62195,-2.01941 0.69511,-3.99929c1.23702,-1.85957 4.87603,-4.52981 6.09615,-5.4691c5.04867,-3.88663 15.23097,-5.88161 21.50874,-5.88161c2.46839,0 7.36252,0.96466 7.58551,1.11283c1.72449,-1.40896 4.94561,-3.21608 8.69434,-3.87687c2.02127,-0.35629 5.34852,-0.02467 6.07038,0.08018c4.34673,0.63141 5.35691,4.5857 4.19291,8.40657c-0.27799,0.91253 -3.98884,6.31841 -3.58871,10.57633c0.4284,4.55874 5.3486,12.98177 5.44044,16.16378c0.07452,0.29269 0.0073,0.56067 -0.08846,0.76618c-0.08317,0.22832 -0.24026,0.48417 -0.53693,0.6362l-0.46046,0.40283c-1.27484,0.63742 -2.38124,1.29725 -3.71542,1.59015c-0.00257,0.04352 -0.00616,0.06859 -0.00616,0.06859c-0.60906,4.19232 -0.26416,6.58975 2.33865,9.84235l0.42281,0.19586c0.23147,0.07789 0.43265,0.2217 0.58122,0.40912c0.1046,0.12224 0.2063,0.28048 0.25935,0.4712c0.61054,0.32943 0.61054,1.10469 0.61054,1.10469c0,0.46667 0,0.93333 0,1.4l-0.08192,0.38076c0.08567,0.0688 0.16705,0.15606 0.24067,0.26589l0.63131,0.65997c1.74077,2.62017 3.44734,5.3449 5.00987,8.09831c0.14718,-0.10818 0.40432,-0.25916 0.71357,-0.27938l1.10363,-0.2683c2.81982,-0.69349 3.66884,0.16185 4.88185,2.29575c1.84579,3.24708 2.3025,4.96871 1.1928,7.13257c-1.28702,2.50961 -4.59234,4.41687 -7.10603,6.13385c4.41629,1.68682 7.22162,3.41047 11.00158,6.68035l3.32781,2.11356c2.1227,1.06074 5.69561,3.21084 7.81872,4.27239c0.3528,0.09371 0.56085,0.31295 0.68354,0.53893c0.14725,0.2108 0.2503,0.49493 0.17634,0.85239c0,3.64952 0,7.41574 0,11.06116c0,1.45108 0.25878,3.24315 -0.35066,4.61644c-1.84228,4.15141 -8.35283,7.70775 -12.30183,9.2908c-8.64337,3.59956 -17.37437,7.04262 -26.74887,7.43271c-18.73179,0.51232 -23.50231,-1.46882 -25.30522,-2.12192c-4.6549,-1.15876 -10.00798,-3.9183 -13.55231,-7.45916c-2.60543,-2.60287 -2.98083,-7.30664 -2.25506,-11.19193c-2.15142,0.91906 -4.4515,1.03321 -6.89182,1.27729c-0.40523,0.04053 -0.81002,0.08026 -1.21445,0.11906c-6.23392,1.39906 -13.19377,2.1174 -19.48828,1.75116c-0.23677,0.44632 -0.794,0.50445 -0.794,0.50445l-1.40238,0.14553c-3.30497,0.61014 -5.83096,1.5709 -10.20086,3.07297c-3.49961,2.17795 -6.06791,2.82796 -10.51333,3.31624c-6.35259,0.69777 -13.46953,0.40594 -19.45036,-0.98119c-1.86598,-0.43277 -2.64793,-0.8217 -4.30468,-1.31857c-2.52338,-0.77603 -5.7746,-1.25308 -7.80833,-3.46805c-0.63824,-0.69511 -1.88261,-3.43712 -2.40816,-4.59612c-0.7568,-1.66898 -0.60862,-1.90985 0.05259,-3.6535c0.38679,-1.01998 1.59708,-2.35183 2.21075,-3.29508c0.77032,-1.18403 1.75826,-2.18697 2.82021,-3.10108c0,0 0.31615,-0.90914 0.88143,-1.86498c0.44102,-0.74573 1.10485,-1.51989 1.42332,-1.91289c2.93847,-3.62616 12.71514,-8.83181 12.71514,-8.83181c0,0 -0.07514,-2.2252 1.96155,-3.36513c0.96422,-0.53967 2.30094,-0.30927 4.37831,-0.36978c0.86594,-0.02523 1.15718,-0.81779 1.22342,-0.95277zM185.65352,240.18994c4.99712,1.97897 6.55255,4.53491 9.9752,8.52688c0.67593,0.78835 3.07782,4.20904 3.61477,2.10172c0.01928,-1.57594 -0.9468,-2.48488 -1.82263,-3.69746c-1.64352,-2.27543 -4.0045,-5.33785 -6.53775,-7.04721c-0.02328,0.00377 -1.78677,-1.15755 -2.74923,-1.15226c-1.68518,0.00926 -2.48036,1.26832 -2.48036,1.26832zM304.6859,249.07051c2.58999,0.97232 4.9237,4.03731 1.0361,5.2823c-4.23525,1.35632 -8.92604,0.64851 -13.23803,1.52267c-5.73169,0.4804 -11.48915,1.50208 -17.03465,3.18713c-2.27359,0.69085 -7.57954,3.71731 -10.86893,2.40375c-1.50767,-0.60206 0.46236,-4.70246 0.64855,-5.11222c-0.20909,-0.02378 -0.93273,0.46701 -1.50275,0.51503c-3.28271,0.27654 -1.02169,-3.67338 -0.0913,-5.06044c-1.6706,0.0189 -3.27794,1.07706 -3.96573,-0.99842c0.27579,-1.17543 0.67708,-2.63165 1.44506,-3.9476c0.62622,-1.07304 1.56328,-2.05281 2.32506,-2.71105c-0.28658,-0.13476 -0.45257,-0.38375 -0.45257,-0.38375l-0.5362,-0.80856c-0.7824,-1.37345 -1.77451,-2.38003 -2.31079,-3.87436l-0.09404,-0.21222c-3.96323,-1.55871 -9.26647,-3.17943 -13.35192,-3.15957c0,0 -0.47086,0.00001 -0.8346,-0.28898c-2.82546,0.85585 -4.18555,3.23424 -4.67508,6.15913c-0.17776,1.06212 -0.66179,2.93996 -0.30514,3.90649c0.10879,-0.02663 0.18982,-0.02663 0.18982,-0.02663h0.625c0.34951,0 0.69772,-0.00566 1.04483,-0.01599c-0.07715,-0.3212 -0.02056,-0.60415 -0.02056,-0.60415c0.58651,-2.14449 0.79817,-2.97188 4.22573,-2.55031c3.09605,-0.25149 2.78591,2.14744 2.28954,2.64721c1.43571,-0.12687 5.52659,-0.08331 5.08546,0.52324c-0.54546,0.75 -1.25627,0.75302 -1.50862,0.75867c-0.05537,0.02814 -0.11135,0.05571 -0.16789,0.08272c1.18075,2.11461 2.39192,4.44576 3.23784,6.6825l0.06925,0.20666c0.12288,0.19953 0.13848,0.4142 0.11825,0.59044c-0.00419,0.15164 -0.03828,0.3274 -0.14178,0.48779c0.03163,0.2062 0.00183,0.37011 0.00183,0.37011c-0.42329,2.32634 -0.91062,3.88516 -2.45329,5.69693c-0.21066,1.80635 -0.38909,3.84235 0.14267,5.31792c0.55166,1.53075 2.20169,2.22344 3.47336,2.98649c3.69181,2.21524 7.89954,2.82057 12.07287,3.71418c6.16992,0.87873 12.06544,0.81142 18.14362,-0.49167l0.51191,-0.02775c0,0 0.05732,0 0.1474,0.01227l0.6238,-0.13295c5.85015,-0.48749 12.38252,-2.40607 17.56338,-5.18748c5.08647,-3.71149 12.77806,-8.34598 10.70701,-15.87213c-0.1484,-0.53928 -2.87718,-4.61278 -6.07899,-7.25952c-3.65827,-3.02406 -8.01736,-4.6576 -11.29309,-5.2022c0,0 -1.23299,0.43086 -1.02749,-0.80213c0.2055,-1.23299 3.79656,-2.92246 4.69682,-3.50468c-0.59203,-0.09848 -0.58883,-0.43122 -0.58883,-1.05119c0,-0.22846 0.06129,-0.44261 0.16833,-0.6269l0.61397,-1.10515l0.04014,0.0223l0.03012,-0.13437c1.31128,-1.50691 3.43658,-4.15496 4.99992,-0.83362c0.16096,-0.21864 0.30354,-0.44177 0.42449,-0.66962c1.36384,-2.56936 -0.79136,-6.10057 -3.78363,-5.3236c-0.02351,0.0061 -2.43989,1.68359 -3.74222,2.91306c-1.72002,1.62379 -2.51174,3.00741 -3.30622,4.07368c-2.55899,3.4344 -3.00653,4.7782 -5.41473,7.16259c2.68625,0.44223 4.65118,1.77308 5.80656,4.8426l0.06367,0.97612c0,0 0,0.08126 -0.02317,0.19746c0.09127,0.0378 2.74347,0.68114 3.17873,0.91464c2.32581,1.2477 3.06117,3.82311 3.06117,3.82311zM275.039,257.158c5.65248,-1.72045 11.32111,-2.77907 17.16535,-3.26288c3.14302,-0.62058 6.46475,-0.52209 9.65438,-0.8787c0.65103,-0.07279 3.54981,-0.1655 3.86784,-0.55086c0.31095,-0.37679 -2.22758,-2.10496 -4.29444,-1.94684c-7.38004,0.56459 -19.31695,1.80099 -22.87052,2.34486c-2.04253,0.3126 -8.53217,1.6999 -11.43188,3.6313c-1.43923,0.95862 -1.33751,3.20494 -1.35233,3.62952c3.01668,-0.29109 6.33491,-2.0756 9.26162,-2.96641zM287.3963,242.99135c3.09142,-0.03423 5.52222,-0.24326 8.57324,0.50534c-1.12324,-2.84305 -3.13719,-2.6916 -5.95889,-2.75579c-1.09472,0.94944 -1.1475,1.43086 -2.61435,2.25045zM268.4194,250.20329c-0.76214,0.53144 -4.88643,3.06726 -3.6663,3.86855c3.60349,-0.42899 12.68821,-3.04071 16.2042,-3.58496c6.57118,-1.01718 7.87293,-1.55157 14.56187,-1.55157c1.23859,0 2.65253,-0.2856 4.01398,-0.30029c0.91733,-0.0099 1.81081,0.32161 2.61077,0.12004c-0.41037,-0.80941 -1.46454,-2.68545 -3.51942,-3.23022c-2.07988,-0.55139 -9.36405,-1.2235 -15.92862,-0.27463c-6.42421,0.92858 -12.12965,3.45612 -14.27647,4.95307zM277.61948,239.79593c-3.26621,0.96898 -8.5491,3.36236 -12.08268,5.86811c-1.82067,1.29108 -3.03002,1.95092 -3.56765,3.84626c-0.13126,0.44914 3.35688,-0.64174 3.98866,-0.64975c6.27975,-3.12456 9.73505,-4.25863 15.26618,-5.39294c-1.21871,-0.97511 -2.47026,-2.14943 -3.60451,-3.67168zM218.1875,262.84659c2.7458,-0.27272 18.30476,-0.88601 22.79772,-1.72843c0.83819,-0.30005 1.79967,-0.31943 2.68073,-0.48504c1.98969,-0.67284 3.71975,-1.44193 5.24352,-3.0386c0.94049,-1.55786 1.78193,-2.86691 3.57414,-3.8177c0.233,-0.12361 0.90253,-0.66388 1.03496,-0.69051c-0.61649,-1.59376 -1.06814,-2.97974 -1.91272,-4.53956c-0.16948,0.35215 -0.47498,0.55582 -0.47498,0.55582l-0.24525,0.15066c-1.19287,1.03977 -1.10418,0.4865 -1.74793,1.09694c-0.75782,0.71859 -2.25007,2.55882 -3.93485,3.3199c-4.0291,1.10666 -11.14651,1.22205 -15.25755,1.63537c-2.77961,0.27946 -8.27675,-0.05808 -10.88348,0.42017c-1.26209,0.23155 0.14713,0.56875 -0.811,0.98955c-2.07309,0.91049 -5.3743,2.21242 -7.94315,3.68266c0,0 -6.10255,2.10179 -8.89088,2.66621c-4.72857,0.95716 -23.09821,-0.65679 -30.99026,-2.97789c-2.24669,-0.66077 -3.56073,-3.49198 -3.57167,-3.58076c-0.4862,0.4955 -0.8434,0.30165 -1.21908,0.88576c-0.57615,0.8958 -1.37917,1.45443 -1.76653,2.40947c-0.20288,0.50021 0.8426,2.45205 1.72719,3.55862c1.98129,2.4785 3.80087,4.09687 6.06345,4.79189c10.1231,3.0379 24.43755,3.69039 32.98164,-0.75625c2.6627,-1.33222 10.1807,-4.21401 13.54597,-4.54826zM232.55743,218.78696c0.34877,-0.93721 6.13673,4.19659 6.21635,4.42674c3.24138,0.77023 6.79176,4.73192 8.52107,7.33992c0.23057,0.34773 1.19191,2.02677 1.29218,3.07034c4.07162,0.18173 8.55521,1.579 10.12441,2.12269c-0.87809,-3.39893 1.32137,-5.47899 4.23333,-7.05134c0.80858,-0.7241 2.71708,-1.67147 5.13324,-2.52347c1.98503,-0.69997 5.55861,-1.44882 6.06059,-1.67604c0.83698,-0.37886 1.15183,4.56274 1.39886,5.37744c0.56624,1.86741 4.47979,8.88329 7.65966,11.88058c2.73588,-0.1419 4.84141,-2.04594 6.60888,-3.90871c2.91473,-3.07189 4.9101,-7.0346 7.29703,-10.19908c1.16715,-1.54735 2.68505,-2.81199 4.15613,-4.10506c-1.56083,-2.7934 -3.28495,-5.5761 -5.05395,-8.2301c-1.34109,0.66774 -2.58387,1.52604 -3.94617,2.20719l-0.16918,0.0846c-0.23527,0.19716 -0.5073,0.251 -0.73774,0.24964c-0.2319,0.02069 -0.51077,-0.01122 -0.76366,-0.19303c-3.8134,-1.58993 -7.23221,-4.27232 -10.79864,-6.31811l-0.43039,-0.14092c-2.56061,2.11921 -5.44605,5.02536 -8.69626,8.29316c0,0 0.08985,-1.35033 0.5321,-2.33273c0.1225,-0.27212 0.21302,-0.78239 0.24444,-0.85601c-0.99768,0.4193 -3.53991,1.30782 -5.59786,1.69653c-7.55594,1.42719 -19.33485,1.6461 -29.68022,-0.23396c-6.24409,-1.13473 -12.95517,-4.44764 -15.18154,-5.85707c-0.26263,0.4646 -0.55181,0.91469 -0.86991,1.34205l-0.67177,0.86376c-0.18171,0.27862 -0.40712,0.39313 -0.61938,0.42664c-0.20861,0.05239 -0.46114,0.03528 -0.73781,-0.15034c-2.27806,-1.26942 -7.26337,-3.39142 -10.53368,-4.20999c-1.50746,-0.37732 -2.89284,-0.1748 -3.04736,-0.02583c-1.36187,1.31301 -1.9914,3.83112 -2.64345,5.52645c-0.69418,2.08365 -1.08823,4.02947 -1.45001,6.19433c0,0 9.9507,-3.10665 13.50735,-2.52636c6.24024,1.01814 11.61155,9.79665 13.32141,12.45947c0.28528,-0.32917 3.1706,-2.65245 4.79016,-4.5469c0.49335,-0.57708 1.19913,-2.35147 1.26026,-2.45032c0.59189,-0.95716 1.37883,-1.47769 2.28695,-1.68761l-0.01539,-0.01522c0,0 -3.16165,-3.88893 -3,-4.32331zM275.67928,236.52456c-1.42392,-3.07668 -2.32524,-7.46678 -2.41822,-8.15865c-0.02451,-0.18237 -0.0307,-0.4654 -0.01919,-0.75851c-0.19072,0.1449 -1.85145,-0.09187 -2.40578,0.10205c-1.02632,0.35904 -2.36794,0.82515 -3.67302,1.2209c-3.79627,1.49817 -8.26594,3.1174 -5.96182,7.72427c0.17037,0.06504 0.33889,0.12995 0.50543,0.1946c0.32508,0.0423 1.11207,0.24715 1.11207,1.23898c0,0.54678 -0.23917,0.85439 -0.50829,1.02744c0.50337,1.00537 1.29821,1.8422 1.87653,2.85143l0.4638,0.69143c0,0 0.11948,0.17921 0.16436,0.42675c3.48518,-2.43683 8.10449,-3.944 11.65849,-5.02954c-0.27808,-0.48043 -0.54385,-0.98985 -0.79437,-1.53115zM319.27718,250.0185c2.39157,8.82382 -3.05854,13.66111 -10.15662,17.71878c-5.51768,2.97876 -14.08431,5.9517 -20.32299,6.47161l-0.95764,0.22455c0,0 -0.26969,0.05993 -0.58367,-0.00335c-6.19754,1.25417 -12.23445,1.29094 -18.53197,0.38869c-5.32448,-1.14173 -15.17717,-2.19732 -17.45378,-8.29932c-0.51135,-1.37057 -0.53533,-3.06682 -0.42,-4.73422c-0.02294,-0.51471 -0.03121,-1.03972 -0.03166,-1.57527c-1.41665,1.59471 -1.84042,3.57402 -2.14122,5.30712c0,0 -0.00673,0.03697 -0.02473,0.09528c-0.01382,0.05261 -0.03231,0.10944 -0.05706,0.16733c-0.10466,2.50072 0.28102,3.97159 1.7659,5.45871c3.24248,3.24739 7.99629,6.58871 12.24314,7.65447c1.08107,0.39434 13.26608,2.55772 25.57929,1.52948c10.4731,-0.87457 20.37745,-5.1257 24.52571,-6.85505c2.76562,-1.10366 10.6506,-7.23637 11.40272,-8.86828c0.60566,-1.31414 0.33116,-2.33024 0.33116,-3.73584c0,-3.03415 0,-6.06831 0,-9.10246c-1.82978,-0.91489 -3.65654,-1.8283 -5.48577,-2.74341c0.12643,0.29624 0.23645,0.59589 0.31919,0.90115zM293.74089,194.8547c0.12127,-0.48507 1.06788,0.09774 1.06788,0.09774l0.59361,0.1586c0.01074,0.00782 0.02148,0.01565 0.03221,0.02347c-0.19556,-2.93166 -3.46365,-8.58104 -4.80027,-12.92112c-0.8771,-2.84801 -0.42851,-5.13221 -0.30879,-5.71471c0.52461,-2.55267 2.37358,-5.66922 3.13133,-8.09638c0.30385,-0.97324 -0.5649,-4.50549 -1.56153,-5.09485c-2.1173,-1.25206 -3.97876,-0.45598 -6.32621,-0.45936c-2.42457,0.22977 -4.05102,1.60094 -5.86115,3.10569c-3.33546,2.77273 -7.15222,5.99124 -11.04167,7.96058c-0.21279,0.43696 -0.6739,0.63458 -0.6739,0.63458c-3.31916,1.41637 -8.99125,2.58816 -13.62682,2.17216c-4.44547,-0.39893 -7.92764,-2.35852 -7.92764,-2.35852c-0.23042,0.31725 -2.45071,2.38351 -2.86104,2.60198c-0.27967,0.14891 1.38788,6.16452 1.80029,8.25943c0.21579,1.09611 -0.24445,1.50358 -0.24445,1.50358c-4.06748,2.35791 -9.14143,3.75034 -13.20977,6.19102c-3.79618,2.27742 -12.55075,6.99795 -13.81234,9.78484c-0.34883,0.77056 1.82909,4.61527 5.82027,7.36864c3.89547,2.68735 9.28012,4.53179 15.0257,5.50234c7.88899,1.33263 16.3496,1.4739 22.8513,0.69952c3.08621,-0.36758 5.82788,-1.42566 7.6776,-1.76104c1.65534,-0.30014 3.61349,-0.63668 3.61349,-0.63668c-0.05813,-3.67363 -1.23741,-8.00962 -0.42208,-11.73422c0.25694,-1.17377 0.40295,-4.14642 0.76373,-6.00487c0.547,-2.81777 1.28798,-4.4729 1.28798,-4.4729c-5.16245,-7.03978 -3.72708,-7.98138 -3.72708,-7.98138c3.10897,4.68955 9.16534,11.0458 14.43595,12.51359c2.04177,0.5686 4.48612,0.46242 6.57389,0.35672c0.86782,-0.04394 1.61392,-0.35794 2.34634,-0.7364c-0.11374,-0.08885 -0.68105,-0.70524 -0.61684,-0.96205zM280.81021,209.05887c3.45632,1.96929 6.76666,4.59412 10.43979,6.16817c1.18045,-0.59937 2.26495,-1.29574 3.40636,-1.91139c-0.01405,-0.23872 0.03096,-0.41881 0.03096,-0.41881l0.16268,-0.49683c0,-0.37736 0,-0.75472 0,-1.13208c-0.03298,-0.02012 -0.06495,-0.04171 -0.09582,-0.0647l-1.23027,-0.82235c-2.93111,-3.66495 -3.49892,-6.7235 -2.92953,-11.24683c-1.94828,0.06848 -3.51802,-0.24455 -5.29343,-0.76123c-2.72411,-0.79277 -4.24474,-2.2498 -8.92145,-4.93475c-1.25781,2.97922 -1.42507,15.19332 -1.16415,18.14541c0.92289,-0.9147 1.89778,-1.78419 2.92757,-2.6177c0.21267,-0.27015 0.48886,-0.37417 0.73615,-0.40449c0.24284,-0.05712 0.53843,-0.05491 0.83175,0.12577zM274.37989,166.69854c-2.66156,-0.69468 -5.33223,-0.64853 -8.07989,-0.64853c-5.90024,0 -16.57015,3.27822 -18.73228,7.06574c3.82202,2.06798 12.15454,2.54255 18.05453,0.41834c4.93668,-1.77738 7.75798,-5.97398 8.75763,-6.83555z" fill="#000000" stroke="none" stroke-linecap="butt"/></g><g><g><path d="M343.01558,154.57737c-0.30158,0.54484 -0.75465,0.56258 -1.05357,0.49842c-0.09801,2.56536 -2.36269,4.41547 -4.30842,6.13814c-1.34212,1.18825 -3.17248,1.6356 -4.80067,1.49235c-4.23181,-0.37232 -7.58615,-1.26065 -11.57847,-2.60255c-2.35603,-1.3951 -8.13824,-2.41404 -8.78122,-5.44854c-0.6244,-2.94679 3.09296,-3.18081 4.93499,-3.33598c6.55045,-0.55175 12.63469,-0.73155 19.1543,0.3862c1.80216,0.30971 3.50791,0.51507 5.24412,1.08998l0.79832,0.42277c0,0 0.87491,0.48428 0.39063,1.3592z" fill="#0f1b82" stroke="none" stroke-width="0.5" stroke-linecap="butt"/><path d="M312.81224,151.06237c0.08015,-0.77304 0.91289,-0.84187 0.91289,-0.84187l1.39524,-0.11532c2.73056,-0.22568 5.46688,-0.24908 8.18861,-0.47611c5.31615,-0.43938 13.79609,-2.42303 18.37911,0.9215c2.34158,1.7088 0.98674,5.97672 -1.02248,7.3877c-0.77005,0.54077 -3.0966,0.27419 -3.99039,0.20235c-8.40992,-1.01393 -15.94595,-1.59621 -23.65905,-5.39567c0,0 -0.89695,-0.44212 -0.45484,-1.33908c0.07321,-0.14854 0.1589,-0.26035 0.25092,-0.34353z" fill="#0066cc" stroke="none" stroke-width="0.5" stroke-linecap="butt"/><path d="M310.24684,143.25831c0.00534,-0.13832 0.05807,-0.2924 0.1945,-0.45341c0.48485,-0.57221 1.05705,-0.08737 1.05705,-0.08737l0.83043,0.75408c0.85632,3.27802 0.29512,5.60739 -0.48655,8.75824c-0.55035,2.21843 -0.27536,4.87497 -0.65173,7.16905c-0.43174,2.14113 -2.19743,6.54259 -4.59102,6.83138c-2.34007,0.28232 -4.65049,-2.23536 -5.79992,-3.50284c-1.01681,-1.12123 -3.85697,0.6328 -4.95036,-1.62276c-0.19451,-0.40126 -0.10022,-0.8862 -0.15033,-1.32929c0.72688,-5.20804 5.67084,-7.59719 8.8505,-11.10985c1.78102,-1.96754 3.65094,-3.69689 5.69744,-5.40722z" fill="#fddfbd" stroke="none" stroke-width="0.5" stroke-linecap="butt"/><path d="M305.62716,156.57471l0.20807,0.05705c-0.03902,0.16146 -0.08634,0.33211 -0.13938,0.5099c0.05268,1.183 -0.43876,2.36752 -1.02704,3.64039c-0.19943,1.52052 0.26372,2.70065 2.72908,2.49845c0.56735,-0.04653 1.12494,-0.18643 1.67329,-0.34289c0.11576,-0.06462 0.26489,-0.09931 0.45539,-0.06905c0.13987,0.01129 0.304,0.05841 0.43616,0.19307c0.13991,0.12659 0.19365,0.28868 0.21061,0.42798c0.03982,0.19834 0.00639,0.35414 -0.05951,0.47493l-0.09562,0.35076c-1.51023,3.23326 -3.71543,10.59895 -8.70717,7.06743c-0.05612,-0.03971 -2.11438,-1.89061 -2.15243,-1.92477c-1.05072,-0.74474 -3.03995,-1.70632 -3.6103,-2.92655c-2.54604,-5.4471 4.83157,-10.59806 8.97553,-12.38169c0,0 0.68956,-0.29497 0.98453,0.39459c0.10749,0.25127 0.08425,0.45015 0.01127,0.60145c0.10988,0.09973 0.19054,0.23204 0.22596,0.38338l0.18333,0.7252l-0.11284,0.02853l0.01888,0.22838l-0.21727,0.01796c0.00325,0.01518 0.00639,0.03035 0.00945,0.04551z" fill="#f89587" stroke="none" stroke-width="0.5" stroke-linecap="butt"/><path d="M289.47403,104.49775c3.51431,4.33131 4.02615,12.47377 3.47377,17.88886c-0.54811,5.37318 -6.98848,14.4593 -8.59526,17.70279c-2.60714,5.26279 -2.88744,7.31742 -6.39902,10.8692c-3.96422,4.0096 -14.03893,1.40349 -19.07875,1.90021c-3.53143,0.34806 -7.36722,0.78647 -10.89833,1.13771c-7.60442,0.75641 -15.88405,1.52546 -23.49543,2.19533c-0.06887,0.00606 -4.15312,0.61979 -7.38815,0.59981c-0.15417,0.00168 -0.30755,-0.00083 -0.46002,-0.0074c-3.1884,-0.13748 -5.97948,-2.05544 -7.30501,-4.84874c-3.41411,-5.37889 -3.56044,-14.45496 -4.61914,-19.66063c-0.61113,-3.0049 -1.01476,-5.97636 -1.55445,-8.97336c-0.73773,-4.09674 -1.99876,-6.14486 -1.6291,-10.60533c0.25016,-3.01847 -1.47719,-11.09713 0.40543,-12.38954l0.84344,-0.57902c4.37942,-5.88784 16.27543,-8.70086 21.73505,-10.47442c4.59862,-1.49386 10.73065,-1.553 15.1589,-2.03542c1.70988,-0.18627 3.06498,-1.21908 4.80977,-1.15009c2.209,0.08734 4.7781,1.30241 6.91745,1.18424c11.06017,-0.61088 24.01701,0.0422 33.9878,4.95687l1.34871,1.14279c1.41982,1.20304 2.44702,2.86945 2.83531,4.79052c0.10113,0.35995 0.15011,0.70359 0.1447,1.04198c0.1254,1.62604 -0.21588,3.18154 -0.9116,4.53404c0.23252,0.25277 0.45727,0.51256 0.67394,0.7796z" fill="#ff2d32" stroke="none" stroke-width="0.5" stroke-linecap="butt"/><path d="M285.28065,93.3668c0.27902,-0.69617 0.97518,-0.41715 0.97518,-0.41715l0.53515,0.22751c0.72057,0.45461 1.39207,0.98635 2.04236,1.5368c1.93052,2.03934 1.57499,2.92728 3.58577,4.70541c1.62601,1.43787 4.90078,5.14388 5.58446,7.09194c1.12977,3.2192 2.35577,5.90546 4.10491,8.79233c0.86942,2.03247 2.08613,3.80054 2.55481,6.00534c0.27419,1.28989 0.28298,2.7591 0.88742,3.9679c1.01818,2.03622 2.74978,3.63696 3.6891,5.72847c1.02166,2.27488 0.91616,4.96231 0.63581,7.38853c-0.73579,4.49471 -2.98221,7.38583 -5.95387,10.70635c-1.49038,1.66534 -3.1331,4.02621 -5.40943,4.65377c-1.24094,0.34211 -2.83385,0.24779 -4.12664,0.35464c-1.97384,0.13961 -3.63785,-0.89862 -5.58876,-0.9485c-3.20788,-0.08203 -5.2473,-1.19961 -8.2142,-2.18687c-3.03677,-1.01052 -6.21586,-1.49144 -9.2883,-2.37342c-2.64513,-1.24067 -2.11874,-3.10541 -1.8594,-5.75953c0.39524,-4.04475 1.72184,-8.15498 1.38582,-12.22047c0,0 -0.00293,-0.03552 0.00022,-0.0917c0.00135,-0.05625 0.00713,-0.09142 0.00713,-0.09142l0.12917,-0.78413c0.29635,-3.45193 1.41498,-7.00387 1.95446,-10.42488c0.00007,-0.00048 0.00011,-0.00073 0.00011,-0.00073v-0.00001l0.13863,-0.84206c1.48848,-6.10131 2.06181,-11.83864 4.30906,-17.74054c-0.02071,-0.13222 0.00394,-0.25589 0.04127,-0.35701c0.02987,-0.10923 0.08557,-0.23058 0.18855,-0.3288c0.60206,-3.84715 4.03621,-6.01654 7.68476,-6.57527c0.00209,-0.00547 0.00425,-0.01098 0.00646,-0.0165z" fill="#ab164a" stroke="none" stroke-width="0.5" stroke-linecap="butt"/><path d="M209.62542,155.02587c0,0 -4.42068,-19.83256 -6.73697,-36.23121c-1.40855,-9.97214 -2.87632,-18.60524 0.31925,-20.93632c17.91599,-13.06927 44.195,-10.74916 57.01544,-10.49334c7.6792,0.15323 21.77003,1.90896 26.68239,6.59746c9.60444,9.16672 14.60538,20.30593 18.1034,28.39656c3.13561,7.25241 5.25399,11.97374 5.25399,11.97374l-2.16611,10.21313l-11.29476,11.05124c0,0 -35.3162,-11.20933 -50.88003,-10.65416c-24.73936,0.88246 -36.29659,10.08292 -36.29659,10.08292z" fill="none" stroke="#000000" stroke-width="3" stroke-linecap="round"/><path d="M269.52669,148.06818c0,0 0.40245,-26.85038 8.4117,-49.24541c1.4955,-4.18162 6.9056,-5.20129 6.9056,-5.20129" fill="none" stroke="#000000" stroke-width="1.5" stroke-linecap="round"/><path d="M213.32754,160.20789c2.27524,-5.3944 6.67261,-6.7744 12.04526,-8.59932c2.35595,-0.80024 4.7676,-1.87454 7.19008,-2.43631c6.82583,-1.58294 14.97117,-0.42586 21.69439,1.05125c9.84697,2.80077 20.65755,4.20527 28.7806,10.79643c1.37871,1.1433 1.63558,1.7349 2.40127,3.32301c4.58157,9.50261 -8.44177,11.06255 -14.34802,14.19282c-5.64659,2.81888 -12.52113,5.15545 -18.78435,6.22356c-2.51801,0.42942 2.19196,-0.99223 -0.28993,-0.36914c-8.31687,1.74457 -24.78303,3.65675 -33.17517,2.51542c-4.84476,-0.66219 -10.32108,-1.75835 -14.55739,-4.31057c-3.704,-2.23152 -3.76311,-5.77304 -1.11072,-8.80258c2.73343,-1.37239 5.35057,-2.93188 8.28449,-3.87212c0.68318,-0.21894 3.18328,-0.55526 3.68884,-1.27249c0.29232,-0.41473 -0.27514,-0.9768 -0.40726,-1.4667c-0.5678,-2.10561 -1.65049,-3.94965 -2.29676,-6.00373c0,0 -0.22245,-0.71625 0.49379,-0.93871c0.15154,-0.04706 0.28097,-0.05211 0.39087,-0.03081z" fill="#fddfbd" stroke="none" stroke-width="0.5" stroke-linecap="butt"/><path d="M209.6751,155.22243c0,0 23.85999,-10.47156 37.11499,-10.37394c15.40372,0.11344 49.83321,11.01424 49.83321,11.01424l-0.82029,9.49985l-2.11016,1.17782l-9.40427,5.19227l-3.68335,-5.71603l-8.22809,9.71074c0,0 -10.4569,-17.85791 -12.50594,-18.11667c-2.05367,-0.25935 -15.97387,11.03849 -15.97387,11.03849l-3.21064,-16.99329l-27.01526,13.06965z" fill="#f89587" stroke="#f89587" stroke-width="0.5" stroke-linecap="round"/><path d="M304.80407,155.53473c-1.78751,0.98115 -3.74712,2.12012 -5.51199,3.20369c0.63743,1.72164 2.21162,3.99343 3.37445,5.62177c0.80917,-2.85192 2.07129,-5.89856 2.13756,-8.82545zM296.90494,160.2822c-0.33766,2.48601 -0.35968,5.32462 -0.35968,5.32462c1.24239,0.79683 7.23834,6.00916 8.32212,5.60956c2.2137,-0.8162 3.3487,-6.42571 4.09184,-8.29674c0.54677,-1.37664 0.96685,-2.70253 1.29018,-4.0049c1.09749,-4.42059 1.08051,-8.57016 1.12102,-13.51313c0.00882,-0.48509 0.41117,-1.71502 0.00124,-1.45551c-2.38666,1.51081 -4.2062,3.66891 -6.22454,5.63552c-2.35217,2.29188 -5.94428,4.69278 -7.48996,7.68722c-0.19105,0.37013 -0.34933,0.87643 -0.48048,1.45807c0.70772,-0.18798 1.23091,-1.10825 1.94226,-1.5598c1.33537,-0.84765 1.78132,-1.67468 2.95427,-2.40425c0.22482,-0.13983 3.6993,-2.56414 4.12864,-0.93361c0.65009,2.46891 -1.79831,9.65152 -2.33382,11.85011l-0.23534,0.46508c-0.03217,0.12991 -0.11039,0.26453 -0.2659,0.38738c-0.10241,0.09152 -0.24742,0.17886 -0.43187,0.18575c-0.18398,0.01474 -0.33825,-0.05502 -0.45066,-0.13392c-0.15709,-0.09658 -0.2489,-0.21111 -0.2989,-0.32747c-1.36961,-1.91664 -3.03033,-4.23014 -3.90809,-6.41065c-0.44493,0.19176 -0.90109,0.3421 -1.37233,0.43668zM314.99381,148.50312c6.50719,-0.53782 13.96,-1.72869 20.43398,-0.79526c2.44954,0.35317 5.87435,1.10683 7.19208,3.47746c1.22306,2.20031 1.01115,5.08705 0.17639,7.1454c-0.89963,1.23599 -1.23417,4.85671 -2.62509,5.43991c-2.46253,1.0325 -7.92497,0.82001 -10.26118,0.11764c-5.28241,-1.58815 -12.33686,-3.69145 -16.92359,-6.74303c-0.42414,3.14518 -0.95383,4.33924 -2.00599,7.28918c-0.92063,2.58118 -2.48602,8.10954 -5.41427,9.2001c-2.05088,0.76381 -6.23566,-2.44955 -6.23566,-2.44955c-2.16669,-1.03156 -3.87456,-2.13288 -5.812,-3.38192l-0.33528,0.22262c-3.58245,1.61728 -7.04966,4.38414 -10.37402,6.54023c-6.96227,3.48804 -14.6703,6.67327 -22.17319,8.71824c-3.66634,0.99929 -7.463,1.53612 -11.07943,2.70362c-0.23594,0.39694 -17.78281,2.08245 -29.98534,1.73731c-4.64033,-0.13126 -10.75647,-1.80083 -11.55581,-2.12104c0,0 -0.03204,-0.01284 -0.08443,-0.03948c-0.05376,-0.02377 -0.08395,-0.04049 -0.08395,-0.04049l-0.2385,-0.15272c-1.79349,-0.65538 -3.45162,-1.34838 -5.12221,-2.27109c0,0 -0.02571,-0.01423 -0.06793,-0.0423c-0.04371,-0.02568 -0.06776,-0.04256 -0.06776,-0.04256c0,0 -4.18574,-2.29555 -2.30638,-6.19528c0.50329,-1.04435 1.13816,-2.14088 2.12196,-2.9837c3.77797,-3.23657 10.5481,-5.01979 11.25577,-5.20173c-1.72487,-4.37046 -3.88643,-8.5209 -5.11488,-13.08727c0,0 -0.38898,-1.44869 1.0597,-1.83766c1.44869,-0.38898 1.83767,1.05971 1.83767,1.05971c1.33668,4.98849 3.83888,9.47897 5.59833,14.31832l0.03753,0.20565c0.01733,0.06347 0.03209,0.13073 0.044,0.202c0.09155,0.54773 -0.05358,0.92657 -0.2727,1.1865c-0.18871,0.26304 -0.49844,0.48752 -1.00548,0.54785c-0.8643,0.14424 -11.0663,3.10373 -12.59913,5.18953c-2.33494,3.17728 4.09588,5.92775 4.98054,6.20576c4.79142,1.50566 12.75219,2.84101 15.08325,2.83117c12.51109,-0.05282 33.06719,-3.71497 36.80341,-4.73421c7.26519,-1.98194 14.6922,-5.40296 21.44513,-8.76003c3.40921,-2.22144 6.94566,-4.94991 10.60986,-6.66165l0.54325,-0.39261c0.32473,-0.33731 0.69022,-0.42655 1.00958,-0.41373c0.00537,-0.00038 0.01076,-0.00075 0.01616,-0.00107c0.38711,-2.70071 0.23273,-6.11147 1.46855,-8.55141c1.98694,-3.92297 6.58732,-7.09001 9.68283,-10.07861c2.09386,-2.02155 6.48887,-8.72906 9.27115,-4.37934c0.48335,0.75566 0.32977,2.91747 0.44759,3.80672c-0.00887,1.08256 0.00017,2.17174 0.00847,3.26385zM330.28398,160.66632c1.72973,0.51937 4.31019,1.70003 6.17878,1.03808c0.82638,-0.29274 2.52237,-2.85866 3.07561,-3.63191c0.53183,-1.35038 1.59501,-4.3528 0.82582,-5.80925c-0.98902,-1.8727 -5.4358,-2.14358 -7.17273,-2.18974c-5.94869,-0.15811 -12.05921,0.43081 -17.99173,0.92114l-0.8135,0.06724c-0.00417,1.2281 -0.02726,2.45632 -0.09555,3.67943c4.44479,3.65982 10.60411,4.30688 15.9933,5.92502z" fill="#000000" stroke="none" stroke-width="0.5" stroke-linecap="butt"/></g><g stroke-width="0.5"><path d="M237.97307,130.67072c0.58732,5.81871 -6.32304,5.28998 -10.19155,5.69997c-0.9255,0.09809 0.26214,1.98255 -0.21089,2.78406c-0.58278,0.98749 -1.36205,1.88078 -2.2613,2.5922c-1.66242,1.31517 -5.73652,-0.2025 -7.02382,0.52664c-1.96777,1.11457 -3.00648,3.38098 -4.43596,5.1334c-2.57062,3.15136 -4.90782,6.49304 -7.56167,9.57464c-0.44873,0.52105 -2.55552,2.00053 -3.51202,1.88408c-2.67657,-0.32585 -15.10582,15.41625 -15.02309,12.47986c0.00897,-0.31831 0.7284,-3.24053 3.0445,-8.61643c2.73981,-6.35941 7.14292,-15.30375 7.08289,-15.29903c-2.17719,0.17144 -8.29878,0.53319 -12.64097,1.10924c-4.13307,0.5483 -6.53228,1.39389 -7.08426,-1.52894c-0.07095,-0.37566 5.74853,-9.45013 6.19415,-10.07195c4.10296,-5.72545 8.38293,-13.18232 13.06724,-18.42163c0.99166,-1.10915 5.60498,-6.77257 7.72653,-5.80275c0.01313,-0.00119 0.02628,-0.00232 0.03943,-0.00341c1.15292,-0.09529 2.24674,0.20852 3.14537,0.79611c0.59638,0.18586 1.11216,0.36714 1.46003,0.47867c5.63166,1.80545 10.88514,3.43948 16.32599,5.78099c1.11493,0.47983 4.02281,2.52714 4.16106,2.52715c0.84072,0.00007 -0.86384,-5.45868 1.45952,-10.80862c1.02805,-2.36724 6.80042,-7.62238 7.19683,-7.42137c1.45131,0.73591 -2.01611,21.08924 -1.90193,22.47083c0.04685,0.56681 -0.00278,1.11934 -0.13515,1.6414c0.57899,0.78921 0.99944,1.70605 1.07906,2.4949z" fill="#66ffff" stroke="none" stroke-linecap="butt"/><path d="M240.94463,108.35011l7.27942,17.66041l10.41749,19.20718l-11.2179,9.95785l-2.28483,-10.64798l-6.52815,1.1416l-20.05226,7.47711l-8.85573,4.54488l1.04439,2.92391l-7.06021,1.98831l-7.12775,3.59934l-5.68122,2.81186c0,0 12.28716,-15.2081 17.15035,-20.89874c2.47915,-2.90097 10.60072,-11.7982 10.60072,-11.7982c0,0 -7.4491,1.97453 -10.8476,2.77955c-5.40033,1.27919 -18.96271,5.00236 -18.96271,5.00236c0,0 15.67736,-18.19868 18.71797,-19.27702c2.17998,-0.77312 29.14853,8.39731 29.14853,8.39731c0,0 -1.36374,-3.52827 -0.68886,-9.09132c0.48379,-3.98801 4.35923,-21.16382 4.35923,-21.16382z" fill="#50a5eb" stroke="#50a5eb" stroke-linecap="round"/><path d="M228.9271,118.16934c0,0 0.01265,-0.21255 0.12434,-0.43564c0.18301,-1.23329 0.50509,-2.75055 1.08174,-4.30497c0.33295,-0.89751 1.59626,-2.95163 1.97857,-3.6334c3.18445,-5.67873 8.25823,-10.96314 8.78529,-9.00103c3.98376,14.83073 14.63569,37.87595 19.20921,43.68838c0.14415,0.11368 0.26672,0.28615 0.31843,0.54739c0.05313,0.18194 0.07003,0.40912 -0.03983,0.63928c-0.09283,0.23755 -0.27016,0.38056 -0.43924,0.4662c-0.12443,0.07758 -0.24391,0.12108 -0.35646,0.13994c-4.25404,3.76416 -8.2281,7.0364 -11.80595,11.55898c-0.08998,0.18305 -0.24855,0.36038 -0.52682,0.44847c-0.17641,0.07794 -0.39771,0.11607 -0.64609,0.02761c-0.25619,-0.06236 -0.42025,-0.21568 -0.52494,-0.37765c-0.18733,-0.23012 -0.22064,-0.46947 -0.19296,-0.6741l-0.03518,-0.47776c-0.74281,-3.55681 -1.79669,-6.92951 -2.71534,-10.42034l-0.40661,0.03361c-3.71986,0.29652 -7.90523,2.26671 -11.57268,3.19314c-3.72961,1.27017 -7.17114,3.05062 -10.87165,4.39789c-2.72222,0.99109 -5.99261,2.06173 -8.25359,3.93382c-0.69049,0.57172 0.22635,2.20022 0.61383,2.90364c0.11015,0.13061 0.19327,0.31191 0.21734,0.56335c0.02485,0.17647 0.01625,0.39701 -0.10365,0.60318c-0.11405,0.20945 -0.29813,0.33122 -0.46189,0.40153c-0.21239,0.10259 -0.3992,0.12945 -0.56046,0.11104l-0.78314,0.06473c-3.72055,0.24999 -9.12867,2.18485 -12.41656,3.81674c-2.58108,1.28108 -5.65795,3.57918 -8.99228,5.45991c-2.32917,1.31377 -4.1131,3.81223 -4.36928,2.61865c-0.91899,-4.28156 3.79087,-12.74581 5.24293,-15.71994c0.80034,-1.63925 4.47103,-7.96108 5.5427,-9.64104c-5.48501,-1.06406 -10.653,0.306 -16.61459,1.69365c-1.43547,0.33412 -2.82335,0.59505 -4.1341,0.7133c-0.07027,0.02219 0.45799,-2.36263 4.16917,-8.81392c4.92401,-8.55961 13.97053,-22.41146 20.18463,-29.05686c1.34551,-1.4389 2.73537,-2.9256 4.48833,-3.08583c5.31335,-0.48563 12.21706,3.76652 13.10259,4.14409c3.95142,1.68477 7.47027,2.75785 11.02654,5.40434c0.20461,0.1177 0.40733,0.23877 0.608,0.36344c0.01265,-0.22089 0.03098,-0.77603 0.10816,-1.55182c0.00057,-0.24523 0.00715,-0.49213 0.02143,-0.742zM231.03845,121.29032l0.0353,0.42713c0,0 0.01756,0.21244 -0.06163,0.44927l0.29813,0.67794c0,0 0.08237,0.9966 -0.91423,1.07897c-0.60998,0.05041 -0.87747,-0.30337 -0.99322,-0.58546c-2.26913,-1.84067 -18.47505,-9.68381 -24.95538,-9.91107c-1.24872,-0.04379 -7.9762,7.40557 -12.91103,14.54383c-5.90159,8.53667 -10.17881,17.19937 -12.23275,19.83455c4.21003,-0.60365 8.3437,-1.25494 12.5074,-1.62291c2.33423,-0.2063 4.64562,-0.71405 7.06365,-0.12531l0.47138,0.18112c0.11553,0.02786 0.23881,0.08125 0.36876,0.16869c0.2412,0.16229 0.3651,0.34752 0.41951,0.52864c0.05687,0.18036 0.05861,0.40321 -0.04954,0.67306c-0.05534,0.13809 -0.123,0.24741 -0.19808,0.33345c-4.60693,6.83689 -7.62986,14.44386 -11.012,21.89801c6.50453,-3.96335 13.48211,-8.76423 20.87526,-9.60127c-0.56224,-1.32342 -0.88261,-2.41328 0.19199,-3.56564c1.61172,-1.72835 4.91547,-2.88917 6.99779,-3.8571c4.36794,-2.0304 9.09453,-3.60116 13.65567,-5.14665c1.90555,-0.48205 13.44286,-5.50635 14.65049,-4.10858c0.17573,0.20338 1.25692,2.4932 1.55862,4.06387c0.57997,3.01926 0.98611,5.81818 1.24394,6.92199c3.22609,-3.74182 5.64817,-6.19032 9.37479,-9.48228c-3.40536,-4.48986 -8.80382,-15.01319 -12.84704,-24.60531c-3.01967,-7.16384 -5.24125,-14.06533 -5.53996,-16.15633c-4.90024,5.07603 -7.01471,9.84202 -8.12109,15.26361c0.02314,0.57085 0.07486,1.13851 0.12324,1.72379z" fill="#000000" stroke="none" stroke-linecap="butt"/><path d="M262.36933,146.54196c0.12387,-0.02346 0.22926,0.00039 0.22926,0.00039l0.70578,0.16028c3.79148,0.50167 7.18788,2.02725 10.82212,2.9133c5.88627,2.21164 12.82517,2.02863 18.5362,4.55625c4.50838,1.99649 2.15853,7.79751 1.98619,11.75614c-0.07644,1.75571 0.49394,3.91814 -1.79742,4.11975c-2.08722,-2.3175 -4.56381,-4.22413 -7.02869,-6.11346c-2.486,-1.90552 -4.17846,-3.96787 -7.16352,-5.16424c-2.25479,-1.34933 -2.7777,4.19402 -4.32207,5.18702c-2.94847,1.89581 -4.88784,-2.76756 -5.87765,-4.76972c-2.44256,-4.95237 -6.68853,-7.48097 -7.16642,-13.26297c0,0 -0.04118,-0.4983 0.45712,-0.53949c0.4983,-0.04118 0.53949,0.45712 0.53949,0.45712c0.01972,0.23862 0.0464,0.47169 0.07961,0.69963z" fill="#50a5eb" stroke="none" stroke-linecap="butt"/><path d="M263.5985,150.75122c0,0 5.65161,1.7597 7.02097,2.18734c0.71436,0.22308 1.2089,9.9761 1.2089,9.9761z" fill="#66ffff" stroke="#66ffff" stroke-linecap="round"/><path d="M261.277,145.66217c1.02295,0.14021 2.04697,0.27245 3.07135,0.40174c5.9772,1.05832 11.86198,2.348 17.7637,3.79091c3.95503,0.96696 13.21243,3.43551 13.41296,3.61642c0.21138,0.1681 0.38498,0.43808 0.42073,0.87073l0.01176,0.14238c0.48337,5.84832 0.02473,11.78435 -1.44723,17.45754c-0.03547,0.38682 -0.22039,0.63473 -0.43148,0.79315c-0.23558,0.22064 -0.5962,0.37948 -1.13171,0.23885c-0.2605,-0.06841 -0.45012,-0.17821 -0.58733,-0.30839l-0.17235,-0.05903c-4.13453,-4.65772 -9.12369,-9.60634 -14.10888,-13.4772c-1.59081,2.43476 -3.19965,4.87767 -4.56469,7.44583c-0.05103,0.13503 -0.13287,0.27565 -0.25482,0.41959c-0.23331,0.27535 -0.47877,0.40384 -0.70991,0.44733c-0.23061,0.04619 -0.50631,0.0189 -0.82573,-0.14912c-0.19474,-0.10244 -0.33716,-0.22113 -0.43965,-0.34716l-0.44264,-0.40336c-4.69138,-6.31526 -8.66665,-13.5297 -12.77051,-20.2633c0,0 -0.64921,-1.06819 0.41897,-1.7174c1.06819,-0.6492 1.7174,0.41899 1.7174,0.41899c0.10984,0.18128 0.2196,0.36296 0.32933,0.545c0.24442,-0.03476 0.45792,0.02021 0.63332,0.10797zM263.97448,148.5358c-0.24146,-0.03037 -0.48292,-0.06095 -0.72433,-0.09176c3.17656,4.90468 6.15783,9.95204 9.18797,14.93921c1.14237,-1.94823 2.38511,-3.84156 3.61889,-5.73068l0.85514,-1.0238c0.26656,-0.33921 0.5624,-0.46415 0.83274,-0.48446c0.267,-0.03999 0.58164,0.01557 0.91525,0.28427c4.8256,3.63764 9.71379,8.30507 13.90662,12.8682c0.94872,-4.45074 1.25981,-9.03707 0.97349,-13.58637c-4.05087,-0.17114 -23.66626,-6.13465 -29.56577,-7.17461z" fill="#000000" stroke="none" stroke-linecap="butt"/></g><g stroke-linecap="round"><path d="M234.05442,158.13494c0,0 -1.24921,2.45892 -1.09722,4.09689c0.33254,3.58368 1.05126,7.85855 -0.13502,8.48854c-2.10836,1.11969 -5.8467,-6.62164 -7.61731,-12.37894c-0.70228,-2.28352 0.3015,-8.53068 0.3015,-8.53068z" fill="#000000" stroke="#000000" stroke-width="1.5"/><path d="M261.70522,142.63803c0,0 -2.41097,5.45888 -3.61408,10.84685c-0.60346,2.70254 -1.28526,5.59337 -1.56024,8.10154c-0.22566,2.05823 -0.06887,3.84979 -0.29308,5.1444c-0.22891,1.32177 -0.79221,1.8567 -1.00585,1.97015c-2.10836,1.11968 -4.00859,-2.59269 -5.77919,-8.34999c-0.70227,-2.28353 0.76962,-4.89021 0.76962,-4.89021z" fill="#000000" stroke="#000000" stroke-width="1.5"/><path d="M289.32168,116.60816c0,0 -9.17947,8.75687 -15.87799,15.76563c-13.79044,14.42914 -30.74417,32.86952 -31.27638,32.25496c-3.3144,-1.26587 -2.82605,-1.43622 -8.28418,-5.73945c-3.76038,-2.96471 -11.26414,-10.25804 -13.95257,-13.34874c-9.13385,-10.50053 -11.9892,-21.483 -11.47241,-21.00904c0.85117,0.78062 2.0062,3.30747 4.12543,6.62777c2.53323,3.96893 6.30169,9.08335 10.63402,13.86461c6.11838,6.7524 15.87474,13.76543 18.33695,16.40528c0.48492,0.51991 16.57271,-18.07519 29.25055,-30.19652c4.63726,-4.4337 5.70498,-6.27173 9.46644,-9.05574c2.81296,-2.08198 9.05013,-5.56877 9.05013,-5.56877z" fill="#000000" stroke="#000000" stroke-width="0.5"/><path d="M234.7581,175.58808c0,0 12.73045,1.17832 17.85886,-0.189c2.77331,-0.73942 6.40624,-3.00187 8.46928,-4.71167c0.80143,-0.66419 2.44107,-3.00663 2.08324,-3.12364c-0.51602,-0.16875 -2.5786,-0.27458 -2.5786,-0.27458c0,0 0.8724,-2.2121 4.95933,-2.83451c2.5757,-0.39225 8.08308,0.03641 8.08308,0.03641c0,0 -2.53895,10.36958 -5.62592,10.91605c-0.66888,0.17768 -10.97598,2.12348 -18.5398,2.22858c-10.34054,0.14368 -14.70947,-2.04763 -14.70947,-2.04763z" fill="#000000" stroke="#000000" stroke-width="0.5"/><path d="M260.30147,174.19362c0,0 4.13617,-2.77235 5.51631,-4.31471c0.93874,-1.04906 2.02229,-3.33223 2.02229,-3.33223l1.98144,-0.3071c0,0 -2.29788,6.34449 -2.77865,6.66418c-0.86418,0.57463 -6.74139,1.28987 -6.74139,1.28987z" fill="#ffffff" stroke="#ffffff" stroke-width="0.5"/></g></g></g></g></svg>