<svg version="1.1" xmlns="http://www.w3.org/2000/svg" xmlns:xlink="http://www.w3.org/1999/xlink" width="202.56851" height="195.90081" viewBox="0,0,202.56851,195.90081"><g transform="translate(-140.62088,-87.861)"><g data-paper-data="{&quot;isPaintingLayer&quot;:true}" fill-rule="nonzero" stroke-linejoin="miter" stroke-miterlimit="10" stroke-dasharray="" stroke-dashoffset="0" style="mix-blend-mode: normal"><g><g stroke="none" stroke-width="0.5" stroke-linecap="butt"><path d="M145.64104,163.6997c1.36913,-2.57912 3.90981,-4.39532 6.19836,-5.80547c1.47619,-0.40391 2.81928,-1.23181 4.25488,-1.78719c1.25485,-0.4855 2.78315,-0.38643 4.08505,-0.55458c4.37172,-0.5646 10.1888,-1.22416 13.25507,2.69602c1.60081,2.02354 6.63517,8.3404 7.4251,10.98885c2.02049,6.77432 -7.096,9.74889 -12.3161,11.30676c-7.82949,2.36915 -15.2382,-1.22407 -22.97468,-2.32365l-0.42126,-1.06164c-0.08352,-0.42657 -2.32461,-1.38858 -2.40248,-1.86514c-0.61776,-3.78115 1.21036,-8.41844 2.89607,-11.59393z" data-paper-data="{&quot;noHover&quot;:false,&quot;origItem&quot;:[&quot;Path&quot;,{&quot;applyMatrix&quot;:true,&quot;segments&quot;:[[[-7.40945,28.4],[-2.99455,-7.39936],[0,0]],[[-6.91969,28.4],[0,0],[16.93921,0]],[[42.49188,23.30896],[-15.86413,6.95372],[10.58495,-4.59285]],[[58.23465,-5.4689],[6.80628,12.95535],[-2.66096,-5.06498]],[[45.95327,-17.26356],[4.16461,3.58677],[-7.99327,-6.95856]],[[16.7362,-18.85898],[9.13644,-2.36841],[-2.72081,0.70531]],[[8.23958,-16.60831],[2.50374,-1.32573],[-2.86433,1.51666]],[[-0.17539,-11.85647],[3.00679,-1.22562],[-4.37351,3.46578]],[[-11.2758,1.44907],[1.97911,-5.53932],[-2.74385,7.67976]]],&quot;closed&quot;:true}]}" fill="#485e84"/><path d="M156.67144,178.73458c1.57431,0.22374 3.61508,0.87934 5.20263,0.69729c1.90047,-0.21795 3.90806,-1.45119 5.70853,-2.10247c3.48553,-2.03414 8.8386,-2.31632 11.67544,-5.43499c0.12058,1.01723 0.21615,2.02657 0.07204,2.85693c-0.98422,5.67191 -1.62653,9.96025 -5.97687,14.03074c-1.95535,2.47609 -4.68528,3.16568 -7.4408,4.041c-2.35979,0.74961 -4.76248,1.73027 -7.12814,2.38353c-2.59743,0.71727 -5.90766,-0.31764 -8.46618,-0.67219c-1.45608,-0.47789 -2.24739,-2.40682 -3.1573,-3.6073c-1.91005,-2.51998 -4.2364,-5.33304 -4.58917,-8.83746c-0.25292,-2.51242 0.57875,-5.30999 1.00723,-7.80364c0.05335,-0.31041 0.10768,-0.62282 0.16102,-0.93323c3.35942,3.68047 8.12025,4.69797 12.93157,5.38181z" data-paper-data="{&quot;noHover&quot;:false,&quot;origItem&quot;:[&quot;Path&quot;,{&quot;applyMatrix&quot;:true,&quot;segments&quot;:[[[-12.6,19.29482],[8.53184,6.39664],[0,0.63506]],[[-12.6,21.2],[0,-0.63506],[0,5.10165]],[[-11.88291,37.03011],[-1.46324,-4.9457],[2.04098,6.89848]],[[1.14868,53.32315],[-5.00785,-4.49044],[2.38565,2.13917]],[[9.19708,59.60973],[-3.28764,-0.5411],[5.5986,-0.01815]],[[27.47881,58.53456],[-5.28814,2.16968],[4.81629,-1.97608]],[[41.78069,51.77552],[-4.76837,2.16687],[5.56798,-2.53023]],[[56.16943,41.64187],[-3.26991,5.49996],[7.80325,-9.3639]],[[63.8,12],[-0.02062,11.6066],[0.00302,-1.69919]],[[62.60332,6.32523],[0.63128,1.99726],[-4.91792,7.03342]],[[39.65146,20.5013],[6.70271,-5.05168],[-3.60901,1.81169]],[[28.25951,26.3465],[3.9819,-0.97471],[-3.32624,0.81421]],[[17,26.4],[3.44697,0],[-10.53452,0]]],&quot;closed&quot;:true}]}" fill="#343545"/><path d="M175.89907,182.49985c-1.21121,-2.53547 -0.77528,-5.51169 -0.22666,-8.51781c-0.87291,-0.70977 -1.80804,-1.18514 -3.12697,-1.3726c-0.29688,-0.0422 -0.57779,-0.06633 -0.84635,-0.0743c0.02898,2.15025 -0.66558,4.51683 -1.02661,6.61805c-0.05745,0.3343 -0.47995,2.86914 -0.57032,3.03972c-1.22581,2.31357 -4.51317,1.49752 -5.50684,-0.28279c-0.9758,-1.74826 -1.38026,-3.86247 -1.84809,-5.90592c-1.62714,0.91514 -3.20581,1.99348 -4.53091,3.30668c2.3319,1.58956 4.74583,3.08298 6.54275,5.36391c-0.49132,4.46667 -3.5133,4.21183 -6.77402,3.07394c-1.2176,-0.4249 -2.49905,-0.98749 -3.76381,-1.67126c-0.25758,0.57262 -0.50861,1.16549 -0.74125,1.76899c2.23042,-0.05567 4.48607,-0.12681 5.92326,1.08857c0.58297,0.493 0.67733,1.44398 1.19889,2.00859c0.83194,0.90056 1.43442,1.53191 1.74026,2.28332c1.53412,-0.51721 3.01352,-1.34207 4.67282,-2.18021c1.14485,-0.57829 2.51397,-1.19835 3.79827,-1.92804c1.00374,-0.84904 1.95325,-1.74767 2.83594,-2.66739c0.45033,-0.46923 0.8338,-0.98804 1.17658,-1.53618c0.25631,-0.64796 0.49301,-1.2969 0.79018,-1.8138c0.10828,-0.18832 0.21648,-0.37841 0.32435,-0.5702zM150.73031,191.74137c0.10716,-0.62367 0.22943,-1.23237 0.36816,-1.82975c-1.27583,-0.16394 -2.49024,-0.41982 -3.34205,-0.83248c-0.53664,-0.25997 -1.0538,-0.64615 -1.55855,-1.08559c0.66207,1.31967 1.55786,2.66314 2.80256,3.27538c0.53427,0.26278 1.10018,0.50076 1.68704,0.71659c0.01818,-0.10325 0.03308,-0.18738 0.04284,-0.24417zM156.55021,158.37796c1.497,-0.69588 3.06841,-1.30668 4.76307,-1.92146c-0.63958,0.009 -1.27815,0.00588 -1.91573,0.01146c-1.10814,0.29545 -2.19844,0.69241 -3.26031,1.18568c0.14181,0.23421 0.27938,0.47704 0.41297,0.72435zM177.44027,175.70865c-0.08384,-0.08974 -0.16642,-0.17788 -0.24801,-0.26439c-0.2686,1.72355 -0.39407,3.39357 -0.05962,4.85006c0.30511,-0.61014 0.59833,-1.23254 0.87264,-1.86489c0.18658,-0.51765 0.37147,-1.0703 0.54611,-1.64332c-0.438,-0.28722 -0.80062,-0.74501 -1.11111,-1.07742zM177.62313,173.04631c0.40937,0.3993 0.82744,0.85417 1.18202,1.25399c0.05267,0.05939 0.12295,0.14259 0.1934,0.23443c0.04892,-1.02692 0.50913,-2.99126 0.64402,-3.779c0.002,-0.2935 -0.00765,-0.57821 -0.03035,-0.85177c-0.22438,-1.25596 -0.94252,-2.90284 -1.80812,-4.27679c-0.1663,-0.24784 -0.33339,-0.49237 -0.49598,-0.73393c-0.29032,-0.39931 -0.58913,-0.75812 -0.88512,-1.05482c0.67323,1.45551 1.42383,2.83718 1.86985,4.48227c-0.04449,1.46835 -0.35592,3.08808 -0.66971,4.72563zM169.84776,172.75178c-1.09246,0.29189 -2.1136,0.84147 -3.45652,1.44405c-0.65174,0.29244 -1.32119,0.60343 -1.9941,0.93791c0.02857,0.10158 0.057,0.2036 0.08536,0.30615c0.2606,0.94321 1.02866,5.49442 2.03729,6.00342c2.1535,1.08669 2.05852,-0.99412 2.32582,-2.54976c0.32975,-1.91909 1.03007,-4.16757 1.00215,-6.14176zM149.94258,173.30509c-0.85926,1.36014 -1.5685,2.83565 -2.09639,4.45323c1.26386,2.32879 3.38969,4.07805 5.68474,5.49675c0.43176,-1.26994 1.05057,-2.41239 1.80557,-3.44517c-0.83879,-0.69257 -1.63432,-1.41013 -2.35797,-2.15886c-1.13404,-1.17337 -2.13677,-2.71743 -3.03595,-4.34597zM156.79301,180.95984c-0.66444,0.91389 -1.20631,1.92441 -1.57985,3.0475c-0.02897,0.0574 -0.05804,0.11523 -0.08721,0.17343c0.92273,0.50569 1.84709,0.96872 2.73041,1.4044c1.72453,0.85061 4.28147,1.87524 5.11843,-0.26822c-1.96978,-1.38816 -4.14849,-2.81502 -6.18178,-4.35711zM152.73482,190.07576c-0.2265,0.81739 -0.39507,1.63285 -0.47786,2.42373c1.86839,0.54475 3.84465,0.90662 5.62971,1.16034c0.83605,0.12696 1.61611,0.13351 2.36284,0.04796c-0.76996,-1.09299 -1.3628,-2.54791 -2.13666,-3.2875c-0.46753,-0.44684 -1.98622,-0.178 -2.53764,-0.1984c-0.79004,-0.02921 -1.79271,-0.06588 -2.84038,-0.1461zM165.42523,160.38893c-0.5616,-0.98147 -1.13289,-1.91497 -1.6852,-2.77686c-0.252,0.10373 -0.51524,0.2078 -0.79402,0.30938c-2.00401,0.73024 -3.82091,1.40063 -5.5349,2.1798c0.44347,0.9323 0.83973,1.79148 1.20493,2.35063c0.63957,-0.4197 1.28523,-0.78294 1.91936,-1.03504c1.5305,-0.60844 3.18632,-0.91616 4.88981,-1.02791zM157.0431,163.58472c-0.54189,-0.82576 -1.01683,-1.69589 -1.49088,-2.56833c-2.01522,1.07803 -3.9232,2.4113 -5.87751,4.30746c-0.33046,0.41661 -0.67009,0.85221 -1.01289,1.30426c0.10726,0.12254 0.20545,0.24543 0.28963,0.36945c0.4177,0.86594 0.85956,1.82728 1.33396,2.81121c1.3267,-1.6565 2.89606,-3.17884 4.71767,-4.60688c0.63351,-0.49663 1.32275,-1.06431 2.04001,-1.61717zM145.93893,178.24195c-0.00396,-0.00815 -0.00792,-0.0163 -0.01186,-0.02446c-0.51945,-1.2535 -1.12826,-2.43715 -1.72595,-3.62344c-0.23174,1.22573 -0.41015,2.4657 -0.54587,3.7049c0.13757,1.89767 0.44854,3.76272 0.95384,5.55569c0.01215,0.00921 0.02431,0.01849 0.03645,0.02783c0.18994,-0.83832 0.42195,-1.66248 0.53889,-2.34306c0.19737,-1.14874 0.44851,-2.24633 0.75451,-3.29743zM165.55246,156.86017c0.68079,1.07832 1.37997,2.25246 2.05169,3.48413c2.00749,0.04072 4.03499,0.28566 5.96117,0.57105c-0.39306,-0.80258 -0.81354,-1.57303 -1.26016,-2.28274c-1.27576,-1.00786 -2.71214,-1.73576 -4.45574,-2.23542c-0.8605,0.00939 -1.57805,0.19572 -2.29696,0.46299zM154.62452,159.34734c-0.17158,-0.29443 -0.34802,-0.58595 -0.53202,-0.87287c-2.73873,1.59715 -4.80022,3.7762 -6.34673,6.30767c0.20886,-0.26866 0.41615,-0.53137 0.62078,-0.78768c2.07594,-2.02208 4.1079,-3.47258 6.25798,-4.64713zM151.16585,171.56853c0.91694,1.75061 1.95239,3.43621 3.1534,4.64825c0.7308,0.73751 1.52812,1.39195 2.35745,2.00693c1.60796,-1.66485 3.57205,-3.00163 5.58952,-4.11633c-0.06748,-0.23121 -0.13866,-0.45948 -0.21456,-0.68412c-1.04123,-3.08163 -2.3202,-5.63323 -3.97248,-8.25302c-0.70608,0.54009 -1.38804,1.10088 -2.02185,1.59776c-1.84248,1.44439 -3.50224,3.01961 -4.89147,4.80054zM159.65244,164.05493c1.84293,2.98369 3.12533,5.86267 4.1919,9.22666c0.63734,-0.31681 1.27214,-0.61432 1.89501,-0.89589c1.46484,-0.66217 2.64613,-1.25094 3.89599,-1.57078c-0.49569,-2.78175 -1.73777,-5.77892 -3.17732,-8.53882c-1.87468,0.01565 -3.69561,0.26987 -5.32046,0.9724c-0.49306,0.21318 -0.99061,0.49083 -1.48512,0.80644zM176.07336,171.77336c0.18,-1.0539 0.32744,-2.09903 0.37554,-3.11754c-0.47411,-1.66036 -1.11828,-3.63943 -1.91619,-5.58026c-1.84579,-0.25061 -3.86562,-0.57641 -5.88687,-0.72291c1.32139,2.69074 2.41459,5.54518 2.85611,8.20947c0.4335,-0.00623 0.8898,0.02253 1.37947,0.09214c1.3611,0.19345 2.24451,0.4833 3.19195,1.11911zM151.65325,187.8616c0.28419,-0.91458 0.61387,-1.8114 0.99447,-2.7052c-2.09384,-1.32454 -4.04339,-2.9767 -5.45811,-4.87651c-0.35821,1.73883 -0.55846,3.43883 -0.90455,5.12423c0.73678,0.73446 1.48825,1.46278 2.28278,1.86009c0.87096,0.43553 1.94167,0.56949 3.08541,0.59738zM145.34085,171.62506c0.59879,1.07779 1.1259,2.53985 1.58462,3.82596c0.58262,-1.38414 1.27919,-2.68234 2.09299,-3.90827c-0.56347,-1.12335 -1.08366,-2.23854 -1.56927,-3.25557c-0.74172,1.0573 -1.46498,2.17839 -2.1083,3.33787zM161.265,152.2904c0,0 0.03201,0.00026 0.08601,0.00586c0.05436,0.00249 0.08589,0.00696 0.08589,0.00696c1.09614,0.15578 3.10569,0.44141 4.20182,0.59721c0.16585,0.02358 0.32978,0.04841 0.49183,0.07453c1.75797,0.15481 3.50263,0.53816 5.19196,1.16456c4.95911,1.83882 8.64464,8.34655 11.06568,12.90457c0.73223,4.19549 -0.16123,8.3349 -1.76516,12.213c-0.23882,0.6747 -0.48517,1.3097 -0.72786,1.88678c-1.05676,1.73735 -1.79022,3.68748 -2.86241,5.42295c-0.4014,0.93383 -0.83194,1.85884 -1.52529,2.58356c-0.87498,0.91456 -1.98918,1.68973 -3.16774,2.37603c-1.41902,0.82632 -2.93129,1.5238 -4.23161,2.18059c-3.70814,1.873 -6.63872,3.43418 -10.72541,2.8856c-0.78993,-0.11227 -1.62228,-0.24496 -2.47079,-0.40419c-0.35198,1.20476 -1.56723,1.03202 -1.56723,1.03202l-0.18268,-0.02596c-7.46481,-1.11261 -11.33646,-8.24252 -12.54113,-15.54374c0.05226,-1.05794 0.13086,-2.12294 0.24027,-3.1878c-0.19328,-3.00512 0.00492,-6.07792 0.51709,-9.08147c1.20544,-7.01548 6.56789,-13.91287 13.48257,-15.44515c2.05489,-0.97471 4.20969,-1.64492 6.40415,-1.64588z" fill="#000000"/><path d="M180.9659,212.82977c-0.00433,-0.01085 -0.00866,-0.02168 -0.01297,-0.03254l-0.18522,0.1452l-0.59637,-0.88593c-0.1349,-0.20039 -0.19515,-0.45933 -0.14876,-0.72929c0.01733,-0.10087 0.04832,-0.19613 0.09056,-0.28391c-5.59151,-6.10851 -13.41431,-13.6652 -11.87529,-22.62207c0,0 0.16797,-0.97759 1.08141,-0.84777c0.28198,0.04007 0.4609,0.16094 0.57351,0.30889c2.64328,-3.43729 8.66405,-6.22213 11.00937,-1.52199c1.16256,1.72702 0.87803,4.44981 2.22302,6.00614c1.16132,1.3438 2.61845,2.85603 3.40768,4.5209c2.44428,5.1561 4.2548,9.2164 7.9602,13.58515c0.98742,1.88069 1.86296,5.23114 0.39727,7.42154c-0.65115,0.9731 -2.71457,2.09538 -3.68547,2.77951c-1.5467,1.08988 -2.92416,2.81172 -4.88269,1.65818c-0.74325,-0.43775 -0.9638,-2.35298 -1.43204,-3.10567c-1.34739,-2.16589 -2.91515,-3.97335 -3.85939,-6.23776l-0.07871,-0.0694l0.01107,-0.0139c-0.01538,-0.00627 -0.03077,-0.01252 -0.04614,-0.01877z" fill="#485e84"/><path d="M170.93117,188.77037c-0.70429,0.29809 -1.97757,1.17005 -2.26512,1.89586c-0.7259,1.83228 0.28828,2.32971 1.15881,3.55244c1.88179,2.64311 3.52878,5.44115 5.43773,8.06719c2.8231,4.83095 5.67317,9.44876 8.58359,14.22214c0.45775,0.75074 2.4951,4.95511 3.4794,4.82693c0.86017,-0.11202 1.42725,-1.09334 2.09741,-1.70451c1.80222,-1.64362 3.44666,-3.52448 5.16221,-5.30697c0.32963,0.6878 0.84808,1.4178 0.98735,1.67559c1.03768,1.92106 1.92942,3.05983 3.21601,4.791c0.37547,0.50522 1.73131,2.09034 1.98743,2.67721c1.44538,3.31179 -3.28926,6.05008 -5.46695,7.43134c-8.78574,2.22892 -12.69303,-9.2822 -17.41467,-14.81419c-4.79899,-5.00333 -7.8461,-11.48718 -12.04222,-16.94446c-1.20021,-1.56091 -4.67247,-4.65376 -6.59694,-4.10453c1.66181,-1.07102 2.51361,-3.72411 3.55865,-5.46179c2.36682,-3.93549 6.77761,-7.50617 11.18459,-7.8011c1.59413,-0.10668 3.06758,-0.49113 4.05863,0.83638c0.35794,1.02869 0.5638,2.14824 0.8663,3.15531c-2.65377,1.29265 -5.31704,1.8739 -7.99221,3.00619z" data-paper-data="{&quot;noHover&quot;:false,&quot;origItem&quot;:[&quot;Path&quot;,{&quot;applyMatrix&quot;:true,&quot;segments&quot;:[[[67.03686,33.96408],[-5.19724,3.33479],[-1.01636,-1.92532]],[[64.08098,28.10099],[1.14282,1.95276],[-2.60571,-2.36983]],[[55.11455,27.5767],[3.36801,-0.66554],[-9.31085,1.83989]],[[34.11501,46.29425],[3.61337,-8.5313],[-1.59544,3.76689]],[[28.52556,58.18884],[3.15847,-2.6106],[3.91153,-1.64312]],[[44.13384,64.50974],[-3.13845,-2.7766],[10.97265,9.70755]],[[76.00638,94.80481],[-12.09448,-8.62985],[12.12329,9.70759]],[[118.59304,119.47199],[-17.95943,6.9451],[4.14717,-3.3766]],[[125.53032,103.50098],[4.3055,6.20366],[-0.76295,-1.09931]],[[122.29901,101.11902],[0.98806,0.90239],[-3.38563,-3.09209]],[[113.65965,89.67567],[2.92337,3.54195],[-0.39231,-0.47532]],[[111.1187,86.68623],[0.95712,1.28001],[-3.01208,4.04671]],[[102.01074,98.78554],[3.24832,-3.79401],[-1.20789,1.41081]],[[98.14178,102.79497],[1.79735,-0.46787],[-2.05671,0.53538]],[[88.92315,94.14868],[1.25408,1.36939],[-7.97354,-8.70669]],[[65.21498,68.05325],[7.80802,8.84646],[-5.04445,-4.70255]],[[50.6411,53.46744],[4.99267,4.74437],[-2.30967,-2.19481]],[[46.86457,46.6959],[-0.87859,3.86526],[0.34802,-1.5311]],[[51.02015,42.25647],[-1.39582,0.79522],[5.30188,-3.02057]]],&quot;closed&quot;:true}]}" fill="#343545"/><path d="M172.3086,183.48759c-4.30382,1.9475 -7.11715,4.43103 -10.18222,8.17449c-0.34856,0.4257 -0.60898,1.32931 -0.88024,2.31198c0.36698,0.32646 0.26804,0.90236 0.26804,0.90236l-0.41784,1.34266c-0.30914,0.31898 -0.6664,0.65797 -1.04912,0.95133c-0.24339,0.32883 -0.52642,0.53535 -0.86578,0.55235c-0.00819,0.00041 -0.01635,0.00079 -0.02446,0.00113c-0.91834,0.42466 -1.87961,0.37001 -2.62489,-0.9122c-1.04397,-1.79613 0.86148,-7.52248 1.78609,-9.14333c2.32009,-4.49518 6.40149,-7.9832 11.09686,-9.40802c1.55242,-0.47108 6.56916,0.45709 7.71488,2.07475c0.08897,-0.00793 0.1786,-0.01486 0.26891,-0.02071l0.08216,0.05847l0.00866,-0.05043l0.91344,0.12982c0.50448,0.0717 0.83822,0.5675 0.74546,1.10742c-0.09276,0.53992 -0.57693,0.91946 -1.08142,0.84776l-0.84495,-0.12009c-1.74474,0.13509 -3.20572,0.74954 -4.91364,1.20024z" fill="#485e84"/><path d="M160.82872,190.48982c-0.06167,-0.01006 -0.12326,-0.02312 -0.18466,-0.03924c0.02051,0.21482 0.04994,0.32029 0.12603,0.15385c0.01653,-0.03616 0.03618,-0.07443 0.0586,-0.11463zM158.40042,187.30789c-0.0312,-0.64082 0.18399,-1.23477 0.54671,-1.72672c0.94069,-1.75407 2.89449,-3.09302 4.35125,-1.90278c2.71513,2.21844 1.16529,4.88465 -0.7289,7.04363c-0.5364,0.61137 -0.85304,1.66123 -1.61114,1.83221c-1.25832,0.28381 -2.69658,-2.86838 -3.16204,-3.81445c0,0 -0.41369,-0.85998 0.41784,-1.34267c0.06463,-0.0375 0.1267,-0.06689 0.18628,-0.08922z" fill="#8fbbbe"/><path d="M166.99761,186.61268c-0.9269,0.11115 -0.98549,-0.86874 -0.98549,-0.86874l0.04706,-0.43649c-0.60478,-1.266 -1.37462,-2.41571 -1.98653,-3.68731c0,0 -0.41368,-0.85997 0.41785,-1.34266c0.83153,-0.48269 1.24524,0.37727 1.24524,0.37727c0.61219,1.27302 1.3741,2.42187 1.98652,3.68731l0.14368,1.17958c0,0 0.05859,0.97989 -0.86834,1.09104z" fill="#8fbbbe"/><path d="M159.78597,199.59707c-0.28482,0.27194 -0.59136,0.46382 -0.92229,0.54653c-0.83477,0.20862 -1.50906,-0.75873 -2.1989,-1.24716c-3.93331,-2.78492 -0.76303,-10.00935 1.33768,-13.49117c2.3547,-4.18482 8.52279,-7.91428 13.1075,-8.26227c1.49629,-0.11358 3.37418,0.4489 4.84785,0.65835c0.6469,0.09196 3.45792,0.47243 3.73977,0.62126c1.5171,0.80112 3.50601,4.30653 2.55982,6.17178c-0.17352,0.34207 -0.48919,0.52145 -0.85172,0.64718c0.43466,1.53584 0.79722,3.16017 1.33337,4.09393c3.05383,5.31854 6.40565,10.39801 9.34659,15.83409c3.15297,3.85013 5.47363,9.01047 7.88275,13.43876c1.04282,1.91686 2.66571,4.63415 2.10928,7.00932c-0.87825,3.74876 -7.65652,6.73209 -10.65912,7.43457c-3.91788,-0.56984 -5.30585,-3.60289 -7.54062,-6.64819c-4.73159,-6.44768 -8.72026,-13.45105 -13.73393,-19.66507c-1.36658,-3.01903 -4.4709,-6.40489 -7.03724,-8.66474c-0.12578,0.21485 -0.29838,0.39387 -0.49928,0.52249l-1.25484,0.81577zM178.32266,181.06639c-0.01255,-0.0085 -0.0232,-0.01484 -0.03178,-0.01879c-1.52921,-0.7079 -4.24585,-0.49402 -5.94269,-0.7549c-3.7877,-0.58231 -10.06736,2.95815 -11.99052,6.56681c-1.42412,2.3319 -2.6346,5.43528 -2.82494,8.18447c-0.07928,1.14508 0.66062,1.03922 0.92707,1.6983c-0.0016,-0.04707 -0.00036,-0.08894 0.00481,-0.12093c0.09153,-0.56558 0.23849,-1.12936 0.45374,-1.66204c0.47637,-1.17883 1.01635,-2.33074 1.55839,-3.47997c2.08971,-4.43079 5.8074,-7.14224 9.88605,-9.07359c2.00926,-0.72521 5.4936,-1.9738 7.9599,-1.33931zM162.48165,193.92457c0.89407,0.28835 2.31438,1.90659 2.86144,2.47688c2.58593,2.69575 5.55479,5.09883 7.15219,8.62784c5.04996,6.05207 8.91865,13.10384 13.60261,19.47176c1.43645,1.95287 2.78873,5.25283 5.3275,5.59597c2.42447,-0.62206 4.42037,-2.11939 6.43982,-3.67616c0.27725,-0.21372 1.39498,-0.86337 1.53082,-1.4637c0.29914,-1.32206 -1.26931,-3.70276 -1.85543,-4.77056c-2.39503,-4.36333 -4.63672,-9.41822 -7.749,-13.2187c-3.0246,-5.49265 -6.41116,-10.67442 -9.498,-16.08702c-0.71986,-1.26222 -1.3198,-3.05827 -1.79495,-4.46217c-0.25535,-0.75447 0.01922,-1.85839 -0.5822,-2.33287c-1.32703,-1.04698 -5.27918,0.57554 -6.65273,1.06833c-3.41096,1.60719 -6.60027,3.80392 -8.31946,7.56697c-0.14386,0.31492 -0.29678,0.72997 -0.4626,1.20343z" fill="#000000"/></g><path d="M228.72037,197.45222c1.34534,-1.79464 2.70442,-3.56148 4.01616,-5.39625c2.14381,-2.17585 5.05229,-6.57816 8.03855,-7.53951c3.89803,-1.25488 7.1104,1.88796 7.97262,5.30911c1.88578,7.48258 1.84452,13.463 -3.11374,19.60647c-1.92941,3.18618 -4.22149,5.99023 -7.39068,8.0407c-2.30539,1.4916 -5.00806,2.28773 -7.35354,3.72332c-3.18406,1.94886 -5.93075,3.59061 -9.73118,1.76359c-2.67643,-1.28668 -3.94327,-5.31979 -5.2002,-7.80453c-2.17472,-4.12399 -5.87755,-8.99551 -5.46469,-13.83867c0.17383,-2.03895 0.72709,-4.90537 3.02252,-5.77141c1.19059,-0.4492 2.54537,0.06825 3.81363,0.17207c3.47781,0.2847 6.95552,0.83606 10.42032,1.25318c0,0 0.57779,0.06956 0.97025,0.48192z" fill="#db93e6" stroke="none" stroke-width="0.5" stroke-linecap="butt"/><path d="M249.72905,204.82885c-2.57097,7.30576 -6.14817,10.36688 -12.05165,15.00581c-2.01666,1.58468 -8.04915,4.87922 -10.65246,5.28002c-2.60339,0.40083 -5.25675,0.78698 -7.57483,-0.24291c-3.20091,-3.42037 -4.34112,-8.59755 -6.61475,-12.62032c-1.47938,-2.61749 -3.58889,-5.26834 -4.18766,-8.29429c-0.64181,-3.24348 0.89506,-6.09415 2.30947,-8.81722c0.02642,-0.08329 0.60819,-1.05137 1.38618,-1.05496c3.32795,-0.01542 12.44758,1.5689 16.45672,2.05155c0.72055,-1.72716 2.55899,-4.09062 3.50701,-5.642c1.99939,-3.27186 3.30855,-5.32509 6.91053,-6.72826c1.07659,-0.4194 2.82397,-0.78089 3.98148,-1.06591c0,0 2.01117,-0.50606 2.44714,0.71129c5.55348,2.69375 6.27163,6.80607 5.69031,12.77581c-0.20939,2.15031 -1.18709,6.84922 -1.60748,8.64139zM211.59425,203.39335c0.70596,3.28499 7.61748,15.9254 9.92817,18.53733c7.63015,3.11708 22.54025,-9.73147 25.06147,-16.81805c3.82444,-10.74965 2.33507,-24.10262 -8.78756,-17.34908c-4.25831,2.5856 -6.74764,10.4462 -8.47506,10.7652c-1.76196,0.32539 -7.65703,-1.14583 -11.75003,-1.88713c-2.53033,-0.45828 -4.24737,-0.28966 -4.24737,-0.28966c-1.00917,1.8689 -2.20211,4.84271 -1.72959,7.04139z" fill="#000000" stroke="none" stroke-width="0.5" stroke-linecap="butt"/><g stroke="none" stroke-width="0.5" stroke-linecap="butt"><path d="M212.50261,201.05756c-4.26866,0.24389 -8.095,1.77934 -12.50522,1.40887c-2.37365,-0.19939 -4.55519,-0.53029 -6.82813,-1.23738c-1.81488,-0.56459 -5.05486,-1.98912 -7.09572,-1.755c-1.32607,0.15212 -1.64227,4.54217 -1.73468,5.28426c0.96478,7.42977 4.8383,16.32935 11.54397,20.3554c2.10016,1.26092 5.1182,2.94559 7.72368,2.59894c1.17637,-0.15651 2.25726,-0.73452 3.39515,-1.07149c1.69525,-0.50202 2.91956,-1.37118 4.29213,-2.45215c4.03921,-3.68909 11.42889,-7.83 10.05932,-14.69309c-0.35802,-1.79408 -2.37953,-3.57234 -3.50274,-4.88309c-1.27704,-1.49025 -2.3879,-2.60692 -4.23579,-3.29136l-0.41585,-0.00496c0,0 -0.35407,-0.04263 -0.69612,-0.25895zM215.59949,198.93398c3.51497,1.8008 7.9259,6.27328 8.68813,9.93853c0.6294,3.0265 -0.74979,6.98372 -2.38339,9.46965c-2.38324,3.6267 -5.61254,5.3163 -8.66869,8.13367c-1.71121,1.33993 -3.27089,2.39639 -5.372,3.03884c-1.30538,0.39913 -2.56645,1.01582 -3.92168,1.17915c-7.23442,0.87192 -13.2932,-5.45761 -16.88043,-10.78606c-1.62657,-2.4161 -3.34215,-4.67125 -4.18249,-7.49778c-0.74303,-2.49925 -1.2235,-5.06235 -1.54003,-7.64367c0.29408,-2.5103 0.68221,-7.2206 3.79603,-8.14167c3.32282,-0.9829 7.96668,1.69364 11.04931,2.36703c2.36094,0.51575 5.79688,1.11071 8.16651,0.6514c3.44818,-0.66836 6.23752,-1.70897 9.88915,-1.60814c0,0 1.03399,0.03015 1.35961,0.89904z" fill="#000000"/><path d="M213.23173,201.27894l0.41654,0.00558c1.8479,0.68444 2.96816,1.81271 4.2452,3.30297c1.12322,1.31074 3.1504,3.10342 3.50841,4.89748c1.36957,6.86309 -6.03612,11.05268 -10.07533,14.74177c-1.37256,1.08096 -2.61233,1.95928 -4.30758,2.46129c-1.13788,0.33696 -2.23126,0.91784 -3.40762,1.07434c-2.60549,0.34665 -5.65284,-1.34418 -7.75299,-2.6051c-6.70566,-4.02604 -10.59935,-12.99169 -11.56413,-20.42148c0.09241,-0.74208 0.41579,-5.14277 1.74187,-5.29489c2.04084,-0.23411 5.28899,1.18304 7.10386,1.74763c2.27294,0.70709 4.47403,1.02946 6.84767,1.22886c4.4102,0.37048 8.2777,-1.15488 12.54637,-1.39877c0.34207,0.21632 0.69775,0.26031 0.69775,0.26031z" data-paper-data="{&quot;noHover&quot;:false,&quot;origItem&quot;:[&quot;Path&quot;,{&quot;applyMatrix&quot;:true,&quot;segments&quot;:[[[429.90791,387.32211],[0.73093,0.34776],[-8.41783,1.50473]],[[405.41357,393.10906],[8.84574,-0.31865],[-4.76092,0.1715]],[[391.55941,392.2843],[4.68232,0.8607],[-3.73869,-0.68724]],[[377.05018,390.4957],[3.99646,-0.95274],[-2.59677,0.61906]],[[374.86892,401.40313],[0.00607,-1.4956],[3.69184,14.52239]],[[402.65734,439.06246],[-14.27763,-6.39137],[4.47163,2.00172]],[[418.61523,442.3767],[-5.09074,1.31118],[2.29846,-0.59199]],[[425.1007,439.43747],[-2.17891,0.94112],[3.24619,-1.4021]],[[433.03722,433.5423],[-2.46703,2.47453],[7.13862,-8.29088]],[[449.49922,401.96208],[4.36015,13.30038],[-1.13978,-3.47683]],[[441.37664,393.10325],[2.54365,2.33419],[-2.89202,-2.65387]],[[432.17899,387.5803],[3.83292,0.91732],[0,0]],[431.35207,387.66987]],&quot;closed&quot;:true}]}" fill="#f89587"/></g><path d="M161.07955,190.84198c0.0068,-0.01625 0.01362,-0.03243 0.02052,-0.04854z" fill="#000000" stroke="none" stroke-width="0.5" stroke-linecap="butt"/><path d="M194.33007,182.42454c-0.47332,-1.56318 -0.97612,-3.12437 -1.348,-4.71111c-1.39144,-2.88019 -5.42617,-1.38783 -7.47829,-0.05859c-4.26471,2.76244 -8.15169,9.04939 -8.96535,14.05117l0.20482,0.07823l-0.01449,0.03796c0.09487,0.02673 0.18868,0.05839 0.28128,0.09569c0.83608,0.33677 1.38027,1.13141 1.98911,1.82334c3.50877,2.58302 4.49926,7.15008 7.78292,9.96141c1.47145,0.67242 3.17859,0.97244 4.64357,1.36586c0.64981,0.1745 1.33335,0.37087 2.03022,0.55345c0.74945,0.02162 1.4452,0.04407 1.98784,0.11167c2.05695,0.25622 4.04764,-0.09505 5.78694,-1.25674c0.20008,-0.15036 0.39684,-0.31834 0.58902,-0.50186c0.04477,-0.07473 0.08855,-0.15166 0.13133,-0.23081c0.06092,-0.0299 0.12128,-0.05825 0.181,-0.08535c2.65786,-2.84616 4.24657,-8.61422 1.12231,-11.39756c-2.22232,-0.61403 -5.79602,0.32055 -7.437,-1.10567c-0.66705,-0.57976 -0.05197,-1.50774 -0.25777,-2.4964c-0.39815,-1.91272 -1.15922,-4.26315 -1.22943,-6.23465zM183.87247,175.13714c4.03364,-2.61423 9.18814,-3.11945 11.86375,1.4183c0.40186,0.30096 0.56579,0.75879 0.56579,0.75879l0.33812,0.96876c0.13098,0.5377 0.26198,1.07537 0.39296,1.61306c0.20552,0.84876 0.32544,1.63937 0.39272,2.41297c0.27581,0.9484 0.53427,1.89813 0.74881,2.85178c0.17951,0.79794 -0.47064,1.94751 0.17679,2.44727c0.78168,0.6034 1.99447,0.0074 2.95193,0.24897c1.31242,0.33112 2.37058,0.92102 3.42924,1.73966c0.121,0.04664 0.2394,0.0972 0.35484,0.15214c0.81499,0.38789 2.71856,2.00608 3.05071,2.83744c0.35905,0.89868 0.03531,2.86239 -0.08223,3.84622c-0.44163,3.69653 -0.13539,7.69741 -3.96421,9.44677c-0.03363,0.03564 -0.06741,0.07099 -0.10135,0.1061c-2.24096,4.38727 -7.65524,3.44399 -11.85288,2.37294c-1.20379,-0.14214 -4.41638,-0.5261 -4.60293,-0.61647c-0.37928,-0.18374 -0.8792,-0.55023 -1.42077,-1.00373c-0.3833,-0.15303 -0.75343,-0.32815 -1.10358,-0.53358c-0.49018,-0.28759 -2.78379,-2.22504 -3.1393,-2.71266c-0.87916,-1.20587 -1.43129,-2.90044 -2.11505,-4.29616c-0.32168,-0.51343 -0.65043,-1.00604 -1.02539,-1.47288c-0.75287,-0.72928 -1.75856,-1.36526 -2.39715,-2.0712c-0.41926,-0.24441 -0.88708,-0.47391 -1.41484,-0.68708l-0.14674,-0.32141l-0.11026,0.10401l-1.03355,-1.09564c-0.29961,-0.31315 -0.46183,-0.75303 -0.40598,-1.21691c0.03218,-0.26732 0.13282,-0.50972 0.28225,-0.71176c0.77094,-5.87414 5.30615,-13.3049 10.36826,-16.58568z" fill="#000000" stroke="none" stroke-width="0.5" stroke-linecap="butt"/><path d="M195.60458,188.63756c0.2058,0.98866 -0.40454,1.94262 0.26251,2.52237c1.64099,1.42623 5.21448,0.49351 7.43681,1.10755c3.12426,2.78334 1.51826,8.58333 -1.1396,11.42949c-0.05972,0.0271 -0.12052,0.05581 -0.18144,0.08572c-0.04276,0.07915 -0.08711,0.15653 -0.13189,0.23126c-0.19217,0.18352 -0.39073,0.35288 -0.59082,0.50325c-1.73929,1.1617 -3.74585,1.52071 -5.8028,1.26449c-0.54264,-0.06759 -1.24455,-0.0887 -1.99398,-0.11034c-0.69686,-0.18256 -1.38711,-0.37838 -2.03692,-0.55288c-1.46498,-0.39343 -3.18906,-0.69611 -4.66051,-1.36853c-3.28366,-2.81132 -4.3066,-7.4138 -7.81536,-9.99682c-0.60883,-0.69191 -1.15427,-1.49437 -1.99037,-1.83115c-0.0926,-0.0373 -0.18646,-0.06937 -0.28132,-0.0961l0.01449,-0.03809l-0.20484,-0.07852c0.81366,-5.00178 4.73061,-11.33783 8.99532,-14.10028c2.05211,-1.32924 6.11355,-2.82528 7.505,0.05491c0.37189,1.58672 0.88552,3.15068 1.35883,4.71386c0.07021,1.9715 0.85874,4.34709 1.25688,6.2598z" data-paper-data="{&quot;noHover&quot;:false,&quot;origItem&quot;:[&quot;Path&quot;,{&quot;applyMatrix&quot;:true,&quot;segments&quot;:[[[389.36914,354.6674],[0.6107,3.89794],[-1.31353,-2.99079]],[[385.56625,345.63498],[1.11775,3.06181],[-3.45147,-5.38647]],[[370.7029,347.30633],[3.75704,-3.12998],[-7.80792,6.50477]],[[356.2597,377.35039],[0.41999,-10.12635],[0,0]],[356.6851,377.45674],[[356.66539,377.53558],[0,0],[0.19477,0.0304]],[[357.24681,377.65835],[-0.1928,-0.05193],[1.7407,0.46885]],[[361.63236,380.80338],[-1.37435,-1.22838],[7.5847,4.29022]],[[379.46789,398.72284],[-7.19228,-4.79736],[3.08253,0.98344]],[[389.01497,400.32492],[-3.00301,-0.431],[1.332,0.19117]],[[393.17858,400.93854],[-1.42736,-0.19593],[1.49331,-0.13621]],[[397.15247,400.68507],[-1.09366,-0.0045],[4.14566,0.01706]],[[408.34294,396.80622],[-3.17594,2.72251],[0.36135,-0.34641]],[[409.39255,395.66889],[-0.33772,0.41035],[0.07104,-0.1591]],[[409.59814,395.17919],[-0.066,0.1674],[0.11382,-0.07393]],[[409.93714,394.96645],[-0.11212,0.0681],[4.59722,-6.28687]],[[409.44106,372.06646],[6.86911,4.77991],[-4.55956,-0.68801]],[[394.40938,371.64879],[3.59938,2.43973],[-1.46312,-0.99173]],[[393.30076,366.75339],[0.64499,1.91395],[-1.24783,-3.70283]]],&quot;closed&quot;:true}]}" fill="#fddfbd" stroke="none" stroke-width="0.5" stroke-linecap="butt"/><path d="M204.30673,201.63662c-2.41468,8.69225 -12.75409,3.89367 -17.88155,0.95176c-1.33403,-1.72901 -2.10811,-3.46921 -3.29909,-5.23847c-1.07219,-1.59278 -3.64711,-3.28089 -4.42919,-4.87378c-0.4877,-0.99333 1.55295,-3.13776 1.63994,-3.7815c0.05495,-0.40666 -0.49148,-0.66306 -0.67436,-1.03042c-0.24524,-0.49265 0.89327,0.80604 1.25288,1.2226c0.80772,0.93561 1.75658,1.66279 2.88526,2.1666c2.98243,1.3313 6.24747,2.24488 9.08927,3.86519c0.81026,0.45749 3.34083,1.39695 4.55584,2.04053c0.58971,0.31237 1.57134,0.756 1.89309,1.0004c0.39564,0.30054 0.0941,0.33605 0.49726,-0.10367c0.68352,-0.74551 0.7525,-0.57274 1.50221,-1.32423c0.81683,-0.81876 2.43709,-1.97245 3.26855,-2.56045c-0.06874,1.20224 0.58232,0.60738 0.57698,2.15212c-0.00423,1.23059 -0.6313,4.62842 -0.87712,5.51331z" data-paper-data="{&quot;noHover&quot;:false,&quot;origItem&quot;:[&quot;Path&quot;,{&quot;applyMatrix&quot;:true,&quot;segments&quot;:[[[413.22832,377.33554],[0.27112,4.31854],[-2.89675,2.62042]],[[404.09091,383.98571],[3.28737,-0.9633],[-3.99464,1.17055]],[[389.45722,379.91278],[3.57765,1.48814],[-6.03017,-2.53807]],[[370.60791,374.37288],[6.24037,1.93056],[-2.36162,-0.7306]],[[364.19226,370.65287],[1.82749,1.66472],[-0.81367,-0.74119]],[[361.58091,368.63208],[-0.60474,-0.91963],[0.45093,0.68573]],[[363.16764,370.51474],[0.0119,-0.82063],[-0.01884,1.29905]],[[360.82667,378.38841],[-1.20588,-1.85584],[1.93373,2.97599]],[[370.78915,386.97148],[-2.50976,-2.90641],[2.78782,3.22843]],[[378.55363,396.51621],[-3.06225,-3.11433],[10.88465,4.6159]],[[413.67402,390.41164],[-2.71684,17.83712],[0.62376,-4.09526]]],&quot;closed&quot;:true}]}" fill="#f89587" stroke="none" stroke-width="0.5" stroke-linecap="butt"/><path d="M190.27604,198.91003c0,0 2.18776,-0.92523 3.85339,0.48261c0.62231,0.526 2.79721,2.47796 3.76031,3.62319c2.07809,2.47108 1.93087,4.65515 1.93087,4.65515c0,0 4.98773,1.52177 6.0514,3.76634c0.47112,0.99417 2.34174,3.82715 2.44368,5.71577c0.15912,2.94799 -1.63035,5.00383 -1.63035,5.00383c0,0 -12.45321,10.17073 -17.88381,11.79252c-1.44518,0.43158 -3.92515,-0.24421 -3.92515,-0.24421c0,0 -1.79413,-1.67686 -2.79636,-2.71189c-1.36957,-1.41441 -3.98999,-4.13305 -3.98999,-4.13305c0,0 -2.74967,-0.18335 -3.62267,-0.15182c-0.65041,0.02349 -1.82574,-0.5405 -1.82574,-0.5405c0,0 -0.8178,-1.32944 -1.60657,-2.90174c-0.88794,-1.77 -1.79065,-3.85399 -2.43625,-4.8145c-0.77246,-1.14927 -2.12516,-0.88703 -2.12516,-0.88703l-8.71337,-0.30251c0,0 -1.6953,-3.25022 -1.96406,-6.22303c-0.31791,-3.51645 1.27415,-11.23522 1.27415,-11.23522c0,0 10.93432,-9.38121 16.17194,-11.81423c5.16019,-2.39706 12.77954,-3.53505 12.77954,-3.53505c0,0 2.52798,2.54622 3.47961,3.99926c1.08044,1.64973 2.66576,5.38416 2.66576,5.38416l-1.89115,5.07198z" fill="#fddfbd" stroke="#000000" stroke-width="3" stroke-linecap="round"/><path d="M158.30861,202.17932c0,0 0.25032,3.0755 0.68719,4.5662c0.46097,1.57293 2.01021,4.63799 2.01021,4.63799c0,0 4.59252,-0.26832 6.80481,-1.02597c3.89239,-1.33301 14.51085,-6.27393 14.51085,-6.27393c0,0 -2.40376,3.56169 -3.29907,5.68148c-0.6977,1.65194 -1.62933,5.98731 -1.62933,5.98731c0,0 1.27856,2.83457 2.0451,3.6843c0.84275,0.93423 2.80451,1.69163 2.80451,1.69163c0,0 3.42481,-0.55764 4.66359,-1.18409c1.434,-0.72515 3.44076,-2.91422 3.44076,-2.91422c0,0 -1.55699,3.4719 -1.98948,4.90302c-0.28803,0.95309 -0.35318,2.84875 -0.35318,2.84875c0,0 7.25415,-3.96779 9.54649,-4.2818c2.739,-0.37518 5.78735,2.18139 5.78735,2.18139c0,0 -4.18836,3.93355 -6.50459,5.54571c-2.0886,1.45373 -6.04927,3.61546 -8.40396,4.38911c-0.77761,0.2555 -2.30759,-0.0174 -2.30759,-0.0174c0,0 -1.09282,-0.57884 -2.35655,-1.80345c-1.14357,-1.10818 -3.15722,-3.89203 -4.45729,-5.19814c-0.67581,-0.67894 -1.21897,-0.45871 -1.21897,-0.45871c0,0 -2.45381,0.38548 -3.44881,0.22323c-0.68891,-0.11234 -0.96963,-0.98555 -0.96963,-0.98555c0,0 -1.12767,-1.63144 -1.91449,-2.81518c-0.15577,-0.23434 -1.15035,-2.05559 -1.93982,-3.45245c-0.42715,-0.7558 -0.39576,-1.33937 -1.42037,-1.6344c-1.80864,-0.52079 -3.8819,-0.99746 -7.76786,-0.8443c-1.1226,0.04423 -1.9445,0.39089 -2.36228,-0.19854c-2.04501,-2.88519 0.04238,-13.25202 0.04238,-13.25202z" fill="#f89587" stroke="#f89587" stroke-width="0.5" stroke-linecap="round"/><path d="M177.09996,206.67465c3.52888,-3.30851 8.90978,-5.97077 13.03049,-8.50649c0.35262,-0.7128 0.24802,0.78115 0.18404,1.82466c-5.51372,2.81815 -10.09953,6.44464 -15.34478,9.7358c0.75102,-1.0482 1.62956,-2.58456 2.13022,-3.05397z" data-paper-data="{&quot;noHover&quot;:false,&quot;origItem&quot;:[&quot;Path&quot;,{&quot;applyMatrix&quot;:true,&quot;segments&quot;:[[[357.52884,410.33784],[1.2407,-2.033],[9.62855,-7.00379]],[[385.50984,389.77357],[-10.27473,6.21694],[-0.12243,-1.87693]],[[384.71883,386.56966],[0.52978,-1.34849],[-7.57618,5.41327]],[[361.03917,404.44173],[6.21626,-6.66584],[-0.88195,0.94574]]],&quot;closed&quot;:true}]}" fill="#000000" stroke="none" stroke-width="0.5" stroke-linecap="butt"/><path d="M190.66484,198.95684c0,0 1.79897,-0.97203 3.4646,0.4358c0.62231,0.526 2.79721,2.47796 3.76031,3.62319c2.07809,2.47108 1.93087,4.65515 1.93087,4.65515c0,0 4.98773,1.52177 6.0514,3.76634c0.47112,0.99417 2.34174,3.82715 2.44368,5.71577c0.15912,2.94799 -1.63035,5.00383 -1.63035,5.00383c0,0 -12.45321,10.17073 -17.88381,11.79252c-1.44518,0.43158 -3.92515,-0.24421 -3.92515,-0.24421c0,0 -1.79413,-1.67686 -2.79636,-2.71189c-1.36957,-1.41441 -3.98999,-4.13305 -3.98999,-4.13305c0,0 -2.74967,-0.18335 -3.62267,-0.15182c-0.65041,0.02349 -1.82574,-0.5405 -1.82574,-0.5405c0,0 -0.8178,-1.32944 -1.60657,-2.90174c-0.88794,-1.77 -1.79065,-3.85399 -2.43625,-4.8145c-0.77246,-1.14927 -2.12516,-0.88703 -2.12516,-0.88703l-8.71337,-0.30251c0,0 -1.6953,-3.25022 -1.96406,-6.22303c-0.31791,-3.51645 1.27415,-11.23522 1.27415,-11.23522c0,0 10.93432,-9.38121 16.17194,-11.81423c5.16019,-2.39706 12.77954,-3.53505 12.77954,-3.53505c0,0 2.52798,2.54622 3.47961,3.99926c1.08044,1.64973 2.66576,5.38416 2.66576,5.38416l-1.89115,5.07198z" fill="#fddfbd" stroke="#000000" stroke-width="3" stroke-linecap="round"/><path d="M158.30861,202.17932c0,0 0.25032,3.0755 0.68719,4.5662c0.46097,1.57293 2.01021,4.63799 2.01021,4.63799c0,0 4.59252,-0.26832 6.80481,-1.02597c3.89239,-1.33301 14.51085,-6.27393 14.51085,-6.27393c0,0 -2.40376,3.56169 -3.29907,5.68148c-0.6977,1.65194 -1.62933,5.98731 -1.62933,5.98731c0,0 1.27856,2.83457 2.0451,3.6843c0.84275,0.93423 2.80451,1.69163 2.80451,1.69163c0,0 3.42481,-0.55764 4.66359,-1.18409c1.434,-0.72515 3.44076,-2.91422 3.44076,-2.91422c0,0 -1.55699,3.4719 -1.98948,4.90302c-0.28803,0.95309 -0.35318,2.84875 -0.35318,2.84875c0,0 7.25415,-3.96779 9.54649,-4.2818c2.739,-0.37518 5.78735,2.18139 5.78735,2.18139c0,0 -4.18836,3.93355 -6.50459,5.54571c-2.0886,1.45373 -6.04927,3.61546 -8.40396,4.38911c-0.77761,0.2555 -2.30759,-0.0174 -2.30759,-0.0174c0,0 -1.09282,-0.57884 -2.35655,-1.80345c-1.14357,-1.10818 -3.15722,-3.89203 -4.45729,-5.19814c-0.67581,-0.67894 -1.21897,-0.45871 -1.21897,-0.45871c0,0 -2.45381,0.38548 -3.44881,0.22323c-0.68891,-0.11234 -0.96963,-0.98555 -0.96963,-0.98555c0,0 -1.12767,-1.63144 -1.91449,-2.81518c-0.15577,-0.23434 -1.15035,-2.05559 -1.93982,-3.45245c-0.42715,-0.7558 -0.39576,-1.33937 -1.42037,-1.6344c-1.80864,-0.52079 -3.8819,-0.99746 -7.76786,-0.8443c-1.1226,0.04423 -1.9445,0.39089 -2.36228,-0.19854c-2.04501,-2.88519 0.04238,-13.25202 0.04238,-13.25202z" fill="#f89587" stroke="#f89587" stroke-width="0.5" stroke-linecap="round"/><path d="M177.09996,206.67465c3.52888,-3.30851 8.90978,-5.97077 13.03049,-8.50649c0.35262,-0.7128 0.24802,0.78115 0.18404,1.82466c-5.51372,2.81815 -10.09953,6.44464 -15.34478,9.7358c0.75102,-1.0482 1.62956,-2.58456 2.13022,-3.05397z" data-paper-data="{&quot;noHover&quot;:false,&quot;origItem&quot;:[&quot;Path&quot;,{&quot;applyMatrix&quot;:true,&quot;segments&quot;:[[[357.52884,410.33784],[1.2407,-2.033],[9.62855,-7.00379]],[[385.50984,389.77357],[-10.27473,6.21694],[-0.12243,-1.87693]],[[384.71883,386.56966],[0.52978,-1.34849],[-7.57618,5.41327]],[[361.03917,404.44173],[6.21626,-6.66584],[-0.88195,0.94574]]],&quot;closed&quot;:true}]}" fill="#000000" stroke="none" stroke-width="0.5" stroke-linecap="butt"/><path d="M187.4704,220.2456c2.07451,-7.07992 8.88032,-7.95686 9.47636,-12.90778c0.12646,-1.05039 0.90069,-7.2289 2.52776,-2.88774c0.48088,1.28303 -0.38195,2.38649 0.33826,3.69038c0.57634,1.04341 1.38332,1.59112 2.28832,2.07834c-4.97751,1.96077 -14.73931,10.39747 -14.6307,10.0268z" data-paper-data="{&quot;noHover&quot;:false,&quot;origItem&quot;:[&quot;Path&quot;,{&quot;applyMatrix&quot;:true,&quot;segments&quot;:[[[411.34699,408.02386],[-9.41495,5.0833],[-1.9135,-0.75112]],[[406.3273,404.4848],[1.39384,1.93411],[-1.74178,-2.41692]],[[404.80791,397.26385],[1.26158,2.43271],[-4.26858,-8.23113]],[[400.49427,403.60774],[0,-2.11596],[0,9.97335]],[[386.41035,424.72565],[3.20408,-8.72475],[-0.26631,0.72517]],[[385.48269,427.98414],[0.3701,-1.29924],[0.43786,-0.37882]],[[386.82394,426.89155],[-0.45713,0.34787],[8.57583,-6.40439]]],&quot;closed&quot;:true}]}" fill="#000000" stroke="none" stroke-width="0.5" stroke-linecap="butt"/><path d="M187.4704,220.2456c2.07451,-7.07992 8.88032,-7.95686 9.47636,-12.90778c0.12646,-1.05039 0.90069,-7.2289 2.52776,-2.88774c0.48088,1.28303 -0.38195,2.38649 0.33826,3.69038c0.57634,1.04341 1.38332,1.59112 2.28832,2.07834c-4.97751,1.96077 -14.73931,10.39747 -14.6307,10.0268z" data-paper-data="{&quot;noHover&quot;:false,&quot;origItem&quot;:[&quot;Path&quot;,{&quot;applyMatrix&quot;:true,&quot;segments&quot;:[[[411.34699,408.02386],[-9.41495,5.0833],[-1.9135,-0.75112]],[[406.3273,404.4848],[1.39384,1.93411],[-1.74178,-2.41692]],[[404.80791,397.26385],[1.26158,2.43271],[-4.26858,-8.23113]],[[400.49427,403.60774],[0,-2.11596],[0,9.97335]],[[386.41035,424.72565],[3.20408,-8.72475],[-0.26631,0.72517]],[[385.48269,427.98414],[0.3701,-1.29924],[0.43786,-0.37882]],[[386.82394,426.89155],[-0.45713,0.34787],[8.57583,-6.40439]]],&quot;closed&quot;:true}]}" fill="#000000" stroke="none" stroke-width="0.5" stroke-linecap="butt"/></g><g stroke-width="0.5"><path d="M221.87337,238.25627c-1.66809,0.33014 -3.45218,0.44213 -5.62357,0.44213c0,0 -0.26932,0 -0.48614,-0.15865c-0.52336,0.50411 -1.25029,1.02114 -1.69333,1.45699c-3.0605,2.41191 -6.33916,3.43152 -9.67565,5.37621c-3.03758,1.77047 -6.34048,4.47326 -9.80646,5.1842c0.13845,1.02392 0.02229,2.18012 -0.42532,3.50397c-0.4382,1.29604 -0.77524,1.38953 -1.40454,2.45274c-1.04603,1.76727 -1.76357,4.32479 -4.00592,4.50373c-6.51166,0 -15.27108,0.83954 -20.20785,-4.16472c-0.07184,0.02008 -0.15387,0.03153 -0.24751,0.03153c-0.7545,0 -0.7545,-0.74397 -0.7545,-0.74397l0.01465,-0.64189c0.96847,-4.77479 5.50051,-6.99746 9.15298,-9.82407c2.74812,-2.12675 5.30428,-4.46823 8.99686,-3.27408c3.29305,1.84514 7.1957,3.59058 8.4927,6.71701c3.27329,-0.58257 6.56465,-3.3585 9.4258,-5.02465c3.26313,-1.90024 6.45861,-2.85151 9.43838,-5.20475c0.30273,-0.29927 2.63611,-1.99686 2.16726,-2.60196c-0.96056,-1.23972 -3.48976,-1.9863 -4.95501,-2.29426c-4.0353,-0.84814 -7.91248,-0.23844 -11.43909,-2.5711c-0.80836,-0.79708 -2.06934,-1.36341 -2.55778,-2.42094c-1.59,-3.44256 1.39023,-5.21244 4.1259,-6.36811c4.99065,-2.10828 10.2002,-2.1724 15.53524,-2.09433c1.8806,1.01977 6.76163,2.89334 7.54793,5.06955c1.70214,4.71096 -3.40247,8.14011 -7.24896,9.74296c0.42222,0.52665 0.61833,1.14123 0.39013,1.86214c1.68472,0.01278 3.41712,0.09676 5.09511,-0.10949c0.22354,-0.22269 0.56116,-0.22269 0.56116,-0.22269c0.18416,0 0.53599,0 0.72016,0c0.69101,-0.15951 1.36777,-0.38677 2.02268,-0.70864c-0.10873,-0.24029 -0.16188,-0.55385 -0.13834,-0.95287c0.0633,-1.07309 2.77307,-2.88065 3.60783,-3.61236c1.19602,-1.04836 2.62854,-2.06002 3.65698,-3.27201c2.21989,-2.6161 3.27018,-5.93356 7.25259,-3.11388c0.79893,0.76018 2.54884,1.67926 3.01601,2.67586c1.18583,2.52966 -1.70328,4.7023 -3.50876,5.79828c-4.8676,2.95476 -9.90829,4.67357 -15.62314,4.67357c-0.27945,0 -0.55889,0 -0.83833,0h-0.16767c0,0 -0.21285,0 -0.41244,-0.11148z" fill="#ff2d32" stroke="none" stroke-linecap="butt"/><path d="M191.02733,263.81691l-0.63952,-0.40303c0,0 -0.10795,-0.07097 -0.20449,-0.19818c-1.68319,-0.69143 -3.37005,-2.38505 -3.37504,-4.07851c-0.00045,-0.155 1.01127,-2.77204 1.11088,-3.0331c1.99641,-5.23254 5.30564,-8.92748 9.65575,-12.49248c2.66325,-2.18028 5.55278,-3.92532 8.3356,-5.93834c1.7131,-1.23922 3.31162,-3.02155 5.14015,-4.04083c2.77957,-1.54942 5.9199,-2.71124 8.55101,-4.46384c2.78767,-1.32688 6.32694,-0.3177 9.35837,-0.59287c4.39122,-0.3986 8.45634,-0.4996 12.90086,-0.4996c2.38059,0.08579 3.63804,2.47867 5.08745,4.08971c3.29567,3.66321 6.333,9.00019 6.89509,13.92237c0.13091,1.1464 0.33818,2.87587 -0.25954,3.91462c-0.09831,0.17085 -2.37123,1.98205 -2.58359,2.15328c-9.80867,4.40457 -19.62855,5.79383 -30.28596,6.81195c-3.8923,0.37184 -7.44667,1.50067 -11.25727,2.22161c-5.46263,1.03349 -11.45938,1.16725 -16.46446,3.56902l-0.77813,0.01685c-0.20544,0.05138 -0.37851,-0.00264 -0.5089,-0.08067c-0.13779,-0.06352 -0.27897,-0.1751 -0.34977,-0.37112c-0.1095,-0.16894 -0.21901,-0.33788 -0.32851,-0.50682z" fill="#ab164a" stroke="none" stroke-linecap="butt"/><path d="M256.61692,270.60178c-1.67344,-1.22759 -3.66764,-3.05483 -4.36559,-4.97295c-1.14725,-3.15288 0.97464,-5.20205 1.66634,-8.03111c0.56138,-2.29606 0.71222,-4.95726 0.20362,-7.26105c-1.84702,-2.94182 -6.27986,-3.86161 -9.69192,-5.12886c-0.83286,-0.30932 -1.85231,-0.16507 -2.58314,-0.66589c-3.92804,-2.69174 -1.12721,-8.27456 2.34862,-9.44749c3.67761,-1.01531 10.10532,-0.9916 13.92486,-0.35428c1.3078,0.21822 1.22473,-2.16082 5.33504,-4.49242c2.59743,-1.47339 9.89077,-3.37472 10.69059,-3.17314c2.66608,0.67193 -1.84986,10.27679 0.87513,10.3012c7.4511,-0.00004 10.83217,-1.95029 17.72435,-4.55953c1.51916,-0.57512 5.14835,-1.27632 5.95973,-2.72393c0.60087,-3.91797 3.03755,-4.75438 6.62318,-5.27181c1.04459,-0.15074 1.76148,-1.125 2.9246,-0.61428c2.62179,1.15119 2.49713,5.19444 0.72754,6.85377c-1.26893,1.18987 -2.86285,2.25822 -4.23733,3.34511c-0.6155,0.46812 -1.47981,0.59853 -2.01896,1.15064c-0.40656,0.41633 0.2806,1.12906 0.52205,1.65571c0.77342,1.68701 2.95401,1.57591 4.38287,2.22589c3.70403,1.68494 10.10951,7.34622 8.93316,11.64208c-1.20349,3.26083 -1.40936,7.43399 -4.02977,10.04008c-1.86419,1.85401 -4.27719,1.85464 -6.74255,2.23845c-4.04874,0.63031 -7.93965,1.28723 -12.04,1.4782c-10.15217,0.47284 -21.55,0.1155 -30.55174,4.99824c-1.83932,0.88103 -3.45214,1.92122 -5.53407,1.92947l-0.67275,-0.24387c0,0 -0.6208,-0.30607 -0.37384,-0.91821z" fill="#ff2d32" stroke="none" stroke-linecap="butt"/><path d="M219.62099,212.2783c0.0157,-0.01715 0.02482,-0.02614 0.02482,-0.02614l0.0592,0.0031c0.00052,-0.00013 0.00106,-0.00026 0.00158,-0.00039c3.23652,-5.24586 9.36224,-6.0736 15.15074,-5.82228c11.53392,0.50076 23.44764,1.24831 34.74503,3.61164c1.23989,0.52374 4.72874,1.94176 5.17914,2.54882c0.53865,0.72601 -0.00849,1.80421 -0.13158,2.69554c-0.74702,5.40934 -4.57586,8.62767 -9.3204,10.9833c-4.39019,2.1797 -12.00714,1.97939 -16.6757,0.80341c-3.7069,-0.93376 -6.09016,-2.36419 -10.00533,-2.36778c-0.92657,0.14164 -1.97776,-0.00702 -2.76879,0.48938c-3.0976,1.94383 -3.15155,7.56813 -7.97037,7.59233c-2.61898,0.01315 -3.76961,-2.63594 -4.68326,-4.54231c-1.07448,-2.24195 -1.01432,-4.73065 -1.54504,-7.11771c-0.5567,-2.50394 -1.89244,-4.48201 -3.03647,-6.73438c0,0 -0.67485,-1.33086 0.67485,-1.99629c0.10457,-0.05156 0.2051,-0.09113 0.30157,-0.12027z" fill="#0f1b82" stroke="none" stroke-linecap="butt"/><path d="M274.14168,222.47846c0.25576,-0.39025 0.65154,-0.58538 0.65154,-0.58538l0.54772,-0.24154c1.40545,-0.38647 2.89518,-0.36607 4.3342,-0.60384c1.7061,-0.2819 3.23177,-1.23761 4.904,-1.67431c3.65747,-0.95513 7.87923,-1.61268 11.6522,-1.46201c2.88061,0.11504 7.51328,2.78078 6.57259,6.3687c-0.45049,1.71821 -3.05035,3.27166 -4.31608,4.42292c-1.61737,1.4711 -2.39888,3.80985 -3.37739,5.70369c-2.33695,2.58784 -5.48112,7.0558 -8.79861,8.44519c-3.39418,1.4215 -5.35133,-1.63887 -6.92101,-3.91634c-0.90722,-1.31631 -2.13826,-2.41211 -2.9416,-3.79248c-0.93299,-1.60314 -0.93763,-3.62282 -1.5436,-5.33531c-0.67796,-1.91598 -1.47648,-3.54764 -1.91908,-5.5635c0,0 -0.31558,-1.45216 1.15513,-1.7658z" fill="#0f1b82" stroke="none" stroke-linecap="butt"/><path d="M219.13198,213.44601c0,0 2.84957,7.03621 3.34943,8.8383c0.84423,3.04365 2.54287,8.02509 2.54287,8.02509l-6.89829,-7.794l-7.47315,-0.99196l-6.03601,0.85025l-5.46115,0.85025l2.44314,-9.63623l2.73058,-4.10957l8.04801,1.98393l6.03601,2.97589z" fill="#0066cc" stroke="#0066cc" stroke-linecap="round"/><path d="M278.77348,209.05303l18.10802,4.95982l3.018,5.24323c0,0 -11.17227,14.93725 -14.38132,15.40009c-1.92672,0.22248 -11.05614,-9.02317 -11.05614,-9.02317l-10.20373,4.10956l-5.31744,3.54273l-0.14371,4.25128l-11.49716,-3.1176l-2.44314,-4.6764l-7.61687,-6.23521c0,0 9.95403,3.73632 18.68716,2.01283c11.30484,-2.23101 15.80432,-6.97265 15.80432,-6.97265z" fill="#0066cc" stroke="#0066cc" stroke-linecap="round"/><path d="M269.79134,196.29921c0,-1.48795 1.509,-1.48795 1.509,-1.48795l0.59308,0.00859c4.99358,0.53869 10.37088,2.12504 15.07523,3.85935c1.07349,0.42071 2.27428,0.60873 3.22051,1.26212c2.64316,1.82511 1.85415,5.75845 2.86602,8.30002c0.87199,2.19023 3.82773,1.48046 3.60586,4.75777c-0.13044,1.92678 -2.41383,3.14608 -3.97807,3.47198c-1.65056,0.34388 -2.59796,-0.33058 -3.94944,-0.98566c-3.04951,-1.47814 -5.86632,-3.76963 -9.16094,-4.5538c-1.34502,0.897 -2.64451,1.84358 -3.94459,2.80366c-0.16741,0.19248 -0.41484,0.3556 -0.7785,0.44176c-0.26571,0.08145 -0.60551,0.11881 -0.95042,-0.02396c-0.35139,-0.12649 -0.57485,-0.38163 -0.71358,-0.61947c-0.20793,-0.30785 -0.27674,-0.59411 -0.26634,-0.84804l-0.24112,-1.31651c-0.35094,-4.47261 -0.15709,-8.99225 -0.15612,-13.47762c-0.31906,-0.04208 -0.63663,-0.07979 -0.95235,-0.11289l-0.26922,0.00859c0,0 -1.509,0 -1.509,-1.48795z" fill="#fddfbd" stroke="none" stroke-linecap="butt"/><path d="M276.9052,190.63084l14.65888,8.78596v4.81812c0,0 -2.40212,1.09621 -8.5454,-1.56417c-6.29922,-2.7279 -10.13749,-7.2218 -10.13749,-7.2218z" fill="#f89587" stroke="#f89587" stroke-linecap="round"/><path d="M246.33398,173.75805c3.4714,-2.85192 8.08001,-5.68384 12.41716,-7.07055c2.7658,-0.88432 6.37748,-0.361 9.24377,-0.35978c3.38563,0.00144 8.4136,-0.13426 11.43856,1.56694c4.56922,2.56967 1.33778,5.16932 -1.86086,6.46254c-1.84455,0.2654 -3.67871,0.38399 -5.50899,0.44665c-0.11956,0.68145 -0.60997,0.96261 -0.99428,1.07862c-3.11551,2.33696 -6.72258,1.78158 -10.54603,1.78843c-4.14851,0.00745 -8.012,0.19749 -11.92121,-0.29924c-0.04329,0.00879 -0.08657,0.01756 -0.12982,0.02633l0.00706,0.34837l-3.01246,0.05941c-0.01168,0.00027 -0.02338,0.0004 -0.03512,0.0004c-0.8334,0 -1.509,-0.66617 -1.509,-1.48795c0,-0.77733 0.60451,-1.41544 1.37526,-1.48218l0.4647,-0.04589c0.06279,-0.61427 0.57128,-1.0321 0.57128,-1.0321z" fill="#f89587" stroke="none" stroke-linecap="butt"/><path d="M246.12738,184.6173l0.73748,0.03088c2.3672,-1.26794 4.7602,-2.3402 7.1245,-3.64245c1.89174,-1.04197 4.02763,-2.81739 6.20739,-3.257c4.71731,-0.95138 9.6665,-0.82377 14.39391,-1.75457c3.70362,-0.72922 6.96024,-2.06329 10.75614,-2.61734c2.01347,-0.28829 5.74097,-1.18541 7.49522,0.44961c0.6814,0.63508 -0.23229,1.83811 -0.443,2.73899c-0.44713,1.91157 -0.95311,4.10828 -0.2593,6.10355c0.72981,2.09884 1.89206,5.11527 3.01052,7.04284c0.7714,1.32944 1.87076,1.9518 2.06843,3.92438c0.69851,6.97047 -9.40519,5.05449 -13.34635,3.1557c-3.02373,-1.35799 -5.74086,-2.88914 -8.10832,-5.12713c-0.11761,-0.11118 0.22765,0.27254 0.2152,0.43272c-0.03606,0.46407 -0.22373,0.90458 -0.35387,1.35197c-0.61781,2.12396 -1.03492,3.91967 -1.39966,6.07187c-0.82799,4.88577 -0.00943,9.59644 0.0201,14.46565c0.07569,0.46143 -0.0665,0.80379 -0.26735,1.04952c-0.17293,0.26564 -0.4574,0.50694 -0.92541,0.58202l-0.34964,0.11327c-2.30875,0.61306 -4.30942,1.81238 -6.73974,2.03128c-2.08081,0.18742 -3.74421,-0.11481 -5.77504,0.55269c-11.6481,0.10606 -24.40257,0.93602 -34.77151,-4.99961c-3.34672,-1.9158 -6.0106,-3.3979 -8.01258,-6.79434c-0.06276,-0.94559 -0.33008,-1.89952 -0.18828,-2.83675c0.59889,-3.95855 5.6513,-5.71675 8.64046,-7.4025c2.31244,-1.30411 4.16043,-3.31325 6.46131,-4.67309c3.99761,-2.36263 8.49309,-3.91139 12.4971,-6.23175c0,0 0.06007,-0.03455 0.16194,-0.0761c0.37332,-0.5992 1.15033,-0.68432 1.15033,-0.68432z" fill="#feebf7" stroke="none" stroke-linecap="butt"/><path d="M273.26743,203.78323l-5.28151,-24.7991l5.03001,9.54765l3.018,3.71986z" fill="#db93e6" stroke="#db93e6" stroke-linecap="round"/><path d="M242.71014,177.49618l3.2695,-3.22388l6.79051,2.35591l7.67076,0.124l6.79051,-1.73594l7.92226,-5.20781l9.68276,-6.57176l6.16176,-0.74397l2.38925,2.10792l2.2635,3.96786l-2.89225,5.5798l-48.66532,13.01953z" fill="#db93e6" stroke="#db93e6" stroke-linecap="round"/><path d="M274.3067,240.42523c1.23804,-1.02609 2.76851,-0.77273 4.37436,-0.99849c1.769,-0.15793 2.75471,3.91754 4.97135,3.83107c3.52167,-0.13737 8.36154,-4.2285 10.83642,-2.86763c2.55636,1.40569 2.04157,4.70783 4.65256,5.39829c1.10832,0.4696 2.77218,0.47625 3.71913,1.22042c0.7101,0.55803 0.5312,1.71503 0.87495,2.54374c0.41987,1.01225 2.90423,0.79167 3.26072,1.83987c0.17994,0.52908 -0.09184,1.18198 -0.44964,1.61435c-0.18277,0.22085 -1.64378,0.34623 -1.97986,0.41248c-2.28593,0.45064 -4.49957,0.86268 -6.79952,1.24164c-2.62973,0.5127 -5.33254,0.3116 -7.99605,0.50563c-5.04177,0.3673 -11.03026,1.9016 -15.56933,4.13984c-1.7108,0.84182 -7.43863,3.97789 -8.83861,0.9644c-0.65625,-1.41261 1.40093,-2.86901 1.22022,-4.22263c-0.16158,-1.21042 -2.09688,-0.11635 -2.72922,-1.60516c-0.49909,-1.17506 1.02404,-1.98906 0.57747,-3.09428c-4.5764,0.42407 -2.91722,-3.76046 -1.0581,-5.73362c2.18435,-2.31835 7.61354,-4.98955 10.93319,-5.18993z" fill="#feebf7" stroke="none" stroke-linecap="butt"/><path d="M241.27528,230.29087c0,0 2.34933,1.15828 2.34933,2.31654c0,1.15827 -2.93555,1.52941 -3.25476,1.37413c-0.41037,-0.1806 -1.40254,-3.55756 0.90543,-3.69067z" fill="#000000" stroke="none" stroke-linecap="butt"/><path d="M246.99833,193.26261c1.11038,3.80342 2.00029,8.17144 3.64887,11.79147c2.55227,-1.37284 8.23718,-5.05161 9.49934,-8.72687c0.28902,-0.84159 0.34613,-1.68301 0.08061,-2.49651c-0.05833,-0.17869 -1.50938,-0.37717 -2.28014,-0.4246c-1.06924,-0.06579 -1.64299,0.04451 -2.64735,-0.12302c-1.18489,-0.19765 -0.87751,-0.93801 -2.03074,-0.91972c-3.29742,0.05229 -5.86574,0.77172 -6.27058,0.89926zM238.31363,199.76277c-2.3957,3.54043 0.04171,5.95809 3.12079,6.66477c1.80353,0.41394 3.49679,-0.16642 5.44562,-0.37014c0.42446,-0.16325 0.61273,-0.34535 1.06337,-0.54425c-1.67967,-3.67025 -2.35816,-7.21946 -3.48693,-11.06265c-1.63085,0.9018 -5.07602,3.73569 -6.14285,5.31226zM260.36442,190.45238c3.72016,1.2921 3.9767,4.08862 1.86312,7.41734c-1.81899,2.86477 -3.95198,5.66402 -7.19645,7.96987c-2.17846,1.54824 -5.3414,2.94214 -7.43685,3.72914c-2.34396,0.26605 -7.1204,-0.01185 -9.36474,-0.94098c-5.43278,-2.2491 -5.11273,-7.16005 -1.93739,-11.85969c1.67651,-2.48132 6.28697,-5.35691 12.23256,-6.58055c4.50349,-0.92684 10.81001,-0.0928 11.83974,0.26485z" fill="#ff0000" stroke="none" stroke-linecap="butt"/><path d="M277.13384,239.6697c0,0 1.51509,0.10264 2.80033,0.1897c0.82908,0.05616 2.84235,3.63035 4.56543,3.74707c1.55459,0.10532 2.77942,-3.24952 4.3365,-3.14403c2.62887,0.17809 4.77102,0.3232 4.77102,0.3232c0,0 -7.00606,11.15959 -9.68276,11.40759c-1.06297,0.09848 -10.31151,-11.40759 -10.31151,-11.40759z" fill="#db93e6" stroke="#db93e6" stroke-linecap="round"/><path d="M240.28904,245.99347l1.13175,-6.19977c0,0 6.29297,0.30318 9.39665,1.17105c2.18023,0.60964 6.95088,3.66477 6.95088,3.66477l-5.03001,2.35591z" fill="#ab164a" stroke="#ab164a" stroke-linecap="round"/><path d="M310.96064,226.81062v0.08754c-0.00372,2.3343 -0.98399,4.1212 -2.63497,5.75718c-2.88273,2.36437 -6.12033,3.88393 -9.2955,5.78948c-1.01357,0.60828 -3.4341,2.35748 -4.62548,2.33963c-3.64364,-0.05461 -1.51171,-4.56099 -0.29477,-5.76095c4.55177,-3.59433 10.43939,-6.79088 15.799,-9.05714c0,0 0.6935,-0.29307 0.99071,0.39075c0.0768,0.1767 0.08745,0.32732 0.061,0.45352z" fill="#ab164a" stroke="none" stroke-linecap="butt"/><path d="M184.55712,240.51013l0.08514,-0.20989c2.96212,-3.27781 8.21723,1.09676 10.93662,3.01258c0.75689,0.59801 2.12338,1.5364 2.43654,2.49639c0.5731,1.75682 -0.22127,4.34527 -2.56198,3.7809c-1.86495,-0.44966 -2.36105,-2.40587 -3.78882,-3.42708c-2.24093,-1.60282 -5.0961,-2.8466 -7.49203,-4.26411c0,0 -0.64698,-0.38277 -0.25879,-1.02072c0.18804,-0.30903 0.43681,-0.37854 0.64334,-0.36808z" fill="#feebf7" stroke="none" stroke-linecap="butt"/><path d="M192.01103,239.39823c-0.03025,0.22538 -0.15773,0.53677 -0.61956,0.61267c-0.74424,0.12231 -0.86827,-0.61155 -0.86827,-0.61155l-0.17537,-1.05291c0.01919,-2.69632 1.86586,-3.32866 4.29573,-2.53214c3.5179,1.15319 7.69397,3.57755 10.26409,6.10779c1.93967,2.54516 0.49255,6.03214 -3.07744,4.46906c-3.50158,-1.53313 -7.03092,-4.33492 -9.81919,-6.99292z" fill="#feebf7" stroke="none" stroke-linecap="butt"/><path d="M201.04035,237.44496c-0.19071,0.09615 -0.38358,0.09615 -0.38358,0.09615l-0.62037,-0.14879c-1.96158,-1.57485 -1.53385,-4.58993 1.14835,-5.12826c3.27772,-0.65785 6.1136,0.82907 9.25163,1.74248c3.3252,1.51327 5.4099,6.96701 0.82821,7.33578c-3.57243,0.28753 -7.05404,-2.14436 -10.22425,-3.89737z" fill="#feebf7" stroke="none" stroke-linecap="butt"/><path d="M186.40509,262.00955c0.24237,0 0.40688,0.07677 0.51854,0.18098c0.17948,0.00542 0.35895,0.01084 0.53843,0.01626c2.61399,1.66236 4.77482,7.957 0.47801,9.20149c-1.8713,0.54199 -5.06272,0.12858 -6.91454,-0.32767c-3.23311,-0.79657 -6.7781,-0.83649 -10.09313,-1.49685c-3.07422,-1.20434 -6.65938,-2.78119 -8.34603,-5.84796c-1.71701,-3.12199 0.77768,-7.01893 3.66025,-8.24726c0.20097,-0.12542 0.39019,-0.12641 0.54491,-0.08239c0.16495,0.02808 0.3419,0.11593 0.46836,0.33286l0.41897,0.51051c0.51304,1.24271 0.8757,2.91679 2.06535,3.7512c1.24526,0.87341 3.55648,0.81678 5.02441,1.02346c3.68658,0.51904 7.6231,0.39063 11.29395,1.05075c0.09206,-0.04056 0.20469,-0.06538 0.34248,-0.06538z" fill="#feebf7" stroke="none" stroke-linecap="butt"/><path d="M277.00809,277.73631c-8.04499,0 -13.94486,-2.72984 -20.6352,-6.04656c-0.00897,0.02728 -0.01782,0.05463 -0.02654,0.08205c0,0 -0.23859,0.70579 -0.95437,0.47053c-0.71578,-0.23526 -0.47719,-0.94106 -0.47719,-0.94106c0.03363,-0.09544 0.06844,-0.19015 0.1044,-0.28415c-0.53097,-0.264 -1.06794,-0.53071 -1.6123,-0.79909c0,0 -0.67485,-0.33271 -0.33742,-0.99814c0.33742,-0.66543 1.01227,-0.33271 1.01227,-0.33271c0.52709,0.25986 1.04682,0.5183 1.56058,0.77432c3.07808,-5.69578 10.64982,-8.44514 16.42796,-10.18154c3.58966,-1.07014 3.40459,-0.79364 6.80722,-2.31788c4.49397,-2.01311 3.16321,-0.52044 8.02728,-1.00006c0.33361,-0.00039 18.73244,-2.35684 18.73244,-2.35684c3.4738,0.00002 0.47342,-3.52725 3.34194,-1.27004c0.85766,1.04593 2.65071,3.34915 3.85648,4.78791c1.59269,-3.02577 1.5006,-7.69231 1.90214,-11.28775c0,0 0.08332,-0.73942 0.83321,-0.65727c0.06358,0.00696 0.12117,0.01866 0.17332,0.03422c0.61413,-0.23307 0.9212,0.37248 0.9212,0.37248c0.99086,1.95408 2.48318,3.87479 3.07506,5.97981c1.60757,5.71729 -2.10553,11.69487 -5.42414,16.06233c-3.16539,3.98721 -6.96405,6.42064 -11.7118,8.27222l-0.96855,0.14179c0,0 -0.43438,0.06118 -0.68794,-0.23639c-8.0563,0.09306 -15.82283,1.73182 -23.94005,1.73182z" fill="#ab164a" stroke="none" stroke-linecap="butt"/><path d="M274.16461,230.50767c0.03541,1.16294 5.76207,7.37445 4.49086,8.24914c-0.28095,0.13817 -0.64921,0.36532 -1.07307,0.63424c-1.81504,1.15156 -4.6495,3.06897 -6.01208,2.04466c-0.65178,-0.48997 -0.13513,-3.80654 -0.09374,-4.41678c0.23305,-3.43602 0.81831,-6.50067 1.65578,-9.80524c0,0 0.18299,-0.72176 0.91497,-0.54132c0.5109,0.12594 0.02627,0.84637 0.11728,3.8353z" fill="#ab164a" stroke="none" stroke-linecap="butt"/><path d="M318.61044,248.53537c0,-0.74397 0.7545,-0.74397 0.7545,-0.74397h0.16767c2.33608,0.0234 4.11643,1.5228 5.89885,2.86315c1.10308,1.53262 0.72399,3.4801 0.72399,5.32056c0,5.74253 -3.00888,13.29183 -8.08847,16.68022c-6.37253,3.14707 -12.96474,5.87286 -19.782,7.84041c-2.56552,0.74044 -4.68713,1.67749 -7.4234,1.68375c-9.17398,0 -17.6416,-0.55752 -26.65168,-2.02161c-7.5862,-1.23277 -18.15504,-6.4337 -16.34251,-15.55454c0.28027,-1.65815 0.69881,-4.48283 2.05296,-5.68242c0.82366,-0.72966 1.93478,-1.1804 2.83496,-0.05635c0.5866,0.73248 0.04046,3.25381 -0.04051,4.11566c-0.24706,2.62968 0.03612,4.9576 2.43368,6.38122c7.45752,2.94138 13.71857,5.41903 22.08521,4.38778c7.38687,-0.01009 15.59931,0.18527 22.57699,-2.59643c6.33957,-2.33911 11.74601,-6.60142 16.80268,-10.8796c0.14809,-2.63448 1.37054,-5.05376 2.56631,-7.41344l0.10416,-0.25734c-0.23951,-1.20229 -0.50237,-2.41501 -0.50571,-3.57108c0,0 0,-0.00062 0.00002,-0.00184c-0.09753,-0.1096 -0.16768,-0.26728 -0.16768,-0.49415z" fill="#feebf7" stroke="none" stroke-linecap="butt"/><path d="M248.44185,269.8626c0,0 13.1491,16.72583 54.13773,5.34904c7.62842,-2.11734 15.32358,-8.38897 19.48346,-14.16989c3.06413,-4.25817 2.66724,-9.86114 2.66724,-9.86114c0,0 0.81451,2.52869 0.99097,4.61662c0.20918,2.47507 0.1827,9.27088 0.1827,9.27088l-7.37734,7.93571l-19.44936,7.10908l-22.97036,2.14926l-14.92235,-2.31458l-8.04801,-4.29851z" fill="#db93e6" stroke="#db93e6" stroke-linecap="round"/><path d="M245.15173,252.66428c1.95934,-0.81074 2.6507,-1.67147 4.24397,-3.06664c0.41471,-0.36316 1.62192,-1.3692 2.24762,-1.26124c1.64433,0.2837 1.84293,1.81705 2.45086,2.96972c0.17415,0.3302 1.35767,2.24851 1.33764,2.6592c-0.05673,1.16334 -1.21184,1.94678 -1.95403,2.6138c-1.9551,1.75708 -3.60107,3.76988 -5.67644,5.43485c-4.4326,2.29477 -10.58372,1.96434 -15.48002,2.08674c-2.80141,0.07002 -5.50175,0.46967 -8.30788,0.20768l-0.72518,-0.11292c0,0 -0.59597,-0.09406 -0.63653,-0.63951c-3.69023,0.23815 -7.27816,0.91801 -10.7892,2.25075c-3.32644,1.30853 -6.33309,3.30035 -9.6399,4.6288c-3.56217,1.43104 -8.29855,1.62236 -12.09701,1.62236c0,0 -0.29269,0 -0.51347,-0.17975c-0.34839,0.03631 -0.61888,-0.23041 -0.61888,-0.23041l-0.52904,-0.52524c-0.86395,-0.60669 -3.57397,-4.05618 -4.16109,-4.96869c-0.22416,-0.34839 -0.31472,-1.85228 -0.31808,-1.94826c-0.00921,-0.26319 0.63731,1.43771 0.98283,0.7704c0.12567,-0.24271 0.21152,-1.67689 0.21152,-2.07341c0,0 0,-0.74397 0.7545,-0.74397c0.25502,0 0.42384,0.08499 0.53561,0.19752c1.70496,-1.16848 4.59902,-0.63115 6.59026,-0.63115c4.59273,0 9.66269,0.70188 13.94316,-1.25757c4.88282,-2.09332 9.77069,-4.3153 14.82462,-5.97865l0.12122,-0.13738c0,0 0.6036,-0.44638 1.0563,0.14879c0.02975,0.03911 0.05494,0.07758 0.07603,0.11533c7.24929,-0.0171 14.98481,-0.57578 22.07057,-1.95114z" fill="#db93e6" stroke="none" stroke-linecap="butt"/><path d="M202.90632,248.43603l-0.50271,-0.65389c0,0 -0.06963,-0.09154 -0.14451,-0.24287c-0.40797,0.04536 -0.90732,-0.06323 -1.32165,-0.64686c-0.86535,-1.21897 0.37086,-2.07225 0.37086,-2.07225c0.47905,-0.33065 0.9581,-0.66131 1.43714,-0.99196l0.68534,-0.40911c0.06754,-0.04479 0.14193,-0.08757 0.22374,-0.12791c0.44059,-0.21722 0.80927,-0.22171 1.10604,-0.12921c0.30073,0.07907 0.60932,0.27803 0.86277,0.69453c0.06738,0.11073 0.11916,0.21762 0.15755,0.32049c0.51227,1.15544 0.7528,2.44555 0.77606,3.70436v0.48926c0.06258,0.30072 0.03858,0.65983 -0.21803,1.01843c-0.14067,0.25126 -0.37211,0.4941 -0.75288,0.61299c-0.36596,0.15775 -0.7023,0.12529 -0.97597,0.02753c-0.4326,-0.10325 -0.69048,-0.35793 -0.84422,-0.62488c-0.28652,-0.32288 -0.57304,-0.64576 -0.85955,-0.96864z" fill="#db93e6" stroke="none" stroke-linecap="butt"/><path d="M213.28342,236.48912c0.37686,-0.18579 0.7011,-0.21596 0.97273,-0.16292c0.27178,0.05232 0.5603,0.20129 0.83775,0.51396c0.17147,0.19323 0.27955,0.38231 0.34098,0.5629c0.51623,0.99817 1.28826,2.39473 1.18018,3.46787c-0.15355,1.52468 -1.33935,3.93167 -3.19401,4.21215c-1.99336,0.30145 -4.22262,-0.76123 -4.28566,-2.91015c-0.28104,-0.1231 -0.55133,-0.36353 -0.73777,-0.80475c-0.58038,-1.37349 0.81254,-1.94578 0.81254,-1.94578c0.95811,-0.3736 1.85183,-0.96613 2.56747,-1.697l0.96959,-0.83746c0.12659,-0.14614 0.30053,-0.28261 0.5362,-0.3988z" fill="#db93e6" stroke="none" stroke-linecap="butt"/><path d="M199.80238,250.99894c0,0.79788 -0.63689,1.44908 -1.43672,1.48627c-0.19612,0.09194 -0.41553,0.14339 -0.64713,0.14339c-0.8334,0 -1.509,-0.66617 -1.509,-1.48795c0,-0.1137 0.01294,-0.22442 0.03743,-0.33081l-0.71838,-0.41047c-0.38799,0.14127 -1.30668,0.33814 -1.86537,-0.67185c-0.72259,-1.30626 0.60216,-2.01877 0.60216,-2.01877c0.52695,-0.28341 1.05391,-0.56684 1.58086,-0.85025l0.61702,-0.30526c0.00185,-0.00092 0.00371,-0.00184 0.00557,-0.00276c0.46875,-0.2311 0.85609,-0.22142 1.16204,-0.11033c0.31236,0.09213 0.62813,0.31356 0.8625,0.77576c0.04142,0.08167 0.0752,0.16084 0.10215,0.23749c0.36798,0.78085 1.0048,1.52978 0.89997,2.36679c-0.0095,0.07582 -0.02613,0.14869 -0.04891,0.219c0.222,0.25909 0.35582,0.59401 0.35582,0.95974z" fill="#db93e6" stroke="none" stroke-linecap="butt"/><path d="M200.21573,236.47374c2.89886,0.25689 5.07675,1.71908 6.77004,2.68678c2.34272,1.33883 5.27408,7.38205 7.61691,3.0194c1.55051,-2.43277 -0.39209,-4.94761 -2.65335,-6.30062c-0.70397,-0.42121 -8.64712,-2.14504 -9.73189,-2.13091c-3.49157,0.04548 -2.48417,2.56865 -2.00171,2.72534zM213.02207,234.20088c1.48155,0.89145 4.64397,3.93473 5.01742,6.26094c0.3581,2.23061 -2.35393,4.74165 -2.53325,4.95297c-3.63304,4.28117 -6.1628,-1.71961 -8.92194,-3.25287c-0.87846,-0.48817 -1.88597,-1.52347 -2.82067,-1.7824c1.92153,1.66694 3.10993,2.99471 3.84167,4.64777c0.76806,1.73512 0.07302,4.41387 -1.78558,6.28255c-0.3634,0.1673 -0.97927,0.46626 -1.57316,0.08361c-1.39043,-0.89587 -3.03603,-3.30516 -3.73395,-3.9424c-0.56432,-0.51526 -1.13311,-1.03787 -1.70874,-1.55986c1.28492,1.90558 2.14483,3.93539 1.65273,6.50185c-0.33156,0.89975 -1.54014,1.4797 -2.67802,1.57421c-0.75589,0.06277 -1.48057,-0.13487 -1.89622,-0.42769c-2.43409,-1.71481 -3.77784,-4.29102 -5.5589,-6.58138c-0.89039,-1.14499 -3.11081,-3.41753 -4.5761,-4.02301c-5.11058,2.13571 -12.77834,5.23881 -14.90152,7.80697c-0.93919,1.13604 -1.24758,4.0957 -0.61313,5.60957c0.34279,0.81793 1.1394,0.98399 1.82944,1.49694c3.40906,1.90073 24.7056,3.97305 30.00825,2.94388c2.67235,-0.51867 3.67714,-1.56617 6.29402,-2.34721l0.52307,-0.2116c0,0 0.21314,-0.08407 0.49373,-0.09057c1.43304,-0.77343 4.07525,-1.63106 5.7503,-2.31238c2.14711,-0.87333 3.35202,-1.51499 5.28058,-1.93657c3.27684,-0.71632 5.64907,-0.4808 9.18035,-0.82598c3.90187,-0.3814 14.87849,-1.341 16.41887,-2.32453c1.44565,-0.92305 2.71774,-2.84925 2.71774,-2.84925c-2.52509,0.40802 -4.61903,-0.01555 -6.79895,-0.01555c-0.65006,-0.04681 -1.38005,0.17106 -1.95017,-0.14042c-0.13869,-0.07577 -0.25311,-0.19296 -0.34666,-0.34312c-0.22651,-0.10047 -0.44662,-0.21704 -0.65863,-0.33446c-0.23386,-2.35572 -0.19316,-4.03325 0.42662,-5.85219c0.20189,-1.05242 1.13747,-3.19172 2.37411,-5.0421c0.06404,-0.20156 -1.69437,-0.16086 -1.29341,-0.34893c0.30383,-0.14252 2.31427,-0.81266 2.74143,-0.87067c0.34274,-0.20757 0.71872,-0.37931 1.13128,-0.50547c0.46638,-0.14261 0.96584,-0.24611 1.48904,-0.31618c-1.99131,-2.36293 -4.1177,-6.82899 -8.59131,-8.21639c-0.31828,-0.09871 -1.45339,-0.18952 -2.07148,0.38797c-0.77815,0.72702 -1.11132,2.24954 -2.17319,3.18417c-2.56922,2.26134 -4.22657,3.86016 -4.75884,3.85754c-0.00435,0.13895 -0.24747,2.49494 -1.4857,3.16998c-2.77396,1.51224 -7.96943,1.83629 -8.4147,1.30943c-0.3911,-0.46276 3.42588,-2.01951 5.51085,-3.21738c1.34839,-0.77468 1.28072,-1.3468 1.21127,-1.55251c-0.0118,-0.02893 -0.02204,-0.05747 -0.03092,-0.08525c-0.00217,-0.00559 -0.00438,-0.01119 -0.0066,-0.01676c0,0 -0.00452,-0.01335 -0.01085,-0.03742c-1.64792,-2.53808 -4.29179,-7.51091 -9.60719,-9.3488c-4.52713,-1.56533 -11.78641,-0.24369 -13.45476,0.18433c-3.87932,0.99524 -6.57669,2.55304 -2.94675,6.52676c0.25179,0.24813 0.50359,0.49625 0.7554,0.74437l0.60274,0.45254c0,0 0.05911,0.04533 0.13254,0.12717c0.14055,0.00105 4.06671,0.14792 6.33698,0.46711c2.91583,0.40994 4.46154,1.10414 6.18089,2.13866zM191.5943,237.99059c3.81198,2.03877 5.45958,2.88204 8.60869,5.77288c0.0941,0.08638 3.9407,5.68895 5.20002,5.23422c1.48575,-4.39871 -4.6232,-9.00898 -8.07126,-11.00901c-2.37533,-1.3778 -4.84031,-3.10853 -5.73746,0.0019zM189.29219,235.76968c0.65046,-1.16205 1.21175,-1.7568 2.81097,-2.17011c1.08789,-0.28115 3.19656,-0.47835 4.03545,-0.71305c0.9522,-0.26639 0.74393,-1.16797 0.66078,-1.25001c-0.54345,-0.59584 -0.3964,-1.21916 -0.83033,-1.89844c-3.22736,-2.46058 -0.68178,-4.96968 0.31503,-5.93995c0.60181,-0.58578 1.86525,-0.92248 1.86525,-0.92248c0.38493,-2.28319 0.81555,-5.1167 1.55929,-7.31564c0.77692,-1.99181 1.75701,-5.62371 3.53147,-7.03196c1.1268,-0.89426 2.308,-0.66383 3.55719,-0.50813c3.82266,0.47646 8.0134,2.99537 11.3971,4.81283l0.1721,-0.21817c0.36692,-0.47796 0.6829,-0.99577 0.95754,-1.531c-1.20491,-1.25141 -4.96167,-5.98651 -4.50018,-7.92682c0.82102,-3.45191 12.19008,-10.15858 14.96709,-11.80174c3.92142,-2.3203 8.60571,-4.29878 12.53904,-6.47925c-0.20409,-1.71168 -1.08523,-3.78527 -1.09781,-5.62908c0,0 -0.62568,-2.00318 0.69928,-3.96715c1.24444,-1.84463 4.90529,-4.49341 6.13274,-5.42515c5.07897,-3.8554 15.32238,-5.83435 21.63782,-5.83435c2.4832,0 7.40671,0.95691 7.63103,1.10389c1.73484,-1.39764 4.97529,-3.19024 8.74652,-3.84572c2.0334,-0.35343 5.38062,-0.02447 6.10681,0.07954c4.37282,0.62634 5.38906,4.54885 4.21807,8.33901c-0.27966,0.9052 -4.01278,6.26764 -3.61025,10.49134c0.43097,4.52211 5.3807,12.87745 5.47309,16.03389c0.07497,0.29034 0.00734,0.55616 -0.08899,0.76002c-0.08367,0.22649 -0.2417,0.48028 -0.54015,0.63109l-0.46322,0.39959c-1.28249,0.6323 -2.39553,1.28683 -3.73772,1.57737c-0.00259,0.04317 -0.0062,0.06804 -0.0062,0.06804c-0.61272,4.15863 -0.26575,6.53679 2.35269,9.76326l0.42535,0.19429c0.23286,0.07726 0.43525,0.21992 0.58471,0.40583c0.10523,0.12126 0.20754,0.27823 0.26091,0.46741c0.6142,0.32678 0.6142,1.09581 0.6142,1.09581c0,0.46292 0,0.92583 0,1.38875l-0.08241,0.3777c0.08618,0.06825 0.16805,0.15481 0.24211,0.26375l0.6351,0.65467c1.75122,2.59911 3.46803,5.30195 5.03994,8.03323c0.14806,-0.10731 0.40675,-0.25708 0.71785,-0.27713l1.11025,-0.26614c2.83674,-0.68792 3.69086,0.16055 4.91115,2.2773c1.85687,3.22099 2.31632,4.92878 1.19996,7.07525c-1.29474,2.48944 -4.6199,4.38138 -7.14868,6.08456c4.44279,1.67326 7.26496,3.38306 11.0676,6.62667l3.34778,2.09658c2.13544,1.05222 5.72979,3.18504 7.86564,4.23806c0.35492,0.09296 0.56422,0.31044 0.68764,0.5346c0.14813,0.20911 0.2518,0.49095 0.1774,0.84554c0,3.62019 0,7.35615 0,10.97227c0,1.43942 0.26033,3.21709 -0.35276,4.57934c-1.85334,4.11805 -8.40296,7.64581 -12.37566,9.21614c-8.69524,3.57063 -17.47864,6.98603 -26.9094,7.37298c-18.84421,0.5082 -23.64336,-1.45702 -25.45709,-2.10487c-4.68284,-1.14945 -10.06804,-3.88681 -13.63364,-7.39922c-2.62107,-2.58195 -2.99872,-7.24792 -2.26859,-11.10199c-2.16433,0.91167 -4.47822,1.02491 -6.93318,1.26703c-0.40766,0.0402 -0.81488,0.07962 -1.22174,0.1181c-6.27133,1.38782 -13.27295,2.10038 -19.60524,1.73709c-0.23819,0.44273 -0.79877,0.5004 -0.79877,0.5004l-1.4108,0.14436c-3.3248,0.60524 -5.86595,1.55828 -10.26208,3.04828c-3.52061,2.16045 -6.10433,2.80523 -10.57642,3.28959c-6.39071,0.69216 -13.55037,0.40268 -19.56709,-0.97331c-1.87718,-0.42929 -2.66382,-0.8151 -4.33051,-1.30797c-2.53852,-0.76979 -5.80926,-1.24301 -7.85519,-3.44018c-0.64207,-0.68952 -1.89391,-3.4095 -2.42261,-4.55919c-0.76134,-1.65557 -0.61227,-1.8945 0.05291,-3.62414c0.38911,-1.01178 1.60666,-2.33293 2.22402,-3.2686c0.77494,-1.17452 1.76881,-2.1694 2.83714,-3.07616c0,0 0.31805,-0.90183 0.88672,-1.84999c0.44367,-0.73974 1.11148,-1.50768 1.43186,-1.89752c2.9561,-3.59702 12.79145,-8.76084 12.79145,-8.76084c0,0 -0.07559,-2.20732 1.97332,-3.33809c0.97001,-0.53533 2.31475,-0.30678 4.40459,-0.36681c0.87114,-0.02503 1.16412,-0.81122 1.23076,-0.94511zM185.30203,240.54008c5.02711,1.96307 6.59187,4.49847 10.03506,8.45836c0.67999,0.78201 3.09629,4.17522 3.63646,2.08483c0.0194,-1.56328 -0.95248,-2.46491 -1.83357,-3.66775c-1.65338,-2.25714 -4.02853,-5.29495 -6.57699,-6.99058c-0.02342,0.00374 -1.79749,-1.14825 -2.76573,-1.143c-1.69529,0.00919 -2.49525,1.25813 -2.49525,1.25813zM305.04877,249.34929c2.60553,0.96451 4.95325,4.00487 1.04232,5.23985c-4.26067,1.34542 -8.97961,0.6433 -13.31748,1.51043c-5.76609,0.47654 -11.5581,1.49001 -17.13688,3.16152c-2.28723,0.6853 -7.62503,3.68744 -10.93416,2.38443c-1.51672,-0.59722 0.46513,-4.66467 0.65244,-5.07114c-0.21034,-0.02359 -0.93833,0.46326 -1.51177,0.51089c-3.30241,0.27432 -1.02782,-3.64386 -0.09185,-5.01977c-1.68063,0.01875 -3.29761,1.0684 -3.98953,-0.9904c0.27745,-1.16598 0.68114,-2.6105 1.45373,-3.91588c0.62998,-1.06442 1.57266,-2.03631 2.33901,-2.68926c-0.2883,-0.13368 -0.45529,-0.38067 -0.45529,-0.38067l-0.53942,-0.80206c-0.7871,-1.36241 -1.78516,-2.3609 -2.32466,-3.84323l-0.0946,-0.21051c-3.98701,-1.54618 -9.32208,-3.15388 -13.43205,-3.13418c0,0 -0.47369,0.00001 -0.83961,-0.28666c-2.84242,0.84897 -4.21067,3.20825 -4.70314,6.10964c-0.17883,1.05358 -0.66576,2.91633 -0.30697,3.8751c0.10944,-0.02642 0.19096,-0.02642 0.19096,-0.02642h0.62875c0.35161,0 0.70191,-0.00561 1.0511,-0.01586c-0.07761,-0.31862 -0.02068,-0.5993 -0.02068,-0.5993c0.59003,-2.12726 0.80296,-2.948 4.25109,-2.52982c3.11463,-0.24947 2.80263,2.13018 2.30328,2.62594c1.44433,-0.12585 5.55976,-0.08264 5.11598,0.51904c-0.54873,0.74397 -1.26381,0.74697 -1.51767,0.75257c-0.0557,0.02791 -0.11202,0.05526 -0.1689,0.08206c1.18784,2.09762 2.40627,4.41003 3.25727,6.6288l0.06967,0.205c0.12362,0.19793 0.13931,0.41087 0.11896,0.5857c-0.00422,0.15042 -0.03851,0.32477 -0.14263,0.48387c0.03182,0.20454 0.00184,0.36714 0.00184,0.36714c-0.42583,2.30765 -0.91608,3.85394 -2.46801,5.65115c-0.21192,1.79183 -0.39143,3.81147 0.14353,5.27519c0.55497,1.51845 2.2149,2.20557 3.4942,2.96249c3.71397,2.19744 7.94695,2.7979 12.14532,3.68433c6.20695,0.87167 12.13785,0.8049 18.25251,-0.48772l0.51498,-0.02753c0,0 0.05766,0 0.14828,0.01217l0.62754,-0.13188c5.88526,-0.48357 12.45683,-2.38673 17.66878,-5.14579c5.117,-3.68166 12.85475,-8.27891 10.77127,-15.74458c-0.14929,-0.53495 -2.89445,-4.57571 -6.11547,-7.20118c-3.68022,-2.99976 -8.06548,-4.62017 -11.36086,-5.16039c0,0 -1.24039,0.4274 -1.03366,-0.79568c0.20673,-1.22308 3.81934,-2.89898 4.72501,-3.47652c-0.59558,-0.09769 -0.59236,-0.42775 -0.59236,-1.04274c0,-0.22662 0.06166,-0.43905 0.16934,-0.62186l0.61765,-1.09627l0.04038,0.02212l0.0303,-0.13329c1.31915,-1.4948 3.4572,-4.12157 5.02993,-0.82692c0.16193,-0.21688 0.30536,-0.43822 0.42704,-0.66424c1.37202,-2.54871 -0.79611,-6.05155 -3.80634,-5.28082c-0.02365,0.00605 -2.45453,1.67006 -3.76468,2.88965c-1.73034,1.61074 -2.52681,2.98324 -3.32606,4.04094c-2.57435,3.4068 -3.02457,4.7398 -5.44723,7.10503c2.70237,0.43868 4.67909,1.75883 5.84141,4.80368l0.06405,0.96828c0,0 0,0.08061 -0.02331,0.19587c0.09182,0.0375 2.75993,0.67567 3.19781,0.90729c2.33977,1.23767 3.07954,3.79239 3.07954,3.79239zM275.22395,257.37179c5.6864,-1.70662 11.38905,-2.75674 17.26837,-3.23666c3.16188,-0.61559 6.50355,-0.51789 9.71232,-0.87164c0.65494,-0.07221 3.57111,-0.16417 3.89105,-0.54643c0.31282,-0.37376 -2.24095,-2.08804 -4.32021,-1.9312c-7.42433,0.56005 -19.43288,1.78652 -23.00777,2.32602c-2.05479,0.31009 -8.58337,1.68624 -11.50049,3.60212c-1.44787,0.95092 -1.34554,3.17919 -1.36045,3.60035c3.03478,-0.28875 6.37293,-2.05892 9.3172,-2.94257zM287.65541,243.31898c3.10997,-0.03395 5.55536,-0.24131 8.62469,0.50128c-1.12998,-2.8202 -3.15602,-2.66997 -5.99465,-2.73364c-1.10129,0.94181 -1.15439,1.41936 -2.63004,2.23237zM268.56462,250.47297c-0.76671,0.52717 -4.91576,3.04261 -3.6883,3.83746c3.62512,-0.42554 12.76436,-3.01627 16.30145,-3.55615c6.61062,-1.00901 7.92018,-1.5391 14.64926,-1.5391c1.24602,0 2.66845,-0.2833 4.03807,-0.29788c0.92284,-0.00982 1.82168,0.31903 2.62644,0.11908c-0.41283,-0.80291 -1.47333,-2.66387 -3.54054,-3.20426c-2.09236,-0.54696 -9.42025,-1.21367 -16.02421,-0.27242c-6.46276,0.92112 -12.20244,3.42835 -14.36215,4.91327zM277.81991,240.14924c-3.28581,0.96119 -8.60041,3.33534 -12.15519,5.82095c-1.8316,1.2807 -3.0482,1.93524 -3.58906,3.81535c-0.13205,0.44553 3.37703,-0.63658 4.0126,-0.64453c6.31744,-3.09945 9.79347,-4.22441 15.3578,-5.3496c-1.22602,-0.96727 -2.48508,-2.13216 -3.62614,-3.64217zM218.03126,263.01467c2.76228,-0.27053 18.41461,-0.87889 22.93454,-1.71454c0.84322,-0.29764 1.81047,-0.31686 2.69682,-0.48114c2.00163,-0.66743 3.74207,-1.43034 5.27499,-3.01418c0.94613,-1.54534 1.79262,-2.84387 3.59559,-3.78702c0.2344,-0.12262 0.90795,-0.65855 1.04117,-0.68496c-0.62019,-1.58095 -1.07455,-2.95579 -1.9242,-4.50308c-0.1705,0.34932 -0.47783,0.55135 -0.47783,0.55135l-0.24672,0.14945c-1.20003,1.03141 -1.11081,0.48259 -1.75842,1.08812c-0.76237,0.71282 -2.26357,2.53826 -3.95846,3.29322c-4.05328,1.09777 -11.2134,1.21223 -15.34912,1.62223c-2.79629,0.27721 -8.32642,-0.05761 -10.9488,0.41679c-1.26966,0.22969 0.14801,0.56418 -0.81587,0.9816c-2.08553,0.90317 -5.40655,2.19464 -7.99082,3.65307c0,0 -6.13917,2.0849 -8.94424,2.64478c-4.75695,0.94947 -23.23683,-0.65151 -31.17624,-2.95396c-2.26017,-0.65546 -3.5821,-3.46392 -3.5931,-3.55198c-0.48912,0.49152 -0.84846,0.29923 -1.2264,0.87864c-0.57961,0.8886 -1.38745,1.44274 -1.77713,2.39011c-0.2041,0.49619 0.84766,2.43235 1.73756,3.53002c1.99318,2.45858 3.82368,4.06395 6.09984,4.75338c10.18385,3.01349 24.58421,3.66073 33.17958,-0.75017c2.67868,-1.32151 10.2418,-4.18015 13.62726,-4.51171zM232.48743,219.3091c0.35086,-0.92968 6.17356,4.16287 6.25366,4.39117c3.26083,0.76404 6.83252,4.69389 8.57221,7.28094c0.23195,0.34494 1.19906,2.01048 1.29993,3.04567c4.09606,0.18027 8.60655,1.56631 10.18517,2.10563c-0.88336,-3.37162 1.3293,-5.43496 4.25874,-6.99468c0.81343,-0.71828 2.73339,-1.65804 5.16405,-2.50319c1.99694,-0.69435 5.59197,-1.43718 6.09696,-1.66257c0.842,-0.37582 1.15874,4.52607 1.40726,5.33423c0.56964,1.8524 4.50667,8.8119 7.70563,11.78511c2.7523,-0.14076 4.87047,-2.0295 6.64854,-3.8773c2.93222,-3.0472 4.93957,-6.97807 7.34082,-10.11712c1.17415,-1.53492 2.70116,-2.78939 4.18107,-4.07207c-1.5702,-2.77095 -3.30466,-5.53129 -5.08428,-8.16396c-1.34914,0.66237 -2.59938,1.51378 -3.96985,2.18945l-0.1702,0.08392c-0.23668,0.19558 -0.51034,0.24898 -0.74217,0.24763c-0.23329,0.02052 -0.51384,-0.01113 -0.76824,-0.19148c-3.83629,-1.57715 -7.27561,-4.23799 -10.86345,-6.26734l-0.43297,-0.13979c-2.57598,2.10218 -5.47873,4.98498 -8.74845,8.22652c0,0 0.09039,-1.33948 0.53529,-2.31398c0.12324,-0.26993 0.2143,-0.7761 0.24591,-0.84913c-1.00367,0.41593 -3.56115,1.29731 -5.63145,1.6829c-7.60129,1.41572 -19.45089,1.63287 -29.85834,-0.23208c-6.28156,-1.12561 -13.03292,-4.4119 -15.27265,-5.81c-0.26421,0.46087 -0.55512,0.90734 -0.87513,1.33127l-0.6758,0.85682c-0.1828,0.27638 -0.40956,0.38997 -0.6231,0.42321c-0.20986,0.05197 -0.46391,0.035 -0.74224,-0.14913c-2.29173,-1.25922 -7.30696,-3.36417 -10.5969,-4.17616c-1.51651,-0.37429 -2.9102,-0.1734 -3.06565,-0.02562c-1.37004,1.30246 -2.00335,3.80033 -2.65931,5.48204c-0.69835,2.06691 -1.09476,3.99709 -1.45871,6.14455c0,0 10.01042,-3.08168 13.58841,-2.50606c6.27769,1.00996 11.68124,9.71792 13.40136,12.35935c0.28699,-0.32652 3.18963,-2.63113 4.81891,-4.51036c0.49631,-0.57244 1.20633,-2.33257 1.26782,-2.43063c0.59544,-0.94947 1.3871,-1.46582 2.30067,-1.67405l-0.01548,-0.0151c0,0 -3.18062,-3.85768 -3.018,-4.28857zM275.86807,236.90416c-1.43247,-3.05196 -2.33919,-7.40678 -2.43273,-8.09309c-0.02466,-0.1809 -0.03088,-0.46166 -0.01931,-0.75241c-0.19186,0.14374 -1.86256,-0.09113 -2.42022,0.10123c-1.03248,0.35615 -2.38215,0.81852 -3.69506,1.21109c-3.81905,1.48613 -8.31555,3.09235 -5.9976,7.6622c0.17139,0.06452 0.34092,0.12891 0.50846,0.19304c0.32703,0.04196 1.11874,0.24516 1.11874,1.22902c0,0.54239 -0.24061,0.84752 -0.51134,1.01918c0.50639,0.99729 1.306,1.8274 1.88779,2.82852l0.46658,0.68587c0,0 0.1202,0.17777 0.16535,0.42332c3.5061,-2.41725 8.15313,-3.91231 11.72846,-4.98912c-0.27975,-0.47657 -0.54711,-0.9819 -0.79914,-1.51885zM319.72762,250.28966c2.40592,8.75291 -3.0769,13.55133 -10.21757,17.57639c-5.55079,2.95482 -14.16884,5.90387 -20.44496,6.4196l-0.96339,0.22275c0,0 -0.27131,0.05945 -0.58717,-0.00332c-6.23473,1.24409 -12.30787,1.28057 -18.64319,0.38557c-5.35643,-1.13256 -15.26825,-2.17966 -17.55853,-8.23263c-0.51442,-1.35956 -0.53854,-3.04217 -0.42252,-4.69618c-0.02308,-0.51057 -0.0314,-1.03136 -0.03185,-1.56261c-1.42515,1.58189 -1.85147,3.5453 -2.15407,5.26447c0,0 -0.00677,0.03667 -0.02488,0.09451c-0.0139,0.05219 -0.0325,0.10856 -0.0574,0.16599c-0.10529,2.48062 0.28271,3.93967 1.7765,5.41484c3.26194,3.22129 8.04428,6.53576 12.31662,7.59296c1.08756,0.39117 13.34569,2.53717 25.7328,1.51719c10.53595,-0.86754 20.49974,-5.08451 24.6729,-6.79996c2.78222,-1.09479 10.71452,-7.17822 11.47115,-8.79701c0.60929,-1.30358 0.33315,-2.31151 0.33315,-3.70582c0,-3.00977 0,-6.01954 0,-9.02931c-1.84076,-0.90754 -3.67848,-1.81361 -5.51869,-2.72136c0.12719,0.29386 0.23787,0.5911 0.32111,0.89391zM294.03807,195.56916c0.122,-0.48117 1.07429,0.09695 1.07429,0.09695l0.59717,0.15733c0.0108,0.00776 0.02161,0.01552 0.0324,0.02328c-0.19673,-2.9081 -3.48444,-8.51208 -4.82908,-12.81729c-0.88236,-2.82512 -0.43108,-5.09097 -0.31064,-5.66879c0.52776,-2.53216 2.38782,-5.62366 3.15012,-8.03132c0.30567,-0.96542 -0.56829,-4.46928 -1.5709,-5.05391c-2.13001,-1.242 -4.00264,-0.45232 -6.36418,-0.45567c-2.43912,0.22792 -4.07533,1.58807 -5.89632,3.08073c-3.35548,2.75045 -7.19514,5.94309 -11.10794,7.89661c-0.21407,0.43345 -0.67794,0.62948 -0.67794,0.62948c-3.33908,1.40499 -9.04521,2.56736 -13.7086,2.1547c-4.47215,-0.39572 -7.97522,-2.33957 -7.97522,-2.33957c-0.2318,0.3147 -2.46542,2.36436 -2.87821,2.58107c-0.28135,0.14771 1.39621,6.11498 1.81109,8.19306c0.21709,1.0873 -0.24592,1.4915 -0.24592,1.4915c-4.09189,2.33896 -9.19629,3.7202 -13.28905,6.14127c-3.81896,2.25912 -12.62607,6.94171 -13.89523,9.70621c-0.35092,0.76437 1.84007,4.57818 5.8552,7.30943c3.91885,2.66575 9.33581,4.49537 15.11587,5.45812c7.93633,1.32192 16.44772,1.46206 22.98844,0.6939c3.10473,-0.36463 5.86286,-1.4142 7.72368,-1.74689c1.66527,-0.29773 3.63518,-0.63156 3.63518,-0.63156c-0.05848,-3.64411 -1.24484,-7.94525 -0.42461,-11.63992c0.25848,-1.16434 0.40537,-4.1131 0.76831,-5.95661c0.55028,-2.79513 1.29571,-4.43696 1.29571,-4.43696c-5.19343,-6.98321 -3.74945,-7.91724 -3.74945,-7.91724c3.12763,4.65186 9.22034,10.95704 14.52259,12.41303c2.05402,0.56403 4.51304,0.4587 6.61334,0.35385c0.87303,-0.04359 1.62361,-0.35506 2.36042,-0.73048c-0.11442,-0.08814 -0.68514,-0.69957 -0.62054,-0.95432zM281.02979,209.65918c3.47706,1.95346 6.80727,4.5572 10.50244,6.1186c1.18753,-0.59455 2.27854,-1.28533 3.4268,-1.89603c-0.01413,-0.2368 0.03115,-0.41544 0.03115,-0.41544l0.16366,-0.49284c0,-0.37433 0,-0.74866 0,-1.12298c-0.03318,-0.01996 -0.06534,-0.04137 -0.0964,-0.06418l-1.23765,-0.81574c-2.9487,-3.6355 -3.51992,-6.66947 -2.94711,-11.15645c-1.95997,0.06793 -3.53913,-0.24258 -5.3252,-0.75511c-2.74046,-0.7864 -4.27021,-2.23172 -8.97499,-4.89509c-1.26536,2.95528 -1.43362,15.07123 -1.17114,17.99959c0.92843,-0.90735 1.90917,-1.76985 2.94514,-2.59666c0.21395,-0.26798 0.49179,-0.37116 0.74057,-0.40124c0.2443,-0.05666 0.54166,-0.05447 0.83674,0.12476zM274.56088,167.63926c-2.67753,-0.6891 -5.36423,-0.64332 -8.12838,-0.64332c-5.93565,0 -16.66959,3.25188 -18.8447,7.00896c3.84496,2.05136 12.22748,2.52212 18.16288,0.41498c4.96631,-1.7631 7.80454,-5.92597 8.81019,-6.78062z" fill="#000000" stroke="none" stroke-linecap="butt"/></g><g><g><path d="M342.7082,152.92513c-0.2777,0.55739 -0.72958,0.59472 -1.03101,0.54357c0.01316,2.5672 -2.16928,4.51364 -4.03861,6.31894c-1.28941,1.24524 -3.09869,1.77144 -4.73155,1.69881c-4.24396,-0.18873 -7.63362,-0.931 -11.6803,-2.09878c-2.41423,-1.29177 -8.23513,-2.05941 -9.00889,-5.06321c-0.75141,-2.917 2.95233,-3.31175 4.78592,-3.54653c6.52042,-0.83486 12.59116,-1.27793 19.15306,-0.44352c1.81388,0.23139 3.52693,0.3627 5.2864,0.86189l0.81587,0.3878c0,0 0.89506,0.44595 0.44912,1.34101z" fill="#0f1b82" stroke="none" stroke-width="0.5" stroke-linecap="butt"/><path d="M312.38098,150.72119c0.0466,-0.77579 0.87558,-0.88061 0.87558,-0.88061l1.38894,-0.17562c2.71823,-0.3437 5.45097,-0.48556 8.16032,-0.83022c5.29213,-0.66915 13.67823,-3.01811 18.40177,0.12485c2.41337,1.60582 1.2446,5.92839 -0.70165,7.42504c-0.74591,0.5736 -3.08182,0.40801 -3.97789,0.37494c-8.44593,-0.64884 -16.00011,-0.90427 -23.87049,-4.3662c0,0 -0.91526,-0.40287 -0.51239,-1.31813c0.06671,-0.15157 0.14747,-0.26698 0.23581,-0.35407z" fill="#0066cc" stroke="none" stroke-width="0.5" stroke-linecap="butt"/><path d="M309.48009,143.03553c-0.00066,-0.13842 0.04535,-0.29465 0.17468,-0.46141c0.45961,-0.59267 1.05228,-0.13305 1.05228,-0.13305l0.8623,0.71742c0.99745,3.23787 0.53764,5.58934 -0.10688,8.77109c-0.45377,2.24018 -0.06402,4.88233 -0.34071,7.19055c-0.33863,2.15782 -1.91207,6.6316 -4.29092,7.02375c-2.32565,0.38338 -4.74291,-2.03191 -5.94615,-3.24843c-1.0644,-1.07616 -3.82595,0.7992 -5.01598,-1.4069c-0.2117,-0.39246 -0.1385,-0.88102 -0.20774,-1.32153c0.50069,-5.23463 5.33657,-7.83561 8.36116,-11.48265c1.69416,-2.04281 3.48745,-3.8515 5.45797,-5.64884z" fill="#fddfbd" stroke="none" stroke-width="0.5" stroke-linecap="butt"/><path d="M305.44132,156.53946l0.21035,0.04799c-0.032,0.163 -0.07188,0.33554 -0.11717,0.51546c0.10386,1.17961 -0.33583,2.38429 -0.86845,3.68144c-0.13341,1.52773 0.3804,2.6867 2.8347,2.37794c0.5648,-0.07105 1.11582,-0.23496 1.65687,-0.41502c0.11285,-0.06958 0.26034,-0.11069 0.45197,-0.0887c0.14022,0.00522 0.30625,0.04519 0.44412,0.174c0.14526,0.12041 0.20597,0.28002 0.22894,0.41845c0.04837,0.19643 0.02172,0.35353 -0.0389,0.47706l-0.08034,0.35457c-1.36882,3.29562 -3.25302,10.74988 -8.39299,7.43781c-0.05779,-0.03725 -2.19426,-1.79729 -2.23375,-1.82977c-1.08199,-0.69855 -3.11099,-1.57309 -3.73363,-2.76749c-2.7795,-5.33176 4.36816,-10.79733 8.43101,-12.75871c0,0 0.67614,-0.32455 1.00069,0.35159c0.11827,0.24638 0.10366,0.44608 0.0373,0.6004c0.11409,0.09487 0.20041,0.22357 0.24235,0.37323l0.21456,0.71659l-0.11149,0.03339l0.02875,0.22735l-0.21629,0.02735c0.00391,0.01502 0.0077,0.03005 0.01141,0.04506z" fill="#f89587" stroke="none" stroke-width="0.5" stroke-linecap="butt"/><path d="M287.04848,105.21075c3.69855,4.17508 4.56247,12.28774 4.24508,17.72167c-0.31494,5.39187 -6.35586,14.74834 -7.8207,18.05835c-2.37682,5.37074 -2.56789,7.43558 -5.9224,11.13608c-3.78689,4.17748 -13.965,2.01004 -18.97858,2.72451c-3.51305,0.50063 -7.32626,1.10472 -10.83884,1.60853c-7.56453,1.08496 -15.80311,2.21179 -23.37834,3.21059c-0.06854,0.00904 -4.12238,0.79903 -7.35525,0.91914c-0.15395,0.00835 -0.3073,0.01249 -0.45991,0.01253c-3.19136,0.0007 -6.06286,-1.7946 -7.5081,-4.52789c-3.64381,-5.22602 -4.18299,-14.28724 -5.46609,-19.44219c-0.74067,-2.97563 -1.27258,-5.92682 -1.94153,-8.89764c-0.91442,-4.06095 -2.26295,-6.05255 -2.08676,-10.52484c0.11923,-3.02647 -1.95629,-11.02276 -0.1314,-12.39548l0.81758,-0.615c4.12038,-6.07194 15.88343,-9.3974 21.26114,-11.4057c4.52962,-1.69158 10.65334,-2.01616 15.05655,-2.68987c1.70021,-0.26014 3.00932,-1.35064 4.75546,-1.35727c2.21072,-0.00839 4.83002,1.0943 6.96224,0.88361c11.02334,-1.0892 23.99632,-0.99775 34.17056,3.48059l1.39693,1.08332c1.47058,1.14044 2.56896,2.76081 3.04007,4.66326c0.11663,0.35524 0.18043,0.69643 0.18968,1.03474c0.19569,1.61908 -0.07792,3.1879 -0.71442,4.56925c0.24325,0.24246 0.47904,0.49228 0.70707,0.74968z" fill="#ff2d32" stroke="none" stroke-width="0.5" stroke-linecap="butt"/><path d="M282.37707,94.27181c0.24861,-0.7076 0.9562,-0.45899 0.9562,-0.45899l0.5445,0.20413c0.73958,0.42299 1.43347,0.92515 2.10699,1.44693c2.01701,1.95383 1.70027,2.85634 3.78615,4.54574c1.68674,1.36612 5.11891,4.92685 5.88629,6.84349c1.2681,3.16726 2.60926,5.79792 4.48176,8.60635c0.9566,1.99291 2.24873,3.70665 2.81243,5.88909c0.32978,1.27681 0.40218,2.74426 1.05839,3.92575c1.10539,1.99022 2.90468,3.51449 3.93367,5.56337c1.11921,2.22851 1.13017,4.91799 0.95513,7.35407c-0.54049,4.52235 -2.65962,7.50803 -5.48472,10.9541c-1.41688,1.72831 -2.95583,4.1581 -5.20285,4.88362c-1.22496,0.39552 -2.82047,0.37026 -4.10742,0.53299c-1.96594,0.22494 -3.67335,-0.74026 -5.62459,-0.70562c-3.20842,0.05694 -5.29432,-0.97128 -8.30119,-1.82915c-3.07767,-0.87808 -6.27462,-1.2209 -9.38236,-1.96903c-2.69637,-1.12498 -2.25121,-3.01076 -2.10703,-5.67362c0.21974,-4.05807 1.36712,-8.22188 0.85539,-12.26901c0,0 -0.00447,-0.03535 -0.00376,-0.09162c-0.00109,-0.05626 0.00316,-0.09164 0.00316,-0.09164l0.09509,-0.78898c0.14661,-3.46152 1.11039,-7.05857 1.50124,-10.49973c0.00005,-0.00048 0.00008,-0.00073 0.00008,-0.00073l-0.00001,-0.00001l0.10205,-0.84727c1.22291,-6.16004 1.54728,-11.91682 3.53688,-17.91048c-0.02642,-0.1312 -0.00714,-0.25582 0.02577,-0.35846c0.02511,-0.11042 0.07551,-0.23407 0.17414,-0.33665c0.43492,-3.86961 3.77191,-6.18567 7.39285,-6.90185c0.00186,-0.00556 0.00377,-0.01115 0.00574,-0.01676z" fill="#ab164a" stroke="none" stroke-width="0.5" stroke-linecap="butt"/><path d="M209.46255,159.14883c0,0 -5.27526,-19.62255 -8.29942,-35.90553c-1.83901,-9.9018 -3.6792,-18.46326 -0.58757,-20.93051c17.33331,-13.83275 43.68812,-12.65267 56.50762,-12.9522c7.67863,-0.17941 21.83226,0.96456 26.94303,5.43596c9.99233,8.74226 15.47091,19.6545 19.31596,27.58607c3.44669,7.10985 5.76751,11.73502 5.76751,11.73502l-1.72186,10.29734l-10.80567,11.52992c0,0 -35.76843,-9.66968 -51.29362,-8.44113c-24.67795,1.95281 -35.82598,11.64506 -35.82598,11.64506z" fill="none" stroke="#000000" stroke-width="3" stroke-linecap="round"/><path d="M269.00639,149.60402c0,0 -0.76051,-26.84263 6.27155,-49.56345c1.31303,-4.24246 6.67391,-5.49541 6.67391,-5.49541" fill="none" stroke="#000000" stroke-width="1.5" stroke-linecap="round"/><path d="M213.38558,164.16569c2.03954,-5.48786 6.37303,-7.05696 11.66162,-9.1128c2.31909,-0.9015 4.68196,-2.0792 7.07785,-2.74535c6.75089,-1.87701 14.93869,-1.07369 21.71957,0.11092c9.95901,2.37179 20.82026,3.30688 29.22108,9.54014c1.42692,1.08253 1.70917,1.66245 2.5429,3.21592c4.98872,9.29532 -7.95486,11.41769 -13.72003,14.80076c-5.51924,3.06072 -12.28616,5.69276 -18.49726,7.03107c-2.49706,0.53804 2.14694,-1.08621 -0.30565,-0.35624c-8.23353,2.10304 -24.60145,4.7264 -33.03514,3.94951c-4.86889,-0.4518 -10.38754,-1.30982 -14.73038,-3.67622c-3.79714,-2.06904 -4.00955,-5.60469 -1.49082,-8.74624c2.67145,-1.48946 5.21861,-3.1608 8.10906,-4.22719c0.67305,-0.24832 3.15626,-0.69258 3.63029,-1.43102c0.27409,-0.42699 -0.31718,-0.96398 -0.47038,-1.44769c-0.65844,-2.07906 -1.81996,-3.87449 -2.55456,-5.89865c0,0 -0.25326,-0.70595 0.45269,-0.95921c0.14936,-0.05358 0.27845,-0.06423 0.38917,-0.04771z" fill="#fddfbd" stroke="none" stroke-width="0.5" stroke-linecap="butt"/><path d="M209.5207,159.34306c0,0 23.38421,-11.49484 36.631,-11.97124c15.39419,-0.55363 50.26338,8.8462 50.26338,8.8462l-0.40819,9.52645l-2.05718,1.26808l-9.17063,5.59459l-3.92739,-5.55119l-7.79991,10.0579c0,0 -11.22032,-17.3884 -13.27864,-17.55819c-2.06297,-0.17019 -15.48093,11.71979 -15.48093,11.71979l-3.94342,-16.83833l-26.42403,14.22711z" fill="#f89587" stroke="#f89587" stroke-width="0.5" stroke-linecap="round"/><path d="M304.57398,155.5361c-1.74335,1.05763 -3.65181,2.28038 -5.36811,3.43934c0.71138,1.69243 2.38246,3.89392 3.6147,5.47039c0.68492,-2.88428 1.81394,-5.98271 1.75342,-8.90973zM296.88781,160.62114c-0.22971,2.4983 -0.12879,5.3352 -0.12879,5.3352c1.27572,0.74229 7.49174,5.69012 8.55721,5.24397c2.17629,-0.91128 3.06733,-6.56468 3.72876,-8.46613c0.48666,-1.39902 0.84893,-2.74185 1.11557,-4.057c0.90505,-4.46396 0.70842,-8.60891 0.53487,-13.549c-0.0122,-0.48502 0.33653,-1.73122 -0.06179,-1.4542c-2.31901,1.61274 -4.0434,3.84759 -5.97469,5.89975c-2.25073,2.39158 -5.73551,4.94575 -7.15009,8.00431c-0.17484,0.37805 -0.31106,0.89074 -0.4169,1.4775c0.69892,-0.21844 1.18177,-1.1605 1.8729,-1.64243c1.29742,-0.90467 1.70714,-1.75024 2.8474,-2.52991c0.21855,-0.14944 3.58481,-2.72192 4.08434,-1.1115c0.75639,2.43845 -1.37873,9.72033 -1.81854,11.94005l-0.21498,0.47483c-0.02651,0.13118 -0.09883,0.26907 -0.24887,0.39853c-0.09835,0.09586 -0.23945,0.1894 -0.42343,0.20428c-0.18317,0.0227 -0.34032,-0.04032 -0.45604,-0.11428c-0.16112,-0.08969 -0.25781,-0.20013 -0.3128,-0.31422c-1.45132,-1.85553 -3.21065,-4.09496 -4.182,-6.23543c-0.43621,0.21085 -0.88544,0.38081 -1.35214,0.4957zM314.4497,148.06988c6.47781,-0.81907 13.87205,-2.33151 20.38038,-1.67928c2.46253,0.24678 5.91677,0.85145 7.33591,3.16279c1.31719,2.14529 1.23047,5.03849 0.48562,7.13106c-0.84527,1.27378 -1.02272,4.90559 -2.38709,5.54847c-2.41552,1.13815 -7.88203,1.16239 -10.24646,0.56183c-5.34623,-1.35794 -12.48513,-3.15382 -17.19968,-6.00393c-0.28755,3.1606 -0.76505,4.37648 -1.6885,7.36921c-0.808,2.61863 -2.13256,8.20958 -5.01084,9.4259c-2.01589,0.85189 -6.33587,-2.17726 -6.33587,-2.17726c-2.20932,-0.93678 -3.96328,-1.96311 -5.95298,-3.12709l-0.32533,0.23693c-3.50906,1.77088 -6.85322,4.68527 -10.0811,6.98328c-6.80472,3.78623 -14.3676,7.30222 -21.77491,9.67013c-3.61963,1.1571 -7.38949,1.85782 -10.95197,3.18081c-0.21853,0.40678 -17.67597,2.85048 -29.882,3.03401c-4.64166,0.06979 -10.82435,-1.3334 -11.63681,-1.6187c0,0 -0.03257,-0.01144 -0.08606,-0.03579c-0.05474,-0.02142 -0.08562,-0.03682 -0.08562,-0.03682l-0.24489,-0.14225c-1.82019,-0.57711 -3.50677,-1.19766 -5.21575,-2.04717c0,0 -0.0263,-0.0131 -0.06969,-0.03932c-0.04478,-0.02376 -0.06953,-0.03959 -0.06953,-0.03959c0,0 -4.28121,-2.11216 -2.57246,-6.0896c0.45759,-1.06517 1.04439,-2.18816 1.99077,-3.07278c3.63429,-3.39711 10.32085,-5.4718 11.01999,-5.68421c-1.91248,-4.29168 -4.25173,-8.34463 -5.67675,-12.85353c0,0 -0.45134,-1.43049 0.97914,-1.88183c1.43049,-0.45134 1.88183,0.97915 1.88183,0.97915c1.55143,4.92593 4.2457,9.30387 6.21304,14.0625l0.04639,0.20383c0.02006,0.06266 0.03772,0.12922 0.0527,0.1999c0.11518,0.54325 -0.01341,0.92802 -0.22107,1.1972c-0.17715,0.27096 -0.47686,0.50864 -0.98082,0.59087c-0.85724,0.18153 -10.92154,3.57998 -12.36261,5.73019c-2.19518,3.2754 4.3487,5.74485 5.24458,5.98429c4.85212,1.29679 12.86324,2.2862 15.19169,2.17543c12.49707,-0.59448 32.87533,-5.14325 36.56391,-6.32331c7.17257,-2.29466 14.44448,-6.03404 21.04572,-9.68036c3.30982,-2.36698 6.72482,-5.24601 10.31146,-7.1148l0.52574,-0.41576c0.30982,-0.35105 0.6711,-0.45604 0.99072,-0.45705c0.00534,-0.00062 0.01072,-0.00122 0.0161,-0.00177c0.26981,-2.71494 -0.0321,-6.11581 1.0969,-8.60698c1.81522,-4.00532 6.27415,-7.36858 9.23736,-10.48841c2.00437,-2.11032 6.10483,-9.00183 9.07284,-4.77667c0.51562,0.73402 0.45579,2.90046 0.612,3.78377c0.03801,1.08193 0.0942,2.1697 0.14979,3.26042zM330.25218,159.55963c1.75059,0.44398 4.37976,1.5118 6.21794,0.76957c0.81293,-0.32825 2.39623,-2.96519 2.91547,-3.76167c0.47287,-1.37215 1.40505,-4.41778 0.57352,-5.83956c-1.06918,-1.82812 -5.52352,-1.90621 -7.26082,-1.87712c-5.94995,0.09961 -12.02924,0.95256 -17.93497,1.69929l-0.80983,0.1024c0.049,1.22712 0.07913,2.4552 0.06385,3.68012c4.59909,3.46393 10.78065,3.8437 16.23484,5.22697z" fill="#000000" stroke="none" stroke-width="0.5" stroke-linecap="butt"/></g><g stroke-width="0.5"><path d="M236.72907,133.5891c0.83871,5.78782 -6.08807,5.55879 -9.93519,6.1359c-0.92038,0.13807 0.34773,1.96934 -0.09015,2.79058c-0.53948,1.0118 -1.27933,1.93799 -2.14694,2.68768c-1.60392,1.38592 -5.73991,0.04607 -6.99443,0.83027c-1.91766,1.19873 -2.85727,3.50799 -4.20953,5.32066c-2.43176,3.25971 -4.62208,6.69946 -7.14,9.89307c-0.42575,0.53999 -2.4665,2.1093 -3.42715,2.03438c-2.68817,-0.20965 -14.42415,16.05586 -14.46864,13.11864c-0.00482,-0.3184 0.58741,-3.26903 2.66856,-8.74017c2.46189,-6.47207 6.47359,-15.59868 6.41382,-15.59136c-2.16773,0.26555 -8.26792,0.89202 -12.58109,1.65554c-4.10545,0.72674 -6.46581,1.67542 -7.14382,-1.22077c-0.08714,-0.37224 5.33396,-9.69017 5.75224,-10.33071c3.85121,-5.89773 7.80429,-13.53293 12.25736,-18.97015c0.94271,-1.15105 5.30648,-7.0089 7.46803,-6.13185c0.01307,-0.00175 0.02615,-0.00346 0.03925,-0.00511c1.14771,-0.14512 2.25367,0.11105 3.1769,0.65917c0.60387,0.15986 1.12702,0.31864 1.47939,0.415c5.70455,1.55991 11.02386,2.96494 16.56099,5.06867c1.13466,0.4311 4.12846,2.35059 4.26658,2.34461c0.83993,-0.03633 -1.09938,-5.41616 0.99015,-10.86167c0.92458,-2.40954 6.464,-7.90968 6.86874,-7.72602c1.48181,0.67238 -1.10108,21.15676 -0.92718,22.53211c0.07134,0.56425 0.04569,1.11841 -0.06396,1.64571c0.61262,0.7634 1.07237,1.66118 1.18608,2.44584z" fill="#66ffff" stroke="none" stroke-linecap="butt"/><path d="M238.73139,111.16076l8.03727,17.32866l11.23937,18.7381l-10.77622,10.43424l-2.74373,-10.53907l-6.4726,1.42319l-19.7097,8.33833l-8.65064,4.92406l1.17001,2.87595l-6.9675,2.29214l-6.96521,3.90458l-5.55415,3.05522c0,0 11.61715,-15.72585 16.22938,-21.62173c2.35122,-3.00559 10.07993,-12.24613 10.07993,-12.24613c0,0 -7.35662,2.29521 -10.71708,3.24663c-5.33987,1.51182 -18.72833,5.81873 -18.72833,5.81873c0,0 14.87467,-18.86043 17.86574,-20.06941c2.14446,-0.86679 29.48479,7.12734 29.48479,7.12734c0,0 -1.51523,-3.46592 -1.08186,-9.05297c0.31067,-4.00522 3.43878,-21.33272 3.43878,-21.33272z" fill="#50a5eb" stroke="#50a5eb" stroke-linecap="round"/><path d="M227.15029,121.49113c0,0 0.00344,-0.2129 0.10537,-0.44062c0.12943,-1.24005 0.38551,-2.76984 0.89432,-4.34777c0.29378,-0.91109 1.46697,-3.01798 1.8194,-3.71567c2.93558,-5.81129 7.7758,-11.31043 8.38732,-9.37298c4.62218,14.64433 16.26194,37.20672 21.08285,42.81567c0.14893,0.10734 0.27886,0.27433 0.34184,0.53309c0.06096,0.17947 0.08768,0.40571 -0.01211,0.64041c-0.08246,0.24135 -0.25343,0.3919 -0.41865,0.48478c-0.12096,0.0829 -0.23844,0.13153 -0.35007,0.15524c-4.08707,3.94482 -7.91572,7.38607 -11.29439,12.05933c-0.08197,0.18677 -0.23271,0.37081 -0.50691,0.47087c-0.17287,0.08551 -0.39231,0.13319 -0.64428,0.05556c-0.25864,-0.05121 -0.4292,-0.19728 -0.5408,-0.35457c-0.19712,-0.22179 -0.24076,-0.45948 -0.22197,-0.66511l-0.05583,-0.47578c-0.89612,-3.52132 -2.09505,-6.84522 -3.16399,-10.293l-0.40477,0.05118c-3.70353,0.45731 -7.79968,2.60688 -11.42357,3.69123c-3.67112,1.43047 -7.03233,3.35827 -10.67103,4.86449c-2.67675,1.10803 -5.89772,2.31927 -8.07552,4.2875c-0.66508,0.60108 0.32141,2.18836 0.73898,2.87433c0.1157,0.12572 0.20659,0.30325 0.24153,0.55341c0.03247,0.17523 0.03343,0.39594 -0.07743,0.60711c-0.10488,0.21419 -0.2835,0.34382 -0.44407,0.42115c-0.20775,0.11169 -0.39323,0.14662 -0.55513,0.13521l-0.7796,0.09857c-3.70624,0.41085 -9.02551,2.57807 -12.23966,4.35078c-2.52319,1.39164 -5.49767,3.82081 -8.74743,5.84414c-2.2701,1.41339 -3.94417,3.98675 -4.2518,2.80538c-1.10351,-4.23775 3.23543,-12.89799 4.55737,-15.9322c0.72861,-1.67237 4.12214,-8.14721 5.12005,-9.87199c-5.52593,-0.82556 -10.62976,0.76698 -16.52568,2.41146c-1.41966,0.39597 -2.79494,0.71673 -4.09933,0.89163c-0.06924,0.02521 0.35526,-2.38024 3.78362,-8.98617c4.54878,-8.76478 12.98704,-22.99535 18.90758,-29.90358c1.28195,-1.49581 2.60613,-3.0413 4.35051,-3.27727c5.28734,-0.71524 12.36869,3.23401 13.26974,3.57287c4.02066,1.51209 7.58268,2.43181 11.2502,4.92184c0.20951,0.10874 0.41729,0.22091 0.62317,0.33677c0.00307,-0.22124 -0.00264,-0.77664 0.04087,-1.55505c-0.01004,-0.24502 -0.01417,-0.49198 -0.01072,-0.74223zM229.39479,124.51775l0.05376,0.4252c0,0 0.02674,0.21149 -0.04212,0.45152l0.3272,0.66439c0,0 0.12545,0.9921 -0.86665,1.11754c-0.60723,0.07678 -0.88978,-0.2651 -1.01764,-0.5419c-2.3467,-1.74069 -18.87702,-8.87478 -25.36111,-8.82123c-1.24945,0.01031 -7.64807,7.74398 -12.26919,15.08922c-5.52643,8.7842 -9.42456,17.62397 -11.36247,20.34562c4.17994,-0.78537 8.28153,-1.61503 12.42541,-2.16294c2.32311,-0.30718 4.61035,-0.91453 7.0516,-0.43104l0.47878,0.16054c0.11662,0.02283 0.2421,0.07083 0.37571,0.15256c0.248,0.1517 0.3798,0.33139 0.44201,0.50998c0.06462,0.17773 0.07602,0.40029 -0.02035,0.67457c-0.04931,0.14036 -0.11217,0.2525 -0.18346,0.34171c-4.30658,7.02995 -6.9973,14.76068 -10.05352,22.35427c6.32683,-4.24128 13.08999,-9.33976 20.43997,-10.49613c-0.61902,-1.29783 -0.98627,-2.3728 0.03743,-3.5706c1.53537,-1.79651 4.78577,-3.09929 6.82422,-4.15648c4.27593,-2.21763 8.93008,-3.99156 13.42002,-5.7331c1.88289,-0.56411 13.19184,-6.08324 14.45885,-4.73907c0.18437,0.19559 1.36369,2.43644 1.73311,3.99257c0.71015,2.99132 1.23711,5.77003 1.54249,6.86164c3.06105,-3.87799 5.37484,-6.42907 8.95543,-9.8793c-3.59657,-4.3382 -9.44561,-14.61792 -13.90037,-24.02597c-3.32702,-7.02638 -5.84536,-13.82519 -6.23431,-15.9013c-4.67586,5.28344 -6.58198,10.13652 -7.45257,15.60092c0.04784,0.56931 0.12409,1.1342 0.19776,1.71684z" fill="#000000" stroke="none" stroke-linecap="butt"/><path d="M261.78966,148.38914c0.12273,-0.0288 0.22906,-0.00954 0.22906,-0.00954l0.71206,0.12957c3.80964,0.33704 7.26892,1.71412 10.93812,2.44198c5.97651,1.9547 12.90097,1.47142 18.7161,3.74938c4.5906,1.79941 2.49413,7.69674 2.49335,11.65912c-0.00035,1.75737 0.66313,3.89308 -1.61735,4.19371c-2.18561,-2.22495 -4.74242,-4.02256 -7.2868,-5.80339c-2.56618,-1.79609 -4.34635,-3.78323 -7.38041,-4.84923c-2.3111,-1.25043 -2.5935,4.31036 -4.09343,5.3693c-2.86362,2.0217 -5.00309,-2.55332 -6.07866,-4.51075c-2.65471,-4.84196 -7.00618,-7.18435 -7.73397,-12.94023c0,0 -0.06272,-0.49605 0.43333,-0.55877c0.49605,-0.06272 0.55877,0.43333 0.55877,0.43333c0.03003,0.23754 0.06678,0.46924 0.10983,0.69553z" fill="#50a5eb" stroke="none" stroke-linecap="butt"/><path d="M263.19993,152.54122c0,0 5.7225,1.51334 7.10909,1.88129c0.72335,0.19194 1.63971,9.91441 1.63971,9.91441z" fill="#66ffff" stroke="#66ffff" stroke-linecap="round"/><path d="M260.66026,147.55746c1.02806,0.09579 2.05685,0.18357 3.08586,0.26838c6.01741,0.79852 11.95253,1.83219 17.91118,3.01821c3.99318,0.79481 13.34879,2.86021 13.55697,3.03226c0.21847,0.15879 0.40358,0.421 0.45804,0.85169l0.01792,0.14173c0.73614,5.82191 0.53495,11.77223 -0.68998,17.50383c-0.01869,0.38799 -0.1927,0.64368 -0.39673,0.81108c-0.2258,0.23063 -0.5792,0.40494 -1.12031,0.28763c-0.26322,-0.05706 -0.45741,-0.15855 -0.60013,-0.28267l-0.17474,-0.05151c-4.33233,-4.47433 -9.53108,-9.20229 -14.6792,-12.85366c-1.4839,2.50136 -2.98545,5.01164 -4.23801,7.6365c-0.04514,0.13712 -0.12081,0.28114 -0.23642,0.43023c-0.22117,0.28519 -0.46084,0.42419 -0.68987,0.47764c-0.22839,0.05613 -0.50502,0.04081 -0.83141,-0.11323c-0.19899,-0.09391 -0.34641,-0.20632 -0.45426,-0.3278l-0.45969,-0.38382c-4.96042,-6.10621 -9.24434,-13.14176 -13.6359,-19.69135c0,0 -0.69486,-1.03908 0.34422,-1.73393c1.03908,-0.69485 1.73393,0.34423 1.73393,0.34423c0.11758,0.17635 0.23511,0.35312 0.35262,0.53023c0.24269,-0.04532 0.45837,0.00036 0.63741,0.08045zM263.47964,150.3116c-0.24255,-0.01989 -0.48511,-0.03998 -0.72762,-0.06031c3.38595,4.76253 6.58297,9.67608 9.8262,14.52738c1.05694,-1.99587 2.21654,-3.94123 3.36736,-5.882l0.81001,-1.05986c0.25163,-0.35043 0.54177,-0.48806 0.81098,-0.52006c0.26501,-0.05151 0.58177,-0.00962 0.9267,0.24437c4.97858,3.42529 10.06427,7.87669 14.45075,12.25399c0.75512,-4.48764 0.86733,-9.08315 0.3843,-13.61578c-4.05448,0.00441 -23.90968,-5.10418 -29.84869,-5.88772z" fill="#000000" stroke="none" stroke-linecap="butt"/></g><g stroke-linecap="round"><path d="M234.00326,161.19723c0,0 -1.14158,2.51071 -0.9188,4.14056c0.4874,3.56592 1.39053,7.80566 0.23265,8.48643c-2.0579,1.20993 -6.12793,-6.36228 -8.14615,-12.03751c-0.80049,-2.25097 -0.06816,-8.53573 -0.06816,-8.53573z" fill="#000000" stroke="#000000" stroke-width="1.5"/><path d="M260.95714,144.51762c0,0 -2.17235,5.55816 -3.14103,10.99316c-0.48588,2.72613 -1.04187,5.64377 -1.208,8.16149c-0.13633,2.06607 0.09789,3.84916 -0.07005,5.15227c-0.17146,1.33044 -0.71107,1.88926 -0.9196,2.01185c-2.0579,1.20992 -4.11709,-2.41669 -6.13531,-8.09193c-0.80049,-2.25098 0.55715,-4.91895 0.55715,-4.91895z" fill="#000000" stroke="#000000" stroke-width="1.5"/><path d="M287.42064,117.3164c0,0 -8.7917,9.14612 -15.18047,16.43834c-13.15274,15.01271 -29.29212,34.16988 -29.85045,33.57894c-3.3661,-1.12118 -2.88558,-1.31251 -8.52492,-5.37537c-3.88522,-2.79911 -11.69774,-9.76069 -14.51747,-12.7321c-9.57994,-10.0952 -12.90815,-20.94374 -12.37132,-20.4926c0.88417,0.74303 2.14753,3.2175 4.40854,6.44293c2.7027,3.85552 6.68907,8.80198 11.22436,13.39117c6.40502,6.48114 16.45588,13.06516 19.03008,15.59593c0.50698,0.49842 15.77453,-18.77582 27.91565,-31.43471c4.44094,-4.63033 5.42807,-6.51287 9.06547,-9.45713c2.72018,-2.20182 8.80052,-5.95541 8.80052,-5.95541z" fill="#000000" stroke="#000000" stroke-width="0.5"/><path d="M235.46198,178.60354c0,0 12.76954,0.626 17.83393,-0.96209c2.73869,-0.85881 6.27025,-3.27644 8.25733,-5.07397c0.77191,-0.69827 2.3086,-3.1095 1.94604,-3.21091c-0.52285,-0.14624 -2.58807,-0.16267 -2.58807,-0.16267c0,0 0.77581,-2.24779 4.83194,-3.04658c2.5563,-0.50341 8.07707,-0.31361 8.07707,-0.31361c0,0 -2.08757,10.46978 -5.14799,11.1494c-0.66055,0.20647 -10.87374,2.59674 -18.42592,3.02924c-10.32462,0.59128 -14.78433,-1.40881 -14.78433,-1.40881z" fill="#000000" stroke="#000000" stroke-width="0.5"/><path d="M260.92101,176.10439c0,0 4.01225,-2.94885 5.32432,-4.54951c0.89244,-1.08872 1.87611,-3.41667 1.87611,-3.41667l1.96628,-0.39261c0,0 -2.02102,6.43804 -2.48749,6.77824c-0.83848,0.61151 -6.67922,1.58055 -6.67922,1.58055z" fill="#ffffff" stroke="#ffffff" stroke-width="0.5"/></g></g></g></g></svg>