<svg version="1.1" xmlns="http://www.w3.org/2000/svg" xmlns:xlink="http://www.w3.org/1999/xlink" width="488.45341" height="366.63712" viewBox="0,0,488.45341,366.63712"><g transform="translate(4.22671,3.31856)"><g data-paper-data="{&quot;isPaintingLayer&quot;:true}" fill-rule="nonzero" stroke-linejoin="miter" stroke-miterlimit="10" stroke-dasharray="" stroke-dashoffset="0" style="mix-blend-mode: normal"><g><g stroke="none" stroke-width="0.5" stroke-linecap="butt"><path d="M143.63037,164.59297c1.04009,-2.72848 3.33699,-4.84458 5.43385,-6.5266c1.415,-0.58314 2.64555,-1.57059 4.00156,-2.29904c1.18528,-0.63677 2.71411,-0.72723 3.98527,-1.05489c4.26851,-1.10024 9.95958,-2.47323 13.48657,1.03821c1.83848,1.81032 7.61451,7.457 8.72551,9.98761c2.84173,6.47289 -5.83755,10.55069 -10.82526,12.74138c-7.47692,3.31805 -15.27271,0.66742 -23.08576,0.53181l-0.54916,-1.00148c-0.13557,-0.41299 -2.47832,-1.09083 -2.61445,-1.55412c-1.08005,-3.67589 0.16131,-8.50348 1.4419,-11.86286z" data-paper-data="{&quot;noHover&quot;:false,&quot;origItem&quot;:[&quot;Path&quot;,{&quot;applyMatrix&quot;:true,&quot;segments&quot;:[[[-7.40945,28.4],[-2.99455,-7.39936],[0,0]],[[-6.91969,28.4],[0,0],[16.93921,0]],[[42.49188,23.30896],[-15.86413,6.95372],[10.58495,-4.59285]],[[58.23465,-5.4689],[6.80628,12.95535],[-2.66096,-5.06498]],[[45.95327,-17.26356],[4.16461,3.58677],[-7.99327,-6.95856]],[[16.7362,-18.85898],[9.13644,-2.36841],[-2.72081,0.70531]],[[8.23958,-16.60831],[2.50374,-1.32573],[-2.86433,1.51666]],[[-0.17539,-11.85647],[3.00679,-1.22562],[-4.37351,3.46578]],[[-11.2758,1.44907],[1.97911,-5.53932],[-2.74385,7.67976]]],&quot;closed&quot;:true}]}" fill="#485e84"/><path d="M156.43333,178.15032c1.58989,0.02758 3.69601,0.4261 5.24892,0.04936c1.859,-0.45101 3.6989,-1.92278 5.40514,-2.79145c3.2076,-2.44907 8.48483,-3.39026 10.91475,-6.83544c0.2453,0.99455 0.4648,1.98435 0.42436,2.82615c-0.27613,5.75004 -0.38386,10.08488 -4.19813,14.66152c-1.63455,2.69864 -4.2584,3.72013 -6.88471,4.92909c-2.24914,1.03534 -4.51231,2.30525 -6.77917,3.2457c-2.48895,1.03259 -5.90166,0.41447 -8.48438,0.37864c-1.50396,-0.29439 -2.52745,-2.11081 -3.57867,-3.18971c-2.20667,-2.26477 -4.86266,-4.76895 -5.64557,-8.20297c-0.5613,-2.46195 -0.08153,-5.34081 0.03567,-7.86829c0.0146,-0.31462 0.02993,-0.63135 0.04452,-0.94597c3.78828,3.23736 8.63833,3.65904 13.49728,3.74338z" data-paper-data="{&quot;noHover&quot;:false,&quot;origItem&quot;:[&quot;Path&quot;,{&quot;applyMatrix&quot;:true,&quot;segments&quot;:[[[-12.6,19.29482],[8.53184,6.39664],[0,0.63506]],[[-12.6,21.2],[0,-0.63506],[0,5.10165]],[[-11.88291,37.03011],[-1.46324,-4.9457],[2.04098,6.89848]],[[1.14868,53.32315],[-5.00785,-4.49044],[2.38565,2.13917]],[[9.19708,59.60973],[-3.28764,-0.5411],[5.5986,-0.01815]],[[27.47881,58.53456],[-5.28814,2.16968],[4.81629,-1.97608]],[[41.78069,51.77552],[-4.76837,2.16687],[5.56798,-2.53023]],[[56.16943,41.64187],[-3.26991,5.49996],[7.80325,-9.3639]],[[63.8,12],[-0.02062,11.6066],[0.00302,-1.69919]],[[62.60332,6.32523],[0.63128,1.99726],[-4.91792,7.03342]],[[39.65146,20.5013],[6.70271,-5.05168],[-3.60901,1.81169]],[[28.25951,26.3465],[3.9819,-0.97471],[-3.32624,0.81421]],[[17,26.4],[3.44697,0],[-10.53452,0]]],&quot;closed&quot;:true}]}" fill="#343545"/><path d="M175.9788,179.51191c-1.5151,-2.36646 -1.45011,-5.37373 -1.27698,-8.42459c-0.95389,-0.59652 -1.94058,-0.95275 -3.27256,-0.97587c-0.29982,-0.00521 -0.58156,0.00554 -0.84905,0.0308c0.29434,2.1302 -0.1026,4.56445 -0.20134,6.69417c-0.01572,0.33884 -0.1219,2.90645 -0.19051,3.08689c-0.93067,2.44726 -4.29365,2.04349 -5.4996,0.39954c-1.18426,-1.61435 -1.84675,-3.66242 -2.56339,-5.63244c-1.50165,1.1091 -2.93504,2.37417 -4.0878,3.84099c2.51038,1.28937 5.09027,2.4732 7.15516,4.51472c0.06413,4.49316 -2.96618,4.61352 -6.34248,3.88708c-1.26076,-0.27126 -2.60188,-0.67126 -3.94141,-1.19358c-0.18488,0.60005 -0.36077,1.21939 -0.51709,1.847c2.20646,-0.33073 4.43606,-0.67993 6.01236,0.34863c0.6394,0.41722 0.85049,1.34927 1.4378,1.84513c0.9368,0.79091 1.61265,1.34301 2.00896,2.05089c1.45849,-0.70274 2.82468,-1.704 4.36776,-2.74067c1.06466,-0.71526 2.34671,-1.49968 3.53105,-2.38241c0.89119,-0.96651 1.72243,-1.97554 2.48477,-2.99724c0.38893,-0.52126 0.70538,-1.08346 0.97783,-1.66974c0.17432,-0.67466 0.32905,-1.34786 0.5601,-1.89751c0.08419,-0.20025 0.16808,-0.40225 0.25144,-0.6059zM152.1442,191.79133c0.02931,-0.63213 0.07546,-1.25127 0.13934,-1.86121c-1.28631,-0.0051 -2.52302,-0.10903 -3.41928,-0.41332c-0.56464,-0.1917 -1.12554,-0.51104 -1.6807,-0.88477c0.82,1.22779 1.87486,2.45033 3.18565,2.90415c0.56264,0.19478 1.1536,0.36104 1.76263,0.50273c0.00529,-0.10471 0.00969,-0.19003 0.01236,-0.24759zM153.79871,157.96455c1.39959,-0.87545 2.88353,-1.67567 4.48928,-2.49505c-0.63357,0.08793 -1.26764,0.1637 -1.89965,0.24799c-1.06316,0.43006 -2.09608,0.95864 -3.0889,1.57929c0.16965,0.2149 0.33616,0.43888 0.49927,0.66779zM176.66938,172.58235c-0.09428,-0.0787 -0.18712,-0.15597 -0.27876,-0.23173c-0.05366,1.74353 0.0281,3.41626 0.53988,4.82029c0.22741,-0.64315 0.44152,-1.29701 0.63562,-1.95839c0.12122,-0.53673 0.23643,-1.10798 0.33896,-1.69819c-0.47012,-0.23092 -0.88651,-0.64042 -1.23568,-0.93194zM176.522,169.91781c0.45556,0.34568 0.92661,0.74543 1.32786,1.09839c0.0596,0.05243 0.13962,0.12631 0.22087,0.20875c-0.07829,-1.0251 0.13577,-3.03124 0.17233,-3.82961c-0.03426,-0.2915 -0.07901,-0.57283 -0.13532,-0.8415c-0.37779,-1.21863 -1.29384,-2.7642 -2.32252,-4.02072c-0.19564,-0.2254 -0.39165,-0.44742 -0.58283,-0.66705c-0.33742,-0.3604 -0.67826,-0.67955 -1.00863,-0.93742c0.84785,1.36121 1.76335,2.63959 2.40915,4.217c0.13721,1.4626 0.02822,3.1084 -0.08091,4.77217zM168.76981,170.58589c-1.04804,0.42459 -1.99348,1.09608 -3.2517,1.85992c-0.61063,0.3707 -1.23654,0.76199 -1.86299,1.17703c0.0409,0.09727 0.08172,0.195 0.12252,0.29326c0.3751,0.9038 1.69942,5.3253 2.76319,5.70582c2.27123,0.81238 1.91997,-1.24076 1.99308,-2.81751c0.09019,-1.94512 0.50744,-4.26288 0.23589,-6.21851zM149.08538,173.59351c-0.68469,1.45586 -1.20625,3.00767 -1.53031,4.67807c1.54182,2.15485 3.86743,3.62815 6.32013,4.75252c0.2716,-1.31354 0.74457,-2.52367 1.36622,-3.6418c-0.91791,-0.58366 -1.79597,-1.19747 -2.60656,-1.85109c-1.27028,-1.02432 -2.45605,-2.4327 -3.54949,-3.93771zM156.8288,180.34353c-0.54648,0.98896 -0.95938,2.05867 -1.19135,3.2193c-0.02166,0.06054 -0.04336,0.12151 -0.06512,0.18287c0.97812,0.38785 1.9526,0.73316 2.88297,1.05641c1.81639,0.6311 4.4803,1.33206 5.04611,-0.89836c-2.12615,-1.13424 -4.46442,-2.28107 -6.67261,-3.56022zM153.92762,189.89089c-0.12381,0.83911 -0.19036,1.66914 -0.17484,2.46419c1.92137,0.30981 3.92719,0.42482 5.72992,0.45611c0.84533,0.02273 1.62023,-0.06712 2.35067,-0.24425c-0.89906,-0.98952 -1.66707,-2.36008 -2.52635,-2.99842c-0.51914,-0.38567 -1.993,0.06869 -2.54271,0.11655c-0.7876,0.06859 -1.78712,0.15604 -2.83668,0.20584zM162.85417,158.86394c-0.67852,-0.90459 -1.36074,-1.76038 -2.01528,-2.54745c-0.23726,0.13406 -0.48563,0.26985 -0.74973,0.40509c-1.89847,0.97217 -3.61865,1.86184 -5.22328,2.84674c0.55523,0.87039 1.05457,1.67404 1.48604,2.1838c0.58283,-0.49548 1.17869,-0.93569 1.77682,-1.26418c1.44363,-0.79282 3.04876,-1.30269 4.72541,-1.62399zM154.93092,163.07056c-0.63973,-0.75251 -1.21851,-1.55731 -1.79669,-2.36452c-1.86664,1.31868 -3.59533,2.8774 -5.30048,5.00043c-0.27647,0.45424 -0.5597,0.92845 -0.84404,1.41938c0.12157,0.10835 0.23419,0.21818 0.33304,0.33085c0.52146,0.80772 1.07867,1.70712 1.67097,2.62492c1.11194,-1.80768 2.48126,-3.5122 4.11254,-5.1543c0.56732,-0.57107 1.18116,-1.21954 1.82465,-1.85676zM145.72214,178.98707c-0.00494,-0.0076 -0.00987,-0.0152 -0.01479,-0.02281c-0.6703,-1.17974 -1.42064,-2.27913 -2.16028,-3.38252c-0.07857,1.24497 -0.10247,2.49748 -0.08409,3.74396c0.3709,1.86615 0.90985,3.67851 1.63274,5.39533c0.0132,0.00764 0.02641,0.01534 0.03961,0.02312c0.08494,-0.85536 0.21338,-1.70187 0.24536,-2.39168c0.05398,-1.16432 0.16763,-2.28452 0.34146,-3.36537zM162.54456,155.34649c0.80877,0.98598 1.64761,2.06477 2.46632,3.20404c1.99715,-0.20754 4.03937,-0.2149 5.98606,-0.1696c-0.48918,-0.74789 -1.0016,-1.46051 -1.53246,-2.10962c-1.39047,-0.84257 -2.90576,-1.38749 -4.69773,-1.66796c-0.85275,0.1156 -1.54179,0.38914 -2.22219,0.74315zM152.00749,159.16436c-0.20663,-0.27098 -0.41773,-0.53848 -0.63576,-0.80047c-2.52049,1.92319 -4.29705,4.34018 -5.51905,7.04328c0.17408,-0.2924 0.34733,-0.57871 0.51874,-0.85833c1.81029,-2.263 3.64754,-3.95337 5.63608,-5.38449zM150.08478,171.71916c1.12614,1.62395 2.36186,3.16875 3.70337,4.22318c0.81629,0.6416 1.68834,1.19255 2.58728,1.70039c1.39002,-1.85071 3.17396,-3.41984 5.0383,-4.77519c-0.09552,-0.2211 -0.19435,-0.43883 -0.29742,-0.65238c-1.41388,-2.92943 -2.99821,-5.30352 -4.96141,-7.69917c-0.63396,0.62316 -1.24144,1.26389 -1.80903,1.83525c-1.64997,1.6609 -3.10246,3.42906 -4.26109,5.36794zM157.57838,163.21489c2.19734,2.73322 3.82551,5.43176 5.29942,8.63826c0.59333,-0.3931 1.18652,-0.76674 1.76985,-1.12308c1.37184,-0.83802 2.47136,-1.56819 3.67214,-2.03996c-0.83548,-2.69923 -2.43824,-5.52003 -4.20765,-8.081c-1.85839,0.24708 -3.63398,0.72426 -5.15962,1.6221c-0.46296,0.27245 -0.9224,0.60942 -1.37415,0.98369zM174.82688,168.84602c0.04845,-1.06806 0.06568,-2.1234 -0.01239,-3.14005c-0.67556,-1.58909 -1.55924,-3.47344 -2.59075,-5.30086c-1.86261,-0.02071 -3.90722,-0.09454 -5.93108,0.00973c1.64362,2.50693 3.081,5.20449 3.84822,7.79384c0.42941,-0.05972 0.88577,-0.08754 1.38028,-0.07895c1.37457,0.02386 2.28702,0.20237 3.30574,0.71629zM152.58085,187.82727c0.16905,-0.94268 0.38544,-1.87336 0.65273,-2.80732c-2.2414,-1.05578 -4.38009,-2.4545 -6.01863,-4.16502c-0.1407,1.76976 -0.12945,3.48148 -0.26472,5.19672c0.82185,0.63783 1.65753,1.26776 2.49505,1.56389c0.91809,0.32462 1.99714,0.32531 3.13557,0.21172zM144.31138,172.49472c0.72732,0.99558 1.43098,2.38134 2.04504,3.60094c0.4072,-1.4455 0.93809,-2.8198 1.59424,-4.13686c-0.6979,-1.04516 -1.35185,-2.08755 -1.95936,-3.03681c-0.60545,1.14082 -1.1847,2.34265 -1.67989,3.57271zM157.72552,151.34127c0,0 0.03179,-0.00369 0.08607,-0.00481c0.05425,-0.00424 0.08609,-0.0037 0.08609,-0.0037c1.10699,0.0192 3.13643,0.05444 4.24341,0.07366c0.16749,0.00291 0.33323,0.00731 0.49727,0.01321c1.76363,-0.06351 3.54229,0.10142 5.29605,0.51437c5.14826,1.21222 9.60935,7.21492 12.57483,11.43901c1.24482,4.07292 0.86947,8.29099 -0.24318,12.3375c-0.15366,0.69903 -0.31969,1.3596 -0.48924,1.96223c-0.83409,1.85457 -1.32106,3.88036 -2.17069,5.73497c-0.28299,0.97626 -0.59598,1.94736 -1.19451,2.75217c-0.75532,1.01563 -1.76524,1.92248 -2.85001,2.74909c-1.30609,0.99526 -2.72064,1.87418 -3.92988,2.68655c-3.44841,2.31666 -6.16372,4.22785 -10.28687,4.18823c-0.79775,-0.01384 -1.64012,-0.04271 -2.5018,-0.09592c-0.20048,1.23901 -1.42776,1.21769 -1.42776,1.21769l-0.18449,-0.0032c-7.54507,-0.18209 -12.26771,-6.7792 -14.36495,-13.87573c-0.07881,-1.05629 -0.13235,-2.12285 -0.1553,-3.19307c-0.56297,-2.95823 -0.74582,-6.03199 -0.60855,-9.0758c0.32971,-7.11065 4.79918,-14.61756 11.47166,-16.99216c1.91876,-1.22105 3.97429,-2.15228 6.15183,-2.42428z" fill="#000000"/><path d="M184.75297,208.98377c-0.00564,-0.01023 -0.01127,-0.02045 -0.01689,-0.03069l-0.16587,0.16697l-0.70123,-0.80549c-0.15862,-0.18219 -0.25039,-0.43171 -0.2377,-0.70533c0.00474,-0.10224 0.02373,-0.2006 0.0548,-0.29292c-6.30318,-5.37111 -14.99943,-11.90372 -14.57848,-20.9821c0,0 0.04594,-0.99085 0.96842,-0.97485c0.28477,0.00494 0.47725,0.10278 0.60727,0.23569c2.19849,-3.73745 7.82919,-7.24461 10.73708,-2.87014c1.36697,1.5702 1.42092,4.30729 2.94784,5.68558c1.3184,1.19007 2.95115,2.51075 3.93997,4.06539c3.06241,4.81472 5.36057,8.6203 9.57719,12.49794c1.21215,1.74433 2.49481,4.96099 1.31089,7.31565c-0.52597,1.04607 -2.43498,2.41462 -3.31395,3.21343c-1.40024,1.27257 -2.55448,3.15136 -4.6405,2.24856c-0.79163,-0.3426 -1.24705,-2.21592 -1.80467,-2.90501c-1.60459,-1.98288 -3.38359,-3.58287 -4.60028,-5.71332l-0.08668,-0.05914l0.00927,-0.01516c-0.01604,-0.00432 -0.03207,-0.00862 -0.0481,-0.01293z" fill="#485e84"/><path d="M171.82343,186.34801c-0.66208,0.3828 -1.81791,1.40535 -2.01361,2.16111c-0.49403,1.90791 0.57382,2.27626 1.58871,3.38211c2.19384,2.39045 4.17382,4.96364 6.3925,7.33379c3.39817,4.44527 6.79677,8.6757 10.27448,13.05305c0.54697,0.68846 3.08801,4.60899 4.04894,4.36022c0.83975,-0.21741 1.28128,-1.26125 1.87082,-1.95051c1.58541,-1.85363 2.98495,-3.9232 4.46721,-5.90393c0.41206,0.64182 1.0167,1.30219 1.18675,1.54081c1.26701,1.77818 2.29257,2.79809 3.78314,4.3571c0.435,0.45498 1.97624,1.8605 2.30288,2.41124c1.84336,3.10791 -2.51681,6.41002 -4.50722,8.04968c-8.44317,3.29701 -13.74231,-7.64337 -19.11107,-12.54982c-5.38022,-4.37228 -9.20483,-10.43013 -14.04287,-15.32735c-1.38381,-1.40072 -5.21149,-4.04101 -7.05339,-3.25829c1.5168,-1.26807 2.03439,-4.00606 2.8568,-5.85951c1.86261,-4.19769 5.7986,-8.28582 10.13541,-9.12281c1.56875,-0.30276 2.98343,-0.86625 4.13086,0.32868c0.48226,0.9766 0.82482,2.06215 1.24939,3.02415c-2.47379,1.61053 -5.04488,2.51627 -7.55971,3.97031z" data-paper-data="{&quot;noHover&quot;:false,&quot;origItem&quot;:[&quot;Path&quot;,{&quot;applyMatrix&quot;:true,&quot;segments&quot;:[[[67.03686,33.96408],[-5.19724,3.33479],[-1.01636,-1.92532]],[[64.08098,28.10099],[1.14282,1.95276],[-2.60571,-2.36983]],[[55.11455,27.5767],[3.36801,-0.66554],[-9.31085,1.83989]],[[34.11501,46.29425],[3.61337,-8.5313],[-1.59544,3.76689]],[[28.52556,58.18884],[3.15847,-2.6106],[3.91153,-1.64312]],[[44.13384,64.50974],[-3.13845,-2.7766],[10.97265,9.70755]],[[76.00638,94.80481],[-12.09448,-8.62985],[12.12329,9.70759]],[[118.59304,119.47199],[-17.95943,6.9451],[4.14717,-3.3766]],[[125.53032,103.50098],[4.3055,6.20366],[-0.76295,-1.09931]],[[122.29901,101.11902],[0.98806,0.90239],[-3.38563,-3.09209]],[[113.65965,89.67567],[2.92337,3.54195],[-0.39231,-0.47532]],[[111.1187,86.68623],[0.95712,1.28001],[-3.01208,4.04671]],[[102.01074,98.78554],[3.24832,-3.79401],[-1.20789,1.41081]],[[98.14178,102.79497],[1.79735,-0.46787],[-2.05671,0.53538]],[[88.92315,94.14868],[1.25408,1.36939],[-7.97354,-8.70669]],[[65.21498,68.05325],[7.80802,8.84646],[-5.04445,-4.70255]],[[50.6411,53.46744],[4.99267,4.74437],[-2.30967,-2.19481]],[[46.86457,46.6959],[-0.87859,3.86526],[0.34802,-1.5311]],[[51.02015,42.25647],[-1.39582,0.79522],[5.30188,-3.02057]]],&quot;closed&quot;:true}]}" fill="#343545"/><path d="M172.53782,180.93555c-4.03032,2.46417 -6.51536,5.27616 -9.0946,9.36954c-0.29331,0.46549 -0.44013,1.39435 -0.58794,2.403c0.40449,0.27863 0.37744,0.86234 0.37744,0.86234l-0.24881,1.38399c-0.26738,0.35472 -0.58003,0.73524 -0.92358,1.07363c-0.20091,0.35637 -0.45627,0.59627 -0.79093,0.65505c-0.00808,0.00142 -0.01613,0.0028 -0.02413,0.00414c-0.85886,0.53484 -1.81952,0.59934 -2.71746,-0.58101c-1.25782,-1.65343 -0.07424,-7.57129 0.6431,-9.29393c1.74711,-4.74732 5.36644,-8.71274 9.84988,-10.70658c1.48235,-0.65922 6.57531,-0.35779 7.91207,1.10597c0.08731,-0.01886 0.1754,-0.0368 0.26429,-0.05376l0.08875,0.04788l0.00236,-0.05111l0.92248,0.016c0.50947,0.00884 0.9019,0.45963 0.87654,1.00687c-0.02536,0.54724 -0.45895,0.98368 -0.96843,0.97484l-0.85331,-0.01481c-1.71469,0.34955 -3.0886,1.13975 -4.72777,1.79795z" fill="#485e84"/><path d="M162.01071,189.30208c-0.06244,-0.00237 -0.12517,-0.00772 -0.18809,-0.01613c0.04688,0.21064 0.08912,0.31167 0.14407,0.13711c0.01194,-0.03793 0.02671,-0.07833 0.044,-0.12099zM159.20797,186.44444c-0.11011,-0.63206 0.03007,-1.24804 0.32925,-1.78102c0.71684,-1.85683 2.4903,-3.42685 4.08291,-2.42565c2.96834,1.8661 1.75969,4.70332 0.14666,7.07973c-0.45678,0.67294 -0.64132,1.75387 -1.3725,2.01718c-1.21363,0.43706 -3.03022,-2.51336 -3.60897,-3.39469c0,0 -0.51674,-0.80229 0.24881,-1.38399c0.0595,-0.0452 0.11747,-0.08203 0.17384,-0.11155z" fill="#8fbbbe"/><path d="M167.65346,184.69269c-0.90607,0.22479 -1.08524,-0.74037 -1.08524,-0.74037l-0.00721,-0.43896c-0.75652,-1.18161 -1.66247,-2.22743 -2.42675,-3.41372c0,0 -0.51673,-0.80229 0.24882,-1.38399c0.76555,-0.5817 1.2823,0.22058 1.2823,0.22058c0.76474,1.18766 1.66271,2.23361 2.42674,3.41372l0.28827,1.1528c0,0 0.17917,0.96515 -0.72693,1.18994z" fill="#8fbbbe"/><path d="M162.10078,198.46839c-0.24905,0.30504 -0.52955,0.53331 -0.84772,0.65626c-0.80261,0.31013 -1.59121,-0.56653 -2.3361,-0.96602c-4.24717,-2.27778 -1.99347,-9.83846 -0.3389,-13.55309c1.81979,-4.44361 7.48002,-8.90636 11.98664,-9.81795c1.4708,-0.29752 3.40379,0.02871 4.89204,0.05454c0.65331,0.01135 3.4898,0.04171 3.78787,0.15459c1.60443,0.6076 4.01107,3.84051 3.30251,5.80835c-0.12994,0.36088 -0.42104,0.57788 -0.76526,0.74743c0.62103,1.4704 1.18144,3.0375 1.82882,3.89789c3.68736,4.90063 7.64089,9.52721 11.23073,14.55842c3.60437,3.43121 6.54462,8.26541 9.48225,12.36224c1.27159,1.77338 3.21768,4.26942 2.95887,6.69513c-0.40851,3.82853 -6.76639,7.62622 -9.65924,8.69418c-3.95826,-0.08157 -5.71022,-2.91996 -8.30401,-5.66592c-5.49173,-5.8139 -10.31487,-12.27099 -16.05766,-17.81818c-1.729,-2.82713 -5.22776,-5.80363 -8.05356,-7.72921c-0.09828,0.22874 -0.24745,0.42771 -0.43092,0.58016l-1.14447,0.96451zM178.20678,177.79008c-0.0135,-0.00689 -0.02486,-0.01186 -0.03386,-0.01472c-1.60493,-0.5136 -4.27436,0.03417 -5.99043,-0.01512c-3.83062,-0.11002 -9.6249,4.17895 -11.08762,7.99751c-1.1252,2.48994 -1.9431,5.71907 -1.79242,8.47072c0.06276,1.14611 0.78392,0.94967 1.12973,1.57079c-0.0074,-0.04651 -0.01135,-0.08821 -0.01017,-0.1206c0.02097,-0.57256 0.09717,-1.15017 0.24498,-1.70536c0.32712,-1.22864 0.72069,-2.43843 1.11663,-3.64581c1.52645,-4.65497 4.88077,-7.80484 8.68965,-10.22517c1.9043,-0.96783 5.20775,-2.63721 7.73353,-2.3122zM164.0752,192.50637c0.92284,0.17571 2.53215,1.60614 3.14546,2.10449c2.89909,2.35571 6.14202,4.3737 8.16307,7.67838c5.7588,5.38199 10.46885,11.90194 15.90347,17.64257c1.66665,1.7605 3.41617,4.86817 5.97788,4.89511c2.32907,-0.91675 4.12475,-2.64913 5.93646,-4.44341c0.24873,-0.24633 1.27766,-1.02905 1.33831,-1.64157c0.13356,-1.34888 -1.71693,-3.51763 -2.43045,-4.50486c-2.91562,-4.0341 -5.76449,-8.77341 -9.32234,-12.16038c-3.67985,-5.07702 -7.6805,-9.80082 -11.41223,-14.79072c-0.87025,-1.16365 -1.68743,-2.87184 -2.33234,-4.2063c-0.34658,-0.71716 -0.21046,-1.84653 -0.86588,-2.24309c-1.44618,-0.87506 -5.16767,1.22318 -6.46984,1.88185c-3.18633,2.01618 -6.0799,4.59001 -7.32114,8.53659c-0.10386,0.33028 -0.20435,0.76104 -0.31042,1.25135z" fill="#000000"/></g><path d="M230.24244,187.82567c1.11338,-1.94707 2.24382,-3.86824 3.3189,-5.85098c1.85865,-2.42398 4.20112,-7.15182 7.04577,-8.47465c3.71319,-1.72673 7.28914,0.99528 8.56731,4.28374c2.79554,7.19237 3.49326,13.13209 -0.66824,19.84093c-1.5211,3.40009 -3.4493,6.46577 -6.34096,8.89198c-2.10351,1.76492 -4.68715,2.88877 -6.83736,4.60307c-2.91897,2.32721 -5.44185,4.29564 -9.43884,2.95201c-2.81486,-0.94625 -4.57014,-4.79201 -6.12434,-7.10248c-2.66744,-3.82381 -6.94361,-8.20068 -7.1321,-13.05775c-0.07934,-2.04481 0.11564,-4.95762 2.28653,-6.10054c1.12599,-0.59281 2.53431,-0.24666 3.80568,-0.30028c3.48634,-0.14703 7.00553,-0.02944 10.49531,-0.04346c0,0 0.58196,-0.00234 1.02235,0.35839z" fill="#db93e6" stroke="none" stroke-width="0.5" stroke-linecap="butt"/><path d="M252.00138,192.55098c-1.64893,7.56737 -4.82065,11.04687 -10.10596,16.37944c-1.80549,1.82163 -7.38487,5.83603 -9.91874,6.55531c-2.53395,0.71931 -5.1193,1.43023 -7.54683,0.69454c-3.59886,-2.99883 -5.36979,-7.99553 -8.12287,-11.70668c-1.79134,-2.41472 -4.21212,-4.78473 -5.18005,-7.71355c-1.03751,-3.13937 0.1355,-6.15804 1.20275,-9.03495c0.01593,-0.08592 0.47368,-1.11844 1.24526,-1.2181c3.30057,-0.42635 12.54605,0.01945 16.5841,0.00323c0.50171,-1.80294 2.03415,-4.37537 2.7833,-6.03196c1.57996,-3.49376 2.6255,-5.69296 6.02659,-7.53028c1.01655,-0.54916 2.70589,-1.12371 3.81934,-1.54951c0,0 1.93326,-0.75059 2.51625,0.40359c5.84367,1.9872 7.06425,5.97933 7.22472,11.97516c0.0578,2.15971 -0.33203,6.9434 -0.52785,8.77377zM213.98125,195.83661c1.10629,3.17264 9.52615,14.8626 12.14175,17.16913c7.95673,2.15079 21.16569,-12.44097 22.79232,-19.78469c2.46744,-11.13971 -0.65979,-24.20648 -10.86311,-16.13086c-3.90635,3.09176 -5.40574,11.19963 -7.08053,11.72955c-1.70828,0.54052 -7.73993,-0.19131 -11.89315,-0.4214c-2.56756,-0.14224 -4.25062,0.23716 -4.25062,0.23716c-0.77061,1.97924 -1.58711,5.07761 -0.84664,7.2011z" fill="#000000" stroke="none" stroke-width="0.5" stroke-linecap="butt"/><g stroke="none" stroke-width="0.5" stroke-linecap="butt"><path d="M214.59416,193.40651c-4.20585,0.76926 -7.81325,2.76555 -12.23545,2.94264c-2.3801,0.09531 -4.58581,0.03639 -6.92868,-0.38455c-1.87072,-0.33611 -5.26184,-1.34955 -7.25815,-0.86515c-1.29713,0.31474 -1.06868,4.71024 -1.06872,5.45805c1.87507,7.25372 6.81813,15.60672 13.96973,18.77371c2.23982,0.99187 5.44283,2.29087 7.98554,1.62506c1.14803,-0.30061 2.14925,-1.00769 3.23681,-1.48263c1.62027,-0.70756 2.72785,-1.72129 3.95639,-2.96351c3.55263,-4.15974 10.37427,-9.18166 8.16751,-15.82304c-0.57687,-1.73612 -2.80254,-3.25109 -4.07905,-4.41307c-1.45133,-1.32111 -2.6916,-2.29202 -4.60988,-2.74298l-0.41328,0.04644c0,0 -0.35662,0.00143 -0.72277,-0.17098zM217.40505,190.91669c3.71048,1.35287 8.64004,5.24629 9.84914,8.78933c0.99839,2.92559 0.11853,7.02285 -1.19552,9.69152c-1.91705,3.89329 -4.91293,5.96881 -7.5977,9.14208c-1.53261,1.54103 -2.94986,2.78204 -4.95553,3.67908c-1.24609,0.55731 -2.42134,1.32503 -3.74601,1.6545c-7.07133,1.75879 -13.8655,-3.77394 -18.08339,-8.61852c-1.91253,-2.1967 -3.89352,-4.22268 -5.07654,-6.92378c-1.04603,-2.38834 -1.8394,-4.87247 -2.47233,-7.39493c-0.01823,-2.5274 -0.21485,-7.24957 2.76137,-8.54819c3.17598,-1.38578 8.11486,0.69669 11.25706,0.98418c2.40656,0.22019 5.88968,0.38621 8.18443,-0.36226c3.33922,-1.08914 5.97868,-2.4663 9.6148,-2.81727c0,0 1.0298,-0.09779 1.46024,0.72423z" fill="#000000"/><path d="M215.34505,193.53614l0.41404,-0.04591c1.91829,0.45096 3.16933,1.43223 4.62066,2.75334c1.27651,1.16197 3.50959,2.69054 4.08645,4.42665c2.20676,6.64138 -4.62475,11.71359 -8.17738,15.87333c-1.22854,1.24221 -2.35033,2.26693 -3.9706,2.97449c-1.08755,0.47493 -2.10081,1.1864 -3.24883,1.487c-2.54272,0.66581 -5.77558,-0.63569 -8.01539,-1.62756c-7.15159,-3.16698 -12.12283,-11.58306 -13.9979,-18.83679c0.00004,-0.74781 -0.22259,-5.15475 1.07454,-5.46949c1.9963,-0.48439 5.39461,0.52072 7.26532,0.85683c2.34287,0.42094 4.56692,0.46898 6.94702,0.37367c4.42219,-0.17708 8.07168,-2.16844 12.27754,-2.9377c0.36617,0.17241 0.72456,0.17214 0.72456,0.17214z" data-paper-data="{&quot;noHover&quot;:false,&quot;origItem&quot;:[&quot;Path&quot;,{&quot;applyMatrix&quot;:true,&quot;segments&quot;:[[[429.90791,387.32211],[0.73093,0.34776],[-8.41783,1.50473]],[[405.41357,393.10906],[8.84574,-0.31865],[-4.76092,0.1715]],[[391.55941,392.2843],[4.68232,0.8607],[-3.73869,-0.68724]],[[377.05018,390.4957],[3.99646,-0.95274],[-2.59677,0.61906]],[[374.86892,401.40313],[0.00607,-1.4956],[3.69184,14.52239]],[[402.65734,439.06246],[-14.27763,-6.39137],[4.47163,2.00172]],[[418.61523,442.3767],[-5.09074,1.31118],[2.29846,-0.59199]],[[425.1007,439.43747],[-2.17891,0.94112],[3.24619,-1.4021]],[[433.03722,433.5423],[-2.46703,2.47453],[7.13862,-8.29088]],[[449.49922,401.96208],[4.36015,13.30038],[-1.13978,-3.47683]],[[441.37664,393.10325],[2.54365,2.33419],[-2.89202,-2.65387]],[[432.17899,387.5803],[3.83292,0.91732],[0,0]],[431.35207,387.66987]],&quot;closed&quot;:true}]}" fill="#f89587"/></g><path d="M162.30309,189.62056c0.00474,-0.01696 0.00952,-0.03386 0.01437,-0.0507z" fill="#000000" stroke="none" stroke-width="0.5" stroke-linecap="butt"/><path d="M194.25936,177.1607c-0.66277,-1.49275 -1.35455,-2.97989 -1.91956,-4.50854c-1.73653,-2.68628 -5.55604,-0.707 -7.42826,0.86552c-3.89086,3.26804 -6.97155,9.98694 -7.1612,15.05092l0.21291,0.05233l-0.00969,0.03946c0.09745,0.01481 0.19445,0.03464 0.29095,0.06022c0.87128,0.23092 1.50944,0.95227 2.19908,1.5637c3.80094,2.12986 5.34794,6.53962 8.95369,8.92384c1.54323,0.48553 3.27436,0.57239 4.77672,0.78186c0.66638,0.0929 1.36895,0.20334 2.08303,0.29845c0.74638,-0.07111 1.43958,-0.13477 1.98641,-0.13471c2.07285,0.0002 4.00491,-0.59426 5.58741,-1.96188c0.17998,-0.17392 0.35449,-0.36492 0.52252,-0.57077c0.0352,-0.07969 0.06914,-0.16143 0.10181,-0.24526c0.05676,-0.0372 0.11315,-0.07278 0.16907,-0.10705c2.28597,-3.15265 3.15009,-9.07277 -0.29403,-11.44891c-2.28114,-0.33485 -5.71204,1.03398 -7.51662,-0.17864c-0.73355,-0.49293 -0.2378,-1.48978 -0.56414,-2.44545c-0.63135,-1.8489 -1.67689,-4.08733 -1.99007,-6.03506zM182.98175,171.22075c3.67986,-3.09242 8.73249,-4.23042 11.94809,-0.05789c0.43596,0.24902 0.65518,0.68309 0.65518,0.68309l0.45518,0.91958c0.19639,0.5174 0.3928,1.03478 0.58919,1.55218c0.30878,0.81688 0.52543,1.58662 0.68775,2.34598c0.39084,0.90707 0.76463,1.81761 1.09531,2.73746c0.27669,0.76966 -0.22649,1.99073 0.47771,2.4067c0.85022,0.50223 1.98011,-0.239 2.96008,-0.11754c1.34327,0.16649 2.46618,0.62117 3.61785,1.30278c0.12583,0.03134 0.24957,0.06689 0.37091,0.10715c0.85666,0.28426 2.94552,1.65494 3.37781,2.43891c0.4673,0.84745 0.38858,2.83611 0.39346,3.82692c0.01832,3.72277 0.81638,7.65519 -2.76706,9.86407c-0.02897,0.03952 -0.05813,0.07878 -0.08747,0.11781c-1.68191,4.63046 -7.17125,4.36314 -11.46903,3.81875c-1.21213,0.00763 -4.44754,0.02341 -4.64383,-0.04323c-0.39907,-0.13549 -0.94043,-0.43743 -1.53387,-0.82056c-0.39927,-0.10451 -0.78819,-0.23258 -1.16103,-0.39319c-0.52195,-0.22485 -3.0373,-1.86417 -3.45032,-2.30415c-1.02137,-1.08805 -1.77857,-2.70145 -2.62948,-4.00203c-0.38263,-0.46976 -0.76971,-0.918 -1.19946,-1.33495c-0.83718,-0.63071 -1.91373,-1.1376 -2.63462,-1.75926c-0.44624,-0.19075 -0.93882,-0.36072 -1.48887,-0.50707l-0.18531,-0.30083l-0.09657,0.11683l-1.16096,-0.95959c-0.336,-0.27375 -0.5513,-0.69022 -0.55317,-1.15745c-0.00108,-0.26925 0.06885,-0.52222 0.19218,-0.74117c0.03951,-5.92438 3.62219,-13.8584 8.24032,-17.7393z" fill="#000000" stroke="none" stroke-width="0.5" stroke-linecap="butt"/><path d="M196.29151,183.16873c0.32634,0.95567 -0.16151,1.97771 0.57204,2.47063c1.80458,1.21262 5.23551,-0.15433 7.51666,0.18052c3.44412,2.37614 2.56678,8.33009 0.28081,11.48273c-0.05592,0.03427 -0.1127,0.07027 -0.16946,0.10747c-0.03266,0.08383 -0.06711,0.16609 -0.10231,0.24578c-0.16803,0.20585 -0.34415,0.39844 -0.52414,0.57237c-1.58249,1.36763 -3.52934,1.97173 -5.60219,1.97153c-0.54683,-0.00005 -1.24597,0.0657 -1.99234,0.13679c-0.71407,-0.09509 -1.42323,-0.20416 -2.08961,-0.29706c-1.50236,-0.20947 -3.25062,-0.29689 -4.79385,-0.78241c-3.60575,-2.38422 -5.18932,-6.82512 -8.99025,-8.95498c-0.68963,-0.61142 -1.33001,-1.34036 -2.2013,-1.57129c-0.0965,-0.02558 -0.1936,-0.04581 -0.29104,-0.06062l0.00967,-0.03959l-0.21297,-0.05262c0.18965,-5.06398 3.29402,-11.83531 7.18488,-15.10335c1.87222,-1.57252 5.71778,-3.55874 7.45432,-0.87247c0.56502,1.52864 1.26789,3.01718 1.93065,4.50993c0.31318,1.94773 1.38908,4.20774 2.02042,6.05663z" data-paper-data="{&quot;noHover&quot;:false,&quot;origItem&quot;:[&quot;Path&quot;,{&quot;applyMatrix&quot;:true,&quot;segments&quot;:[[[389.36914,354.6674],[0.6107,3.89794],[-1.31353,-2.99079]],[[385.56625,345.63498],[1.11775,3.06181],[-3.45147,-5.38647]],[[370.7029,347.30633],[3.75704,-3.12998],[-7.80792,6.50477]],[[356.2597,377.35039],[0.41999,-10.12635],[0,0]],[356.6851,377.45674],[[356.66539,377.53558],[0,0],[0.19477,0.0304]],[[357.24681,377.65835],[-0.1928,-0.05193],[1.7407,0.46885]],[[361.63236,380.80338],[-1.37435,-1.22838],[7.5847,4.29022]],[[379.46789,398.72284],[-7.19228,-4.79736],[3.08253,0.98344]],[[389.01497,400.32492],[-3.00301,-0.431],[1.332,0.19117]],[[393.17858,400.93854],[-1.42736,-0.19593],[1.49331,-0.13621]],[[397.15247,400.68507],[-1.09366,-0.0045],[4.14566,0.01706]],[[408.34294,396.80622],[-3.17594,2.72251],[0.36135,-0.34641]],[[409.39255,395.66889],[-0.33772,0.41035],[0.07104,-0.1591]],[[409.59814,395.17919],[-0.066,0.1674],[0.11382,-0.07393]],[[409.93714,394.96645],[-0.11212,0.0681],[4.59722,-6.28687]],[[409.44106,372.06646],[6.86911,4.77991],[-4.55956,-0.68801]],[[394.40938,371.64879],[3.59938,2.43973],[-1.46312,-0.99173]],[[393.30076,366.75339],[0.64499,1.91395],[-1.24783,-3.70283]]],&quot;closed&quot;:true}]}" fill="#fddfbd" stroke="none" stroke-width="0.5" stroke-linecap="butt"/><path d="M206.53256,194.99343c-1.32259,8.92394 -12.17551,5.43915 -17.62707,3.15308c-1.53737,-1.551 -2.52047,-3.18227 -3.92085,-4.79088c-1.26071,-1.44815 -4.02442,-2.8053 -4.99725,-4.2894c-0.60666,-0.92549 1.15351,-3.30554 1.16032,-3.9551c0.0043,-0.41033 -0.56962,-0.59728 -0.79647,-0.93923c-0.30421,-0.45859 0.98599,0.68954 1.3943,1.05849c0.91709,0.82868 1.9485,1.43309 3.13077,1.79364c3.12403,0.95274 6.47691,1.45605 9.49707,2.71296c0.86056,0.35391 3.48779,0.97361 4.77299,1.4622c0.62378,0.23714 1.65268,0.55613 2.00215,0.75892c0.42973,0.24937 0.13489,0.32185 0.48065,-0.16429c0.58621,-0.82422 0.67599,-0.6613 1.32715,-1.49963c0.70945,-0.91338 2.17481,-2.25836 2.92728,-2.94455c0.08028,1.20153 0.65288,0.53081 0.83838,2.06438c0.14779,1.22169 -0.0548,4.67095 -0.18944,5.57943z" data-paper-data="{&quot;noHover&quot;:false,&quot;origItem&quot;:[&quot;Path&quot;,{&quot;applyMatrix&quot;:true,&quot;segments&quot;:[[[413.22832,377.33554],[0.27112,4.31854],[-2.89675,2.62042]],[[404.09091,383.98571],[3.28737,-0.9633],[-3.99464,1.17055]],[[389.45722,379.91278],[3.57765,1.48814],[-6.03017,-2.53807]],[[370.60791,374.37288],[6.24037,1.93056],[-2.36162,-0.7306]],[[364.19226,370.65287],[1.82749,1.66472],[-0.81367,-0.74119]],[[361.58091,368.63208],[-0.60474,-0.91963],[0.45093,0.68573]],[[363.16764,370.51474],[0.0119,-0.82063],[-0.01884,1.29905]],[[360.82667,378.38841],[-1.20588,-1.85584],[1.93373,2.97599]],[[370.78915,386.97148],[-2.50976,-2.90641],[2.78782,3.22843]],[[378.55363,396.51621],[-3.06225,-3.11433],[10.88465,4.6159]],[[413.67402,390.41164],[-2.71684,17.83712],[0.62376,-4.09526]]],&quot;closed&quot;:true}]}" fill="#f89587" stroke="none" stroke-width="0.5" stroke-linecap="butt"/><path d="M192.27253,194.02069c0,0 2.05673,-1.18836 3.88349,0.00297c0.68252,0.44511 3.08186,2.1135 4.17903,3.131c2.36739,2.19549 2.49106,4.38102 2.49106,4.38102c0,0 5.1375,0.89407 6.47025,2.99007c0.59031,0.92837 2.79651,3.50861 3.13094,5.37018c0.52202,2.90576 -0.99983,5.16689 -0.99983,5.16689c0,0 -11.10164,11.63099 -16.29035,13.91111c-1.38081,0.60678 -3.92526,0.24246 -3.92526,0.24246c0,0 -1.98751,-1.44242 -3.1099,-2.34574c-1.53378,-1.23442 -4.46992,-3.60859 -4.46992,-3.60859c0,0 -2.75126,0.15767 -3.61368,0.29679c-0.64253,0.10365 -1.87852,-0.31086 -1.87852,-0.31086c0,0 -0.97574,-1.21825 -1.95267,-2.68109c-1.09976,-1.64678 -2.25296,-3.60331 -3.01225,-4.47673c-0.90849,-1.04506 -2.21845,-0.61775 -2.21845,-0.61775l-8.68402,0.77602c0,0 -2.08376,-3.01594 -2.71764,-5.9328c-0.7498,-3.45026 -0.1233,-11.30656 -0.1233,-11.30656c0,0 9.6919,-10.65991 14.5889,-13.72121c4.82461,-3.01605 12.24507,-5.08642 12.24507,-5.08642c0,0 2.82311,2.21448 3.94692,3.53886c1.27593,1.50365 3.31037,5.01368 3.31037,5.01368l-1.25021,5.26672z" fill="#fddfbd" stroke="#000000" stroke-width="3" stroke-linecap="round"/><path d="M160.95368,201.21334c0,0 0.62826,3.02103 1.24591,4.44636c0.65172,1.50395 2.56767,4.35419 2.56767,4.35419c0,0 4.52421,-0.8335 6.62599,-1.85859c3.69794,-1.80356 13.62483,-8.01817 13.62483,-8.01817c0,0 -1.94544,3.83131 -2.57207,6.04545c-0.48832,1.72547 -0.87734,6.14271 -0.87734,6.14271c0,0 1.61888,2.65495 2.4845,3.40349c0.95169,0.82298 2.99197,1.33228 2.99197,1.33228c0,0 3.32971,-0.97638 4.48163,-1.75104c1.33345,-0.89672 3.05447,-3.31688 3.05447,-3.31688c0,0 -1.11624,3.63762 -1.36866,5.1112c-0.16811,0.98137 0.00138,2.87056 0.00138,2.87056c0,0 6.70853,-4.83339 8.94454,-5.42813c2.67169,-0.71061 6.01247,1.44988 6.01247,1.44988c0,0 -3.67045,4.42074 -5.76982,6.30664c-1.89305,1.70057 -5.55639,4.33494 -7.7975,5.3935c-0.7401,0.34959 -2.29207,0.26775 -2.29207,0.26775c0,0 -1.15595,-0.43943 -2.56126,-1.49858c-1.27169,-0.95845 -3.61376,-3.47227 -5.0652,-4.60781c-0.75449,-0.59027 -1.26629,-0.30464 -1.26629,-0.30464c0,0 -2.38741,0.68561 -3.39483,0.64749c-0.69751,-0.02639 -1.08393,-0.85824 -1.08393,-0.85824c0,0 -1.32054,-1.47967 -2.24754,-2.55716c-0.18352,-0.21331 -1.39543,-1.89777 -2.35139,-3.18642c-0.51723,-0.69725 -0.55816,-1.28023 -1.61137,-1.44645c-1.85912,-0.29341 -3.97537,-0.51036 -7.81266,0.12159c-1.10854,0.18255 -1.88133,0.62807 -2.36871,0.09476c-2.38571,-2.61051 -1.59474,-13.15578 -1.59474,-13.15578z" fill="#f89587" stroke="#f89587" stroke-width="0.5" stroke-linecap="round"/><path d="M180.15639,203.35327c3.09322,-3.71904 8.10409,-7.02552 11.88006,-10.05079c0.26188,-0.7509 0.3426,0.74453 0.408,1.78796c-5.12343,3.47759 -9.2262,7.64271 -14.02479,11.55653c0.6158,-1.13294 1.29786,-2.76604 1.73671,-3.29369z" data-paper-data="{&quot;noHover&quot;:false,&quot;origItem&quot;:[&quot;Path&quot;,{&quot;applyMatrix&quot;:true,&quot;segments&quot;:[[[357.52884,410.33784],[1.2407,-2.033],[9.62855,-7.00379]],[[385.50984,389.77357],[-10.27473,6.21694],[-0.12243,-1.87693]],[[384.71883,386.56966],[0.52978,-1.34849],[-7.57618,5.41327]],[[361.03917,404.44173],[6.21626,-6.66584],[-0.88195,0.94574]]],&quot;closed&quot;:true}]}" fill="#000000" stroke="none" stroke-width="0.5" stroke-linecap="butt"/><path d="M192.66415,194.01912c0,0 1.66514,-1.18679 3.4919,0.00454c0.68252,0.44511 3.08186,2.1135 4.17903,3.131c2.36739,2.19549 2.49106,4.38102 2.49106,4.38102c0,0 5.1375,0.89407 6.47025,2.99007c0.59031,0.92837 2.79651,3.50861 3.13094,5.37018c0.52202,2.90576 -0.99983,5.16689 -0.99983,5.16689c0,0 -11.10164,11.63099 -16.29035,13.91111c-1.38081,0.60678 -3.92526,0.24246 -3.92526,0.24246c0,0 -1.98751,-1.44242 -3.1099,-2.34574c-1.53378,-1.23442 -4.46992,-3.60859 -4.46992,-3.60859c0,0 -2.75126,0.15767 -3.61368,0.29679c-0.64253,0.10365 -1.87852,-0.31086 -1.87852,-0.31086c0,0 -0.97574,-1.21825 -1.95267,-2.68109c-1.09976,-1.64678 -2.25296,-3.60331 -3.01225,-4.47673c-0.90849,-1.04506 -2.21845,-0.61775 -2.21845,-0.61775l-8.68402,0.77602c0,0 -2.08376,-3.01594 -2.71764,-5.9328c-0.7498,-3.45026 -0.1233,-11.30656 -0.1233,-11.30656c0,0 9.6919,-10.65991 14.5889,-13.72121c4.82461,-3.01605 12.24507,-5.08642 12.24507,-5.08642c0,0 2.82311,2.21448 3.94692,3.53886c1.27593,1.50365 3.31037,5.01368 3.31037,5.01368l-1.25021,5.26672z" fill="#fddfbd" stroke="#000000" stroke-width="3" stroke-linecap="round"/><path d="M160.95368,201.21334c0,0 0.62826,3.02103 1.24591,4.44636c0.65172,1.50395 2.56767,4.35419 2.56767,4.35419c0,0 4.52421,-0.8335 6.62599,-1.85859c3.69794,-1.80356 13.62483,-8.01817 13.62483,-8.01817c0,0 -1.94544,3.83131 -2.57207,6.04545c-0.48832,1.72547 -0.87734,6.14271 -0.87734,6.14271c0,0 1.61888,2.65495 2.4845,3.40349c0.95169,0.82298 2.99197,1.33228 2.99197,1.33228c0,0 3.32971,-0.97638 4.48163,-1.75104c1.33345,-0.89672 3.05447,-3.31688 3.05447,-3.31688c0,0 -1.11624,3.63762 -1.36866,5.1112c-0.16811,0.98137 0.00138,2.87056 0.00138,2.87056c0,0 6.70853,-4.83339 8.94454,-5.42813c2.67169,-0.71061 6.01247,1.44988 6.01247,1.44988c0,0 -3.67045,4.42074 -5.76982,6.30664c-1.89305,1.70057 -5.55639,4.33494 -7.7975,5.3935c-0.7401,0.34959 -2.29207,0.26775 -2.29207,0.26775c0,0 -1.15595,-0.43943 -2.56126,-1.49858c-1.27169,-0.95845 -3.61376,-3.47227 -5.0652,-4.60781c-0.75449,-0.59027 -1.26629,-0.30464 -1.26629,-0.30464c0,0 -2.38741,0.68561 -3.39483,0.64749c-0.69751,-0.02639 -1.08393,-0.85824 -1.08393,-0.85824c0,0 -1.32054,-1.47967 -2.24754,-2.55716c-0.18352,-0.21331 -1.39543,-1.89777 -2.35139,-3.18642c-0.51723,-0.69725 -0.55816,-1.28023 -1.61137,-1.44645c-1.85912,-0.29341 -3.97537,-0.51036 -7.81266,0.12159c-1.10854,0.18255 -1.88133,0.62807 -2.36871,0.09476c-2.38571,-2.61051 -1.59474,-13.15578 -1.59474,-13.15578z" fill="#f89587" stroke="#f89587" stroke-width="0.5" stroke-linecap="round"/><path d="M180.15639,203.35327c3.09322,-3.71904 8.10409,-7.02552 11.88006,-10.05079c0.26188,-0.7509 0.3426,0.74453 0.408,1.78796c-5.12343,3.47759 -9.2262,7.64271 -14.02479,11.55653c0.6158,-1.13294 1.29786,-2.76604 1.73671,-3.29369z" data-paper-data="{&quot;noHover&quot;:false,&quot;origItem&quot;:[&quot;Path&quot;,{&quot;applyMatrix&quot;:true,&quot;segments&quot;:[[[357.52884,410.33784],[1.2407,-2.033],[9.62855,-7.00379]],[[385.50984,389.77357],[-10.27473,6.21694],[-0.12243,-1.87693]],[[384.71883,386.56966],[0.52978,-1.34849],[-7.57618,5.41327]],[[361.03917,404.44173],[6.21626,-6.66584],[-0.88195,0.94574]]],&quot;closed&quot;:true}]}" fill="#000000" stroke="none" stroke-width="0.5" stroke-linecap="butt"/><path d="M192.12361,215.53943c1.18416,-7.28194 7.82955,-8.99277 7.80952,-13.9794c-0.00425,-1.05797 0.00093,-7.2848 2.15173,-3.17784c0.63567,1.21381 -0.08426,2.4154 0.79148,3.62035c0.7008,0.96424 1.56925,1.40808 2.5275,1.77979c-4.69722,2.56054 -13.34223,12.13836 -13.28023,11.75711z" data-paper-data="{&quot;noHover&quot;:false,&quot;origItem&quot;:[&quot;Path&quot;,{&quot;applyMatrix&quot;:true,&quot;segments&quot;:[[[411.34699,408.02386],[-9.41495,5.0833],[-1.9135,-0.75112]],[[406.3273,404.4848],[1.39384,1.93411],[-1.74178,-2.41692]],[[404.80791,397.26385],[1.26158,2.43271],[-4.26858,-8.23113]],[[400.49427,403.60774],[0,-2.11596],[0,9.97335]],[[386.41035,424.72565],[3.20408,-8.72475],[-0.26631,0.72517]],[[385.48269,427.98414],[0.3701,-1.29924],[0.43786,-0.37882]],[[386.82394,426.89155],[-0.45713,0.34787],[8.57583,-6.40439]]],&quot;closed&quot;:true}]}" fill="#000000" stroke="none" stroke-width="0.5" stroke-linecap="butt"/><path d="M192.12361,215.53943c1.18416,-7.28194 7.82955,-8.99277 7.80952,-13.9794c-0.00425,-1.05797 0.00093,-7.2848 2.15173,-3.17784c0.63567,1.21381 -0.08426,2.4154 0.79148,3.62035c0.7008,0.96424 1.56925,1.40808 2.5275,1.77979c-4.69722,2.56054 -13.34223,12.13836 -13.28023,11.75711z" data-paper-data="{&quot;noHover&quot;:false,&quot;origItem&quot;:[&quot;Path&quot;,{&quot;applyMatrix&quot;:true,&quot;segments&quot;:[[[411.34699,408.02386],[-9.41495,5.0833],[-1.9135,-0.75112]],[[406.3273,404.4848],[1.39384,1.93411],[-1.74178,-2.41692]],[[404.80791,397.26385],[1.26158,2.43271],[-4.26858,-8.23113]],[[400.49427,403.60774],[0,-2.11596],[0,9.97335]],[[386.41035,424.72565],[3.20408,-8.72475],[-0.26631,0.72517]],[[385.48269,427.98414],[0.3701,-1.29924],[0.43786,-0.37882]],[[386.82394,426.89155],[-0.45713,0.34787],[8.57583,-6.40439]]],&quot;closed&quot;:true}]}" fill="#000000" stroke="none" stroke-width="0.5" stroke-linecap="butt"/></g><g stroke-width="0.5"><path d="M222.00669,237.88762c-1.65814,0.33281 -3.43159,0.44571 -5.59002,0.44571c0,0 -0.26771,0 -0.48324,-0.15994c-0.52024,0.50819 -1.24283,1.02941 -1.68323,1.46879c-3.04224,2.43145 -6.30134,3.45932 -9.61793,5.41976c-3.01946,1.78481 -6.30266,4.5095 -9.74796,5.2262c0.13762,1.03221 0.02216,2.19778 -0.42278,3.53236c-0.43559,1.30654 -0.77062,1.40079 -1.39616,2.47261c-1.03979,1.78159 -1.75305,4.35983 -3.98202,4.54022c-6.47281,0 -15.17998,0.84634 -20.0873,-4.19846c-0.07141,0.02024 -0.15295,0.03179 -0.24603,0.03179c-0.75,0 -0.75,-0.75 -0.75,-0.75l0.01456,-0.64709c0.96269,-4.81347 5.4677,-7.05415 9.09838,-9.90366c2.73173,-2.14398 5.27264,-4.50443 8.94319,-3.3006c3.27341,1.86009 7.15277,3.61967 8.44204,6.77143c3.25376,-0.58729 6.52549,-3.38571 9.36957,-5.06536c3.24366,-1.91563 6.42008,-2.87461 9.38207,-5.24691c0.30092,-0.30169 2.62038,-2.01304 2.15433,-2.62304c-0.95483,-1.24976 -3.46894,-2.00239 -4.92545,-2.31285c-4.01123,-0.85501 -7.86528,-0.24037 -11.37085,-2.59193c-0.80354,-0.80354 -2.057,-1.37446 -2.54252,-2.44055c-1.58051,-3.47045 1.38194,-5.25467 4.10129,-6.4197c4.96088,-2.12536 10.13935,-2.19 15.44256,-2.1113c1.86938,1.02803 6.72129,2.91678 7.5029,5.11062c1.69199,4.74912 -3.38217,8.20605 -7.20572,9.82189c0.4197,0.53092 0.61464,1.15048 0.3878,1.87723c1.67467,0.01288 3.39673,0.09754 5.06471,-0.11038c0.22221,-0.22449 0.55781,-0.22449 0.55781,-0.22449c0.18306,0 0.53279,0 0.71586,0c0.68689,-0.1608 1.35961,-0.3899 2.01061,-0.71438c-0.10808,-0.24224 -0.16091,-0.55834 -0.13751,-0.96059c0.06292,-1.08178 2.75653,-2.90399 3.58631,-3.64162c1.18889,-1.05685 2.61286,-2.07671 3.63516,-3.29852c2.20665,-2.63729 3.25067,-5.98163 7.20932,-3.13911c0.79416,0.76634 2.53363,1.69286 2.99802,2.69754c1.17876,2.55015 -1.69312,4.74039 -3.48783,5.84525c-4.83856,2.9787 -9.84918,4.71143 -15.52994,4.71143c-0.27778,0 -0.55556,0 -0.83333,0h-0.16667c0,0 -0.21158,0 -0.40998,-0.11238z" fill="#ff2d32" stroke="none" stroke-linecap="butt"/><path d="M191.34469,263.65533l-0.6357,-0.40629c0,0 -0.10731,-0.07154 -0.20327,-0.19979c-1.67315,-0.69703 -3.34995,-2.40437 -3.35491,-4.11155c-0.00045,-0.15626 1.00524,-2.7945 1.10425,-3.05767c1.9845,-5.27493 5.27399,-8.9998 9.59815,-12.59368c2.64736,-2.19794 5.51965,-3.95712 8.28587,-5.98645c1.70288,-1.24926 3.29186,-3.04603 5.10949,-4.07357c2.76299,-1.56197 5.88458,-2.7332 8.5,-4.5c2.77104,-1.33763 6.2892,-0.32027 9.30254,-0.59767c4.36502,-0.40183 8.40589,-0.50365 12.8239,-0.50365c2.36639,0.08649 3.61634,2.49875 5.0571,4.12284c3.27601,3.69289 6.29522,9.0731 6.85396,14.03516c0.13013,1.15569 0.33616,2.89917 -0.25799,3.94633c-0.09772,0.17223 -2.35708,1.99811 -2.56818,2.17072c-9.75016,4.44025 -19.51145,5.84077 -30.10529,6.86713c-3.86908,0.37485 -7.40225,1.51283 -11.19011,2.23961c-5.43004,1.04186 -11.39102,1.17671 -16.36624,3.59793l-0.77349,0.01699c-0.20421,0.0518 -0.37625,-0.00266 -0.50586,-0.08132c-0.13697,-0.06403 -0.27731,-0.17652 -0.34768,-0.37413c-0.10885,-0.17031 -0.2177,-0.34062 -0.32655,-0.51093z" fill="#ab164a" stroke="none" stroke-linecap="butt"/><path d="M256.54299,270.49517c-1.66346,-1.23753 -3.64576,-3.07958 -4.33955,-5.01324c-1.14041,-3.17842 0.96883,-5.24419 1.6564,-8.09617c0.55803,-2.31466 0.70797,-4.99742 0.20241,-7.31987c-1.836,-2.96565 -6.2424,-3.89289 -9.6341,-5.17041c-0.82789,-0.31183 -1.84126,-0.16641 -2.56773,-0.67128c-3.90461,-2.71355 -1.12049,-8.34159 2.33461,-9.52403c3.65567,-1.02354 10.04504,-0.99963 13.84179,-0.35715c1.3,0.21999 1.21742,-2.17833 5.30321,-4.52881c2.58193,-1.48533 9.83177,-3.40206 10.62681,-3.19885c2.65018,0.67737 -1.83882,10.36004 0.86991,10.38465c7.40665,-0.00004 10.76755,-1.96609 17.61861,-4.59647c1.5101,-0.57978 5.11764,-1.28666 5.92418,-2.746c0.59729,-3.94971 3.01943,-4.7929 6.58367,-5.31452c1.03836,-0.15196 1.75097,-1.13411 2.90715,-0.61926c2.60615,1.16052 2.48223,5.23652 0.7232,6.90929c-1.26136,1.19951 -2.84577,2.27651 -4.21205,3.37221c-0.61183,0.47191 -1.47098,0.60338 -2.00692,1.15996c-0.40413,0.4197 0.27893,1.13821 0.51894,1.66912c0.76881,1.70068 2.93639,1.58868 4.35672,2.24392c3.68193,1.69859 10.0492,7.40573 8.87987,11.73639c-1.19631,3.28725 -1.40095,7.49421 -4.00573,10.12142c-1.85307,1.86903 -4.25167,1.86966 -6.70233,2.25658c-4.02459,0.63542 -7.89229,1.29766 -11.96817,1.49018c-10.09161,0.47667 -21.42144,0.11644 -30.36948,5.03873c-1.82835,0.88817 -3.43155,1.93678 -5.50106,1.9451l-0.66874,-0.24585c0,0 -0.6171,-0.30855 -0.37161,-0.92565z" fill="#ff2d32" stroke="none" stroke-linecap="butt"/><path d="M219.76777,211.6992c0.01561,-0.01729 0.02467,-0.02635 0.02467,-0.02635l0.05885,0.00313c0.00052,-0.00013 0.00105,-0.00026 0.00157,-0.00039c3.21721,-5.28836 9.30639,-6.1228 15.06036,-5.86945c11.46511,0.50482 23.30776,1.25842 34.53776,3.6409c1.23249,0.52798 4.70053,1.95749 5.14824,2.56947c0.53544,0.73189 -0.00844,1.81883 -0.1308,2.71738c-0.74256,5.45316 -4.54856,8.69756 -9.2648,11.07228c-4.364,2.19736 -11.93551,1.99543 -16.57622,0.80992c-3.68479,-0.94132 -6.05383,-2.38334 -9.94564,-2.38696c-0.92104,0.14279 -1.96596,-0.00708 -2.75227,0.49334c-3.07912,1.95958 -3.13275,7.62944 -7.92282,7.65384c-2.60336,0.01326 -3.74712,-2.65729 -4.65532,-4.57911c-1.06807,-2.26011 -1.00827,-4.76897 -1.53582,-7.17537c-0.55338,-2.52422 -1.88115,-4.51832 -3.01836,-6.78894c0,0 -0.67082,-1.34164 0.67082,-2.01246c0.10395,-0.05198 0.20388,-0.09187 0.29977,-0.12124z" fill="#0f1b82" stroke="none" stroke-linecap="butt"/><path d="M273.9632,221.982c0.25423,-0.39341 0.64765,-0.59012 0.64765,-0.59012l0.54445,-0.2435c1.39707,-0.3896 2.87791,-0.36904 4.30834,-0.60873c1.69592,-0.28418 3.21249,-1.24764 4.87474,-1.68787c3.63565,-0.96287 7.83223,-1.62574 11.58269,-1.47385c2.86343,0.11597 7.46846,2.80331 6.53338,6.42029c-0.4478,1.73213 -3.03215,3.29816 -4.29033,4.45875c-1.60772,1.48302 -2.38457,3.84071 -3.35724,5.7499c-2.32301,2.6088 -5.44842,7.11296 -8.74612,8.51361c-3.37393,1.43302 -5.31941,-1.65215 -6.87972,-3.94807c-0.90181,-1.32697 -2.1255,-2.43165 -2.92405,-3.8232c-0.92742,-1.61613 -0.93204,-3.65217 -1.53439,-5.37853c-0.67392,-1.9315 -1.46767,-3.57638 -1.90763,-5.60857c0,0 -0.3137,-1.46392 1.14824,-1.7801z" fill="#0f1b82" stroke="none" stroke-linecap="butt"/><path d="M219.28166,212.87637c0,0 2.83257,7.09321 3.32945,8.9099c0.83919,3.06831 2.5277,8.0901 2.5277,8.0901l-6.85714,-7.85714l-7.42857,-1l-6,0.85714l-5.42857,0.85714l2.42857,-9.71429l2.71429,-4.14286l8,2l6,3z" fill="#0066cc" stroke="#0066cc" stroke-linecap="round"/><path d="M278.56737,208.4478l18,5l3,5.28571c0,0 -11.10562,15.05826 -14.29553,15.52485c-1.91523,0.22428 -10.99018,-9.09627 -10.99018,-9.09627l-10.14286,4.14285l-5.28572,3.57143l-0.14285,4.28572l-11.42857,-3.14286l-2.42857,-4.71428l-7.57143,-6.28572c0,0 9.89465,3.76659 18.57568,2.02914c11.2374,-2.24908 15.71004,-7.02914 15.71004,-7.02914z" fill="#0066cc" stroke="#0066cc" stroke-linecap="round"/><path d="M269.63881,195.59066c0,-1.5 1.5,-1.5 1.5,-1.5l0.58954,0.00866c4.96379,0.54305 10.30901,2.14226 14.9853,3.89062c1.06709,0.42412 2.26071,0.61366 3.2013,1.27234c2.62739,1.8399 1.84309,5.8051 2.84892,8.36726c0.86679,2.20797 3.8049,1.49245 3.58435,4.79631c-0.12966,1.94239 -2.39943,3.17157 -3.95434,3.50011c-1.64071,0.34667 -2.58246,-0.33326 -3.92588,-0.99365c-3.03132,-1.49011 -5.83132,-3.80017 -9.10629,-4.59069c-1.337,0.90427 -2.62873,1.85852 -3.92106,2.82637c-0.16641,0.19404 -0.41237,0.35848 -0.77386,0.44534c-0.26412,0.08211 -0.6019,0.11977 -0.94475,-0.02415c-0.34929,-0.12751 -0.57142,-0.38472 -0.70932,-0.62449c-0.20669,-0.31034 -0.27509,-0.59892 -0.26475,-0.85491l-0.23968,-1.32718c-0.34885,-4.50884 -0.15615,-9.0651 -0.15519,-13.5868c-0.31716,-0.04242 -0.63283,-0.08044 -0.94667,-0.1138l-0.26761,0.00866c0,0 -1.5,0 -1.5,-1.5z" fill="#fddfbd" stroke="none" stroke-linecap="butt"/><path d="M276.71024,189.87637l14.57143,8.85714v4.85715c0,0 -2.38779,1.10509 -8.49442,-1.57684c-6.26164,-2.75 -10.07701,-7.2803 -10.07701,-7.2803z" fill="#f89587" stroke="#f89587" stroke-linecap="round"/><path d="M246.3214,172.8669c3.45069,-2.87502 8.03181,-5.72989 12.34308,-7.12783c2.7493,-0.89148 6.33943,-0.36392 9.18863,-0.36269c3.36543,0.00145 8.36341,-0.13535 11.37032,1.57963c4.54196,2.59049 1.3298,5.2112 -1.84976,6.51489c-1.83355,0.26755 -3.65676,0.3871 -5.47613,0.45027c-0.11885,0.68697 -0.60633,0.97041 -0.98835,1.08736c-3.09692,2.35589 -6.68248,1.79601 -10.48312,1.80292c-4.12376,0.00751 -7.9642,0.19909 -11.85009,-0.30166c-0.04303,0.00886 -0.08605,0.0177 -0.12905,0.02654l0.00702,0.35119l-2.99449,0.05989c-0.01161,0.00027 -0.02324,0.0004 -0.03491,0.0004c-0.82843,0 -1.5,-0.67157 -1.5,-1.5c0,-0.78363 0.6009,-1.42691 1.36706,-1.49419l0.46193,-0.04626c0.06242,-0.61925 0.56787,-1.04046 0.56787,-1.04046z" fill="#f89587" stroke="none" stroke-linecap="butt"/><path d="M246.11601,183.81412l0.73308,0.03113c2.35308,-1.27821 4.7318,-2.35916 7.082,-3.67196c1.88045,-1.05041 4.0036,-2.84021 6.17036,-3.28339c4.68917,-0.95909 9.60883,-0.83044 14.30804,-1.76878c3.68153,-0.73513 6.91872,-2.08 10.69197,-2.63854c2.00146,-0.29063 5.70672,-1.19501 7.45051,0.45325c0.67734,0.64022 -0.2309,1.853 -0.44036,2.76118c-0.44446,1.92706 -0.94742,4.14156 -0.25775,6.153c0.72546,2.11584 1.88077,5.15671 2.99256,7.0999c0.7668,1.34021 1.8596,1.96761 2.05609,3.95617c0.69434,7.02694 -9.34908,5.09544 -13.26673,3.18126c-3.00569,-1.36899 -5.70661,-2.91255 -8.05995,-5.16867c-0.11691,-0.11208 0.22629,0.27475 0.21392,0.43623c-0.03584,0.46783 -0.2224,0.91191 -0.35176,1.36292c-0.61412,2.14117 -1.02875,3.95142 -1.39131,6.12106c-0.82305,4.92535 -0.00937,9.67418 0.01998,14.58284c0.07524,0.46517 -0.0661,0.8103 -0.26576,1.05802c-0.1719,0.26779 -0.45467,0.51105 -0.91989,0.58673l-0.34755,0.11419c-2.29498,0.61803 -4.28371,1.82706 -6.69953,2.04774c-2.0684,0.18894 -3.72187,-0.11574 -5.74059,0.55717c-11.57861,0.10692 -24.25699,0.9436 -34.56408,-5.04011c-3.32675,-1.93132 -5.97474,-3.42543 -7.96478,-6.84938c-0.06239,-0.95325 -0.32811,-1.91491 -0.18716,-2.85973c0.59532,-3.99062 5.61759,-5.76306 8.58891,-7.46247c2.29864,-1.31467 4.13561,-3.34009 6.42276,-4.71095c3.97376,-2.38177 8.44242,-3.94308 12.42255,-6.28223c0,0 0.05971,-0.03483 0.16097,-0.07672c0.37109,-0.60405 1.14347,-0.68986 1.14347,-0.68986z" fill="#feebf7" stroke="none" stroke-linecap="butt"/><path d="M273.09416,203.13531l-5.25,-25l5,9.625l3,3.75z" fill="#db93e6" stroke="#db93e6" stroke-linecap="round"/><path d="M242.71916,176.63531l3.25,-3.25l6.75,2.375l7.625,0.125l6.75,-1.75l7.875,-5.25l9.625,-6.625l6.125,-0.75l2.375,2.125l2.25,4l-2.875,5.625l-48.375,13.125z" fill="#db93e6" stroke="#db93e6" stroke-linecap="round"/><path d="M274.12724,240.07415c1.23065,-1.0344 2.75199,-0.77899 4.34826,-1.00658c1.75845,-0.15921 2.73828,3.94928 4.94169,3.86211c3.50066,-0.13848 8.31166,-4.26276 10.77177,-2.89086c2.54111,1.41708 2.02939,4.74597 4.6248,5.44202c1.10171,0.4734 2.75564,0.48011 3.69694,1.23031c0.70586,0.56255 0.52803,1.72892 0.86973,2.56435c0.41737,1.02045 2.8869,0.79808 3.24127,1.85477c0.17887,0.53337 -0.09129,1.19156 -0.44696,1.62743c-0.18168,0.22264 -1.63397,0.34903 -1.96805,0.41582c-2.27229,0.45429 -4.47273,0.86967 -6.75896,1.2517c-2.61404,0.51685 -5.30073,0.31412 -7.94835,0.50973c-5.01169,0.37028 -10.96446,1.91701 -15.47645,4.17338c-1.70059,0.84864 -7.39425,4.01012 -8.78588,0.97221c-0.65234,-1.42405 1.39257,-2.89225 1.21294,-4.25684c-0.16062,-1.22023 -2.08437,-0.11729 -2.71294,-1.61816c-0.49611,-1.18458 1.01793,-2.00517 0.57403,-3.11935c-4.5491,0.42751 -2.89982,-3.79092 -1.05179,-5.78007c2.17132,-2.33713 7.56812,-5.02997 10.86797,-5.23197z" fill="#feebf7" stroke="none" stroke-linecap="butt"/><path d="M241.29286,229.8577c0,0 2.33531,1.16766 2.33531,2.33531c0,1.16765 -2.91804,1.5418 -3.23534,1.38526c-0.40792,-0.18206 -1.39417,-3.58638 0.90003,-3.72057z" fill="#000000" stroke="none" stroke-linecap="butt"/><path d="M246.98178,192.52946c1.10376,3.83423 1.98836,8.23764 3.6271,11.88699c2.53704,-1.38396 8.18804,-5.09253 9.44267,-8.79757c0.2873,-0.84841 0.34407,-1.69664 0.08013,-2.51673c-0.05798,-0.18014 -1.50038,-0.38023 -2.26654,-0.42804c-1.06286,-0.06632 -1.63319,0.04487 -2.63156,-0.12402c-1.17782,-0.19925 -0.87228,-0.94561 -2.01863,-0.92717c-3.27775,0.05271 -5.83075,0.77797 -6.23317,0.90654zM238.3489,199.08228c-2.38141,3.56911 0.04146,6.00636 3.10217,6.71876c1.79277,0.41729 3.47593,-0.16777 5.41313,-0.37314c0.42193,-0.16457 0.60907,-0.34815 1.05703,-0.54866c-1.66965,-3.69998 -2.34409,-7.27795 -3.46613,-11.15227c-1.62112,0.90911 -5.04574,3.76595 -6.1062,5.3553zM260.26813,189.69647c3.69797,1.30257 3.95298,4.12174 1.85201,7.47743c-1.80814,2.88798 -3.9284,5.7099 -7.15352,8.03444c-2.16546,1.56078 -5.30954,2.96597 -7.39248,3.75935c-2.32998,0.26821 -7.07792,-0.01195 -9.30887,-0.9486c-5.40037,-2.26732 -5.08223,-7.21805 -1.92583,-11.95577c1.66651,-2.50142 6.24946,-5.40031 12.15959,-6.63386c4.47662,-0.93435 10.74552,-0.09355 11.76911,0.267z" fill="#ff0000" stroke="none" stroke-linecap="butt"/><path d="M276.93751,239.3125c0,0 1.50605,0.10347 2.78362,0.19124c0.82413,0.05662 2.82539,3.65976 4.53819,3.77743c1.54532,0.10617 2.76284,-3.27584 4.31063,-3.1695c2.61319,0.17953 4.74256,0.32582 4.74256,0.32582c0,0 -6.96426,11.25 -9.625,11.5c-1.05663,0.09928 -10.25,-11.5 -10.25,-11.5z" fill="#db93e6" stroke="#db93e6" stroke-linecap="round"/><path d="M240.31252,245.6875l1.125,-6.25c0,0 6.25543,0.30564 9.34059,1.18054c2.16722,0.61458 6.90941,3.69446 6.90941,3.69446l-5,2.375z" fill="#ab164a" stroke="#ab164a" stroke-linecap="round"/><path d="M310.56251,226.34925v0.08825c-0.0037,2.35321 -0.97812,4.15459 -2.61925,5.80382c-2.86553,2.38352 -6.08382,3.91539 -9.24005,5.83638c-1.00752,0.61321 -3.41361,2.37658 -4.59789,2.35858c-3.6219,-0.05505 -1.50269,-4.59794 -0.29301,-5.80762c4.52462,-3.62345 10.37711,-6.84589 15.70475,-9.13051c0,0 0.68936,-0.29544 0.9848,0.39392c0.07634,0.17813 0.08693,0.32997 0.06064,0.45719z" fill="#ab164a" stroke="none" stroke-linecap="butt"/><path d="M184.91307,240.15974l0.08463,-0.21159c2.94445,-3.30436 8.16821,1.10565 10.87138,3.03699c0.75237,0.60285 2.11071,1.54885 2.422,2.51661c0.56968,1.77105 -0.21995,4.38047 -2.5467,3.81153c-1.85382,-0.4533 -2.34696,-2.42536 -3.76622,-3.45484c-2.22756,-1.6158 -5.0657,-2.86966 -7.44734,-4.29865c0,0 -0.64312,-0.38587 -0.25725,-1.02899c0.18692,-0.31153 0.4342,-0.38161 0.6395,-0.37106z" fill="#feebf7" stroke="none" stroke-linecap="butt"/><path d="M192.3225,239.03883c-0.03007,0.22721 -0.15679,0.54112 -0.61586,0.61763c-0.7398,0.1233 -0.86309,-0.6165 -0.86309,-0.6165l-0.17432,-1.06144c0.01908,-2.71816 1.85473,-3.35563 4.2701,-2.55265c3.49691,1.16253 7.64807,3.60653 10.20286,6.15727c1.9281,2.56578 0.48961,6.08101 -3.05908,4.50526c-3.48069,-1.54555 -6.98898,-4.37004 -9.76061,-7.04957z" fill="#feebf7" stroke="none" stroke-linecap="butt"/><path d="M201.29795,237.06974c-0.18957,0.09693 -0.38129,0.09693 -0.38129,0.09693l-0.61667,-0.15c-1.94988,-1.58761 -1.5247,-4.62711 1.1415,-5.1698c3.25817,-0.66318 6.07713,0.83579 9.19644,1.7566c3.30536,1.52553 5.37763,7.02345 0.82327,7.39521c-3.55112,0.28986 -7.01196,-2.16173 -10.16326,-3.92894z" fill="#feebf7" stroke="none" stroke-linecap="butt"/><path d="M186.75002,261.83333c0.24092,0 0.40445,0.07739 0.51545,0.18245c0.17841,0.00546 0.35681,0.01093 0.53522,0.01639c2.5984,1.67583 4.74634,8.02146 0.47516,9.27603c-1.86014,0.54638 -5.03252,0.12962 -6.87329,-0.33032c-3.21382,-0.80302 -6.73766,-0.84327 -10.03292,-1.50898c-3.05588,-1.2141 -6.61965,-2.80372 -8.29624,-5.89534c-1.70677,-3.14728 0.77304,-7.07579 3.63841,-8.31407c0.19977,-0.12644 0.38786,-0.12743 0.54166,-0.08306c0.16397,0.02831 0.33986,0.11687 0.46557,0.33556l0.41647,0.51465c0.50998,1.25278 0.87048,2.94042 2.05303,3.78159c1.23783,0.88049 3.53526,0.8234 4.99444,1.03175c3.66459,0.52324 7.57762,0.39379 11.22658,1.05926c0.09151,-0.04089 0.20347,-0.06591 0.34044,-0.06591z" fill="#feebf7" stroke="none" stroke-linecap="butt"/><path d="M276.81251,277.6875c-7.997,0 -13.86167,-2.75195 -20.5121,-6.09554c-0.00892,0.0275 -0.01771,0.05507 -0.02638,0.08271c0,0 -0.23717,0.71151 -0.94868,0.47434c-0.71151,-0.23717 -0.47434,-0.94868 -0.47434,-0.94868c0.03343,-0.09621 0.06803,-0.19169 0.10378,-0.28645c-0.5278,-0.26614 -1.06157,-0.53501 -1.60268,-0.80556c0,0 -0.67082,-0.33541 -0.33541,-1.00623c0.33541,-0.67082 1.00623,-0.33541 1.00623,-0.33541c0.52395,0.26197 1.04058,0.5225 1.55127,0.78059c3.05972,-5.74192 10.58629,-8.51356 16.32996,-10.26402c3.56825,-1.07881 3.38428,-0.80007 6.76661,-2.33666c4.46716,-2.02942 3.14434,-0.52466 7.97939,-1.00816c0.33162,-0.00039 18.62069,-2.37593 18.62069,-2.37593c3.45308,0.00002 0.4706,-3.55582 3.322,-1.28033c0.85254,1.0544 2.6349,3.37628 3.83347,4.8267c1.58319,-3.05028 1.49165,-7.75463 1.89079,-11.37919c0,0 0.08282,-0.74541 0.82824,-0.66259c0.0632,0.00702 0.12045,0.01881 0.17229,0.0345c0.61047,-0.23496 0.9157,0.3755 0.9157,0.3755c0.98495,1.96991 2.46837,3.90618 3.05672,6.02825c1.59798,5.76361 -2.09297,11.78961 -5.39178,16.19245c-3.14651,4.01951 -6.92251,6.47265 -11.64193,8.33923l-0.96277,0.14294c0,0 -0.43179,0.06168 -0.68384,-0.23831c-8.00824,0.09381 -15.72844,1.74585 -23.79723,1.74585z" fill="#ab164a" stroke="none" stroke-linecap="butt"/><path d="M273.986,230.07625c0.0352,1.17236 5.7277,7.43419 4.46407,8.31597c-0.27927,0.13929 -0.64534,0.36828 -1.06667,0.63938c-1.80421,1.16089 -4.62176,3.09383 -5.97621,2.06122c-0.64789,-0.49394 -0.13432,-3.83738 -0.09318,-4.45256c0.23166,-3.46386 0.81343,-6.55333 1.6459,-9.88467c0,0 0.1819,-0.72761 0.90951,-0.54571c0.50785,0.12696 0.02611,0.85323 0.11658,3.86637z" fill="#ab164a" stroke="none" stroke-linecap="butt"/><path d="M318.16668,248.25c0,-0.75 0.75,-0.75 0.75,-0.75h0.16667c2.32214,0.02359 4.09187,1.53514 5.86366,2.88634c1.0965,1.54504 0.71967,3.50829 0.71967,5.36366c0,5.78905 -2.99093,13.39951 -8.04022,16.81535c-6.33451,3.17256 -12.8874,5.92044 -19.66399,7.90393c-2.55022,0.74644 -4.65917,1.69108 -7.37912,1.69739c-9.11925,0 -17.53636,-0.56204 -26.49269,-2.03799c-7.54094,-1.24276 -18.04673,-6.48582 -16.24502,-15.68055c0.2786,-1.67158 0.69464,-4.51915 2.04071,-5.72845c0.81875,-0.73557 1.92324,-1.18996 2.81805,-0.05681c0.5831,0.73841 0.04022,3.28017 -0.04027,4.149c-0.24559,2.65098 0.0359,4.99776 2.41916,6.43292c7.41303,2.96521 13.63673,5.46293 21.95346,4.42333c7.3428,-0.01017 15.50625,0.18677 22.44231,-2.61746c6.30175,-2.35806 11.67594,-6.6549 16.70244,-10.96774c0.14721,-2.65582 1.36236,-5.0947 2.551,-7.4735l0.10354,-0.25942c-0.23808,-1.21203 -0.49937,-2.43457 -0.50269,-3.60001c0,0 0,-0.00063 0.00002,-0.00185c-0.09695,-0.11049 -0.16668,-0.26945 -0.16668,-0.49815z" fill="#feebf7" stroke="none" stroke-linecap="butt"/><path d="M248.41669,269.75c0,0 13.07066,16.86133 53.81477,5.39237c7.58291,-2.13449 15.23217,-8.45693 19.36723,-14.28468c3.04585,-4.29267 2.65133,-9.94103 2.65133,-9.94103c0,0 0.80965,2.54918 0.98506,4.65402c0.20793,2.49512 0.18161,9.34598 0.18161,9.34598l-7.33333,8l-19.33333,7.16667l-22.83333,2.16667l-14.83333,-2.33333l-8,-4.33333z" fill="#db93e6" stroke="#db93e6" stroke-linecap="round"/><path d="M245.14618,252.41235c1.94765,-0.81731 2.63489,-1.68501 4.21865,-3.09148c0.41224,-0.3661 1.61224,-1.38029 2.23421,-1.27146c1.63452,0.286 1.83194,1.83177 2.43624,2.99378c0.17311,0.33287 1.34957,2.26673 1.32966,2.68074c-0.05639,1.17276 -1.20461,1.96255 -1.94237,2.63497c-1.94344,1.77131 -3.57959,3.80042 -5.64258,5.47888c-4.40616,2.31336 -10.52058,1.98025 -15.38767,2.10364c-2.7847,0.07059 -5.46893,0.47347 -8.25832,0.20936l-0.72085,-0.11383c0,0 -0.59241,-0.09482 -0.63273,-0.64469c-3.66822,0.24008 -7.23474,0.92545 -10.72484,2.26898c-3.3066,1.31913 -6.29531,3.32709 -9.58239,4.6663c-3.54092,1.44263 -8.24904,1.6355 -12.02484,1.6355c0,0 -0.29094,0 -0.51041,-0.18121c-0.34631,0.0366 -0.61519,-0.23228 -0.61519,-0.23228l-0.52588,-0.52949c-0.8588,-0.6116 -3.55265,-4.08904 -4.13627,-5.00894c-0.22282,-0.35121 -0.31284,-1.86729 -0.31618,-1.96404c-0.00916,-0.26532 0.63351,1.44936 0.97697,0.77664c0.12492,-0.24468 0.21026,-1.69047 0.21026,-2.09021c0,0 0,-0.75 0.75,-0.75c0.2535,0 0.42131,0.08568 0.53241,0.19912c1.69479,-1.17795 4.57158,-0.63626 6.55095,-0.63626c4.56533,0 9.60505,0.70757 13.85998,-1.26776c4.85369,-2.11028 9.7124,-4.35026 14.73618,-6.02708l0.1205,-0.13849c0,0 0.6,-0.45 1.05,0.15c0.02957,0.03943 0.05461,0.07821 0.07558,0.11626c7.20604,-0.01724 14.89542,-0.58044 21.93891,-1.96695z" fill="#db93e6" stroke="none" stroke-linecap="butt"/><path d="M203.15281,248.14985l-0.49971,-0.65919c0,0 -0.06921,-0.09228 -0.14365,-0.24484c-0.40554,0.04573 -0.90191,-0.06374 -1.31377,-0.6521c-0.86019,-1.22885 0.36865,-2.08904 0.36865,-2.08904c0.47619,-0.33333 0.95238,-0.66667 1.42857,-1l0.68125,-0.41242c0.06714,-0.04515 0.14108,-0.08828 0.22241,-0.12895c0.43796,-0.21898 0.80444,-0.22351 1.09944,-0.13026c0.29894,0.07971 0.60569,0.28028 0.85762,0.70016c0.06698,0.11163 0.11845,0.21938 0.15661,0.32309c0.50921,1.1648 0.74831,2.46536 0.77143,3.73437v0.49322c0.06221,0.30316 0.03835,0.66518 -0.21673,1.02668c-0.13983,0.2533 -0.36989,0.4981 -0.74839,0.61796c-0.36378,0.15903 -0.69811,0.1263 -0.97015,0.02775c-0.43002,-0.10409 -0.68636,-0.36083 -0.83918,-0.62994c-0.28481,-0.3255 -0.56962,-0.65099 -0.85442,-0.97649z" fill="#db93e6" stroke="none" stroke-linecap="butt"/><path d="M213.46799,236.10616c0.37461,-0.1873 0.69692,-0.21771 0.96693,-0.16424c0.27016,0.05274 0.55696,0.20292 0.83275,0.51812c0.17045,0.1948 0.27788,0.38541 0.33895,0.56746c0.51315,1.00626 1.28057,2.41413 1.17314,3.49596c-0.15263,1.53703 -1.33136,3.96352 -3.17496,4.24627c-1.98147,0.30389 -4.19743,-0.7674 -4.26009,-2.93373c-0.27936,-0.1241 -0.54804,-0.36647 -0.73337,-0.81127c-0.57692,-1.38462 0.80769,-1.96154 0.80769,-1.96154c0.95239,-0.37663 1.84078,-0.97396 2.55215,-1.71075l0.96381,-0.84424c0.12583,-0.14732 0.29874,-0.2849 0.533,-0.40203z" fill="#db93e6" stroke="none" stroke-linecap="butt"/><path d="M200.06739,250.73352c0,0.80434 -0.63309,1.46082 -1.42815,1.49831c-0.19495,0.09268 -0.41305,0.14455 -0.64327,0.14455c-0.82843,0 -1.5,-0.67157 -1.5,-1.5c0,-0.11462 0.01286,-0.22624 0.03721,-0.33349l-0.71409,-0.4138c-0.38568,0.14241 -1.29888,0.34088 -1.85424,-0.67729c-0.71828,-1.31684 0.59857,-2.03512 0.59857,-2.03512c0.52381,-0.28571 1.04762,-0.57143 1.57143,-0.85714l0.61334,-0.30773c0.00184,-0.00093 0.00369,-0.00185 0.00554,-0.00278c0.46595,-0.23297 0.85098,-0.22321 1.15511,-0.11122c0.3105,0.09288 0.62438,0.3161 0.85735,0.78204c0.04117,0.08233 0.07475,0.16214 0.10154,0.23941c0.36578,0.78718 0.99881,1.54217 0.8946,2.38596c-0.00944,0.07643 -0.02597,0.14989 -0.04862,0.22077c0.22068,0.26119 0.3537,0.59882 0.3537,0.96752z" fill="#db93e6" stroke="none" stroke-linecap="butt"/><path d="M200.47827,236.09065c2.88157,0.25897 5.04646,1.73301 6.72965,2.70855c2.32874,1.34968 5.24262,7.44185 7.57147,3.04386c1.54126,-2.45248 -0.38975,-4.98769 -2.63752,-6.35166c-0.69977,-0.42462 -8.59553,-2.16242 -9.67383,-2.14817c-3.47074,0.04585 -2.46935,2.58946 -1.98977,2.74742zM213.20821,233.79938c1.47271,0.89867 4.61627,3.96661 4.98749,6.31166c0.35596,2.24868 -2.33989,4.78006 -2.51814,4.99309c-3.61137,4.31585 -6.12604,-1.73354 -8.86872,-3.27922c-0.87322,-0.49212 -1.87472,-1.53581 -2.80384,-1.79684c1.91007,1.68044 3.09138,3.01897 3.81875,4.68542c0.76348,1.74918 0.07258,4.44963 -1.77493,6.33345c-0.36123,0.16866 -0.97343,0.47004 -1.56378,0.08429c-1.38214,-0.90313 -3.01792,-3.33194 -3.71167,-3.97434c-0.56095,-0.51943 -1.12635,-1.04628 -1.69855,-1.5725c1.27725,1.92102 2.13203,3.96727 1.64287,6.55452c-0.32958,0.90704 -1.53095,1.49169 -2.66204,1.58696c-0.75138,0.06328 -1.47174,-0.13596 -1.88491,-0.43115c-2.41957,-1.7287 -3.7553,-4.32578 -5.52574,-6.6347c-0.88508,-1.15427 -3.09225,-3.44522 -4.5488,-4.0556c-5.08009,2.15301 -12.70211,5.28125 -14.81262,7.87022c-0.93359,1.14524 -1.24014,4.12888 -0.60947,5.65501c0.34075,0.82456 1.1326,0.99196 1.81853,1.50907c3.38872,1.91613 24.55822,4.00524 29.82923,2.96773c2.65641,-0.52287 3.6552,-1.57886 6.25647,-2.36623l0.51995,-0.21331c0,0 0.21187,-0.08475 0.49078,-0.0913c1.42449,-0.7797 4.05094,-1.64427 5.716,-2.33111c2.1343,-0.8804 3.33202,-1.52726 5.24908,-1.95226c3.25729,-0.72212 5.61537,-0.48469 9.12558,-0.83267c3.87859,-0.38449 14.78973,-1.35186 16.32092,-2.34336c1.43703,-0.93053 2.70153,-2.87233 2.70153,-2.87233c-2.51003,0.41133 -4.59147,-0.01568 -6.75839,-0.01568c-0.64618,-0.04719 -1.37182,0.17245 -1.93854,-0.14156c-0.13786,-0.07638 -0.2516,-0.19452 -0.34459,-0.3459c-0.22516,-0.10128 -0.44396,-0.2188 -0.6547,-0.33717c-0.23246,-2.3748 -0.19201,-4.06592 0.42407,-5.8996c0.20069,-1.06095 1.13068,-3.21758 2.35995,-5.08295c0.06366,-0.20319 -1.68426,-0.16216 -1.28569,-0.35176c0.30202,-0.14367 2.30046,-0.81924 2.72508,-0.87772c0.3407,-0.20925 0.71443,-0.38238 1.12453,-0.50956c0.4636,-0.14377 0.96008,-0.2481 1.48016,-0.31874c-1.97943,-2.38207 -4.09314,-6.88431 -8.54006,-8.28295c-0.31638,-0.09951 -1.44472,-0.19106 -2.05912,0.39111c-0.77351,0.73291 -1.10469,2.26776 -2.16023,3.20997c-2.55389,2.27966 -4.20136,3.89143 -4.73045,3.88879c-0.00432,0.14008 -0.24599,2.51515 -1.47684,3.19566c-2.75741,1.52449 -7.92189,1.85117 -8.3645,1.32004c-0.38877,-0.46651 3.40544,-2.03587 5.47797,-3.24344c1.34035,-0.78096 1.27308,-1.35771 1.20404,-1.56509c-0.01173,-0.02916 -0.02191,-0.05794 -0.03074,-0.08594c-0.00216,-0.00564 -0.00435,-0.01128 -0.00656,-0.0169c0,0 -0.00449,-0.01346 -0.01079,-0.03772c-1.63809,-2.55864 -4.26619,-7.57176 -9.54988,-9.42454c-4.50012,-1.57801 -11.7161,-0.24566 -13.37449,0.18582c-3.85618,1.0033 -6.53746,2.57372 -2.92917,6.57963c0.25029,0.25014 0.50059,0.50027 0.75089,0.7504l0.59914,0.45621c0,0 0.05876,0.0457 0.13175,0.1282c0.13971,0.00106 4.04245,0.14912 6.29918,0.47089c2.89844,0.41326 4.43492,1.11308 6.14402,2.15599zM191.90827,237.61979c3.78924,2.05529 5.42701,2.90539 8.55733,5.81965c0.09354,0.08708 3.91719,5.73504 5.169,5.27662c1.47689,-4.43434 -4.59562,-9.08196 -8.02311,-11.0982c-2.36116,-1.38896 -4.81143,-3.13371 -5.70323,0.00192zM189.6199,235.38089c0.64658,-1.17146 1.20452,-1.77103 2.7942,-2.18769c1.0814,-0.28343 3.17749,-0.48223 4.01138,-0.71883c0.94652,-0.26855 0.73949,-1.17743 0.65684,-1.26014c-0.54021,-0.60067 -0.39404,-1.22904 -0.82538,-1.91382c-3.20811,-2.48051 -0.67771,-5.00994 0.31315,-5.98807c0.59822,-0.59053 1.85412,-0.92995 1.85412,-0.92995c0.38263,-2.30169 0.81068,-5.15815 1.54999,-7.3749c0.77229,-2.00795 1.74653,-5.66927 3.5104,-7.08893c1.12008,-0.9015 2.29423,-0.66921 3.53597,-0.51225c3.79986,0.48032 7.9656,3.01964 11.32911,4.85182l0.17107,-0.21994c0.36473,-0.48183 0.67883,-1.00384 0.95183,-1.5434c-1.19772,-1.26155 -4.93207,-6.03501 -4.47333,-7.99104c0.81612,-3.47987 12.11736,-10.24088 14.8778,-11.89735c3.89803,-2.3391 8.55437,-4.33361 12.46424,-6.53174c-0.20287,-1.72555 -1.07876,-3.81594 -1.09126,-5.67468c0,0 -0.62195,-2.01941 0.69511,-3.99929c1.23702,-1.85957 4.87603,-4.52981 6.09615,-5.4691c5.04867,-3.88663 15.23097,-5.88161 21.50874,-5.88161c2.46839,0 7.36252,0.96466 7.58551,1.11283c1.72449,-1.40896 4.94561,-3.21608 8.69434,-3.87687c2.02127,-0.35629 5.34852,-0.02467 6.07038,0.08018c4.34673,0.63141 5.35691,4.5857 4.19291,8.40657c-0.27799,0.91253 -3.98884,6.31841 -3.58871,10.57633c0.4284,4.55874 5.3486,12.98177 5.44044,16.16378c0.07452,0.29269 0.0073,0.56067 -0.08846,0.76618c-0.08317,0.22832 -0.24026,0.48417 -0.53693,0.6362l-0.46046,0.40283c-1.27484,0.63742 -2.38124,1.29725 -3.71542,1.59015c-0.00257,0.04352 -0.00616,0.06859 -0.00616,0.06859c-0.60906,4.19232 -0.26416,6.58975 2.33865,9.84235l0.42281,0.19586c0.23147,0.07789 0.43265,0.2217 0.58122,0.40912c0.1046,0.12224 0.2063,0.28048 0.25935,0.4712c0.61054,0.32943 0.61054,1.10469 0.61054,1.10469c0,0.46667 0,0.93333 0,1.4l-0.08192,0.38076c0.08567,0.0688 0.16705,0.15606 0.24067,0.26589l0.63131,0.65997c1.74077,2.62017 3.44734,5.3449 5.00987,8.09831c0.14718,-0.10818 0.40432,-0.25916 0.71357,-0.27938l1.10363,-0.2683c2.81982,-0.69349 3.66884,0.16185 4.88185,2.29575c1.84579,3.24708 2.3025,4.96871 1.1928,7.13257c-1.28702,2.50961 -4.59234,4.41687 -7.10603,6.13385c4.41629,1.68682 7.22162,3.41047 11.00158,6.68035l3.32781,2.11356c2.1227,1.06074 5.69561,3.21084 7.81872,4.27239c0.3528,0.09371 0.56085,0.31295 0.68354,0.53893c0.14725,0.2108 0.2503,0.49493 0.17634,0.85239c0,3.64952 0,7.41574 0,11.06116c0,1.45108 0.25878,3.24315 -0.35066,4.61644c-1.84228,4.15141 -8.35283,7.70775 -12.30183,9.2908c-8.64337,3.59956 -17.37437,7.04262 -26.74887,7.43271c-18.73179,0.51232 -23.50231,-1.46882 -25.30522,-2.12192c-4.6549,-1.15876 -10.00798,-3.9183 -13.55231,-7.45916c-2.60543,-2.60287 -2.98083,-7.30664 -2.25506,-11.19193c-2.15142,0.91906 -4.4515,1.03321 -6.89182,1.27729c-0.40523,0.04053 -0.81002,0.08026 -1.21445,0.11906c-6.23392,1.39906 -13.19377,2.1174 -19.48828,1.75116c-0.23677,0.44632 -0.794,0.50445 -0.794,0.50445l-1.40238,0.14553c-3.30497,0.61014 -5.83096,1.5709 -10.20086,3.07297c-3.49961,2.17795 -6.06791,2.82796 -10.51333,3.31624c-6.35259,0.69777 -13.46953,0.40594 -19.45036,-0.98119c-1.86598,-0.43277 -2.64793,-0.8217 -4.30468,-1.31857c-2.52338,-0.77603 -5.7746,-1.25308 -7.80833,-3.46805c-0.63824,-0.69511 -1.88261,-3.43712 -2.40816,-4.59612c-0.7568,-1.66898 -0.60862,-1.90985 0.05259,-3.6535c0.38679,-1.01998 1.59708,-2.35183 2.21075,-3.29508c0.77032,-1.18403 1.75826,-2.18697 2.82021,-3.10108c0,0 0.31615,-0.90914 0.88143,-1.86498c0.44102,-0.74573 1.10485,-1.51989 1.42332,-1.91289c2.93847,-3.62616 12.71514,-8.83181 12.71514,-8.83181c0,0 -0.07514,-2.2252 1.96155,-3.36513c0.96422,-0.53967 2.30094,-0.30927 4.37831,-0.36978c0.86594,-0.02523 1.15718,-0.81779 1.22342,-0.95277zM185.65352,240.18994c4.99712,1.97897 6.55255,4.53491 9.9752,8.52688c0.67593,0.78835 3.07782,4.20904 3.61477,2.10172c0.01928,-1.57594 -0.9468,-2.48488 -1.82263,-3.69746c-1.64352,-2.27543 -4.0045,-5.33785 -6.53775,-7.04721c-0.02328,0.00377 -1.78677,-1.15755 -2.74923,-1.15226c-1.68518,0.00926 -2.48036,1.26832 -2.48036,1.26832zM304.68591,249.07051c2.58999,0.97232 4.9237,4.03731 1.0361,5.2823c-4.23525,1.35632 -8.92604,0.64851 -13.23803,1.52267c-5.73169,0.4804 -11.48915,1.50208 -17.03465,3.18713c-2.27359,0.69085 -7.57954,3.71731 -10.86893,2.40375c-1.50767,-0.60206 0.46236,-4.70246 0.64855,-5.11222c-0.20909,-0.02378 -0.93273,0.46701 -1.50275,0.51503c-3.28271,0.27654 -1.02169,-3.67338 -0.0913,-5.06044c-1.6706,0.0189 -3.27794,1.07706 -3.96573,-0.99842c0.27579,-1.17543 0.67708,-2.63165 1.44506,-3.9476c0.62622,-1.07304 1.56328,-2.05281 2.32506,-2.71105c-0.28658,-0.13476 -0.45257,-0.38375 -0.45257,-0.38375l-0.5362,-0.80856c-0.7824,-1.37345 -1.77451,-2.38003 -2.31079,-3.87436l-0.09404,-0.21222c-3.96323,-1.55871 -9.26647,-3.17943 -13.35192,-3.15957c0,0 -0.47086,0.00001 -0.8346,-0.28898c-2.82546,0.85585 -4.18555,3.23424 -4.67508,6.15913c-0.17776,1.06212 -0.66179,2.93996 -0.30514,3.90649c0.10879,-0.02663 0.18982,-0.02663 0.18982,-0.02663h0.625c0.34951,0 0.69772,-0.00566 1.04483,-0.01599c-0.07715,-0.3212 -0.02056,-0.60415 -0.02056,-0.60415c0.58651,-2.14449 0.79817,-2.97188 4.22573,-2.55031c3.09605,-0.25149 2.78591,2.14744 2.28954,2.64721c1.43571,-0.12687 5.52659,-0.08331 5.08546,0.52324c-0.54546,0.75 -1.25627,0.75302 -1.50862,0.75867c-0.05537,0.02814 -0.11135,0.05571 -0.16789,0.08272c1.18075,2.11461 2.39192,4.44576 3.23784,6.6825l0.06925,0.20666c0.12288,0.19953 0.13848,0.4142 0.11825,0.59044c-0.00419,0.15164 -0.03828,0.3274 -0.14178,0.48779c0.03163,0.2062 0.00183,0.37011 0.00183,0.37011c-0.42329,2.32634 -0.91062,3.88516 -2.45329,5.69693c-0.21066,1.80635 -0.38909,3.84235 0.14267,5.31792c0.55166,1.53075 2.20169,2.22344 3.47336,2.98649c3.69181,2.21524 7.89954,2.82057 12.07287,3.71418c6.16992,0.87873 12.06544,0.81142 18.14362,-0.49167l0.51191,-0.02775c0,0 0.05732,0 0.1474,0.01227l0.6238,-0.13295c5.85015,-0.48749 12.38252,-2.40607 17.56338,-5.18748c5.08647,-3.71149 12.77806,-8.34598 10.70701,-15.87213c-0.1484,-0.53928 -2.87718,-4.61278 -6.07899,-7.25952c-3.65827,-3.02406 -8.01736,-4.6576 -11.29309,-5.2022c0,0 -1.23299,0.43086 -1.02749,-0.80213c0.2055,-1.23299 3.79656,-2.92246 4.69682,-3.50468c-0.59203,-0.09848 -0.58883,-0.43122 -0.58883,-1.05119c0,-0.22846 0.06129,-0.44261 0.16833,-0.6269l0.61397,-1.10515l0.04014,0.0223l0.03012,-0.13437c1.31128,-1.50691 3.43658,-4.15496 4.99992,-0.83362c0.16096,-0.21864 0.30354,-0.44177 0.42449,-0.66962c1.36384,-2.56936 -0.79136,-6.10057 -3.78363,-5.3236c-0.02351,0.0061 -2.43989,1.68359 -3.74222,2.91306c-1.72002,1.62379 -2.51174,3.00741 -3.30622,4.07368c-2.55899,3.4344 -3.00653,4.7782 -5.41473,7.16259c2.68625,0.44223 4.65118,1.77308 5.80656,4.8426l0.06367,0.97612c0,0 0,0.08126 -0.02317,0.19746c0.09127,0.0378 2.74347,0.68114 3.17873,0.91464c2.32581,1.2477 3.06117,3.82311 3.06117,3.82311zM275.039,257.158c5.65248,-1.72045 11.32111,-2.77907 17.16535,-3.26288c3.14302,-0.62058 6.46475,-0.52209 9.65438,-0.8787c0.65103,-0.07279 3.54981,-0.1655 3.86784,-0.55086c0.31095,-0.37679 -2.22758,-2.10496 -4.29444,-1.94684c-7.38004,0.56459 -19.31695,1.80099 -22.87052,2.34486c-2.04253,0.3126 -8.53217,1.6999 -11.43188,3.6313c-1.43923,0.95862 -1.33751,3.20494 -1.35233,3.62952c3.01668,-0.29109 6.33491,-2.0756 9.26162,-2.96641zM287.39632,242.99135c3.09142,-0.03423 5.52222,-0.24326 8.57324,0.50534c-1.12324,-2.84305 -3.13719,-2.6916 -5.95889,-2.75579c-1.09472,0.94944 -1.1475,1.43086 -2.61435,2.25045zM268.41942,250.20329c-0.76214,0.53144 -4.88643,3.06726 -3.6663,3.86855c3.60349,-0.42899 12.68821,-3.04071 16.2042,-3.58496c6.57118,-1.01718 7.87293,-1.55157 14.56187,-1.55157c1.23859,0 2.65253,-0.2856 4.01398,-0.30029c0.91733,-0.0099 1.81081,0.32161 2.61077,0.12004c-0.41037,-0.80941 -1.46454,-2.68545 -3.51942,-3.23022c-2.07988,-0.55139 -9.36405,-1.2235 -15.92862,-0.27463c-6.42421,0.92858 -12.12965,3.45612 -14.27647,4.95307zM277.61949,239.79593c-3.26621,0.96898 -8.5491,3.36236 -12.08268,5.86811c-1.82067,1.29108 -3.03002,1.95092 -3.56765,3.84626c-0.13126,0.44914 3.35688,-0.64174 3.98866,-0.64975c6.27975,-3.12456 9.73505,-4.25863 15.26618,-5.39294c-1.21871,-0.97511 -2.47026,-2.14943 -3.60451,-3.67168zM218.18752,262.84659c2.7458,-0.27272 18.30476,-0.88601 22.79772,-1.72843c0.83819,-0.30005 1.79967,-0.31943 2.68073,-0.48504c1.98969,-0.67284 3.71975,-1.44193 5.24352,-3.0386c0.94049,-1.55786 1.78193,-2.86691 3.57414,-3.8177c0.233,-0.12361 0.90253,-0.66388 1.03496,-0.69051c-0.61649,-1.59376 -1.06814,-2.97974 -1.91272,-4.53956c-0.16948,0.35215 -0.47498,0.55582 -0.47498,0.55582l-0.24525,0.15066c-1.19287,1.03977 -1.10418,0.4865 -1.74793,1.09694c-0.75782,0.71859 -2.25007,2.55882 -3.93485,3.3199c-4.0291,1.10666 -11.14651,1.22205 -15.25755,1.63537c-2.77961,0.27946 -8.27675,-0.05808 -10.88348,0.42017c-1.26209,0.23155 0.14713,0.56875 -0.811,0.98955c-2.07309,0.91049 -5.3743,2.21242 -7.94315,3.68266c0,0 -6.10255,2.10179 -8.89088,2.66621c-4.72857,0.95716 -23.09821,-0.65679 -30.99026,-2.97789c-2.24669,-0.66077 -3.56073,-3.49198 -3.57167,-3.58076c-0.4862,0.4955 -0.8434,0.30165 -1.21908,0.88576c-0.57615,0.8958 -1.37917,1.45443 -1.76653,2.40947c-0.20288,0.50021 0.8426,2.45205 1.72719,3.55862c1.98129,2.4785 3.80087,4.09687 6.06345,4.79189c10.1231,3.0379 24.43755,3.69039 32.98164,-0.75625c2.6627,-1.33222 10.1807,-4.21401 13.54597,-4.54826zM232.55745,218.78696c0.34877,-0.93721 6.13673,4.19659 6.21635,4.42674c3.24138,0.77023 6.79176,4.73192 8.52107,7.33992c0.23057,0.34773 1.19191,2.02677 1.29218,3.07034c4.07162,0.18173 8.55521,1.579 10.12441,2.12269c-0.87809,-3.39893 1.32137,-5.47899 4.23333,-7.05134c0.80858,-0.7241 2.71708,-1.67147 5.13324,-2.52347c1.98503,-0.69997 5.55861,-1.44882 6.06059,-1.67604c0.83698,-0.37886 1.15183,4.56274 1.39886,5.37744c0.56624,1.86741 4.47979,8.88329 7.65966,11.88058c2.73588,-0.1419 4.84141,-2.04594 6.60888,-3.90871c2.91473,-3.07189 4.9101,-7.0346 7.29703,-10.19908c1.16715,-1.54735 2.68505,-2.81199 4.15613,-4.10506c-1.56083,-2.7934 -3.28495,-5.5761 -5.05395,-8.2301c-1.34109,0.66774 -2.58387,1.52604 -3.94617,2.20719l-0.16918,0.0846c-0.23527,0.19716 -0.5073,0.251 -0.73774,0.24964c-0.2319,0.02069 -0.51077,-0.01122 -0.76366,-0.19303c-3.8134,-1.58993 -7.23221,-4.27232 -10.79864,-6.31811l-0.43039,-0.14092c-2.56061,2.11921 -5.44605,5.02536 -8.69626,8.29316c0,0 0.08985,-1.35033 0.5321,-2.33273c0.1225,-0.27212 0.21302,-0.78239 0.24444,-0.85601c-0.99768,0.4193 -3.53991,1.30782 -5.59786,1.69653c-7.55594,1.42719 -19.33485,1.6461 -29.68022,-0.23396c-6.24409,-1.13473 -12.95517,-4.44764 -15.18154,-5.85707c-0.26263,0.4646 -0.55181,0.91469 -0.86991,1.34205l-0.67177,0.86376c-0.18171,0.27862 -0.40712,0.39313 -0.61938,0.42664c-0.20861,0.05239 -0.46114,0.03528 -0.73781,-0.15034c-2.27806,-1.26942 -7.26337,-3.39142 -10.53368,-4.20999c-1.50746,-0.37732 -2.89284,-0.1748 -3.04736,-0.02583c-1.36187,1.31301 -1.9914,3.83112 -2.64345,5.52645c-0.69418,2.08365 -1.08823,4.02947 -1.45001,6.19433c0,0 9.9507,-3.10665 13.50735,-2.52636c6.24024,1.01814 11.61155,9.79665 13.32141,12.45947c0.28528,-0.32917 3.1706,-2.65245 4.79016,-4.5469c0.49335,-0.57708 1.19913,-2.35147 1.26026,-2.45032c0.59189,-0.95716 1.37883,-1.47769 2.28695,-1.68761l-0.01539,-0.01522c0,0 -3.16165,-3.88893 -3,-4.32331zM275.67929,236.52456c-1.42392,-3.07668 -2.32524,-7.46678 -2.41822,-8.15865c-0.02451,-0.18237 -0.0307,-0.4654 -0.01919,-0.75851c-0.19072,0.1449 -1.85145,-0.09187 -2.40578,0.10205c-1.02632,0.35904 -2.36794,0.82515 -3.67302,1.2209c-3.79627,1.49817 -8.26594,3.1174 -5.96182,7.72427c0.17037,0.06504 0.33889,0.12995 0.50543,0.1946c0.32508,0.0423 1.11207,0.24715 1.11207,1.23898c0,0.54678 -0.23917,0.85439 -0.50829,1.02744c0.50337,1.00537 1.29821,1.8422 1.87653,2.85143l0.4638,0.69143c0,0 0.11948,0.17921 0.16436,0.42675c3.48518,-2.43683 8.10449,-3.944 11.65849,-5.02954c-0.27808,-0.48043 -0.54385,-0.98985 -0.79437,-1.53115zM319.2772,250.0185c2.39157,8.82382 -3.05854,13.66111 -10.15662,17.71878c-5.51768,2.97876 -14.08431,5.9517 -20.32299,6.47161l-0.95764,0.22455c0,0 -0.26969,0.05993 -0.58367,-0.00335c-6.19754,1.25417 -12.23445,1.29094 -18.53197,0.38869c-5.32448,-1.14173 -15.17717,-2.19732 -17.45378,-8.29932c-0.51135,-1.37057 -0.53533,-3.06682 -0.42,-4.73422c-0.02294,-0.51471 -0.03121,-1.03972 -0.03166,-1.57527c-1.41665,1.59471 -1.84042,3.57402 -2.14122,5.30712c0,0 -0.00673,0.03697 -0.02473,0.09528c-0.01382,0.05261 -0.03231,0.10944 -0.05706,0.16733c-0.10466,2.50072 0.28102,3.97159 1.7659,5.45871c3.24248,3.24739 7.99629,6.58871 12.24314,7.65447c1.08107,0.39434 13.26608,2.55772 25.57929,1.52948c10.4731,-0.87457 20.37745,-5.1257 24.52571,-6.85505c2.76562,-1.10366 10.6506,-7.23637 11.40272,-8.86828c0.60566,-1.31414 0.33116,-2.33024 0.33116,-3.73584c0,-3.03415 0,-6.06831 0,-9.10246c-1.82978,-0.91489 -3.65654,-1.8283 -5.48577,-2.74341c0.12643,0.29624 0.23645,0.59589 0.31919,0.90115zM293.74091,194.8547c0.12127,-0.48507 1.06788,0.09774 1.06788,0.09774l0.59361,0.1586c0.01074,0.00782 0.02148,0.01565 0.03221,0.02347c-0.19556,-2.93166 -3.46365,-8.58104 -4.80027,-12.92112c-0.8771,-2.84801 -0.42851,-5.13221 -0.30879,-5.71471c0.52461,-2.55267 2.37358,-5.66922 3.13133,-8.09638c0.30385,-0.97324 -0.5649,-4.50549 -1.56153,-5.09485c-2.1173,-1.25206 -3.97876,-0.45598 -6.32621,-0.45936c-2.42457,0.22977 -4.05102,1.60094 -5.86115,3.10569c-3.33546,2.77273 -7.15222,5.99124 -11.04167,7.96058c-0.21279,0.43696 -0.6739,0.63458 -0.6739,0.63458c-3.31916,1.41637 -8.99125,2.58816 -13.62682,2.17216c-4.44547,-0.39893 -7.92764,-2.35852 -7.92764,-2.35852c-0.23042,0.31725 -2.45071,2.38351 -2.86104,2.60198c-0.27967,0.14891 1.38788,6.16452 1.80029,8.25943c0.21579,1.09611 -0.24445,1.50358 -0.24445,1.50358c-4.06748,2.35791 -9.14143,3.75034 -13.20977,6.19102c-3.79618,2.27742 -12.55075,6.99795 -13.81234,9.78484c-0.34883,0.77056 1.82909,4.61527 5.82027,7.36864c3.89547,2.68735 9.28012,4.53179 15.0257,5.50234c7.88899,1.33263 16.3496,1.4739 22.8513,0.69952c3.08621,-0.36758 5.82788,-1.42566 7.6776,-1.76104c1.65534,-0.30014 3.61349,-0.63668 3.61349,-0.63668c-0.05813,-3.67363 -1.23741,-8.00962 -0.42208,-11.73422c0.25694,-1.17377 0.40295,-4.14642 0.76373,-6.00487c0.547,-2.81777 1.28798,-4.4729 1.28798,-4.4729c-5.16245,-7.03978 -3.72708,-7.98138 -3.72708,-7.98138c3.10897,4.68955 9.16534,11.0458 14.43595,12.51359c2.04177,0.5686 4.48612,0.46242 6.57389,0.35672c0.86782,-0.04394 1.61392,-0.35794 2.34634,-0.7364c-0.11374,-0.08885 -0.68105,-0.70524 -0.61684,-0.96205zM280.81021,209.05887c3.45632,1.96929 6.76666,4.59412 10.43979,6.16817c1.18045,-0.59937 2.26495,-1.29574 3.40636,-1.91139c-0.01405,-0.23872 0.03096,-0.41881 0.03096,-0.41881l0.16268,-0.49683c0,-0.37736 0,-0.75472 0,-1.13208c-0.03298,-0.02012 -0.06495,-0.04171 -0.09582,-0.0647l-1.23027,-0.82235c-2.93111,-3.66495 -3.49892,-6.7235 -2.92953,-11.24683c-1.94828,0.06848 -3.51802,-0.24455 -5.29343,-0.76123c-2.72411,-0.79277 -4.24474,-2.2498 -8.92145,-4.93475c-1.25781,2.97922 -1.42507,15.19332 -1.16415,18.14541c0.92289,-0.9147 1.89778,-1.78419 2.92757,-2.6177c0.21267,-0.27015 0.48886,-0.37417 0.73615,-0.40449c0.24284,-0.05712 0.53843,-0.05491 0.83175,0.12577zM274.37991,166.69854c-2.66156,-0.69468 -5.33223,-0.64853 -8.07989,-0.64853c-5.90024,0 -16.57015,3.27822 -18.73228,7.06574c3.82202,2.06798 12.15454,2.54255 18.05453,0.41834c4.93668,-1.77738 7.75798,-5.97398 8.75763,-6.83555z" fill="#000000" stroke="none" stroke-linecap="butt"/></g><g><g><path d="M343.37732,155.28493c-0.34074,0.52125 -0.79389,0.50569 -1.08731,0.41978c-0.28597,2.55125 -2.6803,4.2302 -4.7472,5.80547c-1.42568,1.08657 -3.28394,1.39841 -4.89723,1.13608c-4.19308,-0.68182 -7.4732,-1.81388 -11.35629,-3.4451c-2.24731,-1.56421 -7.93917,-3.00468 -8.35776,-6.07817c-0.40649,-2.98466 3.31801,-2.9453 5.16646,-2.96488c6.57328,-0.06963 12.65431,0.19749 19.07433,1.7906c1.77458,0.44111 3.46067,0.77107 5.15001,1.47183l0.76514,0.48021c0,0 0.83702,0.54717 0.28985,1.38419z" fill="#0f1b82" stroke="none" stroke-width="0.5" stroke-linecap="butt"/><path d="M313.51329,149.56324c0.13665,-0.76507 0.9722,-0.77261 0.9722,-0.77261l1.39994,-0.01263c2.73976,-0.02472 5.47042,0.15272 8.20147,0.12601c5.33405,-0.04813 13.93669,-1.40421 18.26195,2.26758c2.20989,1.87601 0.54554,6.03301 -1.5618,7.29277c-0.80766,0.48281 -3.10837,0.04624 -3.99448,-0.09099c-8.31285,-1.62828 -15.78584,-2.76194 -23.19937,-7.1171c0,0 -0.8621,-0.50674 -0.35536,-1.36884c0.08392,-0.14276 0.17757,-0.24798 0.27545,-0.32419z" fill="#0066cc" stroke="none" stroke-width="0.5" stroke-linecap="butt"/><path d="M311.52743,141.59198c0.01547,-0.13756 0.07937,-0.28736 0.22724,-0.43792c0.52552,-0.53509 1.06062,-0.00957 1.06062,-0.00957l0.77286,0.81298c0.61349,3.33202 -0.11712,5.61393 -1.12787,8.69893c-0.71164,2.17207 -0.63231,4.84162 -1.176,7.1019c-0.58768,2.10368 -2.67156,6.36372 -5.0799,6.47609c-2.35447,0.10986 -4.47393,-2.57056 -5.52727,-3.91896c-0.9318,-1.19282 -3.893,0.34809 -4.81794,-1.98162c-0.16455,-0.41445 -0.03492,-0.89116 -0.05238,-1.33673c1.10706,-5.14067 6.213,-7.16062 9.64183,-10.4305c1.92058,-1.83155 3.91236,-3.41904 6.07884,-4.9746z" fill="#fddfbd" stroke="none" stroke-width="0.5" stroke-linecap="butt"/><path d="M305.94311,154.53351l0.20333,0.07216c-0.05077,0.15816 -0.11048,0.32488 -0.17642,0.4983c-0.03426,1.18368 -0.61129,2.32894 -1.29139,3.55522c-0.31046,1.50179 0.06485,2.71273 2.5384,2.69196c0.56923,-0.00478 1.13559,-0.10338 1.69394,-0.21919c0.12019,-0.05596 0.27146,-0.0796 0.45923,-0.03544c0.13866,0.02152 0.2989,0.08056 0.42082,0.22455c0.13025,0.13651 0.17194,0.30211 0.17864,0.44228c0.02516,0.20073 -0.01961,0.35365 -0.0942,0.46928l-0.1211,0.3428c-1.7434,3.11374 -4.48311,10.29777 -9.20227,6.40949c-0.05306,-0.04372 -1.96996,-2.04066 -2.0054,-2.07752c-0.99325,-0.81983 -2.90655,-1.92478 -3.38583,-3.18357c-2.13949,-5.61924 5.59618,-10.21497 9.85985,-11.68973c0,0 0.70934,-0.24358 0.95292,0.46576c0.08877,0.25848 0.05099,0.45512 -0.03289,0.60066c0.10226,0.10752 0.173,0.2454 0.19723,0.39893l0.12962,0.7367l-0.11462,0.02017l0.00207,0.22915l-0.218,0.00197c0.00213,0.01538 0.00415,0.03074 0.00608,0.04609z" fill="#f89587" stroke="none" stroke-width="0.5" stroke-linecap="butt"/><path d="M293.65468,101.4117c3.18703,4.57749 3.10004,12.73556 2.15182,18.09552c-0.94088,5.31848 -8.03059,13.90755 -9.87104,17.02439c-2.98626,5.05731 -3.41657,7.08583 -7.1793,10.37037c-4.24774,3.70791 -14.10407,0.3696 -19.16674,0.49518c-3.54745,0.088 -7.40507,0.24378 -10.95243,0.33498c-7.63942,0.1964 -15.95316,0.35586 -23.59317,0.46544c-0.06912,0.00099 -4.1874,0.31338 -7.41225,0.05609c-0.15387,-0.00964 -0.30666,-0.02339 -0.45824,-0.04114c-3.16972,-0.37106 -5.81254,-2.48864 -6.92955,-5.37167c-3.01023,-5.6149 -2.49022,-14.67724 -3.1641,-19.94657c-0.389,-3.04164 -0.57351,-6.0347 -0.89185,-9.06322c-0.43515,-4.13982 -1.54249,-6.27496 -0.84654,-10.69628c0.47097,-2.99198 -0.65895,-11.1756 1.31341,-12.32639l0.88365,-0.51557c4.79964,-5.55063 16.86998,-7.4832 22.44503,-8.85138c4.69583,-1.15241 10.81567,-0.76145 15.26738,-0.91765c1.71894,-0.06031 3.14617,-0.9909 4.88119,-0.79407c2.19664,0.24919 4.66966,1.64949 6.81191,1.68861c11.07518,0.20231 23.94917,1.80433 33.53248,7.43736l1.26123,1.23867c1.32772,1.30397 2.22987,3.04126 2.47616,4.98564c0.07445,0.3664 0.09808,0.7127 0.06785,1.04979c0.00575,1.63085 -0.44874,3.15713 -1.24183,4.45493c0.21335,0.26915 0.41843,0.54474 0.61493,0.82695z" fill="#ff2d32" stroke="none" stroke-width="0.5" stroke-linecap="butt"/><path d="M290.28932,90.00306c0.32934,-0.67382 1.00316,-0.34447 1.00316,-0.34447l0.51701,0.26617c0.68528,0.50626 1.31595,1.08583 1.9241,1.68252c1.77568,2.17549 1.35596,3.03496 3.23084,4.95583c1.51613,1.5533 4.51014,5.4896 5.04903,7.48258c0.89052,3.29342 1.9161,6.0624 3.44871,9.06982c0.71794,2.09078 1.80164,3.94337 2.10728,6.17661c0.1788,1.30653 0.07977,2.77242 0.59388,4.02232c0.86603,2.10544 2.47552,3.82892 3.25883,5.98372c0.85199,2.34371 0.54958,5.01616 0.09196,7.41526c-1.06361,4.42861 -3.51611,7.1471 -6.7234,10.24063c-1.60856,1.5515 -3.42008,3.78547 -5.73632,4.24431c-1.26269,0.25013 -2.84439,0.03919 -4.14154,0.0509c-1.97876,-0.0056 -3.56211,-1.16312 -5.5041,-1.35602c-3.19321,-0.31718 -5.14514,-1.58139 -8.0316,-2.78369c-2.95443,-1.23062 -6.08967,-1.94351 -9.08911,-3.04855c-2.54697,-1.43141 -1.88517,-3.2525 -1.43178,-5.88044c0.69096,-4.00485 2.31557,-8.00666 2.27876,-12.08584c0,0 -0.00032,-0.03564 0.00695,-0.09144c0.00547,-0.056 0.01381,-0.09065 0.01381,-0.09065l0.18636,-0.77253c0.54884,-3.42088 1.92508,-6.88117 2.71411,-10.25337c0.00011,-0.00047 0.00016,-0.00071 0.00016,-0.00071v-0.00001l0.20004,-0.82962c1.93216,-5.97565 2.92491,-11.65544 5.59916,-17.37654c-0.01095,-0.13339 0.02271,-0.25491 0.06736,-0.35301c0.0378,-0.10675 0.10226,-0.22368 0.21217,-0.31408c0.88272,-3.7926 4.46679,-5.70417 8.1465,-5.99368c0.00249,-0.0053 0.00504,-0.01064 0.00766,-0.01598z" fill="#ab164a" stroke="none" stroke-width="0.5" stroke-linecap="butt"/><path d="M210.3138,145.94473c0,0 -2.95355,-20.10346 -4.06035,-36.62787c-0.67305,-10.04862 -1.5034,-18.76614 1.85459,-20.85646c18.82665,-11.71946 44.86458,-7.47738 57.63169,-6.28156c7.64725,0.71628 21.57128,3.5012 26.12638,8.53749c8.90594,9.84673 13.07607,21.32286 15.97101,29.64835c2.59502,7.46294 4.36125,12.32697 4.36125,12.32697l-2.90966,10.02666l-12.0752,10.1927c0,0 -34.39852,-13.77044 -49.96113,-14.35875c-24.73742,-0.93517 -36.93859,7.39248 -36.93859,7.39248z" fill="none" stroke="#000000" stroke-width="3" stroke-linecap="round"/><path d="M270.56413,143.40105c0,0 2.37151,-26.74847 12.0024,-48.49546c1.79829,-4.06062 7.26863,-4.68057 7.26863,-4.68057" fill="none" stroke="#000000" stroke-width="1.5" stroke-linecap="round"/><path d="M213.62572,151.38442c2.66493,-5.21292 7.15169,-6.26654 12.64376,-7.69233c2.40832,-0.62521 4.8923,-1.51966 7.34947,-1.90217c6.92358,-1.07783 14.96206,0.6738 21.55878,2.64024c9.61492,3.51575 20.29331,5.70968 27.91083,12.87909c1.2911,1.24138 1.50387,1.85024 2.15097,3.49025c3.87197,9.81317 -9.23073,10.41331 -15.35074,13.10178c-5.8382,2.39696 -12.86566,4.22282 -19.19037,4.82849c-2.54274,0.2435 2.25886,-0.82872 -0.26206,-0.38942c-8.42246,1.12961 -24.98454,1.82845 -33.27031,0.07442c-4.78311,-1.01589 -10.16425,-2.51092 -14.20186,-5.3671c-3.53027,-2.49728 -3.32937,-6.0336 -0.46184,-8.86035c2.82677,-1.16813 5.55128,-2.53138 8.54627,-3.25381c0.6974,-0.16822 3.21544,-0.32019 3.77227,-0.99839c0.32197,-0.39216 -0.20273,-0.99436 -0.29854,-1.49263c-0.41177,-2.1416 -1.35624,-4.06011 -1.85005,-6.15607c0,0 -0.1693,-0.73064 0.56134,-0.89994c0.15458,-0.03582 0.28404,-0.03135 0.39208,-0.00205z" fill="#fddfbd" stroke="none" stroke-width="0.5" stroke-linecap="butt"/><path d="M210.34892,146.14442c0,0 24.56402,-8.6926 37.77614,-7.62267c15.35387,1.24338 48.89071,14.64105 48.89071,14.64105l-1.51513,9.41405l-2.19089,1.01981l-9.7599,4.48824l-3.254,-5.97089l-8.91844,9.08083c0,0 -9.11839,-18.57705 -11.14292,-18.98546c-2.02911,-0.40934 -16.74075,9.83666 -16.74075,9.83666l-1.95511,-17.18306l-27.90142,11.05218z" fill="#f89587" stroke="#f89587" stroke-width="0.5" stroke-linecap="round"/><path d="M305.19854,153.43594c-1.85468,0.84735 -3.89258,1.83946 -5.73221,2.79061c0.50938,1.76378 1.91264,4.14494 2.95286,5.85422c1.01625,-2.78486 2.49851,-5.73067 2.77936,-8.64482zM296.97236,157.59102c-0.51917,2.45453 -0.7494,5.28388 -0.7494,5.28388c1.18057,0.88584 6.77791,6.52407 7.88809,6.20508c2.26762,-0.65157 3.81116,-6.16268 4.68958,-7.97413c0.64631,-1.33281 1.16254,-2.62431 1.58056,-3.89944c1.41889,-4.32815 1.70643,-8.46777 2.10952,-13.39445c0.04438,-0.48314 0.5359,-1.68023 0.10803,-1.4515c-2.49109,1.33162 -4.46406,3.35039 -6.62126,5.16361c-2.514,2.11312 -6.27259,4.24396 -8.03382,7.11692c-0.2177,0.35511 -0.4127,0.84844 -0.58617,1.41888c0.71961,-0.13554 1.30891,-1.01494 2.05147,-1.41308c1.39396,-0.74739 1.8994,-1.53947 3.12272,-2.181c0.23447,-0.12296 3.87748,-2.2858 4.18601,-0.62816c0.46718,2.50996 -2.50164,9.49356 -3.19703,11.64693l-0.26883,0.44655c-0.04161,0.1272 -0.1295,0.25572 -0.2936,0.36682c-0.10885,0.08376 -0.25989,0.16022 -0.44434,0.15357c-0.18457,0.00121 -0.3333,-0.07969 -0.43962,-0.16662c-0.14958,-0.10784 -0.23273,-0.2288 -0.27407,-0.34852c-1.22529,-2.01197 -2.71178,-4.44108 -3.42718,-6.68013c-0.4578,0.1586 -0.92377,0.27507 -1.40068,0.33481zM315.87676,147.17096c6.52911,-0.05891 14.04921,-0.69971 20.43725,0.70622c2.41702,0.53196 5.7773,1.53488 6.91754,3.9958c1.05832,2.28412 0.63517,5.14753 -0.34837,7.13908c-0.98789,1.16665 -1.5872,4.75306 -3.01717,5.23263c-2.53165,0.84903 -7.96377,0.23631 -10.24215,-0.63559c-5.15165,-1.97147 -12.03275,-4.58672 -16.3832,-7.96661c-0.65377,3.10558 -1.26965,4.25756 -2.53543,7.12234c-1.10754,2.50667 -3.07436,7.90527 -6.07473,8.77802c-2.1014,0.61126 -6.03911,-2.90048 -6.03911,-2.90048c-2.08516,-1.18777 -3.70762,-2.41143 -5.54818,-3.79926l-0.35071,0.19742c-3.69146,1.35006 -7.35234,3.85505 -10.82594,5.76141c-7.19944,2.96778 -15.1204,5.57885 -22.75312,7.06779c-3.72978,0.72758 -7.5556,0.98439 -11.24794,1.88339c-0.26443,0.37856 -17.88768,0.77203 -30.03199,-0.46755c-4.61819,-0.47138 -10.59534,-2.58522 -11.36903,-2.96323c0,0 -0.03101,-0.01515 -0.0813,-0.04557c-0.05187,-0.02765 -0.08075,-0.04654 -0.08075,-0.04654l-0.22665,-0.16981c-1.74057,-0.78521 -3.34338,-1.59801 -4.94177,-2.64081c0,0 -0.0246,-0.01608 -0.06464,-0.04717c-0.04171,-0.02881 -0.06445,-0.04742 -0.06445,-0.04742c0,0 -4.00602,-2.59649 -1.84559,-6.34781c0.57856,-1.00461 1.29217,-2.0516 2.33516,-2.81996c4.00527,-2.95064 10.88799,-4.23229 11.60711,-4.36182c-1.39953,-4.48525 -3.25073,-8.7831 -4.14082,-13.4273c0,0 -0.28163,-1.47333 1.19169,-1.75495c1.47333,-0.28163 1.75496,1.1917 1.75496,1.1917c0.96705,5.07312 3.13301,9.7351 4.53263,14.6905l0.02234,0.20785c0.01262,0.06457 0.02241,0.13273 0.02906,0.20468c0.05111,0.55297 -0.12142,0.92014 -0.35902,1.1633c-0.20751,0.24848 -0.53287,0.44964 -1.04297,0.4726c-0.87255,0.08044 -11.26421,2.28338 -12.94594,4.25108c-2.56178,2.99738 3.64989,6.21231 4.51177,6.55448c4.66803,1.85317 12.50935,3.76904 14.83485,3.93027c12.48124,0.86532 33.25065,-1.27865 37.05158,-2.021c7.39104,-1.44352 15.04903,-4.31036 22.03008,-7.16289c3.56301,-1.96531 7.29014,-4.42693 11.07005,-5.86519l0.57059,-0.35169c0.3486,-0.31257 0.71966,-0.37476 1.03722,-0.33853c0.00538,0.00001 0.01078,0.00004 0.01619,0.00011c0.58423,-2.66503 0.68053,-6.07792 2.09204,-8.42061c2.26943,-3.7666 7.0898,-6.58755 10.39625,-9.34097c2.23655,-1.86246 7.11187,-8.22941 9.56749,-3.68727c0.42661,0.78908 0.11481,2.9338 0.16706,3.8293c-0.08828,1.07899 -0.15919,2.1659 -0.23104,3.25568zM330.23326,160.42328c1.68696,0.64489 4.17383,2.01171 6.08596,1.48865c0.84564,-0.23132 2.72533,-2.66588 3.33381,-3.39645c0.62949,-1.30772 1.9101,-4.22403 1.24985,-5.733c-0.84895,-1.94022 -5.26386,-2.53665 -6.99273,-2.71014c-5.92105,-0.59416 -12.05831,-0.45519 -18.01082,-0.40148l-0.81625,0.00736c-0.09428,1.22448 -0.20742,2.4477 -0.36527,3.6625c4.16427,3.97609 10.25951,5.07334 15.51544,7.08255z" fill="#000000" stroke="none" stroke-width="0.5" stroke-linecap="butt"/></g><g stroke-width="0.5"><path d="M240.37209,123.73524c0.15879,5.84612 -6.69415,4.81176 -10.58231,4.9368c-0.9302,0.02991 0.11596,1.99645 -0.41461,2.76108c-0.65367,0.94207 -1.49638,1.77577 -2.4454,2.41929c-1.75444,1.18965 -5.7062,-0.62287 -7.04353,0.00985c-2.04425,0.96718 -3.24645,3.15127 -4.80066,4.79408c-2.79492,2.95425 -5.37101,6.11543 -8.24382,8.99399c-0.48575,0.48672 -2.69542,1.80763 -3.6408,1.62131c-2.64545,-0.52136 -16.19627,14.2663 -15.8983,11.3439c0.0323,-0.31679 0.9642,-3.17835 3.66852,-8.36981c3.19904,-6.14123 8.24658,-14.73839 8.18637,-14.73809c-2.1839,0.01122 -8.31553,-0.07717 -12.68828,0.17872c-4.16216,0.24356 -6.61695,0.91083 -6.95298,-2.04462c-0.04319,-0.37986 6.42644,-9.00286 6.91649,-9.59031c4.512,-5.40896 9.32758,-12.53169 14.3837,-17.41317c1.07037,-1.0334 6.08681,-6.34304 8.13147,-5.22018c0.01318,-0.00022 0.02638,-0.00039 0.03958,-0.00051c1.1568,-0.01044 2.22538,0.37282 3.07848,1.02476c0.58114,0.22912 1.08222,0.44775 1.42097,0.5845c5.48401,2.2138 10.60343,4.2289 15.85781,6.96332c1.07672,0.56034 3.82654,2.8155 3.96441,2.82566c0.83845,0.06176 -0.46099,-5.50736 2.24866,-10.67239c1.19897,-2.28543 7.34138,-7.10285 7.72197,-6.8733c1.3934,0.84041 -3.5581,20.88446 -3.5456,22.2707c0.00513,0.56872 -0.08489,1.11611 -0.25522,1.62706c0.51953,0.82957 0.87156,1.77479 0.89309,2.56736z" fill="#66ffff" stroke="none" stroke-linecap="butt"/><path d="M244.97342,101.69283l5.96397,18.14693l8.98008,19.91979l-11.91831,9.1079l-1.49738,-10.78693l-6.59432,0.65952l-20.54683,5.98562l-9.16534,3.88285l0.82703,2.99266l-7.18708,1.4649l-7.37263,3.06664l-5.87223,2.38743c0,0 13.36993,-14.26553 18.63756,-19.58401c2.68533,-2.71124 11.43784,-10.98857 11.43784,-10.98857c0,0 -7.5739,1.42263 -11.02231,1.97611c-5.47963,0.87949 -19.27864,3.59749 -19.27864,3.59749c0,0 16.97042,-16.9993 20.08196,-17.85163c2.23083,-0.61108 28.45381,10.51344 28.45381,10.51344c0,0 -1.10117,-3.61882 -0.01993,-9.11735c0.77511,-3.94176 5.90037,-20.78691 5.90037,-20.78691z" fill="#50a5eb" stroke="#50a5eb" stroke-linecap="round"/><path d="M232.26778,110.60382c0,0 0.02822,-0.21104 0.15598,-0.42534c0.27301,-1.21653 0.70554,-2.70608 1.3947,-4.21399c0.39791,-0.87067 1.80853,-2.82655 2.23984,-3.47843c3.59254,-5.42976 9.04039,-10.32764 9.42206,-8.33215c2.88482,15.08307 11.8171,38.84774 15.9518,44.98008c0.13541,0.12395 0.245,0.30495 0.27741,0.56928c0.03963,0.18535 0.03983,0.41316 -0.08663,0.63464c-0.11001,0.2301 -0.29736,0.35971 -0.47227,0.43271c-0.12979,0.06824 -0.25214,0.10286 -0.36577,0.1134c-4.51877,3.44187 -8.72222,6.41369 -12.62226,10.66156c-0.10317,0.17595 -0.27432,0.34118 -0.55831,0.40861c-0.18165,0.06479 -0.40515,0.08658 -0.64637,-0.01987c-0.25092,-0.08099 -0.4033,-0.24593 -0.49582,-0.41515c-0.16994,-0.24325 -0.1856,-0.4844 -0.14298,-0.68644l-0.00002,-0.47905c-0.47982,-3.60173 -1.2834,-7.04267 -1.94344,-10.59149l-0.40797,0.00368c-3.73159,0.02278 -8.05025,1.68056 -11.77578,2.33539c-3.81276,0.99309 -7.37565,2.51622 -11.16504,3.58833c-2.7876,0.78868 -6.12774,1.61647 -8.51999,3.31761c-0.73057,0.51951 0.0643,2.2109 0.39912,2.94085c0.10027,0.13834 0.16986,0.32525 0.17542,0.57778c0.01183,0.17782 -0.01293,0.39713 -0.14763,0.59395c-0.12912,0.20051 -0.32163,0.30845 -0.4901,0.36656c-0.21935,0.08673 -0.40763,0.09981 -0.56709,0.06962l-0.78578,0.00709c-3.72887,-0.02368 -9.26438,1.50915 -12.66314,2.89539c-2.66812,1.08825 -5.90532,3.15439 -9.36866,4.78539c-2.41929,1.13932 -4.38173,3.50015 -4.54965,2.291c-0.60236,-4.33745 4.71587,-12.43329 6.38225,-15.29286c0.91846,-1.57611 5.04312,-7.61156 6.23517,-9.20836c-5.39214,-1.46365 -10.64673,-0.47648 -16.69408,0.46999c-1.45611,0.2279 -2.8594,0.38628 -4.17529,0.40804c-0.07171,0.01697 0.63011,-2.32266 4.80465,-8.48425c5.5388,-8.17523 15.5773,-21.32597 22.26226,-27.49749c1.44746,-1.33629 2.94267,-2.71701 4.70266,-2.74818c5.33466,-0.09445 11.90776,4.6528 12.7632,5.09432c3.81715,1.97016 7.24777,3.29854 10.60027,6.19885c0.19542,0.1324 0.38871,0.26801 0.5797,0.40707c0.02882,-0.21937 0.08784,-0.77166 0.22174,-1.5397c0.01856,-0.24453 0.04324,-0.49028 0.07581,-0.73842zM234.14445,113.8713l0.00387,0.42856c0,0 0.00192,0.21316 -0.09443,0.44354l0.24759,0.69798c0,0 0.00902,0.99996 -0.99094,1.00898c-0.61204,0.00552 -0.85285,-0.36694 -0.94758,-0.65676c-2.12795,-2.0022 -17.7147,-11.01331 -24.16089,-11.71545c-1.24214,-0.1353 -8.49808,6.80036 -13.94337,13.55728c-6.51206,8.08063 -11.41338,16.40613 -13.65514,18.88351c4.24297,-0.29311 8.41328,-0.63933 12.59277,-0.7008c2.34307,-0.03447 4.68549,-0.37126 7.05381,0.39332l0.45682,0.21522c0.11317,0.03626 0.23221,0.09856 0.35539,0.19529c0.22864,0.17955 0.33861,0.37337 0.37959,0.558c0.04348,0.18405 0.02887,0.40642 -0.09879,0.66761c-0.06533,0.13365 -0.14082,0.23772 -0.22201,0.31802c-5.09617,6.48043 -8.66911,13.84509 -12.58908,21.03098c6.77781,-3.4754 14.08884,-7.75136 21.52349,-8.04366c-0.46362,-1.3611 -0.70316,-2.47154 0.4531,-3.54194c1.7342,-1.60543 5.11422,-2.5207 7.26194,-3.33324c4.50515,-1.70444 9.33425,-2.92414 13.99649,-4.1308c1.93578,-0.34093 13.81066,-4.50513 14.91247,-3.02252c0.16033,0.21573 1.07059,2.57871 1.25623,4.16728c0.35686,3.05367 0.55655,5.87485 0.73269,6.9946c3.49195,-3.49502 6.08716,-5.7592 10.04529,-8.76885c-3.06674,-4.72762 -7.6785,-15.6187 -11.00699,-25.48163c-2.48588,-7.3661 -4.19509,-14.41199 -4.33955,-16.51927c-5.25949,4.70279 -7.71796,9.30079 -9.21916,14.62658c-0.01881,0.571 -0.00888,1.14094 -0.00358,1.72819z" fill="#000000" stroke="none" stroke-linecap="butt"/><path d="M263.53805,141.35378c0.12526,-0.01431 0.22861,0.01721 0.22861,0.01721l0.69212,0.21163c3.74445,0.77852 7.01975,2.5492 10.57919,3.69952c5.70812,2.63758 12.64175,2.96421 18.15193,5.90405c4.34974,2.32191 1.58057,7.93487 1.11823,11.87018c-0.20506,1.74537 0.20512,3.94382 -2.09486,3.97676c-1.91155,-2.4644 -4.24156,-4.54761 -6.56117,-6.6127c-2.33949,-2.08279 -3.87606,-4.26377 -6.76528,-5.67594c-2.14971,-1.51114 -3.07795,3.9789 -4.69102,4.85591c-3.07963,1.67435 -4.6716,-3.11874 -5.51183,-5.18813c-2.0726,-5.11824 -6.12159,-7.95157 -6.17393,-13.75305c0,0 -0.00451,-0.49998 0.49547,-0.50449c0.49998,-0.00451 0.50449,0.49547 0.50449,0.49547c0.00216,0.23942 0.01167,0.47382 0.02806,0.70359z" fill="#50a5eb" stroke="none" stroke-linecap="butt"/><path d="M264.45505,145.64188c0,0 5.50726,2.16964 6.84155,2.6966c0.69607,0.2749 0.47364,10.03792 0.47364,10.03792z" fill="#66ffff" stroke="#66ffff" stroke-linecap="round"/><path d="M262.5132,140.3962c1.0099,0.2149 2.02147,0.42191 3.03359,0.62602c5.88343,1.49404 11.65772,3.21204 17.43766,5.0841c3.87342,1.25455 12.92473,4.39571 13.11145,4.59084c0.19848,0.18316 0.35179,0.46515 0.35571,0.89925l0.00129,0.14285c0.05294,5.86802 -0.84002,11.7544 -2.72427,17.30429c-0.06376,0.38317 -0.26637,0.61685 -0.48851,0.75935c-0.25113,0.20275 -0.62244,0.33472 -1.14619,0.15517c-0.25478,-0.08733 -0.43583,-0.21076 -0.56312,-0.35065l-0.16755,-0.07151c-3.78163,-4.94853 -8.39424,-10.2499 -13.08197,-14.47611c-1.76517,2.31147 -3.54892,4.62975 -5.09872,7.09083c-0.0608,0.13092 -0.15273,0.26516 -0.28492,0.39977c-0.25289,0.25749 -0.50711,0.36762 -0.74082,0.39403c-0.23338,0.02915 -0.50634,-0.0183 -0.81256,-0.20931c-0.1867,-0.11645 -0.32003,-0.24527 -0.41299,-0.37849l-0.41185,-0.43475c-4.21535,-6.64247 -7.65055,-14.12914 -11.24927,-21.14571c0,0 -0.56908,-1.11295 0.54386,-1.68203c1.11295,-0.56907 1.68203,0.54387 1.68203,0.54387c0.09624,0.18885 0.19238,0.3781 0.28845,0.5677c0.24631,-0.01673 0.4552,0.05376 0.6237,0.15415zM264.99258,143.46001c-0.23858,-0.04801 -0.47715,-0.09622 -0.71564,-0.14466c2.80812,5.12453 5.411,10.37704 8.06704,15.57311c1.28224,-1.85915 2.66055,-3.6562 4.02962,-5.4497l0.92796,-0.95829c0.29074,-0.31874 0.59494,-0.42162 0.86605,-0.42205c0.26921,-0.02029 0.57893,0.05821 0.89192,0.35066c4.54568,3.98191 9.07822,8.99543 12.92493,13.8539c1.27273,-4.36913 1.91951,-8.92027 1.96777,-13.47831c-4.0274,-0.46791 -23.15234,-7.85463 -28.95964,-9.32465z" fill="#000000" stroke="none" stroke-linecap="butt"/></g><g stroke-linecap="round"><path d="M234.44883,150.8379c0,0 -1.42627,2.36063 -1.39487,4.00534c0.06869,3.59842 0.4718,7.91451 -0.7575,8.45576c-2.18483,0.96197 -5.34508,-7.03279 -6.68847,-12.90449c-0.53283,-2.32889 0.92662,-8.48557 0.92662,-8.48557z" fill="#000000" stroke="#000000" stroke-width="1.5"/><path d="M263.16218,137.41164c0,0 -2.80502,5.26726 -4.40022,10.55243c-0.80014,2.65098 -1.69221,5.48399 -2.15048,7.96522c-0.37608,2.03613 -0.35116,3.83435 -0.66975,5.10903c-0.32528,1.30141 -0.92631,1.79357 -1.1477,1.89104c-2.18483,0.96196 -3.80755,-2.87984 -5.15094,-8.75153c-0.53282,-2.3289 1.12636,-4.82056 1.12636,-4.82056z" fill="#000000" stroke="#000000" stroke-width="1.5"/><path d="M292.61413,113.47828c0,0 -9.79725,8.05972 -16.99199,14.55809c-14.812,13.37837 -33.07309,30.52507 -33.55878,29.87311c-3.21258,-1.50566 -2.71304,-1.63971 -7.84072,-6.33183c-3.53271,-3.23264 -10.48109,-11.05689 -12.9355,-14.33653c-8.33876,-11.14242 -10.38058,-22.3048 -9.89995,-21.7942c0.7916,0.84097 1.75811,3.44576 3.628,6.91261c2.23518,4.1441 5.61821,9.52125 9.58804,14.60751c5.60643,7.18313 14.82191,14.89313 17.08378,17.70653c0.44547,0.55408 17.8543,-16.81045 31.38737,-27.96887c4.95008,-4.0815 6.14979,-5.83622 10.10539,-8.33673c2.95814,-1.86996 9.43434,-4.88971 9.43434,-4.88971z" fill="#000000" stroke="#000000" stroke-width="0.5"/><path d="M233.86999,168.29562c0,0 12.60967,2.10924 17.82459,1.1219c2.82009,-0.53393 6.60923,-2.52372 8.79217,-4.07754c0.848,-0.6036 2.6551,-2.81941 2.30683,-2.96236c-0.50225,-0.20616 -2.5515,-0.46305 -2.5515,-0.46305c0,0 1.03237,-2.14212 5.15394,-2.46298c2.59754,-0.2022 8.05862,0.62941 8.05862,0.62941c0,0 -3.29297,10.15533 -6.41172,10.47382c-0.68011,0.12812 -11.1022,1.3124 -18.65335,0.86222c-10.3232,-0.61544 -14.51957,-3.12142 -14.51957,-3.12142z" fill="#000000" stroke="#000000" stroke-width="0.5"/><path d="M259.44683,168.77916c0,0 4.32844,-2.46139 5.81804,-3.89832c1.01318,-0.97735 2.26134,-3.17486 2.26134,-3.17486l1.99863,-0.16089c0,0 -2.75721,6.15879 -3.26014,6.44234c-0.90401,0.50968 -6.81786,0.79174 -6.81786,0.79174z" fill="#ffffff" stroke="#ffffff" stroke-width="0.5"/></g></g><path d="M-3.9767,363.06856v-366.13712h487.95341v366.13712z" fill="none" stroke-opacity="0.01384" stroke="#ff0000" stroke-width="0.5" stroke-linecap="butt"/></g></g></svg>