<svg version="1.1" xmlns="http://www.w3.org/2000/svg" xmlns:xlink="http://www.w3.org/1999/xlink" width="488.45341" height="366.63712" viewBox="0,0,488.45341,366.63712"><g transform="translate(4.2267,3.31856)"><g data-paper-data="{&quot;isPaintingLayer&quot;:true}" fill-rule="nonzero" stroke-linejoin="miter" stroke-miterlimit="10" stroke-dasharray="" stroke-dashoffset="0" style="mix-blend-mode: normal"><g><g stroke="none" stroke-width="0.5" stroke-linecap="butt"><path d="M146.26365,161.16987c1.42233,-2.55017 4.00013,-4.31328 6.31745,-5.67566c1.48425,-0.3732 2.84422,-1.17307 4.29104,-1.69855c1.26466,-0.45936 2.79057,-0.32861 4.09567,-0.46972c4.38249,-0.4738 10.212,-1.01256 13.1963,2.97038c1.55849,2.0563 6.46074,8.47623 7.19557,11.1405c1.87954,6.81477 -7.29669,9.59961 -12.54798,11.04886c-7.87695,2.20624 -15.20953,-1.53988 -22.92153,-2.7997l-0.39914,-1.07015c-0.07465,-0.42821 -2.29531,-1.4365 -2.36328,-1.91457c-0.5392,-3.79315 1.38472,-8.39152 3.13593,-11.53136z" data-paper-data="{&quot;noHover&quot;:false,&quot;origItem&quot;:[&quot;Path&quot;,{&quot;applyMatrix&quot;:true,&quot;segments&quot;:[[[-7.40945,28.4],[-2.99455,-7.39936],[0,0]],[[-6.91969,28.4],[0,0],[16.93921,0]],[[42.49188,23.30896],[-15.86413,6.95372],[10.58495,-4.59285]],[[58.23465,-5.4689],[6.80628,12.95535],[-2.66096,-5.06498]],[[45.95327,-17.26356],[4.16461,3.58677],[-7.99327,-6.95856]],[[16.7362,-18.85898],[9.13644,-2.36841],[-2.72081,0.70531]],[[8.23958,-16.60831],[2.50374,-1.32573],[-2.86433,1.51666]],[[-0.17539,-11.85647],[3.00679,-1.22562],[-4.37351,3.46578]],[[-11.2758,1.44907],[1.97911,-5.53932],[-2.74385,7.67976]]],&quot;closed&quot;:true}]}" fill="#485e84"/><path d="M156.97981,176.4303c1.56933,0.25635 3.59606,0.95414 5.18705,0.80506c1.90458,-0.17848 3.93732,-1.36982 5.75091,-1.98361c3.52698,-1.9614 8.88474,-2.13249 11.78566,-5.19164c0.09945,1.01951 0.17407,2.03062 0.01277,2.8578c-1.10166,5.65027 -1.83278,9.92437 -6.26662,13.90374c-2.00629,2.435 -4.74993,3.06781 -7.52302,3.88578c-2.37484,0.70051 -4.79735,1.63111 -7.17605,2.23517c-2.61175,0.66323 -5.89981,-0.44011 -8.45042,-0.84766c-1.44586,-0.508 -2.19698,-2.45291 -3.08179,-3.67201c-1.85736,-2.55906 -4.12487,-5.41977 -4.40487,-8.93075c-0.20075,-2.51713 0.68877,-5.29684 1.16889,-7.78106c0.05977,-0.30924 0.12058,-0.62045 0.18034,-0.92968c3.28235,3.74937 8.02106,4.86539 12.81716,5.64888z" data-paper-data="{&quot;noHover&quot;:false,&quot;origItem&quot;:[&quot;Path&quot;,{&quot;applyMatrix&quot;:true,&quot;segments&quot;:[[[-12.6,19.29482],[8.53184,6.39664],[0,0.63506]],[[-12.6,21.2],[0,-0.63506],[0,5.10165]],[[-11.88291,37.03011],[-1.46324,-4.9457],[2.04098,6.89848]],[[1.14868,53.32315],[-5.00785,-4.49044],[2.38565,2.13917]],[[9.19708,59.60973],[-3.28764,-0.5411],[5.5986,-0.01815]],[[27.47881,58.53456],[-5.28814,2.16968],[4.81629,-1.97608]],[[41.78069,51.77552],[-4.76837,2.16687],[5.56798,-2.53023]],[[56.16943,41.64187],[-3.26991,5.49996],[7.80325,-9.3639]],[[63.8,12],[-0.02062,11.6066],[0.00302,-1.69919]],[[62.60332,6.32523],[0.63128,1.99726],[-4.91792,7.03342]],[[39.65146,20.5013],[6.70271,-5.05168],[-3.60901,1.81169]],[[28.25951,26.3465],[3.9819,-0.97471],[-3.32624,0.81421]],[[17,26.4],[3.44697,0],[-10.53452,0]]],&quot;closed&quot;:true}]}" fill="#343545"/><path d="M176.12521,180.5936c-1.15836,-2.56005 -0.66079,-5.52659 -0.04993,-8.52068c-0.858,-0.72772 -1.78307,-1.22239 -3.09783,-1.43717c-0.29594,-0.04835 -0.57629,-0.0783 -0.84463,-0.09184c-0.01563,2.15038 -0.75912,4.50205 -1.16366,6.59533c-0.06437,0.33304 -0.53936,2.85857 -0.63325,3.02724c-1.27354,2.28765 -4.54326,1.40358 -5.49979,-0.39695c-0.93933,-1.76812 -1.29984,-3.89027 -1.72518,-5.94299c-1.64577,0.88119 -3.24647,1.92655 -4.59852,3.21199c2.29843,1.63759 4.68086,3.18075 6.43008,5.49846c-0.58386,4.45552 -3.59991,4.13805 -6.83633,2.93277c-1.20853,-0.45007 -2.47803,-1.03911 -3.72833,-1.74897c-0.2694,0.56715 -0.53268,1.15469 -0.77779,1.75324c2.23109,-0.00939 4.48774,-0.03373 5.89941,1.21119c0.57262,0.50499 0.64722,1.45772 1.15697,2.03303c0.81308,0.91763 1.40234,1.56133 1.69253,2.31892c1.54452,-0.48528 3.04071,-1.27927 4.71704,-2.08281c1.1566,-0.55441 2.53829,-1.14595 3.83745,-1.84884c1.02114,-0.82803 1.98908,-1.70677 2.89066,-2.60799c0.45997,-0.45979 0.85412,-0.97053 1.20819,-1.51144c0.2697,-0.64251 0.51981,-1.2864 0.82763,-1.79702c0.11216,-0.18603 0.22428,-0.37384 0.33611,-0.56335zM150.77015,189.31106c0.12008,-0.62131 0.25494,-1.22735 0.40603,-1.82172c-1.27216,-0.19036 -2.48099,-0.47138 -3.32406,-0.90162c-0.53113,-0.27105 -1.04018,-0.66787 -1.5357,-1.11768c0.63455,1.33312 1.50228,2.69488 2.73401,3.33281c0.52871,0.27381 1.08956,0.52347 1.67182,0.75143c0.02032,-0.10286 0.03696,-0.18665 0.0479,-0.24323zM157.28085,156.07555c1.51111,-0.66468 3.09486,-1.24276 4.80191,-1.82225c-0.63963,-0.00427 -1.278,-0.02063 -1.91556,-0.02828c-1.11403,0.2724 -2.21233,0.64665 -3.28421,1.11779c0.13692,0.2371 0.26942,0.48273 0.39786,0.73276zM177.80695,173.83582c-0.08196,-0.09146 -0.1627,-0.1813 -0.24247,-0.26947c-0.30429,1.71761 -0.46438,3.38467 -0.16021,4.84778c0.3177,-0.60368 0.62377,-1.21986 0.91113,-1.84638c0.19728,-0.51367 0.39359,-1.06236 0.58008,-1.63164c-0.43195,-0.29624 -0.78499,-0.76145 -1.08852,-1.10024zM178.04499,171.17785c0.401,0.40771 0.80955,0.87115 1.15576,1.27824c0.05143,0.06047 0.11997,0.1451 0.18849,0.23839c0.07022,-1.02568 0.57106,-2.98006 0.72226,-3.76483c0.00809,-0.2934 0.00435,-0.57824 -0.01267,-0.85222c-0.19828,-1.26034 -0.8821,-2.92177 -1.71902,-4.31338c-0.16112,-0.25124 -0.32311,-0.49918 -0.48065,-0.74406c-0.28197,-0.40525 -0.57328,-0.77018 -0.86305,-1.07295c0.64289,1.46916 1.36467,2.8661 1.77648,4.5201c-0.07494,1.46711 -0.4199,3.08003 -0.76759,4.71072zM170.27738,170.7221c-1.09828,0.26917 -2.1306,0.79744 -3.48573,1.37204c-0.65767,0.27886 -1.33342,0.5759 -2.01313,0.89635c0.02646,0.10215 0.05276,0.20474 0.07899,0.30785c0.24097,0.94841 0.91447,5.51458 1.91233,6.04439c2.1305,1.13112 2.0787,-0.95121 2.37821,-2.50097c0.36948,-1.91183 1.1163,-4.14531 1.12933,-6.11966zM150.36502,170.86241c-0.88729,1.34203 -1.62698,2.80251 -2.18831,4.40879c1.21528,2.3545 3.30437,4.14748 5.5695,5.61348c0.45801,-1.26071 1.10039,-2.39007 1.87664,-3.40698c-0.82424,-0.70981 -1.60471,-1.44373 -2.31268,-2.20731c-1.10945,-1.19664 -2.07994,-2.76117 -2.94515,-4.40801zM157.0552,178.65761c-0.68326,0.89991 -1.24596,1.89897 -1.64272,3.01407c-0.03016,0.05679 -0.06042,0.114 -0.09079,0.17158c0.91204,0.52472 1.8266,1.00682 2.7007,1.46074c1.70652,0.8862 4.24165,1.96364 5.12289,-0.16199c-1.94056,-1.42872 -4.08921,-2.90046 -6.09008,-4.4844zM152.80879,187.68739c-0.24341,0.81252 -0.42885,1.6243 -0.52803,2.41329c1.85669,0.58339 3.82501,0.98618 5.60443,1.27686c0.83324,0.14428 1.613,0.167 2.36134,0.09696c-0.74712,-1.10873 -1.30966,-2.57563 -2.06801,-3.33111c-0.45816,-0.45644 -1.98211,-0.21917 -2.53298,-0.251c-0.78926,-0.0456 -1.79095,-0.10305 -2.83674,-0.20498zM166.11225,158.27017c-0.54112,-0.99291 -1.09292,-1.93806 -1.62724,-2.81121c-0.2541,0.09848 -0.51944,0.19707 -0.80027,0.29285c-2.01873,0.68851 -3.84914,1.32108 -5.57892,2.06452c0.42404,0.9413 0.80239,1.80851 1.15592,2.37511c0.64813,-0.40634 1.30119,-0.75611 1.94041,-0.99501c1.54279,-0.57657 3.20464,-0.84987 4.91008,-0.92626zM157.66562,161.29141c-0.52464,-0.83683 -0.98143,-1.71662 -1.43729,-2.5987c-2.03715,1.036 -3.97237,2.3294 -5.96559,4.18462c-0.33903,0.40967 -0.68762,0.83813 -1.03973,1.28297c0.1047,0.12473 0.20031,0.24964 0.2819,0.37538c0.39965,0.87442 0.82147,1.84472 1.27536,2.83827c1.36077,-1.62862 2.96138,-3.11809 4.81222,-4.50804c0.64367,-0.48338 1.34454,-1.03664 2.07312,-1.57451zM146.25981,175.71516c-0.00379,-0.00824 -0.00757,-0.01647 -0.01134,-0.02471c-0.49334,-1.264 -1.07746,-2.46002 -1.65042,-3.65846c-0.25711,1.22066 -0.46121,2.45666 -0.6226,3.69279c0.09818,1.90012 0.37039,3.77122 0.8384,5.57427c0.01196,0.00946 0.02393,0.01899 0.03586,0.02859c0.20728,-0.8342 0.45635,-1.65337 0.58738,-2.33138c0.22116,-1.14439 0.49501,-2.23653 0.82274,-3.28107zM166.31264,154.74481c0.65828,1.09221 1.33295,2.2806 1.97898,3.52594c2.00621,0.08236 4.0282,0.36929 5.94805,0.69458c-0.37633,-0.81057 -0.78074,-1.58957 -1.21254,-2.30839c-1.25457,-1.03411 -2.67555,-1.79165 -4.40842,-2.32736c-0.86051,-0.00846 -1.58177,0.16295 -2.30607,0.41525zM155.33547,157.00478c-0.16544,-0.29792 -0.33579,-0.59304 -0.5138,-0.88371c-2.77126,1.54 -4.87752,3.67582 -6.4762,6.17467c0.21439,-0.26427 0.42708,-0.52262 0.63699,-0.77463c2.11744,-1.97858 4.17904,-3.38663 6.35302,-4.51633zM151.62405,169.1516c0.88043,1.76925 1.88069,3.47596 3.0563,4.71266c0.71534,0.75251 1.49892,1.42335 2.31531,2.0554c1.64215,-1.63114 3.63354,-2.9269 5.6737,-3.99951c-0.06267,-0.23255 -0.1291,-0.46225 -0.20033,-0.68842c-0.97709,-3.10256 -2.20285,-5.68014 -3.80043,-8.33364c-0.71713,0.52532 -1.41058,1.07185 -2.05456,1.55548c-1.87204,1.40586 -3.56412,2.94632 -4.98999,4.69805zM160.26465,161.81565c1.78064,3.02128 3.00304,5.92624 3.99961,9.31163c0.64377,-0.30352 1.2846,-0.5878 1.91319,-0.85638c1.47826,-0.63164 2.67151,-1.19578 3.92773,-1.48963c-0.43788,-2.79143 -1.61753,-5.81372 -2.99952,-8.60289c-1.8746,-0.02324 -3.70041,0.19316 -5.33949,0.86183c-0.49738,0.20291 -1.00058,0.47018 -1.50153,0.77546zM176.52196,169.87303c0.20182,-1.04994 0.37091,-2.09179 0.44012,-3.10908c-0.43957,-1.66984 -1.04255,-3.66184 -1.80003,-5.61881c-1.84019,-0.28884 -3.85283,-0.65647 -5.8706,-0.84486c1.2653,2.71758 2.29904,5.59407 2.68521,8.26694c0.43354,0.00277 0.88915,0.04099 1.37726,0.12073c1.35679,0.22164 2.234,0.52975 3.16806,1.18508zM151.77336,185.45127c0.3031,-0.90849 0.65132,-1.79828 1.05037,-2.68399c-2.06591,-1.36768 -3.98078,-3.05993 -5.35579,-4.98868c-0.3942,1.73103 -0.62967,3.42651 -1.01064,5.10436c0.72139,0.74958 1.45758,1.49334 2.24371,1.90704c0.86174,0.4535 1.92944,0.60964 3.07236,0.66125zM145.79912,169.08729c0.5763,1.08998 1.07297,2.56266 1.50492,3.858c0.61121,-1.37176 1.33455,-2.65523 2.17361,-3.86402c-0.54005,-1.1348 -1.03699,-2.26054 -1.50141,-3.28742c-0.76349,1.04169 -1.50985,2.14753 -2.17709,3.29342zM162.12088,150.0871c0,0 0.03199,0.00092 0.08587,0.00764c0.0543,0.00362 0.08573,0.00875 0.08573,0.00875c1.09267,0.17848 3.09587,0.50573 4.18853,0.68424c0.16532,0.02701 0.3287,0.05525 0.49018,0.08472c1.75438,0.19124 3.49071,0.6107 5.16669,1.272c4.91991,1.94128 8.46965,8.52407 10.79563,13.13133c0.64505,4.20977 -0.33408,8.32976 -2.0181,12.17375c-0.25277,0.6696 -0.51224,1.29935 -0.76684,1.87127c-1.09257,1.71506 -1.86632,3.64956 -2.97428,5.36241c-0.42069,0.9253 -0.87032,1.84118 -1.57855,2.55137c-0.89376,0.89621 -2.0238,1.64811 -3.21634,2.30981c-1.43585,0.79671 -2.96227,1.46266 -4.27594,2.09235c-3.74619,1.79568 -6.70853,3.29574 -10.78295,2.66251c-0.78743,-0.12863 -1.61685,-0.27856 -2.46188,-0.45535c-0.37689,1.1972 -1.58829,0.99929 -1.58829,0.99929l-0.1821,-0.02974c-7.44012,-1.26721 -11.16305,-8.47589 -12.21602,-15.80054c0.07419,-1.05662 0.17487,-2.11977 0.30635,-3.18213c-0.1309,-3.00848 0.131,-6.07651 0.70535,-9.06879c1.3507,-6.98897 6.85506,-13.77365 13.80004,-15.16217c2.07466,-0.93187 4.2429,-1.55725 6.43692,-1.51269z" fill="#000000"/><path d="M180.56183,211.02209c-0.0041,-0.01093 -0.0082,-0.02186 -0.01229,-0.0328l-0.1882,0.14133l-0.57787,-0.89811c-0.13071,-0.20315 -0.18558,-0.46328 -0.1336,-0.73222c0.01942,-0.10049 0.05238,-0.19509 0.09643,-0.28197c-5.46361,-6.22317 -13.12798,-13.9405 -11.4035,-22.86353c0,0 0.18821,-0.9739 1.09876,-0.82516c0.28109,0.04592 0.45746,0.17047 0.56698,0.32072c2.71401,-3.38172 8.79124,-6.04108 11.03857,-1.2933c1.12649,1.75076 0.78554,4.46707 2.09796,6.05096c1.1332,1.36759 2.55864,2.90972 3.31317,4.59061c2.3368,5.2057 4.06272,9.30267 7.6767,13.74735c0.9482,1.90077 1.75406,5.26865 0.24325,7.42818c-0.67119,0.95938 -2.75745,2.03862 -3.74234,2.70247c-1.56897,1.05756 -2.98185,2.75046 -4.91604,1.55654c-0.73402,-0.45307 -0.91479,-2.37246 -1.36732,-3.1347c-1.30217,-2.19337 -2.83211,-4.03296 -3.72917,-6.31648l-0.07725,-0.07101l0.01136,-0.01367c-0.01525,-0.00659 -0.0305,-0.01315 -0.04574,-0.01972z" fill="#485e84"/><path d="M171.02832,186.75971c-0.71032,0.28342 -2.00141,1.12878 -2.30395,1.84847c-0.76375,1.81683 0.23989,2.33518 1.08487,3.57571c1.82656,2.68158 3.41516,5.51318 5.26923,8.17825c2.72229,4.88847 5.47596,9.5644 8.28674,14.39712c0.44207,0.76008 2.39178,5.0058 3.37852,4.89806c0.86231,-0.09416 1.44963,-1.0635 2.13231,-1.66063c1.83592,-1.60588 3.51903,-3.45223 5.27118,-5.19875c0.31529,0.69449 0.81849,1.43509 0.95239,1.69571c0.99761,1.94217 1.86553,3.09919 3.11594,4.85668c0.36491,0.5129 1.68758,2.12581 1.93147,2.71786c1.37637,3.34106 -3.41405,5.98055 -5.61992,7.31635c-8.83009,2.04621 -12.49776,-9.54349 -17.10364,-15.17223c-4.69418,-5.1018 -7.60613,-11.64745 -11.68816,-17.1906c-1.16757,-1.58547 -4.57493,-4.74968 -6.51038,-4.24048c1.68367,-1.03631 2.59032,-3.67117 3.67118,-5.3868c2.44794,-3.88555 6.93185,-7.36397 11.344,-7.56742c1.596,-0.07359 3.07711,-0.42739 4.04041,0.92038c0.33653,1.03589 0.51912,2.15947 0.80066,3.1726c-2.68001,1.23733 -5.35477,1.76321 -8.05285,2.83976z" data-paper-data="{&quot;noHover&quot;:false,&quot;origItem&quot;:[&quot;Path&quot;,{&quot;applyMatrix&quot;:true,&quot;segments&quot;:[[[67.03686,33.96408],[-5.19724,3.33479],[-1.01636,-1.92532]],[[64.08098,28.10099],[1.14282,1.95276],[-2.60571,-2.36983]],[[55.11455,27.5767],[3.36801,-0.66554],[-9.31085,1.83989]],[[34.11501,46.29425],[3.61337,-8.5313],[-1.59544,3.76689]],[[28.52556,58.18884],[3.15847,-2.6106],[3.91153,-1.64312]],[[44.13384,64.50974],[-3.13845,-2.7766],[10.97265,9.70755]],[[76.00638,94.80481],[-12.09448,-8.62985],[12.12329,9.70759]],[[118.59304,119.47199],[-17.95943,6.9451],[4.14717,-3.3766]],[[125.53032,103.50098],[4.3055,6.20366],[-0.76295,-1.09931]],[[122.29901,101.11902],[0.98806,0.90239],[-3.38563,-3.09209]],[[113.65965,89.67567],[2.92337,3.54195],[-0.39231,-0.47532]],[[111.1187,86.68623],[0.95712,1.28001],[-3.01208,4.04671]],[[102.01074,98.78554],[3.24832,-3.79401],[-1.20789,1.41081]],[[98.14178,102.79497],[1.79735,-0.46787],[-2.05671,0.53538]],[[88.92315,94.14868],[1.25408,1.36939],[-7.97354,-8.70669]],[[65.21498,68.05325],[7.80802,8.84646],[-5.04445,-4.70255]],[[50.6411,53.46744],[4.99267,4.74437],[-2.30967,-2.19481]],[[46.86457,46.6959],[-0.87859,3.86526],[0.34802,-1.5311]],[[51.02015,42.25647],[-1.39582,0.79522],[5.30188,-3.02057]]],&quot;closed&quot;:true}]}" fill="#343545"/><path d="M172.51501,181.50665c-4.34329,1.85781 -7.20753,4.28245 -10.34959,7.96153c-0.35731,0.41837 -0.63642,1.31639 -0.92801,2.29322c0.36013,0.334 0.24927,0.90773 0.24927,0.90773l-0.4456,1.3337c-0.31569,0.31249 -0.67991,0.64401 -1.06863,0.92937c-0.25016,0.32371 -0.53741,0.52432 -0.87705,0.53427c-0.0082,0.00024 -0.01637,0.00045 -0.02448,0.00062c-0.92695,0.40552 -1.88688,0.33095 -2.6054,-0.96646c-1.00649,-1.81739 1.01732,-7.503 1.97536,-9.10432c2.41283,-4.44609 6.5657,-7.8487 11.28962,-9.17581c1.56186,-0.43878 6.55826,0.59325 7.67019,2.23433c0.08912,-0.00608 0.17887,-0.01115 0.26928,-0.01512l0.08093,0.06016l0.0097,-0.05023l0.91055,0.14873c0.50288,0.08214 0.82627,0.58477 0.72233,1.12265c-0.10394,0.53788 -0.59588,0.9073 -1.09877,0.82515l-0.84227,-0.1376c-1.74716,0.09887 -3.22058,0.68288 -4.93748,1.09806z" fill="#485e84"/><path d="M160.89235,188.26925c-0.06144,-0.01134 -0.12275,-0.02568 -0.18381,-0.04306c0.01604,0.21519 0.04329,0.32125 0.12282,0.15643c0.01728,-0.03581 0.03771,-0.07366 0.06097,-0.11338zM158.53058,185.03763c-0.0179,-0.64133 0.20956,-1.23069 0.5824,-1.715c0.97687,-1.73418 2.95802,-3.03232 4.38978,-1.81211c2.66852,2.27428 1.06372,4.90777 -0.87485,7.027c-0.54897,0.60011 -0.88731,1.64318 -1.6488,1.7984c-1.26394,0.25765 -2.63651,-2.9237 -3.08224,-3.87921c0,0 -0.39576,-0.86837 0.44561,-1.33371c0.06539,-0.03616 0.12806,-0.06425 0.18809,-0.08534z" fill="#8fbbbe"/><path d="M167.14035,184.5209c-0.929,0.0919 -0.96725,-0.889 -0.96725,-0.889l0.05611,-0.43541c-0.57839,-1.27827 -1.32422,-2.4437 -1.90962,-3.72773c0,0 -0.39575,-0.86837 0.44562,-1.3337c0.84137,-0.46534 1.23715,0.40302 1.23715,0.40302c0.58566,1.28544 1.32356,2.44986 1.9096,3.72773l0.11918,1.18231c0,0 0.03825,0.98089 -0.89078,1.07279z" fill="#8fbbbe"/><path d="M159.66094,197.35291c-0.2904,0.26597 -0.60086,0.45145 -0.93342,0.52728c-0.83892,0.19126 -1.493,-0.78987 -2.17256,-1.29251c-3.8747,-2.86591 -0.55525,-10.02301 1.61723,-13.46052c2.441,-4.13508 8.68512,-7.7358 13.27607,-7.98861c1.49832,-0.08252 3.36414,0.51879 4.83315,0.75876c0.64486,0.10535 3.44738,0.54405 3.72608,0.6987c1.50015,0.83241 3.41592,4.37832 2.43125,6.22355c-0.18057,0.3384 -0.4999,0.51119 -0.86496,0.62938c0.40271,1.54453 0.7315,3.17602 1.24817,4.1207c2.94286,5.38074 6.1886,10.52864 9.01614,16.02456c3.07243,3.9147 5.28555,9.12206 7.6023,13.59938c1.00283,1.93808 2.56902,4.68845 1.96344,7.05157c-0.95582,3.72973 -7.79451,6.57183 -10.81104,7.21187c-3.90522,-0.65098 -5.22998,-3.71218 -7.40109,-6.80318c-4.59683,-6.54444 -8.43938,-13.62903 -13.32307,-19.94572c-1.30366,-3.04673 -4.33709,-6.49624 -6.85599,-8.80885c-0.13021,0.21219 -0.30649,0.3876 -0.51001,0.51203l-1.27149,0.78956zM178.57801,179.21072c-0.01237,-0.00876 -0.02289,-0.01532 -0.03138,-0.01945c-1.51419,-0.73947 -4.23469,-0.58199 -5.92576,-0.878c-3.77481,-0.66075 -10.12655,2.7487 -12.12415,6.31668c-1.47219,2.30185 -2.74677,5.37946 -2.99409,8.12411c-0.10301,1.14319 0.63892,1.0527 0.89164,1.71716c-0.00062,-0.04709 0.00148,-0.08892 0.00731,-0.12081c0.10324,-0.56356 0.26186,-1.12417 0.48811,-1.65228c0.50072,-1.16869 1.06448,-2.30916 1.63024,-3.4469c2.18117,-4.38649 5.95429,-7.02025 10.07213,-8.86658c2.02387,-0.68338 5.53336,-1.85942 7.98597,-1.17391zM162.47368,191.73754c0.8879,0.30683 2.27434,1.95419 2.80945,2.5357c2.52946,2.7488 5.44782,5.21296 6.97168,8.77433c4.92334,6.15552 8.64492,13.28602 13.19579,19.74973c1.39563,1.98225 2.67917,5.30955 5.21027,5.70527c2.43685,-0.57164 4.46338,-2.02724 6.51469,-3.54179c0.28162,-0.20793 1.41258,-0.83424 1.56085,-1.43164c0.3265,-1.31557 -1.19223,-3.72829 -1.75608,-4.80802c-2.30401,-4.41207 -4.44036,-9.51237 -7.47314,-13.37658c-2.91001,-5.55421 -6.18837,-10.8051 -9.16227,-16.28057c-0.69352,-1.27689 -1.25608,-3.08499 -1.70201,-4.49844c-0.23965,-0.75961 0.05776,-1.85759 -0.53369,-2.34444c-1.30502,-1.07428 -5.28998,0.46591 -6.67346,0.93011c-3.44356,1.53609 -6.67775,3.6662 -8.47463,7.39278c-0.15036,0.31187 -0.31186,0.72366 -0.48746,1.19357z" fill="#000000"/></g><path d="M228.62497,196.63839c1.38228,-1.76635 2.77771,-3.50462 4.12722,-5.31179c2.18849,-2.13091 5.18766,-6.47195 8.19321,-7.37115c3.92323,-1.17375 7.06971,2.03505 7.86078,5.47334c1.73017,7.52009 1.56487,13.49836 -3.51976,19.53766c-1.99508,3.14547 -4.34484,5.90138 -7.55587,7.88567c-2.33584,1.44345 -5.05444,2.18336 -7.42919,3.56999c-3.2238,1.8824 -6.00395,3.46682 -9.76567,1.56136c-2.64917,-1.34191 -3.83208,-5.40044 -5.03719,-7.91072c-2.08872,-4.16821 -5.6897,-9.11549 -5.17647,-13.94905c0.21608,-2.03491 0.82868,-4.88924 3.14158,-5.70747c1.19965,-0.4244 2.54341,0.12104 3.80924,0.25114c3.47115,0.35678 6.93669,0.98015 10.39208,1.46905c0,0 0.57623,0.08153 0.96005,0.50194z" fill="#db93e6" stroke="none" stroke-width="0.5" stroke-linecap="butt"/><path d="M249.47614,204.44921c-2.72196,7.25086 -6.36188,10.23712 -12.36032,14.7526c-2.0491,1.54251 -8.14863,4.71121 -10.75968,5.05793c-2.61115,0.34674 -5.27195,0.67777 -7.56816,-0.39998c-3.12927,-3.48603 -4.16185,-8.68574 -6.35154,-12.75481c-1.42476,-2.64761 -3.47884,-5.34165 -4.01472,-8.37937c-0.57439,-3.25609 1.02128,-6.07427 2.49187,-8.76741c0.02814,-0.08273 0.62987,-1.03852 1.40776,-1.02599c3.32756,0.05361 12.41236,1.82676 16.41062,2.39247c0.75623,-1.71185 2.64328,-4.03666 3.62328,-5.56804c2.06683,-3.22968 3.41829,-5.25531 7.0486,-6.58347c1.08506,-0.39697 2.83956,-0.72215 4.00273,-0.98309c0,0 2.02123,-0.46423 2.43185,0.7619c5.49641,2.80836 6.12911,6.9347 5.42409,12.89109c-0.25395,2.14551 -1.3289,6.82312 -1.78638,8.60619zM211.37932,202.22301c0.63767,3.29893 7.28551,16.07998 9.54152,18.73928c7.56386,3.27468 22.73725,-9.26183 25.40492,-16.29459c4.0466,-10.66801 2.83452,-24.049 -8.42581,-17.52762c-4.31103,2.49672 -6.96287,10.30398 -8.69653,10.58709c-1.76833,0.28877 -7.63162,-1.30441 -11.70836,-2.13045c-2.52028,-0.51067 -4.24044,-0.3777 -4.24044,-0.3777c-1.04772,1.84757 -2.30209,4.79599 -1.87527,7.004z" fill="#000000" stroke="none" stroke-width="0.5" stroke-linecap="butt"/><g stroke="none" stroke-width="0.5" stroke-linecap="butt"><path d="M212.33592,199.90656c-4.2728,0.1553 -8.13017,1.61104 -12.53175,1.14918c-2.369,-0.24859 -4.54321,-0.62466 -6.80099,-1.37875c-1.80278,-0.60211 -5.01251,-2.09355 -7.05779,-1.90181c-1.32895,0.12458 -1.73614,4.50713 -1.84392,5.24714c0.81047,7.44818 4.49854,16.4262 11.11926,20.59048c2.07355,1.30421 5.056,3.05112 7.6681,2.75858c1.17936,-0.13208 2.27201,-0.68754 3.41665,-1.00084c1.7053,-0.46674 2.94737,-1.31033 4.34207,-2.3626c4.11486,-3.60451 11.58885,-7.59125 10.36193,-14.48127c-0.32072,-1.80112 -2.30491,-3.62093 -3.4007,-4.9547c-1.24586,-1.51642 -2.33331,-2.65589 -4.16661,-3.37851l-0.41566,-0.01358c0,0 -0.35311,-0.04997 -0.6906,-0.27333zM215.47621,197.84768c3.47686,1.87333 7.79407,6.43633 8.48011,10.11661c0.56648,3.03891 -0.89449,6.96666 -2.5793,9.41817c-2.45796,3.57649 -5.7216,5.19874 -8.83554,7.95211c-1.73864,1.30415 -3.31989,2.32803 -5.43388,2.92675c-1.31338,0.37197 -2.58697,0.96237 -3.94529,1.09755c-7.25095,0.72167 -13.17714,-5.73217 -16.65307,-11.13388c-1.5761,-2.44932 -3.24454,-4.73957 -4.02607,-7.58293c-0.69103,-2.51412 -1.11823,-5.08663 -1.38114,-7.67396c0.34609,-2.50366 0.83183,-7.2049 3.9641,-8.06118c3.3425,-0.91376 7.92983,1.85853 10.99783,2.59572c2.34973,0.56461 5.77259,1.23071 8.15124,0.82065c3.4613,-0.59669 6.27163,-1.57922 9.92038,-1.40267c0,0 1.03314,0.0516 1.34066,0.92705z" fill="#000000"/><path d="M213.06031,200.14302l0.41633,0.01422c1.83331,0.72262 2.92992,1.87389 4.17577,3.39031c1.09579,1.33376 3.08535,3.1681 3.40607,4.9692c1.22692,6.89002 -6.26408,10.9251 -10.37894,14.52962c-1.39469,1.05226 -2.6524,1.90467 -4.35771,2.37142c-1.14462,0.31329 -2.24982,0.87136 -3.42917,1.00343c-2.61211,0.29254 -5.62375,-1.46115 -7.69729,-2.76536c-6.62071,-4.16427 -10.32758,-13.20876 -11.13805,-20.65695c0.10778,-0.74 0.52238,-5.13304 1.85132,-5.25763c2.04526,-0.19173 5.26331,1.29249 7.06608,1.89461c2.25778,0.75408 4.45171,1.12205 6.82071,1.37063c4.40157,0.46187 8.29988,-0.98293 12.57269,-1.13823c0.33751,0.22336 0.6922,0.27473 0.6922,0.27473z" data-paper-data="{&quot;noHover&quot;:false,&quot;origItem&quot;:[&quot;Path&quot;,{&quot;applyMatrix&quot;:true,&quot;segments&quot;:[[[429.90791,387.32211],[0.73093,0.34776],[-8.41783,1.50473]],[[405.41357,393.10906],[8.84574,-0.31865],[-4.76092,0.1715]],[[391.55941,392.2843],[4.68232,0.8607],[-3.73869,-0.68724]],[[377.05018,390.4957],[3.99646,-0.95274],[-2.59677,0.61906]],[[374.86892,401.40313],[0.00607,-1.4956],[3.69184,14.52239]],[[402.65734,439.06246],[-14.27763,-6.39137],[4.47163,2.00172]],[[418.61523,442.3767],[-5.09074,1.31118],[2.29846,-0.59199]],[[425.1007,439.43747],[-2.17891,0.94112],[3.24619,-1.4021]],[[433.03722,433.5423],[-2.46703,2.47453],[7.13862,-8.29088]],[[449.49922,401.96208],[4.36015,13.30038],[-1.13978,-3.47683]],[[441.37664,393.10325],[2.54365,2.33419],[-2.89202,-2.65387]],[[432.17899,387.5803],[3.83292,0.91732],[0,0]],[431.35207,387.66987]],&quot;closed&quot;:true}]}" fill="#f89587"/></g><path d="M161.13582,188.62653c0.00714,-0.0161 0.01429,-0.03214 0.02152,-0.0481z" fill="#000000" stroke="none" stroke-width="0.5" stroke-linecap="butt"/><path d="M194.55379,180.9006c-0.44079,-1.57266 -0.91111,-3.14395 -1.24999,-4.73805c-1.3314,-2.90844 -5.39622,-1.50008 -7.47546,-0.2137c-4.32109,2.67339 -8.33764,8.87836 -9.25488,13.86218l0.20315,0.08246l-0.01527,0.03766c0.0943,0.02869 0.18743,0.06229 0.27923,0.1015c0.82892,0.35404 1.3565,1.1598 1.95086,1.86421c3.45444,2.65524 4.34998,7.24187 7.57462,10.1207c1.45718,0.7028 3.15774,1.03816 4.61424,1.46189c0.64605,0.18794 1.32538,0.39844 2.0183,0.59544c0.74884,0.03716 1.44398,0.07403 1.9851,0.15287c2.05119,0.29884 4.04874,-0.01107 5.81176,-1.13643c0.20316,-0.14617 0.40336,-0.31004 0.5993,-0.48953c0.04632,-0.07379 0.09168,-0.14979 0.13609,-0.22803c0.06153,-0.02863 0.12245,-0.05572 0.18273,-0.08158c2.71632,-2.79042 4.42434,-8.52428 1.35848,-11.37183c-2.2091,-0.66 -5.80142,0.20026 -7.41247,-1.2597c-0.65488,-0.59347 -0.02069,-1.50849 -0.20594,-2.50121c-0.35839,-1.92057 -1.07054,-4.28629 -1.09984,-6.25882zM184.2496,173.39785c4.087,-2.53 9.25087,-2.9282 11.83178,1.66407c0.39554,0.30923 0.54993,0.77036 0.54993,0.77036l0.31795,0.97556c0.1198,0.5403 0.23962,1.08057 0.35942,1.62087c0.18787,0.85284 0.29136,1.64577 0.34258,2.42059c0.25608,0.95392 0.49479,1.90881 0.6895,2.8667c0.16292,0.8015 -0.51093,1.93733 0.12599,2.45042c0.76899,0.61948 1.99389,0.04877 2.94613,0.31014c1.30527,0.35828 2.35096,0.97 3.39242,1.81042c0.12,0.04914 0.23733,0.10215 0.35161,0.15947c0.80677,0.40471 2.67636,2.06203 2.99119,2.9001c0.34033,0.90593 -0.02408,2.86251 -0.16199,3.84369c-0.51821,3.68657 -0.29502,7.69294 -4.15931,9.36251c-0.03436,0.03493 -0.06887,0.06958 -0.10353,0.10398c-2.33148,4.33984 -7.72504,3.28446 -11.89955,2.12657c-1.20059,-0.16708 -4.40451,-0.61759 -4.58915,-0.71182c-0.37539,-0.19157 -0.86759,-0.56835 -1.39964,-1.03298c-0.38005,-0.16094 -0.74647,-0.34371 -1.09227,-0.55636c-0.48411,-0.2977 -2.73704,-2.2823 -3.08236,-2.7772c-0.85396,-1.22385 -1.37082,-2.92951 -2.02548,-4.33911c-0.31096,-0.51999 -0.62943,-1.01932 -0.99462,-1.49383c-0.73758,-0.74474 -1.72987,-1.40144 -2.35368,-2.12048c-0.41411,-0.25305 -0.87706,-0.49221 -1.40028,-0.71627l-0.14004,-0.32439l-0.11239,0.1017l-1.0106,-1.11684c-0.29305,-0.3193 -0.44611,-0.76244 -0.38065,-1.22507c0.03772,-0.26659 0.14337,-0.50685 0.29696,-0.70575c0.89262,-5.85688 5.58098,-13.19197 10.71005,-16.36705z" fill="#000000" stroke="none" stroke-width="0.5" stroke-linecap="butt"/><path d="M195.69917,187.13872c0.18525,0.99272 -0.44475,1.93381 0.21013,2.52727c1.61105,1.45996 5.20313,0.60157 7.41224,1.26156c3.06586,2.84755 1.33989,8.61298 -1.37643,11.40339c-0.06027,0.02586 -0.12165,0.0533 -0.18318,0.08193c-0.0444,0.07825 -0.09034,0.15469 -0.13665,0.22848c-0.19594,0.17949 -0.39796,0.3447 -0.60113,0.49089c-1.76302,1.12537 -3.77659,1.44269 -5.82778,1.14385c-0.54112,-0.07883 -1.24244,-0.1145 -1.99127,-0.15168c-0.69292,-0.19698 -1.37896,-0.40707 -2.02501,-0.59501c-1.45651,-0.42373 -3.17394,-0.76211 -4.63112,-1.4649c-3.22464,-2.87883 -4.15189,-7.50154 -7.60631,-10.15678c-0.59435,-0.70439 -1.12303,-1.518 -1.95196,-1.87204c-0.09181,-0.03921 -0.18498,-0.07322 -0.27927,-0.10191l0.01527,-0.03779l-0.20317,-0.08275c0.91724,-4.98383 4.96477,-11.23727 9.28586,-13.91066c2.07925,-1.28638 6.17084,-2.69786 7.50225,0.21057c0.33889,1.5941 0.81998,3.16837 1.26076,4.74103c0.0293,1.97253 0.76838,4.36396 1.12677,6.28452z" data-paper-data="{&quot;noHover&quot;:false,&quot;origItem&quot;:[&quot;Path&quot;,{&quot;applyMatrix&quot;:true,&quot;segments&quot;:[[[389.36914,354.6674],[0.6107,3.89794],[-1.31353,-2.99079]],[[385.56625,345.63498],[1.11775,3.06181],[-3.45147,-5.38647]],[[370.7029,347.30633],[3.75704,-3.12998],[-7.80792,6.50477]],[[356.2597,377.35039],[0.41999,-10.12635],[0,0]],[356.6851,377.45674],[[356.66539,377.53558],[0,0],[0.19477,0.0304]],[[357.24681,377.65835],[-0.1928,-0.05193],[1.7407,0.46885]],[[361.63236,380.80338],[-1.37435,-1.22838],[7.5847,4.29022]],[[379.46789,398.72284],[-7.19228,-4.79736],[3.08253,0.98344]],[[389.01497,400.32492],[-3.00301,-0.431],[1.332,0.19117]],[[393.17858,400.93854],[-1.42736,-0.19593],[1.49331,-0.13621]],[[397.15247,400.68507],[-1.09366,-0.0045],[4.14566,0.01706]],[[408.34294,396.80622],[-3.17594,2.72251],[0.36135,-0.34641]],[[409.39255,395.66889],[-0.33772,0.41035],[0.07104,-0.1591]],[[409.59814,395.17919],[-0.066,0.1674],[0.11382,-0.07393]],[[409.93714,394.96645],[-0.11212,0.0681],[4.59722,-6.28687]],[[409.44106,372.06646],[6.86911,4.77991],[-4.55956,-0.68801]],[[394.40938,371.64879],[3.59938,2.43973],[-1.46312,-0.99173]],[[393.30076,366.75339],[0.64499,1.91395],[-1.24783,-3.70283]]],&quot;closed&quot;:true}]}" fill="#fddfbd" stroke="none" stroke-width="0.5" stroke-linecap="butt"/><path d="M204.1298,200.31549c-2.59446,8.6403 -12.83212,3.62828 -17.89744,0.58065c-1.29788,-1.75631 -2.0357,-3.51219 -3.18972,-5.30577c-1.03893,-1.61467 -3.57828,-3.35583 -4.32715,-4.9646c-0.467,-1.00324 1.61771,-3.10487 1.71803,-3.74667c0.06337,-0.40543 -0.47763,-0.67311 -0.65285,-1.04418c-0.23497,-0.49764 0.87636,0.8244 1.22726,1.24832c0.78813,0.95216 1.72171,1.69886 2.8397,2.22598c2.95417,1.39288 6.19957,2.37399 9.00714,4.0529c0.8006,0.4742 3.31113,1.46595 4.51253,2.1346c0.58311,0.32453 1.55533,0.78843 1.87193,1.03945c0.38932,0.30868 0.08711,0.33792 0.4993,-0.09333c0.69884,-0.73117 0.76421,-0.55701 1.52936,-1.29278c0.83364,-0.80164 2.47748,-1.92148 3.32096,-2.4921c-0.09366,1.20056 0.56959,0.61933 0.53222,2.16363c-0.02976,1.23024 -0.72717,4.61433 -0.99129,5.49394z" data-paper-data="{&quot;noHover&quot;:false,&quot;origItem&quot;:[&quot;Path&quot;,{&quot;applyMatrix&quot;:true,&quot;segments&quot;:[[[413.22832,377.33554],[0.27112,4.31854],[-2.89675,2.62042]],[[404.09091,383.98571],[3.28737,-0.9633],[-3.99464,1.17055]],[[389.45722,379.91278],[3.57765,1.48814],[-6.03017,-2.53807]],[[370.60791,374.37288],[6.24037,1.93056],[-2.36162,-0.7306]],[[364.19226,370.65287],[1.82749,1.66472],[-0.81367,-0.74119]],[[361.58091,368.63208],[-0.60474,-0.91963],[0.45093,0.68573]],[[363.16764,370.51474],[0.0119,-0.82063],[-0.01884,1.29905]],[[360.82667,378.38841],[-1.20588,-1.85584],[1.93373,2.97599]],[[370.78915,386.97148],[-2.50976,-2.90641],[2.78782,3.22843]],[[378.55363,396.51621],[-3.06225,-3.11433],[10.88465,4.6159]],[[413.67402,390.41164],[-2.71684,17.83712],[0.62376,-4.09526]]],&quot;closed&quot;:true}]}" fill="#f89587" stroke="none" stroke-width="0.5" stroke-linecap="butt"/><path d="M190.1587,197.29846c0,0 2.20648,-0.87965 3.84255,0.56244c0.61127,0.5388 2.74521,2.53545 3.68435,3.70041c2.02639,2.51366 1.8339,4.6942 1.8339,4.6942c0,0 4.9551,1.6249 5.97197,3.89105c0.4504,1.00373 2.26185,3.87491 2.32459,5.76523c0.09794,2.95065 -1.73379,4.96894 -1.73379,4.96894c0,0 -12.6615,9.91024 -18.12457,11.41903c-1.45383,0.40152 -3.91924,-0.32558 -3.91924,-0.32558c0,0 -1.75896,-1.71371 -2.7395,-2.76932c-1.33993,-1.44251 -3.9034,-4.21492 -3.9034,-4.21492c0,0 -2.74527,-0.24035 -3.61874,-0.22693c-0.65076,0.01 -1.81414,-0.57826 -1.81414,-0.57826c0,0 -0.79005,-1.34611 -1.54603,-2.93444c-0.85104,-1.78804 -1.71033,-3.8903 -2.33586,-4.864c-0.74845,-1.16504 -2.10631,-0.93092 -2.10631,-0.93092l-8.70522,-0.48318c0,0 -1.62751,-3.28468 -1.83455,-6.26244c-0.2449,-3.52229 1.50692,-11.20637 1.50692,-11.20637c0,0 11.12656,-9.15239 16.41352,-11.47624c5.2088,-2.2895 12.85012,-3.26921 12.85012,-3.26921c0,0 2.47462,2.5981 3.3959,4.07058c1.04599,1.67179 2.55351,5.4383 2.55351,5.4383l-1.99594,5.03166z" fill="#fddfbd" stroke="#000000" stroke-width="3" stroke-linecap="round"/><path d="M158.13033,199.90396c0,0 0.18647,3.08003 0.59233,4.57947c0.42825,1.58215 1.91357,4.67869 1.91357,4.67869c0,0 4.5971,-0.17301 6.82463,-0.8846c3.9192,-1.25199 14.63786,-5.97159 14.63786,-5.97159c0,0 -2.47712,3.51106 -3.4162,5.61183c-0.73182,1.63712 -1.75317,5.95223 -1.75317,5.95223c0,0 1.21949,2.86048 1.96824,3.72592c0.82319,0.9515 2.76882,1.74944 2.76882,1.74944c0,0 3.43564,-0.48648 4.68714,-1.08711c1.44873,-0.69525 3.50047,-2.84222 3.50047,-2.84222c0,0 -1.62867,3.43886 -2.09075,4.8607c-0.30774,0.94691 -0.4122,2.84081 -0.4122,2.84081c0,0 7.33489,-3.81647 9.63326,-4.08286c2.74619,-0.31829 5.74086,2.30097 5.74086,2.30097c0,0 -4.26905,3.84582 -6.61822,5.40959c-2.1183,1.4101 -6.12296,3.4892 -8.4932,4.21384c-0.78275,0.23932 -2.30673,-0.06526 -2.30673,-0.06526c0,0 -1.08058,-0.60138 -2.31864,-1.85194c-1.12034,-1.13166 -3.07581,-3.95668 -4.34851,-5.28948c-0.66158,-0.69281 -1.20919,-0.4839 -1.20919,-0.4839c0,0 -2.46128,0.3345 -3.45269,0.15164c-0.68643,-0.12661 -0.94898,-1.00545 -0.94898,-1.00545c0,0 -1.09358,-1.65448 -1.85568,-2.85429c-0.15088,-0.23753 -1.10746,-2.07901 -1.86779,-3.49194c-0.41138,-0.7645 -0.36789,-1.34729 -1.38617,-1.66351c-1.79745,-0.55819 -3.86037,-1.07777 -7.74868,-1.00525c-1.12328,0.02094 -1.95218,0.35047 -2.35765,-0.24749c-1.98472,-2.92699 0.31725,-13.24828 0.31725,-13.24828z" fill="#f89587" stroke="#f89587" stroke-width="0.5" stroke-linecap="round"/><path d="M176.82437,204.7881c3.59675,-3.2346 9.03171,-5.78467 13.20414,-8.23437c0.36733,-0.70534 0.23176,0.78612 0.14615,1.82808c-5.57099,2.70318 -10.23103,6.23376 -15.54342,9.41542c0.7726,-1.0324 1.68282,-2.5502 2.19311,-3.00912z" data-paper-data="{&quot;noHover&quot;:false,&quot;origItem&quot;:[&quot;Path&quot;,{&quot;applyMatrix&quot;:true,&quot;segments&quot;:[[[357.52884,410.33784],[1.2407,-2.033],[9.62855,-7.00379]],[[385.50984,389.77357],[-10.27473,6.21694],[-0.12243,-1.87693]],[[384.71883,386.56966],[0.52978,-1.34849],[-7.57618,5.41327]],[[361.03917,404.44173],[6.21626,-6.66584],[-0.88195,0.94574]]],&quot;closed&quot;:true}]}" fill="#000000" stroke="none" stroke-width="0.5" stroke-linecap="butt"/><path d="M190.54643,197.35332c0,0 1.81875,-0.93451 3.45482,0.50757c0.61127,0.5388 2.74521,2.53545 3.68435,3.70041c2.02639,2.51366 1.8339,4.6942 1.8339,4.6942c0,0 4.9551,1.62491 5.97197,3.89105c0.4504,1.00373 2.26185,3.8749 2.32459,5.76523c0.09794,2.95065 -1.73379,4.96894 -1.73379,4.96894c0,0 -12.6615,9.91023 -18.12457,11.41903c-1.45383,0.40152 -3.91924,-0.32558 -3.91924,-0.32558c0,0 -1.75896,-1.71371 -2.7395,-2.76932c-1.33993,-1.44251 -3.9034,-4.21492 -3.9034,-4.21492c0,0 -2.74527,-0.24035 -3.61874,-0.22693c-0.65076,0.01 -1.81414,-0.57826 -1.81414,-0.57826c0,0 -0.79005,-1.34611 -1.54603,-2.93444c-0.85104,-1.78804 -1.71033,-3.8903 -2.33586,-4.864c-0.74845,-1.16504 -2.10631,-0.93092 -2.10631,-0.93092l-8.70522,-0.48318c0,0 -1.62751,-3.28468 -1.83455,-6.26244c-0.2449,-3.52229 1.50692,-11.20637 1.50692,-11.20637c0,0 11.12656,-9.15239 16.41352,-11.47624c5.2088,-2.2895 12.85012,-3.26921 12.85012,-3.26921c0,0 2.47462,2.5981 3.3959,4.07058c1.04599,1.67179 2.55351,5.4383 2.55351,5.4383l-1.99594,5.03166z" fill="#fddfbd" stroke="#000000" stroke-width="3" stroke-linecap="round"/><path d="M158.13033,199.90396c0,0 0.18647,3.08003 0.59233,4.57947c0.42825,1.58215 1.91357,4.67869 1.91357,4.67869c0,0 4.5971,-0.17301 6.82463,-0.8846c3.9192,-1.25199 14.63786,-5.97159 14.63786,-5.97159c0,0 -2.47712,3.51106 -3.4162,5.61183c-0.73182,1.63712 -1.75317,5.95223 -1.75317,5.95223c0,0 1.21949,2.86048 1.96824,3.72592c0.82319,0.9515 2.76882,1.74944 2.76882,1.74944c0,0 3.43564,-0.48648 4.68714,-1.08711c1.44873,-0.69525 3.50047,-2.84222 3.50047,-2.84222c0,0 -1.62867,3.43886 -2.09075,4.8607c-0.30774,0.94691 -0.4122,2.84081 -0.4122,2.84081c0,0 7.33489,-3.81647 9.63326,-4.08286c2.74619,-0.31829 5.74086,2.30097 5.74086,2.30097c0,0 -4.26905,3.84582 -6.61822,5.40959c-2.1183,1.4101 -6.12296,3.4892 -8.4932,4.21384c-0.78275,0.23932 -2.30673,-0.06526 -2.30673,-0.06526c0,0 -1.08058,-0.60138 -2.31864,-1.85194c-1.12034,-1.13166 -3.07581,-3.95668 -4.34851,-5.28948c-0.66158,-0.69281 -1.20919,-0.4839 -1.20919,-0.4839c0,0 -2.46128,0.3345 -3.45269,0.15164c-0.68643,-0.12661 -0.94898,-1.00545 -0.94898,-1.00545c0,0 -1.09358,-1.65448 -1.85568,-2.85429c-0.15088,-0.23753 -1.10746,-2.07901 -1.86779,-3.49194c-0.41138,-0.7645 -0.36789,-1.34729 -1.38617,-1.66351c-1.79745,-0.55819 -3.86037,-1.07777 -7.74868,-1.00525c-1.12328,0.02094 -1.95218,0.35047 -2.35765,-0.24749c-1.98472,-2.92699 0.31725,-13.24828 0.31725,-13.24828z" fill="#f89587" stroke="#f89587" stroke-width="0.5" stroke-linecap="round"/><path d="M176.82437,204.7881c3.59675,-3.2346 9.03171,-5.78467 13.20414,-8.23437c0.36733,-0.70534 0.23176,0.78612 0.14615,1.82808c-5.57099,2.70318 -10.23103,6.23376 -15.54342,9.41542c0.7726,-1.0324 1.68282,-2.5502 2.19311,-3.00912z" data-paper-data="{&quot;noHover&quot;:false,&quot;origItem&quot;:[&quot;Path&quot;,{&quot;applyMatrix&quot;:true,&quot;segments&quot;:[[[357.52884,410.33784],[1.2407,-2.033],[9.62855,-7.00379]],[[385.50984,389.77357],[-10.27473,6.21694],[-0.12243,-1.87693]],[[384.71883,386.56966],[0.52978,-1.34849],[-7.57618,5.41327]],[[361.03917,404.44173],[6.21626,-6.66584],[-0.88195,0.94574]]],&quot;closed&quot;:true}]}" fill="#000000" stroke="none" stroke-width="0.5" stroke-linecap="butt"/><path d="M186.91111,218.57125c2.22091,-7.03537 9.04345,-7.77095 9.74206,-12.70844c0.14822,-1.04755 1.05044,-7.20866 2.58712,-2.83468c0.45417,1.29273 -0.43137,2.37805 0.26164,3.6966c0.55457,1.05515 1.35002,1.61948 2.24472,2.12536c-5.01712,1.8571 -14.95181,10.08951 -14.83553,9.72117z" data-paper-data="{&quot;noHover&quot;:false,&quot;origItem&quot;:[&quot;Path&quot;,{&quot;applyMatrix&quot;:true,&quot;segments&quot;:[[[411.34699,408.02386],[-9.41495,5.0833],[-1.9135,-0.75112]],[[406.3273,404.4848],[1.39384,1.93411],[-1.74178,-2.41692]],[[404.80791,397.26385],[1.26158,2.43271],[-4.26858,-8.23113]],[[400.49427,403.60774],[0,-2.11596],[0,9.97335]],[[386.41035,424.72565],[3.20408,-8.72475],[-0.26631,0.72517]],[[385.48269,427.98414],[0.3701,-1.29924],[0.43786,-0.37882]],[[386.82394,426.89155],[-0.45713,0.34787],[8.57583,-6.40439]]],&quot;closed&quot;:true}]}" fill="#000000" stroke="none" stroke-width="0.5" stroke-linecap="butt"/><path d="M186.91111,218.57125c2.22091,-7.03537 9.04345,-7.77095 9.74206,-12.70844c0.14822,-1.04755 1.05044,-7.20866 2.58712,-2.83468c0.45417,1.29273 -0.43137,2.37805 0.26164,3.6966c0.55457,1.05515 1.35002,1.61948 2.24472,2.12536c-5.01712,1.8571 -14.95181,10.08951 -14.83553,9.72117z" data-paper-data="{&quot;noHover&quot;:false,&quot;origItem&quot;:[&quot;Path&quot;,{&quot;applyMatrix&quot;:true,&quot;segments&quot;:[[[411.34699,408.02386],[-9.41495,5.0833],[-1.9135,-0.75112]],[[406.3273,404.4848],[1.39384,1.93411],[-1.74178,-2.41692]],[[404.80791,397.26385],[1.26158,2.43271],[-4.26858,-8.23113]],[[400.49427,403.60774],[0,-2.11596],[0,9.97335]],[[386.41035,424.72565],[3.20408,-8.72475],[-0.26631,0.72517]],[[385.48269,427.98414],[0.3701,-1.29924],[0.43786,-0.37882]],[[386.82394,426.89155],[-0.45713,0.34787],[8.57583,-6.40439]]],&quot;closed&quot;:true}]}" fill="#000000" stroke="none" stroke-width="0.5" stroke-linecap="butt"/></g><g stroke-width="0.5"><path d="M222.10352,238.25627c-1.68799,0.33014 -3.49337,0.44213 -5.69067,0.44213c0,0 -0.27253,0 -0.49194,-0.15865c-0.5296,0.50411 -1.26521,1.02114 -1.71353,1.45699c-3.09702,2.41191 -6.41479,3.43152 -9.79109,5.37621c-3.07382,1.77047 -6.41613,4.47326 -9.92346,5.1842c0.1401,1.02392 0.02256,2.18012 -0.43039,3.50397c-0.44343,1.29604 -0.78449,1.38953 -1.4213,2.45274c-1.05851,1.76727 -1.78461,4.32479 -4.05372,4.50373c-6.58935,0 -15.45328,0.83954 -20.44895,-4.16472c-0.0727,0.02008 -0.15571,0.03153 -0.25046,0.03153c-0.7635,0 -0.7635,-0.74397 -0.7635,-0.74397l0.01482,-0.64189c0.98002,-4.77479 5.56614,-6.99746 9.26219,-9.82407c2.78091,-2.12675 5.36757,-4.46823 9.1042,-3.27408c3.33234,1.84514 7.28155,3.59058 8.59403,6.71701c3.31234,-0.58257 6.64297,-3.3585 9.53826,-5.02465c3.30206,-1.90024 6.53567,-2.85151 9.55099,-5.20475c0.30634,-0.29927 2.66756,-1.99686 2.19312,-2.60196c-0.97202,-1.23972 -3.5314,-1.9863 -5.01413,-2.29426c-4.08345,-0.84814 -8.00689,-0.23844 -11.57557,-2.5711c-0.818,-0.79708 -2.09403,-1.36341 -2.5883,-2.42094c-1.60897,-3.44256 1.40682,-5.21244 4.17513,-6.36811c5.05019,-2.10828 10.3219,-2.1724 15.72059,-2.09433c1.90304,1.01977 6.8423,2.89334 7.63799,5.06955c1.72245,4.71096 -3.44307,8.14011 -7.33545,9.74296c0.42726,0.52665 0.62571,1.14123 0.39478,1.86214c1.70482,0.01278 3.45789,0.09676 5.1559,-0.10949c0.22621,-0.22269 0.56786,-0.22269 0.56786,-0.22269c0.18636,0 0.54238,0 0.72875,0c0.69925,-0.15951 1.38409,-0.38677 2.04681,-0.70864c-0.11003,-0.24029 -0.16381,-0.55385 -0.13999,-0.95287c0.06406,-1.07309 2.80616,-2.88065 3.65088,-3.61236c1.21029,-1.04836 2.6599,-2.06002 3.70061,-3.27201c2.24638,-2.6161 3.3092,-5.93356 7.33912,-3.11388c0.80846,0.76018 2.57925,1.67926 3.05199,2.67586c1.19998,2.52966 -1.7236,4.7023 -3.55062,5.79828c-4.92568,2.95476 -10.02651,4.67357 -15.80954,4.67357c-0.28278,0 -0.56556,0 -0.84833,0h-0.16967c0,0 -0.21539,0 -0.41736,-0.11148z" fill="#ff2d32" stroke="none" stroke-linecap="butt"/><path d="M190.88945,263.81691l-0.64715,-0.40303c0,0 -0.10924,-0.07097 -0.20693,-0.19818c-1.70327,-0.69143 -3.41026,-2.38505 -3.41531,-4.07851c-0.00046,-0.155 1.02334,-2.77204 1.12413,-3.0331c2.02023,-5.23254 5.36894,-8.92748 9.77095,-12.49248c2.69503,-2.18028 5.61903,-3.92532 8.43505,-5.93834c1.73354,-1.23922 3.35113,-3.02155 5.20148,-4.04083c2.81273,-1.54942 5.99053,-2.71124 8.65303,-4.46384c2.82093,-1.32688 6.40243,-0.3177 9.47003,-0.59287c4.44361,-0.3986 8.55723,-0.4996 13.05478,-0.4996c2.40899,0.08579 3.68145,2.47867 5.14815,4.08971c3.33499,3.66321 6.40856,9.00019 6.97736,13.92237c0.13247,1.1464 0.34221,2.87587 -0.26264,3.91462c-0.09948,0.17085 -2.39952,1.98205 -2.61442,2.15328c-9.9257,4.40457 -19.86274,5.79383 -30.64731,6.81195c-3.93874,0.37184 -7.53552,1.50067 -11.39158,2.22161c-5.52781,1.03349 -11.5961,1.16725 -16.6609,3.56902l-0.78741,0.01685c-0.20789,0.05138 -0.38303,-0.00264 -0.51497,-0.08067c-0.13943,-0.06352 -0.2823,-0.1751 -0.35394,-0.37112c-0.11081,-0.16894 -0.22162,-0.33788 -0.33243,-0.50682z" fill="#ab164a" stroke="none" stroke-linecap="butt"/><path d="M257.26158,270.60178c-1.69341,-1.22759 -3.7114,-3.05483 -4.41768,-4.97295c-1.16094,-3.15288 0.98627,-5.20205 1.68622,-8.03111c0.56808,-2.29606 0.72072,-4.95726 0.20605,-7.26105c-1.86906,-2.94182 -6.35479,-3.86161 -9.80756,-5.12886c-0.8428,-0.30932 -1.87441,-0.16507 -2.61396,-0.66589c-3.97491,-2.69174 -1.14066,-8.27456 2.37664,-9.44749c3.72149,-1.01531 10.22589,-0.9916 14.091,-0.35428c1.3234,0.21822 1.23934,-2.16082 5.39869,-4.49242c2.62842,-1.47339 10.00878,-3.37472 10.81814,-3.17314c2.69789,0.67193 -1.87193,10.27679 0.88557,10.3012c7.54,-0.00004 10.96141,-1.95029 17.93582,-4.55953c1.53729,-0.57512 5.20978,-1.27632 6.03084,-2.72393c0.60804,-3.91797 3.07379,-4.75438 6.7022,-5.27181c1.05705,-0.15074 1.7825,-1.125 2.95949,-0.61428c2.65307,1.15119 2.52692,5.19444 0.73622,6.85377c-1.28407,1.18987 -2.89701,2.25822 -4.28789,3.34511c-0.62284,0.46812 -1.49747,0.59853 -2.04305,1.15064c-0.41141,0.41633 0.28395,1.12906 0.52828,1.65571c0.78265,1.68701 2.98925,1.57591 4.43516,2.22589c3.74822,1.68494 10.23013,7.34622 9.03974,11.64208c-1.21785,3.26083 -1.42618,7.43399 -4.07785,10.04008c-1.88643,1.85401 -4.32822,1.85464 -6.823,2.23845c-4.09705,0.63031 -8.03438,1.28723 -12.18365,1.4782c-10.2733,0.47284 -21.80712,0.1155 -30.91626,4.99824c-1.86127,0.88103 -3.49333,1.92122 -5.6001,1.92947l-0.68078,-0.24387c0,0 -0.62821,-0.30607 -0.3783,-0.91821z" fill="#ff2d32" stroke="none" stroke-linecap="butt"/><path d="M219.82426,212.2783c0.01589,-0.01715 0.02512,-0.02614 0.02512,-0.02614l0.05991,0.0031c0.00053,-0.00013 0.00107,-0.00026 0.0016,-0.00039c3.27514,-5.24586 9.47394,-6.0736 15.33151,-5.82228c11.67153,0.50076 23.7274,1.24831 35.15958,3.61164c1.25468,0.52374 4.78516,1.94176 5.24093,2.54882c0.54508,0.72601 -0.00859,1.80421 -0.13315,2.69554c-0.75593,5.40934 -4.63046,8.62767 -9.4316,10.9833c-4.44257,2.1797 -12.1504,1.97939 -16.87466,0.80341c-3.75113,-0.93376 -6.16282,-2.36419 -10.12471,-2.36778c-0.93763,0.14164 -2.00136,-0.00702 -2.80182,0.48938c-3.13456,1.94383 -3.18915,7.56813 -8.06547,7.59233c-2.65023,0.01315 -3.81459,-2.63594 -4.73914,-4.54231c-1.0873,-2.24195 -1.02642,-4.73065 -1.56347,-7.11771c-0.56334,-2.50394 -1.91502,-4.48201 -3.0727,-6.73438c0,0 -0.6829,-1.33086 0.6829,-1.99629c0.10582,-0.05156 0.20755,-0.09113 0.30517,-0.12027z" fill="#0f1b82" stroke="none" stroke-linecap="butt"/><path d="M274.99545,222.47846c0.25881,-0.39025 0.65931,-0.58538 0.65931,-0.58538l0.55425,-0.24154c1.42222,-0.38647 2.92972,-0.36607 4.38591,-0.60384c1.72646,-0.2819 3.27033,-1.23761 4.96251,-1.67431c3.70111,-0.95513 7.97324,-1.61268 11.79122,-1.46201c2.91498,0.11504 7.60292,2.78078 6.65101,6.3687c-0.45586,1.71821 -3.08674,3.27166 -4.36758,4.42292c-1.63667,1.4711 -2.4275,3.80985 -3.41769,5.70369c-2.36483,2.58784 -5.54652,7.0558 -8.90359,8.44519c-3.43468,1.4215 -5.41518,-1.63887 -7.00359,-3.91634c-0.91804,-1.31631 -2.16377,-2.41211 -2.9767,-3.79248c-0.94412,-1.60314 -0.94882,-3.62282 -1.56202,-5.33531c-0.68605,-1.91598 -1.4941,-3.54764 -1.94198,-5.5635c0,0 -0.31935,-1.45216 1.16891,-1.7658z" fill="#0f1b82" stroke="none" stroke-linecap="butt"/><path d="M219.3294,213.44601c0,0 2.88357,7.03621 3.38939,8.8383c0.8543,3.04365 2.57321,8.02509 2.57321,8.02509l-6.98059,-7.794l-7.56231,-0.99196l-6.10803,0.85025l-5.52631,0.85025l2.47229,-9.63623l2.76316,-4.10957l8.14403,1.98393l6.10803,2.97589z" fill="#0066cc" stroke="#0066cc" stroke-linecap="round"/><path d="M279.6825,209.05303l18.32407,4.95982l3.05401,5.24323c0,0 -11.30557,14.93725 -14.55291,15.40009c-1.94971,0.22248 -11.18805,-9.02317 -11.18805,-9.02317l-10.32547,4.10956l-5.38088,3.54273l-0.14542,4.25128l-11.63433,-3.1176l-2.47229,-4.6764l-7.70775,-6.23521c0,0 10.07279,3.73632 18.91012,2.01283c11.43972,-2.23101 15.99288,-6.97265 15.99288,-6.97265z" fill="#0066cc" stroke="#0066cc" stroke-linecap="round"/><path d="M270.5932,196.29921c0,-1.48795 1.527,-1.48795 1.527,-1.48795l0.60016,0.00859c5.05316,0.53869 10.49462,2.12504 15.2551,3.85935c1.0863,0.42071 2.30141,0.60873 3.25893,1.26212c2.6747,1.82511 1.87627,5.75845 2.90021,8.30002c0.88239,2.19023 3.8734,1.48046 3.64888,4.75777c-0.132,1.92678 -2.44263,3.14608 -4.02553,3.47198c-1.67025,0.34388 -2.62896,-0.33058 -3.99656,-0.98566c-3.08589,-1.47814 -5.93631,-3.76963 -9.27024,-4.5538c-1.36107,0.897 -2.67606,1.84358 -3.99165,2.80366c-0.16941,0.19248 -0.41979,0.3556 -0.78779,0.44176c-0.26888,0.08145 -0.61273,0.11881 -0.96176,-0.02396c-0.35558,-0.12649 -0.58171,-0.38163 -0.72209,-0.61947c-0.21041,-0.30785 -0.28004,-0.59411 -0.26952,-0.84804l-0.244,-1.31651c-0.35513,-4.47261 -0.15896,-8.99225 -0.15798,-13.47762c-0.32287,-0.04208 -0.64423,-0.07979 -0.96371,-0.11289l-0.27243,0.00859c0,0 -1.527,0 -1.527,-1.48795z" fill="#fddfbd" stroke="none" stroke-linecap="butt"/><path d="M277.79193,190.63084l14.83378,8.78596v4.81812c0,0 -2.43078,1.09621 -8.64736,-1.56417c-6.37438,-2.7279 -10.25844,-7.2218 -10.25844,-7.2218z" fill="#f89587" stroke="#f89587" stroke-linecap="round"/><path d="M246.85597,173.75805c3.51282,-2.85192 8.17641,-5.68384 12.56531,-7.07055c2.7988,-0.88432 6.45357,-0.361 9.35406,-0.35978c3.42602,0.00144 8.51398,-0.13426 11.57504,1.56694c4.62374,2.56967 1.35374,5.16932 -1.88306,6.46254c-1.86656,0.2654 -3.7226,0.38399 -5.57472,0.44665c-0.12099,0.68145 -0.61725,0.96261 -1.00614,1.07862c-3.15268,2.33696 -6.80279,1.78158 -10.67186,1.78843c-4.19801,0.00745 -8.10759,0.19749 -12.06344,-0.29924c-0.04381,0.00879 -0.0876,0.01756 -0.13137,0.02633l0.00714,0.34837l-3.0484,0.05941c-0.01182,0.00027 -0.02366,0.0004 -0.03554,0.0004c-0.84334,0 -1.527,-0.66617 -1.527,-1.48795c0,-0.77733 0.61172,-1.41544 1.39167,-1.48218l0.47024,-0.04589c0.06354,-0.61427 0.5781,-1.0321 0.5781,-1.0321z" fill="#f89587" stroke="none" stroke-linecap="butt"/><path d="M246.6469,184.6173l0.74628,0.03088c2.39544,-1.26794 4.81699,-2.3402 7.2095,-3.64245c1.91431,-1.04197 4.07568,-2.81739 6.28145,-3.257c4.77359,-0.95138 9.78183,-0.82377 14.56565,-1.75457c3.74781,-0.72922 7.04328,-2.06329 10.88447,-2.61734c2.03749,-0.28829 5.80947,-1.18541 7.58465,0.44961c0.68953,0.63508 -0.23506,1.83811 -0.44829,2.73899c-0.45246,1.91157 -0.96448,4.10828 -0.26239,6.10355c0.73852,2.09884 1.91463,5.11527 3.04644,7.04284c0.7806,1.32944 1.89308,1.9518 2.09311,3.92438c0.70684,6.97047 -9.5174,5.05449 -13.50559,3.1557c-3.05981,-1.35799 -5.80936,-2.88914 -8.20506,-5.12713c-0.11901,-0.11118 0.23037,0.27254 0.21777,0.43272c-0.03649,0.46407 -0.2264,0.90458 -0.35809,1.35197c-0.62518,2.12396 -1.04727,3.91967 -1.41636,6.07187c-0.83787,4.88577 -0.00954,9.59644 0.02034,14.46565c0.07659,0.46143 -0.06729,0.80379 -0.27054,1.04952c-0.17499,0.26564 -0.46286,0.50694 -0.93645,0.58202l-0.35381,0.11327c-2.3363,0.61306 -4.36084,1.81238 -6.82015,2.03128c-2.10564,0.18742 -3.78888,-0.11481 -5.84394,0.55269c-11.78708,0.10606 -24.69372,0.93602 -35.18637,-4.99961c-3.38665,-1.9158 -6.08231,-3.3979 -8.10818,-6.79434c-0.06351,-0.94559 -0.33402,-1.89952 -0.19053,-2.83675c0.60604,-3.95855 5.71873,-5.71675 8.74355,-7.4025c2.34003,-1.30411 4.21007,-3.31325 6.5384,-4.67309c4.04531,-2.36263 8.59442,-3.91139 12.6462,-6.23175c0,0 0.06079,-0.03455 0.16387,-0.0761c0.37777,-0.5992 1.16405,-0.68432 1.16405,-0.68432z" fill="#feebf7" stroke="none" stroke-linecap="butt"/><path d="M274.11077,203.78323l-5.34452,-24.7991l5.09002,9.54765l3.05401,3.71986z" fill="#db93e6" stroke="#db93e6" stroke-linecap="round"/><path d="M243.18889,177.49618l3.30851,-3.22388l6.87153,2.35591l7.76228,0.124l6.87153,-1.73594l8.01678,-5.20781l9.79829,-6.57176l6.23528,-0.74397l2.41776,2.10792l2.29051,3.96786l-2.92676,5.5798l-49.24595,13.01953z" fill="#db93e6" stroke="#db93e6" stroke-linecap="round"/><path d="M275.16243,240.42523c1.25281,-1.02609 2.80154,-0.77273 4.42655,-0.99849c1.79011,-0.15793 2.78758,3.91754 5.03066,3.83107c3.56369,-0.13737 8.4613,-4.2285 10.96571,-2.86763c2.58686,1.40569 2.06593,4.70783 4.70807,5.39829c1.12154,0.4696 2.80526,0.47625 3.7635,1.22042c0.71857,0.55803 0.53754,1.71503 0.88539,2.54374c0.42488,1.01225 2.93888,0.79167 3.29962,1.83987c0.18209,0.52908 -0.09294,1.18198 -0.455,1.61435c-0.18495,0.22085 -1.66339,0.34623 -2.00348,0.41248c-2.3132,0.45064 -4.55326,0.86268 -6.88065,1.24164c-2.66111,0.5127 -5.39616,0.3116 -8.09145,0.50563c-5.10192,0.3673 -11.16186,1.9016 -15.75509,4.13984c-1.73121,0.84182 -7.52738,3.97789 -8.94406,0.9644c-0.66408,-1.41261 1.41764,-2.86901 1.23478,-4.22263c-0.16351,-1.21042 -2.1219,-0.11635 -2.76178,-1.60516c-0.50504,-1.17506 1.03626,-1.98906 0.58436,-3.09428c-4.631,0.42407 -2.95203,-3.76046 -1.07072,-5.73362c2.21041,-2.31835 7.70438,-4.98955 11.06364,-5.18993z" fill="#feebf7" stroke="none" stroke-linecap="butt"/><path d="M241.7369,230.29087c0,0 2.37736,1.15828 2.37736,2.31654c0,1.15827 -2.97057,1.52941 -3.29359,1.37413c-0.41527,-0.1806 -1.41927,-3.55756 0.91623,-3.69067z" fill="#000000" stroke="none" stroke-linecap="butt"/><path d="M247.52825,193.26261c1.12363,3.80342 2.02416,8.17144 3.69241,11.79147c2.58272,-1.37284 8.33546,-5.05161 9.61268,-8.72687c0.29247,-0.84159 0.35026,-1.68301 0.08157,-2.49651c-0.05903,-0.17869 -1.52739,-0.37717 -2.30734,-0.4246c-1.082,-0.06579 -1.66259,0.04451 -2.67894,-0.12302c-1.19903,-0.19765 -0.88798,-0.93801 -2.05497,-0.91972c-3.33676,0.05229 -5.93573,0.77172 -6.3454,0.89926zM238.73993,199.76277c-2.42428,3.54043 0.04221,5.95809 3.15802,6.66477c1.82505,0.41394 3.53851,-0.16642 5.51059,-0.37014c0.42952,-0.16325 0.62004,-0.34535 1.07606,-0.54425c-1.69971,-3.67025 -2.3863,-7.21946 -3.52853,-11.06265c-1.65031,0.9018 -5.13658,3.73569 -6.21614,5.31226zM261.0538,190.45238c3.76455,1.2921 4.02415,4.08862 1.88535,7.41734c-1.84069,2.86477 -3.99913,5.66402 -7.28231,7.96987c-2.20445,1.54824 -5.40513,2.94214 -7.52558,3.72914c-2.37193,0.26605 -7.20535,-0.01185 -9.47647,-0.94098c-5.4976,-2.2491 -5.17373,-7.16005 -1.96051,-11.85969c1.69651,-2.48132 6.36198,-5.35691 12.37851,-6.58055c4.55722,-0.92684 10.93899,-0.0928 11.981,0.26485z" fill="#ff0000" stroke="none" stroke-linecap="butt"/><path d="M278.02329,239.6697c0,0 1.53317,0.10264 2.83374,0.1897c0.83897,0.05616 2.87626,3.63035 4.6199,3.74707c1.57314,0.10532 2.81258,-3.24952 4.38824,-3.14403c2.66024,0.17809 4.82794,0.3232 4.82794,0.3232c0,0 -7.08965,11.15959 -9.79829,11.40759c-1.07565,0.09848 -10.43454,-11.40759 -10.43454,-11.40759z" fill="#db93e6" stroke="#db93e6" stroke-linecap="round"/><path d="M240.73891,245.99347l1.14525,-6.19977c0,0 6.36805,0.30318 9.50876,1.17105c2.20624,0.60964 7.03381,3.66477 7.03381,3.66477l-5.09002,2.35591z" fill="#ab164a" stroke="#ab164a" stroke-linecap="round"/><path d="M312.25369,226.81062v0.08754c-0.00376,2.3343 -0.99573,4.1212 -2.66641,5.75718c-2.91712,2.36437 -6.19335,3.88393 -9.40641,5.78948c-1.02566,0.60828 -3.47507,2.35748 -4.68067,2.33963c-3.68711,-0.05461 -1.52975,-4.56099 -0.29829,-5.76095c4.60608,-3.59433 10.56394,-6.79088 15.9875,-9.05714c0,0 0.70177,-0.29307 1.00253,0.39075c0.07772,0.1767 0.08849,0.32732 0.06173,0.45352z" fill="#ab164a" stroke="none" stroke-linecap="butt"/><path d="M184.34202,240.51013l0.08616,-0.20989c2.99746,-3.27781 8.31527,1.09676 11.06711,3.01258c0.76592,0.59801 2.14871,1.5364 2.46561,2.49639c0.57994,1.75682 -0.22391,4.34527 -2.59255,3.7809c-1.8872,-0.44966 -2.38922,-2.40587 -3.83403,-3.42708c-2.26767,-1.60282 -5.1569,-2.8466 -7.58142,-4.26411c0,0 -0.6547,-0.38277 -0.26188,-1.02072c0.19028,-0.30903 0.44202,-0.37854 0.65102,-0.36808z" fill="#feebf7" stroke="none" stroke-linecap="butt"/><path d="M191.88489,239.39823c-0.03061,0.22538 -0.15961,0.53677 -0.62695,0.61267c-0.75312,0.12231 -0.87863,-0.61155 -0.87863,-0.61155l-0.17746,-1.05291c0.01942,-2.69632 1.88812,-3.32866 4.34698,-2.53214c3.55987,1.15319 7.78577,3.57755 10.38655,6.10779c1.96281,2.54516 0.49843,6.03214 -3.11416,4.46906c-3.54336,-1.53313 -7.11481,-4.33492 -9.93634,-6.99292z" fill="#feebf7" stroke="none" stroke-linecap="butt"/><path d="M201.02194,237.44496c-0.19299,0.09615 -0.38816,0.09615 -0.38816,0.09615l-0.62777,-0.14879c-1.98498,-1.57485 -1.55215,-4.58993 1.16205,-5.12826c3.31683,-0.65785 6.18654,0.82907 9.36201,1.74248c3.36487,1.51327 5.47445,6.96701 0.83809,7.33578c-3.61505,0.28753 -7.1382,-2.14436 -10.34624,-3.89737z" fill="#feebf7" stroke="none" stroke-linecap="butt"/><path d="M186.21206,262.00955c0.24526,0 0.41173,0.07677 0.52473,0.18098c0.18162,0.00542 0.36323,0.01084 0.54485,0.01626c2.64518,1.66236 4.83179,7.957 0.48371,9.20149c-1.89363,0.54199 -5.12312,0.12858 -6.99704,-0.32767c-3.27168,-0.79657 -6.85897,-0.83649 -10.21355,-1.49685c-3.1109,-1.20434 -6.73883,-2.78119 -8.44561,-5.84796c-1.7375,-3.12199 0.78696,-7.01893 3.70392,-8.24726c0.20337,-0.12542 0.39485,-0.12641 0.55141,-0.08239c0.16692,0.02808 0.34598,0.11593 0.47395,0.33286l0.42397,0.51051c0.51916,1.24271 0.88615,2.91679 2.08999,3.7512c1.26012,0.87341 3.59891,0.81678 5.08436,1.02346c3.73057,0.51904 7.71405,0.39063 11.4287,1.05075c0.09316,-0.04056 0.20713,-0.06538 0.34657,-0.06538z" fill="#feebf7" stroke="none" stroke-linecap="butt"/><path d="M277.89606,277.73631c-8.14098,0 -14.11124,-2.72984 -20.8814,-6.04656c-0.00908,0.02728 -0.01803,0.05463 -0.02686,0.08205c0,0 -0.24144,0.70579 -0.96576,0.47053c-0.72432,-0.23526 -0.48288,-0.94106 -0.48288,-0.94106c0.03403,-0.09544 0.06926,-0.19015 0.10565,-0.28415c-0.53731,-0.264 -1.08068,-0.53071 -1.63154,-0.79909c0,0 -0.6829,-0.33271 -0.34145,-0.99814c0.34145,-0.66543 1.02435,-0.33271 1.02435,-0.33271c0.53338,0.25986 1.05931,0.5183 1.5792,0.77432c3.11481,-5.69578 10.77688,-8.44514 16.62396,-10.18154c3.63249,-1.07014 3.44521,-0.79364 6.88844,-2.31788c4.54759,-2.01311 3.20095,-0.52044 8.12305,-1.00006c0.33759,-0.00039 18.95594,-2.35684 18.95594,-2.35684c3.51525,0.00002 0.47907,-3.52725 3.38181,-1.27004c0.86789,1.04593 2.68234,3.34915 3.90249,4.78791c1.61169,-3.02577 1.5185,-7.69231 1.92483,-11.28775c0,0 0.08431,-0.73942 0.84315,-0.65727c0.06434,0.00696 0.12262,0.01866 0.17539,0.03422c0.62146,-0.23307 0.93219,0.37248 0.93219,0.37248c1.00268,1.95408 2.51281,3.87479 3.11175,5.97981c1.62675,5.71729 -2.13065,11.69487 -5.48886,16.06233c-3.20316,3.98721 -7.04714,6.42064 -11.85154,8.27222l-0.98011,0.14179c0,0 -0.43956,0.06118 -0.69615,-0.23639c-8.15242,0.09306 -16.01161,1.73182 -24.22568,1.73182z" fill="#ab164a" stroke="none" stroke-linecap="butt"/><path d="M275.01864,230.50767c0.03583,1.16294 5.83082,7.37445 4.54444,8.24914c-0.2843,0.13817 -0.65696,0.36532 -1.08587,0.63424c-1.8367,1.15156 -4.70497,3.06897 -6.08381,2.04466c-0.65956,-0.48997 -0.13674,-3.80654 -0.09486,-4.41678c0.23583,-3.43602 0.82807,-6.50067 1.67554,-9.80524c0,0 0.18517,-0.72176 0.92589,-0.54132c0.517,0.12594 0.02658,0.84637 0.11868,3.8353z" fill="#ab164a" stroke="none" stroke-linecap="butt"/><path d="M319.99477,248.53537c0,-0.74397 0.7635,-0.74397 0.7635,-0.74397h0.16967c2.36395,0.0234 4.16554,1.5228 5.96923,2.86315c1.11624,1.53262 0.73263,3.4801 0.73263,5.32056c0,5.74253 -3.04478,13.29183 -8.18497,16.68022c-6.44856,3.14707 -13.11942,5.87286 -20.01802,7.84041c-2.59613,0.74044 -4.74305,1.67749 -7.51197,1.68375c-9.28344,0 -17.85208,-0.55752 -26.96967,-2.02161c-7.67671,-1.23277 -18.37165,-6.4337 -16.5375,-15.55454c0.28361,-1.65815 0.70715,-4.48283 2.07745,-5.68242c0.83349,-0.72966 1.95786,-1.1804 2.86878,-0.05635c0.5936,0.73248 0.04094,3.25381 -0.04099,4.11566c-0.25001,2.62968 0.03655,4.9576 2.46272,6.38122c7.5465,2.94138 13.88225,5.41903 22.34871,4.38778c7.475,-0.01009 15.78543,0.18527 22.84636,-2.59643c6.41521,-2.33911 11.88615,-6.60142 17.00316,-10.8796c0.14986,-2.63448 1.38689,-5.05376 2.59693,-7.41344l0.1054,-0.25734c-0.24237,-1.20229 -0.50836,-2.41501 -0.51174,-3.57108c0,0 0,-0.00062 0.00002,-0.00184c-0.09869,-0.1096 -0.16968,-0.26728 -0.16968,-0.49415z" fill="#feebf7" stroke="none" stroke-linecap="butt"/><path d="M248.98899,269.8626c0,0 13.30598,16.72583 54.78366,5.34904c7.71944,-2.11734 15.50641,-8.38897 19.71592,-14.16989c3.10069,-4.25817 2.69906,-9.86114 2.69906,-9.86114c0,0 0.82423,2.52869 1.00279,4.61662c0.21168,2.47507 0.18488,9.27088 0.18488,9.27088l-7.46536,7.93571l-19.68141,7.10908l-23.24442,2.14926l-15.10039,-2.31458l-8.14403,-4.29851z" fill="#db93e6" stroke="#db93e6" stroke-linecap="round"/><path d="M245.65961,252.66428c1.98272,-0.81074 2.68233,-1.67147 4.29461,-3.06664c0.41966,-0.36316 1.64127,-1.3692 2.27444,-1.26124c1.66395,0.2837 1.86492,1.81705 2.4801,2.96972c0.17623,0.3302 1.37387,2.24851 1.3536,2.6592c-0.05741,1.16334 -1.2263,1.94678 -1.97734,2.6138c-1.97843,1.75708 -3.64403,3.76988 -5.74417,5.43485c-4.48549,2.29477 -10.71,1.96434 -15.66471,2.08674c-2.83483,0.07002 -5.56739,0.46967 -8.407,0.20768l-0.73383,-0.11292c0,0 -0.60308,-0.09406 -0.64412,-0.63951c-3.73426,0.23815 -7.365,0.91801 -10.91793,2.25075c-3.36613,1.30853 -6.40865,3.30035 -9.75492,4.6288c-3.60467,1.43104 -8.39756,1.62236 -12.24134,1.62236c0,0 -0.29618,0 -0.5196,-0.17975c-0.35255,0.03631 -0.62626,-0.23041 -0.62626,-0.23041l-0.53535,-0.52524c-0.87426,-0.60669 -3.61661,-4.05618 -4.21074,-4.96869c-0.22683,-0.34839 -0.31847,-1.85228 -0.32188,-1.94826c-0.00932,-0.26319 0.64491,1.43771 0.99456,0.7704c0.12717,-0.24271 0.21404,-1.67689 0.21404,-2.07341c0,0 0,-0.74397 0.7635,-0.74397c0.25806,0 0.4289,0.08499 0.542,0.19752c1.7253,-1.16848 4.65389,-0.63115 6.66889,-0.63115c4.64753,0 9.77798,0.70188 14.10952,-1.25757c4.94108,-2.09332 9.88727,-4.3153 15.00149,-5.97865l0.12267,-0.13738c0,0 0.6108,-0.44638 1.0689,0.14879c0.0301,0.03911 0.0556,0.07758 0.07694,0.11533c7.33578,-0.0171 15.1636,-0.57578 22.3339,-1.95114z" fill="#db93e6" stroke="none" stroke-linecap="butt"/><path d="M202.91015,248.43603l-0.50871,-0.65389c0,0 -0.07046,-0.09154 -0.14623,-0.24287c-0.41284,0.04536 -0.91815,-0.06323 -1.33742,-0.64686c-0.87567,-1.21897 0.37528,-2.07225 0.37528,-2.07225c0.48477,-0.33065 0.96953,-0.66131 1.45429,-0.99196l0.69352,-0.40911c0.06835,-0.04479 0.14362,-0.08757 0.22641,-0.12791c0.44585,-0.21722 0.81893,-0.22171 1.11924,-0.12921c0.30432,0.07907 0.61659,0.27803 0.87306,0.69453c0.06818,0.11073 0.12058,0.21762 0.15943,0.32049c0.51838,1.15544 0.76178,2.44555 0.78532,3.70436v0.48926c0.06333,0.30072 0.03904,0.65983 -0.22063,1.01843c-0.14235,0.25126 -0.37655,0.4941 -0.76186,0.61299c-0.37033,0.15775 -0.71068,0.12529 -0.98761,0.02753c-0.43776,-0.10325 -0.69872,-0.35793 -0.85429,-0.62488c-0.28994,-0.32288 -0.57988,-0.64576 -0.86981,-0.96864z" fill="#db93e6" stroke="none" stroke-linecap="butt"/><path d="M213.41106,236.48912c0.38136,-0.18579 0.70946,-0.21596 0.98434,-0.16292c0.27502,0.05232 0.56699,0.20129 0.84775,0.51396c0.17352,0.19323 0.28289,0.38231 0.34505,0.5629c0.52239,0.99817 1.30363,2.39473 1.19426,3.46787c-0.15538,1.52468 -1.35533,3.93167 -3.23212,4.21215c-2.01714,0.30145 -4.273,-0.76123 -4.33679,-2.91015c-0.28439,-0.1231 -0.55791,-0.36353 -0.74657,-0.80475c-0.5873,-1.37349 0.82223,-1.94578 0.82223,-1.94578c0.96954,-0.3736 1.87392,-0.96613 2.5981,-1.697l0.98116,-0.83746c0.1281,-0.14614 0.30412,-0.28261 0.5426,-0.3988z" fill="#db93e6" stroke="none" stroke-linecap="butt"/><path d="M199.7692,250.99894c0,0.79788 -0.64449,1.44908 -1.45386,1.48627c-0.19846,0.09194 -0.42049,0.14339 -0.65485,0.14339c-0.84334,0 -1.527,-0.66617 -1.527,-1.48795c0,-0.1137 0.01309,-0.22442 0.03788,-0.33081l-0.72695,-0.41047c-0.39262,0.14127 -1.32227,0.33814 -1.88763,-0.67185c-0.73121,-1.30626 0.60934,-2.01877 0.60934,-2.01877c0.53324,-0.28341 1.06648,-0.56684 1.59972,-0.85025l0.62438,-0.30526c0.00187,-0.00092 0.00375,-0.00184 0.00564,-0.00276c0.47434,-0.2311 0.8663,-0.22142 1.1759,-0.11033c0.31609,0.09213 0.63562,0.31356 0.87279,0.77576c0.04191,0.08167 0.0761,0.16084 0.10337,0.23749c0.37237,0.78085 1.01679,1.52978 0.91071,2.36679c-0.00961,0.07582 -0.02644,0.14869 -0.04949,0.219c0.22465,0.25909 0.36007,0.59401 0.36007,0.95974z" fill="#db93e6" stroke="none" stroke-linecap="butt"/><path d="M200.18746,236.47374c2.93345,0.25689 5.13732,1.71908 6.85081,2.68678c2.37067,1.33883 5.33701,7.38205 7.70779,3.0194c1.56901,-2.43277 -0.39677,-4.94761 -2.68501,-6.30062c-0.71237,-0.42121 -8.75029,-2.14504 -9.848,-2.13091c-3.53323,0.04548 -2.51381,2.56865 -2.02559,2.72534zM213.14661,234.20088c1.49923,0.89145 4.69938,3.93473 5.07728,6.26094c0.36237,2.23061 -2.38202,4.74165 -2.56347,4.95297c-3.67639,4.28117 -6.23633,-1.71961 -9.02839,-3.25287c-0.88894,-0.48817 -1.90847,-1.52347 -2.85432,-1.7824c1.94446,1.66694 3.14704,2.99471 3.88751,4.64777c0.77722,1.73512 0.07389,4.41387 -1.80688,6.28255c-0.36774,0.1673 -0.99095,0.46626 -1.59193,0.08361c-1.40702,-0.89587 -3.07225,-3.30516 -3.7785,-3.9424c-0.57105,-0.51526 -1.14663,-1.03787 -1.72913,-1.55986c1.30025,1.90558 2.17042,3.93539 1.67245,6.50185c-0.33552,0.89975 -1.55852,1.4797 -2.70997,1.57421c-0.76491,0.06277 -1.49823,-0.13487 -1.91884,-0.42769c-2.46313,-1.71481 -3.82291,-4.29102 -5.62522,-6.58138c-0.90101,-1.14499 -3.14793,-3.41753 -4.6307,-4.02301c-5.17156,2.13571 -12.9308,5.23881 -15.07931,7.80697c-0.9504,1.13604 -1.26247,4.0957 -0.62045,5.60957c0.34688,0.81793 1.15299,0.98399 1.85127,1.49694c3.44973,1.90073 25.00037,3.97305 30.36628,2.94388c2.70423,-0.51867 3.72101,-1.56617 6.36911,-2.34721l0.52931,-0.2116c0,0 0.21568,-0.08407 0.49962,-0.09057c1.45014,-0.77343 4.12387,-1.63106 5.81891,-2.31238c2.17273,-0.87333 3.39201,-1.51499 5.34358,-1.93657c3.31594,-0.71632 5.71647,-0.4808 9.28988,-0.82598c3.94842,-0.3814 15.05601,-1.341 16.61477,-2.32453c1.4629,-0.92305 2.75017,-2.84925 2.75017,-2.84925c-2.55522,0.40802 -4.67414,-0.01555 -6.88007,-0.01555c-0.65782,-0.04681 -1.39652,0.17106 -1.97344,-0.14042c-0.14034,-0.07577 -0.25613,-0.19296 -0.3508,-0.34312c-0.22921,-0.10047 -0.45195,-0.21704 -0.66649,-0.33446c-0.23665,-2.35572 -0.19546,-4.03325 0.43171,-5.85219c0.2043,-1.05242 1.15104,-3.19172 2.40244,-5.0421c0.0648,-0.20156 -1.71459,-0.16086 -1.30884,-0.34893c0.30746,-0.14252 2.34188,-0.81266 2.77414,-0.87067c0.34683,-0.20757 0.7273,-0.37931 1.14478,-0.50547c0.47194,-0.14261 0.97736,-0.24611 1.50681,-0.31618c-2.01507,-2.36293 -4.16683,-6.82899 -8.69381,-8.21639c-0.32208,-0.09871 -1.47073,-0.18952 -2.0962,0.38797c-0.78743,0.72702 -1.12458,2.24954 -2.19912,3.18417c-2.59987,2.26134 -4.277,3.86016 -4.81562,3.85754c-0.0044,0.13895 -0.25042,2.49494 -1.50343,3.16998c-2.80706,1.51224 -8.06451,1.83629 -8.5151,1.30943c-0.39577,-0.46276 3.46675,-2.01951 5.5766,-3.21738c1.36448,-0.77468 1.296,-1.3468 1.22572,-1.55251c-0.01194,-0.02893 -0.0223,-0.05747 -0.03129,-0.08525c-0.0022,-0.00559 -0.00443,-0.01119 -0.00668,-0.01676c0,0 -0.00457,-0.01335 -0.01098,-0.03742c-1.66758,-2.53808 -4.343,-7.51091 -9.72181,-9.3488c-4.58114,-1.56533 -11.92704,-0.24369 -13.61529,0.18433c-3.9256,0.99524 -6.65516,2.55304 -2.98191,6.52676c0.25479,0.24813 0.5096,0.49625 0.76441,0.74437l0.60993,0.45254c0,0 0.05982,0.04533 0.13412,0.12717c0.14223,0.00105 4.11523,0.14792 6.41259,0.46711c2.95062,0.40994 4.51477,1.10414 6.25464,2.13866zM191.46316,237.99059c3.85746,2.03877 5.52472,2.88204 8.7114,5.77288c0.09522,0.08638 3.98772,5.68895 5.26206,5.23422c1.50348,-4.39871 -4.67836,-9.00898 -8.16756,-11.00901c-2.40367,-1.3778 -4.89806,-3.10853 -5.80591,0.0019zM189.13361,235.76968c0.65822,-1.16205 1.22621,-1.7568 2.84451,-2.17011c1.10087,-0.28115 3.2347,-0.47835 4.0836,-0.71305c0.96356,-0.26639 0.75281,-1.16797 0.66866,-1.25001c-0.54993,-0.59584 -0.40113,-1.21916 -0.84024,-1.89844c-3.26587,-2.46058 -0.68991,-4.96968 0.31879,-5.93995c0.60899,-0.58578 1.8875,-0.92248 1.8875,-0.92248c0.38952,-2.28319 0.82528,-5.1167 1.57789,-7.31564c0.78619,-1.99181 1.77797,-5.62371 3.5736,-7.03196c1.14024,-0.89426 2.33554,-0.66383 3.59963,-0.50813c3.86827,0.47646 8.10901,2.99537 11.53308,4.81283l0.17415,-0.21817c0.3713,-0.47796 0.69105,-0.99577 0.96896,-1.531c-1.21929,-1.25141 -5.02087,-5.98651 -4.55387,-7.92682c0.83082,-3.45191 12.33552,-10.15858 15.14566,-11.80174c3.96821,-2.3203 8.70839,-4.29878 12.68865,-6.47925c-0.20653,-1.71168 -1.09818,-3.78527 -1.11091,-5.62908c0,0 -0.63315,-2.00318 0.70762,-3.96715c1.25929,-1.84463 4.96382,-4.49341 6.20591,-5.42515c5.13957,-3.8554 15.50519,-5.83435 21.89598,-5.83435c2.51283,0 7.49508,0.95691 7.72208,1.10389c1.75554,-1.39764 5.03465,-3.19024 8.85088,-3.84572c2.05766,-0.35343 5.44482,-0.02447 6.17967,0.07954c4.42499,0.62634 5.45336,4.54885 4.2684,8.33901c-0.283,0.9052 -4.06066,6.26764 -3.65332,10.49134c0.43611,4.52211 5.4449,12.87745 5.53839,16.03389c0.07586,0.29034 0.00743,0.55616 -0.09005,0.76002c-0.08467,0.22649 -0.24458,0.48028 -0.54659,0.63109l-0.46875,0.39959c-1.29779,0.6323 -2.42411,1.28683 -3.78232,1.57737c-0.00262,0.04317 -0.00627,0.06804 -0.00627,0.06804c-0.62003,4.15863 -0.26892,6.53679 2.38076,9.76326l0.43042,0.19429c0.23564,0.07726 0.44044,0.21992 0.59169,0.40583c0.10649,0.12126 0.21002,0.27823 0.26402,0.46741c0.62153,0.32678 0.62153,1.09581 0.62153,1.09581c0,0.46292 0,0.92583 0,1.38875l-0.08339,0.3777c0.08721,0.06825 0.17006,0.15481 0.245,0.26375l0.64268,0.65467c1.77211,2.59911 3.50941,5.30195 5.10007,8.03323c0.14983,-0.10731 0.4116,-0.25708 0.72641,-0.27713l1.1235,-0.26614c2.87059,-0.68792 3.7349,0.16055 4.96975,2.2773c1.87902,3.22099 2.34396,4.92878 1.21428,7.07525c-1.31019,2.48944 -4.67502,4.38138 -7.23397,6.08456c4.4958,1.67326 7.35164,3.38306 11.19965,6.62667l3.38772,2.09658c2.16092,1.05222 5.79815,3.18504 7.95949,4.23806c0.35915,0.09296 0.57095,0.31044 0.69584,0.5346c0.1499,0.20911 0.2548,0.49095 0.17952,0.84554c0,3.62019 0,7.35615 0,10.97227c0,1.43942 0.26344,3.21709 -0.35697,4.57934c-1.87545,4.11805 -8.50322,7.64581 -12.52332,9.21614c-8.79898,3.57063 -17.68718,6.98603 -27.23046,7.37298c-19.06904,0.5082 -23.92545,-1.45702 -25.76082,-2.10487c-4.73871,-1.14945 -10.18816,-3.88681 -13.79631,-7.39922c-2.65234,-2.58195 -3.0345,-7.24792 -2.29566,-11.10199c-2.19015,0.91167 -4.53165,1.02491 -7.0159,1.26703c-0.41252,0.0402 -0.8246,0.07962 -1.23632,0.1181c-6.34615,1.38782 -13.43131,2.10038 -19.83915,1.73709c-0.24103,0.44273 -0.8083,0.5004 -0.8083,0.5004l-1.42763,0.14436c-3.36447,0.60524 -5.93594,1.55828 -10.38452,3.04828c-3.56261,2.16045 -6.17716,2.80523 -10.70261,3.28959c-6.46696,0.69216 -13.71204,0.40268 -19.80055,-0.97331c-1.89958,-0.42929 -2.6956,-0.8151 -4.38218,-1.30797c-2.56881,-0.76979 -5.87857,-1.24301 -7.94891,-3.44018c-0.64973,-0.68952 -1.91651,-3.4095 -2.45151,-4.55919c-0.77042,-1.65557 -0.61958,-1.8945 0.05354,-3.62414c0.39375,-1.01178 1.62583,-2.33293 2.25056,-3.2686c0.78419,-1.17452 1.78991,-2.1694 2.87099,-3.07616c0,0 0.32184,-0.90183 0.8973,-1.84999c0.44896,-0.73974 1.12474,-1.50768 1.44894,-1.89752c2.99137,-3.59702 12.94407,-8.76084 12.94407,-8.76084c0,0 -0.07649,-2.20732 1.99686,-3.33809c0.98158,-0.53533 2.34237,-0.30678 4.45714,-0.36681c0.88153,-0.02503 1.17801,-0.81122 1.24544,-0.94511zM185.09584,240.54008c5.08709,1.96307 6.67052,4.49847 10.15479,8.45836c0.6881,0.78201 3.13323,4.17522 3.67985,2.08483c0.01963,-1.56328 -0.96384,-2.46491 -1.85545,-3.66775c-1.67311,-2.25714 -4.0766,-5.29495 -6.65546,-6.99058c-0.0237,0.00374 -1.81894,-1.14825 -2.79873,-1.143c-1.71552,0.00919 -2.52502,1.25813 -2.52502,1.25813zM306.27129,249.34929c2.63662,0.96451 5.01235,4.00487 1.05476,5.23985c-4.3115,1.34542 -9.08675,0.6433 -13.47637,1.51043c-5.83489,0.47654 -11.696,1.49001 -17.34134,3.16152c-2.31452,0.6853 -7.71601,3.68744 -11.06462,2.38443c-1.53482,-0.59722 0.47068,-4.66467 0.66022,-5.07114c-0.21285,-0.02359 -0.94953,0.46326 -1.52981,0.51089c-3.34181,0.27432 -1.04008,-3.64386 -0.09295,-5.01977c-1.70068,0.01875 -3.33695,1.0684 -4.03713,-0.9904c0.28076,-1.16598 0.68927,-2.6105 1.47107,-3.91588c0.6375,-1.06442 1.59142,-2.03631 2.36692,-2.68926c-0.29174,-0.13368 -0.46072,-0.38067 -0.46072,-0.38067l-0.54586,-0.80206c-0.79649,-1.36241 -1.80646,-2.3609 -2.3524,-3.84323l-0.09573,-0.21051c-4.03458,-1.54618 -9.4333,-3.15388 -13.59231,-3.13418c0,0 -0.47934,0.00001 -0.84963,-0.28666c-2.87633,0.84897 -4.26091,3.20825 -4.75925,6.10964c-0.18096,1.05358 -0.6737,2.91633 -0.31063,3.8751c0.11075,-0.02642 0.19324,-0.02642 0.19324,-0.02642h0.63625c0.35581,0 0.71028,-0.00561 1.06364,-0.01586c-0.07854,-0.31862 -0.02093,-0.5993 -0.02093,-0.5993c0.59707,-2.12726 0.81254,-2.948 4.30181,-2.52982c3.15179,-0.24947 2.83607,2.13018 2.33076,2.62594c1.46156,-0.12585 5.62609,-0.08264 5.17702,0.51904c-0.55528,0.74397 -1.27889,0.74697 -1.53578,0.75257c-0.05636,0.02791 -0.11336,0.05526 -0.17092,0.08206c1.20201,2.09762 2.43498,4.41003 3.29613,6.6288l0.0705,0.205c0.12509,0.19793 0.14097,0.41087 0.12038,0.5857c-0.00427,0.15042 -0.03897,0.32477 -0.14433,0.48387c0.0322,0.20454 0.00186,0.36714 0.00186,0.36714c-0.43091,2.30765 -0.92701,3.85394 -2.49746,5.65115c-0.21445,1.79183 -0.3961,3.81147 0.14524,5.27519c0.56159,1.51845 2.24133,2.20557 3.53589,2.96249c3.75828,2.19744 8.04177,2.7979 12.29023,3.68433c6.28101,0.87167 12.28267,0.8049 18.47028,-0.48772l0.52112,-0.02753c0,0 0.05835,0 0.15005,0.01217l0.63503,-0.13188c5.95548,-0.48357 12.60545,-2.38673 17.87959,-5.14579c5.17805,-3.68166 13.00812,-8.27891 10.89978,-15.74458c-0.15107,-0.53495 -2.92898,-4.57571 -6.18843,-7.20118c-3.72413,-2.99976 -8.16171,-4.62017 -11.49641,-5.16039c0,0 -1.25519,0.4274 -1.04599,-0.79568c0.2092,-1.22308 3.86491,-2.89898 4.78138,-3.47652c-0.60269,-0.09769 -0.59943,-0.42775 -0.59943,-1.04274c0,-0.22662 0.0624,-0.43905 0.17136,-0.62186l0.62502,-1.09627l0.04086,0.02212l0.03066,-0.13329c1.33489,-1.4948 3.49845,-4.12157 5.08994,-0.82692c0.16386,-0.21688 0.309,-0.43822 0.43214,-0.66424c1.38839,-2.54871 -0.80561,-6.05155 -3.85175,-5.28082c-0.02393,0.00605 -2.48382,1.67006 -3.8096,2.88965c-1.75098,1.61074 -2.55696,2.98324 -3.36574,4.04094c-2.60506,3.4068 -3.06066,4.7398 -5.51222,7.10503c2.73461,0.43868 4.73492,1.75883 5.9111,4.80368l0.06481,0.96828c0,0 0,0.08061 -0.02359,0.19587c0.09292,0.0375 2.79286,0.67567 3.23596,0.90729c2.36769,1.23767 3.11628,3.79239 3.11628,3.79239zM276.09063,257.37179c5.75425,-1.70662 11.52493,-2.75674 17.4744,-3.23666c3.1996,-0.61559 6.58114,-0.51789 9.8282,-0.87164c0.66275,-0.07221 3.61372,-0.16417 3.93747,-0.54643c0.31655,-0.37376 -2.26769,-2.08804 -4.37176,-1.9312c-7.51291,0.56005 -19.66474,1.78652 -23.28228,2.32602c-2.07931,0.31009 -8.68578,1.68624 -11.6377,3.60212c-1.46514,0.95092 -1.36159,3.17919 -1.37668,3.60035c3.07099,-0.28875 6.44897,-2.05892 9.42837,-2.94257zM288.6704,243.31898c3.14708,-0.03395 5.62164,-0.24131 8.72759,0.50128c-1.14346,-2.8202 -3.19367,-2.66997 -6.06617,-2.73364c-1.11443,0.94181 -1.16816,1.41936 -2.66142,2.23237zM269.35185,250.47297c-0.77586,0.52717 -4.97441,3.04261 -3.73231,3.83746c3.66837,-0.42554 12.91665,-3.01627 16.49595,-3.55615c6.68949,-1.00901 8.01468,-1.5391 14.82404,-1.5391c1.26089,0 2.70029,-0.2833 4.08625,-0.29788c0.93385,-0.00982 1.84341,0.31903 2.65778,0.11908c-0.41776,-0.80291 -1.49091,-2.66387 -3.58278,-3.20426c-2.11732,-0.54696 -9.53264,-1.21367 -16.2154,-0.27242c-6.53987,0.92112 -12.34803,3.42835 -14.53351,4.91327zM278.71754,240.14924c-3.32501,0.96119 -8.70302,3.33534 -12.30022,5.82095c-1.85345,1.2807 -3.08457,1.93524 -3.63188,3.81535c-0.13363,0.44553 3.41732,-0.63658 4.06047,-0.64453c6.39281,-3.09945 9.91032,-4.22441 15.54104,-5.3496c-1.24065,-0.96727 -2.51473,-2.13216 -3.6694,-3.64217zM218.21557,263.01467c2.79524,-0.27053 18.63432,-0.87889 23.20818,-1.71454c0.85328,-0.29764 1.83207,-0.31686 2.729,-0.48114c2.02551,-0.66743 3.78672,-1.43034 5.33793,-3.01418c0.95742,-1.54534 1.81401,-2.84387 3.63849,-3.78702c0.2372,-0.12262 0.91878,-0.65855 1.05359,-0.68496c-0.62759,-1.58095 -1.08737,-2.95579 -1.94716,-4.50308c-0.17253,0.34932 -0.48353,0.55135 -0.48353,0.55135l-0.24966,0.14945c-1.21435,1.03141 -1.12406,0.48259 -1.7794,1.08812c-0.77147,0.71282 -2.29058,2.53826 -4.00569,3.29322c-4.10164,1.09777 -11.34719,1.21223 -15.53225,1.62223c-2.82965,0.27721 -8.42576,-0.05761 -11.07943,0.41679c-1.28481,0.22969 0.14978,0.56418 -0.8256,0.9816c-2.11041,0.90317 -5.47106,2.19464 -8.08616,3.65307c0,0 -6.21242,2.0849 -9.05096,2.64478c-4.81371,0.94947 -23.51407,-0.65151 -31.54821,-2.95396c-2.28714,-0.65546 -3.62484,-3.46392 -3.63597,-3.55198c-0.49496,0.49152 -0.85858,0.29923 -1.24103,0.87864c-0.58653,0.8886 -1.404,1.44274 -1.79833,2.39011c-0.20654,0.49619 0.85777,2.43235 1.75829,3.53002c2.01696,2.45858 3.8693,4.06395 6.17262,4.75338c10.30536,3.01349 24.87753,3.66073 33.57545,-0.75017c2.71064,-1.32151 10.364,-4.18015 13.78985,-4.51171zM232.84422,219.3091c0.35505,-0.92968 6.24722,4.16287 6.32827,4.39117c3.29974,0.76404 6.91404,4.69389 8.67449,7.28094c0.23472,0.34494 1.21337,2.01048 1.31544,3.04567c4.14493,0.18027 8.70924,1.56631 10.30669,2.10563c-0.8939,-3.37162 1.34516,-5.43496 4.30955,-6.99468c0.82314,-0.71828 2.766,-1.65804 5.22566,-2.50319c2.02077,-0.69435 5.65869,-1.43718 6.1697,-1.66257c0.85205,-0.37582 1.17257,4.52607 1.42405,5.33423c0.57644,1.8524 4.56044,8.8119 7.79757,11.78511c2.78514,-0.14076 4.92858,-2.0295 6.72786,-3.8773c2.9672,-3.0472 4.9985,-6.97807 7.4284,-10.11712c1.18816,-1.53492 2.73339,-2.78939 4.23096,-4.07207c-1.58893,-2.77095 -3.34409,-5.53129 -5.14494,-8.16396c-1.36524,0.66237 -2.63039,1.51378 -4.01721,2.18945l-0.17223,0.08392c-0.2395,0.19558 -0.51643,0.24898 -0.75102,0.24763c-0.23607,0.02052 -0.51997,-0.01113 -0.77741,-0.19148c-3.88206,-1.57715 -7.36242,-4.23799 -10.99306,-6.26734l-0.43814,-0.13979c-2.60671,2.10218 -5.5441,4.98498 -8.85283,8.22652c0,0 0.09147,-1.33948 0.54168,-2.31398c0.12471,-0.26993 0.21686,-0.7761 0.24884,-0.84913c-1.01564,0.41593 -3.60364,1.29731 -5.69864,1.6829c-7.69198,1.41572 -19.68296,1.63287 -30.21458,-0.23208c-6.35651,-1.12561 -13.18842,-4.4119 -15.45487,-5.81c-0.26736,0.46087 -0.56174,0.90734 -0.88557,1.33127l-0.68386,0.85682c-0.18498,0.27638 -0.41445,0.38997 -0.63053,0.42321c-0.21236,0.05197 -0.46944,0.035 -0.7511,-0.14913c-2.31907,-1.25922 -7.39414,-3.36417 -10.72333,-4.17616c-1.5346,-0.37429 -2.94492,-0.1734 -3.10223,-0.02562c-1.38639,1.30246 -2.02725,3.80033 -2.69104,5.48204c-0.70668,2.06691 -1.10782,3.99709 -1.47611,6.14455c0,0 10.12986,-3.08168 13.75054,-2.50606c6.35259,1.00996 11.82061,9.71792 13.56125,12.35935c0.29041,-0.32652 3.22769,-2.63113 4.87641,-4.51036c0.50223,-0.57244 1.22072,-2.33257 1.28295,-2.43063c0.60254,-0.94947 1.40365,-1.46582 2.32812,-1.67405l-0.01566,-0.0151c0,0 -3.21857,-3.85768 -3.05401,-4.28857zM276.74243,236.90416c-1.44956,-3.05196 -2.3671,-7.40678 -2.46176,-8.09309c-0.02495,-0.1809 -0.03125,-0.46166 -0.01954,-0.75241c-0.19415,0.14374 -1.88478,-0.09113 -2.4491,0.10123c-1.0448,0.35615 -2.41057,0.81852 -3.73915,1.21109c-3.86462,1.48613 -8.41476,3.09235 -6.06916,7.6622c0.17343,0.06452 0.34499,0.12891 0.51453,0.19304c0.33093,0.04196 1.13209,0.24516 1.13209,1.22902c0,0.54239 -0.24348,0.84752 -0.51744,1.01918c0.51243,0.99729 1.32158,1.8274 1.91031,2.82852l0.47215,0.68587c0,0 0.12163,0.17777 0.16732,0.42332c3.54793,-2.41725 8.25041,-3.91231 11.86839,-4.98912c-0.28309,-0.47657 -0.55364,-0.9819 -0.80867,-1.51885zM321.12528,250.28966c2.43463,8.75291 -3.11361,13.55133 -10.33948,17.57639c-5.61702,2.95482 -14.33789,5.90387 -20.68889,6.4196l-0.97488,0.22275c0,0 -0.27455,0.05945 -0.59418,-0.00332c-6.30912,1.24409 -12.45472,1.28057 -18.86562,0.38557c-5.42034,-1.13256 -15.45042,-2.17966 -17.76802,-8.23263c-0.52056,-1.35956 -0.54497,-3.04217 -0.42756,-4.69618c-0.02336,-0.51057 -0.03177,-1.03136 -0.03223,-1.56261c-1.44215,1.58189 -1.87356,3.5453 -2.17977,5.26447c0,0 -0.00685,0.03667 -0.02518,0.09451c-0.01407,0.05219 -0.03289,0.10856 -0.05808,0.16599c-0.10655,2.48062 0.28608,3.93967 1.7977,5.41484c3.30086,3.22129 8.14026,6.53576 12.46357,7.59296c1.10054,0.39117 13.50492,2.53717 26.03982,1.51719c10.66166,-0.86754 20.74433,-5.08451 24.96728,-6.79996c2.81542,-1.09479 10.84236,-7.17822 11.60801,-8.79701c0.61656,-1.30358 0.33712,-2.31151 0.33712,-3.70582c0,-3.00977 0,-6.01954 0,-9.02931c-1.86272,-0.90754 -3.72237,-1.81361 -5.58453,-2.72136c0.12871,0.29386 0.24071,0.5911 0.32494,0.89391zM295.12923,195.56916c0.12346,-0.48117 1.08711,0.09695 1.08711,0.09695l0.60429,0.15733c0.01093,0.00776 0.02187,0.01552 0.03279,0.02328c-0.19908,-2.9081 -3.52601,-8.51208 -4.8867,-12.81729c-0.89289,-2.82512 -0.43622,-5.09097 -0.31435,-5.66879c0.53406,-2.53216 2.41631,-5.62366 3.1877,-8.03132c0.30932,-0.96542 -0.57507,-4.46928 -1.58964,-5.05391c-2.15542,-1.242 -4.0504,-0.45232 -6.44011,-0.45567c-2.46822,0.22792 -4.12395,1.58807 -5.96667,3.08073c-3.39551,2.75045 -7.28099,5.94309 -11.24047,7.89661c-0.21662,0.43345 -0.68603,0.62948 -0.68603,0.62948c-3.37892,1.40499 -9.15313,2.56736 -13.87216,2.1547c-4.52551,-0.39572 -8.07037,-2.33957 -8.07037,-2.33957c-0.23457,0.3147 -2.49484,2.36436 -2.91255,2.58107c-0.28471,0.14771 1.41287,6.11498 1.8327,8.19306c0.21968,1.0873 -0.24885,1.4915 -0.24885,1.4915c-4.14071,2.33896 -9.30601,3.7202 -13.4476,6.14127c-3.86452,2.25912 -12.77671,6.94171 -14.06102,9.70621c-0.35511,0.76437 1.86202,4.57818 5.92506,7.30943c3.96561,2.66575 9.4472,4.49537 15.29622,5.45812c8.03102,1.32192 16.64396,1.46206 23.26272,0.6939c3.14177,-0.36463 5.93281,-1.4142 7.81583,-1.74689c1.68514,-0.29773 3.67855,-0.63156 3.67855,-0.63156c-0.05918,-3.64411 -1.25969,-7.94525 -0.42968,-11.63992c0.26156,-1.16434 0.41021,-4.1131 0.77748,-5.95661c0.55685,-2.79513 1.31117,-4.43696 1.31117,-4.43696c-5.25539,-6.98321 -3.79419,-7.91724 -3.79419,-7.91724c3.16495,4.65186 9.33035,10.95704 14.69586,12.41303c2.07853,0.56403 4.56689,0.4587 6.69224,0.35385c0.88345,-0.04359 1.64298,-0.35506 2.38858,-0.73048c-0.11579,-0.08814 -0.69331,-0.69957 -0.62794,-0.95432zM281.96573,209.65918c3.51855,1.95346 6.88849,4.5572 10.62775,6.1186c1.2017,-0.59455 2.30573,-1.28533 3.46769,-1.89603c-0.0143,-0.2368 0.03152,-0.41544 0.03152,-0.41544l0.16561,-0.49284c0,-0.37433 0,-0.74866 0,-1.12298c-0.03358,-0.01996 -0.06612,-0.04137 -0.09755,-0.06418l-1.25242,-0.81574c-2.98388,-3.6355 -3.56192,-6.66947 -2.98227,-11.15645c-1.98335,0.06793 -3.58136,-0.24258 -5.38874,-0.75511c-2.77316,-0.7864 -4.32116,-2.23172 -9.08207,-4.89509c-1.28046,2.95528 -1.45072,15.07123 -1.18511,17.99959c0.93951,-0.90735 1.93195,-1.76985 2.98028,-2.59666c0.2165,-0.26798 0.49766,-0.37116 0.74941,-0.40124c0.24721,-0.05666 0.54812,-0.05447 0.84672,0.12476zM275.41963,167.63926c-2.70948,-0.6891 -5.42823,-0.64332 -8.22536,-0.64332c-6.00647,0 -16.86848,3.25188 -19.06954,7.00896c3.89083,2.05136 12.37337,2.52212 18.37958,0.41498c5.02556,-1.7631 7.89766,-5.92597 8.91531,-6.78062z" fill="#000000" stroke="none" stroke-linecap="butt"/></g><g><g><path d="M341.97978,155.4598c-0.28802,0.55212 -0.74052,0.58105 -1.04094,0.5243c-0.03459,2.567 -2.25287,4.47251 -4.15544,6.24273c-1.31234,1.22104 -3.1311,1.71349 -4.76233,1.61051c-4.23971,-0.26764 -7.61498,-1.07283 -11.63924,-2.31568c-2.38978,-1.33646 -8.1954,-2.21223 -8.91316,-5.22991c-0.69702,-2.93047 3.01343,-3.25627 4.85106,-3.45689c6.53482,-0.71343 12.61275,-1.0435 19.158,-0.08718c1.80927,0.26509 3.51957,0.42824 5.26945,0.96007l0.80852,0.40291c0,0 0.88662,0.46252 0.4241,1.34913z" fill="#0f1b82" stroke="none" stroke-width="0.5" stroke-linecap="butt"/><path d="M311.69881,152.69214c0.06103,-0.77478 0.89181,-0.86417 0.89181,-0.86417l1.39197,-0.14975c2.72415,-0.29308 5.45906,-0.38407 8.17435,-0.67828c5.30367,-0.5706 13.73201,-2.76316 18.39627,0.46711c2.38309,1.65043 1.13411,5.95051 -0.83964,7.41071c-0.75646,0.55963 -3.08888,0.35061 -3.98417,0.30089c-8.4324,-0.80583 -15.98052,-1.20173 -23.78515,-4.80945c0,0 -0.9076,-0.41982 -0.48778,-1.32743c0.06952,-0.1503 0.15242,-0.26419 0.24235,-0.34962z" fill="#0066cc" stroke="none" stroke-width="0.5" stroke-linecap="butt"/><path d="M308.94138,144.95385c0.00191,-0.13841 0.05083,-0.29375 0.18323,-0.45808c0.47056,-0.58402 1.05457,-0.11345 1.05457,-0.11345l0.84881,0.73333c0.93705,3.25587 0.43358,5.59837 -0.27,8.76758c-0.49537,2.23135 -0.15483,4.88029 -0.47441,7.18297c-0.37871,2.15114 -2.0351,6.59488 -4.42083,6.94272c-2.33238,0.34005 -4.7043,-2.11978 -5.8847,-3.35847c-1.0442,-1.09577 -3.84015,0.7279 -4.98894,-1.49996c-0.20436,-0.39633 -0.12208,-0.88344 -0.18312,-1.32516c0.59797,-5.22441 5.48139,-7.73499 8.57329,-11.32514c1.73186,-2.01094 3.55849,-3.78597 5.5621,-5.54634z" fill="#fddfbd" stroke="none" stroke-width="0.5" stroke-linecap="butt"/><path d="M304.65214,158.38032l0.20942,0.05189c-0.03502,0.16238 -0.07811,0.33414 -0.12674,0.51319c0.0819,1.18134 -0.38012,2.37763 -0.93678,3.66465c-0.1618,1.52498 0.33036,2.69332 2.78998,2.43026c0.56602,-0.06053 1.12,-0.21416 1.66431,-0.38413c0.11413,-0.06746 0.26235,-0.10583 0.45354,-0.08028c0.1401,0.00783 0.30536,0.05088 0.4408,0.18223c0.143,0.12309 0.20073,0.28381 0.22112,0.42264c0.04471,0.1973 0.01514,0.35387 -0.04776,0.47625l-0.08693,0.35301c-1.42988,3.26959 -3.45241,10.68751 -8.52989,7.28041c-0.05708,-0.03832 -2.16045,-1.83779 -2.19933,-1.871c-1.0688,-0.71855 -3.08119,-1.63069 -3.68151,-2.83646c-2.67985,-5.38253 4.56824,-10.71421 8.66687,-12.59967c0,0 0.68206,-0.31191 0.99398,0.37014c0.11367,0.24854 0.09534,0.44793 0.02613,0.60099c0.11231,0.09698 0.19622,0.22725 0.23537,0.37767l0.20119,0.72045l-0.1121,0.03131l0.02452,0.22785l-0.21677,0.02332c0.00363,0.0151 0.00714,0.03019 0.01057,0.04527z" fill="#f89587" stroke="none" stroke-width="0.5" stroke-linecap="butt"/><path d="M287.21721,106.71837c3.62026,4.24316 4.33312,12.37047 3.91471,17.79756c-0.41518,5.38508 -6.62909,14.62756 -8.15525,17.90976c-2.47631,5.32561 -2.70575,7.38653 -6.12851,11.02399c-3.86394,4.10632 -13.99997,1.74993 -19.02597,2.37102c-3.52175,0.4352 -7.34554,0.96826 -10.86689,1.40664c-7.5834,0.94407 -15.84151,1.91745 -23.43401,2.77518c-0.0687,0.00776 -4.13653,0.72221 -7.37107,0.78217c-0.15408,0.00548 -0.30748,0.00677 -0.46007,0.00397c-3.19082,-0.05866 -6.02843,-1.90707 -7.42258,-4.66676c-3.54597,-5.29289 -3.91651,-14.36256 -5.10351,-19.54049c-0.68519,-2.98889 -1.16211,-5.94947 -1.77569,-8.93221c-0.83873,-4.07726 -2.14997,-6.0936 -1.89063,-10.56183c0.1755,-3.02373 -1.75092,-11.05724 0.09919,-12.39577l0.82887,-0.59969c4.2326,-5.99425 16.05549,-9.10033 21.46962,-11.00825c4.56031,-1.60703 10.689,-1.81766 15.10398,-2.40935c1.70475,-0.22846 3.03393,-1.29443 4.77989,-1.26858c2.21049,0.03273 4.80882,1.18395 6.94459,1.01296c11.04169,-0.88397 24.01073,-0.55123 34.09991,4.11559l1.37653,1.10912c1.44911,1.16759 2.51717,2.80811 2.95281,4.719c0.11,0.35735 0.16745,0.69967 0.1704,1.03809c0.16555,1.62244 -0.1372,3.1859 -0.79929,4.55518c0.23869,0.24694 0.4698,0.50111 0.693,0.7627z" fill="#ff2d32" stroke="none" stroke-width="0.5" stroke-linecap="butt"/><path d="M282.7501,95.69443c0.26173,-0.70285 0.96457,-0.44112 0.96457,-0.44112l0.54061,0.21422c0.73159,0.43667 1.41601,0.95165 2.07971,1.48588c1.98032,1.99101 1.64685,2.88747 3.70094,4.61537c1.66104,1.39726 5.02637,5.02122 5.75797,6.9518c1.20897,3.1903 2.50097,5.84546 4.32091,8.68823c0.91937,2.01036 2.17939,3.74783 2.7024,5.94038c0.30598,1.28272 0.35107,2.75127 0.98519,3.94476c1.06818,2.01044 2.83881,3.56791 3.82951,5.63558c1.07756,2.24894 1.0385,4.93816 0.81818,7.37056c-0.62452,4.51152 -2.79881,7.45727 -5.68753,10.85019c-1.44878,1.70166 -3.03266,4.1024 -5.29279,4.786c-1.23211,0.37266 -2.82687,0.31773 -4.11662,0.45649c-1.96978,0.18833 -3.65895,-0.80846 -5.61049,-0.81012c-3.20892,-0.00274 -5.27533,-1.06959 -8.26573,-1.98325c-3.0608,-0.93517 -6.25082,-1.33741 -9.34411,-2.14321c-2.67498,-1.17493 -2.19482,-3.05211 -2.00113,-5.71183c0.29518,-4.05328 1.51982,-8.19503 1.08345,-12.25098c0,0 -0.00381,-0.03543 -0.00205,-0.09168c-0.00004,-0.05627 0.00487,-0.09157 0.00487,-0.09157l0.10975,-0.78708c0.21098,-3.4582 1.2415,-7.03669 1.69629,-10.46999c0.00006,-0.00048 0.00009,-0.00073 0.00009,-0.00073v-0.00001l0.11779,-0.84523c1.33728,-6.13623 1.76867,-11.88597 3.86942,-17.8416c-0.02398,-0.13167 -0.00238,-0.25591 0.03243,-0.35791c0.02715,-0.10993 0.07985,-0.23262 0.18037,-0.33335c0.50682,-3.86085 3.88632,-6.11443 7.51995,-6.76314c0.00196,-0.00552 0.00398,-0.01108 0.00605,-0.01665z" fill="#ab164a" stroke="none" stroke-width="0.5" stroke-linecap="butt"/><path d="M208.64144,159.20396c0,0 -4.90936,-19.71728 -7.63012,-36.05369c-1.65451,-9.9343 -3.33513,-18.5285 -0.19814,-20.93782c17.58761,-13.50795 43.91592,-11.83785 56.73876,-11.89888c7.68064,-0.03656 21.81054,1.37049 26.83725,5.93618c9.82799,8.92661 15.10264,19.93886 18.79949,27.94059c3.31385,7.17273 5.54823,11.84027 5.54823,11.84027l-1.91311,10.26354l-11.01827,11.32693c0,0 -35.58238,-10.33332 -51.12773,-9.39376c-24.71,1.49345 -36.03638,10.97666 -36.03638,10.97666z" fill="none" stroke="#000000" stroke-width="3" stroke-linecap="round"/><path d="M268.35252,150.76836c0,0 -0.2611,-26.85213 7.19238,-49.43821c1.39172,-4.2173 6.77498,-5.37032 6.77498,-5.37032" fill="none" stroke="#000000" stroke-width="1.5" stroke-linecap="round"/><path d="M212.47047,164.29292c2.14127,-5.44897 6.50319,-6.9372 11.82911,-8.89431c2.33546,-0.85821 4.71983,-1.99175 7.12769,-2.61322c6.78464,-1.75111 14.95608,-0.79564 21.71374,0.51491c9.91317,2.55662 20.75515,3.69358 29.03857,10.08202c1.40653,1.10888 1.67795,1.69396 2.48264,3.26267c4.81496,9.38651 -8.16586,11.26775 -13.99297,14.543c-5.57521,2.95753 -12.38992,5.46324 -18.62484,6.68579c-2.50664,0.4915 2.16677,-1.04609 -0.29897,-0.36186c-8.27123,1.94953 -24.68511,4.26798 -33.10289,3.33435c-4.85964,-0.54228 -10.36138,-1.50281 -14.65945,-3.94958c-3.758,-2.13932 -3.9046,-5.6783 -1.32787,-8.77245c2.69869,-1.43951 5.2765,-3.06318 8.18628,-4.07562c0.67756,-0.23575 3.1686,-0.63375 3.65628,-1.36325c0.28198,-0.42182 -0.29919,-0.96971 -0.44337,-1.45618c-0.61965,-2.09094 -1.74757,-3.90767 -2.4444,-5.94515c0,0 -0.24008,-0.71053 0.47045,-0.95062c0.15033,-0.05079 0.27959,-0.05903 0.38999,-0.04046z" fill="#fddfbd" stroke="none" stroke-width="0.5" stroke-linecap="butt"/><path d="M208.69597,159.39924c0,0 23.59397,-11.05789 36.84734,-11.28781c15.40182,-0.2672 50.09014,9.7796 50.09014,9.7796l-0.58532,9.51721l-2.08042,1.22959l-9.2731,5.42305l-3.82345,-5.62328l-7.98565,9.91108c0,0 -10.89495,-17.5941 -12.94975,-17.80215c-2.05945,-0.20853 -15.69625,11.42981 -15.69625,11.42981l-3.62953,-16.90877l-26.68409,13.73315z" fill="#f89587" stroke="#f89587" stroke-width="0.5" stroke-linecap="round"/><path d="M303.80359,157.361c-1.76272,1.02502 -3.69359,2.21205 -5.43116,3.33889c0.67977,1.70537 2.30961,3.93757 3.51232,5.53668c0.73845,-2.87104 1.92491,-5.94794 1.91884,-8.87557zM296.02418,162.30219c-0.27614,2.4936 -0.22801,5.33188 -0.22801,5.33188c1.26169,0.7659 7.3846,5.82848 8.45818,5.40223c2.19286,-0.87064 3.18891,-6.50649 3.88559,-8.39531c0.51259,-1.38973 0.89978,-2.72559 1.19084,-4.03555c0.98793,-4.44636 0.86842,-8.59424 0.78679,-13.5367c-0.00317,-0.48516 0.36868,-1.72466 -0.03473,-1.4551c-2.34861,1.56933 -4.11427,3.77171 -6.0834,5.78759c-2.29483,2.3493 -5.82651,4.83821 -7.29773,7.86993c-0.18185,0.37473 -0.32757,0.88479 -0.44431,1.46949c0.70286,-0.2054 1.20315,-1.13832 1.90313,-1.60731c1.31402,-0.88039 1.7394,-1.71818 2.89397,-2.47651c0.22129,-0.14535 3.63482,-2.65476 4.10431,-1.03534c0.7109,2.45209 -1.55929,9.69301 -2.04031,11.90416l-0.22378,0.47074c-0.02895,0.13066 -0.10381,0.26718 -0.25624,0.39383c-0.10012,0.09402 -0.24293,0.18491 -0.42716,0.19637c-0.18356,0.01928 -0.33951,-0.04664 -0.45383,-0.12274c-0.15943,-0.09267 -0.25404,-0.20489 -0.30691,-0.31998c-1.41655,-1.88221 -3.13392,-4.15398 -4.06529,-6.31214c-0.44006,0.20269 -0.89237,0.36427 -1.36113,0.47046zM313.8165,150.07977c6.49192,-0.69844 13.91302,-2.07308 20.40809,-1.2999c2.45751,0.29254 5.8999,0.96135 7.27581,3.2987c1.27706,2.16942 1.13654,5.06051 0.35289,7.13886c-0.86882,1.25784 -1.1138,4.88572 -2.48989,5.50311c-2.43627,1.09302 -7.90228,1.01557 -10.25514,0.37114c-5.32004,-1.45715 -12.42431,-3.38551 -17.08503,-6.32282c-0.34629,3.1547 -0.84632,4.36149 -1.82528,7.33653c-0.85657,2.60314 -2.28489,8.16849 -5.1853,9.33106c-2.03139,0.81425 -6.29428,-2.29473 -6.29428,-2.29473c-2.19152,-0.97772 -3.92608,-2.03649 -5.89379,-3.23728l-0.32968,0.23083c-3.5414,1.7053 -6.93918,4.55699 -10.20925,6.79456c-6.87397,3.659 -14.50094,7.0337 -21.95101,9.26343c-3.64053,1.08957 -7.42277,1.72005 -11.00924,2.97655c-0.22605,0.40265 -17.72593,2.52119 -29.93326,2.47765c-4.64216,-0.01656 -10.79768,-1.5345 -11.60468,-1.83487c0,0 -0.03235,-0.01204 -0.08538,-0.03738c-0.05433,-0.02244 -0.08493,-0.03841 -0.08493,-0.03841l-0.2422,-0.14678c-1.80914,-0.61087 -3.48389,-1.26269 -5.17676,-2.14384c0,0 -0.02606,-0.01359 -0.06895,-0.0406c-0.04433,-0.02459 -0.06879,-0.04088 -0.06879,-0.04088c0,0 -4.24118,-2.19143 -2.45875,-6.1364c0.47733,-1.05647 1.08491,-2.16836 2.04759,-3.03522c3.69685,-3.32892 10.42084,-5.27888 11.12381,-5.47825c-1.83233,-4.32651 -4.09578,-8.42228 -5.43668,-12.9569c0,0 -0.42465,-1.43864 1.01398,-1.86329c1.43864,-0.42465 1.86329,1.01398 1.86329,1.01398c1.45953,4.95394 4.07191,9.38123 5.9504,14.17563l0.0426,0.20465c0.01889,0.06302 0.03531,0.1299 0.04898,0.20085c0.10505,0.5453 -0.03067,0.92761 -0.2433,1.19288c-0.18216,0.26762 -0.48624,0.49969 -0.99164,0.57253c-0.86047,0.16555 -10.98624,3.3762 -12.46706,5.49924c-2.25572,3.234 4.24109,5.82475 5.13236,6.08081c4.82716,1.38681 12.81849,2.52507 15.1486,2.45763c12.50597,-0.36193 32.96531,-4.53086 36.6752,-5.6421c7.21401,-2.16085 14.55422,-5.76432 21.22214,-9.28722c3.35327,-2.305 6.82123,-5.12002 10.44202,-6.92176l0.53338,-0.40591c0.3163,-0.34523 0.67947,-0.44347 0.99905,-0.43854c0.00536,-0.00052 0.01074,-0.00102 0.01613,-0.00148c0.32026,-2.70946 0.08166,-6.11535 1.25681,-8.58508c1.8894,-3.97086 6.41013,-7.2506 9.43085,-10.31478c2.04328,-2.07267 6.27121,-8.88672 9.16011,-4.60708c0.50188,0.74348 0.40176,2.90844 0.54151,3.7945c0.01788,1.08245 0.05383,2.17107 0.08912,3.26264zM329.40252,161.86147c1.74203,0.47647 4.35088,1.59301 6.20255,0.88509c0.8189,-0.31307 2.45097,-2.92011 2.98494,-3.70679c0.49831,-1.36311 1.48698,-4.39088 0.68204,-5.82788c-1.035,-1.84769 -5.4871,-2.00862 -7.22465,-2.01186c-5.95077,-0.01108 -12.04488,0.72864 -17.96348,1.3654l-0.81159,0.08731c0.02617,1.22782 0.03344,2.45625 -0.00461,3.68068c4.53386,3.54888 10.70728,4.04356 16.13481,5.52805z" fill="#000000" stroke="none" stroke-width="0.5" stroke-linecap="butt"/></g><g stroke-width="0.5"><path d="M236.37865,134.15583c0.73091,5.80242 -6.19041,5.4446 -10.0476,5.95004c-0.92279,0.12093 0.31104,1.97547 -0.14204,2.78842c-0.5582,1.00159 -1.31516,1.91386 -2.19656,2.64728c-1.62942,1.35584 -5.73977,-0.0607 -7.00866,0.70002c-1.93963,1.16285 -2.92203,3.45424 -4.30777,5.24144c-2.49197,3.21391 -4.74589,6.61232 -7.32279,9.75855c-0.43572,0.53198 -2.50531,2.06306 -3.4644,1.97028c-2.68381,-0.25962 -14.72031,15.78478 -14.71016,12.84724c0.00111,-0.31843 0.64811,-3.25754 2.83068,-8.68902c2.58184,-6.42516 6.76261,-15.47557 6.70272,-15.46937c-2.17229,0.22518 -8.28308,0.73808 -12.6097,1.42124c-4.11826,0.65025 -6.49585,1.55486 -7.11988,-1.35344c-0.08021,-0.37379 5.51328,-9.58927 5.9434,-10.22192c3.96025,-5.82507 8.05466,-13.38543 12.6081,-18.73888c0.96395,-1.13332 5.43593,-6.90898 7.58079,-5.99188c0.0131,-0.00151 0.02621,-0.00297 0.03933,-0.00438c1.15022,-0.12374 2.25121,0.15295 3.16408,0.71815c0.6008,0.17106 1.1209,0.33955 1.47142,0.44245c5.67455,1.66575 10.9668,3.16948 16.46384,5.37584c1.12644,0.45213 4.08402,2.42697 4.22223,2.42357c0.84047,-0.0207 -0.99845,-5.43567 1.19202,-10.84137c0.96924,-2.39193 6.61001,-7.78808 7.01127,-7.59692c1.46905,0.69983 -1.49443,21.13261 -1.34614,22.51096c0.06084,0.56547 0.02488,1.11907 -0.09456,1.64424c0.59832,0.77466 1.04129,1.68083 1.14038,2.46748z" fill="#66ffff" stroke="none" stroke-linecap="butt"/><path d="M238.79782,111.76861l7.71355,17.47517l10.88888,18.94392l-10.96844,10.23199l-2.54722,-10.58828l-6.49795,1.30255l-19.86139,7.97028l-8.74073,4.7623l1.11631,2.89721l-7.00893,2.16215l-7.03664,3.77435l-5.61001,2.95138c0,0 11.90765,-15.50704 16.62875,-21.31611c2.40672,-2.96134 10.30598,-12.05652 10.30598,-12.05652c0,0 -7.39804,2.15797 -10.77562,3.04672c-5.36707,1.41223 -18.83332,5.46936 -18.83332,5.46936c0,0 15.22291,-18.58048 18.23595,-19.73362c2.16021,-0.82675 29.34712,7.67455 29.34712,7.67455c0,0 -1.4505,-3.4935 -0.91329,-9.07153c0.38511,-3.99875 3.83498,-21.26506 3.83498,-21.26506z" fill="#50a5eb" stroke="#50a5eb" stroke-linecap="round"/><path d="M227.02656,121.88178c0,0 0.0074,-0.2128 0.11354,-0.43858c0.15248,-1.23743 0.43697,-2.76219 0.97504,-4.33038c0.31067,-0.90547 1.52285,-2.99018 1.88819,-3.68119c3.04317,-5.75568 7.98483,-11.16384 8.56021,-9.21534c4.34898,14.72778 15.56706,37.50277 20.2828,43.20042c0.14691,0.11009 0.2737,0.27947 0.33186,0.53936c0.05761,0.18057 0.08012,0.40727 -0.02402,0.64007c-0.08693,0.23977 -0.26068,0.38712 -0.42759,0.4769c-0.12248,0.08064 -0.24084,0.12707 -0.35289,0.1487c-4.15974,3.86812 -8.05174,7.23755 -11.51675,11.84715c-0.08542,0.18521 -0.23957,0.36642 -0.51558,0.46135c-0.17443,0.08228 -0.39472,0.12586 -0.64521,0.04357c-0.25765,-0.05601 -0.42546,-0.20522 -0.53411,-0.36456c-0.19296,-0.22542 -0.23217,-0.46388 -0.20955,-0.66913l-0.04697,-0.47674c-0.83047,-3.53737 -1.96736,-6.88301 -2.97198,-10.35007l-0.40565,0.04364c-3.71139,0.38834 -7.84681,2.46134 -11.49025,3.4781c-3.69709,1.36194 -7.09357,3.22688 -10.75967,4.66516c-2.6969,1.05805 -5.93984,2.20917 -8.15387,4.13655c-0.67615,0.5886 0.28064,2.19395 0.68538,2.88758c0.11334,0.12785 0.20091,0.30704 0.23119,0.55781c0.0292,0.1758 0.02605,0.39649 -0.08871,0.60556c-0.10885,0.2122 -0.28986,0.33848 -0.45183,0.41281c-0.20979,0.10781 -0.39588,0.13928 -0.55754,0.12486l-0.7813,0.08405c-3.71324,0.34184 -9.07191,2.40974 -12.31847,4.12237c-2.54864,1.34447 -5.56778,3.71788 -8.85462,5.68042c-2.296,1.37092 -4.01765,3.9127 -4.30325,2.72581c-1.0245,-4.25755 3.47479,-12.83558 4.85293,-15.84468c0.75959,-1.65853 4.27297,-8.06913 5.30279,-9.77505c-5.50962,-0.92821 -10.64219,0.56913 -16.56768,2.10365c-1.42677,0.36949 -2.80779,0.66462 -4.11521,0.81522c-0.0697,0.02391 0.39947,-2.37323 3.95011,-8.91424c4.71102,-8.67865 13.41253,-22.7498 19.46054,-29.54671c1.30955,-1.47171 2.66224,-2.9923 4.41071,-3.19579c5.29973,-0.61676 12.3064,3.46351 13.20098,3.81908c3.99184,1.58662 7.53613,2.57244 11.1567,5.13026c0.20746,0.11261 0.41311,0.22863 0.6168,0.3483c0.00718,-0.22114 0.0118,-0.77655 0.06979,-1.55402c-0.00549,-0.24517 -0.00502,-0.49216 0.00308,-0.74231zM229.21439,124.94963l0.04584,0.42612c0,0 0.02281,0.21195 -0.05051,0.45066l0.31479,0.67036c0,0 0.10697,0.99426 -0.88729,1.10123c-0.60855,0.06547 -0.8847,-0.2816 -1.00738,-0.56073c-2.31391,-1.78404 -18.70868,-9.22437 -25.19265,-9.29144c-1.24942,-0.01293 -7.79079,7.60039 -12.54773,14.85839c-5.68887,8.67988 -9.75075,17.44562 -11.73895,20.13074c4.19383,-0.70748 8.31014,-1.46071 12.46349,-1.93145c2.32842,-0.26391 4.62656,-0.82862 7.0584,-0.29981l0.47571,0.16942c0.11618,0.025 0.24075,0.07533 0.37281,0.15952c0.24514,0.15629 0.37358,0.33839 0.43244,0.51812c0.0613,0.1789 0.06856,0.40163 -0.03289,0.67408c-0.05191,0.13941 -0.11685,0.25037 -0.18978,0.33824c-4.4366,6.94863 -7.27065,14.62797 -10.46759,22.1634c6.40462,-4.12286 13.26145,-9.09467 20.63166,-10.11412c-0.59477,-1.30912 -0.94196,-2.39073 0.10384,-3.56929c1.56853,-1.76765 4.84259,-3.00973 6.90035,-4.02883c4.31644,-2.13771 9.00278,-3.82477 13.52434,-5.48249c1.89306,-0.52898 13.30271,-5.83681 14.5445,-4.46931c0.1807,0.19898 1.31813,2.46138 1.65855,4.02411c0.65439,3.00401 1.12957,5.79204 1.41459,6.88914c3.13265,-3.82038 5.49349,-6.32798 9.13764,-9.71101c-3.51525,-4.40435 -9.17207,-14.79109 -13.45106,-24.28037c-3.19575,-7.08705 -5.58719,-13.93153 -5.93746,-16.01451c-4.77333,5.19556 -6.76939,10.01234 -7.74147,15.4596c0.03724,0.5701 0.10297,1.13631 0.16579,1.72022z" fill="#000000" stroke="none" stroke-linecap="butt"/><path d="M261.15962,149.41945c0.12325,-0.02651 0.2292,-0.00527 0.2292,-0.00527l0.70952,0.14279c3.80271,0.40784 7.23578,1.84904 10.8908,2.64502c5.93911,2.06553 12.87137,1.71113 18.64312,4.09686c4.55633,1.88449 2.35054,7.7418 2.27606,11.70348c-0.03304,1.75706 0.5906,3.90474 -1.69508,4.16291c-2.14385,-2.26522 -4.66678,-4.11008 -7.17759,-5.93793c-2.53233,-1.84351 -4.27522,-3.86342 -7.28893,-4.98567c-2.28745,-1.2932 -2.67323,4.26137 -4.19259,5.29223c-2.90073,1.96808 -4.95473,-2.64594 -5.99371,-4.62304c-2.56418,-4.8905 -6.87133,-7.31343 -7.49193,-13.08185c0,0 -0.05349,-0.49714 0.44364,-0.55062c0.49713,-0.05348 0.55062,0.44365 0.55062,0.44365c0.02561,0.23805 0.05804,0.4704 0.09687,0.69745z" fill="#50a5eb" stroke="none" stroke-linecap="butt"/><path d="M262.4924,153.59705c0,0 5.69337,1.61953 7.07287,2.0132c0.71966,0.20537 1.45502,9.94319 1.45502,9.94319z" fill="#66ffff" stroke="#66ffff" stroke-linecap="round"/><path d="M260.04588,148.56691c1.0261,0.1149 2.05308,0.22179 3.08034,0.32573c6.00152,0.91031 11.91638,2.0542 17.85195,3.35085c3.97771,0.86894 13.29327,3.10801 13.49822,3.28391c0.21547,0.16283 0.39568,0.42843 0.44212,0.86006l0.01528,0.14204c0.62772,5.83459 0.3159,11.78014 -1.01544,17.48797c-0.0259,0.38758 -0.20464,0.63998 -0.41175,0.80356c-0.23005,0.22639 -0.58664,0.3941 -1.12546,0.26674c-0.26211,-0.06195 -0.45439,-0.16703 -0.59477,-0.29378l-0.17376,-0.05476c-4.24835,-4.55414 -9.35826,-9.37798 -14.43757,-13.12448c-1.53017,2.47332 -3.07816,4.95524 -4.37933,7.55634c-0.04768,0.13626 -0.12602,0.27884 -0.24438,0.42576c-0.22644,0.28103 -0.46865,0.41555 -0.69864,0.46473c-0.22939,0.05187 -0.50569,0.0314 -0.82916,-0.12868c-0.19721,-0.09759 -0.34252,-0.21273 -0.44809,-0.33619l-0.45247,-0.3923c-4.84598,-6.19742 -8.99829,-13.31143 -13.26727,-19.94158c0,0 -0.67541,-1.05183 0.37641,-1.72723c1.05183,-0.6754 1.72722,0.37643 1.72722,0.37643c0.11428,0.17851 0.22851,0.35742 0.3427,0.5367c0.24349,-0.04079 0.45828,0.00889 0.6358,0.09229zM262.81354,151.37301c-0.24214,-0.0244 -0.48428,-0.049 -0.72637,-0.07383c3.29678,4.82469 6.40185,9.79685 9.55428,14.70764c1.09389,-1.97586 2.28947,-3.89932 3.47619,-5.81835l0.82959,-1.04461c0.2581,-0.34569 0.55075,-0.4779 0.82051,-0.50489c0.26593,-0.04658 0.58185,0.0012 0.92199,0.26157c4.91401,3.5173 9.91602,8.06252 14.22032,12.52066c0.83846,-4.47282 1.03613,-9.06545 0.6375,-13.60628c-4.05386,-0.071 -23.81061,-5.54803 -29.73401,-6.4419z" fill="#000000" stroke="none" stroke-linecap="butt"/></g><g stroke-linecap="round"><path d="M233.1398,161.70849c0,0 -1.18808,2.48904 -0.99566,4.12275c0.42098,3.57436 1.2451,7.83017 0.07476,8.48928c-2.08004,1.17144 -6.00852,-6.47516 -7.92084,-12.18695c-0.75849,-2.26547 0.09063,-8.53553 0.09063,-8.53553z" fill="#000000" stroke="#000000" stroke-width="1.5"/><path d="M260.39927,145.53312c0,0 -2.27536,5.51679 -3.34497,10.93284c-0.53651,2.71663 -1.14667,5.62342 -1.3596,8.13761c-0.17474,2.06318 0.02627,3.85031 -0.16588,5.15008c-0.19618,1.32702 -0.74609,1.87571 -0.95686,1.9944c-2.08004,1.17143 -4.07142,-2.49286 -5.98373,-8.20465c-0.75848,-2.26548 0.64855,-4.90773 0.64855,-4.90773z" fill="#000000" stroke="#000000" stroke-width="1.5"/><path d="M287.36414,118.82885c0,0 -8.9603,8.98101 -15.48361,16.15313c-13.42971,14.76546 -29.92264,33.61911 -30.46988,33.01789c-3.34466,-1.1836 -2.86067,-1.36596 -8.42346,-5.53301c-3.83248,-2.8709 -11.51416,-9.97659 -14.27814,-12.99993c-9.39051,-10.27165 -12.51634,-21.18022 -11.988,-20.71916c0.8702,0.75935 2.08731,3.25689 4.28793,6.52381c2.63052,3.90513 6.52419,8.92488 10.97334,13.59764c6.28335,6.59916 16.21001,13.369 18.73669,15.9472c0.49762,0.50776 16.12104,-18.47915 28.49552,-30.91003c4.52629,-4.54693 5.54828,-6.41077 9.23981,-9.28687c2.76066,-2.15084 8.90977,-5.79068 8.90977,-5.79068z" fill="#000000" stroke="#000000" stroke-width="0.5"/><path d="M234.27449,179.13891c0,0 12.75569,0.86342 17.84875,-0.63019c2.7542,-0.80771 6.3301,-3.15924 8.35028,-4.9195c0.78477,-0.68379 2.36604,-3.06603 2.00543,-3.17416c-0.52003,-0.15594 -2.5846,-0.21078 -2.5846,-0.21078c0,0 0.81748,-2.23298 4.88777,-2.95618c2.56522,-0.45577 8.08151,-0.16332 8.08151,-0.16332c0,0 -2.28195,10.42914 -5.35448,11.05171c-0.66428,0.19415 -10.92016,2.39403 -18.47908,2.68599c-10.33383,0.39913 -14.75557,-1.68357 -14.75557,-1.68357z" fill="#000000" stroke="#000000" stroke-width="0.5"/><path d="M259.77561,177.11376c0,0 4.06641,-2.87371 5.40803,-4.44969c0.91253,-1.07193 1.93934,-3.38118 1.93934,-3.38118l1.97325,-0.35596c0,0 -2.14042,6.39933 -2.61314,6.7308c-0.84971,0.59581 -6.70746,1.45604 -6.70746,1.45604z" fill="#ffffff" stroke="#ffffff" stroke-width="0.5"/></g></g><path d="M-3.9767,363.06856v-366.13712h487.95341v366.13712z" fill="none" stroke-opacity="0.01384" stroke="#ff0000" stroke-width="0.5" stroke-linecap="butt"/></g></g></svg>