<svg version="1.1" xmlns="http://www.w3.org/2000/svg" xmlns:xlink="http://www.w3.org/1999/xlink" width="488.45341" height="366.63712" viewBox="0,0,488.45341,366.63712"><g transform="translate(4.22671,3.31856)"><g data-paper-data="{&quot;isPaintingLayer&quot;:true}" fill-rule="nonzero" stroke-linejoin="miter" stroke-miterlimit="10" stroke-dasharray="" stroke-dashoffset="0" style="mix-blend-mode: normal"><g fill="#9966ff" stroke="none" stroke-width="0.5" stroke-linecap="butt"><path d="M233.90152,256.47915c-1.9277,1.59185 -3.51955,-0.33585 -3.51955,-0.33585l-2.93881,-3.60615c-3.02007,-7.39484 -6.19906,-14.79596 -8.11657,-22.57639c-1.00446,-4.07567 -1.50091,-8.281 -2.44918,-12.37518c0,0 -0.56361,-2.43564 1.87203,-2.99925c2.43564,-0.56361 2.99925,1.87203 2.99925,1.87203c0.94124,4.07119 1.43406,8.25417 2.43263,12.30593c1.80374,7.31883 4.85372,14.21941 7.56345,21.22412l2.49259,2.97119c0,0 1.59185,1.9277 -0.33585,3.51955z"/><path d="M265.8873,241.83244c-2.37016,0.79519 -3.16535,-1.57498 -3.16535,-1.57498l-0.12948,-0.38593c-2.10748,-6.28404 -4.61578,-12.96812 -5.82854,-19.49305c-0.90953,-4.89352 -0.87597,-10.00281 -1.70281,-14.93836c0,0 -0.4121,-2.4658 2.05371,-2.8779c2.4658,-0.4121 2.8779,2.05371 2.8779,2.05371c0.81769,4.90405 0.78396,9.99021 1.68702,14.84888c1.17017,6.2958 3.61794,12.75279 5.65305,18.81635l0.12948,0.38593c0,0 0.79519,2.37016 -1.57498,3.16535z"/></g><g stroke-width="0.5"><path d="M217.0883,237.14975c-1.59819,0.32432 -3.34822,0.42988 -5.50116,0.42193c0,0 -0.26702,-0.00098 -0.50879,-0.16057c-0.43383,0.50263 -1.0673,1.01745 -1.43301,1.45206c-2.62738,2.40281 -5.70607,3.41131 -8.68597,5.34547c-2.71293,1.76089 -5.53156,4.45395 -8.84808,5.15282c0.3101,1.02531 0.39009,2.1821 0.16974,3.50547c-0.21572,1.29557 -0.53411,1.3879 -0.9786,2.44973c-0.73884,1.76498 -1.01859,4.32211 -3.21168,4.493c-6.45633,-0.02383 -14.99962,0.78437 -20.73913,-4.24232c-0.06784,0.01983 -0.14724,0.031 -0.24008,0.03066c-0.74809,-0.00276 -0.87367,-0.74738 -0.87367,-0.74738l-0.09382,-0.6424c0.15428,-4.7754 4.27265,-6.98342 7.41697,-9.79913c2.36579,-2.11855 4.50501,-4.45271 8.36778,-3.244c3.57652,1.85881 7.74062,3.62005 9.55433,6.75395c3.14714,-0.5711 5.94198,-3.3374 8.49758,-4.99453c2.91466,-1.88995 5.92242,-2.83035 8.47965,-5.17473c0.24964,-0.29842 2.27664,-1.98895 1.70965,-2.59629c-1.16165,-1.24431 -3.79538,-2.00081 -5.30016,-2.3144c-4.14418,-0.86365 -7.8855,-0.26761 -11.77588,-2.61521c-0.93604,-0.80074 -2.2819,-1.37218 -2.94469,-2.43241c-2.15757,-3.45138 0.49859,-5.2119 3.01595,-6.35856c4.59238,-2.09185 9.74684,-2.13696 15.04973,-2.03929c2.03675,1.02754 7.19256,2.92062 8.33951,5.1016c2.48286,4.72129 -1.99956,8.13474 -5.54282,9.72492c0.50753,0.52866 0.80571,1.1445 0.70113,1.8652c1.67256,0.01896 3.40441,0.10934 5.03333,-0.09094c0.18406,-0.22206 0.5188,-0.22083 0.5188,-0.22083c0.1826,0.00067 0.53143,0.00197 0.71404,0.00264c0.65822,-0.15712 1.29086,-0.3821 1.88588,-0.70185c-0.14836,-0.2409 -0.25398,-0.55493 -0.298,-0.95421c-0.11837,-1.07379 2.26327,-2.87302 2.96743,-3.6023c1.00891,-1.04489 2.25849,-2.05219 3.07361,-3.26148c1.75945,-2.61025 2.24085,-5.92677 6.66536,-3.09005c0.92045,0.76377 2.81062,1.69005 3.44205,2.68924c1.60275,2.5362 -0.89509,4.70016 -2.50024,5.79048c-4.3275,2.93952 -9.03523,4.64137 -14.70153,4.62045c-0.27707,-0.00102 -0.55415,-0.00205 -0.83121,-0.00307l-0.16624,-0.00061c0,0 -0.21104,-0.00078 -0.42776,-0.11308z" fill="#ff2d32" stroke="none" stroke-linecap="butt"/><path d="M190.81882,262.61975l-0.70211,-0.40572c0,0 -0.11902,-0.07142 -0.23621,-0.1991c-1.7856,-0.69819 -3.744,-2.39946 -4.03479,-4.09442c-0.02661,-0.15514 0.53478,-2.77076 0.58947,-3.03167c1.09623,-5.22979 3.75366,-8.91584 7.46506,-12.46802c2.2726,-2.17243 4.84303,-3.90842 7.26242,-5.91301c1.48937,-1.23403 2.77346,-3.01206 4.41441,-4.02554c2.49442,-1.54059 5.41196,-2.69193 7.72489,-4.43643c2.54001,-1.31783 6.21956,-0.29481 9.17878,-0.55912c4.28663,-0.38287 8.30015,-0.46908 12.70692,-0.45281c2.37484,0.09458 4.02552,2.49415 5.73454,4.1119c3.88599,3.67847 7.79836,9.03121 9.18652,13.95974c0.32331,1.14788 0.82073,2.87962 0.40343,3.91708c-0.06864,0.17063 -2.01652,1.9751 -2.19818,2.1457c-8.98187,4.3725 -18.48381,5.72703 -28.87882,6.70702c-3.79647,0.35791 -7.1301,1.47473 -10.78662,2.18234c-5.24177,1.01439 -11.16499,1.12632 -15.72214,3.51185l-0.76867,0.01402c-0.19502,0.05068 -0.37574,-0.00403 -0.51819,-0.0826c-0.14734,-0.06408 -0.30616,-0.17628 -0.40944,-0.37273c-0.13709,-0.16949 -0.27418,-0.33898 -0.41127,-0.50847z" fill="#ab164a" stroke="none" stroke-linecap="butt"/><path d="M256.99636,269.65063c-1.86643,-1.23478 -4.15211,-3.07092 -5.1679,-4.99327c-1.66969,-3.15982 0.08829,-5.20301 0.29658,-8.03201c0.16905,-2.296 -0.13059,-4.95897 -1.02373,-7.26663c-2.32788,-2.95114 -6.87832,-3.88796 -10.47529,-5.16881c-0.878,-0.31264 -1.86444,-0.17199 -2.67359,-0.67592c-4.34902,-2.70847 -2.51433,-8.2859 0.73399,-9.44713c3.47498,-1.00274 9.85208,-0.95547 13.74674,-0.30361c1.33352,0.2232 0.84959,-2.15823 4.53141,-4.47681c2.32666,-1.46517 9.2371,-3.34146 10.06414,-3.13677c2.75685,0.68227 -0.09949,10.27897 2.60647,10.31338c7.38778,0.02723 10.41094,-1.91234 16.80413,-4.49863c1.40918,-0.57006 4.88918,-1.25858 5.44932,-2.70449c-0.06556,-3.91919 2.20923,-4.74741 5.67706,-5.25216c1.01027,-0.14705 1.55662,-1.11952 2.79606,-0.60411c2.79383,1.1618 3.3527,5.2081 1.87823,6.8624c-1.0573,1.18626 -2.45735,2.2497 -3.63669,3.33252c-0.53126,0.46627 -1.3662,0.59364 -1.80759,1.14425c-0.33283,0.4152 0.4688,1.13108 0.79709,1.65906c1.05161,1.69132 3.19492,1.5881 4.72134,2.24387c3.95696,1.69997 11.26361,7.38963 10.82237,11.68492c-0.64285,3.25927 -0.14258,7.43531 -2.30083,10.03408c-1.53541,1.8488 -3.92779,1.8406 -6.30743,2.21572c-3.90795,0.61604 -7.65492,1.25929 -11.68818,1.43542c-9.9861,0.43609 -21.3474,0.03672 -29.44848,4.89076c-1.67498,0.87507 -3.09852,1.91026 -5.16137,1.91089l-0.7082,-0.24655c0,0 -0.66719,-0.30861 -0.52565,-0.92038z" fill="#ff2d32" stroke="none" stroke-linecap="butt"/><path d="M210.47014,211.1409c0.01267,-0.01711 0.0202,-0.02607 0.0202,-0.02607l0.05922,0.00332c0.0005,-0.00013 0.001,-0.00026 0.0015,-0.00038c2.32355,-5.23859 8.25751,-6.04462 14.03925,-5.7719c11.52044,0.54342 23.45912,1.33523 35.05944,3.74197c1.31775,0.52873 5.01632,1.96076 5.56536,2.57c0.65662,0.72861 0.29612,1.80575 0.32452,2.69741c0.17239,5.41132 -3.08068,8.61844 -7.38729,10.95876c-3.98497,2.16553 -11.57101,1.93717 -16.3984,0.74307c-3.83302,-0.94814 -6.43747,-2.38854 -10.31998,-2.40647c-0.89478,0.13837 -1.96214,-0.01426 -2.66266,0.47967c-2.74317,1.93419 -1.84732,7.56318 -6.62111,7.56977c-2.59451,0.00358 -4.18251,-2.65203 -5.41018,-4.56341c-1.44378,-2.24784 -1.8042,-4.73848 -2.73333,-7.12957c-0.97462,-2.50815 -2.6329,-4.49284 -4.1474,-6.75137c0,0 -0.89375,-1.33449 0.33215,-1.99556c0.09498,-0.05123 0.18798,-0.09046 0.27871,-0.11927z" fill="#0f1b82" stroke="none" stroke-linecap="butt"/><path d="M266.24929,221.54953c0.18771,-0.38965 0.54719,-0.5835 0.54719,-0.5835l0.50229,-0.23975c1.32828,-0.38166 2.8088,-0.35579 4.19545,-0.5885c1.64402,-0.2759 2.99541,-1.22686 4.57971,-1.65781c3.46517,-0.94258 7.54008,-1.58524 11.30642,-1.42063c2.87555,0.12568 7.91882,2.81071 7.59174,6.3983c-0.15664,1.71806 -2.4722,3.26334 -3.53285,4.41098c-1.35531,1.46646 -1.73542,3.80438 -2.38595,5.6963c-1.88028,2.58154 -4.24358,7.04188 -7.29836,8.42035c-3.1254,1.41032 -5.58249,-1.65989 -7.52325,-3.94509c-1.1217,-1.32077 -2.52724,-2.42204 -3.55675,-3.80655c-1.19566,-1.60795 -1.54118,-3.62941 -2.43105,-5.34561c-0.99561,-1.92013 -2.06275,-3.55614 -2.84186,-5.57537c0,0 -0.55802,-1.45458 0.84726,-1.76311z" fill="#0f1b82" stroke="none" stroke-linecap="butt"/><path d="M210.18236,212.30784c0,0 4.01303,7.05277 4.81282,8.85826c1.3508,3.04939 3.87585,8.04139 3.87585,8.04139l-8.15526,-7.82604l-7.57709,-1.02018l-5.84121,0.8289l-5.27123,0.831l0.79585,-9.63568l2.01371,-4.10315l8.31451,2.01511l6.48703,3.00058z" fill="#0066cc" stroke="#0066cc" stroke-linecap="round"/><path d="M268.57561,208.12934l18.79135,5.03043l3.87739,5.25885c0,0 -8.55603,14.90937 -11.65969,15.36087c-1.8728,0.21562 -12.48525,-9.0715 -12.48525,-9.0715l-9.42337,4.07579l-4.67427,3.52636l0.5751,4.25445l-11.9257,-3.1624l-3.21173,-4.68941l-8.60461,-6.26852c0,0 10.50012,3.77601 18.86813,2.08299c10.83221,-2.19157 14.4931,-6.92088 14.4931,-6.92088z" fill="#0066cc" stroke="#0066cc" stroke-linecap="round"/><path d="M257.51703,195.33153c-0.25116,-1.48924 1.24502,-1.48372 1.24502,-1.48372l0.58949,0.01077c5.04208,0.55743 10.64146,2.16486 15.59858,3.9179c1.13539,0.42501 2.3577,0.61758 3.40619,1.275c2.92877,1.83638 2.81039,5.77026 4.24266,8.31775c1.23428,2.19533 4.0451,1.49576 4.3783,4.77511c0.1959,1.92798 -1.86228,3.13999 -3.35822,3.46045c-1.57849,0.33814 -2.63169,-0.34038 -4.08226,-1.00098c-3.2731,-1.49059 -6.45276,-3.79439 -9.85175,-4.5913c-1.18219,0.89286 -2.31085,1.83551 -3.43784,2.79166c-0.1335,0.19203 -0.35129,0.35439 -0.69732,0.43929c-0.2497,0.08055 -0.58032,0.11669 -0.94639,-0.02746c-0.36975,-0.12788 -0.63438,-0.38406 -0.81207,-0.62262c-0.25812,-0.30887 -0.37467,-0.59564 -0.40722,-0.84975l-0.46129,-1.31855c-1.10291,-4.47779 -1.67359,-9.00066 -2.42973,-13.48993c-0.32345,-0.04328 -0.64469,-0.0822 -0.96332,-0.11647l-0.26548,0.00761c0,0 -1.49618,-0.00552 -1.74734,-1.49477z" fill="#fddfbd" stroke="none" stroke-linecap="butt"/><path d="M263.61366,189.68426l16.01734,8.84728l0.81327,4.82231c0,0 -2.19667,1.08837 -8.73681,-1.59681c-6.70615,-2.75334 -11.27034,-7.2652 -11.27034,-7.2652z" fill="#f89587" stroke="#f89587" stroke-linecap="round"/><path d="M230.45419,172.68487c2.96052,-2.8417 7.05196,-5.65922 11.11819,-7.03126c2.59303,-0.87496 6.26236,-0.33797 9.10451,-0.32626c3.3571,0.01383 8.31945,-0.10358 11.60586,1.61017c4.96414,2.58864 2.19896,5.17873 -0.75421,6.46136c-1.78408,0.25888 -3.58263,0.37085 -5.38679,0.42687c-0.00352,0.68161 -0.4423,0.96122 -0.80377,1.07592c-2.69457,2.32759 -6.36475,1.75852 -10.15455,1.75139c-4.112,-0.00773 -7.91059,0.16833 -11.87043,-0.34314c-0.04144,0.00864 -0.08286,0.01725 -0.12427,0.02587l0.0658,0.3487l-2.97684,0.04843c-0.01154,0.00022 -0.02312,0.00031 -0.03476,0.00027c-0.82632,-0.00305 -1.60862,-0.67228 -1.74733,-1.49476c-0.13121,-0.77801 0.36045,-1.41447 1.1134,-1.47844l0.45301,-0.04423c-0.04142,-0.61458 0.39222,-1.03091 0.39222,-1.03091z" fill="#f89587" stroke="none" stroke-linecap="butt"/><path d="M232.08232,183.55283l0.73642,0.0336c2.13307,-1.26038 4.32474,-2.32482 6.44915,-3.61955c1.69978,-1.03595 3.51785,-2.8051 5.60489,-3.23712c4.51664,-0.93494 9.44531,-0.7891 13.97544,-1.70341c3.54907,-0.7163 6.55283,-2.0396 10.22296,-2.58024c1.9477,-0.28118 5.4921,-1.16542 7.50743,0.47744c0.78281,0.63812 0.07995,1.83886 0.02309,2.73975c-0.12067,1.9116 -0.25156,4.10837 0.77315,6.10793c1.07788,2.10334 2.73941,5.12665 4.17373,7.06c0.98925,1.33342 2.18431,1.96035 2.71326,3.93537c1.86915,6.9791 -8.47211,5.02447 -12.70028,3.10959c-3.22726,-1.37024 -6.17975,-2.91267 -8.90486,-5.16128c-0.13538,-0.11171 0.27171,0.27361 0.28642,0.43389c0.04258,0.46434 -0.06915,0.90455 -0.12266,1.35185c-0.25405,2.12355 -0.36452,3.91929 -0.36287,6.07204c0.00373,4.887 1.61047,9.60477 2.46164,14.47833c0.15293,0.46211 0.06975,0.80425 -0.08793,1.04945c-0.12662,0.26524 -0.36795,0.50571 -0.81931,0.57914l-0.32754,0.11209c-2.18565,0.60515 -3.96688,1.79818 -6.3396,2.00838c-2.0315,0.17997 -3.73177,-0.12861 -5.63268,0.53204c-11.53122,0.06351 -24.03724,0.84751 -35.31998,-5.13124c-3.64165,-1.92972 -6.53307,-3.42287 -9.09134,-6.82959c-0.22184,-0.94664 -0.6479,-1.90239 -0.66551,-2.83991c-0.07437,-3.95981 4.63834,-5.70104 7.31755,-7.37732c2.07266,-1.29678 3.56582,-3.30091 5.61761,-4.65352c3.56484,-2.35006 7.76071,-3.88371 11.33904,-6.19143c0,0 0.05373,-0.03436 0.14772,-0.07558c0.269,-0.59835 1.02505,-0.6807 1.02505,-0.6807z" fill="#feebf7" stroke="none" stroke-linecap="butt"/><path d="M262.22686,202.8348l-9.42256,-24.84004l6.59885,9.57439l3.62025,3.73415z" fill="#db93e6" stroke="#db93e6" stroke-linecap="round"/><path d="M227.49209,176.41299l2.69756,-3.21473l7.13048,2.38282l7.62652,0.15218l6.43979,-1.71259l6.97591,-5.18335l8.49122,-6.54204l5.98383,-0.72207l2.72476,2.11851l2.91402,3.9796l-1.92585,5.57407l-46.05421,12.85274z" fill="#db93e6" stroke="#db93e6" stroke-linecap="round"/><path d="M269.44223,239.51253c1.05432,-1.02245 2.61455,-0.76327 4.16865,-0.98335c1.72732,-0.15159 3.39256,3.93104 5.57577,3.85261c3.46856,-0.1246 7.57675,-4.20158 10.26031,-2.83046c2.77191,1.41627 2.81887,4.71941 5.52422,5.42002c1.17817,0.47406 2.82901,0.48681 3.89353,1.2351c0.79825,0.56112 0.81617,1.71847 1.29688,2.54917c0.58717,1.01467 3.01318,0.80299 3.54357,1.8534c0.26772,0.5302 0.10846,1.18268 -0.17333,1.61411c-0.14394,0.22037 -1.57137,0.34051 -1.89341,0.40559c-2.19044,0.44266 -4.31573,0.84696 -6.53217,1.21783c-2.52084,0.50352 -5.23464,0.29235 -7.84276,0.47681c-4.93693,0.34917 -10.61557,1.86288 -14.73827,4.08646c-1.55417,0.83629 -6.70398,3.95413 -8.60073,0.93288c-0.88912,-1.41624 0.90475,-2.86638 0.4971,-4.22184c-0.36452,-1.21207 -2.0987,-0.12412 -2.97697,-1.61654c-0.69319,-1.17791 0.6796,-1.98704 0.05028,-3.09487c-4.46594,0.40769 -3.52718,-3.77442 -2.01691,-5.74249c1.77447,-2.31237 6.70665,-4.96603 9.96427,-5.15443z" fill="#feebf7" stroke="none" stroke-linecap="butt"/><path d="M234.98085,229.24844c0,0 2.52488,1.16788 2.72038,2.32716c0.19551,1.15928 -2.65246,1.52 -2.99516,1.36341c-0.43737,-0.18226 -1.99111,-3.56579 0.27478,-3.69057z" fill="#000000" stroke="none" stroke-linecap="butt"/><path d="M234.40514,192.20885c1.74294,3.8108 3.36258,8.18588 5.60819,11.8151c2.29886,-1.36469 7.31451,-5.02586 7.94559,-8.69971c0.14451,-0.84127 0.05911,-1.6832 -0.34147,-2.49838c-0.08799,-0.17906 -1.56022,-0.38303 -2.33244,-0.43332c-1.07126,-0.06976 -1.62152,0.03853 -2.64562,-0.13282c-1.20818,-0.20216 -1.02839,-0.94204 -2.16873,-0.92795c-3.26058,0.04026 -5.68564,0.75092 -6.06551,0.87709zM226.89142,198.68289c-1.77774,3.53474 1.04704,5.96344 4.21924,6.682c1.85807,0.4209 3.43899,-0.15377 5.33687,-0.35053c0.3933,-0.16183 0.54922,-0.34341 0.96247,-0.54083c-2.28491,-3.67959 -3.55672,-7.23439 -5.32461,-11.08505c-1.46477,0.89662 -4.40233,3.72037 -5.19397,5.29441zM247.18331,189.4451c3.90665,1.30684 4.63305,4.10674 3.09929,7.43062c-1.31998,2.86061 -2.96235,5.65449 -5.79004,7.95048c-1.89861,1.54161 -4.79941,2.92515 -6.7442,3.70517c-2.27914,0.25771 -7.0619,-0.03793 -9.444,-0.97608c-5.76625,-2.27094 -6.27786,-7.185 -3.92277,-11.87712c1.24343,-2.47735 5.32933,-5.33857 11.01787,-6.54151c4.30878,-0.91116 10.70249,-0.0533 11.78385,0.30843z" fill="#ff0000" stroke="none" stroke-linecap="butt"/><path d="M272.1178,238.76669c0,0 1.51954,0.10827 2.80855,0.20012c0.83151,0.05925 3.43098,3.64392 5.15912,3.76705c1.55916,0.1111 2.20731,-3.24217 3.76896,-3.1309c2.63659,0.18786 4.78504,0.34095 4.78504,0.34095c0,0 -5.06285,11.14368 -7.67496,11.38208c-1.03732,0.09468 -12.14943,-11.45527 -12.14943,-11.45527z" fill="#db93e6" stroke="#db93e6" stroke-linecap="round"/><path d="M236.65349,244.9611l0.07566,-6.20103c0,0 6.29068,0.32648 9.51447,1.20647c2.26461,0.61816 7.51041,3.69341 7.51041,3.69341l-4.58961,2.33955z" fill="#ab164a" stroke="#ab164a" stroke-linecap="round"/><path d="M303.48666,226.02023l0.01478,0.08762c0.39032,2.33632 -0.28,4.12119 -1.64081,5.75255c-2.45915,2.35587 -5.41275,3.8649 -8.23929,5.76049c-0.90228,0.6051 -3.00699,2.34697 -4.19127,2.32474c-3.62189,-0.06799 -2.26873,-4.5705 -1.26468,-5.76705c3.9064,-3.5808 9.20443,-6.75858 14.13598,-9.00719c0,0 0.63814,-0.29078 1.04825,0.39472c0.10597,0.17713 0.14196,0.32792 0.13703,0.45413z" fill="#ab164a" stroke="none" stroke-linecap="butt"/><path d="M180.46953,239.26898l0.04898,-0.20976c2.38368,-3.26982 8.33254,1.1278 11.3522,3.05524c0.85139,0.6013 2.36467,1.54552 2.83721,2.50748c0.86477,1.76045 0.51407,4.34824 -1.90202,3.77482c-1.925,-0.45687 -2.74708,-2.41661 -4.3351,-3.44393c-2.49243,-1.61241 -5.53329,-2.86773 -8.14813,-4.29524c0,0 -0.70609,-0.38547 -0.42889,-1.02256c0.13428,-0.30861 0.3692,-0.37728 0.57575,-0.36604z" fill="#feebf7" stroke="none" stroke-linecap="butt"/><path d="M187.67243,238.1834c0.00805,0.22547 -0.06579,0.53666 -0.51088,0.61093c-0.71727,0.11969 -0.96412,-0.61526 -0.96412,-0.61526l-0.35161,-1.05447c-0.43609,-2.6986 1.28815,-3.32474 3.83182,-2.51862c3.68266,1.16707 8.23247,3.60883 11.20784,6.15068c2.3528,2.55448 1.50655,6.0392 -2.29694,4.46169c-3.73061,-1.54729 -7.70289,-4.36443 -10.91612,-7.03495z" fill="#feebf7" stroke="none" stroke-linecap="butt"/><path d="M196.29534,236.26148c-0.17286,0.09554 -0.36409,0.09483 -0.36409,0.09483l-0.64022,-0.1512c-2.21074,-1.5834 -2.29556,-4.59954 0.27298,-5.12852c3.13883,-0.64643 6.2016,0.85217 9.46714,1.77787c3.55238,1.52676 6.53993,6.99289 2.05941,7.34521c-3.49354,0.27471 -7.35606,-2.17205 -10.79524,-3.93819z" fill="#feebf7" stroke="none" stroke-linecap="butt"/><path d="M185.93076,260.7939c0.24031,0.00089 0.41638,0.07832 0.54469,0.18304c0.17887,0.00608 0.35773,0.01216 0.5366,0.01824c2.87238,1.67338 6.07734,7.98141 2.0271,9.21126c-1.76392,0.53561 -4.998,0.11016 -6.9111,-0.35326c-3.34009,-0.8091 -6.8617,-0.86204 -10.26003,-1.53511c-3.25138,-1.21665 -7.07224,-2.80799 -9.26221,-5.88361c-2.2294,-3.13099 -0.41368,-7.0222 2.23706,-8.24105c0.17809,-0.1248 0.36554,-0.12509 0.52637,-0.08047c0.16829,0.02871 0.35856,0.11728 0.52057,0.33487l0.50158,0.51249c0.71844,1.24568 1.36059,2.92254 2.68098,3.76203c1.38211,0.87873 3.66413,0.83051 5.15448,1.04274c3.74287,0.53298 7.62426,0.41887 11.37536,1.09301c0.08443,-0.04026 0.19191,-0.06469 0.32853,-0.06419z" fill="#feebf7" stroke="none" stroke-linecap="butt"/><path d="M278.41853,276.86602c-7.97664,-0.02945 -14.28715,-2.78326 -21.48049,-6.12736c-0.00429,0.02727 -0.00844,0.05461 -0.01246,0.08202c0,0 -0.11743,0.70553 -0.86684,0.46744c-0.74941,-0.23809 -0.63198,-0.94362 -0.63198,-0.94362c0.01724,-0.0954 0.03576,-0.19006 0.05556,-0.28401c-0.57102,-0.26618 -1.14845,-0.53508 -1.73348,-0.80568c0,0 -0.72527,-0.33548 -0.50304,-1.00025c0.22223,-0.66477 0.94751,-0.3293 0.94751,-0.3293c0.56648,0.26202 1.12542,0.52258 1.67802,0.7807c2.09052,-5.68948 9.13385,-8.41352 14.5698,-10.13027c3.37853,-1.05793 3.2417,-0.78187 6.35814,-2.29498c4.11598,-1.99841 3.04849,-0.50932 7.79027,-0.97155c0.33071,0.00083 18.17545,-2.29032 18.17545,-2.29032c3.44429,0.01274 -0.12597,-3.52858 3.09917,-1.25891c1.02691,1.04998 3.1935,3.36177 4.63188,4.8062c1.06843,-3.02258 0.18944,-7.69353 -0.01933,-11.29062c0,0 -0.0422,-0.73976 0.71519,-0.65479c0.06421,0.0072 0.12329,0.01912 0.17763,0.03489c0.56957,-0.23102 0.97624,0.37618 0.97624,0.37618c1.31228,1.95941 3.11613,3.88726 4.05829,5.99627c2.55895,5.72816 -0.11362,11.69735 -2.66683,16.05647c-2.46548,3.9791 -5.82112,6.40074 -10.21599,8.23656l-0.93638,0.13837c0,0 -0.42037,0.05965 -0.722,-0.23912c-7.97214,0.06365 -15.39607,1.67541 -23.44431,1.6457z" fill="#ab164a" stroke="none" stroke-linecap="butt"/><path d="M267.6273,229.58581c0.23141,1.16408 6.95788,7.40197 5.84511,8.27277c-0.25524,0.13726 -0.58204,0.36326 -0.9569,0.63087c-1.60524,1.14592 -4.09197,3.05463 -5.61587,2.02443c-0.72895,-0.49278 -0.7765,-3.81035 -0.83847,-4.42097c-0.34891,-3.43816 -0.28591,-6.50334 -0.01335,-9.80772c0,0 0.05961,-0.72172 0.81582,-0.53845c0.52781,0.12792 0.1689,0.84721 0.76365,3.83907z" fill="#ab164a" stroke="none" stroke-linecap="butt"/><path d="M314.73848,247.79192c-0.12558,-0.74462 0.62251,-0.74186 0.62251,-0.74186l0.16625,0.00062c2.32018,0.03197 4.3385,1.5392 6.33201,2.88724c1.35241,1.538 1.30526,3.48578 1.61591,5.32784c0.9693,5.74753 -0.73974,13.2924 -5.20423,16.66515c-5.78717,3.12648 -11.86329,5.83053 -18.29051,7.77484c-2.41874,0.7317 -4.36416,1.6618 -7.07612,1.65805c-9.09603,-0.03358 -17.58581,-0.62259 -26.76647,-2.12094c-7.72982,-1.26162 -19.08675,-6.50576 -18.82917,-15.62791c-0.002,-1.65857 -0.0638,-4.48419 1.07636,-5.67986c0.6935,-0.72728 1.7191,-1.17434 2.80136,-0.04602c0.70525,0.73526 0.58934,3.25679 0.65453,4.11909c0.19891,2.63106 0.87262,4.96205 3.49011,6.3957c7.89064,2.97124 14.51671,5.47397 22.63819,4.47245c7.3224,0.01694 15.49804,0.24253 21.94691,-2.51605c5.89088,-2.31794 10.53194,-6.56417 14.82351,-10.82758c-0.29785,-2.63623 0.50585,-5.05315 1.29316,-7.41051l0.05984,-0.25718c-0.44041,-1.20422 -0.90574,-2.41895 -1.10419,-3.57604c0,0 -0.00011,-0.00063 -0.00029,-0.00184c-0.1152,-0.11005 -0.21137,-0.26813 -0.24967,-0.49519z" fill="#feebf7" stroke="none" stroke-linecap="butt"/><path d="M248.76598,268.88088c0,0 15.86059,16.78853 54.58062,5.55186c7.20621,-2.09126 13.77738,-8.34018 16.92613,-14.11091c2.31934,-4.25067 0.98008,-9.85998 0.98008,-9.85998c0,0 1.23442,2.53388 1.76181,4.62427c0.62517,2.47799 1.74601,9.27963 1.74601,9.27963l-5.97516,7.91562l-18.08414,7.04408l-22.41241,2.06705l-15.18624,-2.37122l-8.70519,-4.33171z" fill="#db93e6" stroke="#db93e6" stroke-linecap="round"/><path d="M242.60085,251.65553c1.80584,-0.80428 2.34605,-1.66322 3.69028,-3.05377c0.34989,-0.36196 1.37702,-1.36446 2.01563,-1.25412c1.67825,0.28997 2.13398,1.82538 2.93131,2.98128c0.2284,0.33112 1.72567,2.25545 1.77513,2.66641c0.14012,1.16414 -0.87294,1.94404 -1.49624,2.60892c-1.64191,1.75145 -2.93414,3.75998 -4.71084,5.41881c-4.0076,2.28054 -10.16222,1.92731 -14.99626,2.03189c-2.76579,0.05983 -5.37573,0.44993 -8.20224,0.17745l-0.73808,-0.11567c0,0 -0.60677,-0.09632 -0.73906,-0.64239c-3.61868,0.22485 -7.06137,0.89217 -10.31762,2.21321c-3.07731,1.29749 -5.7222,3.28005 -8.77668,4.59755c-3.29035,1.41924 -7.95419,1.59339 -11.72038,1.57949c0,0 -0.2902,-0.00107 -0.53945,-0.18179c-0.3393,0.03507 -0.65252,-0.23288 -0.65252,-0.23288l-0.6132,-0.52763c-0.95902,-0.61037 -4.22827,-4.0728 -4.96443,-4.98825c-0.28106,-0.34951 -0.6247,-1.85505 -0.64423,-1.95112c-0.05356,-0.26345 0.87457,1.4413 1.10452,0.77467c0.08363,-0.24246 -0.07333,-1.67757 -0.14026,-2.07444c0,0 -0.12558,-0.74462 0.62251,-0.74186c0.25286,0.00094 0.43458,0.08661 0.5644,0.19965c1.49324,-1.16326 4.45341,-0.61486 6.42774,-0.60757c4.55371,0.01681 9.69907,0.73787 13.61242,-1.20763c4.48799,-2.07727 8.95927,-4.2833 13.6895,-5.92959l0.09701,-0.13705c0,0 0.52312,-0.44456 1.07244,0.15279c0.0361,0.03926 0.06757,0.07785 0.09486,0.11571c7.18481,0.00942 14.7603,-0.52143 21.5537,-1.87206z" fill="#db93e6" stroke="none" stroke-linecap="butt"/><path d="M200.00068,247.26896l-0.60881,-0.6563c0,0 -0.08449,-0.09187 -0.18428,-0.24362c-0.39685,0.04391 -0.91029,-0.06661 -1.41961,-0.65226c-1.06375,-1.2232 0.01793,-2.0727 0.01793,-2.0727c0.41917,-0.32919 0.83833,-0.65838 1.25749,-0.98757l0.61046,-0.40695c0.05941,-0.04458 0.12594,-0.08713 0.20025,-0.12721c0.40018,-0.2158 0.76497,-0.21894 1.07483,-0.12528c0.31152,0.08024 0.65108,0.2805 0.97267,0.6983c0.0855,0.11108 0.15488,0.21825 0.21031,0.32135c0.70295,1.15832 1.1592,2.45044 1.39474,3.71043l0.08258,0.48968c0.11281,0.30122 0.14962,0.66056 -0.04428,1.01852c-0.09706,0.25097 -0.28554,0.49317 -0.64301,0.61077c-0.33622,0.15655 -0.67519,0.12283 -0.96303,0.02398c-0.44636,-0.10493 -0.74503,-0.36077 -0.94252,-0.62852c-0.33859,-0.32421 -0.67717,-0.64842 -1.01575,-0.97263z" fill="#db93e6" stroke="none" stroke-linecap="butt"/><path d="M208.27305,235.34963c0.3423,-0.18458 0.65869,-0.21358 0.93697,-0.1595c0.2783,0.05336 0.58952,0.20351 0.91738,0.51747c0.20263,0.19403 0.3417,0.38367 0.4331,0.56464c0.68033,1.00093 1.68152,2.40153 1.75551,3.47521c0.10511,1.52544 -0.66433,3.93019 -2.45589,4.20413c-1.92554,0.29441 -4.31523,-0.77735 -4.74046,-2.92838c-0.29943,-0.12424 -0.60801,-0.36586 -0.86734,-0.80815c-0.80729,-1.37682 0.4772,-1.9445 0.4772,-1.9445c0.8869,-0.37042 1.67301,-0.9602 2.2592,-1.68908l0.82,-0.83464c0.10084,-0.1458 0.25027,-0.28176 0.46433,-0.39718z" fill="#db93e6" stroke="none" stroke-linecap="butt"/><path d="M197.35571,249.82274c0.13468,0.79857 -0.38688,1.44801 -1.17364,1.4823c-0.17893,0.0913 -0.38779,0.14199 -0.61743,0.14115c-0.82632,-0.00305 -1.60863,-0.67228 -1.74734,-1.49477c-0.01919,-0.1138 -0.02506,-0.22458 -0.01873,-0.33096l-0.78155,-0.41346c-0.36085,0.13997 -1.2385,0.33365 -1.96292,-0.67926c-0.93694,-1.31004 0.25629,-2.01832 0.25629,-2.01832c0.47464,-0.28173 0.94927,-0.56347 1.42391,-0.84521l0.56025,-0.30326c0.00168,-0.00092 0.00337,-0.00182 0.00506,-0.00274c0.42576,-0.22958 0.81144,-0.21847 1.13355,-0.10617c0.32526,0.09336 0.67572,0.31613 0.98611,0.77959c0.05485,0.08189 0.10171,0.16125 0.14137,0.23807c0.49665,0.78288 1.25448,1.53479 1.29182,2.37214c0.00338,0.07585 -0.00081,0.14872 -0.01153,0.21901c0.26385,0.26013 0.45307,0.59583 0.5148,0.96188z" fill="#db93e6" stroke="none" stroke-linecap="butt"/><path d="M195.3138,235.28639c2.9176,0.26772 5.32378,1.73917 7.16603,2.71391c2.5488,1.34858 6.47531,7.40778 8.06185,3.04991c1.1267,-2.42922 -1.22388,-4.95336 -3.69431,-6.31582c-0.76908,-0.42415 -8.93571,-2.17856 -10.00888,-2.16838c-3.45423,0.03274 -2.02949,2.56179 -1.52468,2.72039zM207.62766,233.05843c1.61943,0.89765 5.26867,3.95516 6.0316,6.28476c0.73156,2.23387 -1.53357,4.73716 -1.6757,4.94801c-2.87954,4.2716 -6.4007,-1.74366 -9.3952,-3.28836c-0.9534,-0.49181 -2.12709,-1.5317 -3.09756,-1.79428c2.18657,1.67542 3.589,3.0087 4.59354,4.66588c1.05441,1.73945 0.81743,4.41798 -0.70996,6.28149c-0.33207,0.16612 -0.89225,0.46308 -1.54568,0.07792c-1.52984,-0.90175 -3.56813,-3.31915 -4.36767,-3.9595c-0.64649,-0.51777 -1.29867,-1.04293 -1.95752,-1.56748c1.59565,1.91195 2.79087,3.94667 2.73616,6.51356c-0.17687,0.89932 -1.27729,1.47536 -2.38955,1.56578c-0.73887,0.06006 -1.49076,-0.1404 -1.9523,-0.435c-2.70286,-1.72521 -4.47003,-4.30859 -6.62257,-6.60747c-1.07609,-1.14925 -3.66123,-3.4319 -5.21627,-4.04327c-4.70666,2.11886 -11.78549,5.1966 -13.45714,7.75923c-0.73946,1.13359 -0.54566,4.0947 0.33894,5.61221c0.47795,0.8199 1.29581,0.98902 2.06658,1.50495c3.70092,1.91487 25.16632,4.06695 30.25019,3.05629c2.5621,-0.50934 3.38153,-1.55408 5.84435,-2.32622l0.48291,-0.20987c0,0 0.19714,-0.08336 0.47424,-0.08884c1.29031,-0.76886 3.76531,-1.61756 5.31113,-2.29334c1.98145,-0.86622 3.06782,-1.50404 4.90883,-1.91893c3.12809,-0.70495 5.51992,-0.46053 8.96293,-0.79309c3.80434,-0.36745 14.52572,-1.2877 15.887,-2.26645c1.27757,-0.91856 2.21372,-2.84178 2.21372,-2.84178c-2.43477,0.39913 -4.5824,-0.03248 -6.7438,-0.04045c-0.65244,-0.04923 -1.33945,0.16616 -1.95731,-0.14768c-0.1503,-0.07634 -0.28353,-0.19405 -0.40163,-0.34469c-0.24155,-0.10138 -0.47946,-0.21887 -0.70949,-0.33717c-0.6295,-2.35862 -0.87231,-4.03747 -0.56482,-5.85573c0.02254,-1.0526 0.58906,-3.19034 1.50286,-5.0378c0.02948,-0.2015 -1.70712,-0.1672 -1.34131,-0.35397c0.27719,-0.14153 2.15743,-0.8049 2.57118,-0.86139c0.3048,-0.2065 0.64859,-0.377 1.03635,-0.50176c0.43835,-0.14103 0.91609,-0.24279 1.42302,-0.31101c-2.37324,-2.37228 -5.23541,-6.85001 -9.90519,-8.255c-0.33224,-0.09996 -1.47303,-0.19501 -1.98839,0.38072c-0.64882,0.72481 -0.72217,2.24743 -1.61726,3.179c-2.16569,2.25391 -3.53909,3.84805 -4.06728,3.84348c0.01914,0.13906 0.17577,2.49621 -0.938,3.1673c-2.49513,1.5034 -7.59177,1.80872 -8.12218,1.27977c-0.46589,-0.4646 3.05588,-2.00873 4.92095,-3.20001c1.20617,-0.77043 1.04251,-1.34329 0.93892,-1.54943c-0.01658,-0.02899 -0.03155,-0.0576 -0.04505,-0.08544c-0.0031,-0.00561 -0.00623,-0.01121 -0.00937,-0.0168c0,0 -0.00673,-0.01338 -0.01708,-0.03749c-2.06233,-2.54632 -5.52313,-7.53317 -11.10358,-9.39212c-4.75288,-1.58326 -11.7274,-0.28704 -13.30932,0.13523c-3.67837,0.98191 -6.08988,2.53119 -1.82004,6.52166c0.29154,0.24927 0.58308,0.49853 0.87462,0.74778l0.674,0.45515c0,0 0.06626,0.04559 0.15288,0.12777c0.13953,0.00157 4.05713,0.16293 6.36199,0.49071c2.96026,0.42097 4.61,1.12143 6.48937,2.16315zM187.02163,236.77301c4.12372,2.0545 5.89966,2.90454 9.50997,5.80943c0.10788,0.0868 4.86747,5.70833 6.03934,5.25781c0.73066,-4.3971 -6.10458,-9.03375 -9.86093,-11.04815c-2.58771,-1.38769 -5.32388,-3.12895 -5.68839,-0.0191zM184.36422,234.54174c0.44879,-1.16068 0.90492,-1.7539 2.42078,-2.16171c1.03119,-0.27742 3.08866,-0.46707 3.88081,-0.6989c0.89915,-0.26314 0.54046,-1.16626 0.44417,-1.24868c-0.63941,-0.59835 -0.59882,-1.22168 -1.14372,-1.90313c-3.61527,-2.47453 -1.51484,-4.97651 -0.69027,-5.94397c0.49782,-0.58409 1.69369,-0.91646 1.69369,-0.91646c-0.00374,-2.28377 -0.05505,-5.11817 0.31121,-7.3163c0.43412,-1.99071 0.79284,-5.62218 2.31451,-7.02516c0.96628,-0.89091 2.17634,-0.65596 3.44119,-0.49556c3.87061,0.49087 8.45092,3.02732 12.11264,4.85874l0.13381,-0.21774c0.28313,-0.47703 0.50902,-0.99414 0.69099,-1.52882c-1.4059,-1.25691 -5.93,-6.00989 -5.79994,-7.95021c0.23138,-3.45191 10.3718,-10.12282 12.84786,-11.75724c3.49645,-2.30797 7.80698,-4.27103 11.33885,-6.439c-0.49128,-1.71392 -1.71494,-3.79254 -2.03863,-5.638c0,0 -0.95849,-2.00722 0.02371,-3.96805c0.92251,-1.84168 4.10516,-4.47937 5.1649,-5.40743c4.38505,-3.84017 14.20738,-5.78334 20.46917,-5.76023c2.46211,0.00909 7.50529,0.98486 7.75252,1.13279c1.48419,-1.3925 4.39453,-3.17481 8.02307,-3.81705c1.95646,-0.34629 5.33077,-0.00479 6.06835,0.10196c4.44139,0.64289 6.11108,4.57254 5.5898,8.36172c-0.12449,0.90496 -2.92075,6.25841 -1.8087,10.48727c1.19061,4.52763 7.50861,12.90836 8.133,16.06789c0.12333,0.29087 0.10115,0.55668 0.04005,0.76036c-0.04473,0.22638 -0.15858,0.47981 -0.42904,0.62966l-0.39184,0.39825c-1.16487,0.62816 -2.15797,1.27918 -3.43971,1.56506c0.00472,0.0432 0.00534,0.06808 0.00534,0.06808c0.09444,4.16001 0.83988,6.54152 3.98067,9.78037l0.45453,0.19601c0.24392,0.07819 0.46867,0.2217 0.64824,0.40832c0.1248,0.12175 0.25274,0.27923 0.33758,0.46878c0.66414,0.32932 0.79395,1.09901 0.79395,1.09901c0.07814,0.46332 0.15627,0.92664 0.23441,1.38996l-0.01796,0.37773c0.09697,0.06862 0.19276,0.15555 0.28458,0.26487l0.74021,0.65756c2.17505,2.60779 4.3335,5.31926 6.35307,8.05868c0.12869,-0.10686 0.35989,-0.25581 0.66497,-0.27475l1.0559,-0.26231c2.69653,-0.67813 3.6866,0.1742 5.25381,2.29727c2.38477,3.23059 3.12858,4.94155 2.38402,7.08581c-0.86354,2.48687 -3.8411,4.36828 -6.0609,6.06369c4.68748,1.69099 7.77427,3.41261 12.0921,6.67296l3.67323,2.11066c2.2949,1.06095 6.21872,3.20879 8.51417,4.27054c0.36759,0.09434 0.61182,0.31277 0.77203,0.53758c0.18217,0.20983 0.33254,0.49231 0.31862,0.84693c0.61106,3.62335 1.24167,7.36256 1.85205,10.98184c0.24297,1.44067 0.80114,3.22084 0.42319,4.58204c-1.14249,4.11485 -7.041,7.62171 -10.71488,9.17887c-8.01866,3.54192 -16.15093,6.92814 -25.43625,7.28091c-18.59831,0.43967 -23.68841,-1.54483 -25.59608,-2.19989c-4.83707,-1.16759 -10.63856,-3.92706 -14.76674,-7.45557c-3.03461,-2.5938 -4.19665,-7.26522 -4.12327,-11.11997c-1.99206,0.90455 -4.26716,1.00941 -6.6604,1.24275c-0.39741,0.03875 -0.79452,0.0767 -1.19142,0.11373c-5.98379,1.36607 -12.80564,2.05363 -19.14545,1.66684c-0.16143,0.44225 -0.70752,0.49791 -0.70752,0.49791l-1.37444,0.13932c-3.1944,0.59359 -5.55309,1.53817 -9.66036,3.01337c-3.12603,2.14944 -5.57895,2.78533 -9.9313,3.25374c-6.21958,0.66937 -13.36727,0.35343 -19.56512,-1.04578c-1.93369,-0.43654 -2.77877,-0.82556 -4.51449,-1.32496c-2.64689,-0.77976 -5.96971,-1.26536 -8.36913,-3.47193c-0.753,-0.69248 -2.45331,-3.4194 -3.17159,-4.57203c-1.03432,-1.6598 -0.92685,-1.8984 -0.55928,-3.62711c0.21502,-1.01124 1.19923,-2.32909 1.6534,-3.26331c0.57011,-1.1727 1.3876,-2.16481 2.29379,-3.06845c0,0 0.16312,-0.90146 0.56692,-1.84836c0.31504,-0.73876 0.84755,-1.50492 1.09941,-1.89393c2.32383,-3.58933 11.20399,-8.72165 11.20399,-8.72165c0,0 -0.44753,-2.20952 1.39311,-3.33377c0.87141,-0.53225 2.2433,-0.29858 4.30524,-0.35101c0.85951,-0.02186 1.01731,-0.80766 1.06078,-0.94143zM181.21317,239.30169c5.31575,1.98318 7.29518,4.52652 11.37752,8.50246c0.80621,0.78519 3.77473,4.19018 3.95747,2.09996c-0.24464,-1.56457 -1.36045,-2.47055 -2.43708,-3.67765c-2.02033,-2.26516 -4.88806,-5.31432 -7.70107,-7.02075c-0.02259,0.00366 -1.97604,-1.15583 -2.93516,-1.15412c-1.67934,0.00299 -2.26168,1.25009 -2.26168,1.25009zM301.4294,248.55691c2.7462,0.97488 5.58716,4.02649 1.91792,5.24823c-3.99737,1.331 -8.79473,0.61099 -12.94937,1.463c-5.63666,0.45585 -11.20839,1.449 -16.45763,3.10155c-2.15213,0.67752 -6.93783,3.66274 -10.43878,2.34649c-1.60464,-0.60329 -0.32618,-4.66703 -0.20908,-5.07317c-0.21254,-0.02438 -0.85216,0.46022 -1.41269,0.5058c-3.22805,0.26247 -1.63415,-3.6508 -0.93837,-5.02448c-1.66318,0.01261 -3.08925,1.05727 -4.1228,-1.00586c0.07828,-1.16599 0.23472,-2.61028 0.78041,-3.91397c0.44496,-1.06304 1.21558,-2.03233 1.86521,-2.68305c-0.30841,-0.13485 -0.51567,-0.38266 -0.51567,-0.38266l-0.67021,-0.80474c-1.01037,-1.36648 -2.1685,-2.36949 -2.95362,-3.85508l-0.12933,-0.21105c-4.21413,-1.56213 -9.77523,-3.19075 -13.84696,-3.18608c0,0 -0.46966,-0.00173 -0.88086,-0.28998c-2.67497,0.83931 -3.63336,3.19563 -3.63191,6.09775c0.00053,1.05385 -0.16784,2.91644 0.34973,3.87735c0.10405,-0.02604 0.18488,-0.02574 0.18488,-0.02574l0.6234,0.0023c0.34862,0.00129 0.695,-0.00305 1.03949,-0.01203c-0.13073,-0.31918 -0.12166,-0.59989 -0.12166,-0.59989c0.22595,-2.12695 0.29853,-2.94763 3.78795,-2.51646c3.04606,-0.23828 3.13837,2.1423 2.72695,2.63666c1.41081,-0.12067 5.49857,-0.06236 5.16012,0.53821c-0.4185,0.74261 -1.12699,0.74299 -1.37775,0.74767c-0.05052,0.02773 -0.10174,0.0549 -0.15361,0.08151c1.53181,2.10379 3.13022,4.42268 4.34849,6.6465l0.10367,0.20543c0.15598,0.19855 0.20748,0.41174 0.21681,0.58664c0.02121,0.15053 0.01664,0.32491 -0.05974,0.48377c0.06608,0.20484 0.06379,0.36746 0.06379,0.36746c-0.0327,2.3081 -0.25778,3.85394 -1.49316,5.64704c0.09233,1.79262 0.25526,3.81336 1.03272,5.28031c0.80656,1.5218 2.56837,2.2156 3.96456,2.97786c4.05332,2.21295 8.35169,2.82943 12.66402,3.732c6.30134,0.89515 12.17058,0.85003 18.0151,-0.42133l0.50596,-0.02567c0,0 0.05717,0.00021 0.14908,0.01272l0.59995,-0.1297c5.75363,-0.46245 11.94813,-2.34322 16.65008,-5.0856c4.45208,-3.66614 11.34809,-8.23907 8.02216,-15.71887c-0.23832,-0.53596 -3.6422,-4.5903 -7.27902,-7.22984c-4.1553,-3.01584 -8.7768,-4.65372 -12.13538,-5.20648c0,0 -1.15771,0.42323 -1.15918,-0.80016c-0.00147,-1.22339 3.29756,-2.88752 4.09805,-3.46225c-0.60701,-0.09995 -0.65954,-0.43029 -0.76334,-1.04582c-0.03825,-0.22682 -0.01298,-0.43921 0.06294,-0.62179l0.42737,-1.09496l0.04377,0.02229l0.00755,-0.1333c1.05563,-1.49127 2.73214,-4.11251 4.84761,-0.80923c0.12394,-0.21648 0.2288,-0.43748 0.31129,-0.66325c0.93016,-2.54591 -1.81081,-6.05974 -4.66537,-5.29936c-0.02243,0.00597 -2.15178,1.66253 -3.24494,2.87839c-1.44376,1.60581 -2.00179,2.97659 -2.61572,4.03229c-1.97743,3.40035 -2.19883,4.73286 -4.20166,7.09128c2.75345,0.44895 4.93622,1.77749 6.60261,4.82926l0.22695,0.96935c0,0 0.01361,0.08067 0.00995,0.19596c0.09737,0.03787 2.85053,0.68636 3.32378,0.91978c2.5288,1.24732 3.69351,3.80697 3.69351,3.80697zM273.21214,256.47722c5.35002,-1.6873 10.82696,-2.71745 16.57531,-3.17627c3.03111,-0.60456 6.36088,-0.49454 9.48267,-0.83684c0.63719,-0.06987 3.51306,-0.15124 3.76576,-0.53267c0.24707,-0.37294 -2.57436,-2.09807 -4.60948,-1.94869c-7.26672,0.53336 -18.96621,1.71694 -22.41967,2.24382c-1.98499,0.30284 -8.22582,1.65629 -10.79476,3.56316c-1.27505,0.94645 -0.79748,3.17703 -0.74117,3.59851c2.96026,-0.27789 5.97125,-2.03739 8.74135,-2.91103zM283.16594,242.45768c3.07782,-0.0226 5.46743,-0.22118 8.63602,0.53328c-1.59641,-2.8268 -3.57988,-2.68385 -6.40514,-2.75797c-0.93296,0.9386 -0.905,1.41638 -2.23088,2.22469zM265.44493,249.54801c-0.67121,0.52482 -4.36042,3.02727 -3.00923,3.82731c3.52248,-0.41264 12.14678,-2.97218 15.56269,-3.49958c6.38413,-0.98569 7.59309,-1.51145 14.265,-1.48682c1.23544,0.00456 2.59796,-0.27378 3.95348,-0.28335c0.91334,-0.00645 1.86005,0.32597 2.62422,0.12879c-0.54485,-0.80512 -1.91045,-2.67158 -4.05132,-3.22001c-2.16691,-0.55509 -9.54507,-1.24921 -15.93405,-0.33132c-6.25238,0.89826 -11.52008,3.38667 -13.41079,4.86498zM272.87901,239.24917c-3.09565,0.95 -7.96434,3.30676 -11.06937,5.78153c-1.59986,1.27511 -2.69565,1.92577 -2.91456,3.80554c-0.05572,0.44544 3.24088,-0.62478 3.86971,-0.6304c5.74059,-3.07903 8.99721,-4.19223 14.32433,-5.29804c-1.37888,-0.97261 -2.82387,-2.14311 -4.21011,-3.65862zM217.45788,261.91566c2.69315,-0.26065 18.1098,-0.81225 22.45027,-1.63208c0.78582,-0.29481 1.7416,-0.31051 2.59269,-0.47169c1.87197,-0.66069 3.46884,-1.41789 4.72139,-2.9975c0.67725,-1.54323 1.29736,-2.83979 2.92581,-3.77716c0.21171,-0.12187 0.78907,-0.65579 0.91671,-0.68175c-0.88178,-1.5846 -1.56434,-2.9623 -2.66794,-4.51405c-0.11008,0.349 -0.38071,0.55008 -0.38071,0.55008l-0.2194,0.14867c-1.01574,1.02792 -1.01991,0.47895 -1.55981,1.08264c-0.63557,0.71065 -1.8159,2.53218 -3.36896,3.2816c-3.83354,1.08389 -10.91351,1.17224 -14.94488,1.56746c-2.72574,0.26722 -8.2654,-0.08814 -10.78542,0.37708c-1.22011,0.22524 0.24199,0.56521 -0.64325,0.97946c-1.91536,0.89633 -4.99018,2.17677 -7.30631,3.627c0,0 -5.73509,2.06424 -8.42182,2.61434c-4.55627,0.93288 -23.14936,-0.73713 -31.40996,-3.07065c-2.35161,-0.6643 -4.13635,-3.48005 -4.16213,-3.56823c-0.402,0.49016 -0.79075,0.29638 -1.06767,0.87492c-0.42469,0.88725 -1.13213,1.43892 -1.3586,2.38568c-0.11861,0.49587 1.25102,2.43757 2.31864,3.53946c2.39124,2.46802 4.47716,4.08149 6.85035,4.77985c10.60598,3.05339 24.99323,3.75391 32.77103,-0.62937c2.43286,-1.31286 9.4492,-4.1463 12.74993,-4.46576zM224.414,218.22493c0.19096,-0.92921 6.82377,4.18909 6.94172,4.41788c3.36209,0.77664 7.56677,4.723 9.72835,7.31866c0.2882,0.34608 1.52823,2.01662 1.80298,3.05308c4.09168,0.19542 8.79781,1.59918 10.45405,2.14475c-1.44496,-3.37779 0.40062,-5.43483 3.04189,-6.98518c0.68528,-0.71593 2.43029,-1.64948 4.69765,-2.48647c1.86277,-0.68764 5.30187,-1.41796 5.76453,-1.6417c0.77141,-0.37306 1.91287,4.53426 2.29568,5.34403c0.87747,1.8561 5.95577,8.83608 9.62941,11.82359c2.70515,-0.13081 4.48651,-2.01344 5.93759,-3.85635c2.39296,-3.03913 3.71974,-6.96607 5.57074,-10.09906c0.9051,-1.53195 2.20738,-2.78194 3.45821,-4.06032c-2.02457,-2.77912 -4.21023,-5.54821 -6.41911,-8.18969c-1.22587,0.65801 -2.32177,1.50558 -3.56656,2.17683l-0.15458,0.08337c-0.20166,0.19488 -0.46399,0.24733 -0.69407,0.24513c-0.22785,0.01969 -0.51134,-0.01302 -0.79403,-0.19446c-4.0699,-1.59257 -7.92914,-4.26831 -11.82903,-6.31256l-0.45289,-0.1415c-2.19925,2.09458 -4.59075,4.96927 -7.28554,8.20166c0,0 -0.13648,-1.34032 0.14016,-2.31405c0.07663,-0.26972 0.08148,-0.77599 0.10049,-0.84897c-0.92493,0.41262 -3.31192,1.28541 -5.29954,1.66375c-7.29773,1.38913 -19.01,1.56309 -29.64382,-0.34158c-6.41819,-1.14959 -13.66688,-4.46345 -16.12358,-5.87097c-0.18417,0.4603 -0.39725,0.9061 -0.64298,1.32922l-0.52544,0.85509c-0.1346,0.27595 -0.34026,0.38881 -0.54637,0.4213c-0.1993,0.05125 -0.45406,0.03333 -0.7611,-0.15198c-2.48481,-1.2687 -7.81273,-3.39385 -11.21177,-4.21859c-1.5668,-0.38017 -2.91474,-0.1842 -3.04393,-0.03687c-1.13855,1.29858 -1.34486,3.79631 -1.71139,5.47708c-0.34353,2.06615 -0.41078,3.99656 -0.40916,6.14457c0,0 9.4052,-3.04773 13.04995,-2.4585c6.39482,1.03382 13.22231,9.76915 15.37367,12.41917c0.22944,-0.32576 2.71841,-2.62175 4.01664,-4.49665c0.39547,-0.57113 0.80235,-2.33019 0.84678,-2.42811c0.43012,-0.94812 1.1279,-1.46202 1.99856,-1.66709l-0.0179,-0.01516c0,0 -3.80475,-3.87268 -3.71624,-4.30335zM270.39599,235.99411c-1.93545,-3.05986 -3.56953,-7.42179 -3.77812,-8.10904c-0.05498,-0.18115 -0.10855,-0.46218 -0.14614,-0.75314c-0.16597,0.14316 -1.86212,-0.09803 -2.38257,0.09246c-0.96359,0.35269 -2.22375,0.81051 -3.45925,1.19862c-3.53576,1.47345 -7.72293,3.06461 -4.65331,7.64692c0.18083,0.0652 0.35978,0.13027 0.53673,0.19507c0.33134,0.04319 1.15062,0.24947 1.31669,1.23419c0.09155,0.54286 -0.0955,0.84738 -0.33496,1.0182c0.67042,1.00001 1.60336,1.83377 2.34919,2.83789l0.57839,0.68818c0,0 0.14919,0.17837 0.2354,0.4243c3.06829,-2.40652 7.42348,-3.88587 10.78667,-4.95054c-0.35782,-0.47801 -0.7082,-0.98475 -1.04872,-1.52309zM316.14225,249.55183c3.86292,8.76935 -0.76337,13.55188 -7.16397,17.55431c-5.00487,2.93708 -13.05191,5.85715 -19.18766,6.35036l-0.9176,0.21941c0,0 -0.25897,0.05851 -0.58275,-0.00547c-5.97176,1.22235 -11.98714,1.23663 -18.4197,0.31766c-5.50209,-1.15315 -15.50644,-2.23745 -18.79895,-8.30407c-0.73953,-1.36262 -1.04747,-3.04679 -1.21161,-4.70181c-0.10906,-0.5111 -0.20522,-1.03238 -0.29534,-1.56409c-1.14603,1.57806 -1.23731,3.54161 -1.24716,5.26117c0,0 -0.00052,0.03668 -0.00872,0.0945c-0.00497,0.05218 -0.0139,0.10854 -0.0289,0.16592c0.31432,2.4824 0.9453,3.94414 2.67539,5.42606c3.77796,3.23604 9.07913,6.57091 13.49361,7.64466c1.14434,0.39549 13.66056,2.58822 25.77025,1.6127c10.3,-0.82973 19.46733,-5.0139 23.31547,-6.71557c2.57379,-1.08556 9.41184,-7.14525 9.8888,-8.76269c0.38408,-1.30249 -0.05985,-2.31231 -0.2952,-3.70783c-0.50803,-3.01239 -1.01606,-6.02479 -1.52409,-9.03718c-1.97831,-0.91507 -3.95335,-1.82865 -5.93115,-2.74393c0.17571,0.29458 0.33562,0.59248 0.46926,0.89586zM281.43453,194.6896c0.03974,-0.48114 1.08152,0.10097 1.08152,0.10097l0.61866,0.15965c0.01202,0.0078 0.02404,0.01562 0.03606,0.02342c-0.68593,-2.91136 -4.89161,-8.53226 -6.95152,-12.84613c-1.35173,-2.83082 -1.28674,-5.09698 -1.26486,-5.67486c0.09586,-2.53243 1.4183,-5.61982 1.76772,-8.02678c0.14012,-0.96514 -1.31785,-4.47526 -2.41062,-5.06406c-2.32155,-1.25088 -4.04498,-0.46736 -6.38702,-0.47936c-2.37993,0.21919 -3.77265,1.57454 -5.32622,3.06183c-2.86271,2.74056 -6.13085,5.92194 -9.68066,7.86283c-0.13908,0.43304 -0.56593,0.62755 -0.56593,0.62755c-3.07355,1.39399 -8.535,2.53649 -13.22842,2.1064c-4.50095,-0.41244 -8.30236,-2.3708 -8.30236,-2.3708c-0.17671,0.31413 -2.04538,2.35739 -2.41809,2.57278c-0.25402,0.14681 2.41652,6.12543 3.17864,8.20683c0.39877,1.08905 0.00792,1.4919 0.00792,1.4919c-3.66232,2.32602 -8.4902,3.68978 -12.13952,6.09798c-3.40519,2.24711 -11.34707,6.90154 -12.13882,9.6638c-0.21892,0.76375 2.5972,4.58891 7.03923,7.33723c4.33551,2.68242 10.01528,4.53347 15.90874,5.51822c8.09204,1.35212 16.55476,1.52353 22.91024,0.77865c3.0168,-0.35358 5.57433,-1.39398 7.36318,-1.72014c1.60087,-0.29189 3.49769,-0.61881 3.49769,-0.61881c-0.67308,-3.6475 -2.57537,-7.95674 -2.38575,-11.65162c0.05975,-1.16441 -0.29234,-4.1152 -0.24365,-5.95899c0.07381,-2.79555 0.53577,-4.43608 0.53577,-4.43608c-6.32802,-7.00831 -5.05397,-7.93787 -5.05397,-7.93787c3.88626,4.66737 10.99148,11.00033 16.49443,12.47701c2.13178,0.57204 4.55212,0.47563 6.61688,0.37837c0.85825,-0.04043 1.54988,-0.34943 2.21706,-0.72248c-0.12833,-0.08863 -0.7974,-0.70269 -0.77635,-0.95742zM270.91508,208.74429c3.77725,1.96789 7.51866,4.5861 11.44599,6.16238c1.07709,-0.59072 2.04223,-1.27811 3.07765,-1.88514c-0.05399,-0.23706 -0.03925,-0.4157 -0.03925,-0.4157l0.07908,-0.49266c-0.06318,-0.37465 -0.12637,-0.74931 -0.18955,-1.12396c-0.03627,-0.0201 -0.07177,-0.04165 -0.10641,-0.06459l-1.36483,-0.82098c-3.53729,-3.64946 -4.61578,-6.68817 -4.80521,-11.17696c-1.93185,0.06081 -3.55001,-0.25575 -5.40741,-0.77527c-2.84992,-0.79712 -4.61063,-2.24929 -9.72499,-4.93221c-0.75577,2.95322 1.12248,15.07911 1.87703,18.01099c0.76739,-0.90474 1.59421,-1.76441 2.48182,-2.58814c0.16689,-0.26743 0.42496,-0.36968 0.66655,-0.39888c0.23266,-0.05582 0.52787,-0.05253 0.85069,0.12793zM257.40842,166.66407c-2.7711,-0.6995 -5.42724,-0.66352 -8.1679,-0.67363c-5.88522,-0.02173 -15.97907,3.19369 -17.50152,6.94609c4.15855,2.06722 12.54931,2.56907 18.07861,0.48182c4.62651,-1.74645 6.73796,-5.90257 7.5908,-6.75428z" fill="#000000" stroke="none" stroke-linecap="butt"/></g><path d="M206.93674,207.95133c0.21933,-0.26687 0.5721,-0.48148 1.13948,-0.48148c1.5,0 1.5,1.5 1.5,1.5c0,2.88326 0.14168,5.67891 -0.45625,8.50908l-0.49069,0.24475l0.13398,0.16748l-1.24067,0.99254c-0.25814,0.21016 -0.58754,0.33616 -0.94637,0.33616c-0.82843,0 -1.5,-0.67157 -1.5,-1.5v-1.75h0.2218c-0.21511,-1.68081 -0.21934,-3.28446 -0.20243,-5.24027l0.55761,-1.73407c0,0 0.3343,-1.0029 1.28355,-1.04418z" fill="#000000" stroke="none" stroke-width="0.5" stroke-linecap="butt"/><path d="M248.43978,171.79456c0,0 1.69333,5.69836 1.60296,7.33732c-0.05146,0.93332 -7.31599,-4.01337 -7.31599,-4.01337z" fill="#fd696a" stroke="#fd696a" stroke-width="2.5" stroke-linecap="round"/><g><g><path d="M325.70865,167.82135c-0.38887,0.4864 -0.83847,0.42773 -1.12236,0.31424c-0.52781,2.51239 -3.07125,3.95551 -5.27887,5.32662c-1.52275,0.94575 -3.40226,1.07908 -4.98321,0.66419c-4.10902,-1.07833 -7.26632,-2.51784 -10.97628,-4.51171c-2.08801,-1.77126 -7.61668,-3.74763 -7.74045,-6.84702c-0.1202,-3.00982 3.5836,-2.61567 5.42551,-2.45901c6.55,0.55714 12.57789,1.40258 18.81686,3.60029c1.72447,0.60822 3.37143,1.09737 4.9863,1.95594l0.7159,0.55094c0,0 0.78106,0.62445 0.15661,1.40551z" fill="#0f1b82" stroke="none" stroke-width="0.5" stroke-linecap="butt"/><path d="M296.52585,159.27958c0.20894,-0.74857 1.04141,-0.67644 1.04141,-0.67644l1.39477,0.12085c2.72964,0.2365 5.43097,0.67337 8.15213,0.90706c5.31436,0.46044 14.00708,-0.06962 17.96272,3.99767c2.02104,2.07808 -0.0319,6.05755 -2.24971,7.11073c-0.84999,0.40364 -3.09863,-0.25021 -3.96763,-0.47126c-8.11983,-2.4131 -15.45077,-4.2538 -22.41549,-9.29567c0,0 -0.80988,-0.5866 -0.22329,-1.39648c0.09714,-0.13412 0.2004,-0.22993 0.30509,-0.29646z" fill="#0066cc" stroke="none" stroke-width="0.5" stroke-linecap="butt"/><path d="M295.30872,151.15535c0.02851,-0.13545 0.1064,-0.27849 0.26794,-0.41427c0.57413,-0.48257 1.0567,0.09155 1.0567,0.09155l0.69186,0.88294c0.29314,3.37532 -0.65161,5.57721 -1.95177,8.55185c-0.91541,2.09436 -1.09086,4.75932 -1.84748,6.9575c-0.7855,2.03809 -3.26588,6.08015 -5.67397,5.96249c-2.35423,-0.11503 -4.20859,-2.98524 -5.12863,-4.42789c-0.81388,-1.2762 -3.90845,-0.02451 -4.60716,-2.43177c-0.1243,-0.42825 0.05017,-0.89043 0.07525,-1.33564c1.59194,-5.01176 6.86715,-6.53591 10.592,-9.46413c2.08639,-1.64018 4.2204,-3.03062 6.52526,-4.37262z" fill="#fddfbd" stroke="none" stroke-width="0.5" stroke-linecap="butt"/><path d="M288.51644,163.50577l0.19553,0.09121c-0.06561,0.15261 -0.14094,0.31287 -0.22311,0.47922c-0.14691,1.17502 -0.83047,2.26008 -1.62433,3.41596c-0.45218,1.46537 -0.19398,2.70656 2.2703,2.92162c0.56709,0.0495 1.14028,0.00532 1.70712,-0.05676c0.12498,-0.04425 0.27781,-0.05337 0.46052,0.00848c0.13598,0.03464 0.28986,0.10868 0.39751,0.26364c0.11664,0.1483 0.14237,0.31712 0.13567,0.45729c0.00592,0.20222 -0.05322,0.35017 -0.13849,0.45817l-0.15322,0.32969c-2.03221,2.93341 -5.44411,9.82364 -9.77122,5.50332c-0.04865,-0.04858 -1.76651,-2.21911 -1.79827,-2.25919c-0.91059,-0.91076 -2.70989,-2.19302 -3.06702,-3.49176c-1.59423,-5.79756 6.54422,-9.63515 10.92903,-10.69685c0,0 0.72933,-0.17487 0.9042,0.55446c0.06373,0.26576 0.00738,0.45791 -0.08999,0.59479c0.09155,0.11678 0.14883,0.26077 0.15831,0.41591l0.05882,0.7457l-0.11602,0.00916l-0.01978,0.2283l-0.2172,-0.01882c0.00065,0.01551 0.0012,0.031 0.00166,0.04646z" fill="#f89587" stroke="none" stroke-width="0.5" stroke-linecap="butt"/><path d="M281.34659,109.45462c2.73627,4.86039 1.87219,12.97303 0.41747,18.21823c-1.44347,5.2046 -9.31947,13.07891 -11.44858,16.00616c-3.45465,4.74969 -4.07632,6.72797 -8.13495,9.63896c-4.58178,3.28622 -14.0751,-0.97624 -19.12669,-1.33371c-3.53969,-0.25048 -7.3946,-0.46305 -10.93451,-0.71034c-7.62336,-0.53255 -15.91446,-1.16613 -23.53014,-1.78517c-0.0689,-0.0056 -4.19821,-0.08712 -7.38385,-0.65058c-0.15225,-0.02426 -0.30304,-0.05251 -0.45223,-0.08462c-3.11993,-0.67145 -5.54891,-3.03126 -6.38607,-6.00762c-2.46141,-5.87623 -1.0801,-14.84776 -1.24873,-20.15732c-0.09735,-3.06487 0.00423,-6.06189 -0.02404,-9.10697c-0.03863,-4.16245 -0.93744,-6.3934 0.1767,-10.72827c0.75397,-2.93348 0.40911,-11.18753 2.48217,-12.14511l0.92877,-0.42901c5.30678,-5.06795 17.50637,-5.84138 23.18642,-6.67202c4.78429,-0.69964 10.83901,0.27278 15.28534,0.54155c1.71686,0.10378 3.22628,-0.68655 4.93465,-0.32527c2.16289,0.4574 4.49121,2.08701 6.61998,2.33012c11.00549,1.25688 23.66821,4.07854 32.67105,10.59925l1.13744,1.35323c1.1974,1.42457 1.92988,3.23993 1.98975,5.19893c0.03919,0.37183 0.02971,0.71881 -0.0325,1.05148c-0.1497,1.62398 -0.74758,3.09999 -1.66074,4.3163c0.18673,0.28825 0.36461,0.58214 0.53332,0.88179z" fill="#ff2d32" stroke="none" stroke-width="0.5" stroke-linecap="butt"/><path d="M279.08385,97.77719c0.39206,-0.63936 1.03143,-0.2473 1.03143,-0.2473l0.48929,0.31423c0.63391,0.56926 1.20648,1.2063 1.75499,1.85823c1.56027,2.33481 1.06054,3.15037 2.74383,5.24118c1.36119,1.69073 3.96644,5.89444 4.31294,7.92971c0.57259,3.3633 1.32962,6.21742 2.56863,9.35721c0.51542,2.14968 1.41763,4.09712 1.50904,6.34933c0.05348,1.31762 -0.18482,2.76741 0.20784,4.06061c0.66143,2.17839 2.09934,4.04742 2.67373,6.26706c0.62475,2.41424 0.06902,5.0457 -0.61515,7.39027c-1.48083,4.30708 -4.18125,6.77948 -7.66876,9.55326c-1.7491,1.39113 -3.76528,3.4423 -6.11471,3.6783c-1.28079,0.12866 -2.83518,-0.23206 -4.12754,-0.34403c-1.96922,-0.19415 -3.43505,-1.4973 -5.34981,-1.8744c-3.14845,-0.62006 -4.97101,-2.06454 -7.72975,-3.53645c-2.8237,-1.50658 -5.87673,-2.51502 -8.75721,-3.90089c-2.39896,-1.66763 -1.56662,-3.41736 -0.86484,-5.99013c1.06948,-3.92077 3.06808,-7.74953 3.42021,-11.81366c0,0 0.00308,-0.03551 0.01563,-0.09036c0.01079,-0.05522 0.02239,-0.08892 0.02239,-0.08892l0.25913,-0.75126c0.87236,-3.353 2.57211,-6.66638 3.67893,-9.94804c0.00015,-0.00046 0.00023,-0.00069 0.00023,-0.00069v-0.00001l0.2782,-0.80678c2.49286,-5.76431 4.0224,-11.32364 7.2297,-16.76384c0.00181,-0.13382 0.0469,-0.25158 0.10069,-0.34499c0.0478,-0.10266 0.12311,-0.21292 0.24113,-0.29243c1.24015,-3.69121 4.99008,-5.25251 8.68063,-5.19002c0.00299,-0.00504 0.00603,-0.01011 0.00914,-0.01518z" fill="#ab164a" stroke="none" stroke-width="0.5" stroke-linecap="butt"/><path d="M194.14095,145.84235c0,0 -1.0242,-20.29344 -0.55114,-36.84811c0.28768,-10.06702 0.29191,-18.824 3.83382,-20.58478c19.85786,-9.87189 45.37299,-3.16763 57.96802,-0.76051c7.54418,1.44182 21.13942,5.54106 25.19381,10.98855c7.92698,10.65067 10.98442,22.472 13.07275,31.03548c1.87197,7.67628 3.16661,12.68651 3.16661,12.68651l-3.85198,9.70372l-12.99163,8.9955c0,0 -32.92959,-16.98603 -48.36529,-19.05483c-24.5357,-3.28845 -37.47498,3.83849 -37.47498,3.83849z" fill="none" stroke="#000000" stroke-width="3" stroke-linecap="round"/><path d="M254.35946,149.05226c0,0 4.90992,-26.40071 16.56952,-47.13086c2.17709,-3.87076 7.68161,-3.96654 7.68161,-3.96654" fill="none" stroke="#000000" stroke-width="1.5" stroke-linecap="round"/><path d="M196.91937,151.57292c3.1496,-4.93521 7.71636,-5.55644 13.31931,-6.45233c2.45694,-0.39285 5.01486,-1.04649 7.4973,-1.19309c6.99478,-0.41309 14.82974,2.09666 21.20903,4.68284c9.2361,4.41607 19.65679,7.61769 26.55638,15.48045c1.16692,1.35878 1.3207,1.98514 1.80855,3.67935c2.91913,10.13751 -10.18113,9.4862 -16.5295,11.57918c-6.04007,1.82965 -13.20954,2.97746 -19.56319,2.97762c-2.55437,0.00006 2.32755,-0.60968 -0.22376,-0.41262c-8.49178,0.32179 -25.04508,-0.56097 -33.12597,-3.09667c-4.66452,-1.46711 -9.87869,-3.46817 -13.62572,-6.69615c-3.27621,-2.82236 -2.7392,-6.32343 0.38468,-8.86404c2.92523,-0.89342 5.76726,-1.9908 8.81747,-2.42451c0.71026,-0.10099 3.23132,-0.0123 3.85025,-0.63434c0.35787,-0.35969 -0.10704,-1.00916 -0.15493,-1.51428c-0.20579,-2.1711 -0.96312,-4.17088 -1.25493,-6.30436c0,0 -0.0989,-0.74345 0.64456,-0.84235c0.15729,-0.02092 0.28573,-0.00414 0.39049,0.03533z" fill="#fddfbd" stroke="none" stroke-width="0.5" stroke-linecap="butt"/><path d="M194.15689,146.04447c0,0 25.28065,-6.31202 38.33065,-3.9878c15.16549,2.70098 47.27285,19.23383 47.27285,19.23383l-2.40542,9.22681l-2.27811,0.80637l-10.14322,3.53766l-2.67015,-6.25382l-9.74327,8.18955c0,0 -7.30645,-19.3615 -9.28284,-19.961c-1.98086,-0.60086 -17.60202,8.19644 -17.60202,8.19644l-0.30861,-17.29118l-28.82773,8.34279z" fill="#f89587" stroke="#f89587" stroke-width="0.5" stroke-linecap="round"/><path d="M287.87987,162.34223c-1.92699,0.66673 -4.05017,1.46012 -5.97207,2.23161c0.33897,1.80429 1.50891,4.30836 2.38149,6.10899c1.27703,-2.67534 3.03329,-5.46648 3.59058,-8.34059zM279.29513,165.69442c-0.75073,2.39388 -1.24956,5.18841 -1.24956,5.18841c1.09077,0.99432 6.12529,7.14033 7.26083,6.92859c2.3194,-0.43249 4.38113,-5.77141 5.42819,-7.49091c0.77039,-1.26514 1.40735,-2.50157 1.945,-3.73106c1.82491,-4.17322 2.50567,-8.2666 3.37645,-13.13244c0.09023,-0.47671 0.69359,-1.62151 0.24587,-1.4346c-2.60666,1.08815 -4.76305,2.9097 -7.08323,4.50908c-2.70394,1.86391 -6.6485,3.62685 -8.67551,6.31888c-0.25055,0.33275 -0.49168,0.80524 -0.71873,1.35655c0.72925,-0.06634 1.39968,-0.88558 2.17681,-1.21113c1.45885,-0.61114 2.03747,-1.35144 3.31636,-1.87347c0.24512,-0.10006 4.07767,-1.90586 4.22683,-0.22636c0.22585,2.54306 -3.39502,9.21193 -4.29246,11.28923l-0.31017,0.4189c-0.05355,0.12266 -0.15328,0.24221 -0.32723,0.33717c-0.11634,0.073 -0.27397,0.13472 -0.45696,0.11052c-0.18384,-0.01639 -0.32419,-0.11109 -0.42174,-0.20776c-0.13862,-0.12161 -0.20987,-0.24994 -0.2396,-0.37305c-1.02797,-2.11958 -2.27619,-4.67931 -2.77494,-6.97635c-0.47083,0.11425 -0.94578,0.18578 -1.42621,0.1998zM299.10657,157.12343c6.50501,0.5636 14.05195,0.6424 20.27692,2.65073c2.35532,0.75988 5.60473,2.07849 6.50524,4.63688c0.83582,2.37459 0.1417,5.18463 -1.02716,7.07339c-1.09458,1.06719 -2.03296,4.58016 -3.50212,4.92127c-2.60104,0.60389 -7.95004,-0.52374 -10.13496,-1.6088c-4.94031,-2.45346 -11.54086,-5.71259 -15.54939,-9.49172c-0.94676,3.02914 -1.66963,4.11718 -3.20266,6.84829c-1.34139,2.38971 -3.81376,7.57629 -6.88365,8.15913c-2.15009,0.40821 -5.7352,-3.46282 -5.7352,-3.46282c-1.96247,-1.38108 -3.46093,-2.7538 -5.16085,-4.31072l-0.36793,0.1631c-3.80332,0.99211 -7.68627,3.13681 -11.32574,4.70344c-7.44951,2.26815 -15.58326,4.11245 -23.32314,4.86718c-3.78214,0.36881 -7.61502,0.25984 -11.37623,0.80285c-0.2993,0.35164 -17.87984,-0.93623 -29.85074,-3.32755c-4.55225,-0.90936 -10.30073,-3.58322 -11.03488,-4.03324c0,0 -0.02942,-0.01804 -0.07659,-0.05311c-0.049,-0.03247 -0.07595,-0.05403 -0.07595,-0.05403l-0.20944,-0.19064c-1.65781,-0.94752 -3.17587,-1.90937 -4.6676,-3.09976c0,0 -0.02295,-0.01835 -0.05985,-0.05311c-0.03878,-0.03266 -0.05964,-0.05335 -0.05964,-0.05335c0,0 -3.74033,-2.96646 -1.23222,-6.4948c0.67167,-0.9449 1.48181,-1.91912 2.59328,-2.58458c4.26825,-2.55549 11.24178,-3.17538 11.96997,-3.23577c-0.96571,-4.59821 -2.39888,-9.05293 -2.84231,-13.76081c0,0 -0.13994,-1.49346 1.35351,-1.63339c1.49346,-0.13994 1.6334,1.35352 1.6334,1.35352c0.47917,5.14219 2.19097,9.98937 3.11196,15.05561l0.00243,0.20903c0.00641,0.06548 0.00966,0.13426 0.00942,0.20651c-0.00182,0.55533 -0.20856,0.90438 -0.46825,1.12379c-0.23024,0.22758 -0.57329,0.39681 -1.08326,0.37105c-0.87624,-0.00309 -11.43055,1.19948 -13.29216,2.99795c-2.83578,2.7396 3.04122,6.53188 3.86657,6.95463c4.47017,2.28961 12.09322,4.94406 14.39276,5.32618c12.34197,2.05088 33.22116,1.89605 37.07555,1.51931c7.49497,-0.73256 15.39133,-2.85653 22.61245,-5.03076c3.7341,-1.6168 7.67885,-3.71201 11.57864,-4.78349l0.60151,-0.29571c0.37681,-0.27792 0.7521,-0.30447 1.06476,-0.23814c0.00535,0.00052 0.01073,0.00107 0.01611,0.00166c0.83556,-2.59722 1.25668,-5.9854 2.88503,-8.1829c2.61807,-3.53317 7.68534,-5.88189 11.23915,-8.30766c2.40387,-1.64084 7.86379,-7.51417 9.87535,-2.75868c0.34946,0.82615 -0.16531,2.93139 -0.19864,3.82779c-0.19071,1.06567 -0.36488,2.14088 -0.54026,3.21884zM312.13471,171.68365c1.61782,0.80272 3.96311,2.40033 5.91638,2.06189c0.86383,-0.14967 2.96699,-2.39401 3.64233,-3.06327c0.75125,-1.24178 2.30397,-4.02277 1.79053,-5.58779c-0.66018,-2.0123 -4.99815,-3.02677 -6.70261,-3.36423c-5.83748,-1.15575 -11.96004,-1.60231 -17.89057,-2.11613l-0.81323,-0.07046c-0.21054,1.20992 -0.43974,2.41679 -0.71266,3.61102c3.76639,4.35486 9.72931,6.02801 14.76983,8.52897z" fill="#000000" stroke="none" stroke-width="0.5" stroke-linecap="butt"/></g><g stroke-width="0.5"><path d="M226.17904,126.59859c-0.39908,5.83464 -7.12225,4.15189 -11.00463,3.9058c-0.92881,-0.05887 -0.07484,1.99841 -0.67586,2.709c-0.74047,0.87548 -1.6588,1.62508 -2.66484,2.17523c-1.85983,1.01703 -5.62087,-1.16386 -7.01241,-0.66146c-2.12712,0.76796 -3.532,2.82753 -5.2357,4.31474c-3.06375,2.67444 -5.92938,5.57572 -9.06345,8.1674c-0.52992,0.43821 -2.85542,1.54252 -3.77874,1.26696c-2.58372,-0.77111 -17.48217,12.65782 -16.90704,9.77711c0.06235,-0.31227 1.26272,-3.07199 4.44948,-7.98209c3.76976,-5.8084 9.61365,-13.88539 9.55368,-13.89082c-2.17503,-0.19696 -8.27033,-0.86931 -12.64756,-1.03132c-4.16643,-0.15421 -6.67364,0.27607 -6.72647,-2.69795c-0.00679,-0.38224 7.25518,-8.34942 7.79899,-8.8875c5.00696,-4.95433 10.47943,-11.58571 15.97776,-15.9631c1.16398,-0.92669 6.66361,-5.73408 8.59196,-4.42146c0.01314,0.00104 0.02629,0.00213 0.03945,0.00327c1.15253,0.09986 2.17972,0.58321 2.96681,1.31348c0.55666,0.28346 1.03463,0.54886 1.3588,0.71727c5.24806,2.72637 10.15215,5.22019 15.12201,8.44292c1.01842,0.6604 3.5408,3.16737 3.67708,3.19062c0.82875,0.14138 0.06598,-5.52622 3.25554,-10.40951c1.41132,-2.16076 7.98488,-6.37087 8.34187,-6.10609c1.30696,0.96938 -5.53226,20.45031 -5.65192,21.83143c-0.04909,0.56662 -0.19088,1.10294 -0.40912,1.59533c0.4381,0.8753 0.69845,1.84977 0.64435,2.64079z" fill="#66ffff" stroke="none" stroke-linecap="butt"/><path d="M232.86011,105.09502l4.20737,18.63271l7.0408,20.68495l-12.73207,7.93059l-0.46254,-10.88054l-6.62716,0.02806l-21.02376,4.0002l-9.49367,2.99169l0.53806,3.05786l-7.29397,0.77329l-7.63133,2.35005l-6.07303,1.81692c0,0 14.66862,-12.92641 20.41914,-17.71866c2.93149,-2.44298 12.43302,-9.8485 12.43302,-9.8485c0,0 -7.67501,0.69434 -11.16047,0.91666c-5.5385,0.35327 -19.53374,1.74381 -19.53374,1.74381c0,0 18.51326,-15.3046 21.69186,-15.85651c2.27891,-0.3957 27.32234,13.17731 27.32234,13.17731c0,0 -0.75128,-3.7073 0.84907,-9.07775c1.14724,-3.84995 7.85456,-20.12997 7.85456,-20.12997z" fill="#50a5eb" stroke="#50a5eb" stroke-linecap="round"/><path d="M219.3631,112.75457c0,0 0.0482,-0.20739 0.19581,-0.40854c0.3877,-1.18498 0.96023,-2.62652 1.78995,-4.0619c0.47908,-0.82878 2.06968,-2.64133 2.56115,-3.24913c4.09366,-5.06267 9.9835,-9.41906 10.17325,-7.39627c1.43423,15.28934 8.06101,39.79712 11.59247,46.2956c0.12298,0.13629 0.21482,0.32691 0.22189,0.59313c0.02179,0.18828 0.00027,0.41507 -0.14672,0.62349c-0.13144,0.21857 -0.33028,0.32973 -0.51135,0.38573c-0.1357,0.05556 -0.2608,0.07836 -0.37491,0.07803c-4.82622,2.99555 -9.29376,5.55325 -13.58089,9.4101c-0.11947,0.16532 -0.30559,0.31348 -0.59471,0.35355c-0.187,0.04718 -0.41155,0.04757 -0.64153,-0.08138c-0.24206,-0.10453 -0.37802,-0.28325 -0.45399,-0.46052c-0.14599,-0.25834 -0.13859,-0.49988 -0.07691,-0.69694l0.04563,-0.47687c-0.13439,-3.63106 -0.60637,-7.13292 -0.92519,-10.72849l-0.40647,-0.03522c-3.71677,-0.33296 -8.17377,0.9057 -11.94475,1.20249c-3.89005,0.6252 -7.58188,1.80184 -11.4562,2.50794c-2.85007,0.51943 -6.2539,1.02512 -8.79738,2.49053c-0.77676,0.44752 -0.1467,2.20696 0.11703,2.9655c0.08663,0.14727 0.13809,0.33996 0.11956,0.59187c-0.00517,0.17814 -0.05072,0.39409 -0.20356,0.57717c-0.14764,0.1873 -0.34956,0.2764 -0.52281,0.31818c-0.22661,0.06543 -0.41528,0.06051 -0.57115,0.01526l-0.78288,-0.06783c-3.70964,-0.37894 -9.36604,0.61936 -12.88144,1.67537c-2.75969,0.82901 -6.17906,2.57724 -9.78207,3.87075c-2.51686,0.90357 -4.69536,3.06663 -4.74728,1.84698c-0.18624,-4.37512 5.87933,-11.92727 7.81065,-14.61501c1.06448,-1.48141 5.74557,-7.09629 7.08437,-8.57222c-5.22811,-1.97088 -10.55286,-1.48898 -16.66288,-1.12314c-1.4712,0.08809 -2.8832,0.11202 -4.19517,0.00826c-0.073,0.01006 0.8486,-2.25204 5.59135,-7.98774c6.29271,-7.61016 17.53882,-19.74434 24.78152,-25.25068c1.56823,-1.19226 3.18821,-2.4242 4.94316,-2.28749c5.31939,0.41438 11.41014,5.76646 12.2196,6.2875c3.61201,2.32498 6.90042,3.97426 9.96125,7.18087c0.18191,0.15042 0.3614,0.30384 0.53826,0.46046c0.0496,-0.21562 0.16098,-0.75978 0.36747,-1.51156c0.04178,-0.24165 0.08977,-0.48393 0.14584,-0.72784zM220.91982,116.18603l-0.03699,0.42698c0,0 -0.0184,0.21237 -0.13627,0.43252l0.17994,0.7184c0,0 -0.08632,0.99627 -1.08259,0.90995c-0.60978,-0.05283 -0.81399,-0.44655 -0.88068,-0.74408c-1.92745,-2.19589 -16.58447,-12.65144 -22.9344,-13.96472c-1.22359,-0.25306 -9.10749,5.95951 -15.17195,12.16673c-7.25253,7.42323 -12.92498,15.24373 -15.39263,17.49618c4.25159,0.11259 8.43592,0.16539 12.60224,0.50251c2.33569,0.18899 4.69955,0.07697 6.98421,1.06377l0.43423,0.25777c0.1092,0.04688 0.22176,0.12024 0.33516,0.22827c0.21049,0.20053 0.30149,0.40394 0.32468,0.59163c0.02574,0.18735 -0.01,0.40732 -0.16197,0.65515c-0.07777,0.12682 -0.16284,0.22322 -0.25131,0.29541c-5.69058,5.96526 -9.94913,12.95588 -14.53609,19.73548c7.07818,-2.81364 14.76344,-6.37337 22.1921,-5.9558c-0.33179,-1.39909 -0.46441,-2.5273 0.7886,-3.48264c1.8793,-1.43285 5.33117,-2.02183 7.54656,-2.62599c4.64708,-1.26732 9.57044,-2.02125 14.32646,-2.77809c1.95946,-0.15489 14.17715,-3.16843 15.13265,-1.58757c0.13904,0.23003 0.81996,2.669 0.85336,4.26803c0.06422,3.07379 -0.00588,5.90115 0.06275,7.03259c3.80914,-3.14632 6.60832,-5.15287 10.83526,-7.77159c-2.60222,-4.99837 -6.15504,-16.27939 -8.52843,-26.41464c-1.77255,-7.56949 -2.80249,-14.74619 -2.74547,-16.85765c-5.68373,4.18014 -8.56922,8.52291 -10.57115,13.68139c-0.07314,0.56661 -0.11757,1.1349 -0.16826,1.71999z" fill="#000000" stroke="none" stroke-linecap="butt"/><path d="M247.56046,146.3447c0.12605,-0.00231 0.22593,0.03892 0.22593,0.03892l0.6688,0.27663c3.65321,1.13183 6.74486,3.2066 10.17846,4.69091c5.43077,3.16957 12.30171,4.15551 17.50663,7.60711c4.10865,2.72588 0.81716,8.04939 -0.01812,11.92273c-0.37047,1.71788 -0.17167,3.94542 -2.46432,3.75902c-1.66799,-2.63536 -3.78886,-4.93114 -5.90109,-7.2079c-2.13034,-2.29627 -3.45206,-4.61377 -6.19356,-6.29486c-1.99591,-1.70913 -3.44314,3.66745 -5.13245,4.38674c-3.22518,1.37323 -4.35311,-3.54976 -4.9923,-5.68981c-1.57539,-5.29247 -5.33592,-8.49879 -4.83513,-14.27884c0,0 0.04316,-0.49813 0.54129,-0.45497c0.49813,0.04316 0.45497,0.54129 0.45497,0.54129c-0.02067,0.23854 -0.03354,0.47278 -0.03912,0.70306z" fill="#50a5eb" stroke="none" stroke-linecap="butt"/><path d="M248.06461,150.70067c0,0 5.27542,2.68462 6.55341,3.33635c0.6667,0.33999 -0.48515,10.03737 -0.48515,10.03737z" fill="#66ffff" stroke="#66ffff" stroke-linecap="round"/><path d="M246.63155,145.29382c0.98482,0.31017 1.97206,0.61264 2.96012,0.91228c5.71426,2.04795 11.29855,4.30844 16.87376,6.72282c3.73622,1.61799 12.44698,5.60747 12.61425,5.81951c0.18012,0.20124 0.30586,0.49655 0.26839,0.92905l-0.01233,0.14233c-0.50654,5.84636 -1.95642,11.62084 -4.36102,16.9659c-0.09998,0.37535 -0.32394,0.58866 -0.55865,0.70934c-0.26931,0.1779 -0.6515,0.27388 -1.15576,0.04523c-0.2453,-0.11122 -0.41376,-0.25133 -0.52714,-0.40272l-0.15997,-0.08715c-3.29281,-5.28641 -7.37919,-11.00324 -11.64281,-15.65697c-1.97742,2.13272 -3.974,4.27045 -5.75129,6.57263c-0.073,0.12453 -0.17731,0.2494 -0.32173,0.37079c-0.27628,0.23222 -0.53984,0.31762 -0.775,0.32163c-0.23509,0.00677 -0.50229,-0.06647 -0.78892,-0.28579c-0.17475,-0.13371 -0.29519,-0.27466 -0.37504,-0.41613l-0.36854,-0.47202c-3.56312,-7.01397 -6.26918,-14.79395 -9.18282,-22.12155c0,0 -0.46043,-1.16212 0.70168,-1.62254c1.16212,-0.46042 1.62254,0.70169 1.62254,0.70169c0.0778,0.19716 0.15547,0.39471 0.23304,0.59261c0.24678,0.00682 0.44801,0.09689 0.60617,0.21289zM248.80762,148.57996c-0.23292,-0.07053 -0.46581,-0.14125 -0.6986,-0.2122c2.30695,5.36883 4.39741,10.84549 6.54616,16.27104c1.45358,-1.72849 2.99689,-3.386 4.53065,-5.04086l1.01507,-0.86549c0.31979,-0.28958 0.63241,-0.36301 0.90233,-0.33759c0.26992,0.00546 0.57075,0.11312 0.85444,0.43406c4.1455,4.397 8.17961,9.81967 11.54578,15.02263c1.68333,-4.22795 2.7609,-8.69673 3.24333,-13.22943c-3.96447,-0.84961 -22.29839,-10.02536 -27.93916,-12.04214z" fill="#000000" stroke="none" stroke-linecap="butt"/></g><g fill="none" stroke="none" stroke-width="1" stroke-linecap="butt" font-family="sans-serif" font-weight="normal" font-size="12" text-anchor="start"/></g><g stroke-linecap="round"><path d="M248.43978,171.79457c0,0 1.69333,5.69836 1.60296,7.33732c-0.05146,0.93332 -7.31599,-4.01337 -7.31599,-4.01337z" fill="#fd696a" stroke="#fd696a" stroke-width="2.5"/><path d="M245.87891,141.70709c0,0 -1.82068,3.22539 -3.87271,9.14406c-1.05176,3.03359 -2.86448,7.33353 -2.85053,10.3133c0.02023,4.32353 -1.7287,4.75411 -2.12068,4.74879c-3.31974,-0.04501 -4.2253,-10.89035 -4.2253,-10.89035z" fill="#000000" stroke="#000000" stroke-width="2"/><path d="M216.85114,154.89961c0,0 -0.77196,0.63638 -0.88019,3.32826c-0.10007,2.48886 0.49253,7.02121 -0.1779,7.65489c-3.12428,2.95305 -6.47356,-11.87217 -6.6125,-12.45643c-0.88327,-3.71428 0.88939,-8.51358 0.88939,-8.51358z" fill="#000000" stroke="#000000" stroke-width="2"/><path d="M273.67206,119.34584c0,0 -8.75295,6.30441 -17.86752,14.45075c-13.06582,11.67784 -28.15136,26.62384 -30.08729,27.82565c-1.40182,-0.30614 -7.74554,-3.93814 -14.17874,-12.76462c-3.44935,-4.73258 -8.78388,-10.83371 -11.64153,-15.78379c-2.75189,-4.76689 -4.33152,-9.90544 -5.18516,-12.99635c-0.5325,-1.92813 -0.41912,-2.53729 -0.41912,-2.53729c0,0 2.44678,5.95281 5.81072,11.96542c3.19601,5.71243 8.26339,10.83309 10.23092,13.2544c7.05518,8.68235 15.38354,15.6276 15.58657,15.48484c1.04422,-0.73427 4.60643,-5.13932 9.93806,-10.55817c4.26879,-4.33861 10.43339,-9.32711 15.54764,-13.60179c5.85236,-4.89163 11.20491,-9.47946 15.99549,-12.19864c2.80021,-1.58943 6.26995,-2.54041 6.26995,-2.54041z" fill="#000000" stroke="#000000" stroke-width="0.5"/><path d="M216.22919,174.38543c0,0 9.17571,3.65435 18.78127,1.51127c5.18553,-1.15694 11.1948,-7.81594 11.79775,-8.11213c2.71624,-1.33431 9.04824,13.77161 6.78051,15.20809c-3.03361,1.92163 -13.49794,-5.06356 -15.33925,-5.78407c-0.60278,-0.23587 -6.9097,0.90582 -10.7901,0.7302c-7.59266,-0.34363 -11.23019,-3.55336 -11.23019,-3.55336z" fill="#000000" stroke="#000000" stroke-width="0.5"/><path d="M244.29068,173.4637c1.43155,-1.1035 2.91173,-2.30148 3.1951,-2.05809c3.15909,2.71334 4.65633,9.27226 3.78938,9.47293c-2.66428,0.61669 -7.07932,-2.62792 -9.75781,-4.33131c-0.62542,-0.39773 1.03823,-1.74603 2.77333,-3.08353z" fill="#ff6666" stroke="#ff6666" stroke-width="0.5"/></g><g><g><path d="M151.04485,216.59969c1.3378,-0.18173 3.01194,-0.82749 4.27686,-0.10163c3.40783,1.95552 5.58744,6.67424 7.62446,9.84891c0.65573,1.02196 1.58204,2.05809 1.63091,3.27138c0.08615,2.1381 -2.40308,2.0768 -3.56465,2.65897c-2.23273,1.11904 -3.84997,3.40891 -6.24196,4.45288c-1.29709,0.56612 -3.32758,-0.17365 -4.60715,-0.41077c-1.5004,-0.00403 -6.51584,-0.52177 -7.29269,-2.24793c-0.62572,-1.39031 -0.46596,-4.29327 -0.67553,-5.83604c-0.15449,-1.13729 -0.91676,-2.29427 -0.62061,-3.40311c0.23736,-0.8887 1.19338,-1.41643 1.74574,-2.15198c1.59584,-2.1251 4.24878,-4.27081 6.57898,-5.92442z" data-paper-data="{&quot;noHover&quot;:false,&quot;origItem&quot;:[&quot;Path&quot;,{&quot;applyMatrix&quot;:true,&quot;segments&quot;:[[[149.94202,212.32093],[0,0],[-2.35446,1.23222]],[[143.17243,216.93298],[1.73675,-1.75867],[-0.60112,0.60871]],[[141.29885,218.68699],[0.33,-0.78929],[-0.41175,0.98483]],[[141.44689,221.88588],[0,-1.06744],[0,1.44805]],[[141.33271,227.32542],[-0.4026,-1.35962],[0.49986,1.68806]],[[147.74833,230.28825],[-1.38224,-0.19154],[1.14955,0.3787]],[[151.92038,231.23942],[-1.26624,0.35934],[2.33511,-0.66266]],[[158.1958,227.93329],[-2.19773,0.75176],[1.14337,-0.3911]],[[161.80428,225.94417],[-0.18828,1.98122],[0.10684,-1.12425]],[[160.70743,222.73868],[0.47638,1.02392],[-1.47986,-3.18076]],[[154.94562,212.75942],[2.89578,2.22881],[-1.07486,-0.8273]],[[151.01184,212.32093],[1.25564,0],[0,0]]],&quot;closed&quot;:true}]}" fill="#465e85" stroke="none" stroke-width="0.5" stroke-linecap="butt"/><path d="M151.05245,217.61327c-2.16717,1.53794 -4.60295,3.50487 -6.08718,5.48131c-0.51372,0.68409 -1.39969,1.16372 -1.62045,1.99023c-0.27543,1.03128 0.43362,2.09212 0.57728,3.14986c0.19491,1.43487 0.03712,4.11235 0.61906,5.40539c0.72254,1.60542 5.3606,2.06854 6.75605,2.07228c1.19008,0.22051 3.05577,0.90745 4.2621,0.38094c2.22466,-0.97097 3.69675,-3.08 5.77329,-4.12076c1.08031,-0.54145 3.38801,-0.46823 3.30788,-2.45676c-0.04547,-1.12839 -0.90847,-2.07818 -1.51833,-3.02868c-1.89454,-2.9526 -3.88321,-7.29412 -7.05264,-9.11286c-1.17643,-0.67508 -2.71278,-0.07401 -3.95702,0.09502zM152.33458,214.40428c1.80694,-0.28226 3.3471,-0.61205 5.14554,0.32228c3.69098,1.91748 6.0641,6.82029 8.19104,10.17854c0.91714,1.44806 1.97163,3.03749 1.96607,4.75157c-0.01061,3.26846 -2.6928,3.9062 -4.90769,4.97082c-2.21133,1.06292 -3.74019,3.34291 -6.19118,4.30159c-1.78545,0.69837 -3.7547,0.11227 -5.53106,-0.23077c-2.58981,-0.02792 -7.6236,-0.94786 -9.05796,-3.54755c-0.82003,-1.48624 -0.76437,-4.77863 -0.99987,-6.51226c-0.09643,-0.70983 -0.58219,-4.01221 -0.4588,-4.47744c0.17335,-0.65377 0.89895,-1.01378 1.29558,-1.56166c2.31163,-3.19304 5.47901,-6.02203 8.73764,-8.26755c0,0 0.99558,-0.67918 1.81074,0.07245z" fill="#000000" stroke="none" stroke-width="0.5" stroke-linecap="butt"/><g stroke="none" stroke-width="0.5" stroke-linecap="butt"><path d="M175.08251,229.72664c-0.88183,-3.74859 -1.05697,-7.78103 -1.57305,-11.58c-0.17316,-1.27471 -1.33708,-5.79714 -0.34589,-6.7171c1.22894,-1.14062 3.34149,-0.29752 5.00242,-0.527c4.4909,-0.62049 9.23517,-1.77537 13.7429,-1.27222c6.50606,2.59794 7.15638,7.76852 8.42919,13.98913c0.61833,3.022 1.00169,7.45456 -2.4363,9.14926c-3.68628,1.81706 -8.02329,-0.54843 -10.44832,3.55466c-0.49067,0.98771 -0.44719,2.22525 -1.08312,3.12634c-0.30267,0.4289 -1.12366,2.36996 -1.4192,2.55702c-4.6216,2.92529 -7.71823,-2.76253 -8.89264,-6.99648c-0.0021,-0.00735 -0.00411,-0.01468 -0.00609,-0.02205c-0.11838,-0.42828 -0.22331,-0.85064 -0.31563,-1.25846l-0.22081,-0.88068l0.0341,-0.00854c-0.10375,-0.53552 -0.18386,-1.02966 -0.24266,-1.45859z" fill="#f49285"/><path d="M160.82822,211.1815c0.48411,-1.41973 1.90385,-0.93558 1.90385,-0.93558l0.00734,0.09343c2.85618,-0.03357 5.72079,0.01198 8.57059,-0.21684c0.08982,-0.44428 0.37911,-1.01041 1.25596,-1.12951c0.93338,-0.12679 1.36024,0.41217 1.54866,0.83074c9.9693,-1.26641 21.49781,-4.35796 26.91715,6.66395c1.33584,4.67913 3.11627,12.64733 -1.04232,16.54754c-2.64391,2.47961 -7.27704,1.411 -10.34553,3.42681c-1.95009,1.2811 -0.99739,3.60224 -1.81715,5.49105c-1.34795,3.10582 -4.7188,2.87577 -7.5483,2.33549c-2.23236,-1.31303 -5.21931,-3.42582 -6.17305,-5.96942c-1.81151,-4.8312 -0.81149,-10.76105 -1.2126,-15.78776c-0.25084,-3.14347 -0.78327,-6.29109 -1.25952,-9.42556c-2.94651,0.23944 -5.90526,0.19863 -8.85864,0.23334l-1.01082,-0.25378c0,0 -1.41973,-0.48411 -0.93559,-1.90384zM174.61331,212.75274c0.48013,3.16249 1.01507,6.33796 1.26749,9.5099c0.55834,7.01571 -1.43443,14.95746 5.46358,19.22163c0.85997,0.15903 2.68402,0.36453 3.47303,-0.02091c0.87622,-0.42806 0.46559,-3.58002 0.64079,-4.17876c0.28472,-0.97311 1.57027,-2.65325 2.41044,-3.24086c0.59507,-0.41621 3.56476,-1.77648 4.39577,-1.98359c1.3521,-0.33698 4.56568,-0.10365 5.71572,-1.25256c2.98856,-2.98566 1.20405,-9.87152 0.25128,-13.24389c-4.44383,-9.04953 -15.17372,-6.05519 -23.6181,-4.81091z" fill="#000000"/></g><path d="M161.19923,236.08159c0.17402,0.31535 0.24508,0.74238 -0.00169,1.28971c-0.20141,0.44674 -0.48297,0.68172 -0.77082,0.79562c-0.26426,0.27602 -0.679,0.48586 -1.31943,0.36486c-0.68812,-0.13 -0.99427,-0.52059 -1.12516,-0.90009c-2.65471,-0.94867 -5.87455,-1.57753 -7.75299,-3.54265c-1.96163,-2.05214 -1.7303,-4.70508 -2.2406,-7.27049c-0.40218,-2.0219 -1.73072,-3.6056 -2.41449,-5.51325c-0.30124,-0.84046 -1.00169,-3.56687 -0.76965,-4.45089c0.43078,-1.64114 2.74504,-3.48253 3.86538,-4.70486c1.85396,-2.43437 4.40667,-5.0006 5.73784,-7.77274c0.71026,-1.4791 1.12587,-5.24833 2.00545,-6.34031c2.3555,-2.92429 8.25369,-1.1555 11.26743,-2.31006c0.56438,-0.21619 -0.07975,-3.66934 -0.07867,-3.6759c0.2446,-1.46024 1.20673,-2.70415 1.79887,-4.06115c3.11913,-2.17442 4.59201,-1.63705 7.90306,-0.61961c1.51353,0.46509 4.26386,0.40615 5.43488,1.6926c0.34269,0.37646 0.48075,0.85743 0.55656,1.37331c0.13859,0.04173 0.26956,0.10321 0.38918,0.18149l1.85572,1.19894l-0.25395,0.39308c3.11442,1.50864 6.18605,3.89757 7.92931,6.64587c2.02606,3.19418 1.83334,10.17356 0.27755,13.4745c-2.66463,5.65352 -8.314,7.08292 -13.04363,10.35186c-3.15613,2.18139 -5.8285,3.67931 -9.5245,4.88705c-5.01145,1.6289 -7.92108,3.69928 -9.72566,8.51311z" fill="#fddfbd" stroke="none" stroke-width="0.5" stroke-linecap="butt"/><path d="M149.0612,230.87212c2.69771,3.07189 6.82201,5.63739 9.4297,0.98103c0.35701,-0.63749 0.0863,-1.47065 0.15726,-2.19783c0.17039,-1.74645 0.26022,-3.4844 0.23819,-5.22277c1.83099,2.83275 5.00261,4.26291 6.91352,6.85583c0.47778,0.64832 1.04585,1.24458 1.64831,1.77901c0.47981,0.42564 1.86165,0.78161 1.44815,1.27194c-1.16057,1.37621 -2.76076,2.89643 -4.10403,4.20146c-1.21506,1.18048 -1.85897,1.44584 -3.51401,1.67068c-3.22347,-0.64464 -5.30386,-2.64389 -7.898,-4.41703c-1.58937,-1.08638 -3.5151,-1.66006 -4.15329,-3.70419c-0.11946,-0.38262 -0.20404,-0.80339 -0.2645,-1.23411z" data-paper-data="{&quot;noHover&quot;:false,&quot;origItem&quot;:[&quot;Path&quot;,{&quot;applyMatrix&quot;:true,&quot;segments&quot;:[[[292.27259,450.35302],[0,0],[0.00386,0.86986]],[[292.46735,452.85822],[-0.13372,-0.79044],[0.71446,4.22288]],[[299.69469,461.2609],[-2.85734,-2.58084],[4.6637,4.21236]],[[314.05027,472.08106],[-6.21472,-2.14538],[3.3405,0]],[[321.42067,469.73416],[-2.7258,2.01234],[3.01346,-2.22472]],[[330.64919,462.5618],[-2.6705,2.41496],[0.95146,-0.86042]],[[328.11865,459.6624],[0.8363,0.97272],[-1.05006,-1.22134]],[[325.32895,455.71702],[0.77232,1.41342],[-3.08898,-5.6531]],[[313.56087,440.36446],[2.86608,6.10686],[-0.4243,3.45106]],[[311.69295,450.6516],[0.80786,-3.41526],[-0.33638,1.42204]],[[310.84131,454.95192],[0.87914,-1.16726],[-6.42148,8.52596]],[[292.27261,450.35306],[4.51934,6.8141],[0,0]]],&quot;closed&quot;:true,&quot;fillColor&quot;:[0,0,0,1]}]}" fill="#f49285" stroke="none" stroke-width="0.5" stroke-linecap="butt"/><path d="M162.7672,225.03101c3.40585,0.71682 7.52268,0.58822 10.24166,-1.75812c0.56554,-0.48803 1.23987,-1.71718 1.6617,-2.92854c0.63858,0.9597 1.55646,1.76327 2.49797,2.34994c0.31658,0.19726 2.72681,1.09746 2.44619,1.89564c-0.28503,0.81068 -1.21358,1.22716 -1.80417,1.85134c-0.80049,1.26717 -1.6002,3.05961 -2.684,4.13644c-1.00376,0.99731 -2.53775,1.03939 -3.84103,1.21489c-0.92363,0.12436 -1.86917,0.70855 -2.77368,0.48399c-0.81109,-0.20135 -1.22579,-1.16471 -1.83217,-1.73979c-1.59333,-1.51109 -2.88342,-3.48536 -3.91248,-5.50584z" data-paper-data="{&quot;noHover&quot;:false,&quot;origItem&quot;:[&quot;Path&quot;,{&quot;applyMatrix&quot;:true,&quot;segments&quot;:[[[321.19917,442.52486],[0,0],[1.49544,4.28122]],[[327.45837,454.40592],[-2.75086,-3.4236],[1.04692,1.30294]],[[330.59357,458.31922],[-1.55322,-0.6174],[1.73212,0.6885]],[[336.18071,458.09086],[-1.86394,-0.00216],[2.63006,0.00304]],[[344.04827,456.7328],[-2.25774,1.70622],[2.43778,-1.84228]],[[350.43759,449.32674],[-1.92754,2.29582],[1.33848,-1.07802]],[[354.51083,446.1658],[-0.7831,1.52982],[0.77104,-1.5063]],[[350.18243,441.78466],[0.57428,0.47616],[-1.70792,-1.41612]],[[345.89649,436.49366],[1.00718,2.07384],[-1.16208,2.28712]],[[341.81685,441.85142],[1.25216,-0.81492],[-6.02014,3.91802]],[[321.19919,442.52488],[6.55672,2.33748],[0,0]]],&quot;closed&quot;:true,&quot;fillColor&quot;:[0,0,0,1]}]}" fill="#f49285" stroke="none" stroke-width="0.5" stroke-linecap="butt"/><path d="M193.06582,223.25576c-0.52231,0.68722 -1.16033,1.35491 -1.86709,1.94768l-1.51013,0.20577c-0.33126,-0.00308 -0.65646,-0.00589 -0.97012,-0.00798c-0.3127,-0.07153 -0.66622,-0.05882 -1.04092,0.00057c-1.77118,0.01717 -3.3024,0.1431 -4.77829,0.71813c-1.73515,-0.2669 -4.61497,-1.05812 -5.4286,-1.69798c-0.6271,-0.49317 -0.71375,-1.93208 -0.7065,-3.03567c0.20984,0.01945 0.42756,-0.07323 0.42756,-0.07323c1.5613,-0.21208 4.30163,-0.17001 5.67262,-0.85456c1.27683,-0.63754 2.43377,-2.38645 3.27607,-3.49191c3.3944,-4.45497 4.82774,-8.51396 4.06685,-14.15339c-0.23393,-1.73376 -0.16414,-4.80453 -1.16217,-6.67471c1.42602,0.98072 3.36679,1.60572 4.42814,2.9868c1.02197,1.32983 0.63952,3.59712 1.01662,5.1259c0.70661,2.86467 2.97288,5.23067 3.51999,8.01604c0.16805,0.85547 0.78064,1.75551 0.49243,2.57831c-0.13416,0.38302 -0.70837,0.45735 -0.91946,0.80395c-1.51266,2.48351 -2.93888,5.08764 -4.51695,7.60628z" data-paper-data="{&quot;noHover&quot;:false,&quot;origItem&quot;:[&quot;Path&quot;,{&quot;applyMatrix&quot;:true,&quot;segments&quot;:[[[381.59284,447.04069],[0,0],[3.8055,-4.5666]],[[392.54006,433.22621],[-3.66638,4.5146],[0.51168,-0.63006]],[[394.57458,431.88833],[-0.369,0.72294],[0.7927,-1.55304]],[[394.28604,426.66537],[0.1027,1.74062],[-0.3344,-5.6673]],[[389.48224,409.91035],[0.62914,5.86744],[-0.33576,-3.13126]],[[388.8702,399.50235],[1.66732,2.91058],[-1.73158,-3.02274]],[[380.93036,392.40715],[2.56208,2.32748],[1.47438,3.97498]],[[381.51618,405.76605],[0.00316,-3.49896],[-0.01024,11.38102]],[[369.57254,432.90379],[7.92632,-7.91502],[-1.96688,1.96408]],[[362.11264,438.93129],[2.70206,-0.91974],[-2.90128,0.98756]],[[350.61324,439.07441],[3.15128,0],[0,0]],[[349.90228,438.97939],[0.41062,0.09502],[-0.31148,2.18516]],[[350.47416,445.17377],[-1.11004,-1.1462],[1.4402,1.48712]],[[360.74526,449.98123],[-3.36688,-0.99606],[3.07972,-0.74228]],[[370.37742,449.83737],[-3.51474,-0.44278],[0.75856,-0.01684]],[[372.43326,450.11627],[-0.60044,-0.22594],[0.62106,0.08858]],[[374.34712,450.39349],[-0.65566,-0.09528],[0,0]],[[377.38508,450.39349],[0,0],[1.56024,-0.9845]],[[381.59282,447.04071],[-1.22014,1.22132],[0,0]]],&quot;closed&quot;:true,&quot;fillColor&quot;:[0,0,0,1]}]}" fill="#f49285" stroke="none" stroke-width="0.5" stroke-linecap="butt"/><path d="M174.8447,209.17571c0.18329,0.15438 0.3296,0.45213 0.44021,0.83467c0.06774,0.97248 0.08621,1.92938 0.16313,2.49562c0.47885,3.52504 0.53938,7.1799 2.36517,10.24733c0.00052,0.06326 0.00455,0.12752 0.01328,0.19183c0.0712,0.52411 0.34621,0.86717 0.79195,1.07613l0.21097,0.15448c-0.14151,0.06818 -0.29279,0.15167 -0.4518,0.25457l-1.00317,0.6838c-1.49267,-1.22714 -2.66036,-2.80724 -3.25659,-4.91491c-0.80133,-2.83275 -0.02578,-6.53703 -1.31417,-9.20477c-0.81857,-1.69491 -3.23853,-2.92232 -4.92506,-3.38772c-0.33143,-0.09145 -0.73029,-0.20422 -1.07051,-0.25687c2.85874,-0.29123 6.17177,0.25532 8.0366,1.82584z" data-paper-data="{&quot;noHover&quot;:false,&quot;origItem&quot;:[&quot;Path&quot;,{&quot;applyMatrix&quot;:true,&quot;segments&quot;:[[[333.91683,408.63274],[5.74384,0.19247],[0.66002,0.19593]],[[335.8855,409.24853],[-0.63215,-0.27045],[3.21708,1.37635]],[[344.78461,417.28125],[-1.16594,-3.57933],[1.83515,5.63376]],[[344.91498,436.07495],[-0.82548,-5.82966],[0.61419,4.33751]],[[349.99713,446.49874],[-2.62782,-2.83381],[0,0]],[[352.15812,445.41825],[0,0],[0.34282,-0.16111]],[[353.11747,445.03776],[-0.29878,0.09703],[0,0]],[[352.83654,444.85047],[0,0],[-0.8271,-0.53416]],[[351.46193,442.32851],[0,1.05784],[0,-0.12982]],[[351.48617,441.94533],[-0.016,0.12547],[-2.79252,-6.57054]],[[349.53759,421.16078],[0,7.11479],[0,-1.1429]],[[349.90569,416.18539],[-0.12758,1.9455],[-0.11618,-0.78785]],[[349.26689,414.41716],[0.32171,0.35528],[-3.27291,-3.61451]]],&quot;closed&quot;:true}]}" fill="#000000" stroke="none" stroke-width="0.5" stroke-linecap="butt"/><path d="M167.02933,233.38248c-0.78087,0.02225 -2.44499,-1.97582 -2.87577,-2.42788c-1.27424,-1.33723 -3.4013,-2.6468 -4.03992,-4.4754c-0.58059,-1.66242 -0.29194,-3.6068 -0.95728,-5.31523c-0.46482,-1.19357 -1.87262,-3.25195 -3.35405,-4.33841c1.32743,-0.23919 2.76031,-0.38949 3.78458,0.21378c1.44502,0.85108 1.97057,3.6597 2.63681,5.01524c1.07064,2.17839 1.18746,4.6314 2.73513,6.69922c0.99527,1.32976 3.28119,2.40531 4.47456,3.46105c-0.80157,0.59111 -1.68897,1.14727 -2.40407,1.16764z" data-paper-data="{&quot;noHover&quot;:false,&quot;origItem&quot;:[&quot;Path&quot;,{&quot;applyMatrix&quot;:true,&quot;segments&quot;:[[[332.32289,458.44583],[-1.74771,0.95566],[-5.31642,-6.16662]],[[320.82948,436.55107],[2.52271,7.56691],[-0.95542,-2.86579]],[[316.97562,425.8992],[2.63462,2.07571],[-1.86749,-1.47132]],[[309.56314,424.44377],[2.69509,-0.11667],[2.64337,2.55195]],[[315.04621,433.9419],[-0.59988,-2.49057],[0.85864,3.56492]],[[315.54628,444.61182],[-0.70308,-3.45088],[0.77335,3.79581]],[[322.24548,454.50921],[-2.1653,-2.99318],[0.73203,1.01191]],[[327.26825,460.1002],[-1.55353,-0.16613],[1.42267,0.15213]]],&quot;closed&quot;:true}]}" fill="#000000" stroke="none" stroke-width="0.5" stroke-linecap="butt"/><path d="M185.45292,191.27803c0,0 7.48291,8.31636 9.38108,11.77291c2.31791,4.22092 3.52042,11.72069 3.52042,11.72069c0,0 -1.40515,3.33287 -2.73249,4.95809c-1.70101,2.08274 -6.63351,6.50978 -6.63351,6.50978c0,0 -5.48893,-0.25636 -7.10927,-0.47023c-1.94529,-0.25676 -3.7668,-0.96536 -3.7668,-0.96536l0.32379,2.38353c0,0 -1.33426,2.30771 -2.26429,3.24769c-0.91971,0.92954 -3.28532,2.36121 -3.28532,2.36121l-6.08835,-0.14395l1.81867,2.66598c0,0 -1.6682,2.03136 -2.61271,2.87867c-1.06139,0.95219 -3.446,2.55662 -3.446,2.55662c0,0 -4.27049,-1.4661 -6.18551,-2.38728c-2.33129,-1.12142 -6.80064,-3.85947 -6.80064,-3.85947c0,0 -2.0632,-5.41986 -2.77727,-8.54664c-0.68252,-2.9886 -1.41675,-9.81827 -1.41675,-9.81827c0,0 0.74302,-2.10023 1.31232,-2.84852c1.27299,-1.67322 6.10278,-6.89782 6.10278,-6.89782c0,0 1.44741,-1.69585 1.91402,-2.71447c0.65442,-1.42863 1.64334,-5.05131 1.64334,-5.05131l8.75432,-1.67471c0,0 2.33935,-2.49117 2.51815,-2.98011c0.51544,-1.4094 2.27506,-6.41005 2.27506,-6.41005l3.92249,-1.50386c0,0 4.47471,0.80804 6.14994,1.55933c2.10378,0.9435 5.48254,3.65753 5.48254,3.65753z" fill="none" stroke="#000000" stroke-width="3" stroke-linecap="round"/></g><path d="M181.80403,199.07102l0.09006,-0.12578c0.51643,-0.26565 3.97091,-1.87806 4.46707,-1.49858c0.08022,0.06135 0.27283,2.02582 0.3117,2.33149c0.20453,1.60819 0.72123,3.13114 1.37572,4.60697c2.32563,4.50333 6.02348,10.58652 11.11215,12.20418c0.3307,0.29324 0.93641,0.44127 0.9921,0.87973c0.04772,0.37573 -1.00603,0.94889 -1.34389,1.08407c-1.29549,0.51831 -3.02889,1.55897 -4.38086,1.73578c-0.78474,0.10262 -1.68743,-0.66566 -2.29364,-1.02821c-2.54751,-1.52355 -4.71465,-2.4454 -6.88225,-4.572c-3.08595,-4.48321 -3.70493,-9.66725 -3.78486,-15.13259c0,0 -0.00495,-0.38878 0.3367,-0.48504z" fill="#485e84" stroke="none" stroke-width="0.5" stroke-linecap="butt"/><path d="M192.32446,210.27707c-0.07363,-0.00526 -0.12436,-0.02146 -0.12436,-0.02146c-6.27544,-2.00335 -6.99704,-8.63132 -6.82487,-14.40276c0.04593,-1.52532 0.08506,-3.82788 1.01117,-5.15657c1.30907,-1.87811 3.20049,-3.13662 4.7018,-4.71683c-0.1494,-0.12671 -0.21627,-0.33535 -0.15298,-0.53361c0.01707,-0.05348 0.0423,-0.10209 0.07388,-0.14489l0.48424,-0.68935c0.74032,-1.05227 1.11488,-2.16437 1.94636,-2.9698l-0.14106,-0.13751l0.38265,-0.39253c0.12781,-0.13673 0.3275,-0.19575 0.51765,-0.13505c0.26306,0.08398 0.40824,0.36531 0.32426,0.62838l-0.04624,0.14485c0.28621,-0.23807 0.56669,-0.46904 0.8257,-0.69681c2.16915,-1.90757 4.15121,-3.20854 6.62413,-3.59396c0.05855,-0.06631 0.13354,-0.11556 0.21643,-0.14337l0.93908,-0.32638l0.05343,0.15373c4.42174,-1.68637 11.51084,-0.42041 15.07018,2.14642c2.92319,2.13636 5.84265,5.71804 5.6863,9.68345c-0.11208,2.84253 -1.59817,5.96114 -2.47034,8.64516c-1.71635,2.49626 -3.65514,4.73312 -5.68165,6.98401c-0.69914,0.77655 -1.60719,2.23099 -2.52598,2.73072c-2.10493,1.14487 -5.22753,0.9762 -7.5354,1.69681c-4.23455,1.31787 -8.46922,2.82512 -12.76425,1.45399l-0.47632,-0.15206c0,0 -0.05073,-0.0162 -0.11379,-0.05457zM206.2254,177.4349c0.13656,-0.00636 0.27352,-0.01266 0.41018,-0.02052c-0.13642,-0.00079 -0.27319,0.00679 -0.41018,0.02052z" fill="#485e84" stroke="none" stroke-width="0.5" stroke-linecap="butt"/><path d="M187.16543,198.01724c0.10125,0.03109 0.20343,0.10431 0.28099,0.25462c0.10196,0.19759 0.07072,0.35264 0.00458,0.46393c-0.00312,0.01195 -0.00666,0.02411 -0.01061,0.03649c-0.11293,0.35374 -0.40471,0.36091 -0.54739,0.34117c-1.47414,0.70427 -3.00008,1.09093 -4.49262,1.72676c-0.35913,0.15299 -1.1956,0.74997 -1.55483,0.39189c-0.62812,-0.62608 -0.07569,-1.51113 0.06303,-2.13142c0.38599,-1.72595 0.80463,-3.36177 1.35524,-5.06302c0.40551,-0.6517 0.87012,-1.03736 1.49209,-1.48025c0.42069,-0.29956 2.70206,-2.22842 3.17281,-1.9517c1.79354,1.05431 -0.2562,5.4614 0.23669,7.41153z" fill="#ff66ca" stroke="none" stroke-width="0.5" stroke-linecap="butt"/><path d="M181.09059,199.00817c-0.13555,-0.38491 -0.09595,-0.74357 -0.09595,-0.74357l0.40599,-1.72942c0.78496,-1.02974 1.12008,-2.52455 2.2409,-3.17282c3.85904,-2.23198 3.56399,-0.97058 4.06919,2.03685c0.11895,0.70819 0.39869,1.4627 0.18019,2.14677c-0.82884,2.59506 -4.15934,3.31926 -6.24968,4.57408c0,0 -0.25278,-0.82336 -1.02387,-2.11001c-0.77109,-1.28664 -0.51832,-0.46329 -0.51832,-0.46329c0.32246,-0.19295 0.65453,-0.37016 0.99151,-0.53862z" fill="#8fbbbe" stroke="none" stroke-width="0.5" stroke-linecap="butt"/><path d="M187.39723,201.86338c0.49404,-0.077 0.57104,0.41703 0.57104,0.41703l0.03444,0.22094c0.01888,0.12132 0.03577,0.23884 0.05064,0.35277c0.0207,0.03264 0.03956,0.07008 0.05599,0.11298c0.0625,0.1632 0.04611,0.29121 -0.00165,0.38869c0.21585,2.58386 -0.84434,3.09272 -3.43544,4.42981c-0.49732,0.37251 -0.86328,1.06781 -1.48137,1.13158c-1.09158,0.11262 -1.94856,-2.27444 -1.42513,-3.07565c0.69785,-1.06822 3.74102,-2.38813 5.27728,-2.99837c-0.00892,-0.06122 -0.01838,-0.12379 -0.02838,-0.18778l-0.03444,-0.22094c0,0 -0.07701,-0.49404 0.41702,-0.57105z" fill="#8fbbbe" stroke="none" stroke-width="0.5" stroke-linecap="butt"/><path d="M225.6974,192.73858l0.35172,5.88574l-3.36541,8.89798l-4.28231,5.19368l-4.66976,2.70812l-11.13303,1.16968l-7.03576,-3.03335l-4.29921,-5.44012c0,0 -1.77444,-3.65463 -2.35517,-4.85071c-0.34087,-0.70206 -0.36807,-1.00481 -0.36807,-1.00481c0,0 5.72767,6.71976 14.31399,5.92327c17.45356,-1.61905 20.58098,-22.33869 20.58098,-22.33869z" fill="#343545" stroke="#343545" stroke-width="1.5" stroke-linecap="round"/><path d="M204.02252,216.6547c-0.22809,0.71448 -0.94256,0.48639 -0.94256,0.48639l-0.30191,-0.09961c-2.64485,-1.12529 -5.03174,-2.84404 -6.8468,-5.03407c-2.84937,0.2696 -4.92367,-0.17622 -6.86145,-3.04657c-0.65364,-0.9682 -1.34761,-1.49439 -0.82949,-2.84806c0.09493,-0.24803 1.49195,-1.09077 1.7504,-1.25865c0.75439,-0.49002 1.50071,-0.96818 2.2554,-1.42506c-0.44879,-1.88995 -0.9807,-4.08272 -1.26036,-6.004c-0.81441,0.87324 -3.48024,4.15623 -4.44915,3.94713c-1.40214,-0.30259 -0.48829,-1.20585 -0.48151,-1.89674c0.00061,-0.06159 0.00149,-0.12302 0.00266,-0.18426c-0.93372,0.63361 -0.53781,-6.90777 -0.50922,-6.92397c-0.01224,-0.14617 0.02931,-0.33584 0.27228,-0.46122c0.44433,-0.22929 0.67362,0.21504 0.67362,0.21504l0.1012,0.21728c0.08363,0.29581 0.16456,0.72643 0.22985,1.23114c0.19969,-0.96119 0.41215,-1.93321 0.60301,-2.94727c0.00145,-0.14077 0.04965,-0.26562 0.10141,-0.35957c0.04858,-0.09964 0.12637,-0.21518 0.24724,-0.2981l0.14423,-0.14342c0.75281,-0.59898 1.41435,-1.29866 2.09286,-1.98063c-0.03448,-1.14847 0.06505,-2.30047 0.43292,-3.46831c0,0 0.22809,-0.71448 0.94256,-0.48639c0.71448,0.22809 0.48639,0.94256 0.48639,0.94256c-0.17482,0.53913 -0.2829,1.07921 -0.34137,1.62002c1.54988,-1.22564 3.38179,-2.24039 5.34014,-3.03706c0.54753,-2.37815 1.5001,-4.66 3.03343,-6.76495c0,0 0.44232,-0.60568 1.048,-0.16337c0.60568,0.44232 0.16337,1.048 0.16337,1.048c-1.19085,1.62615 -2.01251,3.39856 -2.5525,5.25557c2.57607,-0.85862 5.2864,-1.35836 7.80712,-1.48424c0.25195,-1.57543 0.63306,-3.18052 1.16814,-4.85665c0,0 0.22809,-0.71448 0.94256,-0.48639c0.71448,0.22809 0.48639,0.94256 0.48639,0.94256c-0.4767,1.49327 -0.82654,2.92625 -1.06807,4.33146c2.42178,-0.19863 5.12635,-0.8343 7.46843,-0.56981c0.37498,0.04234 0.74541,0.11121 1.11207,0.20068c-0.11454,-0.29797 -0.24542,-0.58888 -0.39571,-0.8713l-0.24712,-0.68807c0,0 -0.24622,-0.70843 0.46222,-0.95465c0.70843,-0.24622 0.95465,0.46222 0.95465,0.46222l0.16324,0.49265c0.34102,0.67677 0.58706,1.38486 0.77192,2.11283c1.71314,0.67112 3.36871,1.60272 5.05507,2.14107c0,0 0.71448,0.22809 0.48639,0.94256c-0.22809,0.71448 -0.94256,0.48639 -0.94256,0.48639c-1.4148,-0.45165 -2.82284,-1.21086 -4.26207,-1.83634c0.23045,1.57577 0.30791,3.19989 0.54311,4.7675c0.57417,0.11492 1.15043,0.21026 1.73182,0.26076c0.80875,0.07025 2.03557,-0.50749 2.74893,0.10677c1.28979,1.11059 0.66422,1.39448 0.91762,2.61511c0.16482,0.79398 1.41619,2.40039 1.2032,3.14177c-0.15194,0.52887 -1.4664,0.97228 -1.98399,1.16569c-1.07774,0.40275 -2.13115,0.8899 -3.19433,1.34343c0.35908,1.94336 0.70704,3.87171 0.90847,5.80212c0.55765,-0.63021 1.10968,-1.25832 1.68055,-1.84444c0.38458,-0.38607 0.72486,-0.83261 0.9561,-1.32605l0.11262,-0.37756c0,0 0.22809,-0.71448 0.94256,-0.48639c0.71448,0.22809 0.48639,0.94256 0.48639,0.94256l-0.1915,0.57507c-0.31338,0.63163 -0.74422,1.21038 -1.23209,1.71945c-0.88613,0.90818 -1.72623,1.89299 -2.60227,2.83863c0.10363,2.46233 -0.10763,4.93771 -0.91326,7.46133c0,0 -0.22809,0.71448 -0.94256,0.48639c-0.71448,-0.22809 -0.48639,-0.94256 -0.48639,-0.94256c0.59349,-1.85909 0.84428,-3.69637 0.87725,-5.52446c-1.0466,0.9692 -2.19295,1.81191 -3.55264,2.36766c-0.87481,0.35756 -1.78629,0.6639 -2.72424,0.9302c0.63971,1.24841 1.34395,2.46911 2.34801,3.43497c0.20014,0.19511 0.40029,0.39022 0.60043,0.58532l0.06179,-0.06339c0,0 0.71448,0.22809 0.48639,0.94256c-0.22809,0.71448 -0.94256,0.48639 -0.94256,0.48639l-0.65268,-0.29148c-0.20014,-0.19511 -0.40029,-0.39022 -0.60043,-0.58532c-1.17371,-1.15662 -2.21973,-2.53093 -3.14482,-4.04106c-2.10531,0.4771 -4.30479,0.79886 -6.4935,1.08045c2.2181,1.87403 4.94968,3.3806 7.33663,4.96353l0.30808,0.28239c0,0 0.53704,0.52353 0.01351,1.06057c-0.52353,0.53704 -1.06057,0.01351 -1.06057,0.01351l-0.09221,-0.10783c-2.68125,-1.79089 -5.79543,-3.46041 -8.15709,-5.67c-0.10334,-0.09669 -0.20561,-0.19578 -0.30682,-0.29717c-1.91499,0.23608 -3.79723,0.46773 -5.57488,0.77378c-0.07819,0.01219 -0.15585,0.02418 -0.23297,0.03595c1.5729,1.67014 3.53032,2.9938 5.65022,3.88203l0.17441,0.05245c0,0 0.71448,0.22809 0.48639,0.94256zM193.39117,207.69258c-0.27904,-0.94008 -0.53458,-1.85355 -0.76851,-2.75182c-0.38283,0.23594 -0.76447,0.4785 -1.14723,0.72713c-0.35007,0.22739 -1.75339,0.83195 -1.89573,1.12018c-0.2528,0.51189 0.91014,1.59938 1.17576,1.99859c1.09312,1.64289 2.54228,1.95487 4.16117,1.85608c-0.60965,-0.91875 -1.1242,-1.9045 -1.52546,-2.95015zM190.6876,193.6776c-0.11273,-1.26296 -0.33285,-2.50584 -0.49212,-3.74409c-0.43315,0.3383 -0.86852,0.68377 -1.30759,1.03529c-0.38766,1.92636 -1.07143,3.77692 -1.33732,5.72967c-0.09451,0.69413 0.08716,1.77124 0.04751,2.64645c0.05297,-0.0898 0.11475,-0.17794 0.18626,-0.26052c0.75449,-0.87126 1.56702,-1.60594 2.368,-2.4306c0.24924,-0.25566 0.50425,-0.50658 0.76476,-0.75271c-0.08553,-0.725 -0.16172,-1.46434 -0.22949,-2.22351zM192.18147,193.54238c0.0349,0.38679 0.07189,0.76806 0.11112,1.14461c1.25303,-1.03411 2.60678,-1.96936 4.03355,-2.80156c-0.1277,-2.09219 -0.11264,-4.18191 0.14903,-6.22154c-1.68607,0.91878 -3.30108,2.01617 -4.9254,3.23236c0.14895,1.54783 0.49206,3.09846 0.6317,4.64613zM194.81165,207.21067c0.4434,1.16062 1.04814,2.24167 1.77989,3.22942c0.36575,-0.05784 0.73642,-0.12037 1.11015,-0.17863c1.47852,-0.2546 3.03558,-0.45517 4.62565,-0.64985c-1.65465,-2.11748 -2.97067,-4.8237 -3.95889,-7.48049c-0.54238,0.14346 -1.06786,0.33084 -1.56341,0.59139c-0.98815,0.42927 -1.92464,0.90626 -2.83963,1.4236c0.25328,0.99695 0.53429,2.01257 0.84624,3.06454zM196.16193,201.3674c0.54964,-0.27913 1.1243,-0.48064 1.71334,-0.6364c-0.36276,-1.08881 -0.66921,-2.14959 -0.92013,-3.13652c-0.19582,-1.33402 -0.37154,-2.68532 -0.49883,-4.04091c-1.41176,0.86975 -2.74061,1.84778 -3.95484,2.9293c0.27295,2.11621 0.62982,4.11605 1.09941,6.15791c0.82606,-0.45924 1.67298,-0.88758 2.56104,-1.27337zM198.42458,197.29337c0.24932,0.97537 0.55651,2.03687 0.92272,3.12918c1.06939,-0.18046 2.15647,-0.29974 3.20268,-0.53344c1.67426,-0.37399 3.36709,-0.71825 5.05833,-1.08084c-0.40115,-1.58083 -0.71191,-3.12713 -0.93757,-4.57476c-0.24962,-1.61842 -0.444,-3.16391 -0.56236,-4.67114c-2.87005,0.70154 -5.68782,1.77453 -8.27707,3.19225c0.13115,1.53546 0.34279,3.05817 0.59326,4.53877zM219.40048,189.57631c0.17902,1.8247 0.48159,3.62021 0.80525,5.39945c0.53265,-0.2402 1.06892,-0.47689 1.62493,-0.68145c0.44426,-0.16344 0.88936,-0.32454 1.333,-0.48964c0.34474,-0.12828 1.15968,0.14207 1.08187,-0.21745c-0.13381,-0.61817 -1.06641,-1.57243 -1.23882,-2.36155c-0.12807,-0.58617 0.13667,-1.20914 -0.32353,-1.71757c-0.07604,-0.084 -1.85046,0.17852 -1.99411,0.1672c-0.43845,-0.03459 -0.87385,-0.09633 -1.30754,-0.17383c0.00624,0.02497 0.01256,0.04991 0.01894,0.07482zM217.92282,189.83412c-0.05601,-0.22089 -0.10557,-0.44501 -0.14987,-0.67184c-0.96354,-0.22095 -1.92669,-0.44966 -2.90416,-0.55884c-2.37424,-0.07158 -4.84063,0.14492 -7.29092,0.63305c0.11429,1.53448 0.31379,3.1094 0.57502,4.76596c0.24646,1.58109 0.58203,3.05303 0.9988,4.46824c2.77657,-0.62197 5.53223,-1.33312 8.17727,-2.3472c0.50664,-0.14514 0.99366,-0.32742 1.47238,-0.52677c-0.35656,-1.90072 -0.69543,-3.81694 -0.8785,-5.76261zM215.17785,182.15089c-2.34056,-0.25964 -5.08748,0.43305 -7.49543,0.60158c-0.19801,1.66322 -0.25042,3.30354 -0.18902,4.97673c2.51319,-0.48569 5.04184,-0.69827 7.48203,-0.62197c0.86261,0.09697 1.71388,0.28295 2.56378,0.47543c-0.18604,-1.66738 -0.24109,-3.40812 -0.57428,-5.03302c-0.58768,-0.18932 -1.18256,-0.33172 -1.78707,-0.39877zM217.80414,197.54624c-2.65178,1.0144 -5.41319,1.73296 -8.19622,2.36012c0.85853,2.51774 1.97733,4.90687 3.30861,7.48401c0.07242,0.14021 0.14422,0.28147 0.21574,0.42345c0.98043,-0.27098 1.93099,-0.58582 2.83913,-0.95785c1.59973,-0.65533 2.88897,-1.76994 4.074,-3.00772c-0.13682,-2.2418 -0.5331,-4.47676 -0.95661,-6.72837c-0.42371,0.15769 -0.85123,0.30219 -1.28463,0.42635zM206.01527,188.04685c-0.0767,-1.76202 -0.03656,-3.48665 0.15511,-5.23174c-3.03114,0.1838 -5.65329,0.91834 -8.08686,2.03957c-0.36924,2.04097 -0.45356,4.15276 -0.35959,6.26022c2.61325,-1.36009 5.42884,-2.39063 8.29136,-3.06804zM202.8727,201.35398c-0.97414,0.21626 -2.00813,0.31781 -3.02481,0.4778c1.0384,2.76193 2.44649,5.56882 4.24281,7.5653c2.38095,-0.29146 4.79758,-0.60879 7.10207,-1.10826c-1.35335,-2.50427 -2.4087,-5.28888 -3.19283,-8.02919c-1.71413,0.36862 -3.43003,0.71756 -5.12724,1.09434z" fill="#000000" stroke="none" stroke-width="0.5" stroke-linecap="butt"/><path d="M206.92976,179.1514c0.09534,0.61163 -0.40557,1.2513 -1.0174,1.56883c-0.62365,0.32367 -1.36145,0.31982 -1.58119,0.37583c0,0 -1.16058,0.14998 -1.46934,-1.06129c-0.30876,-1.21127 0.90251,-1.52003 0.90251,-1.52003c0.43532,-0.11097 0.87063,-0.22193 1.30596,-0.3329l0.43186,-0.07301c0,0 1.23508,-0.19253 1.42761,1.04256z" fill="#8fbbbe" stroke="none" stroke-width="0.5" stroke-linecap="butt"/><path d="M211.05735,179.4151c0.06234,0.21762 -0.37962,0.68947 -0.81158,0.83547c-0.52214,0.17648 -1.06473,-0.01333 -1.14009,-0.27639c-0.13769,-0.48067 0.34298,-0.61836 0.34298,-0.61836c0.16506,-0.04728 0.33011,-0.09457 0.49516,-0.14184l0.49516,-0.14184c0,0 0.48067,-0.13769 0.61836,0.34298z" fill="#8fbbbe" stroke="none" stroke-width="0.5" stroke-linecap="butt"/><path d="M225.41312,202.81699c-3.50613,10.98287 -14.74141,17.20692 -25.09469,13.90178c-10.35329,-3.30514 -15.904,-14.88787 -12.39788,-25.87074c3.50613,-10.98287 14.7414,-17.20692 25.09469,-13.90178c10.35329,3.30514 15.90401,14.88787 12.39789,25.87075z" fill="none" stroke="#000000" stroke-width="2.5" stroke-linecap="butt"/><path d="M186.78603,190.53833c0,0 -0.55633,11.06928 1.40635,14.57087c8.0764,14.40904 14.30836,12.48994 14.30836,12.48994c0,0 -8.50179,2.29611 -9.74552,1.85457c-13.37914,-4.74976 -12.48534,-18.54017 -10.9117,-23.69367c0.30065,-0.9846 4.9425,-5.22173 4.9425,-5.22173z" fill="none" stroke="#000000" stroke-width="2.5" stroke-linecap="round"/></g><path d="M-3.9767,363.06856v-366.13712h487.95341v366.13712z" fill="none" stroke-opacity="0.01384" stroke="#ff0000" stroke-width="0.5" stroke-linecap="butt"/></g></g></svg>