<svg version="1.1" xmlns="http://www.w3.org/2000/svg" xmlns:xlink="http://www.w3.org/1999/xlink" width="189.96013" height="201.87215" viewBox="0,0,189.96013,201.87215"><g transform="translate(-136.31869,-80.92291)"><g data-paper-data="{&quot;isPaintingLayer&quot;:true}" fill-rule="nonzero" stroke-linejoin="miter" stroke-miterlimit="10" stroke-dasharray="" stroke-dashoffset="0" style="mix-blend-mode: normal"><g fill="#9966ff" stroke="none" stroke-width="0.5" stroke-linecap="butt"><path d="M233.23485,244.47915c-1.9277,1.59185 -3.51955,-0.33585 -3.51955,-0.33585l-2.93881,-3.60615c-3.02007,-7.39484 -6.19906,-14.79596 -8.11657,-22.57639c-1.00446,-4.07567 -1.50091,-8.281 -2.44918,-12.37518c0,0 -0.56361,-2.43564 1.87203,-2.99925c2.43564,-0.56361 2.99925,1.87203 2.99925,1.87203c0.94124,4.07119 1.43406,8.25417 2.43263,12.30593c1.80374,7.31883 4.85372,14.21941 7.56345,21.22412l2.49259,2.97119c0,0 1.59185,1.9277 -0.33585,3.51955z"/><path d="M267.22063,232.83244c-2.37016,0.79519 -3.16535,-1.57498 -3.16535,-1.57498l-0.12948,-0.38593c-2.10748,-6.28404 -4.61578,-12.96812 -5.82854,-19.49305c-0.90953,-4.89352 -0.87597,-10.00281 -1.70281,-14.93836c0,0 -0.4121,-2.4658 2.05371,-2.8779c2.4658,-0.4121 2.8779,2.05371 2.8779,2.05371c0.81769,4.90405 0.78396,9.99021 1.68702,14.84888c1.17017,6.2958 3.61794,12.75279 5.65305,18.81635l0.12948,0.38593c0,0 0.79519,2.37016 -1.57498,3.16535z"/></g><g stroke-width="0.5"><path d="M215.67375,237.13534c-1.58823,0.31879 -3.3371,0.41972 -5.49399,0.40688c0,0 -0.26752,-0.00159 -0.51592,-0.16081c-0.41493,0.49875 -1.02937,1.00916 -1.37872,1.44042c-2.53797,2.38297 -5.58248,3.37861 -8.49187,5.29481c-2.64874,1.74454 -5.36694,4.41565 -8.66178,5.10289c0.35067,1.02013 0.47598,2.17045 0.30695,3.48571c-0.16547,1.28763 -0.4808,1.3787 -0.88456,2.43341c-0.67114,1.75314 -0.85149,4.29493 -3.04162,4.4598c-6.46819,-0.03851 -14.99436,0.74544 -20.93993,-4.26553c-0.06718,0.01956 -0.14628,0.03049 -0.23929,0.02993c-0.74946,-0.00446 -0.90434,-0.74509 -0.90434,-0.74509l-0.11907,-0.63892c-0.03198,-4.7476 4.0071,-6.93348 7.04676,-9.72578c2.28704,-2.10094 4.3387,-4.41677 8.25522,-3.20614c3.65518,1.85633 7.89512,3.617 9.83431,6.73705c3.13016,-0.56059 5.82167,-3.30458 8.31687,-4.94632c2.84576,-1.87239 5.82188,-2.80049 8.29187,-5.12552c0.23841,-0.29613 2.2028,-1.97229 1.61113,-2.57745c-1.21222,-1.23983 -3.87995,-1.99802 -5.39953,-2.31326c-4.18493,-0.8682 -7.9093,-0.28417 -11.89796,-2.62721c-0.9689,-0.79829 -2.33936,-1.36953 -3.04468,-2.42519c-2.29603,-3.43649 0.29586,-5.18079 2.77269,-6.31508c4.51845,-2.06929 9.67987,-2.1023 14.99554,-1.99303c2.08033,1.02631 7.31881,2.92033 8.55289,5.09141c2.67148,4.69985 -1.6852,8.0834 -5.17234,9.6563c0.52903,0.52678 0.85178,1.13977 0.77518,1.85608c1.67613,0.02268 3.41444,0.11653 5.03829,-0.07887c0.1757,-0.22036 0.51106,-0.21837 0.51106,-0.21837c0.18293,0.00109 0.53241,0.00317 0.71535,0.00426c0.65319,-0.15471 1.27812,-0.37694 1.86166,-0.69349c-0.15803,-0.23986 -0.27609,-0.55232 -0.33578,-0.9494c-0.16051,-1.06789 2.15488,-2.85131 2.83175,-3.57478c0.9698,-1.03657 2.18215,-2.03521 2.95142,-3.23567c1.66047,-2.59121 2.01313,-5.88755 6.55594,-3.05699c0.95184,0.76149 2.88139,1.68679 3.55292,2.68168c1.70452,2.5253 -0.71302,4.67109 -2.27829,5.75146c-4.22,2.91269 -8.86922,4.59396 -14.54592,4.56016c-0.27758,-0.00165 -0.55517,-0.00331 -0.83274,-0.00496l-0.16655,-0.00099c0,0 -0.21143,-0.00125 -0.4329,-0.11341z" fill="#ff2d32" stroke="none" stroke-linecap="butt"/><path d="M190.35469,262.39865l-0.71914,-0.40499c0,0 -0.12202,-0.07128 -0.24439,-0.1985c-1.81589,-0.69828 -3.84406,-2.39426 -4.20155,-4.08014c-0.03272,-0.15431 0.42746,-2.7536 0.47205,-3.0129c0.8938,-5.19721 3.41175,-8.85598 6.99068,-12.37922c2.19159,-2.15473 4.69856,-3.87483 7.04374,-5.86235c1.44369,-1.22352 2.6605,-2.98839 4.26465,-3.99227c2.43847,-1.52601 5.31597,-2.66404 7.56467,-4.3932c2.49284,-1.30443 6.21856,-0.27884 9.17247,-0.53485c4.27892,-0.37084 8.29588,-0.44734 12.71073,-0.42105c2.38256,0.09949 4.12975,2.48905 5.90486,4.10142c4.03625,3.66624 8.16432,8.9972 9.74733,13.90058c0.36869,1.14203 0.9346,2.86495 0.55712,3.89549c-0.06209,0.1695 -1.94277,1.95912 -2.11808,2.12832c-8.82628,4.32675 -18.29138,5.65169 -28.66571,6.60219c-3.78891,0.34715 -7.08456,1.44989 -10.71963,2.14505c-5.21102,0.99653 -11.13989,1.09422 -15.61157,3.45559l-0.76943,0.01218c-0.19337,0.04994 -0.37653,-0.00486 -0.52229,-0.08331c-0.1501,-0.06404 -0.31356,-0.17596 -0.42469,-0.37152c-0.14394,-0.16883 -0.28788,-0.33766 -0.43182,-0.50649z" fill="#ab164a" stroke="none" stroke-linecap="butt"/><path d="M256.91884,269.54098c-1.91782,-1.23197 -4.27909,-3.0628 -5.37168,-4.97643c-1.79594,-3.14549 -0.1148,-5.1729 -0.01666,-7.98515c0.07965,-2.28242 -0.32451,-4.93076 -1.30929,-7.22721c-2.4471,-2.93952 -7.04182,-3.8814 -10.6949,-5.16314c-0.89169,-0.31286 -1.87431,-0.17528 -2.70452,-0.67817c-4.46217,-2.70288 -2.84223,-8.24404 0.36622,-9.39115c3.4417,-0.989 9.83143,-0.92736 13.75815,-0.27032c1.34449,0.22497 0.76672,-2.14387 4.36422,-4.44068c2.27336,-1.45141 9.12222,-3.30105 9.95865,-3.09565c2.78816,0.68467 0.30185,10.21966 3.01372,10.26008c7.40135,0.04403 10.35385,-1.87746 16.65684,-4.4342c1.38929,-0.56355 4.84829,-1.24013 5.3529,-2.67644c-0.21876,-3.89681 2.02753,-4.71505 5.48151,-5.20895c1.00624,-0.14389 1.51552,-1.10952 2.77719,-0.59422c2.84394,1.16153 3.56181,5.18586 2.14946,6.82726c-1.01276,1.17702 -2.37364,2.23113 -3.51268,3.30501c-0.51394,0.46237 -1.34533,0.58709 -1.76595,1.13353c-0.31717,0.41205 0.51377,1.12564 0.86324,1.65135c1.11945,1.68401 3.26235,1.5863 4.81697,2.24181c4.03006,1.69928 11.57131,7.373 11.2971,11.64259c-0.51663,3.23906 0.14761,7.39224 -1.91279,9.97113c-1.46579,1.83465 -3.86254,1.821 -6.23155,2.1885c-3.8905,0.60354 -7.61868,1.23448 -11.65189,1.40035c-9.98596,0.41067 -21.38209,-0.01248 -29.30728,4.79507c-1.64363,0.8662 -3.02915,1.89216 -5.09546,1.88807l-0.71903,-0.24676c0,0 -0.68037,-0.30837 -0.56249,-0.9163z" fill="#ff2d32" stroke="none" stroke-linecap="butt"/><path d="M208.02848,211.2608c0.01203,-0.01698 0.01922,-0.02587 0.01922,-0.02587l0.05945,0.00344c0.0005,-0.00012 0.00099,-0.00026 0.00149,-0.00038c2.12286,-5.20314 8.03538,-5.99092 13.83755,-5.7065c11.56116,0.56673 23.55097,1.38139 35.26492,3.80092c1.34064,0.52871 5.1014,1.961 5.67516,2.56799c0.68619,0.72593 0.36715,1.79605 0.43043,2.68265c0.38405,5.3806 -2.74925,8.56183 -6.97174,10.87881c-3.90713,2.14394 -11.51493,1.89948 -16.39713,0.70117c-3.87654,-0.95148 -6.54166,-2.38958 -10.43144,-2.41631c-0.89089,0.13553 -1.96602,-0.01869 -2.64843,0.4708c-2.67226,1.91678 -1.55502,7.51547 -6.33663,7.51106c-2.59876,-0.00239 -4.29318,-2.64638 -5.59759,-4.54959c-1.53402,-2.23823 -1.99234,-4.71539 -3.01644,-7.09486c-1.07424,-2.49597 -2.81285,-4.47306 -4.41813,-6.72207c0,0 -0.94739,-1.32887 0.25477,-1.98333c0.09314,-0.05071 0.18477,-0.08951 0.27452,-0.11794z" fill="#0f1b82" stroke="none" stroke-linecap="butt"/><path d="M264.30859,221.7376c0.17281,-0.38698 0.52532,-0.57889 0.52532,-0.57889l0.49378,-0.23722c1.31561,-0.37642 2.79965,-0.3473 4.17956,-0.57549c1.63603,-0.27054 2.95256,-1.21293 4.52271,-1.63777c3.43422,-0.9292 7.49092,-1.55882 11.27006,-1.38652c2.88533,0.13156 8.04201,2.81273 7.85451,6.37895c-0.0898,1.70782 -2.34891,3.23891 -3.36653,4.37751c-1.30033,1.45492 -1.58976,3.77853 -2.16748,5.65808c-1.78263,2.56238 -3.9757,6.99167 -6.98181,8.3552c-3.0756,1.39504 -5.65677,-1.66316 -7.69008,-3.93968c-1.17518,-1.31576 -2.62612,-2.41391 -3.71145,-3.79283c-1.26049,-1.60146 -1.68555,-3.61208 -2.64396,-5.32046c-1.07229,-1.91137 -2.20515,-3.54043 -3.06444,-5.54984c0,0 -0.61578,-1.4475 0.77983,-1.75103z" fill="#0f1b82" stroke="none" stroke-linecap="butt"/><path d="M207.78581,212.42038c0,0 4.2953,7.02144 5.16698,8.81838c1.4722,3.03497 4.19651,8.00406 4.19651,8.00406l-8.47475,-7.79977l-7.62976,-1.03171l-5.81871,0.81073l-5.24768,0.81413l0.42082,-9.57846l1.85685,-4.07495l8.40728,2.02261l6.61521,2.99822z" fill="#0066cc" stroke="#0066cc" stroke-linecap="round"/><path d="M266.11465,208.39991l19.01964,5.04463l4.08936,5.23752c0,0 -7.98814,14.80404 -11.07942,15.24581c-1.86755,0.21008 -12.86072,-9.04801 -12.86072,-9.04801l-9.28011,4.03073l-4.54444,3.49536l0.74225,4.23132l-12.0694,-3.17159l-3.40033,-4.66983l-8.86402,-6.25223c0,0 10.66538,3.7784 18.98142,2.11431c10.76493,-2.15411 14.24729,-6.84784 14.24729,-6.84784z" fill="#0066cc" stroke="#0066cc" stroke-linecap="round"/><path d="M254.53746,195.65028c-0.30975,-1.48126 1.18917,-1.47233 1.18917,-1.47233l0.59091,0.01206c5.07238,0.5658 10.74403,2.17683 15.77801,3.93118c1.15391,0.42517 2.38581,0.61945 3.46175,1.27549c3.00546,1.83255 3.04053,5.74354 4.57473,8.27967c1.32212,2.18554 4.11037,1.49644 4.57223,4.75771c0.27154,1.91735 -1.74279,3.11767 -3.22874,3.43285c-1.56795,0.33257 -2.64943,-0.34447 -4.12826,-1.0046c-3.33686,-1.48953 -6.61189,-3.78739 -10.04776,-4.58752c-1.14931,0.88501 -2.24307,1.81966 -3.33461,2.76773c-0.12622,0.19062 -0.33804,0.35155 -0.68134,0.43517c-0.24698,0.07951 -0.57674,0.11469 -0.94906,-0.02947c-0.37537,-0.128 -0.65045,-0.38331 -0.83777,-0.6209c-0.27063,-0.30769 -0.39857,-0.59308 -0.4411,-0.8458l-0.51357,-1.31203c-1.27968,-4.45458 -2.02799,-8.95276 -2.96076,-13.41796c-0.32569,-0.04377 -0.64899,-0.0832 -0.96949,-0.11801l-0.26563,0.00696c0,0 -1.49893,-0.00892 -1.80868,-1.49018z" fill="#fddfbd" stroke="none" stroke-linecap="butt"/><path d="M260.42382,190.04947l16.39002,8.83318l1.00301,4.79646c0,0 -2.15788,1.07708 -8.81397,-1.60768c-6.82504,-2.7529 -11.57319,-7.2493 -11.57319,-7.2493z" fill="#f89587" stroke="#f89587" stroke-linecap="round"/><path d="M226.54423,173.07169c2.85453,-2.81857 6.84284,-5.61051 10.86235,-6.96533c2.56324,-0.86398 6.25975,-0.32165 9.10717,-0.30349c3.36333,0.02145 8.32949,-0.08389 11.68839,1.62755c5.07365,2.58515 2.40497,5.154 -0.50311,6.42248c-1.77699,0.2533 -3.57421,0.3605 -5.37924,0.41206c0.0231,0.67768 -0.40551,0.95468 -0.7631,1.0679c-2.60822,2.30803 -6.30683,1.73381 -10.10332,1.71802c-4.11926,-0.01712 -7.9174,0.14921 -11.90392,-0.3684c-0.04117,0.0085 -0.08233,0.01696 -0.12347,0.02544l0.07954,0.34685l-2.97998,0.04133c-0.01155,0.0002 -0.02314,0.00025 -0.0348,0.00018c-0.82784,-0.00493 -1.6376,-0.6721 -1.80868,-1.49018c-0.16182,-0.77384 0.30582,-1.40551 1.05754,-1.46739l0.45204,-0.04294c-0.0655,-0.61114 0.35261,-1.02408 0.35261,-1.02408z" fill="#f89587" stroke="none" stroke-linecap="butt"/><path d="M228.59962,183.88092l0.73898,0.0351c2.08745,-1.24823 4.24125,-2.30153 6.31868,-3.58394c1.66219,-1.02609 3.41424,-2.7809 5.48793,-3.20565c4.48776,-0.91921 9.43047,-0.76288 13.93255,-1.66154c3.52709,-0.70404 6.48425,-2.01284 10.13947,-2.54195c1.94001,-0.27509 5.45587,-1.14612 7.53878,0.49192c0.80906,0.63625 0.15191,1.82847 0.13014,2.72406c-0.04621,1.90033 -0.09151,4.08418 1.01304,6.07459c1.16187,2.09372 2.94429,5.10347 4.45655,7.029c1.04301,1.32803 2.26458,1.95409 2.87157,3.91897c2.14491,6.94327 -8.29018,4.97615 -12.60031,3.06257c-3.28624,-1.36977 -6.30397,-2.91011 -9.12152,-5.15205c-0.13997,-0.11138 0.28286,0.27266 0.30385,0.43205c0.06079,0.46177 -0.03393,0.8992 -0.07007,1.3438c-0.17153,2.11077 -0.21204,3.89593 -0.12631,6.0363c0.19463,4.85892 1.98837,9.55325 3.03133,14.40075c0.17124,0.4598 0.10128,0.79978 -0.04708,1.04322c-0.11648,0.26342 -0.34881,0.50196 -0.79808,0.57393l-0.32372,0.1107c-2.16572,0.59666 -3.90336,1.77874 -6.27188,1.98229c-2.0279,0.17427 -3.74311,-0.13644 -5.62143,0.51605c-11.54826,0.03669 -24.0448,0.78748 -35.58016,-5.1828c-3.72319,-1.92698 -6.67783,-3.41818 -9.37349,-6.8112c-0.25919,-0.94171 -0.72331,-1.89294 -0.77756,-2.82511c-0.22917,-3.93721 4.4235,-5.65762 7.04177,-7.31813c2.02551,-1.28457 3.44292,-3.27375 5.44535,-4.61387c3.47908,-2.32837 7.62214,-3.84358 11.11639,-6.12982c0,0 0.05248,-0.03404 0.14501,-0.07481c0.24609,-0.59429 1.0002,-0.67443 1.0002,-0.67443z" fill="#feebf7" stroke="none" stroke-linecap="butt"/><path d="M259.54832,203.12122l-10.40876,-24.71888l6.98399,9.53449l3.77223,3.721z" fill="#db93e6" stroke="#db93e6" stroke-linecap="round"/><path d="M223.72276,176.77158l2.57655,-3.19006l7.23561,2.38549l7.64537,0.16881l6.3838,-1.68797l6.78524,-5.13755l8.25005,-6.48495l5.96575,-0.70418l2.81212,2.11258l3.07439,3.96342l-1.71138,5.53761l-45.6301,12.67317z" fill="#db93e6" stroke="#db93e6" stroke-linecap="round"/><path d="M268.20856,239.60469c1.01617,-1.01415 2.58916,-0.75289 4.13729,-0.96814c1.72432,-0.14676 3.55185,3.91623 5.73569,3.84326c3.46956,-0.11592 7.42545,-4.16005 10.16711,-2.79065c2.83193,1.4145 3.00799,4.69875 5.74528,5.40155c1.19868,0.47404 2.85282,0.49051 3.94836,1.23694c0.82152,0.55972 0.88468,1.71046 1.39865,2.53749c0.6278,1.01018 3.04964,0.80529 3.62196,1.85088c0.28888,0.52777 0.15483,1.17613 -0.11058,1.60443c-0.13558,0.21878 -1.56073,0.33495 -1.88078,0.39891c-2.17685,0.43509 -4.28994,0.83219 -6.49565,1.19584c-2.50544,0.49484 -5.23208,0.27866 -7.83741,0.45607c-4.93164,0.33583 -10.56076,1.82782 -14.60358,4.02915c-1.52413,0.82792 -6.56087,3.91602 -8.57884,0.90778c-0.94594,-1.41014 0.79432,-2.84782 0.33303,-4.19643c-0.41249,-1.20594 -2.1071,-0.12822 -3.04515,-1.61408c-0.74037,-1.17273 0.60313,-1.97407 -0.07053,-3.07696c-4.45757,0.3951 -3.68058,-3.76081 -2.24463,-5.71411c1.68715,-2.29501 6.52402,-4.92209 9.7798,-5.10193z" fill="#feebf7" stroke="none" stroke-linecap="butt"/><path d="M233.28795,229.32051c0,0 2.57477,1.16697 2.81588,2.32003c0.24112,1.15306 -2.59758,1.50518 -2.94697,1.3487c-0.44522,-0.18222 -2.13376,-3.54987 0.13109,-3.66873z" fill="#000000" stroke="none" stroke-linecap="butt"/><path d="M231.26449,192.49251c1.89474,3.79289 3.68801,8.14655 6.07918,11.76005c2.24944,-1.35157 7.13057,-4.98019 7.61922,-8.63147c0.1119,-0.8361 -0.00654,-1.67339 -0.43964,-2.4848c-0.09514,-0.17823 -1.57783,-0.38441 -2.35331,-0.43618c-1.0758,-0.07182 -1.62275,0.03459 -2.65528,-0.13813c-1.21813,-0.20377 -1.06693,-0.93898 -2.20865,-0.9276c-3.26452,0.03255 -5.66592,0.73356 -6.04151,0.85812zM223.99092,198.91209c-1.64268,3.51035 1.28175,5.93156 4.48739,6.65328c1.87766,0.42274 3.4388,-0.145 5.33221,-0.33627c0.38764,-0.16 0.53674,-0.34018 0.94298,-0.53552c-2.43251,-3.66368 -3.84532,-7.20097 -5.76661,-11.03355c-1.43223,0.8881 -4.26445,3.68888 -4.99596,5.25206zM243.95632,189.77398c3.96431,1.3083 4.80129,4.09377 3.39478,7.39502c-1.21048,2.84114 -2.74649,5.61518 -5.48929,7.89149c-1.84161,1.52839 -4.69327,2.89732 -6.61089,3.66839c-2.27293,0.251 -7.07533,-0.05392 -9.49811,-0.99214c-5.86472,-2.27112 -6.56913,-7.15811 -4.39333,-11.81785c1.14877,-2.46025 5.12983,-5.29565 10.781,-6.47862c4.28048,-0.89604 10.71852,-0.02843 11.81583,0.3337z" fill="#ff0000" stroke="none" stroke-linecap="butt"/><path d="M270.85953,238.86927c0,0 1.52634,0.11114 2.82112,0.20542c0.83524,0.06082 3.57912,3.63084 5.31499,3.75724c1.56614,0.11404 2.0844,-3.21847 3.65304,-3.10425c2.64839,0.19284 4.80645,0.34997 4.80645,0.34997c0,0 -4.63615,11.068 -7.24336,11.29904c-1.03537,0.09175 -12.61744,-11.41731 -12.61744,-11.41731z" fill="#db93e6" stroke="#db93e6" stroke-linecap="round"/><path d="M235.57715,244.94669l-0.16643,-6.16522c0,0 6.31408,0.33904 9.5777,1.22137c2.29258,0.6198 7.66738,3.68941 7.66738,3.68941l-4.50599,2.31557z" fill="#ab164a" stroke="#ab164a" stroke-linecap="round"/><path d="M301.78358,226.26807l0.01823,0.08715c0.48224,2.32379 -0.1195,4.09686 -1.41889,5.71572c-2.37128,2.33669 -5.27094,3.83026 -8.02823,5.70847c-0.88017,0.59955 -2.9204,2.32658 -4.10755,2.30176c-3.63068,-0.07591 -2.4511,-4.54944 -1.49208,-5.73681c3.77314,-3.55126 8.95602,-6.6986 13.80807,-8.92297c0,0 0.62786,-0.28765 1.06544,0.39486c0.11307,0.17635 0.155,0.32637 0.155,0.45184z" fill="#ab164a" stroke="none" stroke-linecap="butt"/><path d="M179.07582,239.15835l0.04087,-0.20845c2.25999,-3.24555 8.39069,1.14044 11.49075,3.06373c0.87632,0.5998 2.42904,1.54206 2.93995,2.49958c0.935,1.75231 0.68478,4.32443 -1.75779,3.74876c-1.9461,-0.45867 -2.84612,-2.40902 -4.47696,-3.43409c-2.55963,-1.60887 -5.65467,-2.86395 -8.3297,-4.28925c0,0 -0.72234,-0.38488 -0.46955,-1.01767c0.12246,-0.30653 0.35509,-0.37425 0.56243,-0.36261z" fill="#feebf7" stroke="none" stroke-linecap="butt"/><path d="M186.2485,238.09554c0.01687,0.22419 -0.04494,0.53342 -0.48788,0.60625c-0.71381,0.11736 -0.98978,-0.61394 -0.98978,-0.61394l-0.39339,-1.04921c-0.54224,-2.68408 1.16046,-3.30267 3.73993,-2.49535c3.73448,1.16881 8.38736,3.60697 11.46705,6.14104c2.45656,2.5452 1.74499,6.00795 -2.12656,4.43077c-3.79736,-1.54695 -7.8864,-4.35702 -11.20937,-7.01956z" fill="#feebf7" stroke="none" stroke-linecap="butt"/><path d="M194.81092,236.20446c-0.16942,0.09459 -0.361,0.09345 -0.361,0.09345l-0.6472,-0.1518c-2.27633,-1.57938 -2.4791,-4.57837 0.07312,-5.09841c3.11889,-0.63551 6.24537,0.86151 9.5526,1.78937c3.61802,1.52614 6.82414,6.9677 2.3498,7.30771c-3.48873,0.26511 -7.45335,-2.17644 -10.96733,-3.94033z" fill="#feebf7" stroke="none" stroke-linecap="butt"/><path d="M185.38706,260.57208c0.24075,0.00143 0.42014,0.07883 0.55276,0.18323c0.17941,0.00646 0.35881,0.01292 0.53822,0.01937c2.9426,1.67035 6.39938,7.94948 2.39033,9.16296c-1.74598,0.52849 -5.00215,0.09806 -6.93659,-0.36709c-3.37735,-0.81211 -6.90698,-0.87283 -10.33736,-1.54983c-3.30441,-1.21711 -7.19389,-2.80808 -9.5077,-5.87104c-2.35546,-3.11811 -0.68867,-6.98278 1.91895,-8.18854c0.17352,-0.12367 0.36127,-0.12353 0.52412,-0.0788c0.1697,0.02894 0.36375,0.11743 0.53453,0.33414l0.52245,0.5107c0.76832,1.24016 1.47705,2.90886 2.83246,3.74656c1.41877,0.87686 3.70276,0.83414 5.20393,1.04857c3.77002,0.53851 7.65353,0.43396 11.4373,1.11283c0.083,-0.03983 0.18971,-0.06388 0.32658,-0.06306z" fill="#feebf7" stroke="none" stroke-linecap="butt"/><path d="M278.65909,276.76405c-7.99129,-0.04759 -14.42004,-2.80005 -21.75617,-6.14143c-0.00323,0.0271 -0.00633,0.05428 -0.00928,0.08152c0,0 -0.09007,0.7012 -0.85005,0.46276c-0.75998,-0.23844 -0.66991,-0.93965 -0.66991,-0.93965c0.01354,-0.09481 0.0284,-0.18889 0.04456,-0.28225c-0.58238,-0.26596 -1.17129,-0.53464 -1.76788,-0.80503c0,0 -0.73961,-0.33521 -0.54296,-0.99565c0.19664,-0.66044 0.93625,-0.32523 0.93625,-0.32523c0.57767,0.26181 1.14774,0.52216 1.71135,0.78006c1.87182,-5.65197 8.82066,-8.34419 14.19876,-10.0386c3.34292,-1.0441 3.21665,-0.76994 6.27926,-2.2672c4.04489,-1.97748 3.03375,-0.4994 7.7655,-0.94809c0.3313,0.00159 18.11675,-2.23545 18.11675,-2.23545c3.45062,0.02057 -0.26402,-3.50859 3.05524,-1.24456c1.06966,1.0463 3.33022,3.34977 4.82745,4.7892c0.95217,-3.00275 -0.11075,-7.64887 -0.46037,-11.22576c0,0 -0.07117,-0.7356 0.69082,-0.64938c0.0646,0.00731 0.12425,0.01929 0.17929,0.03509c0.56151,-0.22839 0.99259,0.37626 0.99259,0.37626c1.39104,1.95116 3.27324,3.87206 4.29937,5.97111c2.78703,5.70111 0.34309,11.62985 -2.04417,15.95806c-2.31423,3.95056 -5.58095,6.35059 -9.91155,8.16576l-0.93256,0.13542c0,0 -0.41875,0.05834 -0.73257,-0.2394c-7.98314,0.04498 -15.35668,1.63045 -23.4197,1.58243z" fill="#ab164a" stroke="none" stroke-linecap="butt"/><path d="M266.00282,229.73086c0.27727,1.15792 7.25878,7.37539 6.17814,8.23863c-0.25031,0.13589 -0.56883,0.35984 -0.93388,0.62504c-1.5632,1.13565 -3.97958,3.02768 -5.54629,1.99991c-0.74943,-0.49163 -0.92665,-3.79023 -1.01257,-4.39749c-0.4838,-3.4192 -0.54042,-6.46661 -0.39647,-9.75137c0,0 0.03152,-0.71744 0.79617,-0.53348c0.5337,0.12839 0.20228,0.84273 0.9149,3.81876z" fill="#ab164a" stroke="none" stroke-linecap="butt"/><path d="M313.90484,247.94043c-0.15488,-0.74063 0.59459,-0.73617 0.59459,-0.73617l0.16656,0.00099c2.32535,0.03711 4.40596,1.54031 6.4555,2.88517c1.41477,1.53226 1.44362,3.46874 1.82676,5.30093c1.19545,5.71672 -0.22179,13.21429 -4.56209,16.55741c-5.67485,3.09523 -11.65562,5.76979 -18.01777,7.68817c-2.39426,0.72194 -4.30663,1.64223 -7.02333,1.63228c-9.11273,-0.05426 -17.63989,-0.65937 -26.8946,-2.17017c-7.79218,-1.27211 -19.37316,-6.51216 -19.47146,-15.58129c-0.06678,-1.64904 -0.23907,-4.45856 0.85632,-5.64474c0.66627,-0.72151 1.67613,-1.16364 2.8043,-0.03933c0.73516,0.73265 0.71755,3.23943 0.81653,4.09692c0.30201,2.6164 1.06792,4.93553 3.74583,6.36694c8.02005,2.97227 14.75508,5.47581 22.85119,4.49869c7.33545,0.03365 15.53374,0.2767 21.88576,-2.45122c5.81031,-2.2911 10.29336,-6.50227 14.42566,-10.73132c-0.40133,-2.62176 0.30932,-5.02294 1.00589,-7.36494l0.0499,-0.25556c-0.4882,-1.1983 -1.00175,-2.40712 -1.24573,-3.55802c0,0 -0.00013,-0.00062 -0.00036,-0.00183c-0.11969,-0.10969 -0.22221,-0.26708 -0.26943,-0.49292z" fill="#feebf7" stroke="none" stroke-linecap="butt"/><path d="M248.64446,268.75677c0,0 16.54319,16.72843 54.88983,5.64521c7.13672,-2.0627 13.47492,-8.26063 16.40359,-13.99096c2.15724,-4.22091 0.5966,-9.80105 0.5966,-9.80105c0,0 1.33548,2.52215 1.94542,4.60174c0.72302,2.46518 2.11143,9.23029 2.11143,9.23029l-5.67608,7.85641l-17.83959,6.96209l-22.36959,2.00373l-15.30456,-2.39244l-8.88912,-4.32679z" fill="#db93e6" stroke="#db93e6" stroke-linecap="round"/><path d="M241.79607,251.61628c1.77749,-0.79551 2.28505,-1.64827 3.57724,-3.02775c0.33634,-0.35908 1.32605,-1.35346 1.97005,-1.24229c1.69241,0.29215 2.20889,1.81979 3.05271,2.97087c0.24173,0.32974 1.81669,2.24644 1.88229,2.65516c0.18583,1.15777 -0.79849,1.93086 -1.39686,2.59049c-1.57628,1.73761 -2.79224,3.73164 -4.50716,5.37685c-3.9253,2.25824 -10.10414,1.89291 -14.94227,1.9858c-2.76813,0.05314 -5.36725,0.43501 -8.20918,0.15761l-0.74385,-0.1167c0,0 -0.61156,-0.09716 -0.7654,-0.6404c-3.61602,0.21525 -7.03847,0.87084 -10.24863,2.17682c-3.03184,1.28297 -5.60376,3.24805 -8.61194,4.55098c-3.24048,1.40354 -7.90542,1.56598 -11.67852,1.54351c0,0 -0.29072,-0.00173 -0.54746,-0.18198c-0.3385,0.03408 -0.66272,-0.23304 -0.66272,-0.23304l-0.63484,-0.526c-0.98448,-0.60907 -4.39451,-4.05908 -5.16767,-4.97096c-0.29518,-0.34815 -0.69822,-1.84582 -0.72153,-1.94138c-0.06394,-0.26206 0.93236,1.43502 1.13665,0.77275c0.07431,-0.24088 -0.13898,-1.6681 -0.22152,-2.06284c0,0 -0.15488,-0.74063 0.59459,-0.73617c0.25332,0.00151 0.4387,0.08711 0.57315,0.1998c1.45033,-1.15315 4.43693,-0.60111 6.41488,-0.58933c4.56207,0.02717 9.7443,0.75589 13.58828,-1.16944c4.41445,-2.05503 8.80712,-4.23812 13.48105,-5.86409l0.09182,-0.13604c0,0 0.50664,-0.4408 1.08022,0.15438c0.03769,0.03911 0.07073,0.07756 0.09953,0.11526c7.19733,0.02585 14.76491,-0.48456 21.51705,-1.81184z" fill="#db93e6" stroke="none" stroke-linecap="butt"/><path d="M198.95248,247.15716l-0.63548,-0.65392c0,0 -0.08822,-0.09154 -0.19411,-0.24264c-0.39581,0.04275 -0.91443,-0.06831 -1.44749,-0.65177c-1.11333,-1.21861 -0.063,-2.06074 -0.063,-2.06074c0.40702,-0.32633 0.81403,-0.65268 1.22104,-0.97901l0.5956,-0.40321c0.05777,-0.04418 0.12274,-0.08635 0.19562,-0.12602c0.39242,-0.21364 0.75771,-0.21593 1.07176,-0.12209c0.31519,0.08049 0.66314,0.28038 1.00159,0.69651c0.08998,0.11064 0.16367,0.21735 0.22322,0.31999c0.74938,1.15327 1.25688,2.43901 1.54203,3.6923l0.10185,0.48705c0.12477,0.29974 0.17568,0.65711 -0.00457,1.01257c-0.08742,0.2493 -0.26676,0.48967 -0.62024,0.60578c-0.33068,0.15488 -0.67153,0.12057 -0.96373,0.02163c-0.45121,-0.10535 -0.76038,-0.36041 -0.96866,-0.62707c-0.35182,-0.32312 -0.70364,-0.64625 -1.05546,-0.96938z" fill="#db93e6" stroke="none" stroke-linecap="butt"/><path d="M206.77327,235.32533c0.33566,-0.18273 0.65146,-0.21084 0.93232,-0.15643c0.28086,0.05369 0.59847,0.2037 0.93915,0.5166c0.21056,0.19338 0.35727,0.38225 0.45589,0.56239c0.72058,0.99674 1.77817,2.39158 1.89422,3.45926c0.16488,1.51692 -0.51194,3.90607 -2.29584,4.17432c-1.9173,0.2883 -4.3529,-0.78278 -4.86286,-2.92242c-0.30478,-0.12421 -0.62333,-0.36515 -0.90037,-0.80549c-0.86243,-1.37075 0.40205,-1.93223 0.40205,-1.93223c0.87394,-0.36626 1.63834,-0.95084 2.19705,-1.67419l0.78879,-0.82796c0.09532,-0.14473 0.23969,-0.27957 0.4496,-0.39384z" fill="#db93e6" stroke="none" stroke-linecap="butt"/><path d="M196.4028,249.69019c0.1661,0.79429 -0.33098,1.4388 -1.11773,1.47109c-0.17567,0.09036 -0.3829,0.14029 -0.61296,0.13892c-0.82784,-0.00493 -1.6376,-0.67211 -1.80868,-1.49019c-0.02367,-0.11318 -0.03387,-0.22334 -0.03169,-0.3291l-0.79902,-0.41288c-0.356,0.13834 -1.22756,0.32889 -1.99278,-0.67986c-0.9897,-1.30466 0.17789,-2.00613 0.17789,-2.00613c0.46444,-0.27902 0.92887,-0.55806 1.39331,-0.83708l0.54936,-0.30024c0.00165,-0.00091 0.0033,-0.00181 0.00496,-0.00271c0.41751,-0.22729 0.80427,-0.21536 1.13132,-0.10296c0.32946,0.09356 0.68921,0.31587 1.01823,0.77737c0.05814,0.08155 0.10818,0.16056 0.15091,0.23702c0.52808,0.77952 1.31656,1.52885 1.38666,2.36147c0.00635,0.07542 0.005,0.14786 -0.003,0.21772c0.27446,0.25924 0.47711,0.59344 0.55324,0.95754z" fill="#db93e6" stroke="none" stroke-linecap="butt"/><path d="M193.78962,235.23272c2.93299,0.27288 5.40073,1.74139 7.28416,2.71475c2.60579,1.34667 6.77562,7.38006 8.19462,3.05088c1.03372,-2.41267 -1.41944,-4.9277 -3.94726,-6.288c-0.78695,-0.42348 -9.03592,-2.18654 -10.11051,-2.17888c-3.4588,0.02462 -1.93286,2.54241 -1.42101,2.70125zM206.03731,233.04583c1.65723,0.8962 5.43208,3.94451 6.28729,6.26247c0.82006,2.2227 -1.35113,4.70642 -1.48526,4.91572c-2.71756,4.24044 -6.47964,-1.74833 -9.53954,-3.29102c-0.97422,-0.49117 -2.19052,-1.52778 -3.17289,-1.79107c2.25572,1.67081 3.71259,2.99964 4.78356,4.6496c1.12414,1.73187 0.99138,4.39447 -0.4658,6.24376c-0.32614,0.1644 -0.87567,0.45838 -1.54526,0.07393c-1.56765,-0.90007 -3.70381,-3.30826 -4.52972,-3.94677c-0.66781,-0.51628 -1.3416,-1.03991 -2.02205,-1.56296c1.67303,1.90462 2.94975,3.93038 2.99521,6.4824c-0.14204,0.89375 -1.22183,1.46395 -2.33243,1.5513c-0.73777,0.05802 -1.49876,-0.14302 -1.97259,-0.43698c-2.77482,-1.7215 -4.64589,-4.29408 -6.89186,-6.58469c-1.12281,-1.14512 -3.80148,-3.42057 -5.38303,-4.03199c-4.63186,2.09588 -11.60244,5.13969 -13.17683,7.68375c-0.69643,1.12538 -0.38664,4.06991 0.55872,5.58072c0.51078,0.81628 1.33664,0.98631 2.12886,1.50104c3.78198,1.91235 25.36775,4.10133 30.42075,3.10814c2.54654,-0.50053 3.32655,-1.53738 5.76337,-2.29944l0.47553,-0.20756c0,0 0.19422,-0.08243 0.47157,-0.08724c1.26246,-0.76148 3.7085,-1.59963 5.23054,-2.26797c1.95097,-0.8567 3.01426,-1.48835 4.84219,-1.89663c3.10585,-0.69371 5.51127,-0.44522 8.94711,-0.76797c3.79642,-0.35661 14.5,-1.24696 15.82535,-2.21696c1.24385,-0.91035 2.10646,-2.82037 2.10646,-2.82037c-2.4233,0.39125 -4.59142,-0.0428 -6.7568,-0.0557c-0.65547,-0.05044 -1.33523,0.16214 -1.96639,-0.15132c-0.15353,-0.07625 -0.29159,-0.19359 -0.41577,-0.34363c-0.24591,-0.10135 -0.48883,-0.21871 -0.72386,-0.33686c-0.72269,-2.34651 -1.03149,-4.01626 -0.79451,-5.82337c-0.01854,-1.0465 0.46544,-3.17065 1.30863,-5.0054c0.02166,-0.20027 -1.71654,-0.17015 -1.35741,-0.35501c0.27214,-0.14008 2.12965,-0.79532 2.54188,-0.85054c0.29725,-0.20461 0.63496,-0.37334 1.0185,-0.4965c0.43358,-0.13922 0.90816,-0.23929 1.41328,-0.30595c-2.46991,-2.36408 -5.51183,-6.82265 -10.24439,-8.23028c-0.3367,-0.10015 -1.48314,-0.19727 -1.97688,0.37397c-0.62161,0.71915 -0.63561,2.23285 -1.49582,3.15701c-2.08131,2.23598 -3.39477,3.81781 -3.92403,3.81206c0.02461,0.1383 0.27357,2.48226 -0.81588,3.14694c-2.44063,1.48904 -7.53397,1.78091 -8.08593,1.25378c-0.48483,-0.46299 2.98259,-1.99018 4.80428,-3.17032c1.17812,-0.76323 0.9918,-1.33317 0.87999,-1.53837c-0.01775,-0.02887 -0.03385,-0.05735 -0.04846,-0.08505c-0.00332,-0.00558 -0.00668,-0.01116 -0.01005,-0.01672c0,0 -0.00727,-0.01332 -0.01857,-0.03731c-2.16528,-2.53642 -5.82672,-7.50254 -11.48923,-9.36361c-4.82276,-1.58507 -11.75845,-0.31231 -13.32656,0.10391c-3.64624,0.96782 -6.00131,2.50266 -1.56838,6.47999c0.30176,0.24851 0.60353,0.497 0.90531,0.74549l0.69292,0.45408c0,0 0.06815,0.04548 0.15812,0.12738c0.13983,0.00188 4.07036,0.17131 6.39192,0.50249c2.98171,0.42534 4.6616,1.12556 6.58484,2.16561zM185.54151,236.69176c4.21095,2.05216 6.0231,2.90139 9.75298,5.79786c0.11146,0.08655 5.09868,5.68669 6.25493,5.24145c0.56014,-4.37015 -6.46777,-8.99583 -10.30916,-11.00727c-2.64629,-1.38566 -5.45511,-3.12319 -5.69876,-0.03204zM182.79244,234.46722c0.40421,-1.15298 0.83794,-1.74174 2.34044,-2.14373c1.0221,-0.27345 3.07564,-0.4573 3.86007,-0.68598c0.89039,-0.25956 0.49582,-1.15831 0.39615,-1.24048c-0.66386,-0.59638 -0.64755,-1.21603 -1.21999,-1.89482c-3.71804,-2.4686 -1.71179,-4.95137 -0.92362,-5.91139c0.47585,-0.57959 1.66076,-0.90731 1.66076,-0.90731c-0.09295,-2.27066 -0.25506,-5.08888 0.02596,-7.27353c0.3571,-1.97827 0.57457,-5.58804 2.04402,-6.97947c0.93312,-0.88357 2.1544,-0.6472 3.42766,-0.48481c3.89633,0.49693 8.58347,3.02931 12.32292,4.85861l0.12553,-0.21618c0.26497,-0.47364 0.47105,-0.98726 0.63244,-1.51845c-1.45737,-1.25291 -6.17478,-5.98896 -6.1203,-7.91782c0.09694,-3.43154 9.99395,-10.04083 12.41036,-11.66018c3.41222,-2.28668 7.65336,-4.22856 11.10652,-6.37596c-0.55905,-1.7052 -1.86598,-3.77468 -2.2623,-5.61027c0,0 -1.03851,-1.99788 -0.13124,-3.94519c0.85213,-1.82898 3.93714,-4.4442 4.96242,-5.36449c4.24247,-3.80803 14.00552,-5.71749 20.27881,-5.68014c2.46663,0.01469 7.55646,0.99642 7.80989,1.14406c1.43231,-1.38109 4.27796,-3.14648 7.88755,-3.7767c1.94625,-0.33981 5.3396,0.00747 6.0826,0.1153c4.47401,0.64939 6.30003,4.56028 5.92587,8.32648c-0.08935,0.89948 -2.68123,6.21574 -1.40212,10.42284c1.36948,4.50433 8.02553,12.8514 8.77438,15.9942c0.1349,0.28948 0.12307,0.55371 0.06982,0.75608c-0.03596,0.22497 -0.14011,0.47668 -0.40517,0.62505l-0.37695,0.39506c-1.1423,0.62187 -2.11165,1.26687 -3.38439,1.54817c0.00642,0.04296 0.00801,0.0677 0.00801,0.0677c0.25709,4.13631 1.09682,6.50584 4.36943,9.73329l0.46296,0.19593c0.24739,0.0783 0.47812,0.2215 0.66529,0.40746c0.12977,0.12133 0.26407,0.27821 0.35647,0.46686c0.67813,0.32895 0.83823,1.09452 0.83823,1.09452c0.09637,0.46084 0.19273,0.92167 0.2891,1.38251l-0.00324,0.37552c0.09982,0.06845 0.19916,0.1551 0.29541,0.264l0.76714,0.65548c2.2806,2.59779 4.5486,5.29863 6.6786,8.02694c0.12474,-0.10596 0.35051,-0.25352 0.65536,-0.27164l1.04744,-0.25838c2.6746,-0.66804 3.69964,0.18166 5.35244,2.29612c2.515,3.21749 3.32689,4.92033 2.66482,7.05055c-0.76786,2.4706 -3.67696,4.33436 -5.8343,6.01493c4.76146,1.69202 7.92072,3.41083 12.37321,6.66235l3.76189,2.10695c2.34023,1.06012 6.35458,3.20461 8.69538,4.26553c0.3719,0.09464 0.62507,0.31237 0.79434,0.53626c0.19067,0.20904 0.35233,0.49024 0.35224,0.84279c0.75363,3.60392 1.53136,7.32309 2.28414,10.92296c0.29965,1.43295 0.9283,3.20416 0.60288,4.55667c-0.9837,4.08858 -6.7552,7.56174 -10.37448,9.10151c-7.89388,3.50315 -15.90764,6.85125 -25.19489,7.18068c-18.61261,0.39446 -23.78883,-1.59031 -25.72532,-2.24598c-4.89086,-1.17198 -10.80995,-3.9289 -15.08294,-7.44661c-3.14106,-2.58585 -4.48753,-7.23308 -4.56459,-11.06551c-1.96009,0.89478 -4.23496,0.99381 -6.62313,1.22032c-0.39657,0.03762 -0.79286,0.07444 -1.18899,0.11035c-5.94056,1.34449 -12.7471,2.01244 -19.11274,1.61332c-0.14443,0.43933 -0.68927,0.49342 -0.68927,0.49342l-1.37132,0.13536c-3.17661,0.58285 -5.5024,1.51658 -9.559,2.97388c-3.04736,2.12991 -5.4796,2.75652 -9.82101,3.21225c-6.20396,0.65125 -13.37607,0.32072 -19.63907,-1.08466c-1.95401,-0.43846 -2.81572,-0.82719 -4.57389,-1.32771c-2.68183,-0.78135 -6.02924,-1.27179 -8.51891,-3.47118c-0.78132,-0.69022 -2.59103,-3.40538 -3.35554,-4.55302c-1.1009,-1.65263 -1.00258,-1.88961 -0.7019,-3.60754c0.17588,-1.00493 1.11028,-2.31294 1.52874,-3.24076c0.52527,-1.16465 1.30539,-2.14918 2.17782,-3.04555c0,0 0.12818,-0.8959 0.49568,-1.83643c0.28671,-0.73379 0.79021,-1.49432 1.02729,-1.88052c2.18756,-3.56337 10.88228,-8.64581 10.88228,-8.64581c0,0 -0.53459,-2.19784 1.26525,-3.31141c0.85209,-0.52719 2.23543,-0.29172 4.29881,-0.33911c0.86011,-0.01976 0.98748,-0.80068 1.0258,-0.93358zM179.82199,239.19258c5.40221,1.98398 7.48433,4.51724 11.72888,8.4797c0.83824,0.78252 3.94479,4.17477 4.0462,2.09697c-0.30617,-1.55614 -1.45926,-2.45947 -2.58486,-3.66211c-2.11223,-2.25678 -5.10391,-5.29499 -7.98833,-6.99807c-0.02249,0.00359 -2.02453,-1.15372 -2.98521,-1.15422c-1.68206,-0.00088 -2.21668,1.23771 -2.21668,1.23771zM300.60314,248.67047c2.78893,0.97558 5.75389,4.01617 2.12616,5.22247c-3.95214,1.31418 -8.78574,0.5873 -12.91414,1.42487c-5.62839,0.44029 -11.17076,1.41495 -16.36433,3.04595c-2.12931,0.66869 -6.8065,3.62576 -10.36479,2.30904c-1.63092,-0.60351 -0.50903,-4.64096 -0.40759,-5.04449c-0.21385,-0.02473 -0.83563,0.45563 -1.39532,0.49966c-3.22326,0.25355 -1.77952,-3.63356 -1.13622,-4.99776c-1.66551,0.00872 -3.05318,1.0441 -4.16907,-1.00954c0.03286,-1.1591 0.13315,-2.59474 0.62884,-3.88968c0.40419,-1.05591 1.13826,-2.01786 1.76357,-2.66334c-0.3142,-0.13478 -0.53149,-0.38164 -0.53149,-0.38164l-0.70278,-0.80165c-1.06546,-1.36095 -2.26472,-2.36085 -3.1092,-3.8397l-0.13779,-0.21013c-4.28227,-1.56282 -9.91641,-3.19485 -13.99483,-3.19954c0,0 -0.47052,-0.00279 -0.89368,-0.29033c-2.64671,0.82835 -3.51469,3.16893 -3.39988,6.05436c0.04169,1.04779 -0.05421,2.89929 0.50177,3.85586c0.10321,-0.02565 0.18419,-0.02517 0.18419,-0.02517l0.62455,0.00372c0.34927,0.00208 0.69605,-0.00144 1.04078,-0.00958c-0.14342,-0.31765 -0.1453,-0.59672 -0.1453,-0.59672c0.14325,-2.11421 0.1839,-2.93 3.69607,-2.4933c3.04191,-0.22992 3.22736,2.13718 2.83455,2.62776c1.40848,-0.11674 5.50544,-0.04938 5.18987,0.54696c-0.3902,0.73738 -1.09988,0.73614 -1.35088,0.74022c-0.04952,0.02745 -0.09977,0.05435 -0.15069,0.08069c1.61658,2.09522 3.30826,4.40444 4.61547,6.61827l0.11187,0.20449c0.16399,0.19777 0.22391,0.40985 0.24009,0.58377c0.02713,0.14972 0.02936,0.32309 -0.04094,0.48085c0.07419,0.20381 0.07825,0.3655 0.07825,0.3655c0.0574,2.29475 -0.10767,3.83119 -1.27511,5.61115c0.1625,1.78253 0.40464,3.79203 1.24072,5.25232c0.86737,1.51491 2.65925,2.20876 4.08758,2.96984c4.14662,2.20953 8.47634,2.83234 12.83122,3.73961c6.34697,0.90447 12.22438,0.87308 18.02912,-0.37757l0.50581,-0.02436c0,0 0.05728,0.00034 0.14983,0.01299l0.5959,-0.12757c5.7453,-0.44659 11.87681,-2.30233 16.47961,-5.01816c4.31641,-3.63485 11.04547,-8.16567 7.42175,-15.6101c-0.25965,-0.53343 -3.82767,-4.57227 -7.57374,-7.20499c-4.28013,-3.00804 -8.97343,-4.64711 -12.35928,-5.2044c0,0 -1.14314,0.41814 -1.1924,-0.79822c-0.04926,-1.21636 3.19035,-2.86336 3.96974,-3.43294c-0.61195,-0.10077 -0.67746,-0.42934 -0.80548,-1.04156c-0.04718,-0.2256 -0.03016,-0.43672 0.03875,-0.61807l0.38532,-1.08769l0.04471,0.02226l0.00235,-0.13251c0.99916,-1.48028 2.57612,-4.0826 4.8242,-0.79345c0.1157,-0.21495 0.2121,-0.43445 0.28591,-0.65873c0.83229,-2.52914 -2.05056,-6.02906 -4.88025,-5.2796c-0.02223,0.00588 -2.09048,1.64804 -3.13799,2.8544c-1.38347,1.59327 -1.88891,2.95489 -2.46264,4.00311c-1.84796,3.37626 -2.01768,4.70061 -3.93178,7.04088c2.77565,0.45269 5.014,1.7786 6.80241,4.81665l0.2652,0.9643c0,0 0.01678,0.08024 0.01762,0.19485c0.09901,0.03787 2.88217,0.68896 3.36533,0.92213c2.5818,1.24595 3.84846,3.79356 3.84846,3.79356zM272.6475,256.4805c5.29317,-1.66532 10.73914,-2.67698 16.47929,-3.11997c3.01262,-0.59413 6.35232,-0.47709 9.46603,-0.81027c0.63553,-0.06801 3.5131,-0.14231 3.75133,-0.52096c0.23292,-0.37023 -2.66067,-2.09191 -4.6934,-1.94807c-7.25818,0.51362 -18.93124,1.66354 -22.36996,2.17947c-1.97652,0.29654 -8.17505,1.6279 -10.67385,3.51791c-1.24024,0.93808 -0.67473,3.15694 -0.60186,3.57612c2.95441,-0.2695 5.90177,-2.01197 8.64244,-2.87424zM282.07055,242.56439c3.08214,-0.01541 5.46804,-0.20736 8.67147,0.55004c-1.70953,-2.81421 -3.69076,-2.67664 -6.5237,-2.75682c-0.89788,0.93106 -0.85121,1.40616 -2.14776,2.20678zM264.59648,249.5733c-0.65185,0.52026 -4.24955,2.99987 -2.86482,3.7984c3.51233,-0.40219 12.05124,-2.92722 15.45233,-3.44375c6.35644,-0.96537 7.54689,-1.48534 14.23106,-1.44553c1.2377,0.00737 2.59167,-0.26624 3.94911,-0.27265c0.91463,-0.00432 1.87592,0.32836 2.63369,0.13407c-0.57722,-0.80174 -2.01804,-2.6606 -4.18394,-3.2108c-2.19225,-0.55688 -9.61002,-1.26394 -15.97395,-0.36598c-6.22787,0.87875 -11.40729,3.34077 -13.24345,4.80624zM271.64086,239.35072c-3.06378,0.93744 -7.84866,3.26948 -10.86227,5.72289c-1.55276,1.26411 -2.62499,1.90852 -2.77085,3.77698c-0.03842,0.44275 3.22196,-0.61375 3.85163,-0.6179c5.63004,-3.04815 8.84868,-4.14749 14.14162,-5.23472c-1.4192,-0.97018 -2.91235,-2.13727 -4.36014,-3.64725zM217.01134,261.75974c2.68752,-0.25297 18.10872,-0.76603 22.42451,-1.57118c0.77563,-0.29131 1.73242,-0.30473 2.57865,-0.46303c1.84933,-0.6526 3.41933,-1.40178 4.6123,-2.96943c0.61812,-1.5328 1.18864,-2.82048 2.78323,-3.74873c0.20731,-0.12068 0.76479,-0.65021 0.89163,-0.67573c-0.94516,-1.57751 -1.68269,-2.94886 -2.84877,-4.49422c-0.09664,0.34674 -0.35986,0.54605 -0.35986,0.54605l-0.21396,0.14731c-0.97731,1.01968 -1.00292,0.47386 -1.52016,1.07284c-0.60889,0.7051 -1.72006,2.51346 -3.24648,3.25501c-3.79769,1.06886 -10.88619,1.14046 -14.90894,1.52415c-2.71991,0.25943 -8.28283,-0.1066 -10.78894,0.35016c-1.21337,0.22115 0.26448,0.56251 -0.60608,0.97235c-1.88359,0.88678 -4.9136,2.15281 -7.17701,3.58939c0,0 -5.66417,2.03921 -8.33395,2.57999c-4.52754,0.91707 -23.21732,-0.78602 -31.58304,-3.12508c-2.38153,-0.66588 -4.27928,-3.46954 -4.30855,-3.55728c-0.38353,0.48641 -0.78051,0.29286 -1.0353,0.86744c-0.39075,0.88118 -1.07784,1.42805 -1.26771,2.36885c-0.09944,0.49275 1.34835,2.42643 2.46082,3.52444c2.49169,2.45933 4.64416,4.0683 7.04864,4.7681c10.74319,3.06018 25.18215,3.78969 32.8019,-0.55055c2.38569,-1.29973 9.30323,-4.10078 12.59707,-4.41083zM222.27265,218.33611c0.15499,-0.92343 6.99894,4.18067 7.12603,4.40842c3.39811,0.7799 7.76406,4.71322 10.03068,7.29892c0.30221,0.34476 1.60959,2.00854 1.92529,3.03967c4.10624,0.20368 8.87516,1.61018 10.55551,2.15641c-1.57935,-3.36169 0.18901,-5.40267 2.77419,-6.93805c0.65848,-0.71024 2.36998,-1.63443 4.60848,-2.4614c1.83907,-0.67942 5.25545,-1.39764 5.71015,-1.61903c0.75814,-0.36915 2.09322,4.51259 2.50831,5.31857c0.95145,1.84744 6.31099,8.79896 10.10753,11.77772c2.70462,-0.12385 4.41546,-1.99158 5.797,-3.82055c2.2783,-3.01616 3.45394,-6.91749 5.1857,-10.02822c0.84679,-1.52107 2.10246,-2.76088 3.30546,-4.02904c-2.13655,-2.76779 -4.43407,-5.52597 -6.74986,-8.15734c-1.20224,0.65141 -2.26689,1.4916 -3.48756,2.15613l-0.15159,0.08254c-0.19438,0.1933 -0.45511,0.24485 -0.68567,0.24213c-0.22746,0.01905 -0.51271,-0.01412 -0.80297,-0.19516c-4.13899,-1.59276 -8.10928,-4.26198 -12.09562,-6.30342l-0.45918,-0.14172c-2.12116,2.07749 -4.40442,4.93017 -6.9775,8.1378c0,0 -0.18906,-1.33293 0.05001,-2.30042c0.06622,-0.26799 0.0513,-0.77134 0.0675,-0.84386c-0.91038,0.40813 -3.26732,1.27042 -5.24353,1.64202c-7.25582,1.3644 -18.98112,1.51048 -29.70732,-0.40765c-6.47395,-1.15771 -13.86435,-4.46916 -16.38018,-5.87422c-0.1665,0.45724 -0.36253,0.89998 -0.59215,1.32011l-0.49292,0.84897c-0.12404,0.27406 -0.32565,0.38579 -0.53084,0.41762c-0.19764,0.05049 -0.45352,0.0321 -0.76832,-0.15285c-2.53857,-1.26711 -7.95851,-3.39227 -11.39552,-4.22006c-1.5843,-0.38158 -2.92687,-0.18984 -3.05052,-0.04364c-1.08976,1.2885 -1.19885,3.77141 -1.50034,5.44167c-0.26341,2.05348 -0.25537,3.97264 -0.16984,6.10831c0,0 9.30206,-3.00862 12.97601,-2.41442c6.44603,1.04255 13.62626,9.74334 15.88478,12.38306c0.2171,-0.32336 2.6206,-2.60044 3.8478,-4.46158c0.37383,-0.56693 0.71269,-2.31496 0.75336,-2.41221c0.39381,-0.94168 1.0727,-1.45102 1.93682,-1.65292l-0.01852,-0.01512c0,0 -3.96246,-3.85916 -3.89062,-4.28715zM269.02651,236.10868c-2.05824,-3.04671 -3.86547,-7.38732 -4.10126,-8.0711c-0.06215,-0.18023 -0.12679,-0.45977 -0.17581,-0.74915c-0.16066,0.14196 -1.86909,-0.10174 -2.38299,0.08646c-0.95144,0.34845 -2.19585,0.80075 -3.41828,1.18379c-3.48418,1.45686 -7.61629,3.02927 -4.36249,7.59228c0.18368,0.06525 0.36548,0.13034 0.54525,0.19518c0.33358,0.04371 1.16232,0.25068 1.36713,1.23012c0.11291,0.53994 -0.06257,0.84229 -0.29576,1.01158c0.71062,0.99581 1.6777,1.82691 2.46401,2.82697l0.60624,0.68555c0,0 0.15641,0.17769 0.25237,0.4224c2.97948,-2.38565 7.28426,-3.8465 10.61155,-4.89733c-0.37709,-0.47608 -0.74786,-0.98072 -1.10998,-1.51675zM315.37975,249.69344c4.21199,8.72781 -0.23532,13.47223 -6.49042,17.43697c-4.89862,2.90871 -12.84522,5.79352 -18.97207,6.26982l-0.91058,0.21605c0,0 -0.25713,0.05758 -0.58395,-0.00678c-5.93412,1.20162 -11.95912,1.20201 -18.43846,0.27356c-5.55644,-1.15914 -15.62007,-2.26018 -19.15512,-8.29948c-0.79401,-1.35649 -1.16825,-3.03168 -1.39732,-4.67757c-0.12921,-0.50842 -0.24589,-1.02692 -0.35693,-1.55578c-1.08633,1.56635 -1.10107,3.51842 -1.04377,5.22807c0,0 0.00091,0.03647 -0.00504,0.09394c-0.00295,0.05187 -0.00968,0.10788 -0.02246,0.1649c0.41182,2.46885 1.10095,3.92364 2.89186,5.40101c3.91075,3.22611 9.35115,6.55397 13.81505,7.63169c1.16173,0.39585 13.78477,2.6047 25.87685,1.66257c10.28501,-0.80132 19.30443,-4.94041 23.09261,-6.62347c2.53574,-1.07341 9.14867,-7.08258 9.56326,-8.68962c0.33385,-1.29412 -0.15027,-2.29916 -0.44053,-3.6872c-0.62655,-2.99624 -1.25311,-5.99249 -1.87967,-8.98873c-2.0174,-0.91434 -4.03147,-1.82721 -6.04836,-2.74177c0.18751,0.29329 0.35933,0.58985 0.50505,0.89179zM278.47035,195.06693c0.02102,-0.47829 1.0873,0.10288 1.0873,0.10288l0.62594,0.16015c0.01235,0.00778 0.02469,0.01558 0.03703,0.02337c-0.80081,-2.89619 -5.23316,-8.49443 -7.46506,-12.78824c-1.46459,-2.81764 -1.48801,-5.07063 -1.48866,-5.64515c-0.00289,-2.51765 1.20118,-5.58426 1.45718,-7.97659c0.10266,-0.95927 -1.49489,-4.45255 -2.61251,-5.04048c-2.37434,-1.24901 -4.07008,-0.47396 -6.41655,-0.49126c-2.37539,0.21247 -3.71753,1.55683 -5.21563,3.03201c-2.76051,2.71824 -5.90992,5.87383 -9.38991,7.79542c-0.12241,0.43023 -0.54238,0.62264 -0.54238,0.62264c-3.02431,1.37892 -8.45037,2.50232 -13.16853,2.06393c-4.52467,-0.4204 -8.40901,-2.37622 -8.40901,-2.37622c-0.16474,0.31192 -1.95677,2.33915 -2.32169,2.55245c-0.24872,0.14539 2.65987,6.09576 3.50459,8.16695c0.44198,1.0837 0.06621,1.48334 0.06621,1.48334c-3.57766,2.30424 -8.36045,3.64909 -11.92188,6.03507c-3.32318,2.22638 -11.0967,6.83583 -11.78189,9.58039c-0.18946,0.75886 2.78084,4.56849 7.33774,7.3112c4.44762,2.67696 10.2093,4.53039 16.1512,5.523c8.15854,1.36292 16.64228,1.55277 22.97942,0.82675c3.0081,-0.34462 5.52931,-1.37317 7.30845,-1.69335c1.59218,-0.28654 3.47944,-0.60722 3.47944,-0.60722c-0.8167,-3.62807 -2.89052,-7.91691 -2.84491,-11.59012c0.01437,-1.15758 -0.45358,-4.09222 -0.47682,-5.9253c-0.03527,-2.77931 0.3634,-4.40935 0.3634,-4.40935c-6.61248,-6.98254 -5.37258,-7.90384 -5.37258,-7.90384c4.07514,4.64945 11.43975,10.96232 17.0097,12.44314c2.15773,0.57364 4.5784,0.48334 6.64286,0.39138c0.85812,-0.03823 1.53885,-0.34386 2.1926,-0.71324c-0.132,-0.08842 -0.8262,-0.70049 -0.81506,-0.9537zM268.48208,209.01668c3.86051,1.96525 7.71052,4.57699 11.70607,6.15322c1.05584,-0.58485 1.99576,-1.26608 3.00922,-1.86724c-0.06334,-0.23582 -0.05555,-0.4134 -0.05555,-0.4134l0.05997,-0.48965c-0.07793,-0.37264 -0.15585,-0.74529 -0.23378,-1.11793c-0.03711,-0.02007 -0.07352,-0.04158 -0.10911,-0.06446l-1.39921,-0.8194c-3.68583,-3.63659 -4.88483,-6.66031 -5.24992,-11.12373c-1.93275,0.05603 -3.566,-0.26243 -5.44684,-0.78322c-2.88587,-0.79907 -4.70629,-2.24695 -9.9341,-4.92618c-0.6417,2.93451 1.71338,14.99501 2.58372,17.91177c0.73334,-0.89778 1.52798,-1.7506 2.38492,-2.56757c0.15673,-0.26551 0.41124,-0.36658 0.6521,-0.39505c0.23087,-0.05496 0.52671,-0.05102 0.85713,0.12915zM253.30891,167.14736c-2.80311,-0.70184 -5.46235,-0.67216 -8.20804,-0.68851c-5.89602,-0.03511 -15.88135,3.13867 -17.25981,6.866c4.24633,2.06489 12.6709,2.58311 18.12802,0.52054c4.56612,-1.72579 6.5188,-5.85318 7.33982,-6.69803z" fill="#000000" stroke="none" stroke-linecap="butt"/></g><g><g><path d="M321.76329,170.70882c-0.40585,0.47233 -0.85309,0.39778 -1.13278,0.27431c-0.61642,2.49213 -3.20936,3.8443 -5.46414,5.1364c-1.55528,0.89125 -3.43833,0.95796 -5.0036,0.48736c-4.06827,-1.22312 -7.17263,-2.77351 -10.80967,-4.89747c-2.02399,-1.84407 -7.47923,-4.01493 -7.4932,-7.11676c-0.01357,-3.01219 3.67395,-2.48716 5.50916,-2.26539c6.52617,0.78868 12.52035,1.84699 18.67761,4.2642c1.70186,0.66889 3.33047,1.21604 4.91393,2.13124l0.69595,0.57594c0,0 0.75846,0.65171 0.10675,1.41017z" fill="#0f1b82" stroke="none" stroke-width="0.5" stroke-linecap="butt"/><path d="M292.90119,161.13926c0.23531,-0.7407 1.0647,-0.63915 1.0647,-0.63915l1.38962,0.17015c2.71956,0.33299 5.40373,0.86522 8.11491,1.1951c5.29473,0.64829 14.00076,0.42631 17.80993,4.63109c1.9462,2.14833 -0.24633,6.05262 -2.50004,7.02663c-0.86375,0.3733 -3.08783,-0.35975 -3.94846,-0.61143c-8.02931,-2.69905 -15.29049,-4.79813 -22.07235,-10.08341c0,0 -0.78861,-0.6149 -0.17371,-1.40351c0.10183,-0.1306 0.20841,-0.22269 0.31539,-0.28547z" fill="#0066cc" stroke="none" stroke-width="0.5" stroke-linecap="butt"/><path d="M291.97243,152.97703c0.03329,-0.13436 0.11619,-0.27455 0.28244,-0.40452c0.59085,-0.46194 1.0528,0.1289 1.0528,0.1289l0.66017,0.90688c0.17346,3.38358 -0.84865,5.55065 -2.2533,8.47739c-0.98898,2.06064 -1.25867,4.71772 -2.09263,6.88773c-0.85716,2.009 -3.47908,5.96072 -5.8815,5.75788c-2.34868,-0.1983 -4.10027,-3.13236 -4.96866,-4.60668c-0.76819,-1.30421 -3.90513,-0.16286 -4.51818,-2.59335c-0.10906,-0.43238 0.08166,-0.8881 0.12249,-1.33214c1.76837,-4.95226 7.09423,-6.2887 10.92041,-9.08321c2.14315,-1.56529 4.32505,-2.87931 6.67597,-4.13887z" fill="#fddfbd" stroke="none" stroke-width="0.5" stroke-linecap="butt"/><path d="M284.74719,165.07925l0.19218,0.09808c-0.07097,0.15019 -0.15193,0.30768 -0.23994,0.47102c-0.18842,1.16908 -0.90996,2.22926 -1.74424,3.35631c-0.50377,1.44844 -0.28968,2.698 2.16544,3.00016c0.56498,0.06955 1.13938,0.04569 1.70806,0.00371c0.12647,-0.0398 0.27953,-0.0435 0.45993,0.02478c0.13467,0.03943 0.28583,0.11887 0.38793,0.27755c0.11132,0.15234 0.13105,0.32196 0.1194,0.46181c-0.00124,0.2023 -0.06558,0.34807 -0.15462,0.45298l-0.1648,0.32406c-2.13479,2.85963 -5.78848,9.62475 -9.95993,5.15395c-0.0469,-0.05027 -1.68684,-2.28026 -1.71716,-2.32144c-0.87778,-0.94243 -2.63055,-2.28758 -2.94148,-3.59815c-1.38798,-5.85037 6.88123,-9.39743 11.30087,-10.30323c0,0 0.73506,-0.14894 0.884,0.58612c0.05428,0.26785 -0.00884,0.45788 -0.11099,0.59123c0.08736,0.11995 0.1395,0.26588 0.14349,0.42125l0.03238,0.74731l-0.11627,0.00505l-0.02785,0.22746l-0.2164,-0.0265c0.0001,0.01552 0.0001,0.03102 0.00001,0.04649z" fill="#f89587" stroke="none" stroke-width="0.5" stroke-linecap="butt"/><path d="M279.49537,110.80815c2.56249,4.95421 1.41174,13.03118 -0.22776,18.22159c-1.62682,5.15024 -9.77665,12.74078 -12.00806,15.59082c-3.62063,4.62441 -4.31195,6.57944 -8.47109,9.34492c-4.69525,3.12195 -14.03172,-1.47392 -19.06748,-2.01c-3.5286,-0.37564 -7.37357,-0.72455 -10.90251,-1.097c-7.59973,-0.8021 -15.8632,-1.72881 -23.45219,-2.61707c-0.06866,-0.00804 -4.19249,-0.23569 -7.35619,-0.91158c-0.1513,-0.02963 -0.30099,-0.06321 -0.44895,-0.10058c-3.0942,-0.78148 -5.43812,-3.2258 -6.16938,-6.22994c-2.25183,-5.95969 -0.55378,-14.87669 -0.53433,-20.18889c0.01121,-3.0664 0.21883,-6.05794 0.29838,-9.10211c0.10875,-4.16121 -0.71051,-6.42258 0.5564,-10.71529c0.85735,-2.90495 0.80492,-11.16603 2.91058,-12.04962l0.94338,-0.39586c5.48287,-4.8769 17.70219,-5.21795 23.40809,-5.84698c4.80606,-0.52983 10.82256,0.65634 15.25659,1.08235c1.71211,0.1645 3.24856,-0.5719 4.94307,-0.15037c2.14534,0.53368 4.41451,2.2447 6.53334,2.56302c10.95409,1.64571 23.50898,4.91389 32.27533,11.74924l1.08882,1.39265c1.14622,1.46607 1.81397,3.30622 1.80445,5.26611c0.026,0.37298 0.00424,0.71941 -0.0697,1.04967c-0.2071,1.61766 -0.85686,3.07158 -1.81251,4.2548c0.17641,0.29468 0.34377,0.59468 0.50177,0.90012z" fill="#ff2d32" stroke="none" stroke-width="0.5" stroke-linecap="butt"/><path d="M277.64745,99.05793c0.41445,-0.62508 1.03954,-0.21063 1.03954,-0.21063l0.47786,0.33136c0.61336,0.59135 1.16302,1.24826 1.6881,1.9192c1.47663,2.38858 0.94834,3.18594 2.55656,5.33503c1.30048,1.73786 3.75528,6.03117 4.02951,8.07743c0.45316,3.38146 1.10867,6.26059 2.23575,9.44228c0.43899,2.16658 1.27169,4.14474 1.28331,6.39877c0.0068,1.31869 -0.28268,2.75913 0.06395,4.06542c0.5839,2.20044 1.95474,4.1192 2.45018,6.35779c0.53889,2.43484 -0.10965,5.04498 -0.8764,7.36386c-1.63238,4.25196 -4.41864,6.6272 -8.00216,9.27578c-1.79725,1.32834 -3.88479,3.30684 -6.2411,3.45952c-1.28454,0.08324 -2.82519,-0.33229 -4.11277,-0.48994c-1.96111,-0.26374 -3.37989,-1.61797 -5.2801,-2.06262c-3.12452,-0.73113 -4.8948,-2.23923 -7.59971,-3.80788c-2.76859,-1.6056 -5.78401,-2.72149 -8.61362,-4.20847c-2.33842,-1.75151 -1.44466,-3.47068 -0.65223,-6.01699c1.20761,-3.88045 3.34051,-7.63605 3.8363,-11.68517c0,0 0.00434,-0.03538 0.01882,-0.08975c0.01274,-0.0548 0.02552,-0.08807 0.02552,-0.08807l0.28556,-0.74162c0.99052,-3.32001 2.8065,-6.57114 4.02881,-9.81156c0.00017,-0.00045 0.00025,-0.00068 0.00025,-0.00068v-0.00001l0.30659,-0.79643c2.69537,-5.67244 4.42076,-11.17414 7.81865,-16.49738c0.00655,-0.13367 0.05578,-0.24976 0.11284,-0.34121c0.0514,-0.1009 0.13057,-0.20843 0.25133,-0.28371c1.37005,-3.64499 5.1729,-5.07256 8.85893,-4.87945c0.00317,-0.00493 0.00638,-0.00989 0.00967,-0.01485z" fill="#ab164a" stroke="none" stroke-width="0.5" stroke-linecap="butt"/><path d="M191.05617,144.08578c0,0 -0.30512,-20.31698 0.75372,-36.84452c0.6439,-10.05052 0.95814,-18.80187 4.56017,-20.43615c20.1949,-9.16269 45.45669,-1.55933 57.95861,1.29217c7.48841,1.708 20.93,6.28597 24.789,11.87358c7.54495,10.92463 10.18197,22.84679 11.96582,31.47883c1.59904,7.73774 2.71549,12.79066 2.71549,12.79066l-4.1931,9.56127l-13.30195,8.52993c0,0 -32.3076,-18.14117 -47.66038,-20.75513c-24.4039,-4.15501 -37.58738,2.50938 -37.58738,2.50938z" fill="none" stroke="#000000" stroke-width="3" stroke-linecap="round"/><path d="M251.1233,149.42556c0,0 5.84149,-26.21034 18.22768,-46.51471c2.31276,-3.79126 7.81722,-3.69211 7.81722,-3.69211" fill="none" stroke="#000000" stroke-width="1.5" stroke-linecap="round"/><path d="M193.62999,149.91112c3.32234,-4.82061 7.90823,-5.27978 13.53939,-5.97675c2.46931,-0.30562 5.04876,-0.8683 7.53484,-0.92692c7.00502,-0.1652 14.74622,2.62035 21.02995,5.43076c9.07397,4.74028 19.37478,8.30881 25.99169,16.41091c1.11808,1.39924 1.24959,2.03065 1.67716,3.74107c2.55841,10.2345 -10.51058,9.11982 -16.92907,10.98674c-6.10106,1.61467 -13.30667,2.50794 -19.65634,2.28317c-2.55277,-0.09037 2.34768,-0.5269 -0.20901,-0.42028c-8.49785,0.02096 -25.00952,-1.44727 -32.99558,-4.26747c-4.60966,-1.63133 -9.74972,-3.81573 -13.38012,-7.17434c-3.17424,-2.93658 -2.51362,-6.41644 0.69825,-8.84486c2.95503,-0.7893 5.83412,-1.78538 8.89778,-2.11083c0.71339,-0.07578 3.22973,0.1021 3.87029,-0.49763c0.37038,-0.3468 -0.07125,-1.01232 -0.10122,-1.51882c-0.1288,-2.17702 -0.81486,-4.20236 -1.03095,-6.34484c0,0 -0.07252,-0.74649 0.67398,-0.819c0.15793,-0.01534 0.2857,0.00598 0.38899,0.04913z" fill="#fddfbd" stroke="none" stroke-width="0.5" stroke-linecap="butt"/><path d="M191.06495,144.28834c0,0 25.48826,-5.41307 38.4478,-2.6283c15.06036,3.23618 46.56229,20.89535 46.56229,20.89535l-2.73056,9.13587l-2.30523,0.72521l-10.2621,3.17635l-2.44708,-6.34443l-10.02709,7.83948c0,0 -6.61643,-19.60803 -8.57035,-20.27712c-1.95835,-0.67061 -17.88116,7.56815 -17.88116,7.56815l0.30373,-17.29127l-29.10501,7.31699z" fill="#f89587" stroke="#f89587" stroke-width="0.5" stroke-linecap="round"/><path d="M284.15222,163.89391c-1.94939,0.59809 -4.09932,1.31582 -6.04733,2.01879c0.27488,1.81516 1.35544,4.35908 2.16372,6.18947c1.37094,-2.62845 3.22492,-5.35567 3.88361,-8.20825zM275.45418,166.94007c-0.83501,2.3658 -1.43246,5.14092 -1.43246,5.14092c1.05488,1.03231 5.86867,7.3527 7.01099,7.1813c2.33326,-0.35011 4.58271,-5.61269 5.68998,-7.29404c0.8147,-1.23707 1.49503,-2.45018 2.07587,-3.65986c1.97151,-4.106 2.79676,-8.17271 3.83925,-13.00467c0.10705,-0.47322 0.75056,-1.59594 0.2965,-1.425c-2.64355,0.99519 -4.86307,2.73925 -7.23842,4.25549c-2.76823,1.76702 -6.77273,3.3892 -8.89378,6.00778c-0.26217,0.32367 -0.51988,0.78733 -0.7663,1.33025c0.73114,-0.04048 1.43015,-0.83547 2.21832,-1.13331c1.47957,-0.55911 2.08404,-1.27846 3.38061,-1.75489c0.24851,-0.09132 4.14259,-1.76031 4.23219,-0.07658c0.13568,2.54946 -3.71902,9.08596 -4.68944,11.13019l-0.32481,0.40766c-0.05786,0.12069 -0.16176,0.23663 -0.33896,0.32537c-0.11885,0.06884 -0.27857,0.12494 -0.46059,0.09427c-0.18314,-0.02289 -0.32005,-0.1225 -0.41412,-0.22256c-0.13423,-0.12644 -0.20089,-0.25721 -0.22624,-0.3813c-0.95229,-2.15464 -2.1091,-4.75696 -2.52622,-7.07022c-0.47458,0.09751 -0.95176,0.15218 -1.43239,0.14918zM295.55663,159.07582c6.48098,0.79354 14.0204,1.13947 20.17037,3.36692c2.32694,0.84279 5.52763,2.27561 6.33701,4.86427c0.75123,2.40269 -0.04194,5.1864 -1.27693,7.03259c-1.13167,1.02777 -2.19383,4.50532 -3.67415,4.7942c-2.62079,0.51143 -7.92651,-0.80486 -10.07165,-1.96659c-4.85035,-2.62682 -11.33139,-6.11758 -15.20361,-10.03626c-1.05341,2.99372 -1.81434,4.05549 -3.4431,6.73062c-1.42515,2.34072 -4.07959,7.43652 -7.16819,7.91032c-2.16319,0.33184 -5.60901,-3.66369 -5.60901,-3.66369c-1.91235,-1.44969 -3.36127,-2.8746 -5.005,-4.49072l-0.37347,0.14997c-3.83606,0.85684 -7.7925,2.86273 -11.48515,4.29953c-7.52514,2.003 -15.71908,3.55819 -23.48083,4.03843c-3.79283,0.23468 -7.61945,-0.00991 -11.39752,0.3996c-0.31156,0.34082 -17.83549,-1.56863 -29.71422,-4.38225c-4.5172,-1.06995 -10.16742,-3.94564 -10.88518,-4.42137c0,0 -0.02876,-0.01907 -0.07466,-0.05579c-0.04782,-0.03418 -0.07399,-0.05668 -0.07399,-0.05668l-0.20256,-0.19794c-1.62323,-1.00562 -3.10628,-2.02061 -4.55494,-3.26306c0,0 -0.02229,-0.01915 -0.05793,-0.0552c-0.0376,-0.03401 -0.05771,-0.05543 -0.05771,-0.05543c0,0 -3.63297,-3.09702 -1.00152,-6.53435c0.7047,-0.92053 1.54882,-1.86546 2.68315,-2.49115c4.35604,-2.40278 11.34715,-2.7754 12.07702,-2.80998c-0.80232,-4.62952 -2.07688,-9.13218 -2.35336,-13.85281c0,0 -0.08698,-1.49748 1.41049,-1.58445c1.49748,-0.08698 1.58446,1.4105 1.58446,1.4105c0.29682,5.15593 1.83595,10.06067 2.577,15.15634l-0.00497,0.20898c0.00409,0.06567 0.0049,0.13452 0.0021,0.20671c-0.02148,0.55492 -0.24045,0.89643 -0.50774,1.10651c-0.23815,0.21929 -0.58698,0.37627 -1.09572,0.33247c-0.87558,-0.03411 -11.46585,0.79406 -13.38996,2.5255c-2.93099,2.63749 2.80807,6.63545 3.61794,7.08716c4.38631,2.44643 11.91061,5.36909 14.19518,5.83238c12.26163,2.48653 33.13321,3.07097 36.99852,2.83092c7.51621,-0.46676 15.48281,-2.30985 22.77638,-4.22707c3.789,-1.48359 7.80545,-3.43783 11.74073,-4.37058l0.6116,-0.27423c0.38641,-0.26441 0.76241,-0.27765 1.07252,-0.2003c0.00533,0.00071 0.01069,0.00145 0.01604,0.00223c0.92698,-2.56601 1.46779,-5.93716 3.17292,-8.07563c2.74151,-3.43827 7.88876,-5.60612 11.52622,-7.90456c2.46045,-1.55471 8.12488,-7.23106 9.96682,-2.40734c0.31999,0.838 -0.26898,2.9237 -0.33403,3.81836c-0.22832,1.05825 -0.44044,2.12662 -0.65388,3.1977zM308.06113,174.08814c1.58839,0.85949 3.87565,2.53913 5.83968,2.27005c0.86859,-0.11899 3.04988,-2.28747 3.74849,-2.9324c0.79474,-1.21441 2.44494,-3.93868 1.98723,-5.5209c-0.58853,-2.03441 -4.88786,-3.20182 -6.57931,-3.59941c-5.7929,-1.36169 -11.89582,-2.02472 -17.80444,-2.74817l-0.81023,-0.09921c-0.25324,1.20171 -0.52502,2.39971 -0.84005,3.58353c3.60986,4.48547 9.5098,6.36867 14.45863,9.04651z" fill="#000000" stroke="none" stroke-width="0.5" stroke-linecap="butt"/></g><g stroke-width="0.5"><path d="M223.75547,125.98831c-0.60539,5.81685 -7.26477,3.89714 -11.13601,3.51376c-0.92614,-0.09172 -0.14554,1.99451 -0.77134,2.68337c-0.771,0.84872 -1.71529,1.56534 -2.74018,2.07952c-1.89467,0.95055 -5.57614,-1.36212 -6.9846,-0.9093c-2.15297,0.69217 -3.62989,2.70072 -5.38517,4.12668c-3.15651,2.5643 -6.12306,5.36231 -9.34691,7.84141c-0.5451,0.41917 -2.90824,1.44046 -3.82122,1.13239c-2.5548,-0.8621 -17.91933,12.03097 -17.24257,9.17243c0.07337,-0.30987 1.37068,-3.02536 4.72928,-7.81956c3.97303,-5.6713 10.0992,-13.53634 10.03946,-13.54389c-2.16669,-0.27384 -8.23437,-1.16155 -12.60312,-1.47843c-4.15836,-0.30161 -6.67923,0.03963 -6.62674,-2.93439c0.00675,-0.38224 7.54622,-8.08734 8.10874,-8.60583c5.17922,-4.77397 10.88302,-11.20745 16.53288,-15.38744c1.19606,-0.8849 6.86243,-5.49458 8.7431,-4.11451c0.01309,0.0015 0.0262,0.00306 0.03931,0.00466c1.14827,0.1406 2.15771,0.66001 2.91845,1.41769c0.54628,0.30299 1.01455,0.58514 1.33256,0.76493c5.14825,2.91045 9.96098,5.57633 14.81363,8.97298c0.9944,0.69604 3.42645,3.29074 3.56182,3.3188c0.82323,0.17063 0.26158,-5.52042 3.62202,-10.28773c1.48693,-2.10944 8.20542,-6.08419 8.55281,-5.80694c1.27182,1.01504 -6.25278,20.24164 -6.42126,21.61765c-0.06912,0.56453 -0.22981,1.09549 -0.46534,1.57985c0.40684,0.89026 0.63253,1.87334 0.55046,2.66195z" fill="#66ffff" stroke="none" stroke-linecap="butt"/><path d="M231.19364,104.73474l3.54509,18.76998l6.30409,20.92124l-13.00485,7.47487l-0.07705,-10.89009l-6.624,-0.20658l-21.1522,3.2534l-9.59363,2.65372l0.42947,3.07499l-7.31677,0.51458l-7.70974,2.07841l-6.13355,1.60078c0,0 15.11705,-12.399 21.03362,-16.98467c3.01614,-2.33767 12.77389,-9.40217 12.77389,-9.40217c0,0 -7.69478,0.42219 -11.18593,0.52098c-5.54753,0.15697 -19.58323,1.05118 -19.58323,1.05118c0,0 19.04347,-14.63959 22.23962,-15.07863c2.29149,-0.31477 26.8387,14.13633 26.8387,14.13633c0,0 -0.61956,-3.73157 1.16991,-9.042c1.28282,-3.80692 8.56229,-19.83928 8.56229,-19.83928z" fill="#50a5eb" stroke="#50a5eb" stroke-linecap="round"/><path d="M217.4339,111.91167c0,0 0.05551,-0.20555 0.21015,-0.40135c0.42941,-1.17051 1.05261,-2.59088 1.93263,-3.99599c0.50812,-0.8113 2.16189,-2.5664 2.67457,-3.15642c4.27032,-4.91457 10.3107,-9.05972 10.42872,-7.03148c0.89205,15.33053 6.64704,40.05755 9.94623,46.67698c0.11808,0.14056 0.20311,0.33431 0.20075,0.60061c0.01511,0.18893 -0.01442,0.41482 -0.1687,0.6179c-0.1391,0.21378 -0.34175,0.31783 -0.52469,0.36739c-0.13758,0.05072 -0.26341,0.06908 -0.37744,0.06471c-4.92924,2.82281 -9.48453,5.22075 -13.90552,8.9234c-0.12525,0.16099 -0.3165,0.30246 -0.60685,0.33227c-0.18855,0.04053 -0.41298,0.03297 -0.63825,-0.10404c-0.23821,-0.11303 -0.36776,-0.29646 -0.4374,-0.4763c-0.13675,-0.26335 -0.12081,-0.50447 -0.05219,-0.69923l0.06248,-0.47496c-0.00576,-3.63354 -0.35347,-7.14992 -0.5448,-10.75452l-0.40497,-0.04959c-3.70265,-0.46433 -8.20071,0.61576 -11.97983,0.77886c-3.90975,0.48709 -7.64092,1.53229 -11.53781,2.10079c-2.86667,0.41821 -6.28627,0.80307 -8.88004,2.17752c-0.79212,0.41974 -0.22474,2.20038 0.01197,2.96778c0.08136,0.15024 0.12597,0.34464 0.09853,0.59573c-0.01147,0.17785 -0.06464,0.39205 -0.22387,0.5696c-0.15418,0.18196 -0.35913,0.26385 -0.53375,0.29947c-0.22878,0.05737 -0.41716,0.04577 -0.57133,-0.00497l-0.77999,-0.0955c-3.6939,-0.51003 -9.3821,0.28739 -12.93268,1.21829c-2.78731,0.73079 -6.26643,2.35687 -9.91297,3.52201c-2.54727,0.8139 -4.80098,2.89848 -4.80969,1.67776c-0.03123,-4.37897 6.2979,-11.71165 8.32316,-14.32933c1.11626,-1.4428 5.99319,-6.88843 7.38341,-8.31604c-5.15506,-2.15473 -10.49353,-1.86164 -16.61267,-1.71234c-1.4734,0.03595 -2.88536,0.00988 -4.19283,-0.14026c-0.07331,0.00747 0.9278,-2.22059 5.87063,-7.78479c6.55818,-7.38261 18.22682,-19.11105 25.65992,-24.35753c1.60946,-1.13599 3.27203,-2.30981 5.02104,-2.11106c5.30139,0.60244 11.19884,6.16679 11.98935,6.71616c3.52744,2.4514 6.7554,4.21606 9.70079,7.52902c0.17647,0.15677 0.35042,0.31644 0.52162,0.47923c0.0572,-0.21373 0.18778,-0.7536 0.42075,-1.4976c0.05031,-0.24002 0.10685,-0.48045 0.17152,-0.72222zM218.86816,115.39609l-0.05208,0.4254c0,0 -0.02591,0.21159 -0.1515,0.42742l0.15439,0.72432c0,0 -0.12154,0.99259 -1.11413,0.87105c-0.60753,-0.07438 -0.79767,-0.47509 -0.85379,-0.77479c-1.8485,-2.26275 -16.12618,-13.23064 -22.42564,-14.7679c-1.21386,-0.29622 -9.31276,5.63335 -15.59317,11.62198c-7.51078,7.16182 -13.45654,14.7766 -16.00239,16.94028c4.24494,0.26304 8.42478,0.46394 12.57655,0.94834c2.32754,0.27156 4.69388,0.2433 6.94217,1.31036l0.42483,0.27298c0.10747,0.05072 0.21736,0.12802 0.32687,0.23999c0.20326,0.20786 0.287,0.41436 0.30353,0.60275c0.01909,0.18814 -0.02441,0.40671 -0.18506,0.64901c-0.08221,0.12399 -0.17064,0.21732 -0.26161,0.28633c-5.8982,5.76006 -10.40156,12.59554 -15.22566,19.2085c7.17335,-2.56129 14.97982,-5.84671 22.38904,-5.16641c-0.28205,-1.40996 -0.37465,-2.54216 0.9114,-3.45254c1.92885,-1.36542 5.39941,-1.83183 7.6348,-2.35718c4.68903,-1.10201 9.636,-1.68117 14.41583,-2.26916c1.96372,-0.08542 14.28043,-2.66454 15.17937,-1.05084c0.13081,0.23481 0.72496,2.69636 0.70173,4.29557c-0.04464,3.07414 -0.21479,5.89724 -0.18626,7.0304c3.91814,-3.00949 6.7866,-4.91569 11.1036,-7.38312c-2.42363,-5.08736 -5.57485,-16.48709 -7.58794,-26.70001c-1.50346,-7.6275 -2.27868,-14.83616 -2.14695,-16.94428c-5.82815,3.9763 -8.86558,8.2142 -11.04888,13.29857c-0.09315,0.56367 -0.15767,1.13003 -0.22905,1.71295z" fill="#000000" stroke="none" stroke-linecap="butt"/><path d="M244.42441,146.47899c0.12605,0.00215 0.22441,0.04689 0.22441,0.04689l0.65859,0.30013c3.61085,1.26045 6.62711,3.44337 10.00601,5.04831c5.31516,3.35985 12.14688,4.58842 17.22635,8.22212c4.00957,2.86963 0.53168,8.07327 -0.4402,11.91461c-0.43105,1.70369 -0.31124,3.93687 -2.59585,3.66942c-1.57365,-2.69276 -3.61191,-5.06218 -5.64221,-7.41229c-2.04771,-2.37025 -3.28656,-4.73309 -5.96682,-6.51018c-1.93415,-1.77872 -3.57082,3.54326 -5.28453,4.20229c-3.27177,1.25819 -4.22471,-3.70165 -4.78774,-5.86298c-1.38704,-5.34492 -5.0317,-8.68237 -4.32659,-14.44106c0,0 0.06077,-0.49629 0.55706,-0.43552c0.49629,0.06077 0.43552,0.55706 0.43552,0.55706c-0.0291,0.23766 -0.05026,0.4713 -0.06399,0.70123z" fill="#50a5eb" stroke="none" stroke-linecap="butt"/><path d="M244.77405,150.85009c0,0 5.17707,2.8697 6.43119,3.56627c0.65425,0.36338 -0.84019,10.0139 -0.84019,10.0139z" fill="#66ffff" stroke="#66ffff" stroke-linecap="round"/><path d="M243.53329,145.39589c0.97322,0.34484 1.94913,0.68207 2.92597,1.0165c5.63818,2.24896 11.13894,4.70574 16.62518,7.31598c3.6766,1.74925 12.24066,6.04461 12.40032,6.26244c0.17288,0.20749 0.28809,0.50707 0.23533,0.93797l-0.01736,0.1418c-0.7132,5.82476 -2.3666,11.54429 -4.95892,16.80087c-0.11321,0.37158 -0.34458,0.57682 -0.58341,0.68912c-0.27544,0.16825 -0.66079,0.25064 -1.15664,0.00428c-0.24121,-0.11983 -0.4046,-0.26582 -0.51255,-0.42113l-0.15678,-0.09276c-3.10359,-5.39967 -6.98502,-11.25758 -11.08122,-16.05934c-2.05168,2.06138 -4.12269,4.12708 -5.98037,6.3649c-0.07736,0.12187 -0.18603,0.24297 -0.33466,0.35917c-0.28433,0.22229 -0.55075,0.29831 -0.7859,0.29399c-0.23518,-0.00156 -0.49962,-0.08421 -0.77831,-0.31354c-0.16991,-0.13981 -0.28528,-0.28494 -0.36007,-0.42915l-0.3516,-0.48477c-3.31257,-7.13572 -5.74151,-15.00662 -8.39391,-22.43278c0,0 -0.419,-1.17769 0.75868,-1.59668c1.17769,-0.41899 1.59668,0.75869 1.59668,0.75869c0.07077,0.19979 0.1414,0.39997 0.21191,0.60049c0.24638,0.01555 0.4443,0.11269 0.59825,0.23422zM245.59168,148.75702c-0.23028,-0.07873 -0.46052,-0.15765 -0.69065,-0.2368c2.11543,5.44714 4.0107,10.99437 5.96602,16.49259c1.51386,-1.67595 3.11488,-3.27778 4.70627,-4.8773l1.04507,-0.82901c0.32984,-0.27808 0.64486,-0.34039 0.91372,-0.30543c0.26956,0.01501 0.56639,0.13326 0.83854,0.46404c3.98724,4.541 7.82684,10.10309 11.00671,15.42196c1.83195,-4.16571 3.06705,-8.59354 3.70965,-13.10632c-3.93191,-0.98943 -21.92949,-10.80849 -27.49533,-13.0237z" fill="#000000" stroke="none" stroke-linecap="butt"/></g><g fill="none" stroke="none" stroke-width="1" stroke-linecap="butt" font-family="sans-serif" font-weight="normal" font-size="12" text-anchor="start"/></g><g fill="none" stroke="none" stroke-width="1" stroke-linecap="butt" font-family="sans-serif" font-weight="normal" font-size="12" text-anchor="start"/><g><g><path d="M147.89227,212.71836c1.34991,-0.02212 3.08871,-0.46521 4.25883,0.40526c3.15244,2.3451 4.75826,7.28862 6.40524,10.68206c0.53017,1.09239 1.32734,2.23087 1.23227,3.44141c-0.16751,2.13327 -2.63198,1.77779 -3.85429,2.21839c-2.34948,0.84693 -4.22636,2.92929 -6.7251,3.68283c-1.35497,0.40863 -3.28364,-0.56625 -4.52615,-0.95315c-1.48937,-0.18158 -6.4083,-1.28927 -6.97539,-3.09524c-0.45678,-1.4546 0.04543,-4.31824 0.01993,-5.87497c-0.0188,-1.14758 -0.63878,-2.38665 -0.21348,-3.45265c0.34088,-0.85436 1.35264,-1.26523 1.98817,-1.93024c1.83613,-1.92129 4.72438,-3.73794 7.23391,-5.10414z" data-paper-data="{&quot;noHover&quot;:false,&quot;origItem&quot;:[&quot;Path&quot;,{&quot;applyMatrix&quot;:true,&quot;segments&quot;:[[[149.94202,212.32093],[0,0],[-2.35446,1.23222]],[[143.17243,216.93298],[1.73675,-1.75867],[-0.60112,0.60871]],[[141.29885,218.68699],[0.33,-0.78929],[-0.41175,0.98483]],[[141.44689,221.88588],[0,-1.06744],[0,1.44805]],[[141.33271,227.32542],[-0.4026,-1.35962],[0.49986,1.68806]],[[147.74833,230.28825],[-1.38224,-0.19154],[1.14955,0.3787]],[[151.92038,231.23942],[-1.26624,0.35934],[2.33511,-0.66266]],[[158.1958,227.93329],[-2.19773,0.75176],[1.14337,-0.3911]],[[161.80428,225.94417],[-0.18828,1.98122],[0.10684,-1.12425]],[[160.70743,222.73868],[0.47638,1.02392],[-1.47986,-3.18076]],[[154.94562,212.75942],[2.89578,2.22881],[-1.07486,-0.8273]],[[151.01184,212.32093],[1.25564,0],[0,0]]],&quot;closed&quot;:true}]}" fill="#465e85" stroke="none" stroke-width="0.5" stroke-linecap="butt"/><path d="M147.77986,213.72571c-2.33396,1.27064 -4.98541,2.93546 -6.69313,4.72235c-0.59107,0.61848 -1.52758,0.98988 -1.84461,1.78445c-0.39555,0.99143 0.18297,2.12874 0.20043,3.19605c0.02372,1.44785 -0.44986,4.08784 -0.02504,5.44066c0.52746,1.67965 5.07811,2.68844 6.46331,2.85731c1.15562,0.35981 2.9269,1.26273 4.18706,0.88269c2.32394,-0.70085 4.03529,-2.62083 6.22042,-3.40852c1.1368,-0.40978 3.41961,-0.06396 3.57539,-2.048c0.08839,-1.12584 -0.65613,-2.17109 -1.1492,-3.18708c-1.53178,-3.15607 -2.99265,-7.70245 -5.92455,-9.88351c-1.08827,-0.80957 -2.68495,-0.39455 -3.94045,-0.37396zM149.43275,210.69102c1.82765,-0.06642 3.39601,-0.21161 5.07123,0.929c3.4381,2.34084 5.21428,7.49005 6.92882,11.07643c0.73932,1.54642 1.59827,3.24949 1.38989,4.95086c-0.39737,3.24423 -3.13618,3.56005 -5.4615,4.35505c-2.32159,0.79373 -4.10955,2.87675 -6.65677,3.53861c-1.85556,0.48215 -3.7416,-0.3329 -5.46487,-0.88377c-2.5683,-0.33423 -7.45784,-1.84347 -8.57444,-4.59464c-0.63837,-1.57285 -0.19343,-4.83551 -0.2221,-6.58482c-0.01174,-0.71625 -0.10324,-4.05291 0.07434,-4.50027c0.24951,-0.62866 1.01261,-0.90026 1.47129,-1.39735c2.67329,-2.89701 6.15322,-5.33125 9.65471,-7.17532c0,0 1.06896,-0.55658 1.78943,0.28625z" fill="#000000" stroke="none" stroke-width="0.5" stroke-linecap="butt"/><g stroke="none" stroke-width="0.5" stroke-linecap="butt"><path d="M170.20736,228.59795c-0.43198,-3.82661 -0.12864,-7.85144 -0.19147,-11.68479c-0.02107,-1.28625 -0.64157,-5.91465 0.45153,-6.71083c1.3553,-0.98716 3.35321,0.10005 5.02963,0.06876c4.53277,-0.08462 9.38038,-0.66989 13.79688,0.36322c6.15286,3.34969 6.18666,8.5609 6.7143,14.88843c0.25633,3.07394 0.11238,7.52072 -3.50201,8.79661c-3.87543,1.36801 -7.90199,-1.49416 -10.79559,2.29309c-0.60412,0.9227 -0.70741,2.15669 -1.44552,2.97618c-0.3513,0.39006 -1.39625,2.22031 -1.71185,2.37108c-4.93534,2.35775 -7.33703,-3.65659 -8.00209,-7.99977c-0.00122,-0.00754 -0.00234,-0.01506 -0.00343,-0.02262c-0.06686,-0.43928 -0.12107,-0.87109 -0.16448,-1.28697l-0.11503,-0.90062l0.03487,-0.00445c-0.03964,-0.54404 -0.0607,-1.04418 -0.06832,-1.47706z" fill="#f49285"/><path d="M158.24812,208.49613c0.64873,-1.35245 2.0012,-0.70368 2.0012,-0.70368l-0.00377,0.09364c2.84008,0.3047 5.67917,0.68897 8.53602,0.79904c0.14177,-0.43053 0.49603,-0.95844 1.38081,-0.97293c0.94182,-0.01543 1.30191,0.57026 1.43946,1.00819c10.04912,-0.07762 21.86249,-1.78302 25.93927,9.80282c0.77266,4.80434 1.59752,12.92726 -2.99344,16.30788c-2.91879,2.14927 -7.39288,0.53983 -10.67838,2.17831c-2.08801,1.0413 -1.41672,3.45888 -2.45426,5.23739c-1.70605,2.92445 -5.02599,2.29708 -7.77166,1.42571c-2.06127,-1.56801 -4.77717,-4.01946 -5.42317,-6.65806c-1.22699,-5.01164 0.46781,-10.78146 0.66444,-15.82031c0.12296,-3.15106 -0.03321,-6.33957 -0.13514,-9.50838c-2.95414,-0.11097 -5.88726,-0.50168 -8.82399,-0.81674l-0.97368,-0.37163c0,0 -1.35245,-0.64873 -0.70369,-2.00118zM171.75036,211.68782c0.10246,3.19708 0.25782,6.41355 0.13306,9.59308c-0.27591,7.03248 -3.19459,14.68257 3.15026,19.73316c0.8351,0.25969 2.62201,0.67962 3.45109,0.39027c0.92072,-0.32135 0.88602,-3.49974 1.13085,-4.07354c0.39789,-0.93258 1.87325,-2.44876 2.77706,-2.93281c0.64015,-0.34285 3.74996,-1.3421 4.59964,-1.4494c1.38248,-0.17459 4.54586,0.43744 5.82379,-0.56728c3.32092,-2.61097 2.36391,-9.65964 1.81696,-13.12107c-3.34157,-9.51186 -14.35042,-7.80848 -22.88272,-7.57235z" fill="#000000"/></g><path d="M155.66957,233.26513c0.13548,0.33373 0.15549,0.76617 -0.15432,1.28045c-0.25287,0.41977 -0.56026,0.61977 -0.85957,0.6988c-0.29507,0.24281 -0.73174,0.40208 -1.35334,0.20614c-0.6679,-0.21053 -0.92567,-0.63461 -1.01072,-1.02693c-2.52378,-1.25619 -5.64656,-2.26171 -7.27922,-4.43533c-1.70496,-2.26988 -1.16128,-4.8768 -1.36437,-7.48457c-0.16005,-2.05529 -1.29182,-3.78509 -1.74501,-5.76026c-0.19966,-0.8702 -0.5725,-3.66035 -0.23746,-4.5107c0.62198,-1.57862 3.1379,-3.13317 4.39504,-4.21431c2.12904,-2.19784 4.96753,-4.44392 6.61744,-7.03903c0.88032,-1.38465 1.7391,-5.07819 2.74175,-6.0584c2.68504,-2.62496 8.33243,-0.17054 11.46164,-0.9603c0.586,-0.14787 0.35509,-3.653 0.35693,-3.65938c0.4157,-1.42103 1.51829,-2.54233 2.26687,-3.8197c3.35456,-1.78998 4.75349,-1.08207 7.92085,0.32009c1.44785,0.64095 4.18582,0.90794 5.19636,2.32394c0.29573,0.41437 0.37589,0.90831 0.39012,1.42953c0.13268,0.05784 0.25545,0.13439 0.36496,0.22628l1.70078,1.41015l-0.29869,0.36026c2.91398,1.86664 5.68129,4.60231 7.08703,7.53761c1.63378,3.41152 0.61639,10.31903 -1.31914,13.41264c-3.31501,5.29842 -9.09385,6.04916 -14.17713,8.73537c-3.39212,1.79253 -6.22299,2.96363 -10.03595,3.72545c-5.16901,1.02434 -8.30323,2.73581 -10.66485,7.30223z" fill="#fddfbd" stroke="none" stroke-width="0.5" stroke-linecap="butt"/><path d="M144.23337,226.6557c2.31519,3.36958 6.10686,6.40517 9.24732,2.09016c0.42995,-0.59076 0.25975,-1.4501 0.41627,-2.16377c0.37589,-1.71401 0.67078,-3.42911 0.85465,-5.15787c1.48286,3.02954 4.46292,4.82502 6.05353,7.62588c0.39769,0.70031 0.8912,1.3596 1.42618,1.96158c0.42606,0.47943 1.75606,0.99644 1.28743,1.43439c-1.31529,1.22918 -3.08415,2.54933 -4.57243,3.68621c-1.34623,1.02838 -2.01702,1.21566 -3.68704,1.24304c-3.12452,-1.02161 -4.95368,-3.25302 -7.31973,-5.32072c-1.44962,-1.26685 -3.29392,-2.06441 -3.68569,-4.16971c-0.07333,-0.39407 -0.10753,-0.82189 -0.11659,-1.25674z" data-paper-data="{&quot;noHover&quot;:false,&quot;origItem&quot;:[&quot;Path&quot;,{&quot;applyMatrix&quot;:true,&quot;segments&quot;:[[[292.27259,450.35302],[0,0],[0.00386,0.86986]],[[292.46735,452.85822],[-0.13372,-0.79044],[0.71446,4.22288]],[[299.69469,461.2609],[-2.85734,-2.58084],[4.6637,4.21236]],[[314.05027,472.08106],[-6.21472,-2.14538],[3.3405,0]],[[321.42067,469.73416],[-2.7258,2.01234],[3.01346,-2.22472]],[[330.64919,462.5618],[-2.6705,2.41496],[0.95146,-0.86042]],[[328.11865,459.6624],[0.8363,0.97272],[-1.05006,-1.22134]],[[325.32895,455.71702],[0.77232,1.41342],[-3.08898,-5.6531]],[[313.56087,440.36446],[2.86608,6.10686],[-0.4243,3.45106]],[[311.69295,450.6516],[0.80786,-3.41526],[-0.33638,1.42204]],[[310.84131,454.95192],[0.87914,-1.16726],[-6.42148,8.52596]],[[292.27261,450.35306],[4.51934,6.8141],[0,0]]],&quot;closed&quot;:true,&quot;fillColor&quot;:[0,0,0,1]}]}" fill="#f49285" stroke="none" stroke-width="0.5" stroke-linecap="butt"/><path d="M158.53438,222.47778c3.29708,1.11488 7.40019,1.47441 10.37775,-0.53364c0.61933,-0.41767 1.43439,-1.55837 1.99662,-2.71129c0.52051,1.02853 1.33683,1.93508 2.20229,2.62906c0.29101,0.23334 2.57776,1.41247 2.20465,2.17183c-0.37897,0.77125 -1.35029,1.07491 -2.0106,1.6248c-0.94484,1.16352 -1.95106,2.84872 -3.15469,3.78971c-1.11473,0.8715 -2.64292,0.73174 -3.95782,0.75176c-0.93186,0.01417 -1.93989,0.48235 -2.81146,0.15232c-0.78156,-0.29593 -1.07933,-1.3016 -1.61338,-1.94441c-1.40329,-1.68904 -2.45065,-3.80212 -3.23335,-5.93019z" data-paper-data="{&quot;noHover&quot;:false,&quot;origItem&quot;:[&quot;Path&quot;,{&quot;applyMatrix&quot;:true,&quot;segments&quot;:[[[321.19917,442.52486],[0,0],[1.49544,4.28122]],[[327.45837,454.40592],[-2.75086,-3.4236],[1.04692,1.30294]],[[330.59357,458.31922],[-1.55322,-0.6174],[1.73212,0.6885]],[[336.18071,458.09086],[-1.86394,-0.00216],[2.63006,0.00304]],[[344.04827,456.7328],[-2.25774,1.70622],[2.43778,-1.84228]],[[350.43759,449.32674],[-1.92754,2.29582],[1.33848,-1.07802]],[[354.51083,446.1658],[-0.7831,1.52982],[0.77104,-1.5063]],[[350.18243,441.78466],[0.57428,0.47616],[-1.70792,-1.41612]],[[345.89649,436.49366],[1.00718,2.07384],[-1.16208,2.28712]],[[341.81685,441.85142],[1.25216,-0.81492],[-6.02014,3.91802]],[[321.19919,442.52488],[6.55672,2.33748],[0,0]]],&quot;closed&quot;:true,&quot;fillColor&quot;:[0,0,0,1]}]}" fill="#f49285" stroke="none" stroke-width="0.5" stroke-linecap="butt"/><path d="M188.83012,224.30092c-0.59997,0.62058 -1.31253,1.20807 -2.08448,1.71302l-1.52387,0.0256c-0.32856,-0.04226 -0.65115,-0.08354 -0.96236,-0.12274c-0.30204,-0.10804 -0.65457,-0.13726 -1.03367,-0.12263c-1.76076,-0.19258 -3.29612,-0.24874 -4.8297,0.14757c-1.69136,-0.47038 -4.4573,-1.59688 -5.18949,-2.32854c-0.56432,-0.56392 -0.48006,-2.00297 -0.34225,-3.09795c0.20606,0.04415 0.43321,-0.02211 0.43321,-0.02211c1.57542,-0.0258 4.29152,0.34029 5.7339,-0.17719c1.34331,-0.48194 2.6991,-2.08164 3.66631,-3.07964c3.8978,-4.02193 5.80146,-7.88274 5.71336,-13.57259c-0.0271,-1.74926 0.40564,-4.79019 -0.36404,-6.76534c1.29993,1.1426 3.15309,1.9929 4.04353,3.48989c0.8574,1.44144 0.20929,3.64753 0.40281,5.21019c0.36261,2.92817 2.33293,5.54575 2.54654,8.3763c0.06563,0.86935 0.56739,1.83556 0.18382,2.61847c-0.17855,0.36445 -0.75752,0.3703 -1.00815,0.68948c-1.79595,2.28703 -3.52036,4.70407 -5.38542,7.01824z" data-paper-data="{&quot;noHover&quot;:false,&quot;origItem&quot;:[&quot;Path&quot;,{&quot;applyMatrix&quot;:true,&quot;segments&quot;:[[[381.59284,447.04069],[0,0],[3.8055,-4.5666]],[[392.54006,433.22621],[-3.66638,4.5146],[0.51168,-0.63006]],[[394.57458,431.88833],[-0.369,0.72294],[0.7927,-1.55304]],[[394.28604,426.66537],[0.1027,1.74062],[-0.3344,-5.6673]],[[389.48224,409.91035],[0.62914,5.86744],[-0.33576,-3.13126]],[[388.8702,399.50235],[1.66732,2.91058],[-1.73158,-3.02274]],[[380.93036,392.40715],[2.56208,2.32748],[1.47438,3.97498]],[[381.51618,405.76605],[0.00316,-3.49896],[-0.01024,11.38102]],[[369.57254,432.90379],[7.92632,-7.91502],[-1.96688,1.96408]],[[362.11264,438.93129],[2.70206,-0.91974],[-2.90128,0.98756]],[[350.61324,439.07441],[3.15128,0],[0,0]],[[349.90228,438.97939],[0.41062,0.09502],[-0.31148,2.18516]],[[350.47416,445.17377],[-1.11004,-1.1462],[1.4402,1.48712]],[[360.74526,449.98123],[-3.36688,-0.99606],[3.07972,-0.74228]],[[370.37742,449.83737],[-3.51474,-0.44278],[0.75856,-0.01684]],[[372.43326,450.11627],[-0.60044,-0.22594],[0.62106,0.08858]],[[374.34712,450.39349],[-0.65566,-0.09528],[0,0]],[[377.38508,450.39349],[0,0],[1.56024,-0.9845]],[[381.59282,447.04071],[-1.22014,1.22132],[0,0]]],&quot;closed&quot;:true,&quot;fillColor&quot;:[0,0,0,1]}]}" fill="#f49285" stroke="none" stroke-width="0.5" stroke-linecap="butt"/><path d="M172.4035,208.16332c0.16373,0.17499 0.27378,0.48797 0.33833,0.88091c-0.04783,0.97366 -0.14275,1.92602 -0.13339,2.49738c0.05829,3.55694 -0.31417,7.19328 1.13575,10.45524c-0.00697,0.06287 -0.01057,0.12716 -0.00951,0.19205c0.00867,0.52885 0.24114,0.90205 0.65902,1.16229l0.1912,0.17836c-0.14858,0.05095 -0.30868,0.11595 -0.47875,0.19931l-1.07705,0.56026c-1.33694,-1.39517 -2.30942,-3.10237 -2.65201,-5.26579c-0.46043,-2.90768 0.74807,-6.49413 -0.21553,-9.29561c-0.61222,-1.77988 -2.86991,-3.28507 -4.4895,-3.94681c-0.31827,-0.13003 -0.70098,-0.28921 -1.03258,-0.38176c2.87312,0.04916 6.09817,0.98398 7.76403,2.76416z" data-paper-data="{&quot;noHover&quot;:false,&quot;origItem&quot;:[&quot;Path&quot;,{&quot;applyMatrix&quot;:true,&quot;segments&quot;:[[[333.91683,408.63274],[5.74384,0.19247],[0.66002,0.19593]],[[335.8855,409.24853],[-0.63215,-0.27045],[3.21708,1.37635]],[[344.78461,417.28125],[-1.16594,-3.57933],[1.83515,5.63376]],[[344.91498,436.07495],[-0.82548,-5.82966],[0.61419,4.33751]],[[349.99713,446.49874],[-2.62782,-2.83381],[0,0]],[[352.15812,445.41825],[0,0],[0.34282,-0.16111]],[[353.11747,445.03776],[-0.29878,0.09703],[0,0]],[[352.83654,444.85047],[0,0],[-0.8271,-0.53416]],[[351.46193,442.32851],[0,1.05784],[0,-0.12982]],[[351.48617,441.94533],[-0.016,0.12547],[-2.79252,-6.57054]],[[349.53759,421.16078],[0,7.11479],[0,-1.1429]],[[349.90569,416.18539],[-0.12758,1.9455],[-0.11618,-0.78785]],[[349.26689,414.41716],[0.32171,0.35528],[-3.27291,-3.61451]]],&quot;closed&quot;:true}]}" fill="#000000" stroke="none" stroke-width="0.5" stroke-linecap="butt"/><path d="M161.7781,231.27499c-0.77802,-0.07032 -2.19396,-2.25131 -2.56821,-2.75117c-1.10702,-1.47865 -3.06414,-3.03075 -3.48185,-4.92208c-0.37975,-1.71945 0.13699,-3.61601 -0.32148,-5.39117c-0.32029,-1.24019 -1.47459,-3.45072 -2.81702,-4.70487c1.34641,-0.0804 2.78701,-0.06007 3.73269,0.66018c1.33414,1.01612 1.52358,3.86721 2.0247,5.29207c0.8053,2.28979 0.63098,4.73938 1.92304,6.97584c0.83089,1.43821 2.97346,2.77674 4.03349,3.9663c-0.86589,0.49209 -1.81289,0.93931 -2.52537,0.8749z" data-paper-data="{&quot;noHover&quot;:false,&quot;origItem&quot;:[&quot;Path&quot;,{&quot;applyMatrix&quot;:true,&quot;segments&quot;:[[[332.32289,458.44583],[-1.74771,0.95566],[-5.31642,-6.16662]],[[320.82948,436.55107],[2.52271,7.56691],[-0.95542,-2.86579]],[[316.97562,425.8992],[2.63462,2.07571],[-1.86749,-1.47132]],[[309.56314,424.44377],[2.69509,-0.11667],[2.64337,2.55195]],[[315.04621,433.9419],[-0.59988,-2.49057],[0.85864,3.56492]],[[315.54628,444.61182],[-0.70308,-3.45088],[0.77335,3.79581]],[[322.24548,454.50921],[-2.1653,-2.99318],[0.73203,1.01191]],[[327.26825,460.1002],[-1.55353,-0.16613],[1.42267,0.15213]]],&quot;closed&quot;:true}]}" fill="#000000" stroke="none" stroke-width="0.5" stroke-linecap="butt"/><path d="M185.05537,191.64693c0,0 6.44606,9.14353 7.9218,12.80044c1.80206,4.46559 2.10851,12.05496 2.10851,12.05496c0,0 -1.78972,3.14315 -3.30008,4.59985c-1.93555,1.86678 -7.35734,5.67893 -7.35734,5.67893c0,0 -5.42001,-0.90418 -7.00365,-1.30832c-1.90123,-0.48519 -3.62608,-1.40439 -3.62608,-1.40439l0.03942,2.4051c0,0 -1.59801,2.13358 -2.63275,2.95687c-1.02326,0.81415 -3.54168,1.9558 -3.54168,1.9558l-6.02853,-0.86352l1.49036,2.86249c0,0 -1.89689,1.81964 -2.93505,2.54921c-1.16663,0.81988 -3.72436,2.13082 -3.72436,2.13082c0,0 -4.06697,-1.96123 -5.8595,-3.10258c-2.18218,-1.38945 -6.29606,-4.63721 -6.29606,-4.63721c0,0 -1.40725,-5.62596 -1.74624,-8.81527c-0.32402,-3.04837 -0.24478,-9.91694 -0.24478,-9.91694c0,0 0.98636,-1.99753 1.64022,-2.67318c1.46207,-1.5108 6.87627,-6.12706 6.87627,-6.12706c0,0 1.63794,-1.51263 2.22183,-2.46886c0.81891,-1.34114 2.22962,-4.82131 2.22962,-4.82131l8.891,-0.62685c0,0 2.61774,-2.19679 2.85315,-2.66114c0.67863,-1.33849 3.01771,-6.09574 3.01771,-6.09574l4.07291,-1.02905c0,0 4.34762,1.33195 5.92217,2.27623c1.97733,1.18586 5.01112,4.28069 5.01112,4.28069z" fill="none" stroke="#000000" stroke-width="3" stroke-linecap="round"/></g><path d="M180.50981,198.9533l0.10432,-0.11424c0.54424,-0.20266 4.16527,-1.39489 4.61303,-0.95936c0.0724,0.07041 0.03115,2.04387 0.03358,2.35199c0.01276,1.62109 0.34558,3.19449 0.8208,4.73741c1.77631,4.74693 4.72821,11.22501 9.58966,13.43356c0.29367,0.33032 0.8776,0.54899 0.881,0.99096c0.00292,0.37874 -1.11125,0.82316 -1.46274,0.9174c-1.34772,0.36135 -3.19211,1.18954 -4.55551,1.2051c-0.79137,0.00903 -1.59679,-0.86069 -2.15583,-1.29244c-2.34929,-1.81435 -4.3921,-2.9862 -6.29278,-5.3544c-2.53367,-4.81693 -2.53474,-10.03779 -1.96728,-15.47418c0,0 0.0411,-0.38663 0.39174,-0.44178z" fill="#485e84" stroke="none" stroke-width="0.5" stroke-linecap="butt"/><path d="M189.63005,211.32571c-0.07249,-0.01394 -0.12095,-0.03603 -0.12095,-0.03603c-5.99424,-2.73198 -5.92633,-9.39877 -5.0723,-15.10927c0.22613,-1.50916 0.5375,-3.79091 1.61435,-5.00065c1.52215,-1.70998 3.54923,-2.73579 5.22701,-4.12721c-0.13335,-0.14351 -0.17507,-0.35859 -0.08876,-0.54797c0.02328,-0.05109 0.05408,-0.09636 0.09051,-0.13513l0.56243,-0.62719c0.85966,-0.95726 1.3632,-2.01722 2.28417,-2.71858l-0.1238,-0.15324l0.42641,-0.34448c0.14309,-0.12064 0.34837,-0.15562 0.53,-0.07283c0.25127,0.11452 0.36213,0.41105 0.24761,0.66233l-0.06305,0.13836c0.31238,-0.20253 0.61821,-0.39867 0.90236,-0.59418c2.37967,-1.63744 4.50178,-2.69469 7.00293,-2.78472c0.06599,-0.05892 0.14628,-0.09894 0.23188,-0.11674l0.97111,-0.21295l0.03486,0.15897c4.59025,-1.1512 11.47969,0.94488 14.71023,3.91493c2.6498,2.46731 5.12484,6.36934 4.50027,10.28838c-0.44771,2.80928 -2.29245,5.7301 -3.47615,8.29203c-1.99973,2.27558 -4.18963,4.26726 -6.46829,6.26248c-0.78614,0.68834 -1.85994,2.02509 -2.83141,2.41258c-2.22564,0.8877 -5.30633,0.35065 -7.68327,0.79305c-4.36076,0.80743 -8.74406,1.80291 -12.84662,-0.06691l-0.45497,-0.20736c0,0 -0.04846,-0.02209 -0.10653,-0.06766zM207.32022,180.35957c0.13635,0.00985 0.2731,0.01979 0.40973,0.02817c-0.13537,-0.01693 -0.27207,-0.02559 -0.40973,-0.02817z" fill="#485e84" stroke="none" stroke-width="0.5" stroke-linecap="butt"/><path d="M185.95825,198.54146c0.09686,0.04286 0.18966,0.12766 0.24888,0.28609c0.07786,0.20827 0.02848,0.35853 -0.05036,0.46121c-0.00451,0.0115 -0.00947,0.02315 -0.01485,0.03498c-0.15401,0.33789 -0.44459,0.31048 -0.58393,0.27399c-1.54713,0.52486 -3.1081,0.72819 -4.66541,1.18291c-0.37472,0.10941 -1.27596,0.6032 -1.59028,0.20512c-0.54961,-0.69602 0.10368,-1.50947 0.31484,-2.10898c0.58755,-1.66814 1.19685,-3.24292 1.94494,-4.86704c0.47979,-0.59912 0.98678,-0.92709 1.65679,-1.29326c0.45319,-0.24767 2.94681,-1.89296 3.3815,-1.56247c1.65616,1.25917 -0.90077,5.39269 -0.64215,7.38745z" fill="#ff66ca" stroke="none" stroke-width="0.5" stroke-linecap="butt"/><path d="M179.80884,198.80645c-0.08904,-0.39825 -0.00727,-0.7497 -0.00727,-0.7497l0.60782,-1.66922c0.90132,-0.9296 1.41099,-2.37424 2.60066,-2.8853c4.09608,-1.75957 3.65382,-0.54196 3.79953,2.50413c0.0343,0.71729 0.22277,1.4996 -0.07515,2.15301c-1.13014,2.47873 -4.52295,2.80366 -6.74711,3.80227c0,0 -0.15355,-0.84749 -0.76695,-2.21636c-0.61339,-1.36886 -0.45985,-0.52138 -0.45985,-0.52138c0.34303,-0.15343 0.69374,-0.29009 1.04829,-0.41748z" fill="#8fbbbe" stroke="none" stroke-width="0.5" stroke-linecap="butt"/><path d="M185.73321,202.388c0.49968,-0.01799 0.51767,0.48168 0.51767,0.48168l0.00805,0.22347c0.00439,0.1227 0.00725,0.24139 0.00853,0.35628c0.01669,0.03486 0.03099,0.07427 0.04223,0.11882c0.04274,0.16945 0.01132,0.29461 -0.04764,0.38576c-0.09148,2.59124 -1.20443,2.97105 -3.93557,3.99208c-0.53791,0.31103 -0.98359,0.95813 -1.60488,0.94831c-1.09724,-0.01737 -1.66568,-2.48908 -1.0511,-3.2227c0.81937,-0.97812 3.99737,-1.92858 5.59505,-2.35271c-0.00161,-0.06185 -0.0036,-0.1251 -0.00596,-0.18983l-0.00805,-0.22346c0,0 -0.01799,-0.49968 0.48168,-0.51768z" fill="#8fbbbe" stroke="none" stroke-width="0.5" stroke-linecap="butt"/><path d="M224.84414,197.86025l-0.34734,5.886l-4.39486,8.43714l-4.8669,4.65035l-4.95745,2.13641l-11.19322,-0.15617l-6.62731,-3.84472l-3.62514,-5.91071c0,0 -1.32943,-3.83895 -1.76452,-5.09536c-0.25538,-0.73746 -0.24656,-1.04131 -0.24656,-1.04131c0,0 4.89211,7.35041 13.51235,7.57574c17.52251,0.458 23.08016,-19.74588 23.08016,-19.74588z" fill="#343545" stroke="#343545" stroke-width="1.5" stroke-linecap="round"/><path d="M200.49108,219.043c-0.31105,0.68246 -0.9935,0.37142 -0.9935,0.37142l-0.288,-0.13464c-2.49308,-1.43041 -4.65977,-3.41957 -6.20289,-5.80902c-2.86125,-0.06952 -4.86821,-0.75771 -6.45266,-3.83723c-0.53446,-1.03876 -1.16127,-1.64338 -0.48658,-2.92621c0.12362,-0.23505 1.61056,-0.90653 1.88706,-1.04264c0.80708,-0.39729 1.60475,-0.78376 2.40821,-1.14811c-0.22196,-1.92979 -0.4906,-4.17009 -0.54091,-6.11097c-0.91204,0.77071 -3.94768,3.71513 -4.88504,3.39282c-1.35647,-0.46641 -0.34215,-1.25517 -0.25365,-1.94039c0.00789,-0.06108 0.01605,-0.12198 0.02446,-0.18265c-1.00215,0.51865 0.28352,-6.92287 0.31382,-6.93557c0.00514,-0.14659 0.06885,-0.33001 0.32495,-0.42576c0.46834,-0.17509 0.64344,0.29326 0.64344,0.29326l0.07477,0.22773c0.04803,0.30363 0.07743,0.7408 0.08253,1.24969c0.31205,-0.9308 0.63806,-1.87085 0.94759,-2.85519c0.0181,-0.1396 0.08074,-0.25788 0.14325,-0.34504c0.06003,-0.09319 0.15094,-0.19871 0.28078,-0.26674l0.16019,-0.12534c0.81841,-0.50567 1.55811,-1.12214 2.31257,-1.71901c0.10169,-1.14448 0.33686,-2.27661 0.84036,-3.3927c0,0 0.31105,-0.68246 0.9935,-0.37141c0.68246,0.31105 0.37141,0.9935 0.37141,0.9935c-0.2374,0.51465 -0.40864,1.03814 -0.5307,1.56823c1.68404,-1.03359 3.62317,-1.82441 5.66205,-2.3837c0.82514,-2.29664 2.04108,-4.44971 3.81276,-6.35839c0,0 0.51089,-0.54908 1.05997,-0.03819c0.54907,0.5109 0.03819,1.05998 0.03819,1.05998c-1.37494,1.47378 -2.4006,3.13649 -3.15657,4.91654c2.65958,-0.5477 5.41001,-0.72316 7.92791,-0.54982c0.43663,-1.53454 1.00504,-3.08324 1.73473,-4.68426c0,0 0.31105,-0.68247 0.9935,-0.37142c0.68246,0.31105 0.37141,0.9935 0.37141,0.9935c-0.65008,1.42636 -1.16706,2.80786 -1.5732,4.1746c2.42827,0.08939 5.18906,-0.22172 7.48337,0.3181c0.36733,0.08642 0.72701,0.19865 1.08051,0.33089c-0.07847,-0.30943 -0.174,-0.61378 -0.28982,-0.91201l-0.16395,-0.71248c0,0 -0.16065,-0.7326 0.57196,-0.89324c0.7326,-0.16064 0.89324,0.57196 0.89324,0.57196l0.10378,0.5085c0.25852,0.71238 0.41904,1.44461 0.51644,2.18934c1.62167,0.86916 3.15535,1.99015 4.76614,2.7243c0,0 0.68246,0.31105 0.37141,0.9935c-0.31105,0.68246 -0.9935,0.37142 -0.9935,0.37142c-1.3514,-0.61592 -2.65969,-1.53645 -4.01478,-2.32787c0.04234,1.59197 -0.07297,3.21385 -0.02495,4.79828c0.55653,0.18206 1.11746,0.34493 1.68878,0.46389c0.79476,0.16547 2.08133,-0.26301 2.71698,0.43136c1.14928,1.25543 0.49451,1.46329 0.60167,2.70533c0.06969,0.80791 1.12214,2.55113 0.8229,3.26209c-0.21347,0.50717 -1.57116,0.7919 -2.10801,0.92269c-1.11784,0.27237 -2.2215,0.63142 -3.33088,0.95593c0.12655,1.9722 0.24385,3.92818 0.2154,5.86886c0.62831,-0.55978 1.25081,-1.11814 1.88703,-1.63258c0.42757,-0.33784 0.81831,-0.74097 1.10632,-1.20357l0.15652,-0.36158c0,0 0.31105,-0.68247 0.9935,-0.37142c0.68246,0.31105 0.37142,0.9935 0.37142,0.9935l-0.25821,0.54836c-0.38593,0.5901 -0.88224,1.11379 -1.42693,1.56154c-0.98739,0.79692 -1.93815,1.67538 -2.91995,2.51069c-0.18852,2.45729 -0.69126,4.89027 -1.78991,7.30081c0,0 -0.31105,0.68247 -0.9935,0.37142c-0.68246,-0.31105 -0.37142,-0.9935 -0.37142,-0.9935c0.80935,-1.77579 1.27582,-3.57047 1.52492,-5.38181c-1.15395,0.83853 -2.39199,1.53964 -3.8079,1.93055c-0.91098,0.25151 -1.85231,0.44782 -2.81518,0.60124c0.48746,1.31535 1.04227,2.61082 1.92496,3.68872c0.17564,0.21742 0.35129,0.43485 0.52694,0.65227l0.06886,-0.05563c0,0 0.68247,0.31105 0.37142,0.9935c-0.31105,0.68246 -0.9935,0.37142 -0.9935,0.37142l-0.6136,-0.36668c-0.17564,-0.21742 -0.35128,-0.43485 -0.52693,-0.65227c-1.02857,-1.28741 -1.90459,-2.77585 -2.64445,-4.38486c-2.14698,0.22458 -4.36908,0.28377 -6.57574,0.30434c1.98072,2.12338 4.51479,3.94264 6.69762,5.79695l0.2725,0.31687c0,0 0.4713,0.58341 -0.11211,1.05471c-0.58341,0.47131 -1.05471,-0.11211 -1.05471,-0.11211l-0.0788,-0.11798c-2.45045,-2.09563 -5.34516,-4.12199 -7.42871,-6.59556c-0.09117,-0.10824 -0.18099,-0.21873 -0.2695,-0.33139c-1.92947,0.00778 -3.8259,0.01503 -5.62727,0.10854c-0.07908,0.00285 -0.15762,0.00557 -0.23559,0.00813c1.36418,1.84456 3.15118,3.39058 5.15106,4.52346l0.16698,0.07273c0,0 0.68247,0.31105 0.37142,0.9935zM190.99513,208.88563c-0.16582,-0.9665 -0.31145,-1.9038 -0.43742,-2.82343c-0.40806,0.18897 -0.81573,0.38466 -1.22523,0.58624c-0.37452,0.18436 -1.83953,0.61859 -2.01498,0.88795c-0.31161,0.47837 0.71445,1.69586 0.93096,2.1237c0.891,1.76072 2.29305,2.24202 3.91226,2.33552c-0.49663,-0.98444 -0.8909,-2.02417 -1.16558,-3.10996zM189.96926,194.64917c0.03753,-1.26743 -0.03394,-2.52762 -0.04554,-3.77602c-0.47015,0.28466 -0.94334,0.57617 -1.42093,0.87326c-0.61292,1.86694 -1.51091,3.62356 -2.00604,5.53112c-0.176,0.67807 -0.12308,1.76911 -0.26603,2.63348c0.06322,-0.0829 0.135,-0.1631 0.21578,-0.23664c0.8523,-0.77584 1.74607,-1.40919 2.63903,-2.13326c0.27775,-0.22437 0.56067,-0.44334 0.84848,-0.65691c0.00088,-0.73003 0.01272,-1.47319 0.03527,-2.23505zM191.46865,194.69171c-0.01112,0.3882 -0.01952,0.77117 -0.02513,1.14972c1.36661,-0.87855 2.82154,-1.647 4.33677,-2.30448c0.12081,-2.0926 0.38309,-4.16585 0.88432,-6.16018c-1.78296,0.71277 -3.51649,1.61131 -5.27334,2.62671c-0.03528,1.55458 0.12188,3.13492 0.07737,4.68824zM192.46266,208.57522c0.30292,1.20494 0.77546,2.34997 1.38517,3.41738c0.37002,-0.01415 0.74549,-0.03237 1.12349,-0.04599c1.49826,-0.07782 3.06812,-0.0927 4.67005,-0.09783c-1.39241,-2.29843 -2.37889,-5.14139 -3.04574,-7.89646c-0.55554,0.07826 -1.0995,0.20213 -1.62241,0.4022c-1.03201,0.3093 -2.01837,0.6721 -2.98816,1.07752c0.13351,1.01992 0.29234,2.06166 0.4776,3.14316zM194.49501,202.93283c0.57881,-0.21212 1.17329,-0.34421 1.77662,-0.42916c-0.23135,-1.12409 -0.41009,-2.21368 -0.54244,-3.22337c-0.03656,-1.34782 -0.05112,-2.71043 -0.01708,-4.07155c-1.50477,0.69655 -2.94003,1.51043 -4.27373,2.44064c0.02057,2.13364 0.13825,4.16166 0.36288,6.24475c0.87461,-0.35825 1.76627,-0.68333 2.69374,-0.96131zM197.22395,199.15523c0.13213,0.99803 0.31153,2.08842 0.54589,3.21639c1.08324,-0.05263 2.17678,-0.04241 3.2433,-0.15065c1.70675,-0.17321 3.42844,-0.3147 5.1507,-0.47457c-0.21123,-1.6172 -0.3368,-3.18941 -0.38955,-4.65357c-0.05632,-1.63659 -0.06643,-3.19422 -0.00557,-4.70487c-2.93291,0.35693 -5.85786,1.0889 -8.5967,2.19021c-0.0515,1.54019 -0.02156,3.07724 0.05192,4.57708zM218.96576,193.97495c-0.0382,1.83306 0.04975,3.65177 0.16055,5.45681c0.55733,-0.17547 1.11785,-0.34703 1.69416,-0.48435c0.46049,-0.10971 0.92153,-0.21701 1.38159,-0.32844c0.3575,-0.08658 1.13471,0.27833 1.1,-0.08787c-0.05971,-0.62966 -0.87282,-1.68759 -0.95062,-2.49157c-0.05779,-0.59721 0.27882,-1.18446 -0.11798,-1.74379c-0.06556,-0.09241 -1.85859,-0.04174 -1.99989,-0.06999c-0.43127,-0.08624 -0.85631,-0.19907 -1.27778,-0.32736c0.00324,0.02553 0.00656,0.05105 0.00995,0.07654zM217.46795,194.05606c-0.02947,-0.22597 -0.05216,-0.45437 -0.0693,-0.68485c-0.93062,-0.33344 -1.85992,-0.67452 -2.8176,-0.89862c-2.34908,-0.35208 -4.82376,-0.429 -7.3146,-0.2343c-0.06812,1.53722 -0.05642,3.12468 0.00691,4.80052c0.0576,1.59914 0.2166,3.10046 0.46295,4.55505c2.83067,-0.28898 5.65113,-0.669 8.3976,-1.36291c0.52026,-0.08416 1.02542,-0.20751 1.52437,-0.34881c-0.1291,-1.92956 -0.2388,-3.87241 -0.19031,-5.82608zM215.6516,186.10195c-2.29338,-0.53483 -5.10297,-0.1721 -7.51394,-0.28975c-0.39346,1.6281 -0.63964,3.25068 -0.7767,4.91938c2.55301,-0.18483 5.08904,-0.09665 7.50305,0.26792c0.84507,0.19838 1.66835,0.4838 2.48949,0.77551c0.01261,-1.67768 0.16397,-3.4127 0.02543,-5.06562c-0.56114,-0.25754 -1.13499,-0.46934 -1.72732,-0.60746zM216.43738,201.69993c-2.7532,0.69342 -5.58025,1.08012 -8.41794,1.37349c0.55452,2.60165 1.3827,5.1064 2.39961,7.82299c0.05532,0.1478 0.10989,0.29656 0.16411,0.44601c1.00561,-0.15304 1.98675,-0.35318 2.93254,-0.61511c1.66604,-0.4614 3.07815,-1.41558 4.40134,-2.50441c0.12947,-2.24224 0.00048,-4.50839 -0.15357,-6.7943c-0.43939,0.10644 -0.88101,0.19933 -1.32606,0.27132zM205.85562,190.87207c0.13238,-1.75871 0.37635,-3.46647 0.77321,-5.17661c-3.03159,-0.17623 -5.72225,0.24281 -8.27141,1.06814c-0.60819,1.98292 -0.94186,4.06989 -1.09797,6.17366c2.75585,-1.04125 5.67362,-1.73131 8.59619,-2.06517zM201.1602,203.71374c-0.99289,0.09945 -2.03163,0.07791 -3.0601,0.11645c0.70422,2.86542 1.77022,5.81923 3.31762,8.01428c2.39871,-0.00762 4.83591,-0.03671 7.18332,-0.25993c-1.04746,-2.64684 -1.76582,-5.53679 -2.22012,-8.35064c-1.74571,0.16316 -3.49085,0.30656 -5.22072,0.47983z" fill="#000000" stroke="none" stroke-width="0.5" stroke-linecap="butt"/><path d="M207.8165,182.14737c0.02228,0.61862 -0.55082,1.1945 -1.19593,1.43739c-0.65758,0.24758 -1.38974,0.15644 -1.61456,0.18605c0,0 -1.17018,0.01157 -1.3334,-1.22773c-0.16323,-1.2393 1.07606,-1.40253 1.07606,-1.40253c0.44539,-0.05867 0.89078,-0.11733 1.33619,-0.176l0.43747,-0.02138c0,0 1.24919,-0.045 1.29418,1.20419z" fill="#8fbbbe" stroke="none" stroke-width="0.5" stroke-linecap="butt"/><path d="M211.88385,182.89772c0.03615,0.22347 -0.45856,0.63969 -0.90476,0.73354c-0.53936,0.11344 -1.05566,-0.13924 -1.09936,-0.40938c-0.07984,-0.49359 0.41375,-0.57342 0.41375,-0.57342c0.1695,-0.02741 0.33898,-0.05483 0.50847,-0.08223l0.50847,-0.08224c0,0 0.49358,-0.07984 0.57342,0.41375z" fill="#8fbbbe" stroke="none" stroke-width="0.5" stroke-linecap="butt"/><path d="M223.36907,207.83418c-4.78134,10.49072 -16.67428,15.34131 -26.56362,10.83406c-9.88935,-4.50725 -14.03021,-16.66551 -9.24889,-27.15623c4.78134,-10.49072 16.67428,-15.34131 26.56363,-10.83406c9.88935,4.50725 14.03021,16.66551 9.24889,27.15624z" fill="none" stroke="#000000" stroke-width="2.5" stroke-linecap="butt"/><path d="M186.46665,191.07021c0,0 -1.86249,10.92565 -0.32803,14.63491c6.31429,15.26362 12.72958,14.09558 12.72958,14.09558c0,0 -8.71379,1.27376 -9.89652,0.68813c-12.72296,-6.29983 -10.20332,-19.88753 -8.03081,-24.81857c0.41507,-0.9421 5.52577,-4.60008 5.52577,-4.60008z" fill="none" stroke="#000000" stroke-width="2.5" stroke-linecap="round"/></g><g stroke-linecap="round"><path d="M209.37338,172.10981c0,0 6.46934,3.95621 15.55373,3.12313c5.83934,-1.09794 10.15704,-3.07766 12.98416,-4.68133c2.36077,-1.33914 2.93214,-2.07889 3.2322,-1.84127c3.33541,-1.1417 6.26153,9.60882 6.59129,15.53914c0.08253,1.48424 0.59752,5.9242 -6.53943,1.01008c-3.30609,-2.2764 -8.9435,-8.0597 -9.72242,-8.65497c-0.26356,-0.20143 -7.88684,1.46509 -13.6876,0.20963c-5.54624,-1.20037 -8.41192,-4.7044 -8.41192,-4.7044z" fill="#000000" stroke="#000000" stroke-width="0.5"/><path d="M241.58311,142.0838c0,0 -3.77374,7.03309 -4.81511,11.50195c-1.58479,6.8009 -2.13073,13.64866 -4.13331,13.62955c-4.47446,-0.04271 -4.49068,-11.5691 -4.49068,-11.5691z" fill="#000000" stroke="#000000" stroke-width="2"/><path d="M212.73218,152.31724c0,0 -0.33203,1.7827 -0.24796,4.55821c0.12834,4.23699 0.57023,10.13151 -0.50813,10.37808c-3.05648,0.69887 -5.07959,-5.27285 -6.0904,-10.21251c-0.49584,-2.42304 -0.56083,-4.78502 -0.74887,-5.62537c-0.46383,-2.0729 0.44429,-8.71538 0.44429,-8.71538z" fill="#000000" stroke="#000000" stroke-width="2"/><path d="M270.33869,119.84583c0,0 -10.15295,6.70441 -19.26752,14.85075c-13.06582,11.67785 -26.75136,26.22385 -28.68729,27.42566c-1.40182,-0.30614 -7.74554,-4.73814 -14.17874,-13.56462c-3.44935,-4.73258 -7.38389,-10.23371 -10.24153,-15.18379c-2.75189,-4.76689 -4.93152,-9.70544 -5.78515,-12.79635c-0.5325,-1.92814 -0.21912,-3.13729 -0.21912,-3.13729c0,0 2.71344,5.75281 6.07739,11.76542c3.19601,5.71244 6.99672,11.63309 8.96425,14.0544c7.05518,8.68235 15.38355,15.6276 15.58657,15.48484c1.04422,-0.73427 4.60642,-5.13932 9.93806,-10.55817c4.26878,-4.33861 9.83339,-9.3271 14.94764,-13.60178c5.85236,-4.89162 11.80491,-9.47946 16.59549,-12.19865c2.80021,-1.58943 6.26995,-2.5404 6.26995,-2.5404z" fill="#000000" stroke="#000000" stroke-width="0.5"/><path d="M241.34523,172.38077c0.63296,1.79338 5.18313,12.81102 4.30783,12.42153c-3.60671,-1.60491 -10.11774,-7.23536 -11.34812,-8.18044c-0.35426,-0.27211 -0.18936,-1.35301 4.83315,-3.79024c0.68473,-0.33227 2.16081,-0.58214 2.20714,-0.45085z" fill="#ff6666" stroke="#ff6666" stroke-width="0.5"/></g></g></g></svg>