<svg version="1.1" xmlns="http://www.w3.org/2000/svg" xmlns:xlink="http://www.w3.org/1999/xlink" width="203.02508" height="202.48095" viewBox="0,0,203.02508,202.48095"><g transform="translate(-161.70281,-80.46268)"><g data-paper-data="{&quot;isPaintingLayer&quot;:true}" fill-rule="nonzero" stroke-linejoin="miter" stroke-miterlimit="10" stroke-dasharray="" stroke-dashoffset="0" style="mix-blend-mode: normal"><g stroke-width="0.5"><path d="M225.43559,236.84049c-1.7003,0.3257 -3.48323,0.43112 -5.63306,0.42208c0,0 -0.26664,-0.00112 -0.45788,-0.16189c-0.59262,0.50576 -1.38869,1.02369 -1.89172,1.46102c-3.38635,2.4175 -6.78307,3.43122 -10.37366,5.3768c-3.26893,1.77127 -6.93824,4.48088 -10.47481,5.18279c-0.01416,1.03228 -0.29991,2.19678 -0.93861,3.52883c-0.62528,1.30407 -0.97278,1.39687 -1.75286,2.46553c-1.29667,1.77636 -2.38482,4.35034 -4.63134,4.5213c-6.44703,-0.02711 -15.24352,0.78236 -19.39218,-4.28049c-0.0741,0.01993 -0.157,0.03113 -0.24971,0.03075c-0.74701,-0.00314 -0.63713,-0.75277 -0.63713,-0.75277l0.1093,-0.6467c1.66407,-4.80707 6.47942,-7.02775 10.51312,-9.86065c3.03496,-2.13147 5.91158,-4.48012 9.39114,-3.26151c2.98785,1.87287 6.59397,3.64783 7.41634,6.80341c3.32684,-0.57337 6.99554,-3.3567 10.07437,-5.02361c3.5114,-1.9011 6.81567,-2.84631 10.11342,-5.20503c0.34391,-0.30028 2.90487,-2.00107 2.53005,-2.61272c-0.76792,-1.25315 -3.16175,-2.01592 -4.56698,-2.33234c-3.86998,-0.87139 -7.79873,-0.27318 -10.94582,-2.63826c-0.68261,-0.80651 -1.84743,-1.3824 -2.17483,-2.44999c-1.06576,-3.47535 2.14628,-5.24628 5.02549,-6.39934c5.2525,-2.10353 10.41982,-2.14646 15.69037,-2.04558c1.71131,1.03535 6.26719,2.94349 6.72427,5.13951c0.98946,4.75385 -4.57096,8.18781 -8.61602,9.78684c0.34024,0.53242 0.44365,1.15249 0.11123,1.87792c1.66612,0.01989 3.36891,0.11171 5.06071,-0.08911c0.25421,-0.22345 0.58848,-0.22203 0.58848,-0.22203c0.18234,0.00076 0.53067,0.00223 0.71302,0.003c0.70771,-0.15785 1.41132,-0.38402 2.10727,-0.7056c-0.07216,-0.24258 -0.07847,-0.55873 0.00377,-0.96069c0.22116,-1.08097 3.17101,-2.89101 4.10556,-3.6248c1.33899,-1.05134 2.90672,-2.06473 4.10395,-3.28166c2.58425,-2.62674 4.11409,-5.96506 7.64051,-3.10737c0.67871,0.76928 2.27551,1.70263 2.59087,2.70876c0.80045,2.55382 -2.38089,4.73095 -4.33032,5.82775c-5.25569,2.95696 -10.50022,4.66785 -16.15835,4.64407c-0.27667,-0.00116 -0.55335,-0.00233 -0.83001,-0.0035l-0.16601,-0.0007c0,0 -0.21073,-0.00089 -0.39187,-0.11404z" fill="#ff2d32" stroke="none" stroke-linecap="butt"/><path d="M191.1205,262.46704l-0.57363,-0.40875c0,0 -0.0964,-0.07195 -0.17319,-0.20055c-1.56437,-0.70369 -2.98434,-2.4172 -2.73917,-4.12356c0.02245,-0.15619 1.41066,-2.78891 1.54784,-3.05153c2.74942,-5.264 6.57153,-8.97325 11.405,-12.54724c2.95884,-2.18576 6.07742,-3.93204 9.12994,-5.94877c1.87913,-1.24151 3.72503,-3.03074 5.68596,-4.05015c2.98083,-1.54962 6.26158,-2.70721 9.12543,-4.46218c2.95598,-1.32536 6.31107,-0.29378 9.35305,-0.55842c4.40651,-0.38336 8.44621,-0.4682 12.84662,-0.4497c2.3443,0.09636 3.23585,2.51265 4.43292,4.14198c2.72192,3.70478 4.94085,9.09497 4.77038,14.05691c-0.0397,1.15567 -0.08994,2.89914 -0.83513,3.94329c-0.12256,0.17174 -2.64043,1.98725 -2.87597,2.15889c-10.36186,4.39722 -20.28946,5.75616 -30.99147,6.73766c-3.90859,0.35846 -7.59441,1.48109 -11.47366,2.19164c-5.56106,1.01861 -11.51804,1.12843 -16.82819,3.52761l-0.7729,0.01373c-0.21099,0.05091 -0.37437,-0.00424 -0.49193,-0.0834c-0.12704,-0.06457 -0.25035,-0.17759 -0.29149,-0.37541c-0.08346,-0.17068 -0.16694,-0.34137 -0.25039,-0.51205z" fill="#ab164a" stroke="none" stroke-linecap="butt"/><path d="M255.05703,269.5765c-1.47553,-1.24389 -3.18006,-3.09331 -3.58779,-5.02892c-0.6702,-3.18162 1.7333,-5.23752 2.83597,-8.08521c0.89492,-2.31117 1.43732,-4.99198 1.27403,-7.3154c-1.3942,-2.97187 -5.6472,-3.9171 -8.83821,-5.20819c-0.7789,-0.31513 -1.80954,-0.17404 -2.45915,-0.68171c-3.49151,-2.72855 0.1061,-8.34214 3.72067,-9.50953c3.79107,-1.00773 10.15148,-0.95707 13.83899,-0.29901c1.26258,0.22532 1.53171,-2.17215 5.9456,-4.50436c2.78927,-1.47379 10.29105,-3.35921 11.05315,-3.15278c2.54038,0.68812 -3.34933,10.34721 -0.655,10.38314c7.37715,0.03098 11.01271,-1.92003 18.22186,-4.52042c1.58903,-0.57317 5.28577,-1.2646 6.3029,-2.71983c1.17357,-3.94525 3.7096,-4.77787 7.33606,-5.2843c1.05649,-0.14754 1.91015,-1.12622 2.9863,-0.60678c2.42575,1.17085 1.70515,5.24432 -0.29195,6.90889c-1.43208,1.19364 -3.16797,2.26346 -4.68934,3.3529c-0.67853,0.46911 -1.55352,0.59693 -2.16887,1.15098c-0.46401,0.41779 0.11106,1.13882 0.27233,1.67047c0.51658,1.70306 2.69194,1.60018 4.01061,2.26104c3.41841,1.71316 8.92417,7.44414 7.12502,11.76775c-1.67316,3.28062 -2.49334,7.48463 -5.47264,10.09962c-2.11952,1.86034 -4.50866,1.85093 -7.00626,2.22739c-4.10165,0.61825 -8.05096,1.26396 -12.13883,1.43932c-10.12125,0.43417 -21.35318,0.02668 -30.98674,4.90907c-1.95119,0.88007 -3.70163,1.92144 -5.76412,1.92109l-0.63005,-0.24852c0,0 -0.56944,-0.31098 -0.23452,-0.92674z" fill="#ff2d32" stroke="none" stroke-linecap="butt"/><path d="M227.04241,210.65569c0.01809,-0.01722 0.02843,-0.02623 0.02843,-0.02623l0.05816,0.00336c0.00053,-0.00013 0.00108,-0.00025 0.00163,-0.00038c3.97918,-5.27227 10.16636,-6.08079 15.8603,-5.80349c11.3455,0.55257 23.03056,1.3554 33.86678,3.78373c1.15022,0.53287 4.39502,1.9762 4.75129,2.58975c0.42608,0.73377 -0.27488,1.81789 -0.52841,2.71548c-1.53854,5.44735 -5.80471,8.6742 -10.85009,11.028c-4.66855,2.178 -12.18032,1.94447 -16.62886,0.74011c-3.5322,-0.95629 -5.68054,-2.40751 -9.55631,-2.42742c-0.93829,0.13887 -1.95709,-0.01532 -2.81359,0.48157c-3.35395,1.94572 -4.23806,7.61254 -9.01262,7.61687c-2.59493,0.00235 -3.34288,-2.67167 -3.9659,-4.59633c-0.73269,-2.26346 -0.30555,-4.77083 -0.47844,-7.17824c-0.18136,-2.52529 -1.21168,-4.52396 -2.0117,-6.79822c0,0 -0.47159,-1.34378 0.963,-2.00866c0.11115,-0.05151 0.21652,-0.09096 0.31635,-0.11992z" fill="#0f1b82" stroke="none" stroke-linecap="butt"/><path d="M279.51548,221.16033c0.31086,-0.39215 0.73153,-0.58711 0.73153,-0.58711l0.57795,-0.24111c1.44859,-0.38355 2.92051,-0.3568 4.38037,-0.59039c1.73081,-0.27692 3.38249,-1.23357 5.10261,-1.66661c3.76224,-0.94717 8.03922,-1.59214 11.75249,-1.42462c2.83504,0.1279 7.028,2.83319 5.56673,6.44446c-0.69979,1.72939 -3.50329,3.28383 -4.9265,4.43858c-1.81859,1.47556 -2.93777,3.82881 -4.18629,5.73298c-2.69597,2.59778 -6.46883,7.08662 -9.9586,8.47276c-3.57044,1.41818 -5.05618,-1.67361 -6.27389,-3.97491c-0.7038,-1.33008 -1.76077,-2.43934 -2.35227,-3.83356c-0.68694,-1.61921 -0.39325,-3.65426 -0.74028,-5.38228c-0.38825,-1.93337 -0.93785,-3.58075 -1.07832,-5.61377c0,0 -0.09797,-1.46451 1.40446,-1.77441z" fill="#0f1b82" stroke="none" stroke-linecap="butt"/><path d="M226.38578,211.83024c0,0 1.78206,7.10155 2.01081,8.91944c0.38631,3.0703 1.33236,8.09668 1.33236,8.09668l-5.67869,-7.88196l-7.25248,-1.03061l-6.10168,0.8316l-5.53253,0.83398l3.84213,-9.6993l3.31044,-4.12945l7.67511,2.0325l5.53658,3.02364z" fill="#0066cc" stroke="#0066cc" stroke-linecap="round"/><path d="M286.08418,207.65211l17.19577,5.0729l2.21365,5.29564c0,0 -13.26756,15.0043 -16.51312,15.4573c-1.94045,0.21615 -9.61371,-9.13778 -9.61371,-9.13778l-10.70943,4.09832l-5.78791,3.54754l-0.77018,4.283l-10.92259,-3.18917l-1.72821,-4.72212l-6.62037,-6.3143c0,0 9.3034,3.80616 18.20441,2.10592c11.52216,-2.20091 16.6773,-6.95986 16.6773,-6.95986z" fill="#0066cc" stroke="#0066cc" stroke-linecap="round"/><path d="M279.07488,194.76396c0.21977,-1.49925 1.71378,-1.49297 1.71378,-1.49297l0.58592,0.01113c4.86445,0.56356 9.95409,2.18437 14.35561,3.95143c1.0007,0.42837 2.1618,0.62282 3.00214,1.28511c2.34736,1.84999 0.98525,5.80994 1.61169,8.37503c0.53985,2.21051 3.57109,1.50766 2.86737,4.80896c-0.41372,1.94089 -2.85454,3.15995 -4.45139,3.48181c-1.68496,0.33963 -2.52336,-0.34391 -3.76467,-1.0096c-2.80093,-1.50207 -5.25133,-3.82271 -8.39744,-4.62653c-1.46416,0.89823 -2.89055,1.84659 -4.31953,2.80854c-0.19418,0.19325 -0.46325,0.35657 -0.83602,0.44187c-0.2751,0.08097 -0.61705,0.1172 -0.93745,-0.02809c-0.32921,-0.12891 -0.51278,-0.38691 -0.61501,-0.62714c-0.1604,-0.31106 -0.18625,-0.59977 -0.13843,-0.85559l-0.04429,-1.32753c0.31313,-4.50807 1.17259,-9.06126 1.83602,-13.58072c-0.30968,-0.04373 -0.61852,-0.08304 -0.92622,-0.11772l-0.26782,0.00754c0,0 -1.49403,-0.00628 -1.27426,-1.50553z" fill="#fddfbd" stroke="none" stroke-linecap="butt"/><path d="M286.95532,189.08213l13.21574,8.91377l-0.71162,4.85474c0,0 -2.54019,1.09453 -8.22957,-1.61164c-5.8338,-2.77486 -8.97024,-7.31889 -8.97024,-7.31889z" fill="#f89587" stroke="#f89587" stroke-linecap="round"/><path d="M259.17957,171.95383c3.85816,-2.85915 8.8393,-5.6934 13.33821,-7.0726c2.86896,-0.87952 6.3675,-0.33719 9.20517,-0.32403c3.35181,0.01553 8.34993,-0.10028 11.0936,1.62646c4.14434,2.60823 0.56102,5.2142 -2.79688,6.50391c-1.86544,0.25974 -3.69891,0.3716 -5.52029,0.4271c-0.21902,0.68614 -0.74609,0.9674 -1.14373,1.08269c-3.42975,2.34175 -6.919,1.76714 -10.70551,1.75813c-4.10843,-0.00976 -7.96165,0.16564 -11.75869,-0.35112c-0.04415,0.00867 -0.0883,0.01733 -0.13242,0.02599l-0.04446,0.35104l-2.99134,0.04733c-0.0116,0.00021 -0.02321,0.0003 -0.03483,0.00025c-0.82514,-0.00347 -1.39564,-0.67752 -1.27426,-1.50553c0.11481,-0.78324 0.80756,-1.42369 1.58052,-1.48773l0.46688,-0.04431c0.15289,-0.61869 0.71804,-1.03756 0.71804,-1.03756z" fill="#f89587" stroke="none" stroke-linecap="butt"/><path d="M257.37114,182.89476l0.72561,0.03418c2.53097,-1.26772 5.05859,-2.33817 7.59176,-3.64048c2.02686,-1.04201 4.40377,-2.82203 6.62682,-3.25594c4.811,-0.93898 9.69224,-0.78979 14.51021,-1.70799c3.77457,-0.71934 7.1959,-2.04999 11.03595,-2.59247c2.03607,-0.28211 5.85907,-1.17051 7.35443,0.48423c0.58084,0.64273 -0.50146,1.85112 -0.84314,2.75798c-0.72502,1.92425 -1.55042,4.13555 -1.15819,6.14887c0.41258,2.11783 1.11777,5.16203 1.94044,7.10891c0.56739,1.34275 1.56392,1.97443 1.46829,3.96283c-0.33793,7.02637 -10.05837,5.05376 -13.67997,3.12412c-2.79315,-1.38089 -5.25718,-2.935 -7.27059,-5.19986c-0.10002,-0.11252 0.18514,0.27556 0.14916,0.43691c-0.10425,0.46746 -0.35512,0.91053 -0.55003,1.36077c-0.92537,2.13754 -1.60357,3.94515 -2.28256,6.11219c-1.54138,4.91946 -1.42669,9.66934 -2.11662,14.57569c0.00678,0.46526 -0.18455,0.80963 -0.4197,1.05637c-0.21045,0.26693 -0.52773,0.50889 -1.00219,0.58259l-0.36289,0.11268c-2.37639,0.60811 -4.53433,1.80821 -6.97286,2.01866c-2.08784,0.18018 -3.69008,-0.13126 -5.79936,0.53286c-11.54816,0.05837 -24.29862,0.84156 -33.68799,-5.18234c-3.03055,-1.94429 -5.44909,-3.44875 -6.92956,-6.87933c0.07752,-0.95305 -0.04626,-1.91535 0.23256,-2.85909c1.17762,-3.98615 6.43956,-5.73668 9.64803,-7.4228c2.4821,-1.3044 4.60849,-3.32111 7.08738,-4.68171c4.30688,-2.36395 8.9865,-3.90577 13.29347,-6.22709c0,0 0.06457,-0.03456 0.17158,-0.07601c0.45811,-0.6022 1.23998,-0.68473 1.23998,-0.68473z" fill="#feebf7" stroke="none" stroke-linecap="butt"/><path d="M281.41111,202.31934l-1.56637,-25.00958l3.56994,9.64116l2.43864,3.76071z" fill="#db93e6" stroke="#db93e6" stroke-linecap="round"/><path d="M255.03958,175.7053l3.71321,-3.23478l6.37516,2.40208l7.57631,0.15687l6.97951,-1.72087l8.61281,-5.21442l10.55729,-6.58142l6.21049,-0.72398l2.0542,2.13389l1.655,4.00744l-3.68766,5.61018l-50.10525,12.91592z" fill="#db93e6" stroke="#db93e6" stroke-linecap="round"/><path d="M277.02819,239.2442c1.3773,-1.02872 2.85516,-0.76708 4.47841,-0.98787c1.77478,-0.15177 2.14877,3.95879 4.35618,3.88088c3.50701,-0.12375 8.90308,-4.22585 11.1524,-2.84431c2.32337,1.42701 1.32598,4.75212 3.80908,5.45868c1.02796,0.47777 2.67432,0.49141 3.50196,1.24519c0.62063,0.56523 0.27263,1.73027 0.49057,2.56672c0.2662,1.02168 2.75847,0.80977 2.95662,1.86742c0.10001,0.53385 -0.2655,1.19057 -0.68361,1.62475c-0.21358,0.22177 -1.6786,0.34203 -2.02114,0.40737c-2.32979,0.44454 -4.58233,0.85052 -6.91543,1.22278c-2.67936,0.50564 -5.32564,0.29176 -7.99137,0.47619c-5.04597,0.3491 -11.20165,1.87015 -16.02625,4.1065c-1.81816,0.8411 -7.95232,3.97717 -8.89332,0.93493c-0.4411,-1.42607 1.81077,-2.88497 1.83177,-4.24964c0.0188,-1.2203 -2.05888,-0.12596 -2.46506,-1.62872c-0.32059,-1.18607 1.30766,-1.99991 1.02875,-3.1154c-4.59362,0.40825 -2.33287,-3.80119 -0.20076,-5.78161c2.50509,-2.32687 8.27491,-4.99579 11.59122,-5.18386z" fill="#feebf7" stroke="none" stroke-linecap="butt"/><path d="M245.8214,228.89532c0,0 2.15494,1.17687 1.98387,2.34393c-0.17107,1.16706 -3.13232,1.52881 -3.42541,1.37102c-0.37962,-0.18367 -0.86318,-3.59044 1.44155,-3.71496z" fill="#000000" stroke="none" stroke-linecap="butt"/><path d="M256.95657,191.60941c0.53761,3.83695 0.77356,8.24189 1.8711,11.89629c2.7297,-1.37265 8.90152,-5.05572 10.69398,-8.75367c0.41045,-0.84678 0.59127,-1.69436 0.44853,-2.51514c-0.03136,-0.18029 -1.4387,-0.38632 -2.19481,-0.43733c-1.04891,-0.07074 -1.63327,0.03801 -2.60292,-0.13497c-1.14394,-0.20407 -0.73027,-0.94879 -1.87475,-0.93516c-3.27242,0.03896 -5.92152,0.75317 -6.34116,0.87998zM247.39802,198.12282c-2.89483,3.55737 -0.83869,6.00355 2.10545,6.72842c1.72449,0.42459 3.48666,-0.15313 5.44624,-0.35029c0.44436,-0.16272 0.65766,-0.34543 1.1332,-0.54396c-1.12092,-3.70513 -1.26846,-7.28415 -1.81841,-11.16126c-1.74785,0.90188 -5.57739,3.74296 -6.86648,5.32708zM270.60506,188.83346c3.4924,1.31741 3.33337,4.13625 0.74912,7.48148c-2.22405,2.87897 -4.74932,5.69062 -8.30214,8.0005c-2.38549,1.55094 -5.72294,2.94226 -7.91382,3.72653c-2.36,0.25832 -7.04798,-0.04159 -9.13281,-0.98711c-5.04668,-2.28881 -4.00449,-7.23575 -0.16654,-11.95791c2.02635,-2.49321 7.01576,-5.37146 13.08308,-6.57966c4.59568,-0.91514 10.71644,-0.04851 11.68312,0.31616z" fill="#ff0000" stroke="none" stroke-linecap="butt"/><path d="M279.93885,238.49468c0,0 1.48489,0.10973 2.74452,0.2028c0.81255,0.06003 2.27795,3.66978 3.96668,3.79456c1.52361,0.11259 3.23178,-3.26264 4.75783,-3.14986c2.57647,0.19039 4.67593,0.34551 4.67593,0.34551c0,0 -8.58475,11.21526 -11.27152,11.45399c-1.06697,0.0948 -8.52432,-11.53721 -8.52432,-11.53721z" fill="#db93e6" stroke="#db93e6" stroke-linecap="round"/><path d="M242.52575,244.71317l2.03621,-6.24219c0,0 6.18574,0.33168 9.13043,1.21905c2.06854,0.62335 6.34061,3.72156 6.34061,3.72156l-5.32804,2.35289z" fill="#ab164a" stroke="#ab164a" stroke-linecap="round"/><path d="M315.32917,225.67868l-0.01293,0.0882c-0.34845,2.35203 -1.58292,4.14843 -3.45913,5.78998c-3.20332,2.37033 -6.63322,3.88797 -10.05833,5.79479c-1.09335,0.60868 -3.74821,2.3611 -4.92513,2.33815c-3.59941,-0.07019 -0.82307,-4.60195 0.55903,-5.80598c5.03748,-3.6027 11.33876,-6.79904 16.97989,-9.06022c0,0 0.72989,-0.29241 0.92316,0.39785c0.04994,0.17836 0.03824,0.33017 -0.00658,0.45721z" fill="#ab164a" stroke="none" stroke-linecap="butt"/><path d="M188.15681,238.95616l0.11528,-0.21113c3.41685,-3.29039 7.97368,1.13931 10.38313,3.081c0.66105,0.6057 1.87538,1.55691 2.04364,2.5255c0.30794,1.77256 -0.86084,4.37739 -3.09498,3.79897c-1.78002,-0.46083 -1.98228,-2.43399 -3.24507,-3.46889c-1.98195,-1.62433 -4.62509,-2.88945 -6.78788,-4.32771c0,0 -0.58403,-0.38838 -0.10548,-1.02956c0.23181,-0.3106 0.48838,-0.37959 0.69132,-0.3682z" fill="#feebf7" stroke="none" stroke-linecap="butt"/><path d="M195.70096,237.86683c-0.06323,0.22697 -0.23544,0.5402 -0.70389,0.61474c-0.75492,0.12014 -0.76933,-0.6198 -0.76933,-0.6198l-0.01811,-1.06164c0.41724,-2.71673 2.33897,-3.34621 4.62708,-2.53351c3.31266,1.1766 7.08921,3.63677 9.26013,6.19694c1.54451,2.57258 -0.40326,6.08004 -3.70696,4.49022c-3.24039,-1.55936 -6.32089,-4.39714 -8.68892,-7.08695z" fill="#feebf7" stroke="none" stroke-linecap="butt"/><path d="M204.92917,235.93631c-0.20302,0.09609 -0.39398,0.09529 -0.39398,0.09529l-0.59223,-0.15252c-1.70952,-1.59499 -0.84071,-4.63121 1.89437,-5.16247c3.34235,-0.64922 5.93047,0.86082 8.90245,1.79424c3.0687,1.53861 4.32722,7.04248 -0.26347,7.39499c-3.57945,0.27485 -6.66732,-2.19001 -9.54716,-3.96955z" fill="#feebf7" stroke="none" stroke-linecap="butt"/><path d="M186.81106,260.62669c0.23995,0.00101 0.3915,0.07904 0.48666,0.18452c0.1769,0.0062 0.35378,0.01242 0.53069,0.01862c2.34252,1.68589 3.55221,8.03737 -0.88575,9.27343c-1.93278,0.53832 -5.03147,0.10849 -6.79752,-0.35894c-3.08338,-0.81608 -6.58728,-0.87106 -9.77188,-1.55024c-2.86584,-1.2263 -6.18251,-2.83005 -7.39947,-5.92716c-1.23887,-3.15287 1.80662,-7.06903 4.84199,-8.2947c0.21749,-0.12554 0.40499,-0.12576 0.55167,-0.08075c0.15917,0.02899 0.32138,0.11823 0.41456,0.33734l0.33941,0.51615c0.3244,1.25429 0.43622,2.94261 1.49083,3.7883c1.10389,0.88524 3.40054,0.8378 4.82338,1.05215c3.57334,0.53833 7.48973,0.42533 11.02668,1.10575c0.09714,-0.04049 0.21232,-0.06503 0.34875,-0.06444z" fill="#feebf7" stroke="none" stroke-linecap="butt"/><path d="M274.19208,276.85014c-7.96515,-0.03348 -13.40327,-2.80863 -19.53735,-6.1784c-0.01292,0.02744 -0.02571,0.05496 -0.03838,0.08257c0,0 -0.34047,0.71016 -1.0144,0.47013c-0.67393,-0.24004 -0.33347,-0.9502 -0.33347,-0.9502c0.0474,-0.09602 0.09584,-0.19132 0.14534,-0.28587c-0.48671,-0.26821 -0.97896,-0.53919 -1.47828,-0.81188c0,0 -0.61901,-0.33805 -0.18665,-1.00714c0.43235,-0.66908 1.05136,-0.33103 1.05136,-0.33103c0.48349,0.26403 0.95989,0.5266 1.43073,0.78669c3.88878,-5.72627 11.79144,-8.46501 17.76868,-10.19054c3.71209,-1.06333 3.48802,-0.7855 7.082,-2.30717c4.74669,-2.0097 3.20869,-0.51124 8.09532,-0.97426c0.33036,0.00099 18.89462,-2.29679 18.89462,-2.29679c3.43932,0.01448 0.98969,-3.55208 3.49635,-1.26578c0.69467,1.05745 2.12975,3.38565 3.11105,4.84036c2.02378,-3.04214 2.62183,-7.74453 3.55041,-11.36562c0,0 0.19171,-0.74469 0.92202,-0.65879c0.06192,0.00728 0.11722,0.01931 0.16655,0.03521c0.64246,-0.23229 0.85703,0.37915 0.85703,0.37915c0.69241,1.97306 1.88625,3.91458 2.16136,6.03806c0.74719,5.76745 -3.81191,11.775 -7.74264,16.16185c-3.72288,4.00434 -7.84325,6.44046 -12.81733,8.28635l-0.97989,0.13884c0,0 -0.4391,0.05984 -0.6462,-0.24106c-7.9901,0.06022 -15.92157,1.67912 -23.95822,1.64533z" fill="#ab164a" stroke="none" stroke-linecap="butt"/><path d="M278.35229,229.25065c-0.1367,1.17193 4.61571,7.45448 3.22793,8.33053c-0.29857,0.13805 -0.69672,0.36541 -1.15609,0.6346c-1.96711,1.15276 -5.05662,3.07294 -6.25439,2.03519c-0.57293,-0.49641 0.42842,-3.83604 0.55953,-4.45074c0.73823,-3.46117 1.77031,-6.54667 3.08753,-9.87287c0,0 0.28778,-0.72649 0.98584,-0.54163c0.48724,0.12903 -0.09899,0.85291 -0.45035,3.86493z" fill="#ab164a" stroke="none" stroke-linecap="butt"/><path d="M319.69439,247.6004c0.10988,-0.74963 0.85689,-0.74649 0.85689,-0.74649l0.166,0.0007c2.30944,0.03331 3.85067,1.55151 5.41743,2.90947c0.86577,1.54886 0.20281,3.50956 -0.06902,5.36401c-0.84814,5.78619 -4.94217,13.38034 -10.47179,16.77334c-6.77409,3.14447 -13.70347,5.86354 -20.74366,7.81766c-2.64941,0.73539 -4.88837,1.67073 -7.59841,1.66564c-9.08292,-0.03818 -17.38418,-0.63519 -26.08859,-2.14792c-7.32884,-1.27372 -17.02462,-6.55817 -13.88297,-15.74081c0.5224,-1.66959 1.35396,-4.51399 2.87185,-5.71707c0.92326,-0.73177 2.08993,-1.18131 2.81516,-0.04498c0.4726,0.74048 -0.44053,3.27871 -0.64798,4.14678c-0.633,2.64864 -0.69647,4.99542 1.46705,6.43986c6.94907,2.99479 12.78205,5.51732 21.21797,4.51308c7.31505,0.02058 15.41712,0.25161 22.7364,-2.52217c6.62213,-2.33051 12.60444,-6.6027 18.2428,-10.89236c0.53572,-2.65388 2.10334,-5.08647 3.63578,-7.45912l0.14113,-0.25886c-0.05956,-1.21242 -0.1407,-2.43546 0.02674,-3.60033c0,0 0.00009,-0.00063 0.0003,-0.00186c-0.08036,-0.11084 -0.12653,-0.27001 -0.09303,-0.49859z" fill="#feebf7" stroke="none" stroke-linecap="butt"/><path d="M247.07226,268.79767c0,0 10.54826,16.9077 52.81039,5.61503c7.86542,-2.10168 16.41052,-8.38895 21.38293,-14.1965c3.66264,-4.27778 4.09722,-9.92499 4.09722,-9.92499c0,0 0.43295,2.55131 0.29927,4.65584c-0.15845,2.49475 -1.18839,9.34212 -1.18839,9.34212l-8.47619,7.96533l-20.3063,7.08215l-23.05983,2.06999l-14.43239,-2.39429l-7.33327,-4.36468z" fill="#db93e6" stroke="#db93e6" stroke-linecap="round"/><path d="M246.35492,251.45492c2.05964,-0.80874 2.87126,-1.67314 4.65478,-3.07228c0.46423,-0.3642 1.80804,-1.37285 2.41158,-1.26147c1.5861,0.2927 1.55628,1.83853 1.98792,3.0025c0.12365,0.33343 1.01209,2.27126 0.93161,2.68497c-0.22798,1.17194 -1.48735,1.95653 -2.32068,2.62553c-2.19521,1.7623 -4.12213,3.78354 -6.42281,5.45252c-4.72754,2.29376 -10.7688,1.93522 -15.63459,2.03816c-2.78395,0.0589 -5.51651,0.45034 -8.2561,0.17468l-0.7013,-0.11679c0,0 -0.57616,-0.09726 -0.53576,-0.64701c-3.68878,0.2246 -7.34151,0.8947 -11.01456,2.22294c-3.4867,1.30463 -6.75769,3.29908 -10.22787,4.62387c-3.73817,1.4271 -8.4558,1.60015 -12.21656,1.58434c0,0 -0.28978,-0.00122 -0.48182,-0.18326c-0.3503,0.03514 -0.57871,-0.23474 -0.57871,-0.23474l-0.44622,-0.53142c-0.76578,-0.61489 -2.9394,-4.10188 -3.38594,-5.02377c-0.17048,-0.35197 -0.03802,-1.86767 -0.02718,-1.9644c0.02975,-0.26522 0.41864,1.4513 0.8593,0.78035c0.16027,-0.24403 0.45709,-1.68876 0.51565,-2.08829c0,0 0.10988,-0.74962 0.85689,-0.74649c0.2525,0.00107 0.40707,0.0874 0.50112,0.20125c1.86062,-1.17027 4.64658,-0.61679 6.61807,-0.60852c4.54714,0.01912 9.46313,0.74745 13.99052,-1.20909c5.14354,-2.08891 10.31106,-4.30744 15.56051,-5.96238l0.14031,-0.13792c0,0 0.66354,-0.44727 1.02384,0.15432c0.02367,0.03953 0.04294,0.0784 0.05826,0.11652c7.17987,0.01294 14.92113,-0.51777 22.1397,-1.87411z" fill="#db93e6" stroke="none" stroke-linecap="butt"/><path d="M205.15328,247.01869l-0.40115,-0.66096c0,0 -0.05541,-0.09253 -0.1072,-0.24532c-0.41063,0.04401 -0.88897,-0.06748 -1.21299,-0.65727c-0.67673,-1.23184 0.67324,-2.08648 0.67324,-2.08648c0.52312,-0.33116 1.04627,-0.66234 1.56939,-0.99351l0.73896,-0.40936c0.07349,-0.04485 0.15346,-0.08764 0.24043,-0.12795c0.4683,-0.21704 0.83397,-0.22004 1.11414,-0.12559c0.28608,0.08093 0.56222,0.28268 0.75163,0.7034c0.05037,0.11185 0.08584,0.21977 0.10864,0.32359c0.33653,1.16635 0.38412,2.46727 0.22123,3.73575l-0.07226,0.49298c0.01754,0.30327 -0.05926,0.66503 -0.36629,1.02528c-0.17639,0.25259 -0.44139,0.4963 -0.83594,0.61452c-0.38563,0.15743 -0.71383,0.12331 -0.97035,0.02367c-0.41305,-0.10584 -0.63076,-0.36352 -0.74354,-0.63314c-0.23599,-0.32654 -0.47198,-0.65305 -0.70797,-0.97959z" fill="#db93e6" stroke="none" stroke-linecap="butt"/><path d="M217.1919,235.02416c0.40057,-0.18565 0.72604,-0.21468 0.98714,-0.16011c0.26135,0.05384 0.52501,0.20515 0.75352,0.52135c0.14124,0.1954 0.2203,0.38637 0.25446,0.56859c0.36368,1.00792 0.92178,2.4183 0.65627,3.49914c-0.37721,1.53564 -1.90675,3.95597 -3.78443,4.23087c-2.0181,0.29544 -4.06829,-0.78459 -3.8133,-2.95011c-0.26007,-0.12522 -0.49216,-0.36859 -0.61159,-0.81394c-0.37176,-1.38635 1.09186,-1.95719 1.09186,-1.95719c1.00378,-0.37245 1.97614,-0.96577 2.79262,-1.69922l1.08366,-0.83978c0.14691,-0.14673 0.3393,-0.2835 0.58977,-0.3996z" fill="#db93e6" stroke="none" stroke-linecap="butt"/><path d="M201.70162,249.58816c-0.11784,0.80393 -0.8446,1.45744 -1.64198,1.49159c-0.20774,0.09182 -0.43258,0.14275 -0.66189,0.14179c-0.82514,-0.00347 -1.39564,-0.67752 -1.27426,-1.50553c0.0168,-0.11456 0.04596,-0.22607 0.08592,-0.33316l-0.65061,-0.41659c-0.40501,0.14072 -1.34365,0.33527 -1.74763,-0.68472c-0.52249,-1.31918 0.89435,-2.03161 0.89435,-2.03161c0.56359,-0.28338 1.12717,-0.56675 1.69075,-0.85013l0.65598,-0.30501c0.00196,-0.00092 0.00395,-0.00184 0.00592,-0.00276c0.49823,-0.23091 0.88029,-0.21954 1.16681,-0.10633c0.29565,0.09412 0.57558,0.31856 0.73935,0.78524c0.02894,0.08246 0.05069,0.16237 0.06606,0.23972c0.24899,0.78832 0.76889,1.54559 0.54147,2.38853c-0.0206,0.07635 -0.04782,0.1497 -0.08078,0.22046c0.18154,0.26199 0.26456,0.6 0.21055,0.96852z" fill="#db93e6" stroke="none" stroke-linecap="butt"/><path d="M204.25617,234.95426c2.83216,0.27091 4.77245,1.75328 6.30602,2.73539c2.12173,1.35877 4.13145,7.46011 7.09536,3.07406c1.89443,-2.44482 0.34254,-4.98686 -1.69644,-6.35955c-0.63478,-0.42735 -8.24448,-2.19735 -9.32057,-2.18761c-3.46364,0.0313 -2.83889,2.57784 -2.38437,2.73773zM217.2711,232.71744c1.33517,0.9044 4.01674,3.98398 4.04291,6.32942c0.02509,2.24906 -3.03089,4.76789 -3.23964,4.98007c-4.2293,4.29859 -5.84766,-1.75832 -8.35296,-3.31474c-0.79764,-0.49553 -1.64225,-1.54291 -2.52942,-1.80769c1.65626,1.6876 2.63676,3.03042 3.11708,4.6991c0.50416,1.75151 -0.57962,4.44773 -2.69577,6.32287c-0.38451,0.16706 -1.03841,0.46573 -1.56989,0.0777c-1.24432,-0.90847 -2.51773,-3.34291 -3.11461,-3.98792c-0.48261,-0.52152 -0.96859,-1.05048 -1.46141,-1.57884c0.99072,1.92541 1.5423,3.97423 0.67603,6.55815c-0.46116,0.90521 -1.74339,1.48453 -2.88395,1.57502c-0.75766,0.0601 -1.44595,-0.14205 -1.81423,-0.43882c-2.15666,-1.73796 -3.10657,-4.33936 -4.5317,-6.65456c-0.71245,-1.15741 -2.57518,-3.45645 -3.93651,-4.07263c-5.37529,2.13067 -13.42527,5.22544 -15.90668,7.80429c-1.09766,1.14077 -1.84012,4.12165 -1.43556,5.64966c0.2186,0.82558 0.98277,0.99621 1.5902,1.51594c3.09449,1.92938 23.87361,4.1061 29.27562,3.09117c2.72243,-0.51149 3.87196,-1.56277 6.57823,-2.33886l0.54912,-0.21103c0,0 0.22344,-0.08383 0.50221,-0.08921c1.53305,-0.77335 4.27571,-1.62649 6.03476,-2.30602c2.25478,-0.87103 3.54251,-1.51255 5.5142,-1.92932c3.35012,-0.70812 5.66401,-0.46092 9.21123,-0.79404c3.91947,-0.36806 14.92888,-1.28926 16.59924,-2.27386c1.56764,-0.92405 3.1116,-2.85959 3.1116,-2.85959c-2.56029,0.40062 -4.57088,-0.03489 -6.72917,-0.04396c-0.63669,-0.04988 -1.39162,0.16663 -1.91008,-0.14961c-0.12611,-0.07693 -0.2221,-0.19547 -0.29254,-0.34717c-0.20942,-0.10217 -0.41013,-0.22055 -0.60269,-0.33975c0.1164,-2.3746 0.40445,-4.06471 1.28673,-5.89489c0.35532,-1.05958 1.59758,-3.21125 3.09525,-5.07055c0.09318,-0.20281 -1.65379,-0.16914 -1.22904,-0.35697c0.32186,-0.14233 2.41132,-0.8092 2.84282,-0.86588c0.37,-0.20772 0.7676,-0.37921 1.19471,-0.5046c0.48282,-0.14175 0.9926,-0.24395 1.52096,-0.31238c-1.62256,-2.38918 -3.06823,-6.89803 -7.29252,-8.3146c-0.30054,-0.10079 -1.41096,-0.19701 -2.10822,0.38229c-0.87781,0.72931 -1.43254,2.26201 -2.62192,3.19934c-2.87771,2.26782 -4.75476,3.8719 -5.28135,3.86705c-0.02482,0.14 -0.6135,2.51287 -1.93915,3.18789c-2.96978,1.51219 -8.16154,1.81707 -8.52458,1.28435c-0.31888,-0.46791 3.69015,-2.0206 5.93134,-3.2189c1.44943,-0.77496 1.46693,-1.3517 1.42854,-1.55927c-0.00741,-0.02918 -0.01332,-0.05801 -0.01803,-0.08603c-0.00132,-0.00564 -0.00268,-0.01128 -0.00405,-0.01692c0,0 -0.0025,-0.01348 -0.00522,-0.03776c-1.2567,-2.56424 -3.13987,-7.58586 -8.13106,-9.45985c-4.251,-1.59607 -11.63344,-0.29459 -13.34845,0.12972c-3.98782,0.98664 -6.8885,2.54507 -3.88149,6.5641c0.21264,0.25105 0.4253,0.50212 0.63796,0.75317l0.52991,0.45849c0,0 0.05183,0.04592 0.11245,0.12868c0.13899,0.00165 4.0045,0.16597 6.2051,0.49704c2.82635,0.42519 4.25418,1.1311 5.80368,2.18065zM195.49627,236.44677c3.47303,2.07014 4.97972,2.92667 7.67061,5.85259c0.08041,0.08744 3.06136,5.74861 4.37535,5.29564c2.12068,-4.42596 -3.24673,-9.09669 -6.36517,-11.12629c-2.14826,-1.39816 -4.33315,-3.15231 -5.6808,-0.02197zM193.54503,234.19939c0.81564,-1.16817 1.45919,-1.7651 3.10358,-2.1749c1.11862,-0.27876 3.23549,-0.46868 4.10071,-0.70167c0.98209,-0.26446 0.90905,-1.17375 0.83885,-1.25677c-0.45005,-0.60265 -0.21241,-1.23008 -0.5417,-1.91632c-2.83192,-2.49272 0.05899,-5.0103 1.18921,-5.98379c0.68235,-0.58773 1.98299,-0.92173 1.98299,-0.92173c0.71832,-2.29895 1.56316,-5.1522 2.6243,-7.36475c1.0634,-2.00373 2.57017,-5.65914 4.53502,-7.07071c1.2477,-0.89636 2.38313,-0.65928 3.59693,-0.4972c3.71436,0.49599 7.49147,3.05151 10.57315,4.89686l0.20262,-0.21911c0.43387,-0.48007 0.82319,-1.00051 1.17415,-1.53866c-1.00812,-1.26593 -4.02824,-6.05267 -3.28476,-8.00582c1.3227,-3.47474 13.56948,-10.18504 16.56161,-11.82914c4.2252,-2.32162 9.15521,-4.29564 13.37156,-6.47632c0.05075,-1.72554 -0.5154,-3.81857 -0.25552,-5.67644c0,0 -0.32361,-2.02102 1.27827,-3.9944c1.50453,-1.85346 5.52026,-4.50715 6.87313,-5.44087c5.59799,-3.86356 16.03202,-5.81492 22.28478,-5.78861c2.45856,0.01034 7.19185,0.99503 7.39225,1.14405c1.92405,-1.40104 5.39709,-3.19378 9.2277,-3.83855c2.06542,-0.34766 5.33084,-0.00226 6.03446,0.10556c4.23691,0.6493 4.66374,4.60585 2.94457,8.41996c-0.41057,0.91093 -4.89866,6.29858 -5.12395,10.55606c-0.24121,4.55827 3.42535,12.99773 3.05063,16.17854c0.03135,0.29286 -0.07488,0.56042 -0.20036,0.76542c-0.11629,0.22786 -0.31025,0.48292 -0.628,0.63363l-0.51764,0.4007c-1.36316,0.63177 -2.56182,1.28663 -3.93359,1.57381c-0.00894,0.04348 -0.01618,0.06854 -0.01618,0.06854c-1.22084,4.1877 -1.22857,6.58537 0.88734,9.84726l0.39244,0.19754c0.21913,0.07883 0.39844,0.2234 0.51896,0.41135c0.08628,0.12261 0.16437,0.28121 0.18927,0.47205c0.55984,0.33183 0.44626,1.10669 0.44626,1.10669c-0.06838,0.46643 -0.13673,0.93286 -0.2051,1.3993l-0.13739,0.38021c0.07525,0.06912 0.14353,0.15668 0.20076,0.26677l0.5321,0.66229c1.34996,2.62617 2.65053,5.35669 3.80344,8.11528c0.16243,-0.10752 0.44068,-0.25734 0.75167,-0.27626l1.13854,-0.26354c2.91018,-0.68135 3.63051,0.17713 4.52606,2.31505c1.36272,3.25319 1.56536,4.97589 0.14307,7.13402c-1.64958,2.50297 -5.22116,4.39545 -7.97639,6.10104c4.15156,1.70447 6.69319,3.43902 9.97902,6.72311l3.0049,2.12645c1.95883,1.06912 5.20251,3.2331 7.16163,4.30302c0.33767,0.09514 0.51277,0.31514 0.60186,0.54153c0.11578,0.21131 0.17679,0.49574 0.05075,0.85271c-0.53469,3.64771 -1.08647,7.41206 -1.62055,11.05568c-0.21259,1.45037 -0.2174,3.24263 -1.02561,4.61269c-2.44316,4.14164 -9.44882,7.66896 -13.61402,9.23468c-9.13632,3.56158 -18.33697,6.96637 -27.73129,7.31702c-18.73224,0.43363 -23.1935,-1.56651 -24.89354,-2.22683c-4.46659,-1.17768 -9.39405,-3.95828 -12.40549,-7.51222c-2.21371,-2.61249 -1.89846,-7.31549 -0.60636,-11.19581c-2.2775,0.90959 -4.58515,1.01405 -7.05151,1.2478c-0.40956,0.03882 -0.81855,0.07683 -1.22706,0.11391c-6.41406,1.37226 -13.45143,2.06109 -19.66721,1.66868c-0.30121,0.44511 -0.86474,0.50087 -0.86474,0.50087l-1.41812,0.13959c-3.3812,0.596 -6.03788,1.5457 -10.61044,3.02874c-3.80477,2.16221 -6.45807,2.80114 -10.95731,3.27057c-6.42952,0.67082 -13.47536,0.34933 -19.22914,-1.06214c-1.79515,-0.44037 -2.51699,-0.83239 -4.09435,-1.33594c-2.39963,-0.78621 -5.56801,-1.27663 -7.26913,-3.49903c-0.53386,-0.69744 -1.37154,-3.4433 -1.72519,-4.60393c-0.50927,-1.67131 -0.32638,-1.91146 0.58765,-3.65146c0.53468,-1.01786 1.93528,-2.34398 2.6847,-3.28419c0.94072,-1.18021 2.07167,-2.17852 3.26331,-3.08773c0,0 0.44808,-0.90736 1.15115,-1.86037c0.54852,-0.74352 1.32313,-1.51452 1.6979,-1.90597c3.45803,-3.61206 13.95844,-8.77418 13.95844,-8.77418c0,0 0.25117,-2.22442 2.44675,-3.35524c1.03944,-0.53537 2.33709,-0.29949 4.41504,-0.35127c0.86619,-0.02159 1.27239,-0.81254 1.35814,-0.94718zM188.88991,238.98944c4.68728,1.99892 5.86204,4.5601 8.68621,8.56443c0.55773,0.79078 2.4489,4.21984 3.29246,2.11581c0.25009,-1.57509 -0.57898,-2.48761 -1.27366,-3.70326c-1.3036,-2.28119 -3.2065,-5.35198 -5.47922,-7.07109c-0.02374,0.00367 -1.61006,-1.16446 -2.56946,-1.1632c-1.67983,0.00221 -2.6563,1.2573 -2.6563,1.2573zM306.1471,248.36406c2.43723,0.98269 4.31259,4.05592 0.25806,5.28403c-4.41709,1.33792 -8.98549,0.61081 -13.40839,1.46648c-5.77924,0.45616 -11.66346,1.45323 -17.43374,3.11423c-2.36575,0.68098 -8.09396,3.68372 -11.17781,2.35704c-1.41345,-0.60808 1.14948,-4.69819 1.39495,-5.10697c-0.20478,-0.02464 -0.99744,0.46287 -1.57222,0.50848c-3.31015,0.26266 -0.47943,-3.67583 0.65046,-5.05832c-1.66672,0.01189 -3.42268,1.0628 -3.80367,-1.01452c0.44691,-1.1737 1.05996,-2.6275 2.01768,-3.93959c0.78093,-1.06989 1.8578,-2.04525 2.71298,-2.69998c-0.26569,-0.13589 -0.39453,-0.38545 -0.39453,-0.38545l-0.4156,-0.8104c-0.57807,-1.37605 -1.41874,-2.38629 -1.73395,-3.88211l-0.06257,-0.2125c-3.71909,-1.57453 -8.76374,-3.21667 -12.83583,-3.21393c0,0 -0.469,-0.00196 -0.78894,-0.29232c-2.93959,0.8436 -4.64272,3.21512 -5.55883,6.13649c-0.33266,1.06084 -1.08988,2.93573 -0.87626,3.90329c0.11227,-0.02615 0.19296,-0.02582 0.19296,-0.02582l0.62251,0.00262c0.34811,0.00147 0.69577,-0.00273 1.04302,-0.01161c-0.0298,-0.32137 0.06803,-0.60394 0.06803,-0.60394c0.89835,-2.14097 1.23041,-2.96706 4.58256,-2.53136c3.12056,-0.23841 2.46019,2.15804 1.89258,2.65549c1.44858,-0.1208 5.51678,-0.06012 4.98854,0.54427c-0.65317,0.74735 -1.36159,0.74739 -1.61377,0.75197c-0.05926,0.0279 -0.11906,0.05521 -0.17934,0.08199c0.86624,2.11851 1.73106,4.45357 2.2459,6.69275l0.0387,0.20685c0.09316,0.19995 0.07725,0.41457 0.03127,0.59064c-0.0264,0.15154 -0.0861,0.32707 -0.21268,0.48695c0.00129,0.20623 -0.0524,0.36993 -0.0524,0.36993c-0.76243,2.32341 -1.4762,3.87942 -3.27817,5.68383c-0.47447,1.80456 -0.95049,3.83882 -0.63702,5.31588c0.3252,1.5323 1.86716,2.23155 3.02198,2.99955c3.35256,2.2296 7.45483,2.85225 11.48062,3.7629c6.0166,0.90414 11.8985,0.86154 18.14339,-0.41546l0.51395,-0.02559c0,0 0.05709,0.00024 0.14502,0.01288l0.6408,-0.13028c5.89827,-0.46275 12.68571,-2.35303 18.25345,-5.11136c5.60998,-3.68835 13.94992,-8.28833 12.98977,-15.81943c-0.0688,-0.53964 -2.1899,-4.62254 -4.99119,-7.28138c-3.20065,-3.03788 -7.30304,-4.68886 -10.48595,-5.24691c0,0 -1.2912,0.42549 -0.90588,-0.80604c0.38532,-1.23152 4.2096,-2.90511 5.19157,-3.48328c-0.57525,-0.10091 -0.5233,-0.43347 -0.43247,-1.05314c0.03347,-0.22835 0.12589,-0.44213 0.2595,-0.62588l0.77344,-1.10203l0.03672,0.02246l0.04968,-0.13417c1.52683,-1.50067 4.03162,-4.1385 5.10214,-0.81227c0.19235,-0.21787 0.36705,-0.44027 0.52091,-0.6675c1.73485,-2.56238 0.10558,-6.10085 -2.98861,-5.3368c-0.02431,0.00601 -2.67683,1.67254 -4.15411,2.89594c-1.95106,1.61578 -2.94234,2.9954 -3.88989,4.05782c-3.05197,3.42198 -3.6946,4.76325 -6.44255,7.13636c2.61076,0.45326 4.37288,1.79167 5.07395,4.86453l-0.0796,0.9759c0,0 -0.01191,0.0812 -0.052,0.19726c0.08536,0.03817 2.63275,0.69229 3.03206,0.92749c2.13374,1.2568 2.48885,3.83403 2.48885,3.83403zM275.4334,256.3234c5.88203,-1.69593 11.68318,-2.73028 17.57502,-3.18939c3.22143,-0.60711 6.5155,-0.49476 9.74468,-0.83783c0.6591,-0.07002 3.55992,-0.15056 3.93314,-0.53439c0.36491,-0.37531 -1.91032,-2.11324 -3.9921,-1.96386c-7.43336,0.53341 -19.50387,1.71921 -23.12296,2.24793c-2.08019,0.30389 -8.74724,1.66333 -11.91836,3.58163c-1.57395,0.95212 -1.80174,3.19776 -1.8787,3.62206c3.04731,-0.27831 6.61377,-2.04804 9.65933,-2.92616zM289.81701,242.21551c3.08412,-0.02127 5.53586,-0.22002 8.46506,0.54099c-0.70223,-2.84634 -2.73035,-2.7034 -5.5314,-2.77938c-1.22946,0.94439 -1.35256,1.42534 -2.93365,2.23839zM269.85908,249.34441c-0.83696,0.52798 -5.31634,3.04528 -4.21848,3.85127c3.65199,-0.41369 13.08317,-2.98607 16.66488,-3.51533c6.69403,-0.98915 8.06889,-1.51783 14.73119,-1.48982c1.23366,0.00518 2.68381,-0.27435 4.042,-0.28333c0.91512,-0.00605 1.75648,0.32904 2.58278,0.13092c-0.29015,-0.81072 -1.06526,-2.69026 -3.03214,-3.24335c-1.99082,-0.55982 -9.14751,-1.2621 -15.82495,-0.34119c-6.53467,0.90122 -12.58769,3.40362 -14.94527,4.89084zM280.5473,238.98073c-3.39516,0.95483 -9.00767,3.3249 -12.89429,5.81461c-2.00258,1.28281 -3.30378,1.93727 -4.11695,3.82941c-0.19654,0.44837 3.43753,-0.62736 4.06797,-0.63273c6.71251,-3.09671 10.32021,-4.21575 15.9955,-5.32634c-1.071,-0.97973 -2.14552,-2.1587 -3.05222,-3.68496zM217.9749,261.77108c2.77481,-0.26109 18.36166,-0.80891 22.96015,-1.63211c0.87881,-0.2964 1.8393,-0.31174 2.74111,-0.47358c2.08034,-0.66417 3.91619,-1.42563 5.66782,-3.01514c1.16499,-1.55315 2.19486,-2.85804 4.11923,-3.80085c0.25018,-0.12257 0.9962,-0.65977 1.13201,-0.68583c-0.38053,-1.59555 -0.62733,-2.98273 -1.24002,-4.54532c-0.2204,0.35127 -0.55452,0.55355 -0.55452,0.55355l-0.26634,0.14956c-1.34045,1.03425 -1.17106,0.48165 -1.90169,1.08907c-0.86009,0.71506 -2.616,2.54814 -4.40558,3.30178c-4.17519,1.08924 -11.28115,1.17477 -15.43637,1.57067c-2.80948,0.26768 -8.23528,-0.09271 -10.90169,0.37438c-1.291,0.22615 0.06322,0.56907 -0.95275,0.98566c-2.19822,0.90136 -5.67704,2.18881 -8.45106,3.64757c0,0 -6.38618,2.07519 -9.24609,2.62766c-4.84997,0.9369 -22.90998,-0.75318 -30.43054,-3.10618c-2.14093,-0.66985 -3.03494,-3.50516 -3.03283,-3.59394c-0.55686,0.49321 -0.88423,0.29796 -1.34399,0.88022c-0.70509,0.89295 -1.58677,1.44793 -2.11251,2.40087c-0.27536,0.49911 0.48,2.45436 1.19894,3.56409c1.61027,2.48557 3.18552,4.11075 5.33725,4.8149c9.6377,3.07878 23.79953,3.7909 32.96107,-0.61777c2.84728,-1.3204 10.75754,-4.16928 14.15838,-4.48928zM238.74273,217.79349c0.48469,-0.93528 5.49745,4.22021 5.54303,4.45058c3.11562,0.78342 6.07145,4.75802 7.41176,7.37196c0.1787,0.34853 0.89023,2.03075 0.8372,3.07423c4.02877,0.19869 8.28979,1.61404 9.77309,2.16403c-0.37661,-3.40093 2.11883,-5.47074 5.24956,-7.03011c0.91145,-0.72036 2.95115,-1.65926 5.48251,-2.50073c2.07968,-0.69131 5.74873,-1.42483 6.28201,-1.64983c0.88915,-0.37517 0.47875,4.5653 0.60544,5.38064c0.29039,1.86886 3.16046,8.89765 5.88854,11.90677c2.74577,-0.13037 5.12187,-2.02465 7.15521,-3.8791c3.35318,-3.05815 5.92117,-7.01054 8.76223,-10.16346c1.38919,-1.54169 3.08634,-2.79936 4.74099,-4.08562c-1.14535,-2.79856 -2.45492,-5.58708 -3.82804,-8.24718c-1.43358,0.66179 -2.79716,1.51447 -4.25383,2.18957l-0.18089,0.08384c-0.26321,0.19607 -0.54205,0.24876 -0.77137,0.24643c-0.23401,0.01971 -0.50709,-0.01336 -0.73234,-0.19613c-3.56528,-1.6051 -6.57747,-4.30047 -9.82997,-6.3602l-0.40803,-0.14266c-2.8609,2.10743 -6.16062,5.00006 -9.87665,8.25264c0,0 0.28732,-1.34928 0.87174,-2.32935c0.16188,-0.27146 0.32681,-0.78111 0.36888,-0.85457c-1.05514,0.41493 -3.71743,1.29235 -5.82412,1.67225c-7.73494,1.39484 -19.49901,1.56431 -29.52772,-0.35814c-6.05297,-1.16032 -12.25196,-4.49969 -14.26297,-5.91773c-0.32966,0.46327 -0.68363,0.91192 -1.06307,1.33773l-0.79563,0.86053c-0.22181,0.27773 -0.4631,0.39123 -0.67941,0.42384c-0.21546,0.05149 -0.46448,0.03333 -0.71285,-0.15335c-2.083,-1.27833 -6.73758,-3.42015 -9.87493,-4.25201c-1.44617,-0.38346 -2.85571,-0.18682 -3.03143,-0.03857c-1.54881,1.30666 -2.54476,3.82088 -3.4426,5.51264c-0.99669,2.07971 -1.67424,4.02291 -2.35176,6.18519c0,0 10.36622,-3.06343 13.82369,-2.46854c6.06622,1.04377 10.13,9.84041 11.44293,12.50907c0.33237,-0.32782 3.54657,-2.63786 5.43724,-4.52458c0.57593,-0.57473 1.53886,-2.34527 1.61424,-2.44383c0.72977,-0.9542 1.58983,-1.4712 2.52509,-1.67721l-0.01309,-0.01527c0,0 -2.57928,-3.90025 -2.35465,-4.33374zM279.09411,235.70287c-0.96748,-3.08112 -1.22203,-7.47281 -1.21327,-8.16472c0.0023,-0.18238 0.0376,-0.46529 0.09201,-0.75821c-0.21119,0.14403 -1.83061,-0.09958 -2.41115,0.09193c-1.07483,0.35456 -2.4794,0.81483 -3.83727,1.20491c-4.00065,1.48153 -8.68973,3.08124 -7.06975,7.69547c0.16015,0.06572 0.3185,0.13132 0.47491,0.19662c0.31759,0.04364 1.07144,0.25168 0.92612,1.24302c-0.08011,0.54651 -0.3634,0.85297 -0.65681,1.0248c0.35407,1.00698 1.02315,1.84671 1.45129,2.85787l0.36065,0.69304c0,0 0.09275,0.17963 0.10119,0.42723c3.82832,-2.42103 8.65004,-3.9081 12.34893,-4.97824c-0.20658,-0.48135 -0.39666,-0.99163 -0.56688,-1.53372zM320.54138,249.37268c1.08927,8.82947 -5.04784,13.64153 -12.71212,17.66747c-5.93213,2.95418 -14.90019,5.88977 -21.1902,6.3833l-0.98672,0.22043c0,0 -0.27739,0.05877 -0.58086,-0.0058c-6.3566,1.2276 -12.37485,1.23907 -18.5151,0.31089c-5.136,-1.16345 -14.79479,-2.25979 -16.16834,-8.36829c-0.30851,-1.37203 -0.08388,-3.06755 0.27528,-4.73363c0.05256,-0.51454 0.12124,-1.03933 0.19926,-1.57462c-1.64465,1.58799 -2.35672,3.56453 -2.91024,5.29552c0,0 -0.01211,0.03693 -0.03858,0.09513c-0.02147,0.05253 -0.04823,0.10926 -0.08135,0.167c-0.47062,2.49904 -0.30198,3.9708 0.95912,5.4634c2.75379,3.25936 6.99914,6.61894 11.07293,7.70195c1.01898,0.39866 12.83851,2.612 25.25333,1.63583c10.55951,-0.83027 21.04725,-5.03782 25.43236,-6.74896c2.9163,-1.09153 11.66837,-7.18818 12.65657,-8.81613c0.79578,-1.31096 0.67124,-2.32771 0.87717,-3.7326c0.44453,-3.03265 0.88907,-6.06529 1.3336,-9.09795c-1.68846,-0.92211 -3.37412,-1.8427 -5.06199,-2.76502c0.08253,0.29663 0.14821,0.59659 0.18589,0.90205zM303.18878,194.1293c0.19185,-0.48432 1.0493,0.10216 1.0493,0.10216l0.56801,0.16101c0.00954,0.00786 0.0191,0.01572 0.02863,0.02359c0.23473,-2.93102 -2.19264,-8.59129 -2.88809,-12.93482c-0.45635,-2.85028 0.32512,-5.13146 0.52969,-5.71316c0.89651,-2.5492 3.19472,-5.65648 4.30504,-8.07925c0.44523,-0.97149 0.09745,-4.50563 -0.80886,-5.09886c-1.92543,-1.2603 -3.89611,-0.47241 -6.23372,-0.48562c-2.44858,0.2195 -4.26944,1.58318 -6.29281,3.0796c-3.72841,2.75739 -8.00151,5.95832 -12.164,7.9104c-0.27597,0.43586 -0.76419,0.63144 -0.76419,0.63144c-3.51345,1.40177 -9.33463,2.54923 -13.89079,2.11402c-4.36933,-0.41735 -7.55053,-2.39055 -7.55053,-2.39055c-0.27598,0.31614 -2.79016,2.37207 -3.23086,2.58872c-0.30037,0.14766 0.47921,6.16727 0.58304,8.26288c0.05435,1.09647 -0.46377,1.50182 -0.46377,1.50182c-4.39673,2.33971 -9.65448,3.7102 -14.06419,6.13263c-4.11472,2.26039 -13.52602,6.94193 -15.19089,9.72216c-0.46033,0.76871 1.14561,4.62065 4.71751,7.38936c3.48623,2.70233 8.57921,4.5684 14.15971,5.56253c7.66232,1.36501 16.06854,1.54163 22.65779,0.79486c3.12777,-0.35448 6.01354,-1.40055 7.90503,-1.72801c1.69271,-0.29306 3.69237,-0.62124 3.69237,-0.62124c0.48032,-3.67205 -0.059,-8.01083 1.29878,-11.73017c0.42788,-1.1721 1.00883,-4.14267 1.64046,-5.9987c0.95765,-2.81409 1.93818,-4.46529 1.93818,-4.46529c-4.1105,-7.05791 -2.54289,-7.99303 -2.54289,-7.99303c2.40953,4.70025 7.51052,11.0787 12.5451,12.56783c1.95033,0.57687 4.4005,0.48098 6.49544,0.38407c0.8708,-0.04028 1.65993,-0.351 2.44489,-0.72621c-0.10027,-0.08929 -0.57501,-0.70774 -0.47343,-0.96415zM288.22858,208.27228c3.15404,1.98279 6.06662,4.62018 9.49452,6.20883c1.26357,-0.59413 2.44576,-1.28561 3.67283,-1.89617c0.02098,-0.23865 0.09219,-0.41847 0.09219,-0.41847l0.23482,-0.49591c0.05528,-0.37718 0.11057,-0.75434 0.16586,-1.13152c-0.0299,-0.02024 -0.05858,-0.04196 -0.08596,-0.06506l-1.10489,-0.82709c-2.38248,-3.67541 -2.49993,-6.73481 -1.2701,-11.25353c-1.95054,0.06029 -3.46818,-0.25917 -5.16082,-0.78303c-2.59711,-0.80379 -3.89821,-2.26645 -8.16293,-4.96967c-1.68929,2.97249 -3.64535,15.17983 -3.81799,18.13155c1.05322,-0.91038 2.15163,-1.77536 3.29942,-2.60415c0.2514,-0.26913 0.54173,-0.37193 0.79248,-0.40121c0.25024,-0.05608 0.54434,-0.05262 0.81001,0.12919zM288.03003,165.90603c-2.54919,-0.70548 -5.21597,-0.67053 -7.95269,-0.68204c-5.87674,-0.02471 -16.98444,3.2072 -19.69286,6.9838c3.50382,2.08296 11.73363,2.59219 17.92133,0.49373c5.17742,-1.75582 8.60232,-5.93853 9.72422,-6.79548z" fill="#000000" stroke="none" stroke-linecap="butt"/></g><g><g><path d="M364.26515,150.40749c-0.3067,0.54198 -0.75991,0.55545 -1.05822,0.48848c-0.12215,2.56433 -2.40414,4.39303 -4.36602,6.09731c-1.35324,1.17556 -3.18773,1.60567 -4.8145,1.44709c-4.22812,-0.41214 -7.57395,-1.332 -11.55346,-2.71143c-2.34279,-1.41721 -8.11515,-2.49055 -8.72953,-5.53096c-0.59663,-2.95254 3.12276,-3.15155 4.96617,-3.28938c6.55536,-0.49007 12.64102,-0.61258 19.14981,0.56649c1.79917,0.32666 3.50291,0.54806 5.23363,1.1393l0.7943,0.43026c0,0 0.87031,0.49249 0.37782,1.36281z" fill="#0f1b82" stroke="none" stroke-width="0.5" stroke-linecap="butt"/><path d="M334.09624,146.60832c0.08742,-0.77225 0.92078,-0.83323 0.92078,-0.83323l1.39626,-0.10217c2.73256,-0.19997 5.46899,-0.19761 8.19273,-0.39901c5.32004,-0.38932 13.81829,-2.29306 18.36962,1.09447c2.32539,1.73077 0.93044,5.98575 -1.09198,7.37775c-0.77511,0.5335 -3.09904,0.24503 -3.99212,0.16478c-8.4,-1.09305 -15.93021,-1.74625 -23.60721,-5.61814c0,0 -0.89276,-0.45055 -0.44222,-1.3433c0.07461,-0.14784 0.16134,-0.25884 0.25414,-0.34115z" fill="#0066cc" stroke="none" stroke-width="0.5" stroke-linecap="butt"/><path d="M331.60442,138.78046c0.00664,-0.13826 0.06083,-0.29185 0.19875,-0.45156c0.49021,-0.56762 1.05783,-0.07742 1.05783,-0.07742l0.82329,0.76187c0.82542,3.28594 0.24232,5.60992 -0.56897,8.75327c-0.57121,2.21315 -0.32124,4.87216 -0.71919,7.16259c-0.45188,2.13697 -2.25891,6.52162 -4.65513,6.78786c-2.34262,0.26028 -4.62924,-2.27904 -5.7667,-3.55728c-1.00621,-1.13076 -3.86275,0.59646 -4.93486,-1.6693c-0.19073,-0.40308 -0.09187,-0.8871 -0.1378,-1.33064c0.77587,-5.20096 5.74211,-7.54348 8.9547,-11.02604c1.79946,-1.95069 3.68559,-3.66236 5.74809,-5.35334z" fill="#fddfbd" stroke="none" stroke-width="0.5" stroke-linecap="butt"/><path d="M326.85958,152.05278l0.20753,0.059c-0.04054,0.16109 -0.08947,0.33128 -0.14418,0.50857c0.04155,1.18344 -0.46103,2.36328 -1.06127,3.63056c-0.21374,1.51858 0.23828,2.70302 2.70544,2.52402c0.56775,-0.04118 1.12666,-0.17582 1.67644,-0.32713c0.11637,-0.06354 0.26581,-0.09681 0.45602,-0.06476c0.13976,0.01261 0.30344,0.06127 0.43433,0.19717c0.13871,0.1279 0.19092,0.29049 0.20657,0.42994c0.03796,0.19871 0.00306,0.35418 -0.06398,0.47435l-0.09892,0.34984c-1.5406,3.2189 -3.81504,10.56351 -8.77331,6.98515c-0.05575,-0.04024 -2.09649,-1.91043 -2.13421,-1.94496c-1.04366,-0.7546 -3.02375,-1.73486 -3.58259,-2.96041c-2.49465,-5.47083 4.93112,-10.55211 9.09169,-12.29664c0,0 0.69231,-0.28847 0.98077,0.40384c0.10512,0.25227 0.08,0.45093 0.0056,0.60153c0.10893,0.10076 0.18835,0.23383 0.22235,0.38549l0.17649,0.7269l-0.11309,0.02747l0.01672,0.22854l-0.21743,0.01591c0.0031,0.01521 0.00611,0.03042 0.00902,0.04561z" fill="#f89587" stroke="none" stroke-width="0.5" stroke-linecap="butt"/><path d="M311.19741,99.82606c3.47338,4.3642 3.90855,12.51111 3.30522,17.92076c-0.59866,5.36778 -7.12429,14.39288 -8.76153,17.62109c-2.65656,5.23802 -2.9562,7.28992 -6.50106,10.80848c-4.00179,3.97211 -14.05153,1.27127 -19.09578,1.72053c-3.53455,0.3148 -7.3743,0.71709 -10.90856,1.03507c-7.61119,0.68479 -15.8977,1.37588 -23.51505,1.97406c-0.06891,0.00541 -4.15877,0.58066 -7.39347,0.53023c-0.15417,0.00023 -0.30753,-0.00372 -0.45993,-0.01173c-3.18697,-0.16749 -5.95986,-2.11163 -7.25904,-4.91728c-3.36332,-5.41079 -3.42421,-14.48783 -4.43386,-19.70324c-0.58281,-3.01052 -0.95845,-5.98564 -1.46992,-8.98759c-0.69914,-4.1035 -1.94081,-6.16341 -1.52919,-10.6202c0.27857,-3.01599 -1.37266,-11.11054 0.52203,-12.38517l0.84886,-0.57105c4.43465,-5.84636 16.35662,-8.54726 21.83269,-10.26935c4.61248,-1.45051 10.74479,-1.45191 15.17738,-1.89263c1.71155,-0.17017 3.07632,-1.19017 4.82038,-1.10476c2.20808,0.10813 4.76564,1.34733 6.906,1.2493c11.06543,-0.50674 24.01555,0.26828 33.93964,5.2766l1.3379,1.15543c1.40843,1.21635 2.41989,2.89235 2.79009,4.81699c0.09774,0.36089 0.14348,0.70497 0.13489,1.0433c0.11009,1.62715 -0.24582,3.17937 -0.95424,4.52525c0.23013,0.25494 0.45243,0.51685 0.66658,0.78591z" fill="#ff2d32" stroke="none" stroke-width="0.5" stroke-linecap="butt"/><path d="M307.109,88.65613c0.28555,-0.69351 0.97907,-0.40795 0.97907,-0.40795l0.53298,0.23254c0.71626,0.46137 1.38273,0.9994 2.02781,1.55596c1.91124,2.05741 1.54736,2.94198 3.54131,4.73895c1.6124,1.45312 4.85214,5.18978 5.51745,7.1442c1.09942,3.2297 2.30007,5.92738 4.02196,8.83058c0.85025,2.04055 2.05026,3.82001 2.49816,6.02913c0.26204,1.29241 0.25699,2.76164 0.85003,3.97608c0.99896,2.04571 2.71543,3.66269 3.63501,5.76295c1.0002,2.2844 0.8694,4.97071 0.56623,7.39418c-0.77808,4.48758 -3.05161,7.35743 -6.0544,10.64983c-1.50599,1.65123 -3.17087,3.99655 -5.45301,4.60264c-1.24411,0.33042 -2.83605,0.22111 -4.1298,0.31579c-1.97506,0.12103 -3.62923,-0.93282 -5.57958,-1.00107c-3.20696,-0.11222 -5.23578,-1.24895 -8.19325,-2.26409c-3.02711,-1.03906 -6.20154,-1.54988 -9.26555,-2.46075c-2.63334,-1.26552 -2.08942,-3.12522 -1.8051,-5.77678c0.43329,-4.04085 1.79853,-8.1384 1.50081,-12.20688c0,0 -0.0026,-0.03555 0.00108,-0.0917c0.00188,-0.05623 0.00799,-0.09135 0.00799,-0.09135l0.13654,-0.78288c0.32884,-3.44898 1.48085,-6.99024 2.0525,-10.40602c0.00008,-0.00048 0.00012,-0.00072 0.00012,-0.00072v-0.00001l0.14655,-0.84072c1.54586,-6.08703 2.17317,-11.81871 4.47587,-17.69919c-0.01946,-0.13241 0.00635,-0.25584 0.04463,-0.3566c0.03089,-0.10895 0.08774,-0.22977 0.19163,-0.32701c0.63825,-3.84131 4.09266,-5.97828 7.74631,-6.50264c0.00215,-0.00545 0.00435,-0.01094 0.00661,-0.01644z" fill="#ab164a" stroke="none" stroke-width="0.5" stroke-linecap="butt"/><path d="M230.87668,149.60029c0,0 -4.23379,-19.87329 -6.39561,-36.29302c-1.31461,-9.98496 -2.70104,-18.63149 0.51632,-20.93239c18.03823,-12.90004 44.29423,-10.33265 57.11169,-9.95616c7.67741,0.22551 21.7511,2.11382 26.6191,6.84835c9.51772,9.25672 14.41358,20.44253 17.83529,28.56572c3.06721,7.28161 5.14104,12.02267 5.14104,12.02267l-2.26215,10.19228l-11.39829,10.94442c0,0 -35.20912,-11.54128 -50.77747,-11.13265c-24.74657,0.64954 -36.3899,9.7408 -36.3899,9.7408z" fill="none" stroke="#000000" stroke-width="3" stroke-linecap="round"/><path d="M290.8408,143.20679c0,0 0.65519,-26.8454 8.8749,-49.16404c1.53479,-4.16736 6.95425,-5.13604 6.95425,-5.13604" fill="none" stroke="#000000" stroke-width="1.5" stroke-linecap="round"/><path d="M234.52987,154.81693c2.32592,-5.37274 6.73609,-6.71129 12.12567,-8.48556c2.36338,-0.77803 4.78504,-1.82957 7.2127,-2.36852c6.84042,-1.51862 14.97451,-0.2849 21.68354,1.25543c9.82017,2.89334 20.61705,4.39954 28.67769,11.06687c1.36789,1.15623 1.61918,1.75022 2.36988,3.34547c4.49192,9.54532 -8.54553,10.98259 -14.48098,14.05713c-5.67288,2.76559 -12.5691,5.03735 -18.8421,6.04646c-2.52195,0.40569 2.2012,-0.97156 -0.28644,-0.37185c-8.33293,1.6662 -24.81636,3.4233 -33.19738,2.20302c-4.83831,-0.70777 -10.30408,-1.85543 -14.51617,-4.44742c-3.68283,-2.26629 -3.7086,-5.80821 -1.02781,-8.81265c2.74624,-1.34661 5.37794,-2.88138 8.32057,-3.79396c0.68521,-0.2125 3.18836,-0.52528 3.70066,-1.23771c0.29621,-0.41196 -0.26594,-0.97936 -0.39343,-1.47046c-0.54795,-2.11087 -1.61323,-3.96501 -2.24014,-6.02508c0,0 -0.2157,-0.71831 0.50262,-0.93402c0.15197,-0.04563 0.28145,-0.04946 0.39115,-0.02713z" fill="#fddfbd" stroke="none" stroke-width="0.5" stroke-linecap="butt"/><path d="M230.92452,149.79731c0,0 23.95751,-10.24648 37.211,-10.02409c15.40197,0.25843 49.72732,11.48286 49.72732,11.48286l-0.90968,9.49171l-2.12115,1.1579l-9.45273,5.10351l-3.62937,-5.75045l-8.31914,9.63286c0,0 -10.28834,-17.95556 -12.33485,-18.2336c-2.05114,-0.27868 -16.07707,10.88763 -16.07707,10.88763l-3.05053,-17.02276l-27.1371,12.81476z" fill="#f89587" stroke="#f89587" stroke-width="0.5" stroke-linecap="round"/><path d="M326.04633,151.0051c-1.79666,0.96428 -3.76691,2.08476 -5.54191,3.15166c0.62119,1.72757 2.17393,4.01408 3.32138,5.65329c0.83598,-2.84418 2.12673,-5.8788 2.22054,-8.80494zM318.10285,155.678c-0.36106,2.48272 -0.40979,5.321 -0.40979,5.321c1.23483,0.80849 7.18145,6.07703 8.26895,5.68765c2.22129,-0.79532 3.40904,-6.3939 4.16976,-8.25785c0.55971,-1.37142 0.99224,-2.69331 1.32783,-3.99258c1.13905,-4.41006 1.16114,-8.5596 1.24818,-13.50198c0.01338,-0.48499 0.42729,-1.71108 0.01494,-1.45544c-2.40079,1.48828 -4.24055,3.62915 -6.27731,5.57668c-2.37364,2.26964 -5.98819,4.63661 -7.56199,7.61637c-0.19453,0.36831 -0.35757,0.8731 -0.49419,1.45347c0.70946,-0.1813 1.24129,-1.09661 1.95686,-1.54144c1.34329,-0.83505 1.79701,-1.65784 2.97677,-2.37633c0.22612,-0.13772 3.72328,-2.52921 4.13725,-0.89471c0.62682,2.47493 -1.88909,9.63417 -2.44527,11.82762l-0.23971,0.46284c-0.03339,0.12961 -0.11287,0.26348 -0.26954,0.38486c-0.10327,0.09055 -0.2491,0.17652 -0.43361,0.18168c-0.18411,0.01301 -0.33772,-0.0582 -0.44938,-0.13815c-0.15617,-0.09805 -0.2469,-0.21344 -0.2958,-0.33027c-1.35151,-1.92944 -2.99038,-4.25848 -3.84757,-6.44717c-0.44671,0.18757 -0.90428,0.33361 -1.37638,0.42375zM336.30182,144.06972c6.51197,-0.47654 13.97566,-1.5972 20.44056,-0.60287c2.4461,0.37621 5.86367,1.16209 7.15903,3.54501c1.2023,2.21173 0.96322,5.09634 0.10913,7.14675c-0.91122,1.22747 -1.27984,4.84487 -2.67619,5.41496c-2.47214,1.00927 -7.93233,0.74537 -10.26183,0.02104c-5.26723,-1.63781 -12.30157,-3.80742 -16.85936,-6.90204c-0.45372,3.14105 -0.99464,4.33007 -2.07451,7.26997c-0.94488,2.5724 -2.56225,8.08578 -5.50064,9.14872c-2.05798,0.74446 -6.21232,-2.50813 -6.21232,-2.50813c-2.15688,-1.05192 -3.85432,-2.16926 -5.7799,-3.43648l-0.33736,0.21946c-3.59751,1.58349 -7.09061,4.31758 -10.43512,6.44228c-6.9948,3.42235 -14.73247,6.53488 -22.25428,8.50913c-3.67558,0.96473 -7.47713,1.46581 -11.10438,2.5992c-0.23966,0.39471 -17.80163,1.91496 -30.00037,1.45496c-4.63889,-0.17493 -10.73904,-1.902 -11.53533,-2.22973c0,0 -0.03191,-0.01314 -0.08405,-0.04027c-0.05353,-0.02428 -0.08357,-0.04128 -0.08357,-0.04128l-0.23706,-0.15496c-1.78724,-0.67224 -3.43878,-1.38081 -5.10061,-2.31921c0,0 -0.02557,-0.01447 -0.06752,-0.04293c-0.04347,-0.02609 -0.06736,-0.0432 -0.06736,-0.0432c0,0 -4.16394,-2.33486 -2.24796,-6.21671c0.5131,-1.03957 1.15825,-2.13008 2.14994,-2.9636c3.80828,-3.20086 10.59488,-4.92028 11.30424,-5.09554c-1.68365,-4.38651 -3.80604,-8.55711 -4.99146,-13.13484c0,0 -0.37533,-1.45229 1.07695,-1.8276c1.45229,-0.37533 1.82761,1.07696 1.82761,1.07696c1.28967,5.00085 3.74948,9.51469 5.4633,14.37039l0.03559,0.20599c0.01673,0.06363 0.03086,0.13102 0.04209,0.20239c0.08639,0.54857 -0.0623,0.92602 -0.28385,1.18389c-0.19118,0.26125 -0.503,0.48281 -1.01059,0.53836c-0.86561,0.1361 -11.09503,2.99943 -12.64742,5.0707c-2.36475,3.15516 4.03989,5.96605 4.9219,6.25237c4.77704,1.5507 12.72488,2.96093 15.05592,2.97303c12.51104,0.06496 33.1007,-3.40352 36.84636,-4.38755c7.28353,-1.91346 14.74241,-5.26442 21.52663,-8.55777c3.42997,-2.18926 6.99195,-4.88431 10.6721,-6.56148l0.54692,-0.38748c0.32789,-0.33423 0.69421,-0.42004 1.01343,-0.4042c0.00536,-0.00034 0.01076,-0.00065 0.01617,-0.00092c0.41252,-2.69695 0.29025,-6.10901 1.54898,-8.53721c2.02378,-3.90409 6.65378,-7.02768 9.77728,-9.98702c2.1128,-2.00175 6.57076,-8.66759 9.31196,-4.29188c0.47622,0.76017 0.30229,2.92044 0.41173,3.81076c-0.01906,1.08243 -0.02028,2.17166 -0.02225,3.26379zM351.4768,156.37632c1.72476,0.53562 4.29399,1.74053 6.16873,1.09621c0.8291,-0.28495 2.54917,-2.83479 3.10967,-3.6028c0.54452,-1.34532 1.63592,-4.33759 0.88047,-5.80122c-0.97136,-1.88193 -5.41538,-2.19466 -7.1518,-2.25717c-5.94694,-0.21409 -12.06272,0.31727 -17.99959,0.75174l-0.8141,0.05957c-0.01573,1.228 -0.05037,2.45595 -0.13019,3.67837c4.41015,3.7015 10.5631,4.40651 15.93681,6.0753z" fill="#000000" stroke="none" stroke-width="0.5" stroke-linecap="butt"/></g><g stroke-width="0.5"><path d="M259.45234,125.51308c0.53252,5.82398 -6.37256,5.23022 -10.24475,5.60377c-0.92637,0.08937 0.24346,1.98494 -0.2371,2.78195c-0.59205,0.98196 -1.37969,1.86788 -2.2856,2.5708c-1.67473,1.29947 -5.73437,-0.2565 -7.02847,0.4605c-1.97818,1.096 -3.03817,3.35253 -4.48408,5.09142c-2.60017,3.12703 -4.96872,6.44655 -7.65146,9.50304c-0.45361,0.5168 -2.57424,1.97639 -3.5296,1.85095c-2.67339,-0.35103 -15.25028,15.27336 -15.1399,12.33788c0.01197,-0.31821 0.75887,-3.23353 3.12547,-8.58738c2.79955,-6.33333 7.28667,-15.23584 7.22659,-15.23168c-2.17871,0.15093 -8.30343,0.45505 -12.65085,0.99019c-4.13805,0.50937 -6.54512,1.33234 -7.06955,-1.59555c-0.0674,-0.37631 5.83723,-9.39559 6.2887,-10.0132c4.15668,-5.68657 8.50665,-13.10283 13.24008,-18.2978c1.00205,-1.09977 5.66848,-6.7195 7.78081,-5.72976c0.01314,-0.00106 0.02629,-0.00207 0.03947,-0.00304c1.15376,-0.08443 2.24467,0.22967 3.13774,0.82568c0.59461,0.19147 1.10866,0.3776 1.45546,0.49239c5.61441,1.85838 10.85229,3.54179 16.27086,5.93442c1.11037,0.4903 3.99885,2.5649 4.13709,2.56621c0.84068,0.00798 -0.81242,-5.46657 1.5612,-10.7944c1.05028,-2.35746 6.87187,-7.55802 7.26637,-7.35329c1.44431,0.74953 -2.21456,21.06933 -2.11338,22.45193c0.04151,0.56723 -0.01331,1.11926 -0.15059,1.64005c0.57154,0.79462 0.98333,1.71538 1.05553,2.50496z" fill="#66ffff" stroke="none" stroke-linecap="butt"/><path d="M262.63389,103.22142l7.11285,17.72815l10.23622,19.3044l-11.31114,9.85181l-2.1845,-10.66902l-6.53861,1.08009l-20.12176,7.28801l-8.89812,4.46132l1.01682,2.93361l-7.07862,1.92176l-7.16131,3.53208l-5.70744,2.75826c0,0 12.42978,-15.09176 17.34632,-20.73638c2.50635,-2.8775 10.71132,-11.69789 10.71132,-11.69789c0,0 -7.46736,1.90432 -10.87329,2.67731c-5.41212,1.2283 -19.00896,4.82363 -19.00896,4.82363c0,0 15.84798,-18.0503 18.8986,-19.09996c2.18716,-0.75257 29.06819,8.67132 29.06819,8.67132c0,0 -1.33046,-3.54095 -0.60325,-9.09739c0.52131,-3.98328 4.55826,-21.12184 4.55826,-21.12184z" fill="#50a5eb" stroke="#50a5eb" stroke-linecap="round"/><path d="M250.52446,112.9271c0,0 0.01465,-0.21241 0.12845,-0.43445c0.19461,-1.23151 0.53096,-2.74568 1.12221,-4.2946c0.34139,-0.89434 1.62398,-2.93648 2.01269,-3.61461c3.23776,-5.6485 8.36107,-10.88492 8.86963,-8.91793c3.84397,14.86758 14.27849,38.01204 18.7971,43.86727c0.14306,0.11503 0.26401,0.28865 0.31326,0.55037c0.05141,0.18243 0.06618,0.40976 -0.04585,0.63888c-0.09506,0.23667 -0.27373,0.37799 -0.44361,0.46204c-0.12516,0.0764 -0.24505,0.11878 -0.35776,0.13658c-4.28929,3.72394 -8.29398,6.95863 -11.91424,11.44733c-0.0917,0.18219 -0.25193,0.35803 -0.53102,0.4435c-0.17713,0.07628 -0.39877,0.11232 -0.64631,0.02153c-0.25559,-0.06476 -0.4182,-0.21963 -0.52136,-0.38258c-0.18516,-0.23188 -0.21621,-0.47153 -0.18661,-0.67588l-0.03068,-0.47806c-0.7093,-3.56364 -1.73138,-6.94612 -2.61713,-10.44543l-0.40691,0.02977c-3.72248,0.26149 -7.92623,2.1922 -11.60223,3.08405c-3.74141,1.23501 -7.19954,2.98298 -10.91257,4.29536c-2.73142,0.96543 -6.01175,2.00523 -8.29025,3.85595c-0.69584,0.56519 0.20563,2.20225 0.58647,2.90929c0.10892,0.13164 0.19032,0.31372 0.21203,0.56537c0.02318,0.1767 0.0125,0.39714 -0.10932,0.60217c-0.11602,0.20837 -0.30123,0.3284 -0.46565,0.39716c-0.21334,0.10059 -0.4004,0.12569 -0.56148,0.10576l-0.78372,0.05735c-3.72274,0.21496 -9.14884,2.09882 -12.45194,3.69968c-2.59303,1.25673 -5.69139,3.52577 -9.04327,5.37502c-2.34144,1.29178 -4.1488,3.77334 -4.39374,2.57741c-0.87864,-4.29003 3.91068,-12.70956 5.39068,-15.66989c0.81573,-1.63165 4.54578,-7.91864 5.63321,-9.58844c-5.47474,-1.11565 -10.6554,0.2057 -16.6298,1.53717c-1.43854,0.3206 -2.82883,0.56845 -4.14063,0.67435c-0.07048,0.02152 0.48021,-2.35822 4.25195,-8.77429c5.00437,-8.51287 14.18087,-22.27896 20.45726,-28.86557c1.359,-1.42617 2.76279,-2.89973 4.51718,-3.04344c5.31769,-0.4356 12.18107,3.88136 13.063,4.26725c3.93538,1.72189 7.44397,2.82805 10.97517,5.50791c0.20349,0.11962 0.40506,0.24259 0.60455,0.36914c0.01473,-0.22076 0.03828,-0.7757 0.12277,-1.55073c0.00288,-0.24522 0.01178,-0.49204 0.02841,-0.74176zM252.60634,116.06781l0.03128,0.42744c0,0 0.01556,0.2126 -0.06586,0.44867l0.29174,0.68071c0,0 0.07298,0.99734 -0.92435,1.07032c-0.61043,0.04467 -0.87457,-0.31162 -0.98766,-0.59479c-2.2517,-1.86195 -18.38307,-9.8573 -24.86097,-10.14554c-1.24825,-0.05554 -8.04556,7.33015 -13.04736,14.42164c-5.9817,8.48073 -10.34027,17.10278 -12.41892,19.71851c4.21552,-0.56399 8.35514,-1.17633 12.52213,-1.5051c2.33606,-0.18431 4.65214,-0.67029 7.06451,-0.05882l0.46965,0.18554c0.11526,0.02894 0.23804,0.0835 0.36716,0.17215c0.23966,0.16456 0.36181,0.35094 0.41451,0.53256c0.05516,0.18089 0.05481,0.40374 -0.05588,0.67256c-0.05664,0.13756 -0.12533,0.24625 -0.20121,0.33157c-4.67109,6.79323 -7.76549,14.3714 -11.21765,21.79338c6.54156,-3.90195 13.56402,-8.63693 20.96472,-9.40432c-0.54975,-1.32865 -0.85985,-2.42148 0.22555,-3.56368c1.62792,-1.7131 4.94246,-2.84276 7.03379,-3.79106c4.38686,-1.98919 9.12803,-3.51538 13.70351,-5.01787c1.91,-0.46409 13.49411,-5.37955 14.68852,-3.97048c0.1738,0.20503 1.23339,2.50492 1.52029,4.07836c0.55152,3.02459 0.9313,5.8272 1.17873,6.93339c3.26117,-3.71129 5.70619,-6.13688 9.46364,-9.39361c-3.36294,-4.52171 -8.6621,-15.0954 -12.61485,-24.72515c-2.95209,-7.19196 -5.10862,-14.11404 -5.38762,-16.20776c-4.9478,5.02967 -7.10705,9.77555 -8.26441,15.18648c0.01777,0.57103 0.06414,1.13917 0.10701,1.72488z" fill="#000000" stroke="none" stroke-linecap="butt"/><path d="M283.69811,141.61326c0.12408,-0.0223 0.22924,0.00255 0.22924,0.00255l0.70424,0.16691c3.78659,0.53734 7.16848,2.09483 10.79422,3.01505c5.86518,2.26695 12.8055,2.14927 18.49249,4.73054c4.48938,2.03884 2.08503,7.81749 1.87544,11.77432c-0.09297,1.75491 0.45704,3.92262 -1.83612,4.10265c-2.06532,-2.33704 -4.52385,-4.2669 -6.97082,-6.17935c-2.46795,-1.92884 -4.14092,-4.00704 -7.11459,-5.23145c-2.24199,-1.37049 -2.81706,4.16768 -4.37071,5.14611c-2.96619,1.86796 -4.86157,-2.81344 -5.83249,-4.82484c-2.39584,-4.97514 -6.61782,-7.54361 -7.04125,-13.32984c0,0 -0.03649,-0.49866 0.46217,-0.53515c0.49866,-0.03649 0.53515,0.46217 0.53515,0.46217c0.01747,0.2388 0.04196,0.47211 0.07302,0.70035z" fill="#50a5eb" stroke="none" stroke-linecap="butt"/><path d="M284.88761,145.83391c0,0 5.6348,1.81282 7.00006,2.25334c0.71223,0.2298 1.11494,9.98705 1.11494,9.98705z" fill="#66ffff" stroke="#66ffff" stroke-linecap="round"/><path d="M282.61411,140.72323c1.02158,0.14985 2.04432,0.2917 3.06743,0.43064c5.96696,1.11454 11.83936,2.45956 17.72723,3.95797c3.94575,1.00415 13.1795,3.55974 13.37832,3.74253c0.20979,0.17008 0.38083,0.44168 0.41252,0.87464l0.01043,0.14248c0.42829,5.85261 -0.08621,11.78406 -1.6115,17.44315c-0.03911,0.38646 -0.22635,0.63263 -0.43892,0.78905c-0.23764,0.21841 -0.59974,0.37386 -1.13391,0.22819c-0.25985,-0.07086 -0.44842,-0.18244 -0.5844,-0.3139l-0.17178,-0.06064c-4.09051,-4.69643 -9.03286,-9.69181 -13.98139,-13.60942c-1.61365,2.41967 -3.24543,4.84733 -4.63458,7.40253c-0.0523,0.13454 -0.13546,0.27439 -0.25877,0.41718c-0.2359,0.27315 -0.48255,0.39932 -0.71409,0.44062c-0.23103,0.04402 -0.50647,0.01414 -0.82429,-0.15688c-0.19377,-0.10426 -0.33506,-0.2243 -0.43636,-0.35129l-0.43882,-0.40751c-4.63172,-6.35915 -8.5389,-13.61068 -12.57919,-20.38262c0,0 -0.63913,-1.07426 0.43512,-1.71338c1.07426,-0.63912 1.71338,0.43513 1.71338,0.43513c0.10812,0.1823 0.21618,0.36501 0.32419,0.54808c0.24473,-0.03246 0.45771,0.02452 0.63229,0.11393zM285.28443,143.62212c-0.24116,-0.03265 -0.48233,-0.06549 -0.72343,-0.09857c3.13024,4.93436 6.06387,10.00956 9.04693,15.02505c1.16065,-1.93738 2.42117,-3.81894 3.67267,-5.69636l0.86475,-1.0157c0.26975,-0.33669 0.56674,-0.45883 0.83727,-0.4766c0.26736,-0.03747 0.58147,0.02105 0.91253,0.29287c4.79114,3.6829 9.63518,8.39615 13.78486,12.99854c0.99057,-4.44161 1.34483,-9.02481 1.10135,-13.5766c-4.04908,-0.20927 -23.60747,-6.35717 -29.49692,-7.45261z" fill="#000000" stroke="none" stroke-linecap="butt"/></g><g fill="none" stroke="none" stroke-width="1" stroke-linecap="butt" font-family="sans-serif" font-weight="normal" font-size="12" text-anchor="start"/></g><g><g><path d="M176.86357,197.54315c1.33312,0.2134 3.12252,0.08004 4.12309,1.14105c2.69565,2.85847 3.41564,8.00614 4.44621,11.63463c0.33175,1.16805 0.91837,2.428 0.61385,3.60347c-0.53661,2.07146 -2.90146,1.29206 -4.18184,1.51296c-2.4611,0.42464 -4.67208,2.14816 -7.26387,2.45484c-1.40545,0.16631 -3.13477,-1.12968 -4.29087,-1.72713c-1.43497,-0.43828 -6.08567,-2.38602 -6.32944,-4.26317c-0.19637,-1.51193 0.79707,-4.24428 1.04318,-5.78165c0.18142,-1.13331 -0.21321,-2.46143 0.39132,-3.43703c0.48451,-0.78191 1.55238,-1.01023 2.29405,-1.55434c2.14279,-1.57201 5.30336,-2.85768 8.01253,-3.76577z" data-paper-data="{&quot;noHover&quot;:false,&quot;origItem&quot;:[&quot;Path&quot;,{&quot;applyMatrix&quot;:true,&quot;segments&quot;:[[[149.94202,212.32093],[0,0],[-2.35446,1.23222]],[[143.17243,216.93298],[1.73675,-1.75867],[-0.60112,0.60871]],[[141.29885,218.68699],[0.33,-0.78929],[-0.41175,0.98483]],[[141.44689,221.88588],[0,-1.06744],[0,1.44805]],[[141.33271,227.32542],[-0.4026,-1.35962],[0.49986,1.68806]],[[147.74833,230.28825],[-1.38224,-0.19154],[1.14955,0.3787]],[[151.92038,231.23942],[-1.26624,0.35934],[2.33511,-0.66266]],[[158.1958,227.93329],[-2.19773,0.75176],[1.14337,-0.3911]],[[161.80428,225.94417],[-0.18828,1.98122],[0.10684,-1.12425]],[[160.70743,222.73868],[0.47638,1.02392],[-1.47986,-3.18076]],[[154.94562,212.75942],[2.89578,2.22881],[-1.07486,-0.8273]],[[151.01184,212.32093],[1.25564,0],[0,0]]],&quot;closed&quot;:true}]}" fill="#465e85" stroke="none" stroke-width="0.5" stroke-linecap="butt"/><path d="M176.57738,198.51552c-2.51963,0.84458 -5.42059,2.022 -7.4135,3.48403c-0.68978,0.50605 -1.67668,0.70861 -2.12729,1.4358c-0.56223,0.90736 -0.19071,2.12806 -0.35946,3.18209c-0.22889,1.42984 -1.15516,3.94695 -0.97254,5.3531c0.22676,1.74585 4.53206,3.53204 5.86665,3.93967c1.07525,0.55564 2.66213,1.75335 3.96924,1.59868c2.4105,-0.28525 4.43019,-1.87771 6.71912,-2.27265c1.19081,-0.20546 3.37846,0.53279 3.87752,-1.39376c0.28319,-1.09323 -0.26784,-2.25221 -0.57637,-3.33857c-0.9585,-3.37467 -1.60493,-8.10602 -4.112,-10.76454c-0.93057,-0.98679 -2.57515,-0.8563 -3.81504,-1.05477zM178.73372,195.81522c1.81126,0.25301 3.38094,0.38329 4.83182,1.79832c2.97769,2.90404 3.8296,8.28395 4.89308,12.11419c0.45858,1.65159 1.0077,3.47825 0.50608,5.11729c-0.95651,3.12539 -3.70846,2.95921 -6.13673,3.33692c-2.42436,0.37712 -4.54789,2.11678 -7.17147,2.32474c-1.91118,0.1515 -3.62638,-0.97968 -5.22732,-1.82235c-2.4708,-0.77658 -7.02261,-3.1146 -7.64281,-6.01825c-0.35458,-1.66001 0.65198,-4.79525 0.92852,-6.52281c0.11323,-0.70734 0.60444,-4.00892 0.85725,-4.4185c0.35522,-0.57557 1.15397,-0.71008 1.69225,-1.11965c3.13713,-2.38696 6.98795,-4.17768 10.75717,-5.38351c0,0 1.14959,-0.36182 1.71221,0.59363z" fill="#000000" stroke="none" stroke-width="0.5" stroke-linecap="butt"/><g stroke="none" stroke-width="0.5" stroke-linecap="butt"><path d="M196.0708,217.06769c0.24131,-3.84335 1.24122,-7.75377 1.84721,-11.53944c0.20333,-1.27024 0.3987,-5.93596 1.6138,-6.52953c1.50655,-0.73593 3.28451,0.68272 4.94073,0.94398c4.47819,0.70639 9.35363,0.97463 13.52259,2.7614c5.47517,4.37043 4.60054,9.50782 4.01771,15.83051c-0.28315,3.07159 -1.19962,7.42528 -4.98103,8.05194c-4.05449,0.6719 -7.52082,-2.84801 -11.02999,0.37719c-0.75563,0.80334 -1.07234,2.00045 -1.94192,2.67881c-0.41389,0.32289 -1.76173,1.9431 -2.09877,2.03658c-5.27063,1.46184 -6.58776,-4.87894 -6.48596,-9.27158c0.00012,-0.00764 0.00031,-0.01524 0.00055,-0.02287c0.01069,-0.44421 0.03255,-0.87887 0.06226,-1.29594l0.04364,-0.90689l0.03512,0.0017c0.05575,-0.54262 0.12214,-1.03879 0.19005,-1.46638z" fill="#f49285"/><path d="M187.79668,195.18974c0.87444,-1.21875 2.09319,-0.34427 2.09319,-0.34427l-0.02003,0.09155c2.74356,0.79485 5.47228,1.66787 8.26626,2.27398c0.21461,-0.39924 0.65542,-0.85736 1.5292,-0.71748c0.93011,0.14889 1.18263,0.78836 1.24179,1.24356c9.90895,1.67435 21.83877,2.0532 23.83468,14.17211c-0.07618,4.86549 -0.67913,13.00788 -5.78885,15.53694c-3.24861,1.60788 -7.37388,-0.75644 -10.89458,0.28457c-2.23749,0.66159 -1.99766,3.15916 -3.3292,4.7297c-2.18948,2.5825 -5.34933,1.3863 -7.90119,0.04991c-1.75657,-1.90314 -4.00383,-4.79028 -4.18025,-7.50107c-0.33509,-5.14876 2.33903,-10.53507 3.41054,-15.4626c0.67007,-3.08146 1.0718,-6.24841 1.52351,-9.3865c-2.88963,-0.62395 -5.70982,-1.51969 -8.54674,-2.3416l-0.89404,-0.53558c0,0 -1.21875,-0.87444 -0.34427,-2.09318zM200.53632,200.68501c-0.4561,3.16604 -0.86351,6.36038 -1.5403,9.46954c-1.49691,6.87686 -5.70378,13.90144 -0.33589,19.98021c0.77709,0.40122 2.46351,1.12605 3.33032,0.98557c0.96263,-0.15602 1.48221,-3.29187 1.82326,-3.81424c0.55428,-0.84899 2.27123,-2.08494 3.24555,-2.40412c0.69009,-0.22609 3.92643,-0.66824 4.78181,-0.62587c1.39175,0.06895 4.40012,1.22274 5.83355,0.45602c3.72501,-1.99246 4.01068,-9.10006 4.07516,-12.60384c-1.63327,-9.94857 -12.77054,-10.18923 -21.21348,-11.44324z" fill="#000000"/></g><path d="M180.9422,219.13067c0.07526,0.35223 0.01963,0.78155 -0.37504,1.23398c-0.32213,0.36929 -0.65967,0.51268 -0.96816,0.53835c-0.33286,0.18768 -0.79059,0.26845 -1.36855,-0.03279c-0.621,-0.32367 -0.80095,-0.78617 -0.81635,-1.18732c-2.26632,-1.67668 -5.16616,-3.21088 -6.39516,-5.63571c-1.28342,-2.53221 -0.29387,-5.00453 -0.03952,-7.6078c0.20047,-2.05174 -0.61262,-3.95227 -0.71476,-5.97618c-0.04499,-0.89168 0.07397,-3.70412 0.55203,-4.48308c0.8875,-1.44611 3.63579,-2.53856 5.06206,-3.38415c2.47939,-1.79329 5.66579,-3.51049 7.74259,-5.77846c1.10809,-1.21009 2.59725,-4.69754 3.75533,-5.48807c3.1013,-2.11701 8.23471,1.28378 11.45366,1.05127c0.6028,-0.04352 0.98609,-3.53526 0.98902,-3.54123c0.65692,-1.32687 1.938,-2.23892 2.89769,-3.36635c3.61511,-1.17816 4.86931,-0.23735 7.74394,1.69519c1.31404,0.88339 3.96362,1.62332 4.712,3.19371c0.21901,0.45955 0.2119,0.9599 0.13509,1.47563c0.12057,0.08008 0.22813,0.17683 0.31996,0.2864l1.42909,1.68489l-0.35688,0.30271c2.54421,2.34577 4.79257,5.52173 5.66541,8.65706c1.01443,3.64398 -1.19085,10.26861 -3.63576,12.97769c-4.18742,4.63984 -10.00867,4.37228 -15.4822,6.13178c-3.65255,1.17413 -6.64415,1.83413 -10.53153,1.91998c-5.26842,0.10811 -8.65287,1.24735 -11.77396,5.33248z" fill="#fddfbd" stroke="none" stroke-width="0.5" stroke-linecap="butt"/><path d="M170.83242,210.62989c1.69271,3.72141 4.89754,7.37116 8.74174,3.66929c0.5263,-0.50682 0.50842,-1.38267 0.78689,-2.05816c0.66876,-1.62231 1.25795,-3.2598 1.74019,-4.93009c0.93237,3.24155 3.55404,5.52877 4.63235,8.56391c0.2696,0.75888 0.6407,1.49408 1.06261,2.18006c0.33602,0.54633 1.5556,1.28715 1.01784,1.63675c-1.50932,0.98123 -3.48114,1.97301 -5.14473,2.83322c-1.50482,0.77811 -2.19797,0.84566 -3.84722,0.58167c-2.89875,-1.55035 -4.31116,-4.06632 -6.28078,-6.51463c-1.20674,-1.50003 -2.88388,-2.60672 -2.90287,-4.74807c-0.00356,-0.40082 0.03732,-0.82806 0.10416,-1.25783z" data-paper-data="{&quot;noHover&quot;:false,&quot;origItem&quot;:[&quot;Path&quot;,{&quot;applyMatrix&quot;:true,&quot;segments&quot;:[[[292.27259,450.35302],[0,0],[0.00386,0.86986]],[[292.46735,452.85822],[-0.13372,-0.79044],[0.71446,4.22288]],[[299.69469,461.2609],[-2.85734,-2.58084],[4.6637,4.21236]],[[314.05027,472.08106],[-6.21472,-2.14538],[3.3405,0]],[[321.42067,469.73416],[-2.7258,2.01234],[3.01346,-2.22472]],[[330.64919,462.5618],[-2.6705,2.41496],[0.95146,-0.86042]],[[328.11865,459.6624],[0.8363,0.97272],[-1.05006,-1.22134]],[[325.32895,455.71702],[0.77232,1.41342],[-3.08898,-5.6531]],[[313.56087,440.36446],[2.86608,6.10686],[-0.4243,3.45106]],[[311.69295,450.6516],[0.80786,-3.41526],[-0.33638,1.42204]],[[310.84131,454.95192],[0.87914,-1.16726],[-6.42148,8.52596]],[[292.27261,450.35306],[4.51934,6.8141],[0,0]]],&quot;closed&quot;:true,&quot;fillColor&quot;:[0,0,0,1]}]}" fill="#f49285" stroke="none" stroke-width="0.5" stroke-linecap="butt"/><path d="M185.64261,209.00743c3.05241,1.67225 7.03014,2.74115 10.31202,1.28257c0.68262,-0.30337 1.68395,-1.28464 2.43845,-2.32197c0.33335,1.10348 0.97926,2.1384 1.71057,2.97254c0.24591,0.28048 2.29225,1.83997 1.79254,2.52271c-0.50754,0.69342 -1.51691,0.82321 -2.26293,1.24966c-1.1331,0.98112 -2.41754,2.46523 -3.7667,3.18213c-1.24953,0.66396 -2.73,0.26009 -4.02826,0.05072c-0.92007,-0.14839 -1.99426,0.13699 -2.79501,-0.33983c-0.71805,-0.42757 -0.83606,-1.46974 -1.24996,-2.19575c-1.08756,-1.9077 -1.75076,-4.17093 -2.15072,-6.40282z" data-paper-data="{&quot;noHover&quot;:false,&quot;origItem&quot;:[&quot;Path&quot;,{&quot;applyMatrix&quot;:true,&quot;segments&quot;:[[[321.19917,442.52486],[0,0],[1.49544,4.28122]],[[327.45837,454.40592],[-2.75086,-3.4236],[1.04692,1.30294]],[[330.59357,458.31922],[-1.55322,-0.6174],[1.73212,0.6885]],[[336.18071,458.09086],[-1.86394,-0.00216],[2.63006,0.00304]],[[344.04827,456.7328],[-2.25774,1.70622],[2.43778,-1.84228]],[[350.43759,449.32674],[-1.92754,2.29582],[1.33848,-1.07802]],[[354.51083,446.1658],[-0.7831,1.52982],[0.77104,-1.5063]],[[350.18243,441.78466],[0.57428,0.47616],[-1.70792,-1.41612]],[[345.89649,436.49366],[1.00718,2.07384],[-1.16208,2.28712]],[[341.81685,441.85142],[1.25216,-0.81492],[-6.02014,3.91802]],[[321.19919,442.52488],[6.55672,2.33748],[0,0]]],&quot;closed&quot;:true,&quot;fillColor&quot;:[0,0,0,1]}]}" fill="#f49285" stroke="none" stroke-width="0.5" stroke-linecap="butt"/><path d="M215.15738,216.08089c-0.69892,0.50655 -1.50293,0.96091 -2.35105,1.32365l-1.50502,-0.24028c-0.31618,-0.09886 -0.62664,-0.19571 -0.92626,-0.28853c-0.27859,-0.15901 -0.62065,-0.2492 -0.99649,-0.30084c-1.70029,-0.4964 -3.20237,-0.81921 -4.78154,-0.69614c-1.58355,-0.75786 -4.11092,-2.34902 -4.70444,-3.19705c-0.45745,-0.65362 -0.12377,-2.05598 0.20271,-3.1102c0.19522,0.07937 0.43045,0.0537 0.43045,0.0537c1.55583,0.24906 4.1666,1.08277 5.67706,0.8245c1.40674,-0.24054 3.02049,-1.57955 4.14679,-2.39378c4.5389,-3.28133 7.08609,-6.75145 7.99063,-12.36962c0.27809,-1.72723 1.234,-4.64626 0.82021,-6.7253c1.08098,1.3516 2.75766,2.51176 3.37366,4.14099c0.59316,1.56877 -0.42938,3.6282 -0.51108,5.20068c-0.1531,2.94656 1.33105,5.86739 1.04825,8.69186c-0.08685,0.86749 0.23891,1.90634 -0.27519,2.61045c-0.23931,0.32777 -0.81045,0.23266 -1.11285,0.50329c-2.16694,1.93915 -4.28607,4.01879 -6.52579,5.97263z" data-paper-data="{&quot;noHover&quot;:false,&quot;origItem&quot;:[&quot;Path&quot;,{&quot;applyMatrix&quot;:true,&quot;segments&quot;:[[[381.59284,447.04069],[0,0],[3.8055,-4.5666]],[[392.54006,433.22621],[-3.66638,4.5146],[0.51168,-0.63006]],[[394.57458,431.88833],[-0.369,0.72294],[0.7927,-1.55304]],[[394.28604,426.66537],[0.1027,1.74062],[-0.3344,-5.6673]],[[389.48224,409.91035],[0.62914,5.86744],[-0.33576,-3.13126]],[[388.8702,399.50235],[1.66732,2.91058],[-1.73158,-3.02274]],[[380.93036,392.40715],[2.56208,2.32748],[1.47438,3.97498]],[[381.51618,405.76605],[0.00316,-3.49896],[-0.01024,11.38102]],[[369.57254,432.90379],[7.92632,-7.91502],[-1.96688,1.96408]],[[362.11264,438.93129],[2.70206,-0.91974],[-2.90128,0.98756]],[[350.61324,439.07441],[3.15128,0],[0,0]],[[349.90228,438.97939],[0.41062,0.09502],[-0.31148,2.18516]],[[350.47416,445.17377],[-1.11004,-1.1462],[1.4402,1.48712]],[[360.74526,449.98123],[-3.36688,-0.99606],[3.07972,-0.74228]],[[370.37742,449.83737],[-3.51474,-0.44278],[0.75856,-0.01684]],[[372.43326,450.11627],[-0.60044,-0.22594],[0.62106,0.08858]],[[374.34712,450.39349],[-0.65566,-0.09528],[0,0]],[[377.38508,450.39349],[0,0],[1.56024,-0.9845]],[[381.59282,447.04071],[-1.22014,1.22132],[0,0]]],&quot;closed&quot;:true,&quot;fillColor&quot;:[0,0,0,1]}]}" fill="#f49285" stroke="none" stroke-width="0.5" stroke-linecap="butt"/><path d="M201.79352,197.3282c0.13074,0.20084 0.18457,0.5282 0.17968,0.92637c-0.21673,0.95044 -0.47612,1.8717 -0.56644,2.43596c-0.5623,3.51269 -1.5626,7.02853 -0.70317,10.49321c-0.01782,0.0607 -0.03257,0.12338 -0.04283,0.18746c-0.0836,0.52227 0.0803,0.93027 0.44645,1.25933l0.15721,0.20895c-0.15518,0.02428 -0.32417,0.0604 -0.50615,0.11285l-1.15819,0.36405c-1.07343,-1.60676 -1.7336,-3.45728 -1.69403,-5.6473c0.05319,-2.94343 1.86806,-6.26448 1.40727,-9.191c-0.29277,-1.85932 -2.25368,-3.73483 -3.73321,-4.66862c-0.29075,-0.1835 -0.63988,-0.40692 -0.95028,-0.55583c2.82061,0.54897 5.83348,2.03136 7.1637,4.07455z" data-paper-data="{&quot;noHover&quot;:false,&quot;origItem&quot;:[&quot;Path&quot;,{&quot;applyMatrix&quot;:true,&quot;segments&quot;:[[[333.91683,408.63274],[5.74384,0.19247],[0.66002,0.19593]],[[335.8855,409.24853],[-0.63215,-0.27045],[3.21708,1.37635]],[[344.78461,417.28125],[-1.16594,-3.57933],[1.83515,5.63376]],[[344.91498,436.07495],[-0.82548,-5.82966],[0.61419,4.33751]],[[349.99713,446.49874],[-2.62782,-2.83381],[0,0]],[[352.15812,445.41825],[0,0],[0.34282,-0.16111]],[[353.11747,445.03776],[-0.29878,0.09703],[0,0]],[[352.83654,444.85047],[0,0],[-0.8271,-0.53416]],[[351.46193,442.32851],[0,1.05784],[0,-0.12982]],[[351.48617,441.94533],[-0.016,0.12547],[-2.79252,-6.57054]],[[349.53759,421.16078],[0,7.11479],[0,-1.1429]],[[349.90569,416.18539],[-0.12758,1.9455],[-0.11618,-0.78785]],[[349.26689,414.41716],[0.32171,0.35528],[-3.27291,-3.61451]]],&quot;closed&quot;:true}]}" fill="#000000" stroke="none" stroke-width="0.5" stroke-linecap="butt"/><path d="M187.30405,218.23521c-0.75387,-0.2048 -1.76818,-2.59911 -2.04962,-3.15654c-0.83248,-1.6489 -2.48925,-3.51824 -2.57107,-5.45342c-0.07439,-1.75931 0.76488,-3.53683 0.6227,-5.36473c-0.09932,-1.27703 -0.85083,-3.65485 -1.95423,-5.12371c1.33983,0.15541 2.75485,0.42642 3.56057,1.30042c1.1367,1.23302 0.82653,4.0735 1.07175,5.56388c0.39405,2.39507 -0.20438,4.77684 0.67828,7.2042c0.56762,1.56097 2.44421,3.25232 3.28078,4.60837c-0.93839,0.3337 -1.9488,0.6091 -2.63917,0.42155z" data-paper-data="{&quot;noHover&quot;:false,&quot;origItem&quot;:[&quot;Path&quot;,{&quot;applyMatrix&quot;:true,&quot;segments&quot;:[[[332.32289,458.44583],[-1.74771,0.95566],[-5.31642,-6.16662]],[[320.82948,436.55107],[2.52271,7.56691],[-0.95542,-2.86579]],[[316.97562,425.8992],[2.63462,2.07571],[-1.86749,-1.47132]],[[309.56314,424.44377],[2.69509,-0.11667],[2.64337,2.55195]],[[315.04621,433.9419],[-0.59988,-2.49057],[0.85864,3.56492]],[[315.54628,444.61182],[-0.70308,-3.45088],[0.77335,3.79581]],[[322.24548,454.50921],[-2.1653,-2.99318],[0.73203,1.01191]],[[327.26825,460.1002],[-1.55353,-0.16613],[1.42267,0.15213]]],&quot;closed&quot;:true}]}" fill="#000000" stroke="none" stroke-width="0.5" stroke-linecap="butt"/><path d="M217.12943,183.26866c0,0 4.75446,10.12674 5.57051,13.98483c0.99649,4.71125 -0.02399,12.23795 -0.02399,12.23795c0,0 -2.30997,2.78326 -4.05102,3.95454c-2.23119,1.50102 -8.23421,4.31027 -8.23421,4.31027c0,0 -5.17959,-1.83465 -6.66859,-2.50851c-1.78762,-0.80901 -3.32595,-2.01465 -3.32595,-2.01465l-0.38021,2.37519c0,0 -1.94528,1.82254 -3.10764,2.45297c-1.14945,0.62343 -3.82826,1.30884 -3.82826,1.30884l-5.78588,-1.9006l0.96886,3.07836c0,0 -2.18491,1.46134 -3.33429,1.99888c-1.29162,0.60409 -4.03864,1.44936 -4.03864,1.44936c0,0 -3.66307,-2.63978 -5.22934,-4.07598c-1.90674,-1.74839 -5.39186,-5.66321 -5.39186,-5.66321c0,0 -0.40555,-5.78509 -0.18371,-8.98468c0.21204,-3.0582 1.48673,-9.80792 1.48673,-9.80792c0,0 1.31929,-1.79514 2.08087,-2.34654c1.70292,-1.23297 7.83857,-4.83535 7.83857,-4.83535c0,0 1.87643,-1.20413 2.61798,-2.04401c1.04004,-1.17795 3.03551,-4.35913 3.03551,-4.35913l8.86423,0.93176c0,0 2.96044,-1.70713 3.27315,-2.12335c0.90144,-1.19979 4.03358,-5.47676 4.03358,-5.47676l4.18991,-0.30372c0,0 4.04908,2.06904 5.43503,3.2732c1.74049,1.51222 4.18869,5.08828 4.18869,5.08828z" fill="none" stroke="#000000" stroke-width="3" stroke-linecap="round"/></g><path d="M211.38046,189.67134l0.12262,-0.09432c0.57122,-0.10474 4.34459,-0.64788 4.70963,-0.14099c0.05902,0.08195 -0.32542,2.01804 -0.37671,2.32188c-0.26987,1.59853 -0.21625,3.20585 -0.01711,4.80796c0.92212,4.9838 2.70024,11.8771 7.10256,14.89884c0.23163,0.37643 0.76853,0.69349 0.69489,1.1293c-0.06312,0.37345 -1.23768,0.61696 -1.6002,0.64853c-1.39007,0.12101 -3.35053,0.61521 -4.69579,0.39299c-0.78084,-0.12899 -1.42241,-1.12573 -1.89769,-1.64827c-1.99726,-2.1959 -3.80466,-3.70574 -5.26368,-6.36885c-1.6557,-5.18468 -0.74716,-10.32589 0.75877,-15.58027c0,0 0.10783,-0.37356 0.46272,-0.36677z" fill="#485e84" stroke="none" stroke-width="0.5" stroke-linecap="butt"/><path d="M218.20566,203.44348c-0.06896,-0.02636 -0.11282,-0.05655 -0.11282,-0.05655c-5.42658,-3.73453 -4.19821,-10.28753 -2.36235,-15.76191c0.48561,-1.44669 1.18974,-3.63929 2.46089,-4.64292c1.79679,-1.41864 3.97157,-2.07559 5.86612,-3.15343c-0.10632,-0.16454 -0.10992,-0.38361 0.00807,-0.55505c0.03183,-0.04625 0.07005,-0.08547 0.11267,-0.11729l0.66309,-0.51961c1.01328,-0.79284 1.69379,-1.74886 2.72286,-2.27905l-0.0952,-0.17247l0.47992,-0.26492c0.16192,-0.09387 0.37015,-0.09254 0.53458,0.02061c0.22748,0.15655 0.28498,0.46787 0.12843,0.69535l-0.0862,0.12526c0.34288,-0.14501 0.67822,-0.28487 0.99208,-0.4279c2.62855,-1.19781 4.90241,-1.86916 7.38099,-1.52205c0.07524,-0.04651 0.16128,-0.07195 0.24866,-0.07457l0.99335,-0.0405l0.00663,0.16261c4.72062,-0.33386 11.13951,2.93045 13.80319,6.41791c2.17941,2.89123 3.93677,7.16479 2.63898,10.91507c-0.9303,2.68832 -3.25571,5.24306 -4.86765,7.5596c-2.3656,1.89238 -4.869,3.47206 -7.46043,5.03979c-0.89403,0.54086 -2.18431,1.67008 -3.20844,1.88237c-2.34626,0.48637 -5.28626,-0.5792 -7.70392,-0.55768c-4.43474,0.03534 -8.92443,0.25192 -12.63849,-2.30407l-0.41189,-0.28346c0,0 -0.04387,-0.03019 -0.09312,-0.08518zM241.02028,176.03297c0.13254,0.03345 0.26546,0.06708 0.39855,0.09912c-0.13035,-0.04025 -0.26345,-0.0726 -0.39855,-0.09912z" fill="#485e84" stroke="none" stroke-width="0.5" stroke-linecap="butt"/><path d="M216.81733,190.21505c0.08791,0.05908 0.16452,0.15874 0.19523,0.32508c0.04038,0.21864 -0.03442,0.35801 -0.12994,0.44538c-0.00645,0.01053 -0.01335,0.02115 -0.02072,0.03186c-0.21051,0.30589 -0.49187,0.22827 -0.62273,0.16806c-1.61491,0.24728 -3.18744,0.17556 -4.80015,0.352c-0.38804,0.04246 -1.36153,0.37167 -1.6017,-0.07508c-0.41994,-0.78113 0.36509,-1.46832 0.67746,-2.02187c0.86919,-1.54026 1.74353,-2.9848 2.76314,-4.45375c0.57683,-0.50637 1.13321,-0.74099 1.85677,-0.98483c0.4894,-0.16492 3.23154,-1.35061 3.602,-0.94944c1.41145,1.52845 -1.82653,5.15329 -1.91938,7.16259z" fill="#ff66ca" stroke="none" stroke-width="0.5" stroke-linecap="butt"/><path d="M210.71579,189.40461c-0.0183,-0.40768 0.12345,-0.7395 0.12345,-0.7395l0.88934,-1.53779c1.04948,-0.75835 1.80306,-2.09211 3.06357,-2.38808c4.33999,-1.01903 3.69235,0.10291 3.30514,3.1278c-0.09119,0.7123 -0.0419,1.51548 -0.44911,2.10699c-1.54471,2.24392 -4.94224,1.97278 -7.30636,2.56861c0,0 -0.00356,-0.86127 -0.36908,-2.31608c-0.36553,-1.45479 -0.36197,-0.59352 -0.36197,-0.59352c0.36452,-0.09132 0.73367,-0.16479 1.105,-0.22846z" fill="#8fbbbe" stroke="none" stroke-width="0.5" stroke-linecap="butt"/><path d="M215.92557,193.96356c0.49517,0.06934 0.42584,0.5645 0.42584,0.5645l-0.03101,0.22145c-0.01706,0.12159 -0.03492,0.23897 -0.05367,0.35232c0.01037,0.03724 0.01758,0.07853 0.02088,0.12435c0.01257,0.1743 -0.04018,0.29208 -0.11412,0.37156c-0.54152,2.53568 -1.70365,2.71577 -4.5709,3.24536c-0.58388,0.21256 -1.13547,0.77212 -1.74555,0.6542c-1.07743,-0.20826 -1.20656,-2.7412 -0.47356,-3.35654c0.97726,-0.8204 4.27224,-1.20266 5.91938,-1.34195c0.00919,-0.06118 0.01825,-0.12381 0.02721,-0.18796l0.03101,-0.22145c0,0 0.06933,-0.49518 0.56449,-0.42584z" fill="#8fbbbe" stroke="none" stroke-width="0.5" stroke-linecap="butt"/><path d="M255.22719,196.31906l-1.36751,5.73546l-5.79758,7.54242l-5.60266,3.73131l-5.25385,1.24004l-10.99482,-2.10389l-5.85611,-4.94056l-2.53992,-6.4519c0,0 -0.64026,-4.01186 -0.8498,-5.32485c-0.12299,-0.77068 -0.06137,-1.06834 -0.06137,-1.06834c0,0 3.53668,8.09032 11.98584,9.81403c17.17473,3.50381 26.16736,-15.4228 26.16736,-15.4228z" fill="#343545" stroke="#343545" stroke-width="1.5" stroke-linecap="round"/><path d="M227.55605,212.93499c-0.42519,0.61783 -1.04302,0.19265 -1.04302,0.19265l-0.26013,-0.18276c-2.20574,-1.84288 -3.99275,-4.17911 -5.09595,-6.80087c-2.80538,-0.56695 -4.66174,-1.59427 -5.68544,-4.90274c-0.3453,-1.11598 -0.8572,-1.82057 0.03067,-2.96624c0.16267,-0.20992 1.74386,-0.61207 2.03986,-0.69793c0.86396,-0.2506 1.71675,-0.49219 2.5714,-0.71099c0.11765,-1.93894 0.24342,-4.1918 0.53203,-6.11175c-1.03236,0.60003 -4.53457,2.97053 -5.40142,2.48985c-1.25447,-0.69561 -0.11823,-1.29558 0.0883,-1.95491c0.01842,-0.05878 0.03705,-0.11732 0.0559,-0.17559c-1.07718,0.33612 1.4853,-6.7676 1.51736,-6.77483c0.03061,-0.14345 0.1253,-0.31297 0.39416,-0.36263c0.49168,-0.09082 0.5825,0.40087 0.5825,0.40087l0.03395,0.23727c-0.0056,0.30736 -0.05282,0.74297 -0.13646,1.24496c0.46944,-0.8622 0.95424,-1.73106 1.43054,-2.64643c0.04214,-0.13432 0.12443,-0.23987 0.20118,-0.3148c0.07535,-0.08131 0.18326,-0.16938 0.32296,-0.21375l0.17958,-0.09552c0.89399,-0.35536 1.72979,-0.83352 2.57669,-1.28983c0.29952,-1.10927 0.72834,-2.1831 1.41859,-3.1944c0,0 0.42519,-0.61783 1.04302,-0.19265c0.61783,0.42519 0.19265,1.04302 0.19265,1.04302c-0.32343,0.46542 -0.58326,0.95107 -0.79581,1.45178c1.83836,-0.72439 3.88561,-1.16526 5.99075,-1.36078c1.21265,-2.11775 2.7851,-4.02605 4.86222,-5.59687c0,0 0.59874,-0.45167 1.05041,0.14707c0.45167,0.59874 -0.14707,1.05041 -0.14707,1.05041c-1.61068,1.21169 -2.91033,2.67028 -3.96486,4.2914c2.71433,-0.07596 5.45326,0.23046 7.90246,0.83982c0.6973,-1.435 1.52683,-2.86099 2.5243,-4.3104c0,0 0.42519,-0.61783 1.04302,-0.19265c0.61783,0.42519 0.19265,1.04302 0.19265,1.04302c-0.88865,1.29128 -1.63841,2.56158 -2.27646,3.83668c2.37556,0.51109 5.14833,0.68573 7.3135,1.61701c0.34666,0.1491 0.68128,0.32227 1.00633,0.51408c-0.02336,-0.31837 -0.0644,-0.63471 -0.12648,-0.94855l-0.03731,-0.73015c0,0 -0.03055,-0.74938 0.71883,-0.77993c0.74938,-0.03055 0.77993,0.71883 0.77993,0.71883l0.01361,0.51881c0.13045,0.74652 0.16094,1.49552 0.12711,2.24583c1.44544,1.13839 2.76036,2.50944 4.21862,3.513c0,0 0.61783,0.42519 0.19265,1.04302c-0.42519,0.61783 -1.04302,0.19265 -1.04302,0.19265c-1.22342,-0.84195 -2.35133,-1.97632 -3.54782,-2.99172c-0.23567,1.575 -0.63178,3.15198 -0.86054,4.72054c0.5163,0.27624 1.04027,0.53435 1.58213,0.75102c0.75377,0.30141 2.09532,0.10363 2.60027,0.89812c0.91299,1.43647 0.23201,1.52706 0.12113,2.76878c-0.07213,0.8077 0.66052,2.70762 0.24199,3.35557c-0.29857,0.46222 -1.6851,0.50605 -2.23652,0.54132c-1.14819,0.07345 -2.29753,0.23473 -3.44648,0.361c-0.21898,1.96409 -0.44426,3.91059 -0.8104,5.81663c0.71623,-0.44175 1.42649,-0.88312 2.14261,-1.27885c0.47989,-0.25818 0.93489,-0.58707 1.29909,-0.99242l0.21711,-0.32878c0,0 0.42519,-0.61783 1.04302,-0.19265c0.61783,0.42519 0.19265,1.04302 0.19265,1.04302l-0.3498,0.49499c-0.48284,0.51384 -1.06279,0.94306 -1.67717,1.28906c-1.11113,0.61271 -2.20038,1.31209 -3.3127,1.96358c-0.61376,2.38686 -1.53269,4.69504 -3.0345,6.8773c0,0 -0.42519,0.61783 -1.04302,0.19265c-0.61783,-0.42519 -0.19265,-1.04302 -0.19265,-1.04302c1.10635,-1.60762 1.87837,-3.29358 2.43923,-5.03382c-1.28239,0.62465 -2.62364,1.09935 -4.086,1.23761c-0.94086,0.08896 -1.902,0.11826 -2.87688,0.10157c0.25084,1.38015 0.57147,2.75248 1.25287,3.96768c0.13508,0.2447 0.27016,0.4894 0.40524,0.7341l0.0775,-0.04278c0,0 0.61783,0.42519 0.19265,1.04302c-0.42519,0.61783 -1.04302,0.19265 -1.04302,0.19265l-0.54033,-0.46797c-0.13508,-0.2447 -0.27016,-0.4894 -0.40524,-0.7341c-0.78855,-1.44691 -1.39184,-3.06522 -1.84006,-4.77852c-2.15327,-0.15291 -4.3517,-0.48177 -6.52819,-0.84596c1.58048,2.43599 3.75884,4.66893 5.58523,6.87517l0.21312,0.3595c0,0 0.36246,0.6566 -0.29414,1.01906c-0.6566,0.36246 -1.01906,-0.29414 -1.01906,-0.29414l-0.05703,-0.12991c-2.04786,-2.49051 -4.54525,-4.9902 -6.16599,-7.78894c-0.07092,-0.12247 -0.14011,-0.24693 -0.20763,-0.37328c-1.90132,-0.3285 -3.77,-0.65176 -5.56013,-0.87352c-0.07837,-0.01097 -0.15617,-0.02198 -0.2334,-0.03304c1.02195,2.05402 2.51228,3.88773 4.28419,5.35171l0.15176,0.1007c0,0 0.61783,0.42519 0.19265,1.04302zM219.97497,201.27855c0.00511,-0.9806 0.025,-1.92893 0.06117,-2.85646c-0.43474,0.11499 -0.87027,0.23666 -1.30862,0.36381c-0.40092,0.11629 -1.91917,0.28864 -2.13887,0.5233c-0.39018,0.41677 0.40807,1.7944 0.54672,2.25341c0.57061,1.88902 1.86737,2.60723 3.44552,2.9814c-0.31752,-1.05591 -0.52461,-2.14843 -0.60593,-3.26546zM221.44512,187.0811c0.25778,-1.24151 0.40695,-2.49488 0.61302,-3.72621c-0.51254,0.19839 -1.0293,0.40301 -1.55134,0.61234c-0.92881,1.7316 -2.1191,3.30491 -2.93901,5.09704c-0.29145,0.63704 -0.42942,1.72061 -0.72078,2.54684c0.0767,-0.07062 0.16136,-0.13709 0.25371,-0.19543c0.97443,-0.61548 1.96488,-1.08343 2.97033,-1.64085c0.31258,-0.17255 0.62933,-0.33888 0.94994,-0.49903c0.12805,-0.71871 0.26919,-1.44844 0.42414,-2.19471zM222.91417,187.38421c-0.07858,0.38033 -0.15358,0.75598 -0.22505,1.12775c1.49877,-0.62701 3.06533,-1.13023 4.67194,-1.51368c0.48354,-2.03955 1.10302,-4.0354 1.94404,-5.91189c-1.87988,0.39123 -3.74344,0.97401 -5.65032,1.6678c-0.30559,1.52466 -0.42615,3.10821 -0.7406,4.63002zM221.47414,201.22858c0.08836,1.23929 0.35419,2.44913 0.7686,3.60644c0.36683,0.05054 0.73972,0.09801 1.11432,0.15046c1.4889,0.1844 3.03735,0.44325 4.61567,0.7173c-0.97067,-2.50586 -1.44677,-5.47721 -1.62341,-8.30633c-0.56068,-0.01973 -1.11791,0.00748 -1.66768,0.11339c-1.07012,0.12477 -2.1046,0.31018 -3.13019,0.54044c-0.04623,1.02758 -0.07131,2.08106 -0.07732,3.17829zM224.45844,196.02655c0.60692,-0.10803 1.21531,-0.13452 1.82421,-0.11306c-0.03196,-1.14721 -0.01815,-2.25128 0.02743,-3.26858c0.19882,-1.33357 0.42188,-2.67787 0.69255,-4.01225c-1.60312,0.42373 -3.15822,0.97511 -4.63359,1.65873c-0.35147,2.10459 -0.58893,4.1221 -0.73065,6.21246c0.92365,-0.2004 1.85831,-0.36517 2.82004,-0.4773zM227.8038,192.78217c-0.04377,1.00578 -0.05709,2.11075 -0.02282,3.26231c1.07584,0.1369 2.15088,0.33748 3.21995,0.41671c1.71082,0.1268 3.43083,0.28743 5.1546,0.43005c0.07375,-1.62926 0.22401,-3.19931 0.42717,-4.65027c0.22967,-1.62137 0.4911,-3.15694 0.81421,-4.63388c-2.95024,-0.1595 -5.95799,0.05166 -8.84681,0.65896c-0.31905,1.50766 -0.55736,3.02642 -0.74631,4.51613zM250.1156,191.46904c-0.35697,1.79837 -0.58724,3.60458 -0.7926,5.40133c0.57938,-0.07569 1.16121,-0.14697 1.75264,-0.18178c0.47255,-0.02781 0.94524,-0.05313 1.41767,-0.0827c0.36712,-0.02297 1.06888,0.47176 1.09849,0.10511c0.05091,-0.63044 -0.56545,-1.81384 -0.50199,-2.61908c0.04713,-0.59815 0.48091,-1.11777 0.18763,-1.73768c-0.04846,-0.10242 -1.82288,-0.36491 -1.9571,-0.41734c-0.40965,-0.16005 -0.80853,-0.34522 -1.2012,-0.54497c-0.00126,0.02571 -0.00243,0.05141 -0.00353,0.0771zM248.62657,191.28796c0.01035,-0.22765 0.0278,-0.45652 0.05107,-0.68646c-0.8583,-0.49047 -1.71396,-0.98826 -2.61796,-1.37578c-2.25181,-0.75595 -4.67524,-1.26285 -7.16192,-1.50508c-0.3349,1.50184 -0.59995,3.06707 -0.82955,4.72831c-0.22189,1.58473 -0.32687,3.09078 -0.33772,4.56604c2.83773,0.2086 5.68126,0.32579 8.50662,0.12099c0.52696,0.00777 1.0459,-0.02569 1.56183,-0.07789c0.20905,-1.92254 0.43952,-3.8548 0.82764,-5.77014zM248.22379,183.13906c-2.16513,-0.9262 -4.99495,-1.05853 -7.34855,-1.59442c-0.6711,1.53465 -1.1962,3.08953 -1.62189,4.70882c2.54617,0.26278 5.02806,0.79146 7.34163,1.57103c0.79758,0.34258 1.55854,0.76707 2.3163,1.19738c0.30471,-1.64983 0.75603,-3.33194 0.90758,-4.98371c-0.50769,-0.35137 -1.03586,-0.65991 -1.59506,-0.89912zM246.28002,198.63538c-2.8319,0.20315 -5.68308,0.09139 -8.52849,-0.11411c0.09277,2.65848 0.4719,5.26921 0.99996,8.12141c0.02872,0.15517 0.05655,0.31117 0.0839,0.46777c1.01689,0.0245 2.0179,-0.00163 2.99485,-0.09477c1.72095,-0.16407 3.2777,-0.85765 4.77035,-1.69929c0.51813,-2.18539 0.78594,-4.43936 1.0325,-6.71714c-0.45122,0.02826 -0.90226,0.04278 -1.35305,0.03613zM237.74658,186.12952c0.43677,-1.70875 0.97454,-3.34789 1.66327,-4.96273c-2.95452,-0.70171 -5.67703,-0.75786 -8.33101,-0.38927c-0.94437,1.84664 -1.63653,3.84356 -2.15677,5.88795c2.89512,-0.54519 5.88849,-0.71636 8.82452,-0.53594zM230.88565,197.95675c-0.99503,-0.07505 -2.01413,-0.27724 -3.03358,-0.41847c0.19423,2.94428 0.7293,6.03864 1.87061,8.46971c2.36335,0.41041 4.76835,0.80638 7.11874,0.99555c-0.57029,-2.78885 -0.77418,-5.75975 -0.73129,-8.60972c-1.74744,-0.14348 -3.49087,-0.30631 -5.22447,-0.43708z" fill="#000000" stroke="none" stroke-width="0.5" stroke-linecap="butt"/><path d="M241.19749,177.87989c-0.08584,0.61304 -0.7505,1.08027 -1.42806,1.20705c-0.69065,0.12923 -1.39573,-0.08807 -1.62228,-0.09809c0,0 -1.1543,-0.19248 -1.09912,-1.44126c0.05518,-1.24878 1.30396,-1.19361 1.30396,-1.19361c0.4488,0.01983 0.89759,0.03966 1.3464,0.05949l0.4345,0.05516c0,0 1.23792,0.17332 1.0646,1.41125z" fill="#8fbbbe" stroke="none" stroke-width="0.5" stroke-linecap="butt"/><path d="M245.07192,179.3274c-0.00334,0.22635 -0.56299,0.55002 -1.01872,0.5647c-0.55087,0.01774 -1.01526,-0.32104 -1.01123,-0.59465c0.00738,-0.49995 0.50733,-0.49257 0.50733,-0.49257c0.17168,0.00253 0.34335,0.00506 0.51502,0.0076l0.51502,0.0076c0,0 0.49995,0.00738 0.49257,0.50733z" fill="#8fbbbe" stroke="none" stroke-width="0.5" stroke-linecap="butt"/><path d="M252.03699,205.88346c-6.53593,9.49726 -19.09207,12.20163 -28.04491,6.04037c-8.95284,-6.16126 -10.91212,-18.85501 -4.37619,-28.35228c6.53593,-9.49726 19.09206,-12.20164 28.0449,-6.04037c8.95284,6.16126 10.91213,18.85502 4.3762,28.35228z" fill="none" stroke="#000000" stroke-width="2.5" stroke-linecap="butt"/><path d="M218.61961,182.94663c0,0 -3.7375,10.43405 -2.87275,14.35393c3.55845,16.13028 10.07913,16.0978 10.07913,16.0978c0,0 -8.80244,-0.26385 -9.86505,-1.04659c-11.43081,-8.42012 -6.5824,-21.36103 -3.58402,-25.83815c0.57286,-0.85538 6.24269,-3.567 6.24269,-3.567z" fill="none" stroke="#000000" stroke-width="2.5" stroke-linecap="round"/></g><g stroke-linecap="round"><path d="M308.64018,112.97215c0,0 -10.65325,8.81287 -19.00174,17.74266c-11.96763,12.80092 -25.65422,29.03772 -27.47475,30.40806c-1.4236,-0.17938 -8.06707,-3.22874 -15.2648,-11.44369c-3.85928,-4.40469 -9.71871,-10.00363 -13.00813,-14.67793c-3.16769,-4.50132 -5.20111,-9.47778 -6.3281,-12.47983c-0.70302,-1.8727 -0.64464,-2.48957 -0.64464,-2.48957c0,0 2.97,5.7098 6.85883,11.39703c3.69469,5.40329 9.20025,10.04962 11.37669,12.28502c7.80431,8.01571 16.72113,14.18729 16.91056,14.02692c0.97427,-0.82483 4.12772,-5.53116 8.9527,-11.40567c3.86314,-4.70343 9.55627,-10.22391 14.2672,-14.93937c5.39082,-5.39603 10.31105,-10.44473 14.83889,-13.58196c2.64663,-1.83379 8.51729,-4.84165 8.51729,-4.84165z" fill="#000000" stroke="#000000" stroke-width="0.5"/><path d="M252.0625,153.375l0.25,10.625l-2.875,0.625c0,0 -1.35378,-2.29447 -2.3387,-4.64993c-0.80917,-1.93515 -1.23935,-3.91148 -1.57891,-4.69047c-0.37156,-0.8524 -0.83239,-8.9096 -0.83239,-8.9096z" fill="#000000" stroke="#000000" stroke-width="2.5"/><path d="M278.4375,143c0,0 -2.56881,13.53593 -3.05432,16.29958c-0.16064,0.9144 -0.19568,2.20042 -0.19568,2.20042l-3.75,0.25c0,0 -1.92044,-4.70253 -2.45065,-6.17789c-0.36499,-1.01561 -0.42435,-1.82211 -0.42435,-1.82211z" fill="#000000" stroke="#000000" stroke-width="2.5"/><path d="M249.1875,173.375c0,0 11.61157,1.36474 21.22665,-2.3701c2.58147,-1.00274 7.65337,-2.96878 10.81169,-4.33085c6.75663,-2.9139 11.46166,-5.29905 11.46166,-5.29905c0,0 6.06357,9.0175 -15.6946,14.61947c-7.84656,2.02022 -13.3054,-1.66114 -13.3054,-1.66114c0,0 -2.03232,0.89439 -10.41652,0.00873c-2.99036,-0.31589 -4.08348,-0.96706 -4.08348,-0.96706z" fill="#000000" stroke="#000000" stroke-width="1"/><path d="M265.83333,174.10417c0,0 9.14626,-2.85579 11.33987,-3.67748c4.42059,-1.65587 13.41013,-5.90586 13.41013,-5.90586c0,0 0.34843,1.5003 -0.93364,3.12231c-0.73001,0.92358 -2.49549,2.1096 -3.88486,2.7728c-9.80792,4.68168 -16.13415,4.71394 -18.7197,4.14851c-0.85823,-0.18769 -1.2118,-0.46029 -1.2118,-0.46029z" fill="#ff6666" stroke="#ff6666" stroke-width="0.5"/></g></g></g></svg>