<svg version="1.1" xmlns="http://www.w3.org/2000/svg" xmlns:xlink="http://www.w3.org/1999/xlink" width="488.45341" height="366.63712" viewBox="0,0,488.45341,366.63712"><g transform="translate(4.22671,3.31856)"><g data-paper-data="{&quot;isPaintingLayer&quot;:true}" fill-rule="nonzero" stroke-linejoin="miter" stroke-miterlimit="10" stroke-dasharray="" stroke-dashoffset="0" style="mix-blend-mode: normal"><g stroke-width="0.5"><path d="M226.20645,237.09584c-1.71208,0.33137 -3.50248,0.44386 -5.65853,0.444c0,0 -0.26742,0.00002 -0.4559,-0.15917c-0.60483,0.50587 -1.41396,1.02471 -1.92751,1.46208c-3.44633,2.42036 -6.87408,3.44368 -10.51553,5.39522c-3.31522,1.77672 -7.05139,4.48898 -10.61298,5.20257c-0.03551,1.02741 -0.34616,2.18757 -1.01426,3.51599c-0.65406,1.30051 -1.00451,1.39434 -1.80897,2.46122c-1.3372,1.77339 -2.48173,4.33971 -4.73846,4.5194c-6.46565,0.00043 -15.30501,0.84341 -19.3615,-4.17764c-0.07473,0.02015 -0.15811,0.03165 -0.25109,0.03166c-0.74917,0.00005 -0.62348,-0.74647 -0.62348,-0.74647l0.12298,-0.64408c1.76827,-4.79118 6.64378,-7.02175 10.74797,-9.85827c3.08799,-2.1342 6.02166,-4.48386 9.48641,-3.28586c2.95807,1.85124 6.53827,3.60239 7.29795,6.73943c3.34857,-0.58477 7.08565,-3.37042 10.20806,-5.04245c3.5611,-1.90695 6.8947,-2.86168 10.25097,-5.22317c0.35114,-0.30031 2.95483,-2.00387 2.59152,-2.611c-0.74434,-1.2439 -3.12954,-1.99286 -4.53242,-2.30178c-3.86351,-0.85078 -7.81629,-0.23874 -10.92392,-2.57914c-0.66799,-0.79976 -1.82439,-1.36794 -2.13072,-2.42905c-0.99718,-3.45423 2.26098,-5.23036 5.17256,-6.39016c5.31156,-2.11581 10.49514,-2.18049 15.77929,-2.10251c1.69503,1.02314 6.22506,2.90279 6.63816,5.0864c0.89426,4.72696 -4.75359,8.16816 -8.8437,9.77675c0.33026,0.52843 0.42117,1.1451 0.07279,1.86849c1.67066,0.01271 3.37663,0.09686 5.0776,-0.1102c0.25958,-0.22346 0.59481,-0.22348 0.59481,-0.22348c0.18286,-0.00001 0.53221,-0.00004 0.71507,-0.00005c0.71307,-0.1601 1.42345,-0.38818 2.1281,-0.7112c-0.06736,-0.24111 -0.06717,-0.55574 0.02362,-0.95612c0.24413,-1.07676 3.24013,-2.89069 4.1926,-3.62494c1.36469,-1.05202 2.95799,-2.06724 4.18391,-3.28345c2.64617,-2.62519 4.24947,-5.95407 7.72739,-3.12501c0.66486,0.76273 2.24713,1.68484 2.54266,2.68482c0.7501,2.53823 -2.48564,4.71849 -4.46351,5.81833c-5.33237,2.96518 -10.62782,4.6902 -16.3023,4.69058c-0.27747,0.00002 -0.55494,0.00003 -0.83241,0.00005l-0.16649,0.00001c0,0 -0.21134,0.00001 -0.39069,-0.11183z" fill="#ff2d32" stroke="none" stroke-linecap="butt"/><path d="M191.26024,262.7459l-0.56691,-0.40436c0,0 -0.0952,-0.0712 -0.16956,-0.19885c-1.55449,-0.69368 -2.94332,-2.39298 -2.66219,-4.09223c0.02574,-0.15553 1.47243,-2.78159 1.61544,-3.04354c2.86628,-5.25056 6.77633,-8.95835 11.69797,-12.53583c3.01276,-2.1879 6.17667,-3.93911 9.27992,-5.95919c1.91035,-1.24357 3.79867,-3.03211 5.78649,-4.05498c3.02169,-1.5549 6.3361,-2.7209 9.2447,-4.47966c2.99214,-1.3316 6.33591,-0.3192 9.39241,-0.59551c4.42753,-0.40025 8.481,-0.50187 12.89412,-0.50216c2.34928,0.08593 3.1936,2.48691 4.3606,4.10337c2.65353,3.67553 4.76779,9.03056 4.49437,13.96954c-0.06368,1.15032 -0.15006,2.88569 -0.91903,3.92802c-0.12648,0.17144 -2.68931,1.98899 -2.9291,2.16081c-10.48347,4.42028 -20.46866,5.81493 -31.22277,6.83722c-3.92762,0.37336 -7.64758,1.50629 -11.55305,2.22994c-5.59863,1.03738 -11.57561,1.17199 -16.95107,3.5823l-0.77548,0.01696c-0.21267,0.05157 -0.37539,-0.00262 -0.49167,-0.0809c-0.12609,-0.06372 -0.24742,-0.17568 -0.2846,-0.37238c-0.08019,-0.16951 -0.16038,-0.33903 -0.24057,-0.50854z" fill="#ab164a" stroke="none" stroke-linecap="butt"/><path d="M255.2402,269.54969c-1.45424,-1.23167 -3.12566,-3.06504 -3.49463,-4.98967c-0.60651,-3.16359 1.84658,-5.2199 3.01132,-8.05868c0.9453,-2.30395 1.54466,-4.97426 1.42884,-7.28589c-1.33699,-2.95176 -5.58313,-3.8744 -8.75698,-5.14576c-0.77472,-0.31032 -1.81134,-0.16552 -2.45239,-0.668c-3.44556,-2.70069 0.27863,-8.30278 3.92806,-9.47996c3.82315,-1.01903 10.20144,-0.99565 13.88633,-0.3564c1.26169,0.21888 1.58111,-2.1683 6.05628,-4.50813c2.82799,-1.47861 10.39101,-3.38691 11.15112,-3.1847c2.53373,0.67405 -3.57291,10.31205 -0.8713,10.33637c7.39846,-0.00053 11.08511,-1.95767 18.36939,-4.57629c1.60559,-0.57719 5.3276,-1.28103 6.3778,-2.73364c1.25851,-3.93141 3.81928,-4.77084 7.46699,-5.29027c1.06267,-0.15133 1.93909,-1.12896 3.00771,-0.61658c2.40879,1.15496 1.60195,5.21204 -0.43545,6.87716c-1.46098,1.19402 -3.22412,2.26613 -4.77251,3.35683c-0.69024,0.46976 -1.57046,0.60068 -2.19908,1.1547c-0.47401,0.41777 0.08787,1.13291 0.23865,1.66133c0.48296,1.69274 2.66691,1.58111 3.97587,2.23321c3.3932,1.69046 8.79703,7.37068 6.90327,11.68131c-1.74586,3.27206 -2.65528,7.4595 -5.69744,10.07468c-2.16424,1.86047 -4.56028,1.86126 -7.07308,2.24654c-4.12662,0.63273 -8.10101,1.29215 -12.20465,1.48404c-10.16032,0.47512 -21.41725,0.11732 -31.18027,5.01733c-1.97517,0.88416 -3.75232,1.928 -5.82093,1.93642l-0.62679,-0.24466c0,0 -0.56472,-0.30707 -0.21608,-0.92132z" fill="#ff2d32" stroke="none" stroke-linecap="butt"/><path d="M228.35865,211.02918c0.01849,-0.01721 0.02906,-0.02624 0.02906,-0.02624l0.05826,0.00311c0.00054,-0.00013 0.0011,-0.00026 0.00164,-0.00038c4.09987,-5.26402 10.32215,-6.09498 16.0273,-5.84319c11.36783,0.50172 23.07109,1.25105 33.88941,3.62172c1.14265,0.52544 4.3673,1.94809 4.71196,2.5572c0.4122,0.72846 -0.31323,1.81038 -0.58604,2.70476c-1.65558,5.42789 -6.00106,8.65747 -11.11004,11.02148c-4.72741,2.18744 -12.25669,1.98695 -16.69361,0.80725c-3.52297,-0.93671 -5.64774,-2.37188 -9.53463,-2.37522c-0.94395,0.14219 -1.9626,-0.00693 -2.8319,0.49123c-3.4041,1.95068 -4.40782,7.59422 -9.19668,7.61882c-2.6027,0.01337 -3.29767,-2.64471 -3.88281,-4.55754c-0.68814,-2.24954 -0.20797,-4.74676 -0.33167,-7.14195c-0.12976,-2.51247 -1.12189,-4.49722 -1.87734,-6.75721c0,0 -0.44524,-1.33536 1.00733,-2.00316c0.11255,-0.05175 0.21905,-0.09145 0.31976,-0.1207z" fill="#0f1b82" stroke="none" stroke-linecap="butt"/><path d="M280.77096,221.26065c0.31987,-0.3916 0.74583,-0.58743 0.74583,-0.58743l0.58466,-0.24241c1.46082,-0.38788 2.93657,-0.36752 4.40559,-0.60618c1.74167,-0.28297 3.41802,-1.24206 5.1522,-1.68035c3.79299,-0.95864 8.09601,-1.61871 11.81687,-1.46777c2.84083,0.11524 6.99042,2.78981 5.45024,6.39004c-0.73758,1.72411 -3.5815,3.28304 -5.03278,4.43833c-1.85446,1.47623 -3.02556,3.82302 -4.3171,5.72342c-2.75762,2.59683 -6.63437,7.08029 -10.16315,8.47465c-3.61034,1.42659 -5.03666,-1.64413 -6.21049,-3.92928c-0.67844,-1.32075 -1.71566,-2.42022 -2.28013,-3.80526c-0.65556,-1.60857 -0.31898,-3.63515 -0.63136,-5.35345c-0.34949,-1.92248 -0.86671,-3.55968 -0.96563,-5.5824c0,0 -0.06803,-1.4571 1.44528,-1.77192z" fill="#0f1b82" stroke="none" stroke-linecap="butt"/><path d="M227.67582,212.20091c0,0 1.64076,7.06009 1.83265,8.86831c0.32408,3.05401 1.16917,8.05237 1.16917,8.05237l-5.53286,-7.8202l-7.25277,-0.99487l-6.137,0.85356l-5.56621,0.85352l4.0538,-9.66933l3.40555,-4.12381l7.65599,1.99018l5.49062,2.98567z" fill="#0066cc" stroke="#0066cc" stroke-linecap="round"/><path d="M287.63808,207.789l17.14219,4.9756l2.11091,5.26096c0,0 -13.6168,14.98907 -16.88137,15.4537c-1.95069,0.22336 -9.45366,-9.05331 -9.45366,-9.05331l-10.8259,4.12428l-5.87837,3.5552l-0.8609,4.26583l-10.88924,-3.12752l-1.63586,-4.69223l-6.5097,-6.25603c0,0 9.2525,3.74845 18.21509,2.0185c11.60187,-2.23938 16.8706,-6.99753 16.8706,-6.99753z" fill="#0066cc" stroke="#0066cc" stroke-linecap="round"/><path d="M280.87397,194.99215c0.25137,-1.49303 1.74971,-1.49313 1.74971,-1.49313l0.58744,0.00858c4.86729,0.5402 9.93861,2.13163 14.31673,3.87157c0.99483,0.42208 2.15537,0.61066 2.98455,1.26622c2.31615,1.83118 0.86824,5.77802 1.44359,8.32822c0.49582,2.19766 3.55058,1.48527 2.77662,4.77381c-0.45502,1.93338 -2.92827,3.157 -4.53652,3.48411c-1.69699,0.34517 -2.52376,-0.33154 -3.75502,-0.98878c-2.77825,-1.48299 -5.18804,-3.78214 -8.32691,-4.56877c-1.48706,0.90016 -2.93727,1.85006 -4.39036,2.81351c-0.19874,0.19315 -0.47199,0.35684 -0.84763,0.44332c-0.27759,0.08174 -0.6213,0.11926 -0.93966,-0.02397c-0.32753,-0.1269 -0.50632,-0.38289 -0.60389,-0.62154c-0.15445,-0.30889 -0.17442,-0.59612 -0.12119,-0.85092l-0.01701,-1.321c0.40713,-4.48788 1.36315,-9.02299 2.12186,-13.52369c-0.3097,-0.0422 -0.61865,-0.08003 -0.92655,-0.11321l-0.26877,0.00864c0,0 -1.49834,0.0001 -1.24697,-1.49293z" fill="#fddfbd" stroke="none" stroke-linecap="butt"/><path d="M288.89518,189.30394l13.07104,8.81505l-0.81396,4.83459c0,0 -2.57034,1.10011 -8.22078,-1.56896c-5.79387,-2.73682 -8.84583,-7.24583 -8.84583,-7.24583z" fill="#f89587" stroke="#f89587" stroke-linecap="round"/><path d="M261.39041,172.37545c3.92867,-2.8619 8.98313,-5.70381 13.5239,-7.09554c2.89565,-0.88752 6.3934,-0.36265 9.23924,-0.36161c3.36146,0.00122 8.37684,-0.13528 11.09303,1.57155c4.10282,2.57816 0.45504,5.18692 -2.93947,6.48476c-1.87636,0.26642 -3.71759,0.38555 -5.54553,0.44854c-0.23384,0.68379 -0.76828,0.96595 -1.16948,1.08238c-3.48829,2.34515 -6.97606,1.78811 -10.77365,1.79524c-4.12045,0.00775 -7.98876,0.19869 -11.78642,-0.29948c-0.04447,0.00882 -0.08892,0.01763 -0.13336,0.02643l-0.05184,0.34956l-3.00122,0.05981c-0.01165,0.00026 -0.02328,0.0004 -0.03494,0.0004c-0.82752,0.00006 -1.3858,-0.66835 -1.24697,-1.49293c0.13132,-0.77999 0.83936,-1.42033 1.61594,-1.48734l0.46918,-0.04608c0.16613,-0.61638 0.7416,-1.03566 0.7416,-1.03566z" fill="#f89587" stroke="none" stroke-linecap="butt"/><path d="M259.35073,183.27185l0.72706,0.03094c2.56468,-1.27243 5.12191,-2.34852 7.6895,-3.65538c2.0544,-1.04565 4.47514,-2.82728 6.71376,-3.26855c4.8447,-0.95494 9.73737,-0.82722 14.58863,-1.76151c3.80065,-0.73196 7.25963,-2.0708 11.12231,-2.62699c2.04795,-0.28941 5.90066,-1.18983 7.36631,0.45065c0.5693,0.6372 -0.54117,1.84441 -0.90259,2.74839c-0.7669,1.91814 -1.64041,4.12239 -1.28858,6.12444c0.37008,2.10597 1.01452,5.13264 1.79945,7.06673c0.54136,1.33393 1.52781,1.95836 1.39085,3.93767c-0.484,6.99427 -10.19263,5.07239 -13.78517,3.16736c-2.77295,-1.36243 -5.21222,-2.89865 -7.18487,-5.14414c-0.098,-0.11156 0.18,0.27346 0.14058,0.43419c-0.1142,0.46566 -0.37497,0.9077 -0.57977,1.35661c-0.97225,2.13127 -1.68979,3.93314 -2.41553,6.09272c-1.64752,4.90253 -1.63055,9.62926 -2.42383,14.51512c-0.0028,0.46301 -0.20182,0.80654 -0.44277,1.05312c-0.21659,0.26655 -0.53981,0.50871 -1.0172,0.58407l-0.3663,0.11369c-2.39601,0.61531 -4.58515,1.81885 -7.03528,2.03867c-2.09777,0.1882 -3.69835,-0.11495 -5.82761,0.55496c-11.58372,0.10718 -24.38828,0.94082 -33.68122,-5.01443c-2.99942,-1.92213 -5.39409,-3.40913 -6.80815,-6.81705c0.09743,-0.94882 -0.00685,-1.906 0.29228,-2.84644c1.26341,-3.97213 6.57715,-5.73667 9.82997,-7.42838c2.51641,-1.30872 4.69077,-3.32485 7.20512,-4.68949c4.3685,-2.37097 9.09386,-3.92532 13.46158,-6.25387c0,0 0.06548,-0.03467 0.17365,-0.07638c0.4719,-0.60127 1.25781,-0.68673 1.25781,-0.68673z" fill="#feebf7" stroke="none" stroke-linecap="butt"/><path d="M283.0612,202.50154l-1.0547,-24.88356l3.38151,9.57997l2.36826,3.73239z" fill="#db93e6" stroke="#db93e6" stroke-linecap="round"/><path d="M257.16065,176.1266l3.79104,-3.23512l6.34453,2.36352l7.59562,0.12392l7.03579,-1.74232l8.74609,-5.22613l10.72457,-6.59488l6.24391,-0.74692l2.01627,2.11497l1.57719,3.98128l-3.81445,5.59908l-50.52096,13.06724z" fill="#db93e6" stroke="#db93e6" stroke-linecap="round"/><path d="M277.90294,239.26879c1.40263,-1.02968 2.87949,-0.77556 4.51213,-1.0022c1.78319,-0.15858 2.07343,3.93076 4.28901,3.84385c3.52,-0.13807 9.01681,-4.24351 11.24431,-2.87814c2.30082,1.41033 1.23182,4.7238 3.70772,5.41644c1.02116,0.47112 2.67213,0.4777 3.48668,1.22435c0.6108,0.55989 0.23772,1.72086 0.43903,2.55239c0.24591,1.01568 2.74996,0.79418 2.92686,1.84594c0.08929,0.53088 -0.29087,1.18603 -0.71919,1.6199c-0.21879,0.22162 -1.69065,0.34752 -2.03556,0.41402c-2.3459,0.45232 -4.61352,0.86593 -6.96125,1.24633c-2.69776,0.51462 -5.34751,0.31301 -8.02498,0.50789c-5.06819,0.36888 -11.27358,1.90883 -16.1587,4.15502c-1.84093,0.84481 -8.05808,3.99198 -8.93908,0.96827c-0.41297,-1.41739 1.87571,-2.87891 1.92496,-4.23715c0.04405,-1.21456 -2.0624,-0.1166 -2.43877,-1.61047c-0.29705,-1.17905 1.35283,-1.99592 1.09613,-3.10491c-4.61571,0.42582 -2.26133,-3.77313 -0.082,-5.75316c2.56058,-2.32642 8.40266,-5.00712 11.73272,-5.20839z" fill="#feebf7" stroke="none" stroke-linecap="butt"/><path d="M246.81694,229.10194c0,0 2.13705,1.16209 1.94138,2.32431c-0.19567,1.16222 -3.17319,1.53483 -3.4639,1.37904c-0.37696,-0.18118 -0.79162,-3.56964 1.52252,-3.70335z" fill="#000000" stroke="none" stroke-linecap="butt"/><path d="M258.75502,191.94666c0.46,3.81635 0.60571,8.19926 1.63107,11.83155c2.76616,-1.3777 9.03238,-5.06942 10.90652,-8.75734c0.42915,-0.84449 0.62801,-1.68878 0.5018,-2.50504c-0.02773,-0.1793 -1.435,-0.37836 -2.19231,-0.42591c-1.05057,-0.06594 -1.63891,0.04477 -2.60787,-0.12327c-1.14313,-0.19825 -0.71285,-0.94116 -1.86101,-0.92273c-3.28296,0.05268 -5.95468,0.77475 -6.3782,0.90274zM249.03354,198.46961c-2.97689,3.55269 -0.96513,5.97847 1.97281,6.68736c1.72086,0.41523 3.5002,-0.16722 5.46968,-0.37176c0.44904,-0.16384 0.66674,-0.34658 1.14781,-0.54618c-1.04776,-3.68269 -1.12186,-7.244 -1.59341,-11.10025c-1.77168,0.90499 -5.67125,3.7488 -6.99688,5.33083zM272.5014,189.12595c3.47559,1.29628 3.25789,4.10234 0.5969,7.44259c-2.2901,2.87469 -4.88092,5.68364 -8.49201,7.9976c-2.42462,1.55368 -5.8007,2.95254 -8.01429,3.74238c-2.37235,0.26712 -7.06809,-0.01143 -9.13961,-0.94358c-5.01444,-2.25644 -3.86702,-7.1842 0.07984,-11.90013c2.08385,-2.48992 7.14753,-5.37564 13.25784,-6.60386c4.62824,-0.93031 10.74932,-0.09382 11.71135,0.26499z" fill="#ff0000" stroke="none" stroke-linecap="butt"/><path d="M280.83772,238.51048c0,0 1.48705,0.10289 2.7485,0.19017c0.81373,0.0563 2.20896,3.64258 3.90014,3.75959c1.52582,0.10558 3.30875,-3.26081 4.83701,-3.15506c2.58021,0.17852 4.68271,0.324 4.68271,0.324c0,0 -8.84182,11.19821 -11.54152,11.44723c-1.0721,0.09889 -8.3115,-11.44591 -8.3115,-11.44591z" fill="#db93e6" stroke="#db93e6" stroke-linecap="round"/><path d="M243.18493,244.85829l2.17113,-6.22105c0,0 6.19729,0.30381 9.13242,1.17444c2.06183,0.61158 6.28265,3.67685 6.28265,3.67685l-5.39247,2.3643z" fill="#ab164a" stroke="#ab164a" stroke-linecap="round"/><path d="M316.5979,225.60521l-0.01479,0.08784c-0.39805,2.34229 -1.67327,4.13536 -3.58896,5.77704c-3.26179,2.37264 -6.73322,3.89761 -10.20788,5.80989c-1.10917,0.61043 -3.80811,2.36578 -4.98805,2.34793c-3.60867,-0.05456 -0.73051,-4.57649 0.68055,-5.78063c5.12683,-3.60692 11.51286,-6.81479 17.21746,-9.08915c0,0 0.7381,-0.29411 0.9177,0.39203c0.04641,0.1773 0.03153,0.32843 -0.01604,0.45506z" fill="#ab164a" stroke="none" stroke-linecap="butt"/><path d="M188.77311,239.35984l0.11999,-0.21061c3.49494,-3.28921 7.97388,1.09998 10.35042,3.02217c0.65051,0.6 1.84882,1.54151 1.99759,2.50476c0.27226,1.76279 -0.95378,4.36015 -3.18262,3.79399c-1.77581,-0.45107 -1.93793,-2.41394 -3.1831,-3.43855c-1.95432,-1.60815 -4.5792,-2.856 -6.71873,-4.2782c0,0 -0.57775,-0.38403 -0.08453,-1.02419c0.23892,-0.3101 0.49767,-0.37987 0.70098,-0.36938z" fill="#feebf7" stroke="none" stroke-linecap="butt"/><path d="M196.3622,238.24365c-0.06811,0.22616 -0.24729,0.53862 -0.71868,0.6148c-0.75964,0.12278 -0.75882,-0.61358 -0.75882,-0.61358l0.00375,-1.0565c0.47457,-2.70554 2.41502,-3.34017 4.69315,-2.54108c3.29822,1.1569 7.03522,3.58928 9.15974,6.12801c1.496,2.55374 -0.52998,6.05274 -3.81069,4.48454c-3.21784,-1.53815 -6.24891,-4.34929 -8.56845,-7.01619z" fill="#feebf7" stroke="none" stroke-linecap="butt"/><path d="M205.65771,236.28312c-0.2056,0.09649 -0.39711,0.09651 -0.39711,0.09651l-0.59085,-0.14926c-1.68167,-1.58011 -0.7476,-4.60553 2.00659,-5.14587c3.3657,-0.66032 5.93034,0.83152 8.89189,1.74784c3.04606,1.51823 4.1947,6.99047 -0.41692,7.36081c-3.59576,0.28875 -6.64194,-2.15123 -9.49361,-3.91002z" fill="#feebf7" stroke="none" stroke-linecap="butt"/><path d="M186.97596,260.93267c0.24065,-0.00002 0.39103,0.077 0.4843,0.18157c0.1773,0.00542 0.35458,0.01085 0.53188,0.01628c2.31469,1.66788 3.39686,7.9839 -1.07983,9.23292c-1.94964,0.54397 -5.04868,0.12935 -6.81033,-0.32833c-3.0757,-0.79908 -6.58889,-0.83891 -9.76895,-1.50131c-2.84904,-1.20826 -6.14247,-2.79026 -7.29912,-5.86742c-1.17746,-3.13255 1.95794,-7.04298 5.02765,-8.27569c0.22074,-0.12587 0.40879,-0.12687 0.55498,-0.08271c0.15905,0.02817 0.31989,0.1163 0.40882,0.33397l0.32976,0.51224c0.29947,1.24693 0.37677,2.92671 1.41705,3.76389c1.08891,0.87632 3.39337,0.81935 4.81602,1.02663c3.57285,0.52057 7.50324,0.39147 11.03665,1.0536c0.09826,-0.04071 0.21429,-0.06562 0.35111,-0.06562z" fill="#feebf7" stroke="none" stroke-linecap="butt"/><path d="M274.282,276.70729c-7.98816,0.00053 -13.38517,-2.73826 -19.46792,-6.06588c-0.01352,0.02738 -0.02692,0.05481 -0.0402,0.08233c0,0 -0.35615,0.70822 -1.02712,0.4722c-0.67098,-0.23603 -0.31484,-0.94425 -0.31484,-0.94425c0.04952,-0.09576 0.10008,-0.19081 0.15167,-0.28512c-0.48262,-0.26487 -0.97074,-0.53246 -1.46592,-0.80172c0,0 -0.61387,-0.33381 -0.16642,-1.00154c0.44745,-0.66773 1.06132,-0.33392 1.06132,-0.33392c0.47947,0.26072 0.95187,0.52 1.41874,0.77687c4.01857,-5.71546 12.00128,-8.47472 18.03193,-10.21743c3.74508,-1.07403 3.51461,-0.79658 7.1507,-2.32625c4.8023,-2.02029 3.22879,-0.52244 8.13951,-1.00401c0.33132,-0.00042 18.99824,-2.36613 18.99824,-2.36613c3.44926,-0.0002 1.06597,-3.53934 3.53288,-1.2746c0.6749,1.04945 2.06619,3.36043 3.02037,4.80403c2.0926,-3.03622 2.78952,-7.71871 3.79561,-11.32647c0,0 0.20765,-0.74196 0.93836,-0.65957c0.06195,0.00698 0.11717,0.01872 0.16632,0.03433c0.64917,-0.23391 0.85176,0.3737 0.85176,0.3737c0.65374,1.9607 1.81104,3.88788 2.04313,6.00006c0.63034,5.73674 -4.06634,11.735 -8.09933,16.11762c-3.81662,4.00105 -7.99954,6.44305 -13.02653,8.30127l-0.98566,0.14234c0,0 -0.44164,0.06142 -0.64315,-0.23716c-8.01511,0.0939 -16.0036,1.73878 -24.06347,1.73931z" fill="#ab164a" stroke="none" stroke-linecap="butt"/><path d="M279.43728,229.31732c-0.1613,1.16692 4.47555,7.39929 3.06555,8.27706c-0.3023,0.13866 -0.70634,0.36662 -1.17263,0.63648c-1.99676,1.15562 -5.13511,3.07977 -6.31502,2.05205c-0.56439,-0.4916 0.5089,-3.81956 0.65308,-4.43188c0.81188,-3.44779 1.91073,-6.52295 3.30055,-9.83887c0,0 0.30363,-0.72425 0.99995,-0.54324c0.48602,0.12634 -0.1169,0.84926 -0.53148,3.84841z" fill="#ab164a" stroke="none" stroke-linecap="butt"/><path d="M320.52355,247.40376c0.12569,-0.74652 0.87485,-0.74657 0.87485,-0.74657l0.16648,-0.00001c2.31562,0.02333 3.83009,1.52774 5.37348,2.87255c0.83637,1.53779 0.13095,3.49195 -0.17997,5.33871c-0.97013,5.76217 -5.23311,13.33748 -10.84923,16.73779c-6.85915,3.15825 -13.86529,5.8938 -20.96678,7.86852c-2.67248,0.74314 -4.93741,1.68353 -7.6554,1.68999c-9.10916,0.00061 -17.42278,-0.55828 -26.12185,-2.02678c-7.32434,-1.2365 -16.93988,-6.45451 -13.59931,-15.60666c0.55841,-1.66383 1.45119,-4.49821 2.99842,-5.70199c0.94111,-0.73221 2.12053,-1.18456 2.82446,-0.05673c0.45871,0.73494 -0.50952,3.26493 -0.73551,4.12974c-0.68957,2.63869 -0.80166,4.97455 1.33845,6.40289c6.90792,2.95096 12.70617,5.43666 21.18791,4.40134c7.33639,-0.0106 15.45779,0.18488 22.85611,-2.60678c6.68994,-2.34752 12.77825,-6.62476 18.52194,-10.9179c0.59211,-2.64349 2.21461,-5.07113 3.80058,-7.43897l0.1469,-0.25822c-0.03471,-1.20639 -0.09084,-2.42323 0.10115,-3.58326c0,0 0.00011,-0.00063 0.00033,-0.00184c-0.07832,-0.10998 -0.12134,-0.26819 -0.08302,-0.49582z" fill="#feebf7" stroke="none" stroke-linecap="butt"/><path d="M247.24773,268.80853c0,0 10.23058,16.78216 52.85158,5.36378c7.93222,-2.12508 16.63253,-8.41865 21.73963,-14.21962c3.76185,-4.27293 4.31431,-9.89504 4.31431,-9.89504c0,0 0.38157,2.53729 0.20405,4.63234c-0.21043,2.48352 -1.38478,9.30257 -1.38478,9.30257l-8.66586,7.96334l-20.51293,7.13466l-23.17116,2.15811l-14.4259,-2.32152l-7.26497,-4.31268z" fill="#db93e6" stroke="#db93e6" stroke-linecap="round"/><path d="M246.88632,251.5516c2.08246,-0.81364 2.91434,-1.67736 4.73205,-3.0774c0.47314,-0.36443 1.84176,-1.37398 2.44481,-1.26571c1.58478,0.28456 1.52295,1.82314 1.93185,2.97972c0.11713,0.33131 0.96822,2.25611 0.87895,2.6682c-0.25285,1.16731 -1.53216,1.95352 -2.38178,2.62287c-2.23813,1.76322 -4.2125,3.78301 -6.55449,5.4538c-4.78895,2.30291 -10.84079,1.97175 -15.72318,2.09489c-2.79345,0.07045 -5.54222,0.47163 -8.28427,0.20893l-0.70098,-0.11325c0,0 -0.57587,-0.09435 -0.524,-0.64165c-3.70439,0.23921 -7.38182,0.92163 -11.09321,2.25915c-3.524,1.31322 -6.8459,3.31206 -10.35376,4.64527c-3.77876,1.43617 -8.51399,1.62845 -12.28562,1.62869c0,0 -0.29062,0.00002 -0.47948,-0.18033c-0.35206,0.03646 -0.57558,-0.23116 -0.57558,-0.23116l-0.43657,-0.52699c-0.75536,-0.60871 -2.86347,-4.06982 -3.29229,-4.98541c-0.16372,-0.34956 0.00042,-1.8586 0.0133,-1.95491c0.03531,-0.26409 0.38993,1.44259 0.84574,0.77297c0.16579,-0.24355 0.49332,-1.68264 0.5603,-2.08052c0,0 0.12569,-0.74651 0.87485,-0.74657c0.25322,-0.00002 0.40648,0.08525 0.49845,0.19816c1.89032,-1.17259 4.67314,-0.63361 6.65032,-0.63374c4.56028,-0.00031 9.47585,0.70366 14.0571,-1.26278c5.20196,-2.1008 10.43067,-4.3307 15.72989,-6.00006l0.14357,-0.13786c0,0 0.67474,-0.44795 1.0237,0.14924c0.02293,0.03924 0.04145,0.07785 0.05602,0.11572c7.20096,-0.01764 14.97621,-0.57873 22.24426,-1.95926z" fill="#db93e6" stroke="none" stroke-linecap="butt"/><path d="M205.65369,247.31165l-0.38869,-0.65609c0,0 -0.05367,-0.09185 -0.10246,-0.2437c-0.41276,0.04555 -0.89023,-0.06338 -1.20303,-0.64898c-0.65331,-1.22309 0.71832,-2.07937 0.71832,-2.07937c0.53152,-0.33181 1.06305,-0.66363 1.59457,-0.99544l0.7496,-0.41055c0.07463,-0.04495 0.15573,-0.08788 0.24378,-0.12836c0.47418,-0.21799 0.841,-0.22253 1.12005,-0.12973c0.28526,0.07932 0.55806,0.27894 0.73934,0.69685c0.0482,0.11111 0.08156,0.21836 0.10229,0.32158c0.31345,1.15935 0.33433,2.45386 0.14477,3.71698l-0.08266,0.49093c0.01134,0.30175 -0.07317,0.6621 -0.38855,1.02194c-0.18213,0.25214 -0.45295,0.49581 -0.85111,0.61514c-0.39003,0.15832 -0.7185,0.12576 -0.97373,0.02769c-0.4121,-0.10358 -0.62514,-0.35911 -0.73268,-0.62696c-0.22994,-0.32397 -0.4599,-0.64793 -0.68984,-0.9719z" fill="#db93e6" stroke="none" stroke-linecap="butt"/><path d="M217.97575,235.32321c0.40559,-0.18646 0.73263,-0.21674 0.99338,-0.16354c0.26103,0.05247 0.52234,0.20194 0.745,0.51566c0.13762,0.19388 0.21299,0.3836 0.24348,0.5648c0.34396,1.00155 0.87459,2.40284 0.58598,3.47965c-0.41003,1.5299 -1.99409,3.9452 -3.88304,4.22676c-2.0302,0.3026 -4.06419,-0.76356 -3.76375,-2.91982c-0.25825,-0.1235 -0.48602,-0.36473 -0.59661,-0.80746c-0.34424,-1.37816 1.13551,-1.95249 1.13551,-1.95249c1.01445,-0.37494 2.00196,-0.96956 2.83601,-1.70297l1.10422,-0.84039c0.15038,-0.14665 0.34615,-0.28359 0.59978,-0.4002z" fill="#db93e6" stroke="none" stroke-linecap="butt"/><path d="M202.13872,249.88353c-0.13479,0.8006 -0.8772,1.45408 -1.67765,1.49145c-0.21026,0.09226 -0.43681,0.1439 -0.66678,0.14392c-0.82752,0.00006 -1.3858,-0.66835 -1.24697,-1.49293c0.01921,-0.11408 0.05076,-0.22518 0.09305,-0.33194l-0.64395,-0.41183c-0.40911,0.14177 -1.35457,0.33938 -1.73869,-0.67403c-0.49681,-1.31068 0.93895,-2.02571 0.93895,-2.02571c0.57111,-0.28441 1.14223,-0.56884 1.71333,-0.85326l0.66423,-0.30634c0.00199,-0.00093 0.00399,-0.00185 0.006,-0.00277c0.50448,-0.23192 0.88744,-0.22223 1.17247,-0.11078c0.29459,0.09242 0.57072,0.31458 0.72535,0.77835c0.02733,0.08195 0.04749,0.16138 0.0613,0.23829c0.23346,0.7835 0.73927,1.53495 0.49377,2.37483c-0.02223,0.07607 -0.05106,0.14919 -0.08556,0.21975c0.17667,0.25996 0.25296,0.59602 0.19117,0.96301z" fill="#db93e6" stroke="none" stroke-linecap="butt"/><path d="M205.00299,235.30863c2.83498,0.25758 4.75045,1.72462 6.26831,2.69553c2.09998,1.34325 3.98972,7.40695 7.05301,3.02923c1.95054,-2.4412 0.44651,-4.9645 -1.5702,-6.32199c-0.62784,-0.42261 -8.22364,-2.15181 -9.30313,-2.13756c-3.47459,0.04586 -2.90056,2.57759 -2.44798,2.73479zM218.10281,233.02716c1.32048,0.8944 3.94644,3.94789 3.92426,6.28202c-0.02127,2.23821 -3.13834,4.75801 -3.35209,4.97007c-4.33062,4.29605 -5.82875,-1.72508 -8.30938,-3.26341c-0.78978,-0.48978 -1.61528,-1.52856 -2.49963,-1.78831c1.62634,1.67251 2.58204,3.00475 3.02934,4.66342c0.46951,1.74101 -0.67317,4.42896 -2.83432,6.30416c-0.3891,0.1679 -1.05112,0.46792 -1.57617,0.084c-1.22927,-0.89884 -2.45621,-3.31626 -3.04154,-3.95564c-0.47328,-0.51698 -0.94978,-1.04135 -1.43316,-1.56509c0.95391,1.91202 1.46484,3.9487 0.54264,6.52397c-0.48122,0.90285 -1.77923,1.48486 -2.92504,1.57976c-0.76115,0.06304 -1.44733,-0.13523 -1.81057,-0.42902c-2.1272,-1.72051 -3.02623,-4.30545 -4.40779,-6.60353c-0.69067,-1.14886 -2.51148,-3.42901 -3.86413,-4.03646c-5.43527,2.14334 -13.57309,5.25756 -16.11512,7.83465c-1.12447,1.13999 -1.93068,4.10978 -1.55646,5.62879c0.2022,0.82071 0.96512,0.98728 1.56363,1.50195c3.06386,1.90701 23.85986,3.98503 29.2989,2.95198c2.74109,-0.52061 3.91574,-1.57177 6.64608,-2.35566l0.55511,-0.21235c0,0 0.22584,-0.08438 0.50554,-0.09091c1.55358,-0.77618 4.322,-1.6369 6.10032,-2.32066c2.27948,-0.87646 3.58427,-1.52039 5.57043,-1.94354c3.3747,-0.71898 5.69038,-0.4828 9.25503,-0.8294c3.93873,-0.38295 14.99991,-1.34656 16.69556,-2.33356c1.59138,-0.9263 3.17989,-2.85917 3.17989,-2.85917c-2.57619,0.40959 -4.58376,-0.0153 -6.74829,-0.01516c-0.63756,-0.04693 -1.3992,0.17174 -1.91268,-0.14078c-0.1249,-0.07601 -0.21873,-0.1936 -0.28624,-0.34427c-0.20794,-0.1008 -0.4068,-0.21775 -0.59747,-0.33556c0.16577,-2.36376 0.48957,-4.04702 1.41226,-5.87223c0.37826,-1.05604 1.66863,-3.20271 3.20914,-5.0595c0.09764,-0.20225 -1.65522,-0.1613 -1.22532,-0.35004c0.32576,-0.14302 2.4352,-0.81559 2.86915,-0.87382c0.37539,-0.2083 0.77772,-0.38066 1.20868,-0.50727c0.48718,-0.14313 1.0006,-0.24701 1.53194,-0.31735c-1.57806,-2.37088 -2.93495,-6.85206 -7.14256,-8.24392c-0.29936,-0.09903 -1.4111,-0.19008 -2.12239,0.38943c-0.89548,0.72956 -1.4835,2.2573 -2.69577,3.19521c-2.93309,2.26924 -4.84883,3.87363 -5.3769,3.87104c-0.02779,0.13943 -0.6672,2.50348 -2.01073,3.18092c-3.00984,1.51759 -8.22334,1.84309 -8.57646,1.31446c-0.31016,-0.46432 3.74283,-2.02664 6.01544,-3.22874c1.46975,-0.77742 1.4992,-1.35149 1.46498,-1.5579c-0.00683,-0.02902 -0.01217,-0.05767 -0.0163,-0.08554c-0.00121,-0.00561 -0.00245,-0.01122 -0.00372,-0.01682c0,0 -0.00222,-0.0134 -0.00446,-0.03755c-1.2075,-2.54665 -2.9926,-7.53631 -7.95996,-9.38014c-4.2307,-1.57038 -11.66197,-0.24375 -13.39084,0.18584c-4.02004,0.99889 -6.96153,2.5622 -4.02855,6.54927c0.20809,0.24896 0.41621,0.49792 0.6243,0.74687l0.52202,0.45405c0,0 0.05104,0.04548 0.11013,0.12759c0.13938,0.00104 4.01299,0.14816 6.2133,0.46829c2.82598,0.41115 4.24348,1.10762 5.77592,2.14558zM196.18621,236.83123c3.44062,2.04549 4.93412,2.89154 7.57261,5.79206c0.07885,0.08667 2.95179,5.70816 4.27903,5.25178c2.21836,-4.41384 -3.06858,-9.03948 -6.1544,-11.04613c-2.12578,-1.38236 -4.28096,-3.11885 -5.69724,0.00228zM194.27557,234.60288c0.84217,-1.16606 1.49997,-1.76288 3.15772,-2.17771c1.1277,-0.28219 3.25479,-0.4802 4.1274,-0.71575c0.99048,-0.26737 0.93599,-1.17201 0.86729,-1.25433c-0.43895,-0.59785 -0.18765,-1.22331 -0.50375,-1.90488c-2.78888,-2.46878 0.1626,-4.98663 1.31629,-5.96029c0.69652,-0.58783 2.00791,-0.92575 2.00791,-0.92575c0.76792,-2.29103 1.67418,-5.13426 2.78416,-7.34076c1.10792,-1.99868 2.69465,-5.64305 4.69448,-7.05624c1.26992,-0.89739 2.40384,-0.66626 3.6179,-0.5101c3.71516,0.47784 7.45076,3.00509 10.50351,4.82854l0.20774,-0.21892c0.44507,-0.47962 0.8463,-0.99922 1.20942,-1.5363c-0.98498,-1.25561 -3.91527,-6.00666 -3.12925,-7.95364c1.39837,-3.46377 13.82011,-10.19411 16.85509,-11.84308c4.2857,-2.3285 9.27113,-4.31404 13.54504,-6.50223c0.08653,-1.71752 -0.43809,-3.79816 -0.13909,-5.64826c0,0 -0.28285,-2.00999 1.36454,-3.98076c1.54727,-1.85101 5.62973,-4.5091 7.00591,-5.44411c5.6944,-3.86892 16.19976,-5.8553 22.47058,-5.85571c2.46566,-0.00016 7.19271,0.9597 7.39063,1.10717c1.95869,-1.40253 5.47909,-3.20147 9.3344,-3.85944c2.07874,-0.35477 5.34674,-0.02491 6.05023,0.07941c4.23611,0.6282 4.58252,4.56405 2.7795,8.36725c-0.4306,0.90832 -5.04327,6.28934 -5.35712,10.52745c-0.33603,4.53754 3.1672,12.92113 2.7257,16.08836c0.02539,0.29132 -0.08666,0.55807 -0.21676,0.76262c-0.12134,0.22726 -0.32114,0.48193 -0.64296,0.63328l-0.52745,0.40099c-1.38025,0.63454 -2.596,1.29138 -3.97779,1.58301c-0.00986,0.04332 -0.01765,0.06828 -0.01765,0.06828c-1.31093,4.1729 -1.36818,6.55917 0.68669,9.79649l0.38952,0.19492c0.21816,0.07752 0.39501,0.22064 0.51202,0.40719c0.084,0.12166 0.15906,0.27917 0.18009,0.46899c0.55466,0.32786 0.42474,1.09952 0.42474,1.09952c-0.07821,0.4645 -0.1564,0.92899 -0.23461,1.3935l-0.14564,0.37899c0.07405,0.06847 0.14072,0.15532 0.19585,0.26464l0.52001,0.65686c1.29976,2.60789 2.54783,5.31986 3.64722,8.06037c0.16514,-0.10769 0.4473,-0.25798 0.7596,-0.27813l1.14737,-0.26712c2.93291,-0.69046 3.63766,0.16086 4.49173,2.28477c1.29961,3.23188 1.4673,4.94548 -0.00379,7.09936c-1.70616,2.49804 -5.32744,4.39666 -8.12607,6.10583c4.12873,1.6787 6.6421,3.39416 9.86991,6.64861l2.96994,2.10353c1.94259,1.05568 5.15124,3.19556 7.0941,4.25204c0.33671,0.09325 0.50778,0.31145 0.59247,0.53638c0.11176,0.20981 0.16708,0.49262 0.0333,0.84842c-0.61159,3.63257 -1.24273,7.3813 -1.85362,11.00979c-0.24317,1.44434 -0.28499,3.22807 -1.12389,4.59503c-2.53593,4.13225 -9.63525,7.67251 -13.84517,9.24846c-9.23702,3.58342 -18.53535,7.01106 -27.96485,7.39995c-18.79692,0.51117 -23.23016,-1.46045 -24.92163,-2.11039c-4.45556,-1.15307 -9.34028,-3.89945 -12.28731,-7.42363c-2.16636,-2.59061 -1.75309,-7.27251 -0.37703,-11.13981c-2.30305,0.91493 -4.61972,1.0287 -7.09824,1.27181c-0.41157,0.04037 -0.82257,0.07994 -1.23306,0.11858c-6.46148,1.39298 -13.53401,2.10844 -19.76018,1.74431c-0.3113,0.44426 -0.87766,0.50216 -0.87766,0.50216l-1.42522,0.14494c-3.40356,0.60752 -6.08776,1.56398 -10.70454,3.05938c-3.86072,2.16806 -6.53512,2.81522 -11.05743,3.30153c-6.46249,0.69495 -13.52266,0.40495 -19.26441,-0.97535c-1.7914,-0.43064 -2.5073,-0.81771 -4.07895,-1.31216c-2.39054,-0.77226 -5.55822,-1.24688 -7.21852,-3.45143c-0.52105,-0.69184 -1.30454,-3.42104 -1.63528,-4.57461c-0.47628,-1.66118 -0.2879,-1.90094 0.66479,-3.63654c0.55729,-1.01527 1.98943,-2.34102 2.76049,-3.27993c0.96789,-1.17858 2.12281,-2.17693 3.33677,-3.08686c0,0 0.46815,-0.90494 1.19298,-1.85638c0.5655,-0.7423 1.35833,-1.51291 1.74231,-1.9041c3.54289,-3.60951 14.18111,-8.79163 14.18111,-8.79163c0,0 0.29785,-2.21487 2.52331,-3.34963c1.05359,-0.53722 2.35022,-0.30799 4.43543,-0.36835c0.86921,-0.02517 1.29295,-0.81407 1.38174,-0.94843zM189.50768,239.38986c4.65996,1.96945 5.78534,4.51342 8.53523,8.48663c0.54307,0.78464 2.36907,4.18929 3.25857,2.09172c0.28335,-1.56863 -0.52934,-2.47328 -1.201,-3.68017c-1.26039,-2.26476 -3.10555,-5.3128 -5.34954,-7.01406c-0.02389,0.00375 -1.59081,-1.15206 -2.55309,-1.14673c-1.68487,0.00933 -2.69016,1.2626 -2.69016,1.2626zM306.92017,248.22135c2.42419,0.96763 4.24168,4.01824 0.14974,5.2577c-4.45786,1.35031 -9.02484,0.64609 -13.47855,1.51647c-5.80585,0.47854 -11.72816,1.49587 -17.5499,3.17346c-2.38684,0.68779 -8.1941,3.70054 -11.25973,2.3933c-1.40511,-0.59916 1.24989,-4.68066 1.50453,-5.08853c-0.20488,-0.02366 -1.00996,0.4649 -1.5874,0.51274c-3.32542,0.27548 -0.40497,-3.65625 0.75683,-5.03694c-1.67192,0.01892 -3.45481,1.07228 -3.79404,-0.99352c0.47247,-1.16999 1.11735,-2.61947 2.10501,-3.92937c0.80534,-1.0681 1.90555,-2.04339 2.7768,-2.69862c-0.26368,-0.13412 -0.38775,-0.38194 -0.38775,-0.38194l-0.40011,-0.80477c-0.55138,-1.36702 -1.3737,-2.36886 -1.65897,-3.85622l-0.05837,-0.21123c-3.69764,-1.55121 -8.72341,-3.16407 -12.80766,-3.14402c0,0 -0.47035,0.00004 -0.78525,-0.28758c-2.96575,0.85206 -4.72291,3.21949 -5.70206,6.13083c-0.35556,1.0572 -1.15373,2.92636 -0.95945,3.88838c0.11314,-0.02651 0.19407,-0.02652 0.19407,-0.02652l0.62431,-0.00004c0.34912,-0.00002 0.6979,-0.00568 1.04636,-0.01598c-0.02324,-0.31971 0.08071,-0.60134 0.08071,-0.60134c0.94523,-2.13457 1.29532,-2.95813 4.64844,-2.53875c3.13477,-0.25053 2.42296,2.13728 1.84338,2.63477c1.45538,-0.12637 5.53443,-0.08328 4.99215,0.52047c-0.67055,0.74655 -1.38107,0.74961 -1.63409,0.75525c-0.06002,0.02802 -0.12056,0.05546 -0.18156,0.08235c0.82507,2.10471 1.64426,4.42496 2.11441,6.65125l0.03454,0.2057c0.08931,0.19859 0.06891,0.41227 0.01917,0.58769c-0.0296,0.15094 -0.09311,0.32589 -0.22337,0.48554c-0.00296,0.20524 -0.06019,0.36839 -0.06019,0.36839c-0.81267,2.31556 -1.56068,3.86718 -3.40526,5.67064c-0.51313,1.79797 -1.03257,3.82453 -0.74866,5.29321c0.29452,1.52361 1.82665,2.21297 2.96904,2.97239c3.3165,2.20471 7.41812,2.80696 11.43709,3.69614c6.01583,0.87425 11.91611,0.80686 18.20594,-0.49058l0.516,-0.02766c0,0 0.05726,-0.00001 0.14518,0.0122l0.64539,-0.13238c5.92537,-0.48561 12.77203,-2.39572 18.41327,-5.16454c5.70281,-3.69459 14.16254,-8.30806 13.35501,-15.79913c-0.05787,-0.53676 -2.10099,-4.59117 -4.85572,-7.22541c-3.14745,-3.00978 -7.22796,-4.63545 -10.40881,-5.1773c0,0 -1.30383,0.42894 -0.89193,-0.79834c0.41189,-1.22728 4.2821,-2.90913 5.27893,-3.48872c-0.57487,-0.09798 -0.51591,-0.42918 -0.41202,-1.04627c0.03828,-0.2274 0.13539,-0.44055 0.2732,-0.624l0.79849,-1.10006l0.03636,0.02219l0.0526,-0.13374c1.56236,-1.5 4.12906,-4.13589 5.13409,-0.83008c0.19742,-0.21764 0.37724,-0.43973 0.53624,-0.66653c1.7929,-2.55752 0.23184,-6.07219 -2.88732,-5.29862c-0.02451,0.00607 -2.71932,1.67593 -4.22625,2.89978c-1.99023,1.61636 -3.01294,2.99361 -3.98523,4.05498c-3.13169,3.41862 -3.80393,4.75621 -6.60905,7.12969c2.60918,0.44 4.3489,1.76454 4.98861,4.81974l-0.09998,0.97158c0,0 -0.01362,0.08088 -0.05623,0.19654c0.08483,0.03762 2.62629,0.6778 3.02194,0.91018c2.11414,1.24175 2.4171,3.80516 2.4171,3.80516zM275.95079,256.27324c5.93454,-1.71284 11.7743,-2.76691 17.69315,-3.24886c3.24354,-0.6179 6.54509,-0.52009 9.79096,-0.87525c0.66251,-0.0725 3.57362,-0.16497 3.95588,-0.54855c0.37375,-0.37506 -1.87237,-2.09504 -3.96344,-1.93752c-7.46648,0.56246 -19.59738,1.79389 -23.23816,2.33548c-2.09266,0.31129 -8.8076,1.69257 -12.02777,3.6152c-1.59829,0.95426 -1.87311,3.19015 -1.95906,3.61276c3.06212,-0.28993 6.67573,-2.06639 9.74848,-2.95325zM290.66846,242.17156c3.09374,-0.03427 5.55687,-0.2425 8.47907,0.50243c-0.64556,-2.82977 -2.68266,-2.67889 -5.49048,-2.7426c-1.25262,0.9451 -1.38601,1.42429 -2.98859,2.24017zM270.50397,249.35126c-0.85035,0.52902 -5.39503,3.05333 -4.31054,3.85082c3.67139,-0.42723 13.18373,-3.02743 16.78704,-3.56938c6.73436,-1.01289 8.12423,-1.54488 14.80577,-1.54532c1.23722,-0.00008 2.69746,-0.28445 4.05987,-0.29916c0.91797,-0.00991 1.7549,0.32 2.58777,0.11931c-0.27427,-0.80563 -1.01289,-2.67289 -2.9742,-3.21499c-1.98518,-0.54869 -9.14866,-1.21721 -15.86498,-0.27231c-6.57272,0.92469 -12.69541,3.44087 -15.09071,4.93101zM281.43795,238.99162c-3.42498,0.96469 -9.1031,3.34731 -13.05269,5.84166c-2.03502,1.2852 -3.3536,1.94206 -4.20826,3.82863c-0.20638,0.44706 3.46071,-0.63898 4.09313,-0.647c6.79641,-3.11046 10.43795,-4.23949 16.15304,-5.36891c-1.05396,-0.9705 -2.10733,-2.13929 -2.98522,-3.65439zM218.20888,261.93915c2.78846,-0.27163 18.43298,-0.8831 23.06214,-1.7219c0.88755,-0.29871 1.85121,-0.31807 2.75904,-0.48297c2.10024,-0.66985 3.95728,-1.43547 5.74693,-3.02483c1.20051,-1.55069 2.26039,-2.85372 4.20995,-3.80021c0.25345,-0.12305 1.01278,-0.66085 1.14953,-0.68737c-0.34872,-1.58632 -0.56761,-2.96584 -1.14987,-4.51836c-0.22831,0.35052 -0.5676,0.55327 -0.5676,0.55327l-0.27022,0.14998c-1.36579,1.03501 -1.18449,0.48432 -1.92983,1.09196c-0.87741,0.71531 -2.67639,2.54709 -4.48685,3.30475c-4.2101,1.10179 -11.33896,1.21711 -15.51473,1.62878c-2.82336,0.27834 -8.25786,-0.05727 -10.94185,0.41893c-1.2995,0.23056 0.05166,0.5661 -0.97594,0.985c-2.22337,0.9064 -5.73911,2.2025 -8.5515,3.66608c0,0 -6.44802,2.09243 -9.32785,2.65441c-4.88374,0.95303 -22.96259,-0.65222 -30.45694,-2.96202c-2.13347,-0.65756 -2.97161,-3.47554 -2.96765,-3.5639c-0.5687,0.49323 -0.89302,0.3003 -1.36617,0.88173c-0.72563,0.89168 -1.62138,1.44776 -2.16836,2.39839c-0.28648,0.49789 0.43075,2.44061 1.12892,3.54198c1.56375,2.46686 3.11012,4.07759 5.25372,4.76923c9.60281,3.02313 23.79208,3.67165 33.07188,-0.75491c2.88301,-1.32621 10.87562,-4.19511 14.29318,-4.52803zM239.94641,218.08318c0.50544,-0.93288 5.42668,4.1767 5.46764,4.40577c3.10872,0.76644 5.99127,4.7095 7.28162,7.30527c0.17204,0.3461 0.85095,2.01728 0.77623,3.056c4.03666,0.18061 8.28113,1.5711 9.75749,2.11217c-0.30753,-3.38309 2.23807,-5.45363 5.41031,-7.01887c0.92903,-0.72079 2.99418,-1.66389 5.55045,-2.51209c2.10014,-0.69685 5.79525,-1.44246 6.33475,-1.66866c0.89954,-0.37716 0.38593,4.54148 0.49616,5.35238c0.25267,1.85871 2.98618,8.84175 5.66024,11.82491c2.75663,-0.14142 5.17891,-2.03676 7.25659,-3.891c3.42629,-3.05782 6.08352,-7.00225 8.99812,-10.1522c1.42516,-1.54024 3.15331,-2.79911 4.83945,-4.08627c-1.09099,-2.78033 -2.34688,-5.54999 -3.66916,-8.19154c-1.4515,0.66472 -2.83674,1.51913 -4.31168,2.1972l-0.18317,0.08422c-0.26805,0.19626 -0.5488,0.24987 -0.77876,0.24853c-0.23511,0.02061 -0.50832,-0.01114 -0.73046,-0.19209c-3.54274,-1.58229 -6.50825,-4.252 -9.72791,-6.28806l-0.4063,-0.14024c-2.91292,2.10954 -6.28217,5.00238 -10.07641,8.25522c0,0 0.31604,-1.34406 0.92243,-2.32194c0.16796,-0.27086 0.3439,-0.77878 0.38762,-0.85206c-1.06684,0.41743 -3.75516,1.30198 -5.87597,1.68902c-7.78674,1.42106 -19.58931,1.63972 -29.60817,-0.23093c-6.04703,-1.12905 -12.19551,-4.42614 -14.18322,-5.82887c-0.3402,0.46246 -0.70449,0.91048 -1.09385,1.33587l-0.81577,0.8598c-0.2282,0.27734 -0.47255,0.39134 -0.69019,0.42471c-0.21716,0.05216 -0.46655,0.03514 -0.71181,-0.14959c-2.06281,-1.26338 -6.687,-3.3752 -9.81652,-4.18975c-1.44256,-0.37547 -2.86035,-0.1738 -3.03966,-0.02551c-1.5804,1.307 -2.63121,3.81345 -3.56665,5.50096c-1.04259,2.07402 -1.76228,4.01083 -2.48645,6.16566c0,0 10.46031,-3.09287 13.91577,-2.51552c6.06272,1.013 9.95698,9.75039 11.21872,12.40073c0.34012,-0.32766 3.61158,-2.64035 5.54683,-4.5261c0.58951,-0.57443 1.59186,-2.34062 1.66949,-2.43902c0.75164,-0.95275 1.62494,-1.47093 2.56723,-1.67993l-0.01282,-0.01515c0,0 -2.50644,-3.87067 -2.27218,-4.30304zM280.0481,235.73557c-0.90675,-3.0623 -1.07139,-7.43195 -1.04832,-8.1206c0.00607,-0.18152 0.04732,-0.46323 0.10794,-0.75498c-0.2148,0.14424 -1.834,-0.09132 -2.42022,0.10173c-1.08535,0.35744 -2.5036,0.82148 -3.87356,1.21547c-4.04314,1.49146 -8.7792,3.10347 -7.24965,7.68879c0.15928,0.06473 0.31674,0.12933 0.47226,0.19367c0.31763,0.04208 1.06943,0.24593 0.90321,1.23315c-0.09162,0.54424 -0.38209,0.85044 -0.67991,1.0227c0.33433,1.00067 0.98806,1.83356 1.39661,2.83806l0.34741,0.68819c0,0 0.08932,0.17837 0.09267,0.42476c3.88969,-2.42575 8.75646,-3.92622 12.48844,-5.00696c-0.19726,-0.47818 -0.37737,-0.98522 -0.5369,-1.52399zM321.33646,249.16398c0.91023,8.78269 -5.34448,13.59787 -13.11469,17.63717c-6.01076,2.9653 -15.06611,5.92499 -21.38502,6.4429l-0.99421,0.22357c0,0 -0.27943,0.05967 -0.58246,-0.0033c-6.40085,1.24876 -12.43725,1.28575 -18.5766,0.38811c-5.12727,-1.13607 -14.79215,-2.18612 -16.04367,-8.25963c-0.2811,-1.36417 -0.02079,-3.05255 0.37382,-4.7122c0.06334,-0.51231 0.14306,-1.03489 0.23236,-1.56795c-1.68233,1.5874 -2.43732,3.55754 -3.02822,5.28261c0,0 -0.01291,0.0368 -0.04067,0.09483c-0.02262,0.05237 -0.05062,0.10894 -0.08504,0.16656c-0.52361,2.48911 -0.38485,3.95313 0.84918,5.43325c2.6947,3.2321 6.88332,6.55759 10.94686,7.61812c1.01379,0.39244 12.82279,2.54497 25.29469,1.52069c10.60807,-0.8712 21.21387,-5.10324 25.64735,-6.82484c2.94751,-1.09872 11.85148,-7.20346 12.87624,-8.82784c0.82522,-1.30808 0.72129,-2.31944 0.95685,-3.71852c0.50846,-3.02006 1.01693,-6.04013 1.52539,-9.06019c-1.67444,-0.91053 -3.34611,-1.81957 -5.01996,-2.73031c0.07665,0.29486 0.13633,0.59311 0.16782,0.89695zM305.07273,194.25802c0.20242,-0.48283 1.05032,0.09721 1.05032,0.09721l0.56637,0.15783c0.00942,0.00778 0.01883,0.01558 0.02824,0.02336c0.29595,-2.91803 -2.02181,-8.54097 -2.62964,-12.8608c-0.39886,-2.83473 0.43202,-5.10835 0.64922,-5.68815c0.9518,-2.54085 3.321,-5.64305 4.48465,-8.05899c0.46661,-0.96874 0.19075,-4.48453 -0.70601,-5.07109c-1.90513,-1.24611 -3.89795,-0.4536 -6.24223,-0.4568c-2.46039,0.22886 -4.31483,1.59377 -6.37512,3.09165c-3.79642,2.76008 -8.14831,5.96389 -12.36349,7.92434c-0.28578,0.43494 -0.7795,0.63168 -0.7795,0.63168c-3.55284,1.41002 -9.41503,2.57673 -13.97576,2.16297c-4.3737,-0.39678 -7.52363,-2.34704 -7.52363,-2.34704c-0.28333,0.3158 -2.84742,2.3726 -3.29391,2.59009c-0.30432,0.14824 0.3533,6.13581 0.41419,8.22095c0.03187,1.09101 -0.49615,1.49662 -0.49615,1.49662c-4.45812,2.34723 -9.7598,3.73353 -14.23264,6.16314c-4.17362,2.26709 -13.70958,6.96628 -15.4368,9.74032c-0.47757,0.767 1.05363,4.59371 4.57899,7.33404c3.44081,2.67462 8.51042,4.51014 14.087,5.4758c7.65694,1.32592 16.08452,1.46597 22.70879,0.69476c3.14439,-0.36607 6.06034,-1.41942 7.96422,-1.75337c1.70381,-0.29886 3.71618,-0.63396 3.71618,-0.63396c0.55756,-3.65657 0.10621,-7.97234 1.54481,-11.6797c0.45335,-1.16834 1.09736,-4.12719 1.76918,-5.97704c1.01859,-2.80472 2.03612,-4.45222 2.03612,-4.45222c-3.97702,-7.00675 -2.38544,-7.94407 -2.38544,-7.94407c2.31966,4.66756 7.30415,10.99391 12.32296,12.45454c1.94422,0.56583 4.40366,0.45997 6.50684,0.35463c0.87423,-0.04379 1.67212,-0.35638 2.46715,-0.73313c-0.09873,-0.08843 -0.56211,-0.70192 -0.45494,-0.95754zM289.77603,208.39709c3.12248,1.95992 5.98929,4.57234 9.39458,6.13884c1.27959,-0.59666 2.47958,-1.28988 3.7229,-1.90274c0.02597,-0.23761 0.10111,-0.41687 0.10111,-0.41687l0.24576,-0.49453c0.06324,-0.37561 0.12647,-0.75121 0.18971,-1.12682c-0.02957,-0.02002 -0.05789,-0.04151 -0.08487,-0.06439l-1.0911,-0.81845c-2.3137,-3.64774 -2.36833,-6.69205 -1.04155,-11.19441c-1.9576,0.06829 -3.47314,-0.24318 -5.16001,-0.75735c-2.58824,-0.78892 -3.86302,-2.23907 -8.08462,-4.91125c-1.75568,2.96547 -3.96958,15.12286 -4.20367,18.06123c1.07515,-0.91051 2.19468,-1.77603 3.363,-2.60574c0.25771,-0.26891 0.55102,-0.37246 0.80312,-0.40266c0.25215,-0.05687 0.54704,-0.05469 0.80975,0.12513zM290.45156,166.23389c-2.5422,-0.69128 -5.21765,-0.64516 -7.96227,-0.64499c-5.89371,0.00038 -17.10118,3.26408 -19.89562,7.03416c3.47124,2.05812 11.71502,2.52994 17.96445,0.41521c5.22907,-1.76945 8.75052,-5.94676 9.89344,-6.80439z" fill="#000000" stroke="none" stroke-linecap="butt"/></g><g><g><path d="M365.89411,148.32723c-0.28661,0.55286 -0.73903,0.58294 -1.03959,0.52696c-0.02802,2.56708 -2.24143,4.47825 -4.13948,6.25332c-1.30922,1.2244 -3.1267,1.72149 -4.7582,1.62268c-4.24039,-0.2568 -7.6177,-1.05335 -11.64512,-2.28592c-2.39319,-1.33034 -8.20103,-2.19128 -8.92649,-5.20711c-0.70451,-2.92867 3.00509,-3.26395 4.84221,-3.46928c6.53298,-0.73013 12.61005,-1.07574 19.15771,-0.13615c1.80994,0.26046 3.52065,0.41924 5.27189,0.94661l0.80955,0.40084c0,0 0.88779,0.46025 0.42754,1.34804z" fill="#0f1b82" stroke="none" stroke-width="0.5" stroke-linecap="butt"/><path d="M335.60617,145.63698c0.05904,-0.77494 0.8896,-0.86644 0.8896,-0.86644l1.39158,-0.15331c2.72339,-0.30004 5.45806,-0.39804 8.17258,-0.69918c5.30219,-0.58416 13.7249,-2.79826 18.3974,0.42008c2.3873,1.64433 1.14933,5.9476 -0.82069,7.41284c-0.75502,0.56156 -3.08797,0.35851 -3.98339,0.31106c-8.43443,-0.78427 -15.98354,-1.16088 -23.79735,-4.74864c0,0 -0.90868,-0.4175 -0.49118,-1.32618c0.06914,-0.15048 0.15174,-0.26458 0.24146,-0.35024z" fill="#0066cc" stroke="none" stroke-width="0.5" stroke-linecap="butt"/><path d="M332.82894,137.90576c0.00157,-0.13841 0.05008,-0.29388 0.18206,-0.45855c0.46907,-0.58522 1.05427,-0.11616 1.05427,-0.11616l0.85068,0.73116c0.94537,3.25346 0.44788,5.59726 -0.24759,8.76825c-0.48966,2.23261 -0.14235,4.88066 -0.45604,7.18415c-0.37321,2.1521 -2.01823,6.60007 -4.40307,6.954c-2.3315,0.34601 -4.7097,-2.10774 -5.89327,-3.34341c-1.04701,-1.0931 -3.83827,0.73772 -4.99276,-1.4872c-0.20538,-0.39581 -0.12434,-0.88313 -0.18651,-1.32469c0.58462,-5.22592 5.46161,-7.74898 8.54432,-11.34702c1.72671,-2.01536 3.5488,-3.79506 5.54791,-5.56054z" fill="#fddfbd" stroke="none" stroke-width="0.5" stroke-linecap="butt"/><path d="M328.57403,151.34315l0.20955,0.05135c-0.03461,0.16247 -0.07726,0.33434 -0.12543,0.51352c0.08492,1.18112 -0.37405,2.37859 -0.92741,3.66703c-0.15791,1.5254 0.33725,2.69246 2.79618,2.42311c0.56586,-0.06197 1.11945,-0.21702 1.66332,-0.38839c0.11396,-0.06776 0.26208,-0.10649 0.45334,-0.08143c0.14012,0.00747 0.30548,0.0501 0.44127,0.18111c0.14331,0.12272 0.20144,0.28329 0.22219,0.42208c0.04522,0.19719 0.01605,0.35383 -0.04654,0.47638l-0.08602,0.35323c-1.42152,3.27323 -3.42508,10.6963 -8.51124,7.30219c-0.05718,-0.03817 -2.16514,-1.83226 -2.2041,-1.86538c-1.07064,-0.71582 -3.08534,-1.62281 -3.68875,-2.82704c-2.6936,-5.37567 4.54084,-10.72585 8.63464,-12.62179c0,0 0.68126,-0.31366 0.99492,0.3676c0.11431,0.24824 0.09649,0.44769 0.02766,0.60092c0.11256,0.0967 0.1968,0.22677 0.23633,0.37708l0.20303,0.71993l-0.11201,0.0316l0.02509,0.22778l-0.21671,0.02387c0.00366,0.01509 0.00722,0.03017 0.01069,0.04524z" fill="#f89587" stroke="none" stroke-width="0.5" stroke-linecap="butt"/><path d="M311.00712,99.72593c3.63108,4.23388 4.36472,12.35936 3.96019,17.7875c-0.40141,5.38612 -6.59168,14.64446 -8.10944,17.93054c-2.46269,5.33192 -2.68687,7.39342 -6.10032,11.03961c-3.85343,4.11619 -13.99545,1.78571 -19.01984,2.41965c-3.52063,0.44421 -7.34304,0.98703 -10.86326,1.43441c-7.58096,0.96345 -15.83656,1.95796 -23.42684,2.83508c-0.06867,0.00793 -4.13468,0.73278 -7.36905,0.80101c-0.15406,0.00588 -0.30746,0.00756 -0.46005,0.00514c-3.19096,-0.0505 -6.03329,-1.89165 -7.43449,-4.64777c-3.55948,-5.28382 -3.95321,-14.35252 -5.15344,-19.52739c-0.69283,-2.98712 -1.17731,-5.94647 -1.79852,-8.92764c-0.84915,-4.0751 -2.16553,-6.08809 -1.91763,-10.55698c0.16778,-3.02417 -1.77918,-11.05272 0.06749,-12.39598l0.82735,-0.6018c4.21727,-6.00505 16.03217,-9.14134 21.44141,-11.06309c4.55618,-1.61868 10.68431,-1.84497 15.09776,-2.44794c1.70416,-0.23283 3.0306,-1.30218 4.77663,-1.2808c2.21056,0.02708 4.81184,1.17166 6.94717,0.99521c11.0394,-0.91219 24.00923,-0.6126 34.11031,4.02842l1.37937,1.10559c1.45208,1.16388 2.52433,2.80167 2.96486,4.71143c0.11091,0.35706 0.16924,0.69923 0.17306,1.03765c0.16968,1.62201 -0.12906,3.18625 -0.78765,4.55721c0.23933,0.24633 0.47107,0.49992 0.69495,0.76094z" fill="#ff2d32" stroke="none" stroke-width="0.5" stroke-linecap="butt"/><path d="M306.51185,88.71345c0.25993,-0.70351 0.96345,-0.44359 0.96345,-0.44359l0.54115,0.21284c0.7327,0.43479 1.41845,0.94803 2.0835,1.48055c1.9854,1.98594 1.65421,2.88325 3.71272,4.6059c1.66461,1.39301 5.0392,5.00835 5.77573,6.93706c1.21712,3.1872 2.51589,5.83904 4.34309,8.67714c0.92451,2.008 2.18897,3.74225 2.71759,5.93346c0.30926,1.28193 0.35809,2.75036 0.99526,3.94223c1.07331,2.0077 2.84792,3.56065 3.8439,5.62577c1.08331,2.24618 1.0511,4.93549 0.837,7.36844c-0.61298,4.5131 -2.77975,7.4644 -5.65977,10.8647c-1.44443,1.70535 -3.02217,4.11013 -5.28055,4.79951c-1.23115,0.37582 -2.82604,0.32497 -4.11544,0.46703c-1.9693,0.19337 -3.661,-0.7991 -5.61254,-0.79578c-3.20892,0.00546 -5.27806,-1.0561 -8.27077,-1.9621c-3.06318,-0.92735 -6.25421,-1.32142 -9.34956,-2.11931c-2.67798,-1.16809 -2.20262,-3.04649 -2.01573,-5.7067c0.28481,-4.05402 1.49886,-8.19889 1.05214,-12.25371c0,0 -0.0039,-0.03543 -0.00228,-0.09167c-0.00018,-0.05627 0.00463,-0.09158 0.00463,-0.09158l0.10774,-0.78736c0.20213,-3.45872 1.22351,-7.03985 1.66951,-10.4743c0.00006,-0.00048 0.00009,-0.00072 0.00009,-0.00072v-0.00001l0.11563,-0.84553c1.32159,-6.13963 1.73829,-11.89045 3.82379,-17.85143c-0.02431,-0.13161 -0.00304,-0.2559 0.03152,-0.358c0.02687,-0.11001 0.07926,-0.23283 0.17951,-0.33382c0.49695,-3.86213 3.87067,-6.12435 7.50263,-6.78234c0.00195,-0.00553 0.00395,-0.01109 0.00601,-0.01667z" fill="#ab164a" stroke="none" stroke-width="0.5" stroke-linecap="butt"/><path d="M232.56576,152.4122c0,0 -4.95974,-19.70466 -7.72225,-36.03406c-1.6799,-9.93003 -3.38248,-18.51991 -0.25167,-20.93724c17.55303,-13.55287 43.88551,-11.95006 56.70816,-12.04387c7.68052,-0.05619 21.81398,1.31474 26.85234,5.86756c9.85078,8.90146 15.15355,19.9002 18.87086,27.89245c3.33217,7.16423 5.57848,11.82605 5.57848,11.82605l-1.88686,10.26838l-10.98927,11.35506c0,0 -35.60867,-10.24233 -51.15158,-9.26305c-24.7061,1.55661 -36.00821,11.06874 -36.00821,11.06874z" fill="none" stroke="#000000" stroke-width="3" stroke-linecap="round"/><path d="M292.25507,143.824c0,0 -0.32972,-26.85137 7.06599,-49.45644c1.38093,-4.22085 6.76122,-5.38762 6.76122,-5.38762" fill="none" stroke="#000000" stroke-width="1.5" stroke-linecap="round"/><path d="M236.40779,157.49137c2.12733,-5.45442 6.48544,-6.9538 11.80634,-8.92453c2.33326,-0.86417 4.71473,-2.00382 7.12099,-2.63143c6.78013,-1.76845 14.95399,-0.83386 21.71499,0.45941c9.91967,2.53127 20.76452,3.64051 29.06425,10.00776c1.40937,1.10529 1.68228,1.68967 2.49097,3.25631c4.83895,9.37417 -8.13703,11.28859 -13.95574,14.57872c-5.56764,2.97177 -12.37592,5.4949 -18.60769,6.73338c-2.50538,0.4979 2.16409,-1.05162 -0.29989,-0.3611c-8.26622,1.97066 -24.67413,4.33106 -33.09426,3.41895c-4.86101,-0.52986 -10.3652,-1.47631 -14.6695,-3.9121c-3.76346,-2.1297 -3.9191,-5.6683 -1.35029,-8.76903c2.695,-1.44641 5.26866,-3.07666 8.17584,-4.09654c0.67696,-0.23749 3.16696,-0.64185 3.65279,-1.37259c0.2809,-0.42254 -0.30168,-0.96894 -0.4471,-1.45504c-0.62499,-2.08936 -1.75755,-3.90318 -2.45958,-5.93888c0,0 -0.2419,-0.70992 0.46802,-0.95182c0.15019,-0.05117 0.27944,-0.05975 0.38989,-0.04145z" fill="#fddfbd" stroke="none" stroke-width="0.5" stroke-linecap="butt"/><path d="M232.62077,152.60734c0,0 23.56564,-11.11816 36.81837,-11.38195c15.40108,-0.30656 50.11497,9.65153 50.11497,9.65153l-0.56099,9.51869l-2.07727,1.23491l-9.25922,5.44672l-3.83781,-5.61348l-7.96029,9.93146c0,0 -10.93989,-17.56618 -12.99522,-17.76899c-2.05998,-0.20327 -15.66698,11.46989 -15.66698,11.46989l-3.67274,-16.89945l-26.6489,13.80131z" fill="#f89587" stroke="#f89587" stroke-width="0.5" stroke-linecap="round"/><path d="M327.7229,150.326c-1.76009,1.02951 -3.68792,2.2215 -5.4226,3.35277c0.68413,1.70362 2.31967,3.93165 3.52646,5.52769c0.73112,-2.87293 1.90971,-5.95284 1.89615,-8.88044zM319.95613,155.28706c-0.26977,2.49429 -0.21438,5.33245 -0.21438,5.33245c1.26364,0.76266 7.39948,5.80958 8.47197,5.38059c2.19063,-0.87624 3.17226,-6.51462 3.86412,-8.40521c0.50904,-1.39103 0.89281,-2.72789 1.18052,-4.03859c0.97656,-4.44886 0.84647,-8.59643 0.75219,-13.53867c-0.00441,-0.48515 0.36426,-1.72559 -0.03845,-1.45501c-2.34459,1.57532 -4.10461,3.78222 -6.06858,5.80313c-2.28881,2.35516 -5.81413,4.85309 -7.2776,7.88856c-0.18089,0.3752 -0.32531,0.88563 -0.44056,1.47062c0.70233,-0.2072 1.20024,-1.14139 1.89902,-1.61216c1.31176,-0.88375 1.735,-1.72262 2.88763,-2.4839c0.22092,-0.14591 3.62802,-2.66405 4.10165,-1.04583c0.71716,2.45027 -1.53451,9.69696 -2.00988,11.90934l-0.22258,0.47132c-0.02861,0.13074 -0.10314,0.26744 -0.25525,0.39448c-0.09988,0.09428 -0.24246,0.18554 -0.42666,0.19746c-0.18351,0.01975 -0.33962,-0.04578 -0.45414,-0.12158c-0.15967,-0.09226 -0.25456,-0.20425 -0.30771,-0.3192c-1.42136,-1.87858 -3.14454,-4.14595 -4.08141,-6.30173c-0.43954,0.20383 -0.89144,0.36655 -1.35992,0.47393zM337.71714,143.01919c6.49011,-0.71503 13.90769,-2.10864 20.4047,-1.35206c2.45825,0.28626 5.90234,0.94627 7.28421,3.28009c1.2826,2.16615 1.14947,5.05759 0.37114,7.13794c-0.86559,1.26006 -1.1013,4.88855 -2.47581,5.50945c-2.43346,1.09925 -7.89967,1.03576 -10.25416,0.39735c-5.32375,-1.44355 -12.43293,-3.35373 -17.10114,-6.27913c-0.33823,3.15558 -0.83517,4.36363 -1.80651,7.34116c-0.84991,2.60532 -2.26401,8.1743 -5.16143,9.34429c-2.0293,0.81943 -6.30012,-2.27863 -6.30012,-2.27863c-2.19401,-0.97211 -3.93127,-2.02646 -5.90204,-3.22221l-0.32909,0.23168c-3.53702,1.71435 -6.92751,4.57471 -10.19185,6.82062c-6.86459,3.67656 -14.48291,7.07075 -21.92726,9.31951c-3.63773,1.09888 -7.41835,1.73902 -11.0016,3.00468c-0.22502,0.40323 -17.71943,2.56649 -29.92683,2.55416c-4.64218,-0.00469 -10.80157,-1.5069 -11.60934,-1.8052c0,0 -0.03237,-0.01196 -0.08547,-0.03717c-0.05439,-0.0223 -0.08503,-0.03819 -0.08503,-0.03819l-0.24258,-0.14616c-1.81069,-0.60624 -3.4871,-1.25378 -5.18223,-2.1306c0,0 -0.02609,-0.01352 -0.06905,-0.04042c-0.0444,-0.02447 -0.06889,-0.04071 -0.06889,-0.04071c0,0 -4.24677,-2.18058 -2.47443,-6.13009c0.47463,-1.05769 1.07936,-2.17112 2.03982,-3.04044c3.68834,-3.33836 10.40732,-5.3055 11.10977,-5.50666c-1.84338,-4.32182 -4.11729,-8.41178 -5.46978,-12.94296c0,0 -0.42833,-1.43754 1.00921,-1.86586c1.43754,-0.42833 1.86588,1.00921 1.86588,1.00921c1.47219,4.95019 4.09588,9.37079 5.98661,14.16037l0.04313,0.20455c0.01905,0.06297 0.03564,0.12981 0.04948,0.20072c0.10645,0.54503 -0.02829,0.92768 -0.24024,1.1935c-0.18147,0.26809 -0.48496,0.50094 -0.99017,0.57506c-0.86004,0.16775 -10.97757,3.40429 -12.45296,5.5311c-2.24745,3.23976 4.25596,5.81389 5.14788,6.06767c4.83069,1.37447 12.8249,2.49229 15.15482,2.4189c12.50501,-0.39389 32.95363,-4.6151 36.66067,-5.73583c7.20847,-2.17928 14.53944,-5.80152 21.19832,-9.34145c3.34738,-2.31357 6.80812,-5.13743 10.4243,-6.94843l0.53234,-0.40727c0.31542,-0.34603 0.67834,-0.44522 0.99793,-0.4411c0.00535,-0.00053 0.01073,-0.00104 0.01613,-0.00151c0.31334,-2.71026 0.06603,-6.11555 1.23486,-8.58827c1.87925,-3.97568 6.39158,-7.26696 9.40446,-10.33885c2.03797,-2.07789 6.24848,-8.90272 9.14831,-4.63048c0.50378,0.7422 0.40919,2.90739 0.5512,3.7931c0.02065,1.0824 0.05937,2.17094 0.09745,3.26241zM353.33324,154.76102c1.74325,0.47201 4.35494,1.58189 6.20479,0.86925c0.81809,-0.31516 2.4435,-2.92637 2.97545,-3.71442c0.49482,-1.36438 1.47575,-4.39467 0.66713,-5.82961c-1.03972,-1.84504 -5.49221,-1.99459 -7.22976,-1.99338c-5.95079,0.00414 -12.04298,0.75942 -17.95992,1.41131l-0.81137,0.08939c0.02931,1.22775 0.03972,2.45615 0.00479,3.68067c4.54293,3.53728 10.71759,4.01618 16.14888,5.48678z" fill="#000000" stroke="none" stroke-width="0.5" stroke-linecap="butt"/></g><g stroke-width="0.5"><path d="M260.23886,127.29327c0.74574,5.80053 -6.17647,5.46039 -10.03236,5.9757c-0.92247,0.12328 0.31608,1.97467 -0.13492,2.78877c-0.55564,1.00301 -1.31026,1.91721 -2.18979,2.65289c-1.62594,1.36001 -5.73991,-0.04603 -7.00685,0.71794c-1.93665,1.16781 -2.91318,3.46169 -4.29436,5.25243c-2.48375,3.22028 -4.72897,6.62443 -7.29782,9.77724c-0.43435,0.53309 -2.50002,2.06946 -3.45934,1.97914c-2.68446,-0.25276 -14.67992,15.82235 -14.67727,12.88479c0.00029,-0.31843 0.63978,-3.25918 2.80845,-8.69622c2.56542,-6.43174 6.72303,-15.49281 6.66316,-15.48645c-2.17171,0.23073 -8.28116,0.75924 -12.60603,1.45346c-4.11659,0.66078 -6.49185,1.57147 -7.12331,-1.33523c-0.08116,-0.37358 5.48875,-9.60333 5.91726,-10.23708c3.94535,-5.83517 8.02042,-13.40597 12.56016,-18.77104c0.96105,-1.13578 5.41825,-6.92286 7.56545,-6.01124c0.01309,-0.00154 0.0262,-0.00303 0.03933,-0.00448c1.14989,-0.12668 2.25159,0.1472 3.16591,0.71006c0.60123,0.16953 1.12176,0.33668 1.47254,0.43868c5.67879,1.65124 10.97488,3.14143 16.47754,5.33374c1.1276,0.44925 4.09022,2.41653 4.22842,2.41277c0.84041,-0.02286 -1.01234,-5.4331 1.1643,-10.84439c0.96313,-2.39439 6.59008,-7.80495 6.99183,-7.61482c1.47083,0.69606 -1.44041,21.13638 -1.2886,22.51433c0.06228,0.56532 0.02774,1.11899 -0.09034,1.64447c0.6003,0.77313 1.04558,1.67817 1.14668,2.46457z" fill="#66ffff" stroke="none" stroke-linecap="butt"/><path d="M262.60078,104.89993l7.75819,17.45538l10.93727,18.91603l-10.94224,10.25998l-2.57428,-10.58173l-6.49461,1.31915l-19.84095,8.02101l-8.72853,4.78463l1.12371,2.89435l-7.00338,2.18005l-7.02696,3.79233l-5.60245,2.9657c0,0 11.86797,-15.53743 16.57421,-21.35855c2.39914,-2.96748 10.27513,-12.08283 10.27513,-12.08283c0,0 -7.3925,2.17688 -10.76779,3.07426c-5.36344,1.42595 -18.81928,5.51748 -18.81928,5.51748c0,0 15.17537,-18.61934 18.18545,-19.78017c2.15809,-0.83227 29.36664,7.5995 29.36664,7.5995c0,0 -1.45942,-3.48978 -0.93646,-9.06915c0.37488,-3.99972 3.78061,-21.27479 3.78061,-21.27479z" fill="#50a5eb" stroke="#50a5eb" stroke-linecap="round"/><path d="M250.85543,115.04316c0,0 0.00686,-0.2128 0.11243,-0.43887c0.14931,-1.23782 0.42991,-2.7633 0.96396,-4.33287c0.30836,-0.90626 1.5152,-2.99405 1.87878,-3.68599c3.02844,-5.76344 7.95628,-11.18422 8.53663,-9.2372c4.38661,14.71661 15.66287,37.46285 20.39316,43.14843c0.14718,0.10971 0.27442,0.27877 0.33324,0.53851c0.05807,0.18042 0.08116,0.40706 -0.02239,0.64013c-0.08632,0.24 -0.25968,0.38777 -0.42637,0.47799c-0.12227,0.08094 -0.24052,0.12769 -0.35251,0.14961c-4.14984,3.87873 -8.03321,7.2581 -11.48643,11.87655c-0.08496,0.18544 -0.23863,0.36703 -0.5144,0.46268c-0.17422,0.08272 -0.39438,0.12687 -0.64509,0.04521c-0.25779,-0.05535 -0.42598,-0.20414 -0.53504,-0.3632c-0.19354,-0.22493 -0.23336,-0.46328 -0.21127,-0.66859l-0.04819,-0.47662c-0.8395,-3.53524 -1.98494,-6.87795 -2.99843,-10.34243l-0.40554,0.04468c-3.71039,0.39782 -7.8405,2.4814 -11.48132,3.50746c-3.6936,1.37138 -7.08531,3.24499 -10.74771,4.69265c-2.69418,1.06495 -5.93418,2.22434 -8.14327,4.15738c-0.67465,0.59033 0.28625,2.19323 0.69276,2.88582c0.11367,0.12756 0.2017,0.30653 0.23262,0.55722c0.02965,0.17573 0.02707,0.39641 -0.08716,0.60577c-0.10831,0.21248 -0.28899,0.33923 -0.45077,0.41397c-0.20951,0.10834 -0.39552,0.14029 -0.55722,0.12628l-0.78108,0.08605c-3.71236,0.35134 -9.06572,2.43292 -12.30789,4.15383c-2.54519,1.35098 -5.55826,3.73211 -8.84007,5.70305c-2.29249,1.37678 -4.00763,3.92294 -4.29627,2.7368c-1.03538,-4.25492 3.44196,-12.84442 4.81241,-15.85703c0.75534,-1.66047 4.25232,-8.08001 5.27779,-9.78857c-5.51198,-0.91413 -10.64069,0.59632 -16.56224,2.14599c-1.42582,0.37314 -2.80608,0.67181 -4.11311,0.82574c-0.06964,0.02409 0.39341,-2.37425 3.92732,-8.92432c4.68882,-8.69067 13.35432,-22.78402 19.38494,-29.59636c1.30579,-1.47504 2.65459,-2.99909 4.40253,-3.20704c5.29814,-0.63031 12.31521,3.43205 13.2107,3.78533c3.99588,1.57641 7.54267,2.55316 11.16977,5.10172c0.20774,0.11208 0.41369,0.22758 0.61768,0.34673c0.00662,-0.22115 0.00981,-0.77659 0.06582,-1.55419c-0.00612,-0.24516 -0.00627,-0.49215 0.00119,-0.74231zM253.05109,118.10541l0.04694,0.42601c0,0 0.02335,0.21188 -0.04936,0.45078l0.3165,0.66955c0,0 0.10951,0.99398 -0.88448,1.10349c-0.60838,0.06703 -0.88541,-0.27934 -1.00881,-0.55817c-2.31847,-1.77812 -18.73219,-9.17652 -25.21631,-9.22702c-1.24945,-0.00973 -7.77133,7.62027 -12.50971,14.89042c-5.66667,8.69439 -9.70612,17.47048 -11.68745,20.16067c4.192,-0.7182 8.30638,-1.48193 12.45851,-1.9633c2.32773,-0.26986 4.62443,-0.84045 7.05761,-0.31785l0.47614,0.1682c0.11624,0.0247 0.24095,0.07471 0.37323,0.15857c0.24554,0.15566 0.37444,0.33744 0.43376,0.51701c0.06176,0.17874 0.06957,0.40145 -0.03118,0.67415c-0.05156,0.13954 -0.11621,0.25068 -0.18892,0.33873c-4.41883,6.95996 -7.23324,14.64651 -10.4109,22.1901c6.39407,-4.13922 13.23816,-9.12854 20.60574,-10.16682c-0.59811,-1.3076 -0.94808,-2.38832 0.09471,-3.56955c1.564,-1.77165 4.83488,-3.0221 6.89004,-4.04645c4.31096,-2.14873 8.99297,-3.84776 13.51028,-5.51704c1.8917,-0.53382 13.28775,-5.87079 14.53304,-4.50647c0.18121,0.19852 1.32443,2.45801 1.66883,4.01986c0.66207,3.00233 1.14436,5.78913 1.43219,6.88549c3.12288,-3.82838 5.4773,-6.34202 9.1128,-9.73434c-3.5265,-4.39535 -9.20985,-14.76759 -13.51309,-24.24591c-3.21385,-7.07886 -5.62277,-13.9172 -5.97837,-15.99928c-4.76003,5.20773 -6.74378,10.0296 -7.70193,15.47934c0.03869,0.57 0.10588,1.13605 0.17019,1.7198z" fill="#000000" stroke="none" stroke-linecap="butt"/><path d="M285.05875,142.49348c0.12318,-0.02683 0.22918,-0.00586 0.22918,-0.00586l0.70989,0.14097c3.80375,0.39812 7.24048,1.83054 10.89753,2.61718c5.94437,2.05033 12.87571,1.67822 18.65353,4.04919c4.56113,1.87283 2.37031,7.73576 2.30596,11.69762c-0.02855,1.75714 0.60058,3.90322 -1.68443,4.16723c-2.14964,-2.25973 -4.67728,-4.09813 -7.19274,-5.91955c-2.53703,-1.83703 -4.28508,-3.85249 -7.30165,-4.96702c-2.29075,-1.28735 -2.66233,4.26819 -4.17905,5.30293c-2.89569,1.97548 -4.96148,-2.63327 -6.00551,-4.6077c-2.57668,-4.88393 -6.89,-7.29584 -7.52535,-13.06265c0,0 -0.05475,-0.49699 0.44224,-0.55174c0.49699,-0.05475 0.55174,0.44224 0.55174,0.44224c0.02622,0.23799 0.05924,0.47025 0.09865,0.6972z" fill="#50a5eb" stroke="none" stroke-linecap="butt"/><path d="M286.40223,146.66767c0,0 5.69748,1.60496 7.07799,1.99511c0.72018,0.20353 1.48043,9.93944 1.48043,9.93944z" fill="#66ffff" stroke="#66ffff" stroke-linecap="round"/><path d="M283.94284,141.6438c1.02639,0.11228 2.05364,0.21654 3.08115,0.31786c6.00382,0.89497 11.92159,2.02374 17.86045,3.30521c3.97992,0.85878 13.30118,3.07403 13.50657,3.2494c0.21589,0.16228 0.39677,0.42742 0.44431,0.85892l0.01565,0.14201c0.64262,5.83297 0.34599,11.77929 -0.97074,17.49051c-0.02491,0.38764 -0.20299,0.64051 -0.40968,0.80462c-0.22947,0.22698 -0.58563,0.3956 -1.12478,0.26962c-0.26227,-0.06128 -0.45481,-0.16587 -0.59552,-0.29226l-0.17389,-0.0543c-4.25998,-4.54327 -9.38221,-9.35403 -14.47108,-13.08754c-1.52384,2.47722 -3.06549,4.96309 -4.36,7.56751c-0.04733,0.13637 -0.1253,0.27917 -0.24329,0.42638c-0.22572,0.28161 -0.46758,0.41675 -0.69745,0.46651c-0.22926,0.05246 -0.50562,0.0327 -0.82949,-0.12655c-0.19746,-0.09709 -0.34306,-0.21186 -0.44895,-0.33506l-0.45347,-0.39114c-4.86181,-6.18501 -9.03229,-13.28839 -13.31821,-19.9076c0,0 -0.6781,-1.0501 0.37199,-1.72818c1.0501,-0.67809 1.72818,0.372 1.72818,0.372c0.11473,0.17822 0.22942,0.35684 0.34407,0.53582c0.24338,-0.04141 0.4583,0.00772 0.63604,0.09067zM286.71768,144.44281c-0.2422,-0.02378 -0.48441,-0.04775 -0.72656,-0.07197c3.30909,4.81625 6.42686,9.78045 9.59184,14.68317c1.08882,-1.97865 2.27949,-3.90516 3.46131,-5.82721l0.82692,-1.04673c0.25722,-0.34636 0.54953,-0.4793 0.81923,-0.50698c0.26581,-0.04725 0.58185,-0.00029 0.92265,0.2592c4.92298,3.50472 9.9366,8.03716 14.25228,12.48428c0.82703,-4.47495 1.01297,-9.06805 0.60272,-13.60786c-4.05403,-0.06065 -23.82472,-5.48716 -29.75039,-6.36588z" fill="#000000" stroke="none" stroke-linecap="butt"/></g><g fill="none" stroke="none" stroke-width="1" stroke-linecap="butt" font-family="sans-serif" font-weight="normal" font-size="12" text-anchor="start"/></g><g><g><path d="M178.73179,194.33342c1.31995,0.28371 3.1139,0.24531 4.05687,1.35783c2.54047,2.99723 2.9868,8.17581 3.82374,11.85379c0.26942,1.18398 0.78848,2.47323 0.42213,3.63092c-0.64557,2.04013 -2.96582,1.13657 -4.2561,1.28934c-2.48014,0.29369 -4.7793,1.89769 -7.3837,2.06666c-1.41229,0.09164 -3.07054,-1.29413 -4.19337,-1.95197c-1.40974,-0.51367 -5.95075,-2.705 -6.09476,-4.59243c-0.11601,-1.52021 1.02075,-4.19611 1.34794,-5.71828c0.24119,-1.12211 -0.08254,-2.46927 0.57281,-3.41148c0.52524,-0.75515 1.60371,-0.92659 2.37316,-1.43065c2.22304,-1.45631 5.44727,-2.57277 8.20074,-3.3361z" data-paper-data="{&quot;noHover&quot;:false,&quot;origItem&quot;:[&quot;Path&quot;,{&quot;applyMatrix&quot;:true,&quot;segments&quot;:[[[149.94202,212.32093],[0,0],[-2.35446,1.23222]],[[143.17243,216.93298],[1.73675,-1.75867],[-0.60112,0.60871]],[[141.29885,218.68699],[0.33,-0.78929],[-0.41175,0.98483]],[[141.44689,221.88588],[0,-1.06744],[0,1.44805]],[[141.33271,227.32542],[-0.4026,-1.35962],[0.49986,1.68806]],[[147.74833,230.28825],[-1.38224,-0.19154],[1.14955,0.3787]],[[151.92038,231.23942],[-1.26624,0.35934],[2.33511,-0.66266]],[[158.1958,227.93329],[-2.19773,0.75176],[1.14337,-0.3911]],[[161.80428,225.94417],[-0.18828,1.98122],[0.10684,-1.12425]],[[160.70743,222.73868],[0.47638,1.02392],[-1.47986,-3.18076]],[[154.94562,212.75942],[2.89578,2.22881],[-1.07486,-0.8273]],[[151.01184,212.32093],[1.25564,0],[0,0]]],&quot;closed&quot;:true}]}" fill="#465e85" stroke="none" stroke-width="0.5" stroke-linecap="butt"/><path d="M178.3945,195.28927c-2.56083,0.70994 -5.52008,1.73206 -7.58763,3.08648c-0.71561,0.46881 -1.71186,0.61881 -2.20035,1.32111c-0.6095,0.87631 -0.30316,2.11497 -0.5275,3.15858c-0.3043,1.41571 -1.36259,3.88023 -1.2547,5.29408c0.13397,1.75541 4.33862,3.76712 5.64975,4.24487c1.04431,0.61181 2.56553,1.89189 3.87899,1.80667c2.42222,-0.15718 4.52343,-1.64043 6.83006,-1.91358c1.20002,-0.1421 3.3455,0.71098 3.9459,-1.18643c0.3407,-1.0767 -0.14817,-2.26323 -0.39873,-3.36441c-0.77841,-3.4207 -1.17334,-8.17965 -3.53608,-10.96722c-0.877,-1.03469 -2.52618,-0.99149 -3.75382,-1.25535zM180.69086,192.70697c1.79532,0.34859 3.35589,0.56182 4.72979,2.05172c2.8197,3.05768 3.38546,8.47516 4.24458,12.35635c0.37046,1.67356 0.82206,3.52674 0.23433,5.13691c-1.1207,3.07034 -3.85999,2.75864 -6.30486,3.0072c-2.44093,0.24818 -4.65362,1.87293 -7.28453,1.94164c-1.91652,0.05006 -3.5694,-1.17038 -5.12346,-2.09666c-2.4262,-0.90636 -6.84779,-3.48218 -7.31332,-6.41461c-0.26616,-1.67646 0.90505,-4.75399 1.2727,-6.46447c0.15054,-0.70035 0.81593,-3.97128 1.09007,-4.36689c0.38521,-0.55595 1.18996,-0.64796 1.74918,-1.02845c3.25915,-2.21745 7.19941,-3.8017 11.02721,-4.8062c0,0 1.16714,-0.30042 1.67836,0.68348z" fill="#000000" stroke="none" stroke-width="0.5" stroke-linecap="butt"/><g stroke="none" stroke-width="0.5" stroke-linecap="butt"><path d="M196.87796,214.84788c0.44454,-3.82517 1.65016,-7.67714 2.45581,-11.4254c0.27032,-1.25769 0.71254,-5.90651 1.95737,-6.43489c1.54341,-0.6551 3.24374,0.85573 4.8838,1.20434c4.43449,0.94259 9.28888,1.46868 13.35735,3.47375c5.236,4.65429 4.0905,9.73814 3.1736,16.02109c-0.44544,3.05228 -1.59122,7.35132 -5.40051,7.77682c-4.08439,0.45621 -7.35942,-3.24236 -11.03449,-0.20755c-0.79712,0.76219 -1.17679,1.94085 -2.08108,2.5722c-0.43041,0.30051 -1.86217,1.84706 -2.20369,1.92256c-5.34066,1.18063 -6.3201,-5.22102 -5.98578,-9.6021c0.00052,-0.00762 0.00112,-0.0152 0.00176,-0.02281c0.0342,-0.44302 0.07905,-0.87591 0.13081,-1.29082l0.09161,-0.90331l0.03498,0.00356c0.08441,-0.53891 0.17699,-1.03086 0.26745,-1.45426z" fill="#f49285"/><path d="M189.77422,192.56239c0.93776,-1.17072 2.10849,-0.23292 2.10849,-0.23292l-0.02485,0.09036c2.69761,0.93905 5.37626,1.95537 8.13421,2.70861c0.23545,-0.38731 0.69991,-0.82144 1.56506,-0.63548c0.92092,0.19794 1.13921,0.84989 1.17418,1.30759c9.80636,2.19683 21.69937,3.20702 23.05059,15.41463c-0.33378,4.85463 -1.36714,12.95365 -6.60364,15.20852c-3.32921,1.43356 -7.32346,-1.14594 -10.89436,-0.29287c-2.26939,0.54215 -2.16218,3.04892 -3.57504,4.54673c-2.32319,2.46291 -5.41525,1.10102 -7.89274,-0.36865c-1.6533,-1.99351 -3.74449,-4.99562 -3.77709,-7.71195c-0.06191,-5.15928 2.89374,-10.39639 4.22474,-15.26026c0.83234,-3.04164 1.40125,-6.18287 2.01853,-9.29263c-2.85253,-0.77612 -5.62131,-1.81998 -8.41072,-2.79099l-0.86442,-0.58218c0,0 -1.17072,-0.93776 -0.23292,-2.10848zM202.20492,198.72471c-0.62315,3.13744 -1.19918,6.30572 -2.0397,9.37467c-1.85904,6.78792 -6.43207,13.57982 -1.39368,19.93437c0.75475,0.44182 2.40041,1.25495 3.27344,1.16058c0.96954,-0.10481 1.65448,-3.20874 2.02272,-3.71232c0.59847,-0.81844 2.37847,-1.96172 3.36833,-2.22884c0.7011,-0.18922 3.95631,-0.45934 4.80825,-0.37172c1.38614,0.14257 4.32918,1.45408 5.80121,0.76436c3.82531,-1.79237 4.48704,-8.87486 4.73701,-12.37031c-1.10405,-10.02111 -12.21294,-10.85132 -20.57761,-12.55076z" fill="#000000"/></g><path d="M181.66131,216.10667c0.0565,0.35572 -0.02179,0.78149 -0.43987,1.21238c-0.34124,0.35171 -0.6859,0.47702 -0.99531,0.48632c-0.34233,0.16979 -0.8037,0.2262 -1.36489,-0.10523c-0.60299,-0.35611 -0.75819,-0.82749 -0.75232,-1.22889c-2.17433,-1.79436 -4.98884,-3.48 -6.08769,-5.96652c-1.1475,-2.59663 -0.02839,-5.01307 0.36349,-7.59921c0.30886,-2.03824 -0.40243,-3.97917 -0.39723,-6.00565c0.0023,-0.89281 0.27006,-3.695 0.7887,-4.44755c0.96285,-1.39707 3.76514,-2.34243 5.2342,-3.11129c2.57089,-1.65945 5.84377,-3.20547 8.03778,-5.36026c1.17063,-1.1497 2.84241,-4.55338 4.04074,-5.28146c3.20908,-1.94978 8.15516,1.71813 11.3819,1.65644c0.60426,-0.01153 1.17195,-3.47807 1.17519,-3.48388c0.72628,-1.29021 2.05387,-2.13313 3.07192,-3.20815c3.67244,-0.98503 4.87505,0.02089 7.64328,2.10297c1.26541,0.95175 3.87208,1.83098 4.53623,3.4388c0.19436,0.4705 0.16076,0.96978 0.05674,1.48071c0.11616,0.08635 0.21844,0.18866 0.30434,0.30294l1.33784,1.75822l-0.37241,0.28338c2.41639,2.47723 4.49338,5.76782 5.19893,8.94498c0.82,3.69259 -1.73306,10.19112 -4.31803,12.7669c-4.42729,4.41154 -10.2262,3.83603 -15.78524,5.30315c-3.70961,0.97902 -6.73197,1.47965 -10.61844,1.35948c-5.26675,-0.17109 -8.70679,0.7873 -12.03987,4.70138z" fill="#fddfbd" stroke="none" stroke-width="0.5" stroke-linecap="butt"/><path d="M172.01598,207.08235c1.49323,3.80584 4.50025,7.62021 8.53512,4.12715c0.55241,-0.47823 0.58094,-1.3538 0.8948,-2.01359c0.75375,-1.58461 1.42884,-3.1886 1.99887,-4.831c0.75937,3.28638 3.25622,5.70925 4.17226,8.79724c0.22903,0.77209 0.56067,1.52592 0.94565,2.23328c0.30661,0.56336 1.48524,1.36774 0.92972,1.68836c-1.55917,0.89991 -3.58075,1.78586 -5.28757,2.55675c-1.54392,0.69731 -2.23968,0.72806 -3.87263,0.37708c-2.81257,-1.70171 -4.08973,-4.28895 -5.92691,-6.83815c-1.1256,-1.56184 -2.74177,-2.75581 -2.64731,-4.89516c0.01767,-0.40045 0.08113,-0.82492 0.17064,-1.25055z" data-paper-data="{&quot;noHover&quot;:false,&quot;origItem&quot;:[&quot;Path&quot;,{&quot;applyMatrix&quot;:true,&quot;segments&quot;:[[[292.27259,450.35302],[0,0],[0.00386,0.86986]],[[292.46735,452.85822],[-0.13372,-0.79044],[0.71446,4.22288]],[[299.69469,461.2609],[-2.85734,-2.58084],[4.6637,4.21236]],[[314.05027,472.08106],[-6.21472,-2.14538],[3.3405,0]],[[321.42067,469.73416],[-2.7258,2.01234],[3.01346,-2.22472]],[[330.64919,462.5618],[-2.6705,2.41496],[0.95146,-0.86042]],[[328.11865,459.6624],[0.8363,0.97272],[-1.05006,-1.22134]],[[325.32895,455.71702],[0.77232,1.41342],[-3.08898,-5.6531]],[[313.56087,440.36446],[2.86608,6.10686],[-0.4243,3.45106]],[[311.69295,450.6516],[0.80786,-3.41526],[-0.33638,1.42204]],[[310.84131,454.95192],[0.87914,-1.16726],[-6.42148,8.52596]],[[292.27261,450.35306],[4.51934,6.8141],[0,0]]],&quot;closed&quot;:true,&quot;fillColor&quot;:[0,0,0,1]}]}" fill="#f49285" stroke="none" stroke-width="0.5" stroke-linecap="butt"/><path d="M186.89132,206.2466c2.95955,1.83157 6.87509,3.10966 10.22961,1.82695c0.69773,-0.26679 1.74963,-1.19365 2.55801,-2.18956c0.27444,1.11959 0.86462,2.18727 1.55073,3.05897c0.23071,0.29311 2.19158,1.9588 1.65641,2.61411c-0.54355,0.66556 -1.55838,0.74171 -2.32594,1.12805c-1.18347,0.91973 -2.54472,2.33372 -3.92996,2.97816c-1.28294,0.59685 -2.73994,0.11513 -4.02529,-0.16271c-0.91092,-0.19691 -1.99872,0.03117 -2.77309,-0.48739c-0.6944,-0.465 -0.75704,-1.51196 -1.13191,-2.25887c-0.98499,-1.96263 -1.52739,-4.25781 -1.80857,-6.50775z" data-paper-data="{&quot;noHover&quot;:false,&quot;origItem&quot;:[&quot;Path&quot;,{&quot;applyMatrix&quot;:true,&quot;segments&quot;:[[[321.19917,442.52486],[0,0],[1.49544,4.28122]],[[327.45837,454.40592],[-2.75086,-3.4236],[1.04692,1.30294]],[[330.59357,458.31922],[-1.55322,-0.6174],[1.73212,0.6885]],[[336.18071,458.09086],[-1.86394,-0.00216],[2.63006,0.00304]],[[344.04827,456.7328],[-2.25774,1.70622],[2.43778,-1.84228]],[[350.43759,449.32674],[-1.92754,2.29582],[1.33848,-1.07802]],[[354.51083,446.1658],[-0.7831,1.52982],[0.77104,-1.5063]],[[350.18243,441.78466],[0.57428,0.47616],[-1.70792,-1.41612]],[[345.89649,436.49366],[1.00718,2.07384],[-1.16208,2.28712]],[[341.81685,441.85142],[1.25216,-0.81492],[-6.02014,3.91802]],[[321.19919,442.52488],[6.55672,2.33748],[0,0]]],&quot;closed&quot;:true,&quot;fillColor&quot;:[0,0,0,1]}]}" fill="#f49285" stroke="none" stroke-width="0.5" stroke-linecap="butt"/><path d="M215.99001,214.87339c-0.72477,0.46882 -1.55172,0.87996 -2.41786,1.19727l-1.49018,-0.31966c-0.3105,-0.11547 -0.61539,-0.22863 -0.90968,-0.33718c-0.26978,-0.17354 -0.60658,-0.28172 -0.97916,-0.3532c-1.67161,-0.58576 -3.15449,-0.98767 -4.73796,-0.94842c-1.54119,-0.84067 -3.98073,-2.56346 -4.5285,-3.44174c-0.42219,-0.67693 -0.0147,-2.05965 0.36716,-3.0951c0.19074,0.0896 0.427,0.07642 0.427,0.07642c1.54045,0.33112 4.1034,1.30194 5.62542,1.12403c1.41751,-0.16569 3.09991,-1.41735 4.26776,-2.17078c4.70633,-3.03632 7.43374,-6.36666 8.63458,-11.92903c0.36918,-1.71008 1.47836,-4.57438 1.17527,-6.67242c1.00787,1.40696 2.62075,2.65429 3.1496,4.31386c0.50924,1.59798 -0.62095,3.60036 -0.78582,5.16631c-0.30895,2.93432 1.01841,5.92965 0.58641,8.73518c-0.13268,0.86167 0.1376,1.91632 -0.41307,2.59221c-0.25633,0.31463 -0.82164,0.18941 -1.13794,0.44364c-2.26661,1.82166 -4.49291,3.78614 -6.83297,5.61861z" data-paper-data="{&quot;noHover&quot;:false,&quot;origItem&quot;:[&quot;Path&quot;,{&quot;applyMatrix&quot;:true,&quot;segments&quot;:[[[381.59284,447.04069],[0,0],[3.8055,-4.5666]],[[392.54006,433.22621],[-3.66638,4.5146],[0.51168,-0.63006]],[[394.57458,431.88833],[-0.369,0.72294],[0.7927,-1.55304]],[[394.28604,426.66537],[0.1027,1.74062],[-0.3344,-5.6673]],[[389.48224,409.91035],[0.62914,5.86744],[-0.33576,-3.13126]],[[388.8702,399.50235],[1.66732,2.91058],[-1.73158,-3.02274]],[[380.93036,392.40715],[2.56208,2.32748],[1.47438,3.97498]],[[381.51618,405.76605],[0.00316,-3.49896],[-0.01024,11.38102]],[[369.57254,432.90379],[7.92632,-7.91502],[-1.96688,1.96408]],[[362.11264,438.93129],[2.70206,-0.91974],[-2.90128,0.98756]],[[350.61324,439.07441],[3.15128,0],[0,0]],[[349.90228,438.97939],[0.41062,0.09502],[-0.31148,2.18516]],[[350.47416,445.17377],[-1.11004,-1.1462],[1.4402,1.48712]],[[360.74526,449.98123],[-3.36688,-0.99606],[3.07972,-0.74228]],[[370.37742,449.83737],[-3.51474,-0.44278],[0.75856,-0.01684]],[[372.43326,450.11627],[-0.60044,-0.22594],[0.62106,0.08858]],[[374.34712,450.39349],[-0.65566,-0.09528],[0,0]],[[377.38508,450.39349],[0,0],[1.56024,-0.9845]],[[381.59282,447.04071],[-1.22014,1.22132],[0,0]]],&quot;closed&quot;:true,&quot;fillColor&quot;:[0,0,0,1]}]}" fill="#f49285" stroke="none" stroke-width="0.5" stroke-linecap="butt"/><path d="M203.63813,195.4392c0.11992,0.20748 0.15633,0.53723 0.13036,0.93459c-0.26677,0.93763 -0.57459,1.84385 -0.69467,2.40254c-0.74756,3.47798 -1.93268,6.9359 -1.25796,10.44124c-0.02101,0.05967 -0.03906,0.12148 -0.0527,0.18493c-0.11114,0.51711 0.03092,0.93322 0.37912,1.28121l0.14592,0.21698c-0.15625,0.01603 -0.32691,0.04315 -0.51142,0.08588l-1.17585,0.3022c-0.98682,-1.66136 -1.54805,-3.54425 -1.39254,-5.7291c0.20902,-2.93648 2.19724,-6.15674 1.8921,-9.10356c-0.19388,-1.87222 -2.0527,-3.84895 -3.48069,-4.8598c-0.28062,-0.19864 -0.61743,-0.44024 -0.91951,-0.60538c2.78757,0.69759 5.7177,2.33748 6.93783,4.44826z" data-paper-data="{&quot;noHover&quot;:false,&quot;origItem&quot;:[&quot;Path&quot;,{&quot;applyMatrix&quot;:true,&quot;segments&quot;:[[[333.91683,408.63274],[5.74384,0.19247],[0.66002,0.19593]],[[335.8855,409.24853],[-0.63215,-0.27045],[3.21708,1.37635]],[[344.78461,417.28125],[-1.16594,-3.57933],[1.83515,5.63376]],[[344.91498,436.07495],[-0.82548,-5.82966],[0.61419,4.33751]],[[349.99713,446.49874],[-2.62782,-2.83381],[0,0]],[[352.15812,445.41825],[0,0],[0.34282,-0.16111]],[[353.11747,445.03776],[-0.29878,0.09703],[0,0]],[[352.83654,444.85047],[0,0],[-0.8271,-0.53416]],[[351.46193,442.32851],[0,1.05784],[0,-0.12982]],[[351.48617,441.94533],[-0.016,0.12547],[-2.79252,-6.57054]],[[349.53759,421.16078],[0,7.11479],[0,-1.1429]],[[349.90569,416.18539],[-0.12758,1.9455],[-0.11618,-0.78785]],[[349.26689,414.41716],[0.32171,0.35528],[-3.27291,-3.61451]]],&quot;closed&quot;:true}]}" fill="#000000" stroke="none" stroke-width="0.5" stroke-linecap="butt"/><path d="M188.06165,215.54942c-0.74196,-0.24444 -1.62804,-2.68911 -1.87956,-3.26067c-0.74398,-1.69068 -2.29941,-3.64515 -2.27862,-5.58194c0.0189,-1.76078 0.95114,-3.49135 0.90597,-5.32422c-0.03154,-1.2805 -0.65606,-3.69478 -1.68011,-5.22002c1.32972,0.22616 2.7284,0.57173 3.48669,1.48718c1.0698,1.2915 0.60962,4.11156 0.77555,5.61284c0.26664,2.41258 -0.4571,4.75931 0.29575,7.23001c0.48415,1.58884 2.26852,3.37721 3.03209,4.77567c-0.95475,0.28353 -1.97833,0.50503 -2.65779,0.28117z" data-paper-data="{&quot;noHover&quot;:false,&quot;origItem&quot;:[&quot;Path&quot;,{&quot;applyMatrix&quot;:true,&quot;segments&quot;:[[[332.32289,458.44583],[-1.74771,0.95566],[-5.31642,-6.16662]],[[320.82948,436.55107],[2.52271,7.56691],[-0.95542,-2.86579]],[[316.97562,425.8992],[2.63462,2.07571],[-1.86749,-1.47132]],[[309.56314,424.44377],[2.69509,-0.11667],[2.64337,2.55195]],[[315.04621,433.9419],[-0.59988,-2.49057],[0.85864,3.56492]],[[315.54628,444.61182],[-0.70308,-3.45088],[0.77335,3.79581]],[[322.24548,454.50921],[-2.1653,-2.99318],[0.73203,1.01191]],[[327.26825,460.1002],[-1.55353,-0.16613],[1.42267,0.15213]]],&quot;closed&quot;:true}]}" fill="#000000" stroke="none" stroke-width="0.5" stroke-linecap="butt"/><path d="M219.69721,182.21167c0,0 4.21142,10.36435 4.82198,14.26024c0.74556,4.75742 -0.67214,12.2195 -0.67214,12.2195c0,0 -2.45414,2.657 -4.25479,3.73443c-2.30756,1.38074 -8.45095,3.86809 -8.45095,3.86809c0,0 -5.07515,-2.10641 -6.52637,-2.85819c-1.74226,-0.90256 -3.21457,-2.18798 -3.21457,-2.18798l-0.50548,2.35172c0,0 -2.03908,1.71695 -3.2332,2.28493c-1.18086,0.56167 -3.89221,1.10424 -3.89221,1.10424l-5.67709,-2.20438l0.80445,3.12536c0,0 -2.25924,1.34356 -3.43548,1.81947c-1.3218,0.53483 -4.10974,1.23342 -4.10974,1.23342c0,0 -3.51811,-2.83009 -5.00611,-4.34723c-1.81146,-1.84693 -5.08434,-5.94084 -5.08434,-5.94084c0,0 -0.09857,-5.79845 0.29243,-8.9818c0.37372,-3.04268 2.00412,-9.71541 2.00412,-9.71541c0,0 1.41252,-1.72274 2.20223,-2.23303c1.76583,-1.14104 8.08367,-4.41339 8.08367,-4.41339c0,0 1.93757,-1.10305 2.72257,-1.90248c1.10097,-1.12121 3.26213,-4.19223 3.26213,-4.19223l8.80244,1.39995c0,0 3.0467,-1.54793 3.38102,-1.94701c0.96372,-1.15036 4.318,-5.25543 4.318,-5.25543l4.20012,-0.08137c0,0 3.93381,2.2806 5.25403,3.55647c1.65795,1.60228 3.91331,5.30299 3.91331,5.30299z" fill="none" stroke="#000000" stroke-width="3" stroke-linecap="round"/></g><path d="M213.61717,188.30086l0.12744,-0.08769c0.57597,-0.07434 4.37281,-0.41686 4.71049,0.10866c0.0546,0.08496 -0.43185,1.99797 -0.49916,2.29867c-0.35416,1.58199 -0.38575,3.1899 -0.27174,4.80031c0.65686,5.02564 2.06737,12.00345 6.30347,15.25412c0.21137,0.38817 0.73072,0.73322 0.6341,1.16452c-0.08281,0.36958 -1.26862,0.55054 -1.6323,0.56286c-1.39453,0.04721 -3.37841,0.43688 -4.71001,0.14372c-0.77291,-0.17017 -1.36079,-1.19949 -1.80773,-1.74647c-1.87815,-2.2986 -3.60304,-3.90205 -4.91896,-6.6387c-1.37877,-5.2651 -0.1992,-10.35097 1.58292,-15.51821c0,0 0.12746,-0.36732 0.4815,-0.34175z" fill="#485e84" stroke="none" stroke-width="0.5" stroke-linecap="butt"/><path d="M219.70336,202.41517c-0.06747,-0.02998 -0.10967,-0.06245 -0.10967,-0.06245c-5.22116,-4.01671 -3.64743,-10.49545 -1.5242,-15.86491c0.56155,-1.41894 1.38083,-3.57117 2.70335,-4.50606c1.86941,-1.32148 4.07593,-1.86232 6.02491,-2.8383c-0.09746,-0.16994 -0.08945,-0.38889 0.03746,-0.55384c0.03423,-0.0445 0.07448,-0.08164 0.11872,-0.11116l0.68968,-0.48376c1.05385,-0.73806 1.78404,-1.65669 2.83975,-2.13163l-0.08593,-0.17727l0.49328,-0.23913c0.16666,-0.08516 0.37453,-0.0728 0.53274,0.0489c0.21887,0.16838 0.2598,0.48231 0.09142,0.70118l-0.09271,0.12052c0.35008,-0.12665 0.69236,-0.24855 1.01335,-0.37475c2.6883,-1.05691 4.99453,-1.60688 7.45125,-1.12898c0.0776,-0.04246 0.16486,-0.06331 0.25226,-0.06129l0.9941,0.01217l-0.00199,0.16273c4.73168,-0.08336 10.96866,3.51635 13.44389,7.13999c2.02322,3.00261 3.55176,7.36325 2.05715,11.03952c-1.07138,2.63527 -3.52884,5.06326 -5.26121,7.29117c-2.46251,1.76443 -5.04606,3.2093 -7.71689,4.63757c-0.92142,0.49275 -2.2697,1.55204 -3.30364,1.70979c-2.36873,0.36142 -5.24816,-0.85838 -7.66357,-0.96494c-4.43039,-0.1996 -8.92525,-0.22112 -12.49871,-2.97024l-0.3963,-0.30488c0,0 -0.04221,-0.03247 -0.08848,-0.08999zM243.93774,176.25152c0.13058,0.04042 0.26153,0.08105 0.39274,0.12009c-0.12804,-0.0471 -0.25923,-0.08645 -0.39274,-0.12009z" fill="#485e84" stroke="none" stroke-width="0.5" stroke-linecap="butt"/><path d="M219.01761,189.13178c0.08466,0.06365 0.15588,0.16723 0.17774,0.33496c0.02874,0.22047 -0.05333,0.35568 -0.15335,0.43787c-0.007,0.01017 -0.01445,0.02041 -0.02238,0.03072c-0.22642,0.29431 -0.50327,0.2019 -0.63076,0.13484c-1.62574,0.1614 -3.19226,0.00649 -4.81206,0.09726c-0.38974,0.02185 -1.3793,0.29903 -1.59548,-0.15981c-0.37798,-0.80228 0.44235,-1.44692 0.7836,-1.98315c0.94955,-1.49206 1.89917,-2.88826 2.99516,-4.30115c0.60284,-0.47511 1.17087,-0.67993 1.90633,-0.8851c0.49745,-0.13877 3.29854,-1.17755 3.64723,-0.75733c1.32851,1.60106 -2.09691,5.04931 -2.29606,7.05088z" fill="#ff66ca" stroke="none" stroke-width="0.5" stroke-linecap="butt"/><path d="M212.96756,187.9993c0.00332,-0.40808 0.16244,-0.73192 0.16244,-0.73192l0.96954,-1.48853c1.08817,-0.7017 1.91134,-1.99367 3.18576,-2.22246c4.38787,-0.78773 3.68172,0.29833 3.13484,3.29847c-0.12879,0.70647 -0.12211,1.51113 -0.56008,2.08025c-1.66139,2.15895 -5.03979,1.70824 -7.43215,2.17802c0,0 0.04206,-0.86025 -0.24589,-2.33238c-0.28796,-1.47211 -0.33003,-0.61186 -0.33003,-0.61186c0.36885,-0.07188 0.74137,-0.1257 1.11555,-0.16961z" fill="#8fbbbe" stroke="none" stroke-width="0.5" stroke-linecap="butt"/><path d="M217.92858,192.82779c0.4908,0.09547 0.39534,0.58626 0.39534,0.58626l-0.0427,0.2195c-0.02348,0.12052 -0.04753,0.23679 -0.07226,0.34898c0.00838,0.03774 0.0134,0.07935 0.01426,0.12528c0.00332,0.17472 -0.05559,0.28954 -0.13364,0.36499c-0.67506,2.50344 -1.8451,2.62172 -4.73638,2.99871c-0.59432,0.18134 -1.17477,0.7109 -1.77775,0.56083c-1.06489,-0.26503 -1.05968,-2.80126 -0.29511,-3.37691c1.01934,-0.76749 4.32994,-0.97469 5.98215,-1.02654c0.01242,-0.06061 0.02478,-0.12267 0.03713,-0.18625l0.0427,-0.2195c0,0 0.09546,-0.49081 0.58625,-0.39534z" fill="#8fbbbe" stroke="none" stroke-width="0.5" stroke-linecap="butt"/><path d="M257.05026,197.26161l-1.66937,5.65498l-6.18893,7.22476l-5.79243,3.42933l-5.31215,0.96003l-10.86795,-2.68328l-5.58621,-5.2438l-2.19463,-6.57737c0,0 -0.42687,-4.04014 -0.56657,-5.36239c-0.082,-0.77611 -0.0047,-1.07009 -0.0047,-1.07009c0,0 3.10321,8.26629 11.44921,10.43509c16.96504,4.40856 26.9475,-14.01519 26.9475,-14.01519z" fill="#343545" stroke="#343545" stroke-width="1.5" stroke-linecap="round"/><path d="M228.5379,212.38861c-0.45732,0.59444 -1.05176,0.13714 -1.05176,0.13714l-0.25008,-0.19628c-2.10504,-1.95712 -3.7658,-4.38472 -4.72859,-7.06123c-2.77141,-0.71474 -4.57076,-1.83894 -5.41778,-5.19699c-0.28571,-1.1327 -0.75957,-1.86342 0.18774,-2.96045c0.17356,-0.20101 1.77383,-0.51885 2.07396,-0.58891c0.87602,-0.20449 1.74041,-0.40057 2.60545,-0.5738c0.22018,-1.92999 0.4651,-4.17302 0.85499,-6.07499c-1.06269,0.54451 -4.68554,2.72619 -5.52571,2.20027c-1.21587,-0.76108 -0.04944,-1.30002 0.19172,-1.94749c0.02151,-0.05772 0.04321,-0.11519 0.06512,-0.17238c-1.09347,0.27859 1.84166,-6.67943 1.87406,-6.68495c0.03816,-0.14163 0.1417,-0.30589 0.41281,-0.34124c0.4958,-0.06465 0.56045,0.43116 0.56045,0.43116l0.02134,0.23874c-0.02187,0.30663 -0.0921,0.73913 -0.20221,1.23598c0.51445,-0.83613 1.04459,-1.67809 1.5687,-2.56695c0.0492,-0.1319 0.13696,-0.23294 0.21757,-0.3037c0.07955,-0.0772 0.19197,-0.15944 0.33383,-0.19634l0.18439,-0.08587c0.91156,-0.30751 1.77151,-0.74073 2.64139,-1.15154c0.35785,-1.09185 0.84295,-2.14146 1.58579,-3.11478c0,0 0.45732,-0.59444 1.05176,-0.13714c0.59444,0.45732 0.13714,1.05176 0.13714,1.05176c-0.34763,0.44764 -0.63282,0.91884 -0.87159,1.40759c1.87415,-0.626 3.94187,-0.95782 6.05442,-1.04157c1.32312,-2.05055 2.99443,-3.87288 5.15184,-5.33148c0,0 0.62182,-0.41932 1.04115,0.2025c0.41932,0.62182 -0.2025,1.04115 -0.2025,1.04115c-1.6726,1.12468 -3.04768,2.51239 -4.18659,4.07538c2.71454,0.06791 5.4334,0.51897 7.84689,1.2572c0.77233,-1.39605 1.67622,-2.7761 2.74906,-4.17065c0,0 0.45732,-0.59444 1.05176,-0.13714c0.59444,0.45732 0.13714,1.05176 0.13714,1.05176c-0.9558,1.2424 -1.77179,2.47121 -2.47648,3.71072c2.34516,0.6362 5.10478,0.95745 7.21759,2.0021c0.33828,0.16725 0.66325,0.3579 0.97769,0.56666c-0.00646,-0.31916 -0.03069,-0.63723 -0.07606,-0.95392l0.00142,-0.7311c0,0 0.00918,-0.74995 0.75913,-0.74076c0.74995,0.00918 0.74076,0.75913 0.74076,0.75913l-0.01389,0.5188c0.09073,0.75238 0.0815,1.50195 0.00798,2.24941c1.38312,1.21335 2.62357,2.65212 4.02663,3.73151c0,0 0.59444,0.45732 0.13714,1.05176c-0.45732,0.59444 -1.05176,0.13714 -1.05176,0.13714c-1.17711,-0.90557 -2.24335,-2.09809 -3.38438,-3.17543c-0.31876,1.56031 -0.79784,3.11409 -1.10936,4.66834c0.50094,0.3032 1.01051,0.5887 1.54013,0.83376c0.73675,0.34091 2.08689,0.21446 2.54905,1.03458c0.83563,1.48281 0.1508,1.53721 -0.02569,2.77131c-0.11481,0.80275 0.51618,2.7388 0.06392,3.36368c-0.32263,0.44576 -1.70954,0.41609 -2.26205,0.4221c-1.15047,0.01253 -2.30674,0.11271 -3.46076,0.17795c-0.3227,1.94973 -0.65076,3.88157 -1.11734,5.76554c0.73862,-0.40319 1.47126,-0.80633 2.20734,-1.16357c0.49289,-0.2324 0.96467,-0.53673 1.34983,-0.92222l0.23422,-0.31682c0,0 0.45732,-0.59444 1.05176,-0.13714c0.59444,0.45732 0.13714,1.05176 0.13714,1.05176l-0.37553,0.47577c-0.50938,0.48754 -1.11125,0.88545 -1.74309,1.19842c-1.14202,0.553 -2.26679,1.1937 -3.41205,1.78537c-0.73932,2.351 -1.77921,4.60727 -3.3945,6.70692c0,0 -0.45732,0.59444 -1.05176,0.13714c-0.59444,-0.45732 -0.13714,-1.05176 -0.13714,-1.05176c1.18995,-1.54677 2.05018,-3.18947 2.70242,-4.89756c-1.31367,0.55585 -2.67818,0.95884 -4.14582,1.01946c-0.94425,0.039 -1.90559,0.01735 -2.87822,-0.05095c0.17739,1.3915 0.42488,2.77888 1.04096,4.02847c0.12193,0.25151 0.24386,0.50302 0.36579,0.75453l0.07966,-0.03862c0,0 0.59444,0.45732 0.13714,1.05176c-0.45732,0.59444 -1.05176,0.13714 -1.05176,0.13714l-0.51479,-0.49593c-0.12193,-0.25151 -0.24386,-0.50302 -0.36579,-0.75453c-0.71081,-1.48664 -1.22754,-3.13464 -1.58438,-4.86927c-2.14215,-0.26674 -4.32007,-0.71158 -6.47422,-1.19054c1.44924,2.51628 3.50627,4.86146 5.21324,7.16134l0.19378,0.37028c0,0 0.32717,0.67488 -0.3477,1.00205c-0.67488,0.32717 -1.00205,-0.3477 -1.00205,-0.3477l-0.05007,-0.13275c-1.91307,-2.59548 -4.27456,-5.22394 -5.74479,-8.10459c-0.06433,-0.12605 -0.12683,-0.254 -0.18757,-0.38375c-1.88125,-0.42874 -3.73019,-0.85052 -5.50606,-1.16679c-0.07768,-0.01511 -0.15479,-0.03022 -0.23132,-0.04536c0.91172,2.10526 2.30284,4.01534 3.99472,5.57111l0.14621,0.1086c0,0 0.59444,0.45732 0.13714,1.05176zM221.58485,200.34699c0.05704,-0.97895 0.12713,-1.9249 0.21238,-2.84921c-0.44022,0.0918 -0.88158,0.19023 -1.32605,0.29399c-0.40652,0.09489 -1.93176,0.18659 -2.16358,0.40928c-0.41171,0.39552 0.31246,1.81349 0.4266,2.2792c0.46976,1.91659 1.72666,2.70248 3.28277,3.15971c-0.26115,-1.07125 -0.41008,-2.1732 -0.43212,-3.29297zM223.80491,186.24734c0.32318,-1.22611 0.53852,-2.46982 0.80952,-3.68851c-0.52233,0.17096 -1.0492,0.34793 -1.5816,0.52931c-1.01922,1.67997 -2.29117,3.18803 -3.20485,4.93422c-0.32478,0.62071 -0.51995,1.69545 -0.85466,2.50509c0.08033,-0.06646 0.16839,-0.12835 0.2637,-0.18172c1.00566,-0.56301 2.01951,-0.97784 3.05307,-1.48122c0.32128,-0.15575 0.6464,-0.30507 0.97504,-0.44802c0.16594,-0.71092 0.34553,-1.43215 0.53979,-2.16916zM225.25584,186.62783c-0.09861,0.37563 -0.19341,0.74678 -0.28447,1.11425c1.52988,-0.54675 3.12089,-0.96629 4.74555,-1.2641c0.59089,-2.01108 1.31521,-3.97131 2.25444,-5.80062c-1.89796,0.29111 -3.78977,0.77437 -5.73072,1.36619c-0.38592,1.50633 -0.59018,3.08128 -0.98479,4.58429zM223.08456,200.3765c0.0226,1.24223 0.22397,2.46445 0.5765,3.64209c0.36364,0.0699 0.73349,0.13705 1.10479,0.20927c1.47704,0.263 3.00961,0.6035 4.5712,0.96076c-0.83658,-2.55375 -1.15464,-5.54615 -1.18118,-8.38066c-0.55885,-0.0494 -1.11674,-0.05174 -1.67134,0.0249c-1.07523,0.06792 -2.11807,0.19827 -3.15442,0.37389c-0.10059,1.02369 -0.18143,2.07436 -0.24555,3.16973zM226.3402,195.33983c0.61179,-0.07573 1.22073,-0.06996 1.82764,-0.01628c0.02885,-1.14729 0.10112,-2.24908 0.20051,-3.26254c0.26917,-1.32117 0.56312,-2.65177 0.90409,-3.96994c-1.62331,0.33823 -3.20543,0.80646 -4.71494,1.41098c-0.46245,2.08302 -0.80643,4.08512 -1.05867,6.16504c0.93297,-0.1512 1.87504,-0.26623 2.84136,-0.32727zM229.85271,192.2772c-0.09698,1.00205 -0.16881,2.10476 -0.19558,3.25652c1.06708,0.19369 2.12999,0.45093 3.19336,0.58667c1.7017,0.21724 3.41079,0.46874 5.12459,0.70246c0.15994,-1.62307 0.39315,-3.18295 0.67287,-4.62112c0.31522,-1.60693 0.65762,-3.1265 1.0585,-4.58425c-2.93765,-0.31554 -5.95236,-0.26398 -8.86929,0.18946c-0.39846,1.48865 -0.71687,2.99265 -0.98446,4.47026zM252.20274,192.14766c-0.45172,1.77694 -0.77733,3.56842 -1.07757,5.35177c0.58258,-0.0449 1.16736,-0.08526 1.75981,-0.0887c0.47336,-0.00274 0.94673,-0.00299 1.42006,-0.0075c0.36782,-0.00349 1.04239,0.52771 1.09138,0.16314c0.08423,-0.62686 -0.46859,-1.84124 -0.36256,-2.64199c0.07875,-0.59481 0.53944,-1.09073 0.2794,-1.7253c-0.04297,-0.10484 -1.80099,-0.46095 -1.93225,-0.52041c-0.4006,-0.18152 -0.78911,-0.38756 -1.17065,-0.60783c-0.00262,0.02561 -0.00515,0.05121 -0.00761,0.0768zM250.72539,191.88797c0.02239,-0.22678 0.05194,-0.45441 0.08736,-0.68279c-0.83112,-0.53524 -1.65921,-1.07765 -2.54142,-1.51251c-2.20861,-0.87416 -4.60179,-1.5087 -7.07215,-1.8823c-0.41398,1.48199 -0.76156,3.03099 -1.07882,4.67774c-0.30551,1.57075 -0.49012,3.06913 -0.57909,4.54174c2.8227,0.35861 5.65603,0.62624 8.48827,0.57138c0.52581,0.03567 1.04579,0.02974 1.56376,0.00494c0.31058,-1.90877 0.64307,-3.82611 1.1321,-5.7182zM250.75478,183.72918c-2.11303,-1.03958 -4.93187,-1.3216 -7.25379,-1.9814c-0.75144,1.49695 -1.35816,3.02184 -1.86902,4.61631c2.52868,0.39727 4.97908,1.05666 7.24811,1.95768c0.77832,0.38434 1.51572,0.84854 2.24963,1.31838c0.39167,-1.63138 0.93145,-3.28722 1.17027,-4.92864c-0.48837,-0.37777 -0.99945,-0.71385 -1.5452,-0.98234zM247.99297,199.10079c-2.83868,0.05287 -5.67994,-0.20974 -8.51048,-0.56566c-0.04817,2.65966 0.19215,5.28681 0.5684,8.16297c0.02046,0.15647 0.03999,0.31373 0.05901,0.47156c1.01416,0.07833 2.01515,0.10525 2.99567,0.06399c1.72722,-0.07269 3.31853,-0.68284 4.85366,-1.44424c0.63315,-2.15488 1.01997,-4.3915 1.38683,-6.65302c-0.45208,0.00432 -0.90326,-0.00507 -1.35306,-0.03559zM240.13389,186.16051c0.52666,-1.68322 1.15049,-3.29157 1.92379,-4.86767c-2.91321,-0.85721 -5.62892,-1.05748 -8.2987,-0.82998c-1.04085,1.79403 -1.83781,3.75149 -2.4656,5.76545c2.91993,-0.39108 5.91817,-0.40347 8.84052,-0.06779zM232.65614,197.60774c-0.98966,-0.12765 -1.99662,-0.38353 -3.00716,-0.57856c0.03801,2.95043 0.40844,6.06879 1.41938,8.5569c2.3383,0.53501 4.71895,1.05781 7.05602,1.3712c-0.42178,-2.81514 -0.46803,-5.79267 -0.27425,-8.63637c-1.73739,-0.23583 -3.46975,-0.49078 -5.19399,-0.71318z" fill="#000000" stroke="none" stroke-width="0.5" stroke-linecap="butt"/><path d="M244.01688,178.10524c-0.11819,0.60763 -0.80666,1.039 -1.48999,1.12972c-0.69653,0.09247 -1.38911,-0.16187 -1.61481,-0.18388c0,0 -1.14248,-0.25335 -1.02124,-1.49745c0.12124,-1.2441 1.36535,-1.12287 1.36535,-1.12287c0.44712,0.04357 0.89423,0.08715 1.34136,0.13072l0.43097,0.0781c0,0 1.227,0.23864 0.98836,1.46566z" fill="#8fbbbe" stroke="none" stroke-width="0.5" stroke-linecap="butt"/><path d="M247.80922,179.75593c-0.01532,0.22586 -0.59133,0.51943 -1.0472,0.50995c-0.55104,-0.01146 -0.99683,-0.37436 -0.97831,-0.64738c0.03385,-0.49886 0.53271,-0.46501 0.53271,-0.46501c0.17131,0.01162 0.3426,0.02324 0.51389,0.03487l0.51389,0.03487c0,0 0.49886,0.03385 0.46501,0.53271z" fill="#8fbbbe" stroke="none" stroke-width="0.5" stroke-linecap="butt"/><path d="M253.35796,206.64362c-7.02978,9.13775 -19.71154,11.17328 -28.32548,4.54648c-8.61394,-6.6268 -9.89814,-19.40651 -2.86836,-28.54427c7.02978,-9.13775 19.71153,-11.17329 28.32547,-4.54648c8.61394,6.6268 9.89815,19.40652 2.86837,28.54427z" fill="none" stroke="#000000" stroke-width="2.5" stroke-linecap="butt"/><path d="M221.20233,181.96902c0,0 -4.2849,10.22145 -3.62898,14.18163c2.69911,16.29611 9.21236,16.60905 9.21236,16.60905c0,0 -8.77611,-0.7297 -9.79577,-1.56763c-10.96879,-9.01374 -5.44177,-21.67969 -2.21046,-25.99171c0.61736,-0.82384 6.42286,-3.23135 6.42286,-3.23135z" fill="none" stroke="#000000" stroke-width="2.5" stroke-linecap="round"/></g><g stroke-linecap="round"><path d="M257.01255,153.45377c0,0 -0.29768,0.63178 -0.36516,1.86872c-0.13567,2.48683 -0.10137,6.65925 -0.17052,7.73797c-0.02124,0.33135 -1.41644,0.36157 -2.93568,0.58662c-1.50486,0.22292 -3.13142,0.64171 -3.6649,0.75243c-0.4151,0.08615 -1.57867,-3.48532 -2.04617,-7.91533c-0.28623,-2.71224 -0.81757,-8.40541 -0.81757,-8.40541z" fill="#000000" stroke="#000000" stroke-width="1.5"/><path d="M281.63755,139.20377c0,0 -0.39124,3.79651 -0.59078,7.85924c-0.26528,5.40102 -0.38786,11.46436 -0.71015,11.57032c-2.23991,0.73642 -8.32376,2.77328 -8.42838,2.35751c-0.0949,-0.37717 -0.53498,-0.95181 -0.75037,-1.93837c-0.5407,-2.47664 -1.02032,-6.2237 -1.02032,-6.2237z" fill="#000000" stroke="#000000" stroke-width="1.5"/><path d="M309.14448,114.75181c0,0 -6.82214,4.46664 -9.76258,7.29858c-14.40262,13.87121 -33.17984,37.34538 -33.82572,36.79506c-2.1726,-1.85115 -6.6908,-0.19157 -24.17204,-15.1374c-5.22334,-4.46577 -10.34598,-10.74439 -12.78335,-14.4726c-1.58406,-2.42297 -1.45631,-3.38364 -1.45631,-3.38364c0,0 10.03782,11.36483 19.68068,18.89947c8.00928,6.25821 14.52774,10.57028 18.26827,11.93137c0.52914,0.19254 8.82119,-13.06766 19.75752,-23.65348c8.08609,-7.82692 14.48379,-13.66103 18.80363,-16.36384c1.46196,-0.91471 5.4899,-1.91351 5.4899,-1.91351z" fill="#000000" stroke="#000000" stroke-width="0.5"/><path d="M248.13257,173.03013c0,0 9.84889,1.14948 20.16299,-2.04588c8.53355,-2.64373 30.05129,-12.91841 30.05129,-12.91841c0,0 0.80171,3.95976 0.02364,5.39855c-0.88108,1.62928 -3.33731,3.49997 -6.14744,5.62962c-12.88335,9.76362 -30.77659,7.6552 -31.23879,7.44024c-1.0709,-0.4981 -1.63741,-2.32555 -1.63741,-2.32555c0,0 -5.68059,-0.25678 -7.81027,-0.51649c-1.653,-0.20158 -3.40401,-0.66207 -3.40401,-0.66207z" fill="#000000" stroke="#000000" stroke-width="1"/><path d="M261.31115,174.71585c0,0 11.59855,-2.68145 16.74754,-4.63807c6.28839,-2.38959 18.25246,-8.66193 18.25246,-8.66193c0,0 0.58082,3.55416 -7.81793,8.05282c-10.28195,5.50736 -18.09707,6.3584 -22.76688,6.13281c-2.7049,-0.13066 -4.41519,-0.88563 -4.41519,-0.88563z" fill="#ff6666" stroke="#ff6666" stroke-width="0.5"/></g><path d="M-3.9767,363.06856v-366.13712h487.95341v366.13712z" fill="none" stroke-opacity="0.01384" stroke="#ff0000" stroke-width="0.5" stroke-linecap="butt"/></g></g></svg>