<svg version="1.1" xmlns="http://www.w3.org/2000/svg" xmlns:xlink="http://www.w3.org/1999/xlink" width="489.95341" height="368.13712" viewBox="0,0,489.95341,368.13712"><g transform="translate(4.97671,4.06856)"><g data-paper-data="{&quot;isPaintingLayer&quot;:true}" fill-rule="nonzero" stroke-linejoin="miter" stroke-miterlimit="10" stroke-dasharray="" stroke-dashoffset="0" style="mix-blend-mode: normal"><g stroke="none" stroke-width="0.5" stroke-linecap="butt"><path d="M235.70707,173.44783c1.11338,-1.94707 2.24382,-3.86824 3.3189,-5.85098c1.85865,-2.42398 4.20112,-7.15182 7.04577,-8.47465c3.71319,-1.72673 7.28914,0.99528 8.56731,4.28374c2.79554,7.19237 3.49326,13.13209 -0.66824,19.84093c-1.5211,3.40009 -3.4493,6.46577 -6.34096,8.89198c-2.10351,1.76492 -4.68715,2.88877 -6.83736,4.60307c-2.91897,2.32721 -5.44185,4.29564 -9.43884,2.95201c-2.81486,-0.94625 -4.57014,-4.79201 -6.12434,-7.10248c-2.66744,-3.82381 -6.94361,-8.20068 -7.1321,-13.05775c-0.07934,-2.04481 0.11564,-4.95762 2.28653,-6.10054c1.12599,-0.59281 2.53431,-0.24666 3.80568,-0.30028c3.48634,-0.14703 7.00553,-0.02944 10.49531,-0.04346c0,0 0.58196,-0.00234 1.02235,0.35839z" fill="#db93e6"/><path d="M257.466,178.17314c-1.64893,7.56737 -4.82065,11.04687 -10.10596,16.37944c-1.80549,1.82163 -7.38487,5.83603 -9.91874,6.55531c-2.53395,0.71931 -5.1193,1.43023 -7.54683,0.69454c-3.59886,-2.99883 -5.36979,-7.99553 -8.12287,-11.70668c-1.79134,-2.41472 -4.21212,-4.78473 -5.18005,-7.71355c-1.03751,-3.13937 0.1355,-6.15804 1.20275,-9.03495c0.01593,-0.08592 0.47368,-1.11844 1.24526,-1.2181c3.30057,-0.42635 12.54605,0.01945 16.5841,0.00323c0.50171,-1.80294 2.03415,-4.37537 2.7833,-6.03196c1.57996,-3.49376 2.6255,-5.69296 6.02659,-7.53028c1.01655,-0.54916 2.70589,-1.12371 3.81934,-1.54951c0,0 1.93326,-0.75059 2.51625,0.40359c5.84367,1.9872 7.06425,5.97933 7.22472,11.97516c0.0578,2.15971 -0.33203,6.9434 -0.52785,8.77377zM219.44589,181.45877c1.10629,3.17264 9.52615,14.8626 12.14175,17.16913c7.95673,2.15079 21.16569,-12.44097 22.79232,-19.78469c2.46744,-11.13971 -0.65979,-24.20648 -10.86311,-16.13086c-3.90635,3.09176 -5.40574,11.19963 -7.08053,11.72955c-1.70828,0.54052 -7.73993,-0.19131 -11.89315,-0.4214c-2.56756,-0.14224 -4.25062,0.23716 -4.25062,0.23716c-0.77061,1.97924 -1.58711,5.07761 -0.84664,7.2011z" fill="#000000"/><path d="M220.0588,179.02867c-4.20585,0.76926 -7.81325,2.76555 -12.23545,2.94264c-2.3801,0.09531 -4.58581,0.03639 -6.92868,-0.38455c-1.87072,-0.33611 -5.26184,-1.34955 -7.25815,-0.86515c-1.29713,0.31474 -1.06868,4.71024 -1.06872,5.45805c1.87507,7.25372 6.81813,15.60672 13.96973,18.77371c2.23982,0.99187 5.44283,2.29087 7.98554,1.62506c1.14803,-0.30061 2.14925,-1.00769 3.23681,-1.48263c1.62027,-0.70756 2.72785,-1.72129 3.95639,-2.96351c3.55263,-4.15974 10.37427,-9.18166 8.16751,-15.82304c-0.57687,-1.73612 -2.80254,-3.25109 -4.07905,-4.41307c-1.45133,-1.32111 -2.6916,-2.29202 -4.60988,-2.74298l-0.41328,0.04644c0,0 -0.35662,0.00143 -0.72277,-0.17098zM222.86968,176.53885c3.71048,1.35287 8.64004,5.24629 9.84914,8.78933c0.99839,2.92559 0.11853,7.02285 -1.19552,9.69152c-1.91705,3.89329 -4.91293,5.96881 -7.5977,9.14208c-1.53261,1.54103 -2.94986,2.78204 -4.95553,3.67908c-1.24609,0.55731 -2.42134,1.32503 -3.74601,1.6545c-7.07133,1.75879 -13.8655,-3.77394 -18.08339,-8.61852c-1.91253,-2.1967 -3.89352,-4.22268 -5.07654,-6.92378c-1.04603,-2.38834 -1.8394,-4.87247 -2.47233,-7.39493c-0.01823,-2.5274 -0.21485,-7.24957 2.76137,-8.54819c3.17598,-1.38578 8.11486,0.69669 11.25706,0.98418c2.40656,0.22019 5.88968,0.38621 8.18443,-0.36226c3.33922,-1.08914 5.97868,-2.4663 9.6148,-2.81727c0,0 1.0298,-0.09779 1.46024,0.72423z" fill="#000000"/><path d="M220.80968,179.1583l0.41404,-0.04591c1.91829,0.45096 3.16933,1.43223 4.62066,2.75334c1.27651,1.16197 3.50959,2.69054 4.08645,4.42665c2.20676,6.64138 -4.62475,11.71359 -8.17738,15.87333c-1.22854,1.24221 -2.35033,2.26693 -3.9706,2.97449c-1.08755,0.47493 -2.10081,1.1864 -3.24883,1.487c-2.54272,0.66581 -5.77558,-0.63569 -8.01539,-1.62756c-7.15159,-3.16698 -12.12283,-11.58306 -13.9979,-18.83679c0.00004,-0.74781 -0.22259,-5.15475 1.07454,-5.46949c1.9963,-0.48439 5.39461,0.52072 7.26532,0.85683c2.34287,0.42094 4.56692,0.46898 6.94702,0.37367c4.42219,-0.17708 8.07168,-2.16844 12.27754,-2.9377c0.36617,0.17241 0.72456,0.17214 0.72456,0.17214z" data-paper-data="{&quot;noHover&quot;:false,&quot;origItem&quot;:[&quot;Path&quot;,{&quot;applyMatrix&quot;:true,&quot;segments&quot;:[[[429.90791,387.32211],[0.73093,0.34776],[-8.41783,1.50473]],[[405.41357,393.10906],[8.84574,-0.31865],[-4.76092,0.1715]],[[391.55941,392.2843],[4.68232,0.8607],[-3.73869,-0.68724]],[[377.05018,390.4957],[3.99646,-0.95274],[-2.59677,0.61906]],[[374.86892,401.40313],[0.00607,-1.4956],[3.69184,14.52239]],[[402.65734,439.06246],[-14.27763,-6.39137],[4.47163,2.00172]],[[418.61523,442.3767],[-5.09074,1.31118],[2.29846,-0.59199]],[[425.1007,439.43747],[-2.17891,0.94112],[3.24619,-1.4021]],[[433.03722,433.5423],[-2.46703,2.47453],[7.13862,-8.29088]],[[449.49922,401.96208],[4.36015,13.30038],[-1.13978,-3.47683]],[[441.37664,393.10325],[2.54365,2.33419],[-2.89202,-2.65387]],[[432.17899,387.5803],[3.83292,0.91732],[0,0]],[431.35207,387.66987]],&quot;closed&quot;:true}]}" fill="#f89587"/></g><g><path d="M188.22002,258.74125c-0.35429,0.52072 -1.03916,0.52072 -1.03916,0.52072c-6.5423,-0.0039 -21.30379,-2.58572 -18.47328,-12.55161c0.61854,-2.17781 2.96734,-3.77008 4.46607,-5.30715c3.34754,-3.43071 7.69077,-5.80993 10.97637,-9.21219c1.69332,-1.75344 3.10494,-3.86931 4.8273,-5.6321c1.1097,-1.13574 3.79886,-2.01826 4.56493,-2.97221c0.64437,-0.8024 -0.24136,-3.6467 0.13033,-4.60283c0.45308,-1.16548 1.63359,-1.86826 2.44079,-2.81108c4.66411,-3.97744 12.54645,-6.10187 17.57865,-2.14508c2.62582,2.06467 4.66814,4.79609 6.82736,7.33124c0.40611,0.47681 2.75772,3.16183 2.83317,2.87295c0.37238,-2.94869 1.40981,-4.74861 3.26195,-6.95953c0.89205,-1.06486 1.59862,-2.73746 3.29946,-2.82588c2.35183,-0.12226 4.40413,4.27926 4.00548,6.1721c-0.58224,2.76452 -3.28896,4.9381 -5.05483,6.85864c-3.07273,3.34187 -6.44702,6.37365 -9.43159,9.80075c-6.85163,5.42699 -14.05573,10.43915 -20.85153,15.91961c-3.03195,2.44511 -5.78778,5.04619 -9.76766,5.54534l-0.46992,0.00782c0,0 -0.04748,0 -0.12391,-0.00951z" fill="#ff2d32" stroke="none" stroke-width="0.5" stroke-linecap="butt"/><path d="M249.885,223.66533c1.96085,0.20892 3.9181,3.27123 5.82625,4.6318c1.03222,0.736 2.63774,0.00971 2.88481,0.25813c-0.19492,-0.48337 -0.3844,-1.03604 -0.48721,-1.35085c-0.99717,-3.05332 -2.08085,-4.16916 0.97785,-5.88444c3.31562,-0.85011 8.54105,-5.75373 12.12818,-3.634c1.72278,1.01803 2.25291,5.35223 3.27692,7.1096c2.25964,3.87792 5.99801,6.53366 9.78777,8.5643c1.64366,0.88219 3.8521,2.61983 5.86783,2.1067c0.8335,-0.21218 1.32132,-1.139 2.06366,-1.58186c1.97066,-1.17563 4.57635,-1.86521 6.87482,-1.34985c1.66929,0.3743 3.39271,2.02018 4.49087,3.28665c0.74932,0.86418 0.9912,2.07211 2.21726,2.35139c2.87469,0.65483 6.93675,-1.11001 8.35098,2.89196c0.07524,0.21291 0.05945,3.05246 0.05945,3.45727c-0.02033,2.82557 -0.83823,8.60068 -3.06496,10.48692c-2.28976,1.93964 -5.88024,2.15387 -8.66439,2.96974c-8.40172,2.46204 -17.08097,4.03908 -25.23613,7.26369c-2.30425,0.91112 -4.66402,1.74361 -6.93393,2.7408c-0.61771,0.27137 -4.58058,2.29556 -5.01248,2.28721c-1.23177,-0.02384 -3.95477,-2.09577 -4.9736,-2.80593c-2.67046,-1.86141 -5.32412,-3.76253 -6.65165,-6.91414c-0.98479,-2.33794 -0.71819,-4.76496 -0.93426,-7.22298c-0.24127,-2.74462 -1.67223,-5.77929 -2.72347,-8.28913c-2.0485,-4.62286 -7.51413,-7.75056 -8.39769,-12.75085c-0.41722,-2.36113 -0.55639,-9.52368 1.90414,-11.00481c2.06798,-1.24484 4.82066,0.79744 6.36896,2.38268z" fill="#ff2d32" stroke="none" stroke-width="0.5" stroke-linecap="butt"/><path d="M238.1054,171.30267c-0.01069,-0.09189 -0.0107,-0.1488 -0.0107,-0.1488l0.2131,-1.60697c5.77315,-9.7115 21.86073,-11.19983 31.59168,-8.4585c3.72317,1.04887 7.23433,3.37765 10.69101,5.09858c1.89736,0.9466 4.08425,1.32609 5.81583,2.56255c1.27523,0.9106 1.65641,2.69767 2.43523,4.0767c1.49562,2.64824 2.56549,5.53202 4.06429,8.16246c1.21852,2.13855 5.65076,6.83224 1.50332,8.95681c-2.20894,1.13156 -4.03927,-1.75967 -5.73025,-2.44131c-4.29382,-1.73086 -8.50304,-2.74846 -13.07657,-2.75741c-2.01417,0.34429 -4.41075,0.00682 -6.14819,1.28883c-1.03221,0.76164 -1.28406,2.2622 -1.75646,3.47299c-1.99319,5.10856 0.01588,15.11742 -5.32834,18.40312c-0.86325,0.53073 -2.9405,0.00835 -3.93083,-0.05608c-3.87251,-0.25196 -7.14399,-0.47358 -10.9133,-1.44822c-9.95717,-0.76774 -21.22426,1.08402 -30.79598,-2.30765c-0.39789,-0.14099 -4.31512,-1.76972 -4.83942,-2.56129c-3.11832,-4.70792 1.15866,-8.34366 4.84913,-10.25825c3.15456,-1.94116 6.50813,-3.81554 9.86704,-5.36669c1.2726,-0.58768 4.07971,-1.24275 5.14765,-2.34821c1.35378,-1.40134 1.77982,-4.08594 2.4612,-5.82633c0.9409,-2.40324 2.22221,-4.5637 3.89053,-6.43632z" fill="#feebf7" stroke="none" stroke-width="0.5" stroke-linecap="butt"/><path d="M270.1675,216.60631c-4.0558,-2.08248 -8.92068,-4.36742 -13.41295,-5.12093c-2.94386,-0.49379 -5.94419,-0.53293 -8.90131,-1.0787c-3.26421,-0.60243 -6.5279,-1.28056 -9.82071,-1.68005c0.09951,0.40258 0.19802,0.80431 0.29598,1.20474c0.10408,0.12569 0.19859,0.28264 0.27781,0.47764c0.30941,0.76159 0.05288,1.28417 -0.25024,1.6045c-0.16376,0.26414 -0.44284,0.49951 -0.90984,0.61925c-0.12195,0.03128 -0.23623,0.04939 -0.34324,0.05637c-2.71386,1.0246 -7.23513,2.27969 -9.82285,1.88333c-4.74686,-0.72708 -10.11801,-6.49947 -13.47096,-9.93818l-0.56616,-0.74849c0,0 -0.62695,-0.85731 -0.13393,-1.67613c-0.261,-1.50196 1.20514,-1.77535 1.20514,-1.77535c2.56218,-0.47776 4.98957,-1.79895 7.5078,-2.26302c0.3466,-0.2904 0.75235,-0.36606 0.75235,-0.36606c6.06356,-1.13051 12.29955,-2.9238 18.57675,-1.90647c2.63531,0.42709 6.11506,1.97609 8.62166,3.02587c0.97243,0.40725 1.66207,1.51634 2.70289,1.66132c0.67312,0.09376 1.36888,-0.49004 2.01862,-0.28676c1.09992,0.34412 1.96436,1.22678 2.94655,1.84016c4.53783,3.38328 8.99917,6.48968 13.18516,10.28392l0.73655,0.12506c3.00329,1.54636 5.82418,1.15262 9.15799,1.15262c5.89589,0 13.02407,1.31162 18.53513,-1.09636c0.2781,-0.26516 0.5643,-0.37118 0.82867,-0.38972c0.31607,-0.12531 1.3501,-0.42536 1.912,0.72719c0.08663,0.17769 0.13959,0.34386 0.16616,0.49854c0.91738,0.79601 1.83483,1.59193 2.75235,2.38778l1.05444,1.66769c0.31401,0.37526 0.37535,0.75548 0.3323,1.08094c-0.00994,0.32636 -0.13038,0.68861 -0.49552,1.00418c-4.29157,4.87672 -9.06505,9.38708 -13.83808,13.74253l-1.01849,0.71404c0,0 -0.07965,0.05446 -0.21207,0.11515c-0.13159,0.06255 -0.22396,0.08838 -0.22396,0.08838c-2.19666,0.60581 -5.36888,1.26375 -7.56179,0.20944c-1.57321,-0.75636 -1.8617,-1.69034 -3.04986,-2.70503c-4.66653,-3.98519 -7.54729,-9.14928 -9.26128,-15.0376c-0.16714,-0.04749 -0.27307,-0.10181 -0.27307,-0.10181z" fill="#0f1b82" stroke="none" stroke-width="0.5" stroke-linecap="butt"/><path d="M201.32481,213.0294c-1.12538,1.00989 -2.11009,-0.14427 -2.11009,-0.14427c-2.93024,-3.58083 -1.92885,-8.26208 2.93776,-9.37191c2.7879,-0.63578 6.19415,-0.06314 9.09848,-0.46112l1.48187,-0.0123c0.63614,-1.16037 1.5938,-1.04105 1.5938,-1.04105c5.10475,2.29391 9.04187,5.13867 13.20282,8.86837l0.78446,1.06776c0.33652,0.30273 0.44026,0.66685 0.44722,0.98778c0.04099,0.31099 -0.0031,0.67755 -0.27266,1.0235c-1.25251,2.55756 -2.50728,4.94667 -3.27666,7.70517c0.01655,0.27982 -0.0435,0.59448 -0.27112,0.89519c-0.15086,0.25146 -0.39238,0.4855 -0.779,0.59041c-0.37331,0.14711 -0.70273,0.10239 -0.96858,-0.01087c-0.43453,-0.13064 -0.67873,-0.42786 -0.81597,-0.72067c-1.46882,-2.13343 -2.68965,-4.83924 -4.46191,-6.69582c-3.99023,-4.18009 -11.34382,-5.9234 -16.38193,-2.89645c-0.05964,0.07251 -0.12876,0.14476 -0.20847,0.2163z" fill="#0066cc" stroke="none" stroke-width="0.5" stroke-linecap="butt"/><path d="M265.28201,206.17893l12.53265,-1.89878l10.96607,8.17933l8.11773,-2.92118l3.98766,4.08966c0,0 -6.78729,13.21214 -11.31444,13.7925c-4.93248,0.63233 -18.16577,-10.14101 -18.16577,-10.14101l-15.38097,3.79754l3.56041,9.93203l-6.12391,-5.84237l-7.12082,-3.21331l-3.84525,0.14606l-4.69974,-7.15691l-7.26324,-8.32539c0,0 3.52365,-1.42415 7.97217,-1.12001c2.13118,0.14571 7.94493,0.59873 11.87686,1.52053c7.67738,1.79989 14.61575,4.85761 14.61575,4.85761z" fill="#0066cc" stroke="#0066cc" stroke-width="0.5" stroke-linecap="round"/><path d="M273.68457,186.18338l1.06752,0.16191c2.83033,1.46252 6.68883,1.46222 9.31682,3.04085c0.80294,0.48231 1.70803,1.0937 2.11867,1.93897c1.15473,0.21314 1.15473,1.50398 1.15473,1.50398v1.84035c-0.02128,4.96277 3.07631,9.26509 6.68027,12.38572c0.27183,0.15262 0.53466,0.41161 0.6439,0.85114c0.10152,0.27684 0.13704,0.61767 -0.01777,0.99248c-0.11503,0.38958 -0.35508,0.6281 -0.60588,0.77412c-0.35939,0.26676 -0.72412,0.29249 -1.02878,0.23053h-0.58747c-0.72971,0 -1.44182,-0.01413 -2.14016,-0.05423c0.02906,0.38615 0.04518,0.77871 0.04664,1.17889c0,0 0,1.53362 -1.49537,1.53362c-1.49537,0 -1.49537,-1.53362 -1.49537,-1.53362c0.00225,-0.52317 -0.02412,-1.04493 -0.07486,-1.56511c-1.41295,-0.30275 -2.78944,-0.80102 -4.16611,-1.60778c-2.17826,-1.27651 -4.28637,-3.86096 -6.89221,-4.31535c-3.20862,-0.55949 -5.95726,1.59871 -9.00281,2.20609c-0.14467,0.04314 -0.31036,0.06784 -0.50014,0.06784c-0.45778,0 -0.77543,-0.14372 -0.99583,-0.34318c-0.22573,-0.19308 -0.41254,-0.4932 -0.48216,-0.95724c-0.02499,-0.16664 -0.02939,-0.31779 -0.01739,-0.45482v-0.59631c0.00903,-6.69184 1.36158,-12.94408 6.77902,-17.17658c0,0 0.87327,-0.67171 1.68717,-0.10213c0.00498,-0.00011 0.00759,-0.00011 0.00759,-0.00011z" fill="#fddfbd" stroke="none" stroke-width="0.5" stroke-linecap="butt"/><path d="M270.78759,185.46117l1.08569,-1.89105c6.21361,-4.16942 19.72064,1.35239 17.63581,9.90595c-0.02238,0.20699 -0.09451,0.43397 -0.23801,0.67927c-0.21747,0.37172 -0.47593,0.57532 -0.73482,0.67616c-0.2583,0.10243 -0.58324,0.12809 -0.98723,0.0006c-0.24806,-0.07828 0.77864,0.94889 0.63111,0.82245c0,0 -4.53101,-4.81808 -5.918,-5.79978c-3.77062,-2.66882 -8.42967,-1.42461 -12.42383,0.27196c0,0 -1.38274,0.58392 -1.95211,-0.83418c-0.56936,-1.4181 0.81337,-2.00203 0.81337,-2.00203c0.65162,-0.27373 1.31666,-0.52426 1.99084,-0.74531c-0.13737,-0.55487 0.09716,-1.08404 0.09716,-1.08404z" fill="#f89587" stroke="none" stroke-width="0.5" stroke-linecap="butt"/><path d="M240.10524,168.8608l6.97841,-9.63992l4.41491,-4.6739l6.836,-3.94361l6.1239,-2.33696l7.97532,2.48301l5.2694,4.81996l9.5419,-2.04483l6.26632,2.62907l0.8545,7.59509l-5.55424,11.10051c0,0 -8.52782,-10.76704 -28.76165,-11.30812c-11.98032,-0.32037 -22.08102,9.26329 -22.08102,9.26329z" fill="#db93e6" stroke="#db93e6" stroke-width="0.5" stroke-linecap="round"/><path d="M265.83513,185.98218c0,0 0.95672,-0.64158 1.62791,-0.97034c0.57715,-0.28271 1.75194,-0.82528 2.89369,-1.34747c1.4776,-0.6758 2.01374,0.04578 2.01374,0.04578l-5.09534,10.22416c0,0 -0.71481,-1.81297 -0.93663,-3.28483c-0.49464,-3.28213 -0.50336,-4.66729 -0.50336,-4.66729z" fill="#db93e6" stroke="#db93e6" stroke-width="0.5" stroke-linecap="round"/><path d="M185.68549,258.32475c0,0 -2.09222,-2.43073 -0.34987,-8.01694c0.38579,-1.23689 1.88106,-3.25152 3.01933,-4.54862c1.8535,-2.11213 7.55382,-7.43795 12.99585,-12.30781c8.45799,-7.56871 17.23289,-15.00085 17.23289,-15.00085l4.81842,5.62329l0.3323,3.57846c0,0 2.03675,-1.03075 3.37223,-2.12945c4.59203,-3.77786 6.59692,-6.90189 6.59692,-6.90189l-3.98766,-3.74886l1.66153,-1.19282l5.31688,1.02242l5.48303,6.9865l-0.49846,12.9506l4.98458,3.57846l-1.32922,2.55604l-8.80608,1.87443l-9.803,0.17041l-2.49229,1.53362l-6.6461,6.3049l-8.30762,4.60087l-14.95373,3.40805l-13.12605,0.17041z" fill="#ab164a" stroke="#ab164a" stroke-width="0.5" stroke-linecap="round"/><path d="M248.85481,233.57431c0.2269,0.05235 0.40957,0.1774 0.54504,0.30463c0.12021,0.10466 0.2208,0.23231 0.29533,0.37631l0.56011,1.03398c0.21434,0.29494 0.37528,0.75132 0.05122,1.3351c-0.01238,0.02283 -0.02543,0.04523 -0.03912,0.06717c-0.38146,0.62509 -0.90579,0.65213 -1.26916,0.57073c-0.16089,-0.0292 -0.31113,-0.09006 -0.44435,-0.17608c-0.95155,-0.59153 -1.67638,-1.15944 -2.36092,-1.8542l-0.54734,-0.1684c-0.52744,-0.14878 -0.91488,-0.64417 -0.91488,-1.23237c0,-0.0962 0.01037,-0.18991 0.03001,-0.28004l-0.2554,-0.32741c0,0 -0.02968,-0.03804 -0.0702,-0.10522c-0.1386,-0.20953 -0.27932,-0.5263 -0.2152,-0.89494c0.03079,-0.23486 0.14161,-0.48578 0.39592,-0.72272c0.24201,-0.25011 0.49132,-0.3526 0.72146,-0.3738c0.14347,-0.0196 0.27757,-0.00658 0.39952,0.02569c0.038,-0.00358 0.0765,-0.00541 0.11541,-0.00541c0.20793,0 0.40395,0.05222 0.5763,0.14458c0.59194,0.09918 1.04369,0.62611 1.04369,1.26124c0,0.02741 -0.00084,0.05461 -0.0025,0.08159c0.06497,-0.00242 0.13034,-0.00191 0.19612,0.00184c0.50372,0.02875 0.83165,0.52207 1.18895,0.93772z" fill="#000000" stroke="none" stroke-width="0.5" stroke-linecap="butt"/><path d="M233.79102,224.95376c0.78561,-1.66712 2.26644,-3.3612 3.16966,-2.92406c0.90322,0.43713 0.81372,2.05089 0.04322,3.72541c-0.77051,1.67451 -2.40555,3.1056 -3.30877,2.66845c-0.90323,-0.43713 -1.23105,-0.65398 0.09588,-3.4698z" fill="#000000" stroke="none" stroke-width="0" stroke-linecap="butt"/><path d="M245.75882,181.28188c-3.07512,1.1104 -9.11439,4.71684 -8.67855,7.40828c5.17129,0.57341 8.47229,-0.57797 13.05195,-2.70817c-0.17068,-0.19377 -3.24381,-3.60683 -4.37341,-4.70011zM252.99167,184.96019c1.60768,-0.71161 9.86953,-4.59173 8.5122,-5.7633c-1.96179,-1.69329 -11.11521,0.38895 -12.07274,0.61977c0.80935,0.84497 3.5227,4.81243 3.56054,5.14353zM256.76795,176.09072c2.85984,0.00649 8.66764,-0.38526 7.67985,4.371c-0.39087,1.88206 -6.31128,5.4849 -7.78845,6.1609c-4.30557,1.97037 -12.99873,7.45447 -21.65371,5.18357c-1.4081,-0.36946 -1.92459,-3.6462 0.15997,-6.51518c2.43005,-3.34449 8.22952,-6.42203 10.49248,-7.27148c4.40552,-1.65372 9.3234,-1.92881 11.10986,-1.92881z" fill="#ff0000" stroke="none" stroke-width="0.5" stroke-linecap="butt"/><path d="M190.92538,229.50761c-0.17541,0.14589 -0.35035,0.30141 -0.5253,0.46656c1.40774,0.34001 2.81423,1.01756 4.21757,1.87415c1.0263,0.62645 3.58292,2.05931 3.95874,3.1758c0.81613,2.42458 -1.36307,4.55582 -3.33637,5.10774c-0.87782,0.24552 -3.32421,-1.11234 -4.08321,-1.52232c-2.44863,-1.32265 -4.16162,-2.83141 -6.80582,-3.83977c0,0 -0.08227,-0.03163 -0.19942,-0.10002c-0.17269,-0.05654 -0.35431,-0.15483 -0.54196,-0.3088c-1.16769,-0.95805 -0.23354,-2.1556 -0.23354,-2.1556l0.97476,-1.15036c0.77835,-0.52622 1.55714,-0.87979 2.33605,-1.08755c0.06808,-0.51347 0.39458,-0.89017 0.39458,-0.89017c0.5441,-0.62621 1.10476,-1.17996 1.67978,-1.66311c0.25347,-0.96525 1.11655,-1.06373 1.46723,-1.06262c3.97668,-2.44131 8.50805,-1.82535 12.94427,1.29049c1.14828,0.80651 3.35967,1.01703 3.42931,2.44258c0.17181,3.51719 -5.01272,4.35579 -7.16691,3.47806c-0.81787,-0.33324 -1.34208,-1.17578 -2.0797,-1.66805c-1.85177,-1.2358 -4.12478,-1.77663 -6.22697,-2.36378z" fill="#feebf7" stroke="none" stroke-width="0.5" stroke-linecap="butt"/><path d="M198.66824,224.17436c-0.17034,-0.09423 -0.34106,-0.23781 -0.50462,-0.44749c-0.93416,-1.19756 0.23354,-2.15561 0.23354,-2.15561l1.59978,-1.00829c3.65612,-0.41115 7.21359,-0.24145 10.77991,0.70626c1.03106,0.274 2.32226,0.14049 3.06618,0.92226c1.86465,1.95951 0.53371,4.27922 -1.31188,5.23185c-1.23606,0.63802 -4.11058,-0.285 -5.16701,-0.54557c-2.51412,-0.62013 -4.8237,-1.06599 -7.38755,-1.39436c0,0 -1.21228,-0.15542 -1.30836,-1.30906z" fill="#feebf7" stroke="none" stroke-width="0.5" stroke-linecap="butt"/><path d="M168.99877,248.16664c0.39969,0.25962 0.59952,0.66953 0.59952,0.66953l0.27134,0.62314c0.34394,1.2957 0.4534,3.46762 1.25195,4.59949c1.10103,1.56061 3.77629,1.68146 5.38173,2.17474c2.23817,0.68768 4.31187,1.44726 6.51626,2.22703c2.20208,0.77895 4.99618,0.55795 7.02815,1.79709c3.60213,2.19665 3.21738,7.27303 -0.4456,9.25514c-1.91591,1.03674 -5.62368,0.28774 -7.78457,0.28556c-3.22525,-0.30325 -5.98825,-1.41748 -9.04505,-2.46276c-0.82017,-0.28047 -3.95625,-1.30739 -4.52282,-1.72107c-5.87552,-4.29003 -7.21775,-14.9421 -1.38456,-19.53463c0,0 1.1963,-0.92017 2.09352,0.30672c0.55525,0.75928 0.30871,1.40108 0.04014,1.78002z" fill="#feebf7" stroke="none" stroke-width="0.5" stroke-linecap="butt"/><path d="M296.42487,237.36144l0.16616,0.1704c1.86118,1.95948 2.22793,3.11784 2.26566,5.85571c0,0 0,0.26139 -0.10522,0.56835c0.43276,0.07586 0.86294,0.16524 1.29772,0.27292l0.05025,-0.3092l1.96958,0.33666c0.72079,0.10981 1.27379,0.74712 1.27379,1.5169c0,0.46333 -0.20034,0.87866 -0.51702,1.15988l-1.32286,1.18711l-0.09162,-0.10738l-0.23175,0.32871c-1.83871,0.42532 -3.43027,0.82934 -5.31361,0.83974c-2.23843,-0.01086 -4.04817,0.78928 -6.20507,1.19937c-4.68084,0.88994 -9.37875,0.32958 -13.9453,2.11525c-2.67623,1.04649 -7.80713,4.26908 -10.795,2.63843c-2.54632,-1.38968 -1.78816,-3.01736 -1.20497,-4.92399c0.32972,-1.07793 0.965,-1.64011 0.57574,-1.85556c-0.23979,0.02095 -0.51622,-0.02686 -0.82929,-0.1874c-0.41328,-0.21193 -0.63501,-0.48933 -0.7441,-0.77151c-0.11742,-0.27866 -0.1519,-0.63561 -0.00578,-1.08516c0.06849,-0.21072 0.15681,-0.38075 0.25779,-0.51744c0.00361,-0.67314 0.00562,-2.18199 -0.04791,-2.31377c-0.45651,-1.12379 -2.04442,-1.63423 -2.24644,-2.83389c-0.43368,-2.57532 1.82943,-4.10436 3.4006,-5.48042c1.80899,-1.15709 3.54864,-1.60503 5.22156,-1.54845c0.0671,-0.24756 0.21635,-0.5059 0.49441,-0.75543c1.12539,-1.00989 2.11009,0.14427 2.11009,0.14427c0.47092,0.55455 0.94958,1.11666 1.43531,1.6828c2.92245,1.41028 5.61943,3.9878 8.10809,6.3965c1.07671,1.04211 2.48416,3.00948 3.814,3.59356c0.3114,0.13677 0.67659,-0.04573 1.01222,-0.09277c1.52477,-0.21367 3.0814,-0.43059 4.08716,-1.79012c1.05066,-1.42022 0.72129,-3.80938 2.27406,-4.90677c2.61203,-1.84599 3.24552,-1.86713 3.52135,-0.74107c0.16993,0.11078 0.27038,0.2138 0.27038,0.2138z" fill="#feebf7" stroke="none" stroke-width="0.5" stroke-linecap="butt"/><path d="M251.66937,252.41888c1.49537,0 1.49537,1.53362 1.49537,1.53362c0,0.62481 0,1.59042 0,2.21523c-0.00102,1.6872 -0.20691,3.88341 0.26601,5.51252c0.9263,3.19093 4.26803,5.27491 6.93352,6.77531c1.90189,1.07057 3.79978,2.93372 5.96769,3.43782c4.94573,1.15001 11.66796,0.56632 16.61593,-0.36021c5.20224,-1.14025 9.19361,-3.77696 14.10614,-5.57361c5.3806,-1.96783 11.04232,-2.9658 15.65453,-6.72807c2.43114,-1.98312 3.95152,-4.43175 6.024,-6.53585l-0.33036,-0.3388l1.49537,-1.53362l0.42846,0.43941c0.35614,-0.27897 0.7318,-0.54627 1.13165,-0.79933l0.50504,1.341l0.48019,-0.04924l0.16616,1.70402l-0.02228,0.00228l0.02783,0.07392c-0.00312,0.59914 -0.00623,1.19826 -0.00934,1.7974c-0.10173,0.42636 -1.02027,4.36363 -1.17981,4.65789c-1.33172,2.45639 -4.4883,4.03555 -6.46914,5.85585c-9.76046,8.96943 -23.07384,14.51536 -36.20411,14.51846c-7.39523,-0.0002 -16.72911,-0.16406 -23.24544,-4.50776c-6.12748,-4.08451 -8.36378,-13.04694 -6.53461,-20.09145c-0.02363,-0.05472 -0.04422,-0.11111 -0.06157,-0.16896l-0.13805,-0.42475l-0.08651,-0.00886l0.0193,-0.19793l-0.28229,-0.86852l0.01652,-0.00564l-0.02909,-0.03491c-0.637,-2.41491 -1.65308,-4.64139 -2.18854,-7.09823c0,0 -0.3244,-1.4971 1.13537,-1.82979c1.45976,-0.33268 1.78416,1.16441 1.78416,1.16441c0.44397,2.06222 1.24749,3.95365 1.86219,5.94443c0.11343,0.05768 0.21869,0.1297 0.31356,0.21375c0.10705,-0.02056 0.22412,-0.0318 0.35215,-0.0318z" fill="#feebf7" stroke="none" stroke-width="0.5" stroke-linecap="butt"/><path d="M278.25375,231.11857l3.1569,1.70403c0,0 2.35661,1.14801 3.49082,1.70054c1.07833,0.52531 3.15529,1.5371 3.15529,1.5371l4.15382,-3.91927l5.15073,2.21523c0,0 -0.06276,1.4085 -1.17652,3.29663c-2.23902,3.79573 -6.70429,9.52985 -9.29677,9.65608c-2.20593,0.10743 -14.44959,-13.46391 -14.44959,-13.46391l-1.82768,-0.34081z" fill="#db93e6" stroke="#db93e6" stroke-width="0.5" stroke-linecap="round"/><path d="M314.42271,269.09389l-0.79824,0.65399c-0.43617,0.37752 -0.87233,0.75503 -1.3085,1.13255c-6.53212,3.03196 -13.29729,5.19397 -20.032,7.62564c-5.05389,1.82479 -9.72911,3.37966 -14.65391,2.18262l-0.06423,0.42819l-2.14086,-0.3378c-0.33707,-0.04726 -0.63121,-0.23274 -0.82633,-0.49894c-3.06044,0.01551 -6.51034,0.44523 -9.50235,-0.22652c-6.61519,-1.48521 -13.5384,-6.82928 -16.84238,-12.87066c0,0 -0.60518,-1.11718 0.48415,-1.73785c1.08932,-0.62067 1.69451,0.49653 1.69451,0.49653c2.89876,5.41181 9.29428,10.26421 15.16995,11.60921c2.8643,0.65568 6.24449,0.17282 9.16206,0.17282c4.81772,0 9.09836,-1.63551 13.73468,-2.77576c1.3814,-0.33974 2.82455,-0.40224 4.23306,-0.58065c1.00502,-0.28884 2.02265,-0.57018 3.06025,-0.83403c6.21981,-2.85725 13.62144,-4.98018 19.09468,-9.18372c2.21717,-1.70282 4.14784,-3.89072 6.25368,-5.74406c0,0 0.94614,-0.83173 1.75712,0.13862c0.81098,0.97034 -0.13517,1.80207 -0.13517,1.80207c-0.29315,0.25737 -0.58292,0.52092 -0.87051,0.78857c0.04361,0.57602 -0.38854,1.01921 -0.38854,1.01921l-0.53173,0.52075c-1.45577,2.06213 -3.28919,3.26815 -5.45813,4.48547c-0.21743,0.12173 -0.43629,0.24431 -0.65651,0.36762c0.27034,0.78765 -0.43473,1.36614 -0.43473,1.36614z" fill="#db93e6" stroke="none" stroke-width="0.5" stroke-linecap="butt"/><path d="M198.89278,236.91066l0.52358,0.73073c0.45609,0.83673 1.52288,1.34638 1.699,2.28781c0.02562,0.13695 0.04009,0.27437 0.04571,0.41214l0.07138,-0.00915l0.16371,1.34322c0.00795,0.05834 0.01206,0.11793 0.01206,0.17851c0,0.70583 -0.55791,1.27802 -1.24614,1.27802c-0.28508,0 -0.54778,-0.09817 -0.75776,-0.26335l-1.2987,-0.99894c-2.94326,-2.02213 -4.60166,-2.69858 -1.23359,-5.5984c0,0 0.95731,-0.81817 1.75507,0.16363c0.13342,0.1642 0.21774,0.32381 0.26567,0.47578z" fill="#db93e6" stroke="none" stroke-width="0.5" stroke-linecap="butt"/><path d="M217.5751,229.37391c-0.95731,0.81817 -1.75508,-0.16363 -1.75508,-0.16363l-0.61811,-0.81586c-1.02075,-0.40859 -4.20998,-0.62771 -4.55518,-1.88607c-1.24406,-4.53496 3.58857,-2.60635 4.96339,-1.75605c0,0 0.814,0.52176 0.56665,1.38211c0.18975,0.07029 0.36427,0.14149 0.51449,0.21054l1.04341,1.22897c0,0 0.79776,0.9818 -0.15956,1.79996z" fill="#db93e6" stroke="none" stroke-width="0.5" stroke-linecap="butt"/><path d="M208.78481,230.92046c2.57084,1.63388 3.21895,6.26036 -0.41844,7.24804c-2.04007,0.55396 -5.4447,-2.47758 -5.94401,-4.11175c-0.79846,-2.61325 3.5463,-4.84287 5.13834,-5.21382c0,0 1.22195,-0.25065 1.46634,1.00256c0.09837,0.50438 -0.0408,0.84637 -0.24224,1.07497z" fill="#db93e6" stroke="none" stroke-width="0.5" stroke-linecap="butt"/><path d="M190.28085,260.02661l0.97166,-0.1908c5.55349,-0.46232 10.84095,-3.00813 16.11295,-4.69352c2.23217,-1.01718 4.84696,-1.39773 6.91258,-2.77753c2.58588,-1.72733 5.31533,-3.8981 7.64461,-6.00556c0.85036,-0.76938 2.23416,-2.53899 3.01773,-2.95959c0.24783,-0.13303 3.65278,-0.09728 3.79993,-0.09728c2.83024,0 5.61474,-0.04026 8.42192,-0.4915c2.48564,-0.39955 3.55463,-2.52018 6.12208,-2.91409c2.01844,0.08913 3.59107,-0.50632 4.29997,2.27502c0.37187,1.459 -1.67384,3.12652 -2.02281,4.44664c-0.15063,0.56984 0.01566,1.22722 -0.24582,1.75322c-0.30109,0.60566 -0.85283,1.05121 -1.36367,1.48445c-3.22826,2.73782 -8.27858,3.28777 -12.2558,3.83371c-1.08275,0.14863 -2.21032,-0.28435 -3.27694,-0.04242c-1.13028,0.25638 -1.85844,1.41887 -2.83014,2.06412c-1.5818,1.0504 -3.35429,1.72136 -4.97162,2.71785c-8.67721,6.36623 -17.79608,10.36831 -28.50095,10.43261c-0.23191,0.04289 -0.45218,0.00108 -0.62245,-0.0566c-0.17197,-0.04863 -0.37661,-0.13846 -0.54586,-0.3044l-0.75115,-0.51408c-0.94194,-0.60713 -2.35776,-0.73177 -2.87217,-1.74344c-1.05558,-2.07599 0.37571,-3.70045 1.95614,-4.85656c-0.1277,-1.12897 0.99979,-1.36024 0.99979,-1.36024z" fill="#db93e6" stroke="none" stroke-width="0.5" stroke-linecap="butt"/><path d="M306.81068,256.1095c0,0 3.74169,-5.54813 4.71873,-8.55422c0.89963,-2.76792 0.26585,-8.48605 0.26585,-8.48605c0,0 4.92128,2.17196 5.81628,3.58704c1.4681,2.32121 2.15904,9.02275 2.15904,9.02275l-3.8215,6.3049l-19.606,9.71295l-20.10446,4.60087l-11.96298,-1.02242l-6.47995,-4.43046c0,0 -2.56891,-2.96037 -3.60104,-4.42364c-0.77839,-1.10353 -1.71584,-5.11892 -1.71584,-5.11892c0,0 2.58493,3.96229 3.94535,5.33015c0.92917,0.93426 3.67719,2.82583 4.70412,3.45671c0.2168,0.13318 1.57726,-2.77362 8.43049,-5.79999c3.66096,-1.61667 9.48305,-3.60827 16.21444,-4.848c13.76908,-2.53587 21.03748,0.66831 21.03748,0.66831z" fill="#ab164a" stroke="#ab164a" stroke-width="0.5" stroke-linecap="round"/><path d="M258.62645,230.54913l3.8215,5.45288l-2.49229,2.38563c0,0 -2.8164,-3.02445 -5.43263,-5.07449c-1.28526,-1.00711 -9.35495,-6.51288 -9.35495,-6.51288l3.1569,-3.74886z" fill="#ab164a" stroke="#ab164a" stroke-width="0.5" stroke-linecap="round"/><path d="M272.77579,224.03409l0.58746,-0.45119c1.42757,1.71986 3.79847,5.19751 3.93499,7.53967c0.06976,1.19684 0.48624,-0.44449 -0.18292,0.4658c-0.06554,0.08915 -3.70189,0.46407 -3.78959,0.53956c-0.79765,0.68649 -0.00994,0.85918 -0.96603,0.4361c-2.22243,-0.98344 -3.02333,-1.97451 -3.18222,-4.54125c-0.14629,-2.36319 1.84636,-4.38736 1.82735,-6.8458c0,0 0,-1.27802 1.24614,-1.27802c1.24614,0 -1.45977,0.40166 -1.45977,0.40166c-0.0049,0.79801 2.36298,2.68282 1.98461,3.73346z" fill="#ab164a" stroke="none" stroke-width="0.5" stroke-linecap="butt"/><path d="M306.0332,221.1994c0.28418,-0.25268 0.75988,-0.48227 1.39573,-0.10964c1.08195,0.63407 0.4637,1.74371 0.4637,1.74371c-2.23135,3.99421 -4.66486,8.14104 -7.87658,11.20778c-0.80259,0.76636 -2.45464,4.11856 -3.83914,3.92038c-2.43431,-0.34843 -2.85192,-2.79445 -2.12007,-4.55808c0.93949,-2.26403 4.001,-5.15426 5.59125,-7.004c1.00736,-1.76894 2.52742,-2.83116 4.03206,-4.15384l1.00354,-0.85771c0,0 0.66573,-0.56897 1.3495,-0.18859z" fill="#ab164a" stroke="none" stroke-width="0.5" stroke-linecap="butt"/><path d="M214.06877,201.14438c0.24525,0.94036 2.11972,2.63742 2.11972,2.63742l-2.97184,0.13243c-1.9236,0.12326 -6.65382,0.53394 -9.89441,1.15929c-2.96988,0.5731 -4.52904,1.24469 -4.89899,3.76816c-0.18349,1.25155 0.58384,2.60581 1.02456,3.92441c0.07303,-0.04832 0.14207,-0.09459 0.20678,-0.13875c8.6899,-5.92921 16.20134,-0.60562 21.57576,6.74452c0.43906,0.56278 0.87812,1.12557 1.31718,1.68835l0.72839,1.11187c0,0 0.06746,0.10376 0.12862,0.26809c1.16153,-3.04032 2.47392,-6.75716 4.59948,-8.8126c1.4649,-1.41658 1.80659,-1.20087 3.5396,-1.22634c0.98251,-0.01444 1.88724,0.10375 2.72722,0.33185c-0.03639,-0.32786 -4.5348,-5.93493 -4.10382,-6.28853c3.39881,2.56841 5.25508,4.3716 7.15176,6.55096c2.87438,3.30276 4.93671,6.54143 5.44326,7.27534c1.47341,-1.03353 4.57944,-1.00574 6.15763,-0.00378c0.46158,0.29304 1.02891,0.7244 1.65501,1.24326c2.33389,1.93411 5.48462,5.08412 7.02031,6.81864c-0.41738,-1.32479 -1.67829,-5.13855 -2.10836,-6.46612c-0.17557,-0.36646 -0.14944,-0.68415 -0.05053,-0.93654c0.07537,-0.26988 0.25355,-0.54586 0.63554,-0.72435l0.62198,-0.39204c2.09027,-0.79219 3.89138,-2.05185 6.0545,-2.7519c2.49229,-0.8066 5.58283,-0.33348 8.14371,-0.30759c0.2103,-0.40086 0.19593,-2.13395 0.67087,-2.13395c0.68471,0 1.04687,3.83463 0.78954,4.01461c2.06868,6.21456 4.43154,11.21027 10.72095,14.16498l0.6811,0.07088c0,0 0.32221,0.05508 0.6092,0.27802l0.18285,0.0454c1.80378,0 3.81836,0.23875 5.54915,-0.43183c3.75538,-1.45501 5.90654,-5.16566 8.4844,-8.01291c2.00333,-2.21267 3.48551,-3.06992 5.23335,-5.49418c-0.39485,-0.45759 -0.83257,-1.21789 -1.25889,-1.93242c-1.94354,-1.41835 -4.01259,-5.15798 -5.36419,-6.68565c-1.55743,0.7296 -3.64082,1.43586 -5.28193,1.70046c-0.27192,0.38261 -0.71228,0.63126 -1.20927,0.63126c-0.14718,0 -0.2894,-0.02181 -0.42374,-0.06245c-2.27484,0.52942 -5.48501,-1.26195 -7.22109,-2.96616c-0.0922,-0.01099 -0.19117,-0.05816 -0.26603,-0.10423c-0.22421,-0.06963 -0.42614,-0.19179 -0.59221,-0.35254c-0.82016,-0.48109 -3.45107,-2.08386 -5.66614,-2.96203c-1.58709,-0.62922 -2.90005,-0.69986 -3.46076,-0.5817c-0.83098,0.17512 -2.10367,1.20997 -4.30962,2.56816c-1.37568,0.84699 -4.10428,1.64931 -4.27927,1.64931c-0.06001,0.04767 -1.7303,-1.27342 -3.56584,-2.67662c-1.46986,-1.12366 -3.0457,-2.29997 -3.9855,-2.86824c-4.79571,-2.89991 -11.80698,-6.58523 -19.66035,-7.62565c-5.96371,-0.79007 -10.20127,0.25239 -14.62711,1.66997c-3.76787,1.20684 -8.16606,2.46326 -8.57246,2.49146zM263.1952,204.66539c0.07084,-1.4378 0.41505,-2.90352 0.94994,-3.80433l0.09591,-1.35091c0.99653,-5.47056 3.91889,-10.46048 6.71954,-15.27521c-0.23757,0.05744 -0.47911,0.11418 -0.72521,0.16954c0,0 -2.04281,1.36704 -4.82253,2.1448c-0.58254,0.16299 -0.44137,-0.8367 0.75816,-1.91059c1.27601,-1.14233 3.63486,-2.36862 3.63486,-2.36862c1.87908,-0.42034 9.22034,-2.1519 13.7323,-1.00975c5.11908,1.29583 6.8494,5.00868 6.95609,5.06598c0.91919,0.27637 2.20423,0.69074 3.49702,1.17844c-0.90931,-3.16078 -1.73521,-5.23735 -3.43482,-8.02135c-0.65855,-1.07872 -2.66344,-3.33873 -3.00562,-4.41052c-0.10944,-0.34281 -0.14615,-0.66858 -0.11027,-0.96619c-0.03068,-0.10046 -0.05575,-0.2029 -0.07554,-0.30711c-0.48966,-2.57948 2.26361,-6.24783 3.621,-8.15821c0.31001,-0.43631 0.6143,-1.1222 1.00617,-1.6643c0.54021,-2.70559 1.26915,-6.35368 -1.3508,-7.57019c-2.55845,-1.18796 -6.61182,-1.41758 -11.30984,-0.14782c-3.50125,0.9463 -8.24697,3.57766 -8.24697,2.69696c0,-0.26265 4.20531,-4.06408 4.71346,-4.40226c-1.54231,-1.6385 -3.48768,-2.84546 -5.22512,-4.29325l-0.02655,-0.01727c-2.19555,-0.63361 -4.27087,-1.02724 -6.56482,-1.02575l-0.12465,-0.06057c-3.37306,0.84844 -7.21474,2.66965 -9.86357,4.8926l-0.14042,0.04478c-0.1034,0.09685 -0.18433,0.14793 -0.18433,0.14793l-1.218,0.76445c-2.42869,2.11439 -5.58138,4.72806 -7.53437,7.54437c-0.04306,0.60264 -0.5805,0.97011 -0.5805,0.97011l-0.03621,-0.00223c-0.08947,0.15451 -0.1748,0.3095 -0.25568,0.46493c0,0 -0.22583,0.43012 -0.65755,0.61532c-1.28813,1.69839 -2.34681,3.64373 -3.33012,5.51917c0,0 -0.01653,0.03148 -0.04919,0.08108c-0.03018,0.05123 -0.05109,0.07983 -0.05109,0.07983l-0.48048,0.62267c-0.94892,1.94288 -2.27245,3.70722 -2.92313,5.76261c0,0 -0.01483,0.04562 -0.04737,0.11623c-0.02961,0.07195 -0.05287,0.1137 -0.05287,0.1137l-0.38674,0.6936c-1.27524,2.39683 -2.75517,4.65911 -3.48468,7.305c0,0 -10.34725,6.25055 -11.25901,6.72711c-2.54096,1.32812 -7.73198,4.05583 -8.92266,6.99937c-0.32496,0.80336 0.25433,0.69627 0.75806,1.42237c0.65873,-0.83245 15.65949,-6.47184 25.41471,-5.61877c15.85549,0.99897 23.59932,9.35506 24.62345,10.24226zM304.16245,214.25066l0.28255,-0.19676c0.77058,0.94848 1.55305,1.88275 2.35626,2.79797c0.01199,0.00778 0.02403,0.01581 0.03611,0.02407c0.25507,0.17439 0.40557,0.37025 0.48749,0.56644c0.53574,0.59787 1.08132,1.18699 1.63927,1.76602l0.61796,1.09047c0.16581,0.19407 0.2414,0.42583 0.27473,0.61928c0.04807,0.20716 0.06799,0.47589 -0.0338,0.74221c-0.70782,3.87192 -4.04535,8.11889 -5.791,11.79465c0.75871,1.1884 1.00114,1.45671 1.75284,2.65123c4.20356,0.1989 8.62947,1.95716 11.46912,5.31979c0.19929,-0.05582 0.35381,-0.05634 0.35664,-0.05635l1.32287,0.50264c1.99282,2.68062 6.75334,12.51827 3.97318,19.89027c-2.17954,5.77936 -12.53754,12.51419 -13.65031,13.18869c-5.75059,3.48566 -24.12334,7.94412 -27.61188,8.2114c-7.78573,0.59652 -19.96021,0.13161 -26.52182,-4.82989c-2.75344,-2.082 -4.64938,-6.17889 -6.57101,-9.01793c-1.46964,-4.02847 -1.06207,-6.08281 -1.23351,-10.31085c0.10391,-1.53006 0.10508,-3.3299 0.13057,-3.99782c0.00507,-0.13303 0.01498,-0.19735 0.02356,-0.22601c-0.01668,-0.00541 -0.04866,-0.03862 -0.10474,-0.14677c-0.63914,-1.23258 -1.92357,-3.47365 -1.96378,-3.57828c-0.04438,0.00877 -5.2462,2.23542 -8.57888,2.75381c-2.4857,0.38664 -6.51384,0.44691 -6.73812,0.54889c-6.43855,2.92784 -14.27909,9.18549 -17.61047,10.94721c-5.03738,1.90826 -8.19352,3.52287 -11.21005,3.92807c-5.51814,0.74126 -18.80196,1.78067 -24.1948,0.55457c-2.46839,-0.7233 -6.91602,-1.56774 -8.96467,-3.20002c-4.55876,-3.6322 -5.94635,-7.90048 -5.9318,-13.7158c0.00568,-2.27388 0.27251,-4.79401 2.07477,-6.4035c1.49069,-1.33124 2.07708,-1.3228 3.92804,-1.96584c0,0 0.25152,-0.08599 0.56121,-0.05966c1.3198,-2.17197 2.44486,-4.05482 4.52311,-5.85439c1.61505,-1.39849 4.20061,-2.7467 5.36582,-4.1412c2.76101,-2.82941 7.30739,-6.73917 10.41014,-9.10256c1.39392,-1.06176 3.20378,-2.08343 3.20378,-2.08343c-0.15336,-0.95115 -0.2807,-1.67984 -0.37475,-2.63876c0,0 -0.11424,-1.88768 0.70844,-2.80977c1.13006,-1.26664 3.03397,-2.58028 4.66568,-3.63504c-0.10052,-2.00361 -1.63352,-3.55504 -1.28783,-5.6775c0.98852,-6.06928 8.62512,-6.73617 14.20804,-6.99765c-0.85514,-1.40534 -1.11181,-3.74178 -0.45747,-5.26051c2.08594,-4.84155 11.96466,-9.39838 16.18321,-10.9832c0.78156,-0.29362 2.9314,-1.60645 4.39074,-1.89925c0.81964,-2.70148 2.28304,-4.51923 3.59956,-6.99551l0.35352,-0.63491c0.73741,-2.14161 2.02215,-3.92917 3.01539,-5.97036l0.65462,-0.92658c1.28479,-2.43997 2.69062,-4.9125 4.48351,-6.98484c2.09249,-3.33821 5.73384,-6.42662 8.60403,-8.91064l1.15774,-0.73426c0.16064,-0.18767 0.36619,-0.29324 0.54662,-0.35262c3.01205,-2.35871 7.01357,-4.29491 10.69166,-5.20527c0.31188,-0.15666 0.60692,-0.12876 0.84341,-0.04454c0.06647,0.01556 0.13447,0.03702 0.20195,0.06612c2.41096,0.04959 4.63497,0.48495 6.97223,1.16909c0,0 0.07355,0.02155 0.179,0.07266c0.10626,0.04929 0.1699,0.09281 0.1699,0.09281l0.39364,0.27597c2.08982,1.74143 5.59434,3.02727 7.33818,5.11506c0.33941,-0.07124 3.13422,-0.5899 3.8903,-0.64696c2.35307,-0.17757 11.05662,-0.71122 12.6094,4.22886c2.33515,7.42916 -5.00787,16.48621 -4.99023,16.7633c0.53273,0.58871 0.36357,1.06917 0.61584,1.41284c2.50847,3.41725 4.30234,7.20914 5.8117,11.16007c0.3977,1.04101 1.12257,4.59205 0.35592,5.241c-0.17611,0.42605 -1.49657,0.81254 -1.49784,0.81253c-1.01132,0.05813 -4.70113,-0.49941 -4.7905,-0.43452c-0.55257,2.06854 -2.33505,3.08504 -2.58288,5.69495c-0.07757,0.81683 2.15299,2.94213 3.06661,4.58411c1.02138,0.74391 2.14811,1.94086 3.01505,3.02876c2.63915,-1.11066 5.66011,2.54618 5.59841,4.49697c1.34526,1.43624 2.691,3.35493 3.57793,4.51695zM289.47455,203.96562l-0.10912,-0.45442c-0.45021,-0.49607 -0.86828,-1.06967 -1.05006,-1.271c-3.74255,-4.14487 -2.54907,-6.54672 0.1013,-12.97006c0.09795,-0.23855 -3.09722,-3.94722 -7.08344,-5.19119c-0.52137,-0.1627 -1.13278,-0.42523 -1.49663,-0.86074c-2.0078,-0.40078 -3.72259,-0.20679 -5.49707,0.18206c-2.93832,5.145 -6.54409,10.54028 -7.62667,16.437l-0.0926,1.35888c0,0 -0.00791,0.1135 -0.05203,0.27035c0.1746,0.96296 0.0804,2.25229 -0.10296,3.43256c3.00107,-1.35166 7.19771,-2.72678 8.12844,-2.63226c0.65602,0.06662 2.82542,0.18116 3.10675,0.68609l0.07407,0.13292c1.91835,0.58122 4.52509,2.53237 5.92031,3.79598c1.62072,0.54534 3.65189,2.98844 4.75448,3.01608c0.68044,0.01705 1.59012,-0.30221 2.26146,-0.23229c0.66118,-0.42544 1.48683,-0.81433 2.3541,-1.14016c-1.34723,-1.3319 -3.16828,-3.69419 -3.59028,-4.5598zM195.80763,240.25128c0.90534,1.08164 4.74712,2.31822 4.88176,1.68339c0.16268,-0.76702 -1.19497,-3.40833 -3.53348,-5.3977c-2.77468,-2.36043 -6.74955,-4.12738 -8.65706,-5.32811c0,0 -0.00154,-0.00097 -0.00446,-0.00289c-0.2254,-0.13179 -2.23761,1.08202 -3.82341,2.57946c0,0 2.44672,0.79987 4.46359,1.8239c2.52762,1.28335 4.88574,2.98359 6.67305,4.64195zM202.94319,238.86487c1.22347,3.25234 -1.14051,9.40273 -5.41514,7.48687c-1.11818,-0.50116 -2.71943,-3.37372 -3.51184,-4.32343c-2.84293,-2.72068 -4.83823,-4.00319 -10.71774,-5.14033c0,0 -2.64785,-0.9026 -2.85061,-0.69447c-3.53272,4.06987 -14.86001,10.96505 -7.81297,17.62663c1.06138,1.00333 1.54289,0.23023 2.7447,1.09531l1.2781,1.314c3.18888,1.0988 12.2318,1.49888 15.55526,1.49888c5.87467,0 18.94971,-4.57903 21.96851,-6.9019c4.20521,-3.23577 7.80328,-7.47295 12.80159,-9.49178c0.04551,-0.02096 0.09066,-0.03867 0.13447,-0.05365c0.0003,-0.00011 0.0006,-0.00025 0.00091,-0.00036c0,0 0.08426,-0.0324 0.21596,-0.05657c0.1316,-0.0248 0.22158,-0.0248 0.22158,-0.0248h0.00118c0.03523,-0.00134 0.07174,-0.00146 0.10918,0h0.88656c4.15552,0 7.61845,0.26363 11.47211,-1.43029c0,0 0.01726,-0.00759 0.04846,-0.01873c0.03054,-0.01293 0.04835,-0.01903 0.04835,-0.01903l0.9001,-0.30305c1.249,-0.54831 2.3242,-1.13029 3.44642,-1.87404c-0.97508,-0.67462 -1.96634,-1.01791 -2.88657,-2.17602c-1.16154,-1.46178 -0.74411,-3.93825 -0.73936,-5.63658c0.35849,-1.85697 -0.13968,-4.57301 0.354,-6.57798c-1.28985,-1.98954 -2.59034,-3.99759 -3.93479,-5.9643c-1.26244,-1.25281 -2.68906,-2.16821 -4.29151,-2.24395c-0.95336,-0.04507 -2.57931,0.88825 -3.31451,1.72926c-2.20674,2.52433 -3.32485,5.32932 -4.60958,8.40388c0,0 -1.38248,3.48281 -1.38749,3.49609c-0.9485,0.50571 -1.12705,-4.19943 -1.12705,-4.19943l-1.93006,-1.72818c-0.44709,-0.57324 -0.89417,-1.14648 -1.34126,-1.71971c-1.19919,-1.63962 -3.49295,-3.34311 -4.96853,-4.74102c-7.16563,-6.7885 -13.62643,-2.09939 -19.25115,3.6692c0,0 -0.04958,0.05084 -0.13699,0.11636l-0.00267,0.3864c0.10736,1.1079 0.26347,2.21141 0.45468,3.30747c0.00817,0.02181 0.01565,0.04342 0.02244,0.06484c0.18695,0.00197 0.37391,0.00428 0.56087,0.00696c0.92083,-1.20623 1.80789,-2.71962 3.10423,-3.47588c1.8132,-1.05777 4.73086,-0.97174 6.72421,-0.97174c3.8669,0 13.3799,0.97915 12.447,12.03343c-0.0309,0.36625 -0.66375,0.84227 -2.03299,0.36695c-1.21501,-0.42178 -3.01611,-2.05981 -4.55516,-2.81439c-2.58235,-1.26609 -4.82916,-1.69477 -5.27031,-1.77121c1.29249,0.67539 2.50155,1.4724 3.58291,2.4105c2.39132,2.0745 3.74833,8.21581 -0.2101,9.52463c-0.87846,0.29046 -3.89518,0.26498 -4.9808,0.27605c-0.73926,-0.33105 -1.4279,-0.7098 -2.0816,-1.11805c0.09967,0.21261 0.19217,0.43153 0.27701,0.6571zM189.39635,228.86723l0.00679,0.00194c0.03556,0.00888 0.06947,0.01875 0.10141,0.0291l0.20126,0.05775c3.55261,0.00624 9.50711,1.20723 12.31266,3.58829c1.28476,1.09038 3.73024,3.17278 5.46798,3.94915c0.97337,0.43487 1.72469,0.14815 1.9256,-0.19552c1.51377,-2.58936 -1.15039,-4.97217 -2.96716,-6.11051c-3.9402,-2.46881 -8.98274,-3.5769 -13.55507,-3.8928c-1.47992,0.73928 -2.93107,1.65311 -4.33736,2.6745c0.29392,-0.17244 0.60176,-0.16003 0.83871,-0.1029c0.00341,0.00063 0.00518,0.00099 0.00518,0.00099zM205.76722,221.8559c-1.40943,0 -3.74295,-0.4019 -5.01723,0.39147c-0.57793,0.35982 -0.16065,0.95605 -0.69032,1.58596c5.67958,0.24312 10.30015,1.02597 15.51439,3.42243c-1.30401,-4.24172 -5.70461,-5.39986 -9.80682,-5.39986zM164.6672,254.7463c-0.00205,0.75047 -0.13325,1.80618 0.22577,2.55022c0.80223,1.66255 2.10112,3.21181 3.17928,4.69043c1.00132,1.37325 1.827,2.52805 3.52472,3.13531c1.70948,0.61148 4.32568,1.67167 6.08735,2.18787c5.14723,1.1763 12.89198,0.45405 18.15036,-0.17573c2.65019,-0.31741 9.95406,-1.50752 12.30487,-2.74059c2.07212,-1.08689 8.31195,-5.05183 13.77202,-8.44715c2.32661,-1.44679 4.90664,-3.22978 6.32794,-4.06982c0.52488,-0.31021 16.25657,-3.20198 16.25657,-3.20198c0.25929,-2.47493 0.60247,-4.21694 2.71231,-5.30013c-0.65786,-1.25561 -1.58643,-3.04736 -1.58643,-3.04736c-1.37287,0.93605 -2.1078,0.78549 -3.61835,1.45018l-1.04313,0.36105c-1.01636,0.44339 -1.8412,0.86181 -3.36974,1.24116c-4.75507,1.18012 -10.9496,1.69009 -10.9496,1.69009c-0.62537,0.24472 -2.26807,2.41484 -5.15606,4.52844c-0.71411,0.52263 -7.10401,4.63616 -15.25493,7.83913c-3.00637,1.18137 -6.25229,2.23887 -9.54137,2.94662c-9.06375,1.95036 -19.4135,-0.5245 -20.91685,-1.0351l-1.21109,-0.53111c0,0 -0.04733,-0.02081 -0.11864,-0.06383c-0.07286,-0.04018 -0.11478,-0.07088 -0.11478,-0.07088c-1.2998,-0.95219 -2.98245,-1.89293 -4.12206,-3.01067c-1.16894,-1.14651 -1.54154,-2.04647 -2.12224,-3.50928c-0.67435,-1.69871 -0.80573,-3.2346 -0.55229,-4.64611c-2.80842,1.42986 -2.85365,3.5749 -2.86362,7.22925zM223.65846,228.58457h0.00001c-0.00002,0.00005 -0.00003,0.00005 -0.00001,0zM266.01483,254.0606c2.98925,-0.6374 4.91822,-1.63121 7.52973,-2.20301c4.30715,-0.94305 8.88023,-1.58334 12.32922,-2.18412c4.62797,-0.80612 7.73076,-1.43876 10.20692,-1.66071c1.88863,-0.16928 9.07929,-0.03759 4.8294,-2.73756c-0.19036,-0.12093 -1.89691,-0.24816 -3.46731,-0.3288c-1.81665,-0.09329 -3.57755,-0.12422 -4.62995,-0.01097c-2.84561,0.29183 -8.14956,0.53619 -10.99801,0.75112c-1.94479,0.14675 -8.36497,0.85323 -12.67012,2.29788c-2.73319,0.91716 -4.7439,3.34596 -4.87235,4.7472c-0.1053,1.14869 1.42214,1.39725 1.7425,1.32895zM293.37365,250.74556c-3.75416,0.14697 -18.30811,2.85304 -20.29143,3.3343c-2.50805,0.6086 -4.53039,1.58976 -7.16729,1.63125c-2.55494,0.0402 -4.44827,0.0091 -3.66017,-2.90116c0.00247,-0.00914 1.20529,-3.43522 1.17423,-3.42971c-0.15477,0.06438 -1.82617,0.43519 -2.26634,-1.17255c-1.13305,-4.13851 0.50085,-2.64193 -0.08841,-3.96291c-0.2012,-0.45104 -2.83901,-0.17292 -2.92339,-1.91569c-0.14042,-2.90043 0.83061,-5.30671 2.68436,-7.15664c-0.2024,-0.09026 -0.35896,-0.23282 -0.46564,-0.35418c-0.07928,-0.08715 -0.12154,-0.15216 -0.12154,-0.15216c-2.64863,-4.10673 -6.90908,-7.15963 -10.61447,-10.3017c-1.04393,-0.88522 -3.82279,-1.05234 -5.28888,-0.79528c-1.97713,3.50626 -1.94911,8.46512 -1.33431,9.11314c1.44467,1.52272 4.25934,4.88619 5.59641,6.55365c2.81254,3.50751 5.08334,8.75204 5.32019,13.73767c0.36764,0.37867 -0.83639,4.91554 0.06437,7.66742c0.18336,0.56019 2.42199,4.51803 5.06847,6.22488c5.05293,3.25889 11.34925,4.7345 13.95107,4.93376c11.18928,-0.00728 23.31845,-6.88508 33.37018,-11.31015c1.74137,-0.76661 9.17251,-4.00528 11.31214,-7.78351c2.08184,-3.67619 -0.95388,-6.87189 -1.44956,-7.60699c-1.88255,-2.79187 -2.66007,-3.97907 -5.49158,-5.04438c-0.64951,-0.24437 -3.77404,-0.43753 -5.5062,-0.87576c-0.68324,-0.17285 -1.14983,-0.87719 -1.16247,-0.89097c-0.16151,-0.15565 -0.29192,-0.37948 -0.33299,-0.70135c-0.89187,-1.43258 -1.87709,-2.78861 -2.7614,-4.22791c-0.25409,-0.32383 -0.2982,-0.64168 -0.25494,-0.91162c0.01594,-0.25547 0.11562,-0.53416 0.3894,-0.77945c0.95868,-2.17155 1.96215,-2.67817 3.40072,-4.55988c0.47092,-0.616 1.87784,-2.59119 2.16746,-3.64761c0.36509,-1.33167 -0.17318,-2.30383 -0.30976,-2.44869c-1.75457,2.32399 -4.28814,4.60949 -6.24653,6.77243c-1.47524,1.62931 -2.74648,3.10394 -4.20086,4.37054c1.16893,1.06452 1.73063,1.81263 2.12231,3.56443l0.0178,0.3124c0,0 0,0.19595 -0.09658,0.38974c1.73042,1.07112 2.85843,2.90535 2.87371,5.89081l-0.01163,0.09028c0.65699,0.36592 2.10077,0.64292 3.16898,1.83826c1.00889,1.12897 1.69622,3.15993 0.62352,4.11584c-1.27922,1.13992 -2.05726,1.84648 -4.26614,2.149c-2.30207,0.31527 -6.0294,0.2027 -6.99278,0.24042zM265.97962,232.11546c3.51392,-1.22078 9.5902,-1.40864 9.89549,-1.48228c-2.89229,-3.16911 -4.57411,-7.17402 -6.07924,-11.77611c-2.133,-0.03008 -4.24878,0.70456 -6.31877,1.3755c-1.91017,0.61913 -4.66894,1.24073 -5.05003,2.61026c1.08871,3.44887 1.7732,6.04251 3.29768,9.32972l0.64209,1.15059c0,0 0.03779,0.06784 0.07834,0.17954c0.03178,0.08319 0.06243,0.1829 0.08175,0.29315c1.00292,-0.66946 2.16003,-1.23125 3.4527,-1.68035zM272.06067,244.28872c4.20031,-0.40112 7.25166,-1.08628 11.4583,-1.40818c2.81776,-0.21562 3.73172,-0.45462 6.54789,-0.74345c1.96,-0.20974 6.32925,-0.83764 8.28847,-0.84712c-0.12235,-1.62395 -2.90753,-3.76509 -5.91503,-3.8355c-3.3302,-0.07797 -5.95,0.81089 -9.09638,1.43357c-3.51645,0.69593 -8.20168,0.77374 -11.80587,1.51207c-0.92443,0.23548 -3.56022,0.86039 -5.32121,2.07389c-1.87616,1.29287 -2.84351,3.20204 -2.52768,4.27426c2.6586,-0.63061 5.46526,-2.18199 8.3715,-2.45953zM296.52629,235.73733c-0.31889,-1.30802 -0.76225,-1.71987 -1.79095,-2.62295c-1.06302,0.7765 -0.26176,1.45223 -1.70206,2.01089c1.95634,-0.0898 1.87976,0.04707 3.49301,0.61206zM281.15944,235.88512c-1.51146,-0.71546 -1.95477,-2.30388 -3.11199,-3.22301c-0.09416,0.04562 -0.15837,0.06537 -0.15837,0.06537c-1.55123,0.47512 -3.33314,0.69736 -5.09938,0.9997c-1.21672,0.53984 -8.73713,4.11654 -10.54937,5.39115c-0.782,0.55002 4.16081,-1.12251 9.30179,-2.11378c4.70544,-0.90728 9.61732,-1.11942 9.61732,-1.11942zM247.71405,245.81799c-0.69054,0.3448 -0.31517,3.73189 0.22654,5.59874c0.28738,0.99039 0.63354,1.84529 1.15411,2.5429c1.0151,1.36033 1.86808,2.12261 1.87114,2.12535c1.10445,-4.75301 -1.87692,-6.93712 -3.25179,-10.26699zM255.34172,274.97764c6.0966,4.5539 18.08502,5.42896 25.2668,4.90548c3.43407,-0.2503 19.15958,-3.35291 24.65845,-6.68474c2.36689,-1.43412 9.39422,-5.7315 11.43112,-7.66146c0.96735,-0.91657 4.09554,-4.97956 4.85975,-7.69474c1.37394,-4.88147 0.30278,-4.64505 -0.54969,-6.39783c0.1184,0.44621 0.32839,1.06896 -2.19233,4.74739c-3.31141,4.83228 -10.3546,7.18749 -12.43001,8.09887c-10.44013,4.58462 -21.56476,10.21636 -33.18578,10.20926c-2.76094,-0.22329 -11.21878,-0.88776 -16.45424,-5.7104c-2.60151,-2.39638 -4.02741,-4.92594 -4.77149,-7.43867c-0.46862,-1.58251 -0.6668,-3.86334 -0.71787,-3.88429c-0.17735,-0.07276 -1.31357,-0.3083 -1.4223,-0.40767c0.04775,3.55162 -0.7171,7.61481 0.49539,10.91886c0,0 2.55287,5.16291 5.01219,6.99992z" fill="#000000" stroke="none" stroke-width="0.5" stroke-linecap="butt"/></g><g><g><path d="M343.43227,187.69763c-0.54868,0.29454 -0.93909,0.06399 -1.15558,-0.1519c-1.47229,2.10311 -4.37815,2.43112 -6.94692,2.82483c-1.77185,0.27157 -3.55266,-0.34411 -4.84354,-1.34667c-3.35514,-2.60574 -5.6932,-5.16977 -8.32172,-8.46069c-1.22439,-2.44908 -5.53231,-6.43833 -4.42864,-9.3372c1.07176,-2.8151 4.32302,-0.99772 5.95533,-0.13014c5.80465,3.08529 11.0159,6.23062 15.89007,10.70242c1.34693,1.23673 2.66936,2.33351 3.81717,3.75741l0.44194,0.78786c0,0 0.47298,0.88106 -0.40809,1.35406z" fill="#0f1b82" stroke="none" stroke-width="0.5" stroke-linecap="butt"/><path d="M319.95059,168.37904c0.4862,-0.60632 1.22342,-0.21298 1.22342,-0.21298l1.23518,0.65902c2.41733,1.28973 4.72991,2.75261 7.14054,4.03642c4.70631,2.51099 12.90851,5.43816 14.94849,10.73234c1.04228,2.70493 -2.40883,5.5581 -4.86207,5.65543c-0.94023,0.03731 -2.75127,-1.44728 -3.46358,-1.99192c-6.51925,-5.40872 -12.53784,-9.98116 -16.96222,-17.35359c0,0 -0.51436,-0.85758 0.34321,-1.37194c0.14201,-0.08518 0.27461,-0.13274 0.39702,-0.15279z" fill="#0066cc" stroke="none" stroke-width="0.5" stroke-linecap="butt"/><path d="M322.02261,160.42974c0.07943,-0.11336 0.20724,-0.21431 0.40913,-0.27572c0.71754,-0.21825 0.9358,0.49928 0.9358,0.49928l0.28942,1.08374c-1.0563,3.21916 -2.79004,4.87294 -5.15417,7.09775c-1.66452,1.56642 -2.87271,3.94825 -4.43198,5.67252c-1.52295,1.56571 -5.39173,4.30853 -7.56004,3.2544c-2.1198,-1.03056 -2.69765,-4.39847 -2.97704,-6.08656c-0.24715,-1.49332 -3.58465,-1.55784 -3.28159,-4.04606c0.05392,-0.44266 0.39591,-0.79915 0.59387,-1.19872c3.43266,-3.98357 8.88255,-3.31303 13.45824,-4.54269c2.56297,-0.68877 5.07163,-1.12917 7.71837,-1.45792z" fill="#fddfbd" stroke="none" stroke-width="0.5" stroke-linecap="butt"/><path d="M310.92489,169.11932l0.14398,0.16068c-0.12028,0.11457 -0.25251,0.23235 -0.39342,0.35306c-0.59666,1.02286 -1.65151,1.75219 -2.83561,2.50332c-0.99145,1.16996 -1.24156,2.4128 0.94015,3.57857c0.50206,0.26828 1.04653,0.45282 1.59219,0.61838c0.13232,0.0084 0.27645,0.06005 0.42017,0.18869c0.11144,0.08528 0.22387,0.21381 0.26199,0.39859c0.04901,0.1822 0.00635,0.34755 -0.05486,0.47383c-0.07399,0.18829 -0.18649,0.30112 -0.30734,0.36694l-0.27041,0.243c-3.02114,1.89933 -8.86537,6.89547 -11.14757,1.22267c-0.02566,-0.06379 -0.75282,-2.73464 -0.76628,-2.78398c-0.47964,-1.19524 -1.63061,-3.08122 -1.44887,-4.41586c0.81128,-5.95777 9.80301,-6.28999 14.2524,-5.54393c0,0 0.7394,0.12568 0.61371,0.86507c-0.04579,0.26943 -0.17309,0.424 -0.3164,0.51163c0.03831,0.14335 0.03443,0.29827 -0.01779,0.44466l-0.23883,0.70887l-0.11029,-0.03715l-0.10787,0.20217l-0.19235,-0.10263c-0.0055,0.01452 -0.01108,0.02898 -0.01673,0.04338z" fill="#f89587" stroke="none" stroke-width="0.5" stroke-linecap="butt"/><path d="M325.56344,116.59649c0.60709,5.54455 -3.37429,12.66566 -6.77247,16.9178c-3.37188,4.21923 -13.70794,8.36677 -16.81576,10.22238c-5.0427,3.01087 -6.39151,4.58593 -11.26737,5.66864c-5.50436,1.22228 -12.56024,-6.42667 -17.06535,-8.73974c-3.15677,-1.62078 -6.61831,-3.33053 -9.77653,-4.94848c-6.80138,-3.48431 -14.17715,-7.32382 -20.9375,-10.88465c-0.06116,-0.03221 -3.82652,-1.72923 -6.53477,-3.49877c-0.13049,-0.08211 -0.25805,-0.16732 -0.38264,-0.25546c-2.60539,-1.84303 -3.91216,-4.96729 -3.51286,-8.03325c0.04471,-6.37076 4.83914,-14.07854 6.76973,-19.02755c1.11441,-2.85675 2.38509,-5.57296 3.55524,-8.38437c1.59954,-3.84304 1.64934,-6.24773 4.37672,-9.7965c1.84568,-2.40151 4.77084,-10.12755 7.05342,-10.19383l1.02263,-0.02969c6.87097,-2.576 18.39375,1.50492 23.94351,2.97226c4.67455,1.23593 9.86059,4.50857 13.84394,6.50232c1.53808,0.76985 3.23664,0.63597 4.66576,1.63928c1.80936,1.27025 3.31039,3.68347 5.17255,4.74324c9.62712,5.47896 20.1636,13.04791 25.88134,22.58092l0.51444,1.69125c0.54156,1.78042 0.50207,3.73758 -0.2124,5.56263c-0.11002,0.35734 -0.25504,0.6727 -0.44293,0.95419c-0.77559,1.43464 -1.90521,2.55715 -3.22274,3.31698c0.05849,0.33843 0.10663,0.67857 0.14407,1.02041z" fill="#ff2d32" stroke="none" stroke-width="0.5" stroke-linecap="butt"/><path d="M328.06965,104.96888c0.61169,-0.43397 1.04566,0.17774 1.04566,0.17774l0.32653,0.48117c0.35934,0.77251 0.63565,1.58325 0.88398,2.39825c0.51771,2.76003 -0.26222,3.31373 0.46447,5.89769c0.58763,2.08952 1.33218,6.97871 0.85135,8.98649c-0.79459,3.31788 -1.21955,6.23994 -1.31349,9.61405c-0.37043,2.17935 -0.30573,4.32465 -1.10638,6.43173c-0.4684,1.23272 -1.25704,2.47236 -1.40393,3.81586c-0.24744,2.2631 0.34071,4.54673 -0.00298,6.81358c-0.37382,2.46559 -1.91855,4.66722 -3.46871,6.55459c-3.05368,3.37917 -6.50822,4.59207 -10.80499,5.77294c-2.15495,0.59223 -4.81482,1.68655 -7.06809,0.98069c-1.22838,-0.38479 -2.51612,-1.32711 -3.66062,-1.93773c-1.73466,-0.95207 -2.57076,-2.72629 -4.18348,-3.82522c-2.6518,-1.80697 -3.76044,-3.85128 -5.71925,-6.28854c-2.00491,-2.49467 -4.41641,-4.62132 -6.52097,-7.02729c-1.55106,-2.47594 -0.09831,-3.75806 1.55768,-5.84835c2.52365,-3.1855 5.86559,-5.92141 7.78587,-9.52054c0,0 0.01678,-0.03145 0.04987,-0.07696c0.03161,-0.04654 0.05553,-0.07298 0.05553,-0.07298l0.53341,-0.58908c2.11934,-2.7408 4.98401,-5.12016 7.29094,-7.70326c0.00032,-0.00036 0.00048,-0.00054 0.00048,-0.00054l0.00001,-0.00001l0.57275,-0.63265c4.55678,-4.32173 8.14716,-8.83336 13.23364,-12.57639c0.05423,-0.12235 0.14196,-0.21294 0.22811,-0.2777c0.08429,-0.07563 0.19685,-0.14745 0.33662,-0.17421c2.59043,-2.90736 6.65223,-2.87012 10.02158,-1.36295c0.00473,-0.00346 0.00952,-0.00693 0.01437,-0.01038z" fill="#ab164a" stroke="none" stroke-width="0.5" stroke-linecap="butt"/><path d="M231.07395,115.80366c0,0 7.02969,-19.06453 13.96764,-34.10268c4.21903,-9.14481 7.66278,-17.19621 11.61165,-17.42415c22.13946,-1.2779 42.9701,14.91016 53.60716,22.07131c6.3714,4.28939 17.26358,13.39953 18.85221,20.00176c3.10606,12.90838 1.27414,24.98049 -0.16926,33.67594c-1.29386,7.79459 -2.07138,12.91063 -2.07138,12.91063l-7.3541,7.4106l-15.48089,3.16913c0,0 -23.61029,-28.55587 -36.99256,-36.52174c-21.27172,-12.6621 -35.97047,-11.19077 -35.97047,-11.19077z" fill="none" stroke="#000000" stroke-width="3" stroke-linecap="round"/><path d="M285.19106,142.41025c0,0 14.88583,-22.34987 33.7513,-36.83362c3.52258,-2.70442 8.62225,-0.63025 8.62225,-0.63025" fill="none" stroke="#000000" stroke-width="1.5" stroke-linecap="round"/><path d="M231.37799,122.165c4.83505,-3.3013 9.27875,-2.0787 14.78324,-0.70166c2.41377,0.60384 5.02283,1.00753 7.36331,1.84786c6.59479,2.36776 12.81409,7.75346 17.66472,12.63763c6.75899,7.68917 15.0844,14.72684 18.34077,24.66783c0.53938,1.70794 0.43474,2.34435 0.21787,4.09402c-1.29768,10.46931 -13.08906,4.72438 -19.74929,4.15539c-6.27327,-0.69005 -13.31731,-2.45077 -19.1603,-4.94643c-2.34907,-1.00334 2.37995,0.35362 -0.04369,-0.46735c-7.9356,-3.03977 -22.81154,-10.35394 -29.24681,-15.86011c-3.71327,-3.18147 -7.72227,-7.06988 -9.90011,-11.51028c-1.9042,-3.88244 -0.03508,-6.89114 3.83568,-8.00042c3.04105,0.32747 6.08569,0.43469 9.06108,1.234c0.69284,0.18613 2.97641,1.25799 3.78994,0.92908c0.4704,-0.1902 0.29797,-0.97009 0.45235,-1.45342c0.66359,-2.07742 0.75268,-4.21394 1.32239,-6.29055c0,0 0.20109,-0.72254 0.92364,-0.52145c0.15286,0.04255 0.26439,0.10843 0.34523,0.18588z" fill="#fddfbd" stroke="none" stroke-width="0.5" stroke-linecap="butt"/><path d="M231.00922,115.99579c0,0 25.72798,4.12597 36.816,11.38958c12.88547,8.44109 35.91762,36.25723 35.91762,36.25723l-5.83649,7.54026l-2.41175,-0.15332l-10.71753,-0.73111l0.00108,-6.8l-12.17706,3.70396c0,0 0.88633,-20.67527 -0.6957,-22.00293c-1.5856,-1.33067 -19.4068,0.62327 -19.4068,0.62327l6.50841,-16.02251l-29.78766,-3.65177z" fill="#f89587" stroke="#f89587" stroke-width="0.5" stroke-linecap="round"/><path d="M310.79655,167.79926c-2.034,-0.14381 -4.29817,-0.24821 -6.36863,-0.29369c-0.39703,1.79241 -0.30477,4.55477 -0.20963,6.55342c2.22529,-1.95865 4.93679,-3.83555 6.57827,-6.25972zM301.58508,167.50978c-1.63074,1.90655 -3.1872,4.2805 -3.1872,4.2805c0.61251,1.34287 2.8281,8.97248 3.95553,9.22381c2.30285,0.51337 6.29606,-3.58652 7.9344,-4.7565c1.20543,-0.86082 2.27687,-1.74766 3.25427,-2.66712c3.31752,-3.12091 5.5515,-6.61785 8.26366,-10.75051c0.27023,-0.40295 1.27479,-1.21872 0.78964,-1.2227c-2.82458,-0.02325 -5.52316,0.80482 -8.2851,1.36424c-3.21876,0.65193 -7.53876,0.72369 -10.4603,2.40309c-0.36112,0.20758 -0.76847,0.54737 -1.19383,0.96518c0.69669,0.22546 1.63503,-0.26458 2.47758,-0.2587c1.58165,0.01104 2.40456,-0.44246 3.78571,-0.42016c0.26472,0.00427 4.49855,-0.1509 3.97599,1.45219c-0.79126,2.42736 -6.7407,7.13785 -8.382,8.69563l-0.44979,0.26339c-0.09743,0.09177 -0.2361,0.16253 -0.43338,0.18153c-0.13566,0.02143 -0.30487,0.01627 -0.46364,-0.07787c-0.16262,-0.08729 -0.25449,-0.22951 -0.30623,-0.35672c-0.07971,-0.16628 -0.09483,-0.31229 -0.0738,-0.43719c-0.11274,-2.353 -0.25512,-5.1973 0.18853,-7.50561c-0.47786,-0.07988 -0.94274,-0.20067 -1.39006,-0.37649zM323.17083,167.40996c5.76073,3.07356 12.67009,6.11057 17.60577,10.40273c1.8675,1.624 4.33774,4.11304 4.1609,6.81951c-0.16414,2.51204 -1.90629,4.82353 -3.72312,6.10133c-1.4258,0.55144 -3.6687,3.41342 -5.15376,3.15c-2.62918,-0.46638 -7.10526,-3.60453 -8.68832,-5.46064c-3.57944,-4.19687 -8.36919,-9.78682 -10.57101,-14.83678c-2.06055,2.41375 -3.15272,3.13038 -5.63533,5.03976c-2.17228,1.67071 -6.48327,5.46919 -9.53535,4.79928c-2.13761,-0.46919 -3.91394,-5.43734 -3.91394,-5.43734c-1.26221,-2.04095 -2.101,-3.89195 -3.05269,-5.99147l-0.40242,0.00546c-3.88732,-0.58163 -8.30062,-0.13462 -12.26293,-0.12355c-7.74166,-0.84044 -15.94607,-2.33945 -23.36027,-4.68571c-3.623,-1.14652 -7.10498,-2.75233 -10.77715,-3.73043c-0.41337,0.20581 -16.07485,-7.88444 -26.14416,-14.78588c-3.82912,-2.62446 -8.06519,-7.34147 -8.56355,-8.0437c0,0 -0.01997,-0.02814 -0.04957,-0.07892c-0.0323,-0.04911 -0.04862,-0.07952 -0.04862,-0.07952l-0.11773,-0.25759c-1.15235,-1.52257 -2.17056,-3.00342 -3.07477,-4.68409c0,0 -0.0139,-0.02589 -0.03418,-0.07235c-0.02283,-0.04527 -0.0339,-0.07249 -0.0339,-0.07249c0,0 -2.2744,-4.19727 1.41808,-6.45677c0.98885,-0.6051 2.11656,-1.18278 3.40009,-1.35815c4.92899,-0.67345 11.58547,1.49579 12.27885,1.7263c0.91816,-4.60794 1.35007,-9.26754 2.79161,-13.77119c0,0 0.45796,-1.42839 1.88633,-0.97042c1.42839,0.45796 0.97042,1.88634 0.97042,1.88634c-1.57927,4.91708 -1.90911,10.04705 -3.05225,15.06783l-0.07987,0.19318c-0.01982,0.06274 -0.04386,0.12726 -0.07246,0.1936c-0.21981,0.50998 -0.54705,0.74976 -0.87205,0.84953c-0.30113,0.11884 -0.68308,0.13972 -1.14194,-0.0843c-0.80459,-0.34703 -10.98291,-3.38702 -13.40134,-2.46438c-3.68399,1.40545 0.23094,7.20147 0.82389,7.91445c3.21146,3.86152 9.17904,9.29704 11.14364,10.55173c10.54428,6.73414 29.80597,14.79339 33.49853,15.961c7.18026,2.27046 15.27622,3.41902 22.77096,4.25612c4.06905,-0.02003 8.51974,-0.39727 12.52695,0.14927l0.66932,-0.03566c0.45569,-0.10757 0.81125,0.01544 1.07271,0.19925c0.00472,0.00257 0.00945,0.0052 0.01417,0.00785c1.78862,-2.06023 3.50681,-5.01064 5.86749,-6.39186c3.7955,-2.22076 9.37806,-2.39017 13.59909,-3.22497c2.85519,-0.56467 10.18336,-3.82115 10.1652,1.34224c-0.00315,0.89701 -1.30351,2.63082 -1.68628,3.44207c-0.59399,0.90509 -1.17652,1.82547 -1.76124,2.74788zM329.43228,185.91744c1.17245,1.37369 2.70166,3.76415 4.63086,4.22019c0.85319,0.20168 3.66889,-1.0361 4.55285,-1.38628c1.17865,-0.84686 3.69897,-2.79438 3.84157,-4.43529c0.18334,-2.10988 -3.40743,-4.74681 -4.84233,-5.72669c-4.91426,-3.35589 -10.36925,-6.17159 -15.62123,-8.9737l-0.72018,-0.38425c-0.66889,1.02996 -1.35374,2.04979 -2.07384,3.04082c1.75299,5.4843 6.57935,9.36528 10.23229,13.64519z" fill="#000000" stroke="none" stroke-width="0.5" stroke-linecap="butt"/></g><g stroke-width="0.5"><path d="M268.09598,110.69178c-2.65894,5.20888 -8.18067,1.02043 -11.65431,-0.73094c-0.83102,-0.41899 -0.85383,1.80838 -1.68567,2.22575c-1.02486,0.51424 -2.16382,0.84286 -3.3051,0.95359c-2.10984,0.20471 -4.71187,-3.27827 -6.1889,-3.36287c-2.2578,-0.12933 -4.35878,1.21282 -6.50974,1.91126c-3.86804,1.25598 -7.64299,2.79838 -11.54318,3.95064c-0.65946,0.19482 -3.23182,0.29688 -3.97268,-0.31922c-2.07313,-1.72405 -21.04908,4.7731 -19.3886,2.34988c0.18,-0.26268 2.36794,-2.32904 7.2273,-5.59265c5.74836,-3.86069 14.29527,-8.99287 14.24225,-9.02143c-1.92283,-1.03551 -7.26406,-4.04813 -11.2258,-5.91657c-3.77094,-1.77845 -6.24565,-2.36763 -5.12599,-5.12334c0.14391,-0.35418 9.95176,-4.82834 10.66323,-5.10954c6.55063,-2.58929 14.1881,-6.53796 20.96396,-8.40365c1.43443,-0.39497 8.3804,-2.65561 9.63813,-0.69101c0.01168,0.00612 0.02334,0.01229 0.035,0.0185c1.02066,0.54456 1.77541,1.39256 2.21238,2.3733c0.40057,0.47935 0.73586,0.91116 0.96782,1.19337c3.75525,4.56873 7.28553,8.78849 10.58997,13.70441c0.67714,1.00737 2.012,4.30365 2.12819,4.37856c0.70659,0.45556 2.23145,-5.05609 7.08285,-8.29395c2.14665,-1.43269 9.8456,-2.72218 10.06988,-2.33846c0.82112,1.40485 -13.12074,16.63331 -13.77331,17.85641c-0.26773,0.50179 -0.60879,0.93931 -1.0029,1.30638c0.05906,0.97703 -0.08431,1.97544 -0.44479,2.68163z" fill="#66ffff" stroke="none" stroke-linecap="butt"/><path d="M282.68694,93.54115l-3.45003,18.78769l-1.65051,21.78797l-14.82389,2.29177l3.84867,-10.18763l-6.10547,-2.57745l-20.90516,-4.57978l-9.90572,-0.97804l-0.70636,3.02342l-7.01143,-2.15404l-7.94104,-0.83655l-6.29858,-0.7147c0,0 18.56721,-6.12531 25.73795,-8.27346c3.65549,-1.09507 15.30226,-4.17298 15.30226,-4.17298c0,0 -7.33082,-2.37633 -10.62345,-3.54102c-5.23207,-1.85073 -18.64857,-6.0695 -18.64857,-6.0695c0,0 23.037,-6.80211 26.17689,-6.06105c2.25117,0.5313 19.94987,22.8507 19.94987,22.8507c0,0 0.76539,-3.70441 4.34669,-8.01453c2.56734,-3.08983 15.13054,-15.42649 15.13054,-15.42649z" fill="#50a5eb" stroke="#50a5eb" stroke-linecap="round"/><path d="M267.26605,95.28318c0,0 0.12579,-0.17178 0.34055,-0.29878c0.82202,-0.93743 1.91478,-2.03821 3.24164,-3.03228c0.76613,-0.57397 2.94087,-1.61601 3.63158,-1.9819c5.75329,-3.04768 12.88095,-4.74028 12.26086,-2.80555c-4.68693,14.62374 -8.21984,39.76461 -7.52494,47.12795c0.05956,0.17364 0.06914,0.38502 -0.02894,0.63262c-0.05392,0.1817 -0.1628,0.38181 -0.37985,0.51574c-0.20673,0.14937 -0.43325,0.17348 -0.62177,0.15386c-0.14662,-0.00222 -0.27062,-0.03039 -0.37543,-0.07551c-5.61497,0.85895 -10.72811,1.45614 -16.18565,3.31892c-0.1748,0.1051 -0.40416,0.16824 -0.68578,0.09152c-0.1905,-0.03007 -0.39715,-0.11791 -0.55799,-0.32683c-0.18155,-0.19121 -0.23637,-0.40898 -0.2366,-0.60184c-0.03278,-0.29492 0.06891,-0.51413 0.20304,-0.67112l0.22928,-0.42061c1.30274,-3.39198 2.24429,-6.79775 3.36348,-10.22953l-0.35996,-0.19206c-3.28722,-1.7662 -7.87252,-2.37788 -11.45696,-3.58625c-3.82295,-0.95312 -7.68022,-1.32127 -11.52048,-2.19381c-2.82501,-0.64187 -6.15388,-1.5139 -9.06855,-1.1654c-0.89012,0.10642 -1.00183,1.97193 -1.05727,2.7731c0.02182,0.16946 -0.00655,0.36688 -0.12254,0.59125c-0.07474,0.16179 -0.20145,0.34248 -0.41392,0.45082c-0.20934,0.11425 -0.43003,0.11687 -0.60577,0.08723c-0.2341,-0.02884 -0.40567,-0.10748 -0.53123,-0.21033l-0.69331,-0.36991c-3.26259,-1.80568 -8.85647,-3.10955 -12.50411,-3.51931c-2.86351,-0.32167 -6.69475,-0.05715 -10.51625,-0.28293c-2.66949,-0.15772 -5.52255,0.97572 -5.0912,-0.16628c1.54734,-4.09659 10.09194,-8.65905 12.9238,-10.37209c1.56084,-0.94418 8.07126,-4.26893 9.8822,-5.10032c-4.03367,-3.86613 -9.1197,-5.51461 -14.8823,-7.57828c-1.38754,-0.4969 -2.69545,-1.02955 -3.8612,-1.64033c-0.07108,-0.01943 1.66503,-1.73767 8.27961,-5.14931c8.77626,-4.52657 23.88487,-11.26775 32.70835,-13.48644c1.91051,-0.4804 3.8842,-0.97697 5.44438,-0.16188c4.72903,2.4706 8.22782,9.78501 8.76754,10.58214c2.40838,3.55694 4.7846,6.36539 6.33979,10.51658c0.10821,0.20978 0.21299,0.42138 0.31412,0.63488c0.13031,-0.1788 0.44649,-0.63547 0.93169,-1.24571c0.13335,-0.20581 0.27265,-0.40976 0.42002,-0.61204zM267.34971,99.05031l-0.20175,0.37813c0,0 -0.10034,0.18808 -0.29522,0.34423l-0.11672,0.73134c0,0 -0.47074,0.88228 -1.35301,0.41155c-0.54001,-0.28811 -0.57315,-0.7304 -0.5176,-1.03022c-0.90994,-2.77651 -10.2817,-18.14911 -15.60534,-21.85116c-1.02583,-0.71336 -10.7164,1.90291 -18.73166,5.22897c-9.58551,3.97763 -17.87399,8.94129 -21.02808,10.04335c3.86561,1.77362 7.69286,3.46585 11.39185,5.41246c2.0737,1.0913 4.29156,1.91684 6.00494,3.72176l0.29807,0.40762c0.08201,0.086 0.1567,0.19768 0.21855,0.34158c0.11479,0.26709 0.11858,0.48991 0.06618,0.67161c-0.04993,0.1824 -0.1692,0.37065 -0.40631,0.53886c-0.12133,0.08608 -0.23744,0.14131 -0.34715,0.17295c-7.5764,3.25042 -14.23865,8.0063 -21.12003,12.43911c7.61446,0.19294 16.08027,-0.06177 22.74777,3.24032c0.24447,-1.41696 0.56568,-2.50657 2.09324,-2.89293c2.29108,-0.57946 5.69685,0.23485 7.97148,0.54949c4.77135,0.65999 9.59512,1.90063 14.26614,3.07286c1.8628,0.62726 14.28217,2.65525 14.53987,4.48437c0.0375,0.26615 -0.29437,2.77654 -0.89178,4.26016c-1.14837,2.85194 -2.32346,5.42449 -2.7048,6.49195c4.73888,-1.39713 8.10125,-2.14283 13.01709,-2.89064c-0.42962,-5.61878 0.73449,-17.38861 2.53316,-27.64147c1.34334,-7.65732 3.21529,-14.66172 4.09714,-16.58105c-6.86887,1.61148 -11.22833,4.4717 -15.09566,8.42915c-0.28983,0.49233 -0.55393,0.99749 -0.83037,1.51564z" fill="#000000" stroke="none" stroke-linecap="butt"/><path d="M280.00215,137.24957c0.11682,0.04738 0.19248,0.12454 0.19248,0.12454l0.50637,0.51711c2.91496,2.47588 4.94309,5.59833 7.51764,8.31209c3.74917,5.04808 9.68052,8.65376 13.11122,13.87249c2.70762,4.12071 -2.41045,7.72336 -4.70009,10.95724c-1.0155,1.43427 -1.70769,3.56085 -3.74283,2.48884c-0.49871,-3.07873 -1.54728,-6.02309 -2.59537,-8.94655c-1.05709,-2.94852 -1.36222,-5.59893 -3.223,-8.22179c-1.1641,-2.35577 -4.607,2.02014 -6.44307,2.01803c-3.50536,-0.00405 -2.6088,-4.97438 -2.35596,-7.1935c0.6302,-5.48588 -1.56856,-9.91167 1.16247,-15.03039c0,0 0.23537,-0.44113 0.6765,-0.20577c0.44113,0.23536 0.20577,0.67649 0.20577,0.67649c-0.11272,0.21125 -0.21656,0.42161 -0.31215,0.63118z" fill="#50a5eb" stroke="none" stroke-linecap="butt"/><path d="M278.7547,141.45346c0,0 3.79681,4.54109 4.71606,5.64244c0.47956,0.57454 -4.38897,9.03998 -4.38897,9.03998z" fill="#66ffff" stroke="#66ffff" stroke-linecap="round"/><path d="M279.56071,135.91828c0.78382,0.67209 1.57288,1.33805 2.36382,2.00173c4.45047,4.12797 8.69793,8.40035 12.87659,12.81069c2.80033,2.95558 9.24377,10.04608 9.3143,10.30678c0.08659,0.25582 0.08622,0.57678 -0.11812,0.9598l-0.06724,0.12605c-2.76235,5.17744 -6.364,9.91822 -10.67492,13.88908c-0.23939,0.3059 -0.52913,0.41409 -0.79238,0.43287c-0.31754,0.05781 -0.70671,-0.00406 -1.08062,-0.4124c-0.18189,-0.19864 -0.28177,-0.39366 -0.32657,-0.57741l-0.11288,-0.14298c-0.95155,-6.15494 -2.4638,-13.01743 -4.55665,-18.97189c-2.65623,1.18453 -5.33206,2.36613 -7.87081,3.78512c-0.11605,0.08584 -0.26103,0.1597 -0.44152,0.2146c-0.34529,0.10503 -0.62121,0.08003 -0.83905,-0.00865c-0.21886,-0.08612 -0.43581,-0.25843 -0.61324,-0.57271c-0.10819,-0.19161 -0.16357,-0.36854 -0.18143,-0.53l-0.1535,-0.57885c-0.52151,-7.84982 0.04603,-16.06739 0.24498,-23.95051c0,0 0.03308,-1.24957 1.28264,-1.21649c1.24957,0.03309 1.21648,1.28264 1.21648,1.28264c-0.0059,0.21187 -0.01207,0.42405 -0.01848,0.63652c0.22427,0.1032 0.37394,0.26509 0.47382,0.43389zM280.27103,139.79509c-0.18649,-0.15636 -0.37288,-0.31288 -0.55909,-0.46956c0.01256,5.84347 -0.21633,11.70106 -0.37154,17.53456c2.01571,-1.01856 4.08606,-1.9366 6.14658,-2.85596l1.27345,-0.39718c0.40784,-0.14069 0.72417,-0.08541 0.96241,0.04399c0.24608,0.11105 0.48044,0.32823 0.61526,0.73481c2.08507,5.67197 3.6648,12.24342 4.71659,18.35043c3.20881,-3.22686 5.95518,-6.91315 8.17934,-10.89199c-3.31206,-2.33861 -16.56789,-17.97864 -20.96302,-22.04908z" fill="#000000" stroke="none" stroke-linecap="butt"/></g><g fill="none" stroke="none" stroke-width="1" stroke-linecap="butt" font-family="sans-serif" font-weight="normal" font-size="12" text-anchor="start"/></g><g stroke-linecap="round"><path d="M241.83572,91.82144c0,0 2.13631,9.98587 5.25735,20.29738c3.9477,13.04273 8.9852,26.89212 9.61218,26.60442c5.92947,-2.7208 26.67306,-12.37454 38.95338,-15.52982c5.42683,-1.39436 15.43423,-2.51484 15.43423,-2.51484c0,0 -11.37833,2.7854 -20.11662,6.0606c-15.09661,5.65836 -31.67002,13.34569 -35.48129,14.74271c-0.6449,0.23639 -5.67946,-13.26307 -9.6016,-26.45124c-4.46922,-15.02774 -4.05762,-23.2092 -4.05762,-23.2092z" fill="#000000" stroke="#000000" stroke-width="0.5"/><path d="M254.46429,138.56474c0,0 -2.53649,10.15137 -4.20008,7.68622c-3.07378,-4.55481 -1.37135,-24.68622 -1.37135,-24.68622z" fill="#000000" stroke="#000000" stroke-width="2.5"/><path d="M262.75,138.42189l15,-7c0,0 -8.13293,17.27156 -13.70959,17.96924c-1.62237,0.20297 -1.29041,-10.96924 -1.29041,-10.96924z" fill="#000000" stroke="#000000" stroke-width="2.5"/><path d="M237.17857,142.42189c0,0 5.01132,6.27666 12.98637,9.03934c9.70772,3.36291 22.99151,1.37716 22.77015,2.01204c-0.08504,0.2439 0.2889,1.2399 0.25026,1.80625c-0.1979,2.90111 -0.39675,9.34257 -1.81036,14.3005c-1.10478,3.87477 -2.69748,6.5577 -5.63029,6.22206c-0.35925,-0.04111 -1.94802,-0.92923 -2.67177,-2.11714c-3.15888,-5.18481 -7.46051,-18.65935 -7.90107,-18.96774c-1.07876,-0.75513 -6.23627,-1.42391 -10.34611,-3.91371c-5.46027,-3.30791 -7.64718,-8.38159 -7.64718,-8.38159z" fill="#000000" stroke="#000000" stroke-width="0.5"/><path d="M258.13567,155.68602c2.40325,0.81859 10.36956,0.30611 12.75389,0.39203c0.54431,0.01961 -1.61826,17.40338 -4.06965,17.33451c-1.54747,-0.04348 -4.19529,-6.39057 -6.09792,-11.30895c-1.38764,-3.58712 -2.91886,-6.53085 -2.58632,-6.41758z" fill="#ff6666" stroke="#ff6666" stroke-width="0.5"/></g><g><g><path d="M168.87723,195.59235c1.1865,-0.64419 2.52299,-1.84148 3.96307,-1.61118c3.87975,0.62045 7.59059,4.26002 10.62075,6.50639c0.97544,0.72313 2.20889,1.3636 2.6847,2.48076c0.83851,1.9687 -1.51078,2.79382 -2.39054,3.74996c-1.69102,1.83787 -2.39148,4.55234 -4.25802,6.37647c-1.01216,0.98918 -3.17303,1.01726 -4.45356,1.24915c-1.40439,0.52813 -6.27764,1.822 -7.61596,0.48333c-1.07795,-1.0782 -1.95767,-3.84925 -2.70054,-5.21754c-0.54763,-1.00867 -1.67054,-1.82027 -1.78671,-2.96209c-0.0931,-0.91513 0.61375,-1.7475 0.86948,-2.63109c0.73885,-2.55281 2.45883,-5.49965 4.05149,-7.87192z" data-paper-data="{&quot;noHover&quot;:false,&quot;origItem&quot;:[&quot;Path&quot;,{&quot;applyMatrix&quot;:true,&quot;segments&quot;:[[[149.94202,212.32093],[0,0],[-2.35446,1.23222]],[[143.17243,216.93298],[1.73675,-1.75867],[-0.60112,0.60871]],[[141.29885,218.68699],[0.33,-0.78929],[-0.41175,0.98483]],[[141.44689,221.88588],[0,-1.06744],[0,1.44805]],[[141.33271,227.32542],[-0.4026,-1.35962],[0.49986,1.68806]],[[147.74833,230.28825],[-1.38224,-0.19154],[1.14955,0.3787]],[[151.92038,231.23942],[-1.26624,0.35934],[2.33511,-0.66266]],[[158.1958,227.93329],[-2.19773,0.75176],[1.14337,-0.3911]],[[161.80428,225.94417],[-0.18828,1.98122],[0.10684,-1.12425]],[[160.70743,222.73868],[0.47638,1.02392],[-1.47986,-3.18076]],[[154.94562,212.75942],[2.89578,2.22881],[-1.07486,-0.8273]],[[151.01184,212.32093],[1.25564,0],[0,0]]],&quot;closed&quot;:true}]}" fill="#465e85" stroke="none" stroke-width="0.5" stroke-linecap="butt"/><path d="M169.24366,196.53741c-1.48122,2.20632 -3.06153,4.909 -3.74872,7.28324c-0.23784,0.82178 -0.89624,1.58434 -0.80966,2.43543c0.10805,1.06195 1.14712,1.80253 1.65642,2.74065c0.69092,1.27258 1.49255,3.83212 2.49508,4.83488c1.24474,1.24501 5.74576,0.03385 7.05191,-0.45733c1.19096,-0.21569 3.179,-0.23476 4.12035,-1.15472c1.73597,-1.69655 2.3648,-4.19048 3.93752,-5.89978c0.81821,-0.88926 3.00199,-1.63888 2.22212,-3.46985c-0.44254,-1.03899 -1.58619,-1.62116 -2.4934,-2.29373c-2.81821,-2.08922 -6.21679,-5.44379 -9.82513,-6.02085c-1.33934,-0.2142 -2.56284,0.89248 -3.66635,1.49162zM169.30493,193.08231c1.58952,-0.90449 2.91275,-1.75885 4.92561,-1.52275c4.13102,0.4845 8.08808,4.22761 11.26739,6.61376c1.37092,1.0289 2.92038,2.14128 3.52282,3.746c1.14876,3.05996 -1.13316,4.60712 -2.8268,6.38778c-1.6909,1.7778 -2.31222,4.45171 -4.26417,6.21701c-1.42192,1.28596 -3.47106,1.43603 -5.25365,1.74499c-2.43152,0.89199 -7.46451,1.81628 -9.72731,-0.1061c-1.29365,-1.09901 -2.40876,-4.19731 -3.24354,-5.73486c-0.3418,-0.62954 -1.96672,-3.54525 -2.01627,-4.02401c-0.06967,-0.67276 0.48117,-1.26662 0.65782,-1.91953c1.02956,-3.80515 2.98836,-7.57325 5.23932,-10.82813c0,0 0.69016,-0.988 1.71883,-0.57417z" fill="#000000" stroke="none" stroke-width="0.5" stroke-linecap="butt"/><g stroke="none" stroke-width="0.5" stroke-linecap="butt"><path d="M196.00729,199.34537c-2.15345,-3.19253 -3.74672,-6.90099 -5.57602,-10.27029c-0.6138,-1.13053 -3.30534,-4.94665 -2.70465,-6.15824c0.74477,-1.5022 3.01901,-1.46277 4.49072,-2.26614c3.97928,-2.17222 8.00602,-4.93396 12.39936,-6.06148c7.0045,0.12281 9.44556,4.72704 12.84093,10.09245c1.64948,2.60654 3.57929,6.61533 0.96535,9.41873c-2.80272,3.00584 -7.69664,2.33145 -8.50962,7.02776c-0.10865,1.09751 0.3707,2.23926 0.09552,3.30726c-0.13097,0.50834 -0.21053,2.61438 -0.42056,2.89407c-3.28444,4.37367 -8.19629,0.15301 -10.79538,-3.38965c-0.00457,-0.00613 -0.00905,-0.01226 -0.01352,-0.01846c-0.26252,-0.3585 -0.51037,-0.71624 -0.74126,-1.06483l-0.51867,-0.74521l0.02886,-0.02008c-0.28685,-0.46396 -0.53694,-0.89761 -0.74398,-1.27784z" fill="#f49285"/><path d="M176.10449,187.05782c-0.05063,-1.49914 1.44854,-1.54974 1.44854,-1.54974l0.03998,0.08476c2.65879,-1.04391 5.35351,-2.01683 7.9371,-3.24105c-0.07351,-0.44727 -0.00371,-1.07918 0.77398,-1.5014c0.82781,-0.44944 1.41801,-0.0968 1.74258,0.22779c8.8729,-4.7183 18.55673,-11.69595 27.5314,-3.31102c2.90785,3.90169 7.39739,10.72123 4.89151,15.84236c-1.59318,3.25585 -6.30424,3.89909 -8.45883,6.87176c-1.36929,1.88921 0.34439,3.72187 0.24745,5.77862c-0.15939,3.38197 -3.39288,4.36183 -6.23014,4.8597c-2.55285,-0.43637 -6.0948,-1.35308 -7.88832,-3.39337c-3.40653,-3.87525 -4.5736,-9.7745 -6.73064,-14.33256c-1.34892,-2.8504 -2.96261,-5.60485 -4.5191,-8.36691c-2.67027,1.26844 -5.45133,2.27915 -8.2006,3.35858l-1.03513,0.12104c0,0 -1.49914,0.05063 -1.54974,-1.44853zM189.55128,183.64019c1.57006,2.78689 3.19596,5.5665 4.55645,8.44295c3.00916,6.36215 3.96118,14.49456 11.92285,16.03643c0.8605,-0.15616 2.63894,-0.61064 3.24006,-1.25075c0.66757,-0.71088 -0.83377,-3.51257 -0.88221,-4.13454c-0.07874,-1.01085 0.52771,-3.0376 1.105,-3.88489c0.40887,-0.60014 2.70348,-2.92482 3.4071,-3.41307c1.14483,-0.79441 4.23242,-1.71546 4.90047,-3.19745c1.73604,-3.8512 -2.37362,-9.65725 -4.46002,-12.47285c-7.3633,-6.88647 -16.33484,-0.28283 -23.78971,3.87419z" fill="#000000"/></g><path d="M185.27852,210.20925c0.27451,0.23318 0.49234,0.60729 0.45563,1.20655c-0.02996,0.48913 -0.20993,0.80866 -0.43871,1.0172c-0.14925,0.35177 -0.46266,0.69501 -1.10439,0.80891c-0.68951,0.12238 -1.11425,-0.13431 -1.37117,-0.44277c-2.81861,0.05404 -6.05227,0.60746 -8.50536,-0.56412c-2.56171,-1.22347 -3.28588,-3.78611 -4.67248,-6.00401c-1.09283,-1.74801 -2.89651,-2.75789 -4.21214,-4.29924c-0.57962,-0.67909 -2.2011,-2.98012 -2.29751,-3.88898c-0.17899,-1.68726 1.3322,-4.22948 1.94646,-5.76959c0.87057,-2.93349 2.34776,-6.23801 2.60975,-9.30202c0.13979,-1.63482 -0.80779,-5.30661 -0.37244,-6.63948c1.16586,-3.56939 7.30803,-4.0064 9.71675,-6.15436c0.45109,-0.40222 -1.37536,-3.40277 -1.37668,-3.40928c-0.28894,-1.45212 0.16973,-2.95631 0.24236,-4.43511c2.14573,-3.13894 3.71345,-3.15861 7.17015,-3.38102c1.58011,-0.10167 4.13093,-1.13177 5.68194,-0.344c0.45388,0.23052 0.75349,0.63132 1.00725,1.08682c0.14439,-0.0101 0.28864,0.00094 0.42824,0.03174l2.16023,0.46322l-0.09811,0.45757c3.44698,0.30659 7.16599,1.45147 9.77032,3.40331c3.02682,2.26849 5.32082,8.86292 5.03626,12.50101c-0.48739,6.23097 -5.26315,9.57025 -8.52676,14.30355c-2.17785,3.15859 -4.14564,5.50658 -7.17347,7.94611c-4.10853,3.29968 -6.09524,6.26706 -6.07612,11.40799z" fill="#fddfbd" stroke="none" stroke-width="0.5" stroke-linecap="butt"/><path d="M172.082,209.64108c3.6115,1.91605 8.37742,2.85285 9.16507,-2.42553c0.10783,-0.72266 -0.44065,-1.40574 -0.63209,-2.11085c-0.4598,-1.69343 -0.9919,-3.35035 -1.62876,-4.96802c2.71629,1.99968 6.18893,2.21262 8.89493,3.95972c0.67658,0.43684 1.41913,0.79299 2.17192,1.07914c0.59954,0.2279 2.01783,0.07089 1.805,0.67596c-0.59732,1.69825 -1.55467,3.68702 -2.34806,5.38349c-0.71767,1.53456 -1.22569,2.01095 -2.69353,2.8079c-3.24265,0.53996 -5.89666,-0.59195 -8.95091,-1.33032c-1.87127,-0.45239 -3.87531,-0.30614 -5.1967,-1.99128c-0.24734,-0.31542 -0.47559,-0.67889 -0.68481,-1.0602z" data-paper-data="{&quot;noHover&quot;:false,&quot;origItem&quot;:[&quot;Path&quot;,{&quot;applyMatrix&quot;:true,&quot;segments&quot;:[[[292.27259,450.35302],[0,0],[0.00386,0.86986]],[[292.46735,452.85822],[-0.13372,-0.79044],[0.71446,4.22288]],[[299.69469,461.2609],[-2.85734,-2.58084],[4.6637,4.21236]],[[314.05027,472.08106],[-6.21472,-2.14538],[3.3405,0]],[[321.42067,469.73416],[-2.7258,2.01234],[3.01346,-2.22472]],[[330.64919,462.5618],[-2.6705,2.41496],[0.95146,-0.86042]],[[328.11865,459.6624],[0.8363,0.97272],[-1.05006,-1.22134]],[[325.32895,455.71702],[0.77232,1.41342],[-3.08898,-5.6531]],[[313.56087,440.36446],[2.86608,6.10686],[-0.4243,3.45106]],[[311.69295,450.6516],[0.80786,-3.41526],[-0.33638,1.42204]],[[310.84131,454.95192],[0.87914,-1.16726],[-6.42148,8.52596]],[[292.27261,450.35306],[4.51934,6.8141],[0,0]]],&quot;closed&quot;:true,&quot;fillColor&quot;:[0,0,0,1]}]}" fill="#f49285" stroke="none" stroke-width="0.5" stroke-linecap="butt"/><path d="M182.82722,199.3205c3.43877,-0.53711 7.24265,-2.11678 8.95327,-5.27463c0.35581,-0.65681 0.5506,-2.0452 0.5156,-3.32742c0.93732,0.67099 2.08047,1.09698 3.1688,1.31178c0.36596,0.07222 2.93877,0.05952 2.95933,0.90535c0.02087,0.85906 -0.69974,1.57768 -1.0307,2.37069c-0.29929,1.46865 -0.41164,3.42818 -1.04331,4.81928c-0.58503,1.28838 -2.00447,1.87153 -3.16089,2.49764c-0.81955,0.44371 -1.4966,1.32515 -2.42197,1.43584c-0.82979,0.09926 -1.55908,-0.65452 -2.32994,-0.97728c-2.02554,-0.84812 -3.93172,-2.23682 -5.61021,-3.76128z" data-paper-data="{&quot;noHover&quot;:false,&quot;origItem&quot;:[&quot;Path&quot;,{&quot;applyMatrix&quot;:true,&quot;segments&quot;:[[[321.19917,442.52486],[0,0],[1.49544,4.28122]],[[327.45837,454.40592],[-2.75086,-3.4236],[1.04692,1.30294]],[[330.59357,458.31922],[-1.55322,-0.6174],[1.73212,0.6885]],[[336.18071,458.09086],[-1.86394,-0.00216],[2.63006,0.00304]],[[344.04827,456.7328],[-2.25774,1.70622],[2.43778,-1.84228]],[[350.43759,449.32674],[-1.92754,2.29582],[1.33848,-1.07802]],[[354.51083,446.1658],[-0.7831,1.52982],[0.77104,-1.5063]],[[350.18243,441.78466],[0.57428,0.47616],[-1.70792,-1.41612]],[[345.89649,436.49366],[1.00718,2.07384],[-1.16208,2.28712]],[[341.81685,441.85142],[1.25216,-0.81492],[-6.02014,3.91802]],[[321.19919,442.52488],[6.55672,2.33748],[0,0]]],&quot;closed&quot;:true,&quot;fillColor&quot;:[0,0,0,1]}]}" fill="#f49285" stroke="none" stroke-width="0.5" stroke-linecap="butt"/><path d="M210.52874,186.91964c-0.24477,0.82775 -0.60466,1.67825 -1.05538,2.48307l-1.3391,0.72775c-0.31084,0.11455 -0.61592,0.22721 -0.90995,0.33645c-0.31775,0.04396 -0.6438,0.18117 -0.97311,0.36954c-1.65007,0.64394 -3.03719,1.30451 -4.21338,2.3654c-1.71708,0.36555 -4.69036,0.64661 -5.67798,0.33675c-0.76121,-0.23883 -1.35233,-1.55357 -1.73677,-2.58806c0.2031,-0.05621 0.37383,-0.22005 0.37383,-0.22005c1.38472,-0.75179 3.962,-1.68391 5.00127,-2.81001c0.9679,-1.04878 1.42971,-3.09423 1.82542,-4.4265c1.59466,-5.36897 1.49599,-9.67247 -1.21467,-14.67591c-0.83336,-1.53824 -1.8567,-4.43432 -3.45289,-5.82923c1.68107,0.4115 3.71737,0.3079 5.19938,1.22304c1.42703,0.88117 1.87317,3.13679 2.76773,4.4326c1.67625,2.42814 4.63409,3.83707 6.13309,6.24759c0.4604,0.74035 1.35227,1.36476 1.37446,2.2363c0.01034,0.4057 -0.50023,0.67877 -0.57474,1.07769c-0.53401,2.85845 -0.94443,5.79906 -1.52715,8.71356z" data-paper-data="{&quot;noHover&quot;:false,&quot;origItem&quot;:[&quot;Path&quot;,{&quot;applyMatrix&quot;:true,&quot;segments&quot;:[[[381.59284,447.04069],[0,0],[3.8055,-4.5666]],[[392.54006,433.22621],[-3.66638,4.5146],[0.51168,-0.63006]],[[394.57458,431.88833],[-0.369,0.72294],[0.7927,-1.55304]],[[394.28604,426.66537],[0.1027,1.74062],[-0.3344,-5.6673]],[[389.48224,409.91035],[0.62914,5.86744],[-0.33576,-3.13126]],[[388.8702,399.50235],[1.66732,2.91058],[-1.73158,-3.02274]],[[380.93036,392.40715],[2.56208,2.32748],[1.47438,3.97498]],[[381.51618,405.76605],[0.00316,-3.49896],[-0.01024,11.38102]],[[369.57254,432.90379],[7.92632,-7.91502],[-1.96688,1.96408]],[[362.11264,438.93129],[2.70206,-0.91974],[-2.90128,0.98756]],[[350.61324,439.07441],[3.15128,0],[0,0]],[[349.90228,438.97939],[0.41062,0.09502],[-0.31148,2.18516]],[[350.47416,445.17377],[-1.11004,-1.1462],[1.4402,1.48712]],[[360.74526,449.98123],[-3.36688,-0.99606],[3.07972,-0.74228]],[[370.37742,449.83737],[-3.51474,-0.44278],[0.75856,-0.01684]],[[372.43326,450.11627],[-0.60044,-0.22594],[0.62106,0.08858]],[[374.34712,450.39349],[-0.65566,-0.09528],[0,0]],[[377.38508,450.39349],[0,0],[1.56024,-0.9845]],[[381.59282,447.04071],[-1.22014,1.22132],[0,0]]],&quot;closed&quot;:true,&quot;fillColor&quot;:[0,0,0,1]}]}" fill="#f49285" stroke="none" stroke-width="0.5" stroke-linecap="butt"/><path d="M188.4996,180.21342c0.22612,0.07938 0.46848,0.30593 0.70751,0.6244c0.40809,0.88531 0.76458,1.77352 1.03724,2.27572c1.69739,3.12635 3.04964,6.5224 5.84426,8.74337c0.02291,0.05897 0.04946,0.11763 0.08042,0.17466c0.25237,0.46483 0.63114,0.68812 1.12201,0.72548l0.25204,0.06966c-0.10815,0.11391 -0.22001,0.24562 -0.33221,0.3982l-0.69561,0.99502c-1.83075,-0.61828 -3.48276,-1.68182 -4.78744,-3.44125c-1.7535,-2.36471 -2.34149,-6.10334 -4.49194,-8.14109c-1.36626,-1.29465 -4.06417,-1.58446 -5.80616,-1.42177c-0.34232,0.03198 -0.75526,0.06793 -1.09205,0.1393c2.56984,-1.28574 5.86146,-1.94917 8.16192,-1.14173z" data-paper-data="{&quot;noHover&quot;:false,&quot;origItem&quot;:[&quot;Path&quot;,{&quot;applyMatrix&quot;:true,&quot;segments&quot;:[[[333.91683,408.63274],[5.74384,0.19247],[0.66002,0.19593]],[[335.8855,409.24853],[-0.63215,-0.27045],[3.21708,1.37635]],[[344.78461,417.28125],[-1.16594,-3.57933],[1.83515,5.63376]],[[344.91498,436.07495],[-0.82548,-5.82966],[0.61419,4.33751]],[[349.99713,446.49874],[-2.62782,-2.83381],[0,0]],[[352.15812,445.41825],[0,0],[0.34282,-0.16111]],[[353.11747,445.03776],[-0.29878,0.09703],[0,0]],[[352.83654,444.85047],[0,0],[-0.8271,-0.53416]],[[351.46193,442.32851],[0,1.05784],[0,-0.12982]],[[351.48617,441.94533],[-0.016,0.12547],[-2.79252,-6.57054]],[[349.53759,421.16078],[0,7.11479],[0,-1.1429]],[[349.90569,416.18539],[-0.12758,1.9455],[-0.11618,-0.78785]],[[349.26689,414.41716],[0.32171,0.35528],[-3.27291,-3.61451]]],&quot;closed&quot;:true}]}" fill="#000000" stroke="none" stroke-width="0.5" stroke-linecap="butt"/><path d="M189.77312,205.61866c-0.72228,0.29763 -2.98663,-0.98075 -3.5497,-1.25074c-1.66554,-0.79867 -4.1187,-1.26914 -5.36409,-2.75258c-1.13222,-1.34863 -1.5516,-3.26906 -2.77937,-4.63068c-0.85775,-0.95128 -2.90382,-2.37691 -4.67419,-2.86764c1.15644,-0.69423 2.44297,-1.34273 3.61458,-1.14174c1.65288,0.28355 3.13996,2.72345 4.24348,3.75477c1.77335,1.65737 2.75219,3.90966 4.93239,5.29453c1.40203,0.89057 3.92078,1.08591 5.41091,1.65004c-0.53997,0.83688 -1.17257,1.6715 -1.83401,1.94405z" data-paper-data="{&quot;noHover&quot;:false,&quot;origItem&quot;:[&quot;Path&quot;,{&quot;applyMatrix&quot;:true,&quot;segments&quot;:[[[332.32289,458.44583],[-1.74771,0.95566],[-5.31642,-6.16662]],[[320.82948,436.55107],[2.52271,7.56691],[-0.95542,-2.86579]],[[316.97562,425.8992],[2.63462,2.07571],[-1.86749,-1.47132]],[[309.56314,424.44377],[2.69509,-0.11667],[2.64337,2.55195]],[[315.04621,433.9419],[-0.59988,-2.49057],[0.85864,3.56492]],[[315.54628,444.61182],[-0.70308,-3.45088],[0.77335,3.79581]],[[322.24548,454.50921],[-2.1653,-2.99318],[0.73203,1.01191]],[[327.26825,460.1002],[-1.55353,-0.16613],[1.42267,0.15213]]],&quot;closed&quot;:true}]}" fill="#000000" stroke="none" stroke-width="0.5" stroke-linecap="butt"/><path d="M192.07409,159.71748c0,0 9.9451,5.12355 12.94535,7.68271c3.66369,3.12509 7.4468,9.7115 7.4468,9.7115c0,0 -0.13239,3.61455 -0.79739,5.60476c-0.8522,2.55049 -3.89496,8.4386 -3.89496,8.4386c0,0 -5.22334,1.70612 -6.81425,2.08055c-1.90998,0.44952 -3.86439,0.43268 -3.86439,0.43268l1.14773,2.11395c0,0 -0.42952,2.63083 -0.96593,3.83946c-0.53045,1.19521 -2.2349,3.37252 -2.2349,3.37252l-5.74397,2.02374l2.64565,1.84811c0,0 -0.83974,2.49082 -1.42253,3.61793c-0.6549,1.26661 -2.31587,3.6122 -2.31587,3.6122c0,0 -4.51288,0.14301 -6.63009,-0.03947c-2.57744,-0.22214 -7.72716,-1.19798 -7.72716,-1.19798c0,0 -3.85056,-4.33647 -5.6267,-7.00703c-1.69765,-2.55255 -4.80533,-8.67839 -4.80533,-8.67839c0,0 -0.04978,-2.22724 0.21728,-3.12875c0.59715,-2.01583 3.26115,-8.61329 3.26115,-8.61329c0,0 0.75222,-2.09883 0.82743,-3.2167c0.10547,-1.56784 -0.25409,-5.30582 -0.25409,-5.30582l7.59209,-4.66937c0,0 1.30429,-3.15869 1.29816,-3.67925c-0.01767,-1.50059 -0.14507,-6.80027 -0.14507,-6.80027l3.13463,-2.79673c0,0 4.47055,-0.83073 6.30333,-0.72211c2.30163,0.13643 6.42307,1.47642 6.42307,1.47642z" fill="none" stroke="#000000" stroke-width="3" stroke-linecap="round"/></g><path d="M191.42481,168.29789l0.03962,-0.14954c0.38871,-0.43147 3.04724,-3.16379 3.64571,-2.98484c0.09676,0.02893 0.97326,1.79754 1.11798,2.06958c0.76135,1.43125 1.78439,2.67211 2.91956,3.82007c3.77104,3.38642 9.38523,7.76365 14.71688,7.4723c0.41318,0.15696 1.03202,0.08065 1.23954,0.47089c0.17781,0.33441 -0.60431,1.24391 -0.8723,1.49008c-1.02761,0.9439 -2.27952,2.53147 -3.48101,3.17607c-0.6974,0.37415 -1.81382,-0.02424 -2.50919,-0.14833c-2.92217,-0.52151 -5.27536,-0.61523 -8.05607,-1.8353c-4.47484,-3.09807 -6.89137,-7.72602 -8.90358,-12.80808c0,0 -0.14245,-0.36178 0.14289,-0.5729z" fill="#485e84" stroke="none" stroke-width="0.5" stroke-linecap="butt"/><path d="M205.23457,175.04664c-0.07072,0.02118 -0.12389,0.02402 -0.12389,0.02402c-6.57807,0.35141 -9.60244,-5.5903 -11.48744,-11.04795c-0.49778,-1.44255 -1.27746,-3.60943 -0.88252,-5.18014c0.55826,-2.22021 1.88069,-4.06749 2.72432,-6.0773c-0.18462,-0.06551 -0.32112,-0.2369 -0.33222,-0.44472c-0.00299,-0.05606 0.00336,-0.11046 0.01772,-0.16167l0.20842,-0.81624c0.31921,-1.24637 0.27519,-2.41903 0.76714,-3.46692l-0.18065,-0.07858l0.21865,-0.50269c0.07103,-0.17316 0.23684,-0.29914 0.43615,-0.30979c0.27575,-0.01473 0.51123,0.19687 0.52596,0.47262l0.00811,0.15184c0.18322,-0.32408 0.36361,-0.63947 0.52504,-0.94427c1.35203,-2.55265 2.74419,-4.47178 4.91987,-5.70881c0.03124,-0.08275 0.0839,-0.1554 0.15154,-0.21078l0.76238,-0.63809l0.10445,0.1248c3.53676,-3.14437 10.61424,-4.47373 14.85237,-3.33539c3.49068,0.96134 7.49025,3.27545 8.7498,7.03875c0.90289,2.69765 0.61885,6.14055 0.75483,8.95945c-0.71995,2.94259 -1.73986,5.72147 -2.83681,8.54459c-0.37844,0.97396 -0.71192,2.65585 -1.39389,3.44884c-1.56237,1.81672 -4.54196,2.76597 -6.44449,4.25792c-3.49235,2.73343 -6.91768,5.64399 -11.41984,5.8845l-0.49929,0.02667c0,0 -0.05318,0.00284 -0.12575,-0.01069zM206.59009,139.40951c0.12543,-0.05435 0.25126,-0.10879 0.37626,-0.1646c-0.12784,0.04763 -0.25304,0.10319 -0.37626,0.1646z" fill="#485e84" stroke="none" stroke-width="0.5" stroke-linecap="butt"/><path d="M196.06446,165.41192c0.1057,-0.00682 0.2272,0.02541 0.35301,0.13848c0.16538,0.14861 0.19113,0.30467 0.16875,0.43217c0.00131,0.01228 0.00232,0.0249 0.00302,0.03788c0.01981,0.3708 -0.25048,0.48094 -0.3909,0.51306c-1.12874,1.18112 -2.4185,2.08362 -3.58871,3.20726c-0.28156,0.27037 -0.85208,1.1251 -1.31493,0.91763c-0.80927,-0.36275 -0.60647,-1.38616 -0.69666,-2.01534c-0.25093,-1.75069 -0.43938,-3.42868 -0.52762,-5.21464c0.14814,-0.75312 0.44587,-1.27845 0.87043,-1.91307c0.28717,-0.42924 1.7366,-3.04158 2.27487,-2.94971c2.05081,0.35002 1.69651,5.19754 2.84872,6.84628z" fill="#ff66ca" stroke="none" stroke-width="0.5" stroke-linecap="butt"/><path d="M190.73544,168.49202c-0.26321,-0.31187 -0.35332,-0.66126 -0.35332,-0.66126l-0.23346,-1.76103c0.36893,-1.24113 0.15237,-2.75767 0.97059,-3.76116c2.81717,-3.45507 2.98845,-2.17099 4.52699,0.46203c0.36229,0.62003 0.89132,1.22637 0.92952,1.94348c0.14494,2.72035 -2.71253,4.57818 -4.22228,6.49254c0,0 -0.52824,-0.68026 -1.70538,-1.61001c-1.17713,-0.92972 -0.64889,-0.24946 -0.64889,-0.24946c0.23312,-0.29474 0.4808,-0.57815 0.73619,-0.85513z" fill="#8fbbbe" stroke="none" stroke-width="0.5" stroke-linecap="butt"/><path d="M197.64466,168.92611c0.43465,-0.24714 0.68179,0.1875 0.68179,0.1875l0.11053,0.19439c0.06066,0.10675 0.11812,0.21065 0.17241,0.31191c0.03094,0.02318 0.06184,0.0515 0.0924,0.08579c0.11629,0.13044 0.14635,0.25594 0.13625,0.36403c1.11782,2.33953 0.30686,3.19119 -1.64196,5.35999c-0.33297,0.52462 -0.42867,1.30449 -0.98401,1.58324c-0.98076,0.49227 -2.62831,-1.43595 -2.4229,-2.37069c0.27385,-1.24623 2.65147,-3.55924 3.87162,-4.67445c-0.03004,-0.05408 -0.06107,-0.10924 -0.09311,-0.16553l-0.11053,-0.19439c0,0 -0.24715,-0.43466 0.18749,-0.68179z" fill="#8fbbbe" stroke="none" stroke-width="0.5" stroke-linecap="butt"/><path d="M230.22268,146.81642l2.41538,5.3788l0.00751,9.51315l-2.16303,6.37446l-3.40645,4.18769l-9.99534,5.04039l-7.65415,-0.34216l-5.94854,-3.56274c0,0 -2.95477,-2.78825 -3.92179,-3.70078c-0.56761,-0.53563 -0.70037,-0.80907 -0.70037,-0.80907c0,0 7.73785,4.25288 15.48419,0.46424c15.74608,-7.70123 11.32524,-28.1839 11.32524,-28.1839z" fill="#343545" stroke="#343545" stroke-width="1.5" stroke-linecap="round"/><path d="M218.43378,176.8631c0.04001,0.74893 -0.70892,0.78895 -0.70892,0.78895l-0.31761,0.01388c-2.872,-0.11461 -5.71318,-0.87557 -8.18672,-2.27994c-2.56874,1.2622 -4.66637,1.58068 -7.49585,-0.41631c-0.95441,-0.67361 -1.78986,-0.91961 -1.78526,-2.36904c0.00083,-0.26557 1.00837,-1.54883 1.19053,-1.79744c0.53169,-0.72563 1.06002,-1.4373 1.60373,-2.13205c-1.08964,-1.60811 -2.36435,-3.46991 -3.30694,-5.16727c-0.45195,1.10523 -1.78083,5.12006 -2.76093,5.26801c-1.41835,0.21412 -0.88405,-0.95444 -1.12263,-1.60286c-0.02126,-0.05781 -0.04221,-0.11556 -0.06283,-0.17323c-0.64846,0.92347 -2.95171,-6.26849 -2.93071,-6.29378c-0.06326,-0.13234 -0.09165,-0.32442 0.09109,-0.52779c0.33418,-0.37191 0.7061,-0.03772 0.7061,-0.03772l0.17165,0.16729c0.18307,0.24696 0.4114,0.62092 0.65137,1.0697c-0.15402,-0.96956 -0.29994,-1.95376 -0.48096,-2.96963c-0.04855,-0.13214 -0.04774,-0.26597 -0.03264,-0.37217c0.0101,-0.11039 0.04188,-0.24601 0.1255,-0.36639l0.08402,-0.18524c0.49157,-0.82695 0.86212,-1.71571 1.2548,-2.59393c-0.43939,-1.06166 -0.7547,-2.17413 -0.82472,-3.39653c0,0 -0.04001,-0.74893 0.70892,-0.78895c0.74893,-0.04001 0.78895,0.70892 0.78895,0.70892c0.02766,0.56609 0.11805,1.10941 0.2551,1.63582c1.01473,-1.69548 2.36793,-3.29374 3.91668,-4.73291c-0.33109,-2.4178 -0.2493,-4.88914 0.43824,-7.40095c0,0 0.19887,-0.72315 0.92202,-0.52427c0.72315,0.19887 0.52427,0.92202 0.52427,0.92202c-0.53704,1.9427 -0.67702,3.89128 -0.52361,5.81911c2.10439,-1.71607 4.46154,-3.14417 6.77393,-4.15548c-0.32291,-1.56243 -0.53556,-3.19838 -0.62942,-4.95535c0,0 -0.04001,-0.74893 0.70892,-0.78895c0.74893,-0.04001 0.78895,0.70892 0.78895,0.70892c0.08362,1.56528 0.26449,3.02921 0.5368,4.42879c2.19409,-1.04425 4.49766,-2.59741 6.78139,-3.18037c0.36564,-0.09334 0.73642,-0.16026 1.11099,-0.20658c-0.21273,-0.23801 -0.43824,-0.46363 -0.67888,-0.67443l-0.47499,-0.55578c0,0 -0.48137,-0.57514 0.09377,-1.05651c0.57514,-0.48137 1.05651,0.09377 1.05651,0.09377l0.32729,0.40278c0.55878,0.51193 1.03987,1.08681 1.47079,1.70196c1.83979,0.02022 3.71809,0.30441 5.48578,0.20998c0,0 0.74893,-0.04001 0.78895,0.70892c0.04001,0.74893 -0.70892,0.78895 -0.70892,0.78895c-1.48302,0.07922 -3.06876,-0.13152 -4.63626,-0.20616c0.7741,1.39174 1.42228,2.88292 2.19792,4.26534c0.57762,-0.09609 1.15025,-0.21122 1.71178,-0.37011c0.78113,-0.22101 1.72347,-1.19615 2.60825,-0.87467c1.59974,0.58123 1.11542,1.06844 1.78508,2.11998c0.43559,0.68399 2.17516,1.74246 2.23882,2.51119c0.0454,0.54839 -1.02649,1.42898 -1.4419,1.79332c-0.86497,0.75866 -1.67727,1.58761 -2.51062,2.38858c1.02469,1.68986 2.03366,3.36962 2.90633,5.10325c0.29802,-0.78696 0.59154,-1.56998 0.91755,-2.32042c0.22274,-0.49733 0.38263,-1.0355 0.42392,-1.57887l-0.02854,-0.39296c0,0 -0.04001,-0.74893 0.70892,-0.78895c0.74893,-0.04001 0.78895,0.70892 0.78895,0.70892l0.0248,0.60561c-0.06911,0.7017 -0.2668,1.3956 -0.54253,2.04456c-0.50663,1.16334 -0.94305,2.382 -1.42696,3.57679c0.96979,2.26568 1.64978,4.65519 1.7911,7.30051c0,0 0.04001,0.74893 -0.70892,0.78895c-0.74893,0.04001 -0.78895,-0.70892 -0.78895,-0.70892c-0.10411,-1.94875 -0.52091,-3.75561 -1.13815,-5.47666c-0.63504,1.27727 -1.40821,2.47164 -2.48258,3.47331c-0.69123,0.64446 -1.43492,1.25403 -2.21756,1.83553c1.04072,0.94055 2.13197,1.83233 3.41322,2.37951c0.25631,0.11148 0.51262,0.22297 0.76894,0.33445l0.03531,-0.08118c0,0 0.74893,-0.04001 0.78895,0.70892c0.04001,0.74893 -0.70892,0.78895 -0.70892,0.78895l-0.71362,-0.04117c-0.25631,-0.11148 -0.51262,-0.22297 -0.76894,-0.33445c-1.50751,-0.66542 -2.97279,-1.57966 -4.37314,-2.66377c-1.79945,1.19245 -3.74202,2.27303 -5.68876,3.31224c2.73839,0.966 5.82665,1.40638 8.61974,2.04032l0.38818,0.15484c0,0 0.68776,0.29914 0.38862,0.9869c-0.29914,0.68776 -0.9869,0.38862 -0.9869,0.38862l-0.12444,-0.06814c-3.14199,-0.72408 -6.64576,-1.18119 -9.63736,-2.41006c-0.13091,-0.05378 -0.26166,-0.11018 -0.39224,-0.16911c-1.70693,0.89962 -3.38481,1.78347 -4.93852,2.69983c-0.06879,0.03912 -0.13715,0.07786 -0.20509,0.11621c2.06281,1.00408 4.36235,1.54786 6.65945,1.6269l0.18168,-0.01279c0,0 0.74893,-0.04001 0.78895,0.70892zM205.31578,172.25186c-0.59417,-0.78011 -1.15694,-1.54366 -1.69413,-2.30066c-0.27432,0.35633 -0.54519,0.71843 -0.81495,1.0866c-0.24673,0.33673 -1.34459,1.3995 -1.37551,1.71947c-0.05491,0.56826 1.41802,1.17287 1.8079,1.45198c1.60453,1.14868 3.07018,0.92667 4.54891,0.26039c-0.89575,-0.64296 -1.72634,-1.38229 -2.47222,-2.21777zM197.81946,160.1055c-0.55313,-1.14098 -1.19956,-2.2251 -1.78746,-3.32648c-0.28509,0.46987 -0.56972,0.94726 -0.85566,1.43159c0.32042,1.93867 0.33708,3.91144 0.78071,5.83164c0.1577,0.68257 0.70941,1.62531 0.98259,2.45773c0.01769,-0.10275 0.04422,-0.20706 0.08181,-0.30963c0.39662,-1.08214 0.89594,-2.05715 1.35256,-3.1122c0.14241,-0.32741 0.29192,-0.65244 0.44826,-0.97493c-0.33699,-0.64759 -0.67033,-1.31191 -1.00282,-1.99775zM199.16839,159.44947c0.16976,0.3493 0.3395,0.6927 0.50967,1.03088c0.80506,-1.41115 1.73934,-2.76556 2.77843,-4.04951c-0.8611,-1.91104 -1.58782,-3.87039 -2.06619,-5.87031c-1.25087,1.45682 -2.37195,3.05547 -3.45964,4.7685c0.68799,1.39451 1.55851,2.7228 2.23774,4.12045zM206.47318,171.2977c0.82605,0.92806 1.77475,1.72452 2.80913,2.38871c0.32149,-0.18374 0.64592,-0.37361 0.97473,-0.56058c1.29224,-0.7622 2.67708,-1.50173 4.09486,-2.24745c-2.29783,-1.39338 -4.48775,-3.45732 -6.35363,-5.59124c-0.4563,0.32641 -0.88122,0.68791 -1.25223,1.10722c-0.7718,0.75169 -1.47837,1.52969 -2.15054,2.33781c0.59025,0.84242 1.21305,1.69245 1.87766,2.56552zM205.6643,165.35523c0.415,-0.45585 0.8809,-0.84799 1.37646,-1.20245c-0.72518,-0.88951 -1.38778,-1.77275 -1.97227,-2.60663c-0.65601,-1.17796 -1.29936,-2.37921 -1.89894,-3.60164c-1.01175,1.31374 -1.90758,2.69932 -2.65956,4.14105c1.00542,1.88201 2.04806,3.62547 3.211,5.36824c0.60961,-0.72226 1.24968,-1.42301 1.94331,-2.09857zM206.33579,160.74367c0.5789,0.82364 1.24243,1.7073 1.9721,2.59885c0.93597,-0.54785 1.91015,-1.04475 2.80558,-1.63416c1.43294,-0.94322 2.8938,-1.86524 4.34665,-2.80383c-0.9355,-1.33595 -1.77425,-2.67166 -2.49844,-3.94529c-0.80714,-1.42482 -1.53677,-2.80103 -2.18177,-4.16841c-2.43496,1.67342 -4.68936,3.67563 -6.60786,5.91916c0.66695,1.38925 1.40465,2.73803 2.16374,4.03369zM223.21369,146.0918c0.81425,1.64273 1.73368,3.21437 2.66708,4.76333c0.4129,-0.41343 0.83044,-0.82485 1.27783,-1.21324c0.35746,-0.31032 0.71656,-0.61875 1.07285,-0.93038c0.27688,-0.24216 1.13474,-0.27827 0.93452,-0.58685c-0.34426,-0.53059 -1.55458,-1.09226 -1.99554,-1.76901c-0.32756,-0.5027 -0.30085,-1.17906 -0.91141,-1.49133c-0.10088,-0.05159 -1.66699,0.82291 -1.80533,0.86325c-0.42223,0.12309 -0.85125,0.21971 -1.28424,0.30098c0.01469,0.02114 0.02944,0.04222 0.04424,0.06324zM221.92337,146.85671c-0.13068,-0.18669 -0.25647,-0.37869 -0.37831,-0.57508c-0.9793,0.13498 -1.96097,0.26255 -2.91367,0.50698c-2.24541,0.77474 -4.47488,1.85152 -6.593,3.17659c0.65084,1.39431 1.3957,2.79623 2.22722,4.25259c0.79095,1.39104 1.62654,2.64842 2.51793,3.82398c2.37576,-1.56588 4.70035,-3.20773 6.81412,-5.09363c0.42228,-0.31532 0.81306,-0.65841 1.19001,-1.01452c-1.00721,-1.65088 -2.00338,-3.32252 -2.86431,-5.07693zM216.63296,140.64556c-2.28059,0.58696 -4.60356,2.20845 -6.79538,3.21965c0.40447,1.6254 0.93696,3.17777 1.58751,4.72052c2.17779,-1.34508 4.46687,-2.44026 6.77563,-3.23397c0.84096,-0.21512 1.70288,-0.343 2.56581,-0.46431c-0.76504,-1.49315 -1.43361,-3.10132 -2.3212,-4.50257c-0.61663,0.03131 -1.22335,0.10904 -1.81237,0.26065zM224.54638,154.11003c-2.11995,1.88858 -4.44729,3.5394 -6.82725,5.11242c1.69532,2.04988 3.58842,3.88723 5.74682,5.82505c0.11742,0.10543 0.23464,0.21206 0.35184,0.31946c0.82069,-0.60094 1.59791,-1.23232 2.31518,-1.90211c1.26352,-1.17987 2.07391,-2.67914 2.74318,-4.25662c-0.92266,-2.0477 -2.0855,-3.99704 -3.2797,-5.95227c-0.34029,0.29766 -0.68882,0.58432 -1.05006,0.85406zM210.15558,149.40674c-0.69635,-1.6204 -1.27021,-3.24726 -1.70962,-4.94695c-2.76912,1.24641 -4.96059,2.86279 -6.83864,4.77392c0.37827,2.03932 1.04806,4.04385 1.88303,5.98112c1.96138,-2.19817 4.22879,-4.15991 6.66525,-5.80809zM211.93449,162.9637c-0.83421,0.54756 -1.76505,1.00905 -2.65898,1.51907c1.95007,2.21444 4.26176,4.33987 6.64917,5.56989c2.123,-1.11658 4.27019,-2.27001 6.24794,-3.55398c-2.15322,-1.86187 -4.12719,-4.09151 -5.83184,-6.37587c-1.47213,0.95234 -2.95289,1.88691 -4.4063,2.84088z" fill="#000000" stroke="none" stroke-width="0.5" stroke-linecap="butt"/><path d="M207.85722,140.76482c0.30597,0.53812 0.06436,1.31381 -0.39517,1.82761c-0.46841,0.52373 -1.15965,0.78169 -1.34527,0.91196c0,0 -1.03204,0.55167 -1.75014,-0.47147c-0.7181,-1.02315 0.30504,-1.74125 0.30504,-1.74125c0.36771,-0.25808 0.73541,-0.51615 1.10313,-0.77424l0.37793,-0.22136c0,0 1.08661,-0.61787 1.70448,0.46876z" fill="#8fbbbe" stroke="none" stroke-width="0.5" stroke-linecap="butt"/><path d="M211.81022,139.54816c0.13544,0.18139 -0.11055,0.77927 -0.4627,1.06892c-0.42567,0.35012 -1.0003,0.36498 -1.16403,0.14573c-0.29915,-0.40064 0.10149,-0.69979 0.10149,-0.69979c0.13758,-0.10273 0.27514,-0.20545 0.41272,-0.30817l0.41272,-0.30817c0,0 0.40064,-0.29915 0.69979,0.10149z" fill="#8fbbbe" stroke="none" stroke-width="0.5" stroke-linecap="butt"/><path d="M233.52969,156.34106c0.61503,11.51252 -7.68415,21.31527 -18.53672,21.89505c-10.85257,0.57978 -20.1489,-8.28298 -20.76393,-19.79551c-0.61503,-11.51252 7.68413,-21.31527 18.53671,-21.89504c10.85257,-0.57978 20.14891,8.28298 20.76394,19.7955z" fill="none" stroke="#000000" stroke-width="2.5" stroke-linecap="butt"/><path d="M193.05839,158.55322c0,0 3.40388,10.5476 6.48041,13.12601c12.65991,10.61015 17.80682,6.60645 17.80682,6.60645c0,0 -7.13567,5.1609 -8.45515,5.18893c-14.19404,0.30164 -18.247,-12.91001 -18.60249,-18.28668c-0.06792,-1.02724 2.7704,-6.63472 2.7704,-6.63472z" fill="none" stroke="#000000" stroke-width="2.5" stroke-linecap="round"/></g><path d="M-3.9767,363.06856v-366.13712h487.95341v366.13712z" fill="none" stroke="#b700ff" stroke-width="2" stroke-linecap="butt"/></g></g></svg>