<svg version="1.1" xmlns="http://www.w3.org/2000/svg" xmlns:xlink="http://www.w3.org/1999/xlink" width="488.45341" height="366.63712" viewBox="0,0,488.45341,366.63712"><g transform="translate(4.22671,3.31856)"><g data-paper-data="{&quot;isPaintingLayer&quot;:true}" fill-rule="nonzero" stroke-linejoin="miter" stroke-miterlimit="10" stroke-dasharray="" stroke-dashoffset="0" style="mix-blend-mode: normal"><g stroke="none" stroke-width="0.5" stroke-linecap="butt"><path d="M235.70707,173.44783c1.11338,-1.94707 2.24382,-3.86824 3.3189,-5.85098c1.85865,-2.42398 4.20112,-7.15182 7.04577,-8.47465c3.71319,-1.72673 7.28914,0.99528 8.56731,4.28374c2.79554,7.19237 3.49326,13.13209 -0.66824,19.84093c-1.5211,3.40009 -3.4493,6.46577 -6.34096,8.89198c-2.10351,1.76492 -4.68715,2.88877 -6.83736,4.60307c-2.91897,2.32721 -5.44185,4.29564 -9.43884,2.95201c-2.81486,-0.94625 -4.57014,-4.79201 -6.12434,-7.10248c-2.66744,-3.82381 -6.94361,-8.20068 -7.1321,-13.05775c-0.07934,-2.04481 0.11564,-4.95762 2.28653,-6.10054c1.12599,-0.59281 2.53431,-0.24666 3.80568,-0.30028c3.48634,-0.14703 7.00553,-0.02944 10.49531,-0.04346c0,0 0.58196,-0.00234 1.02235,0.35839z" fill="#db93e6"/><path d="M257.46601,178.17314c-1.64893,7.56737 -4.82065,11.04687 -10.10596,16.37944c-1.80549,1.82163 -7.38487,5.83603 -9.91874,6.55531c-2.53395,0.71931 -5.1193,1.43023 -7.54683,0.69454c-3.59886,-2.99883 -5.36979,-7.99553 -8.12287,-11.70668c-1.79134,-2.41472 -4.21212,-4.78473 -5.18005,-7.71355c-1.03751,-3.13937 0.1355,-6.15804 1.20275,-9.03495c0.01593,-0.08592 0.47368,-1.11844 1.24526,-1.2181c3.30057,-0.42635 12.54605,0.01945 16.5841,0.00323c0.50171,-1.80294 2.03415,-4.37537 2.7833,-6.03196c1.57996,-3.49376 2.6255,-5.69296 6.02659,-7.53028c1.01655,-0.54916 2.70589,-1.12371 3.81934,-1.54951c0,0 1.93326,-0.75059 2.51625,0.40359c5.84367,1.9872 7.06425,5.97933 7.22472,11.97516c0.0578,2.15971 -0.33203,6.9434 -0.52785,8.77377zM219.44588,181.45877c1.10629,3.17264 9.52615,14.8626 12.14175,17.16913c7.95673,2.15079 21.16569,-12.44097 22.79232,-19.78469c2.46744,-11.13971 -0.65979,-24.20648 -10.86311,-16.13086c-3.90635,3.09176 -5.40574,11.19963 -7.08053,11.72955c-1.70828,0.54052 -7.73993,-0.19131 -11.89315,-0.4214c-2.56756,-0.14224 -4.25062,0.23716 -4.25062,0.23716c-0.77061,1.97924 -1.58711,5.07761 -0.84664,7.2011z" fill="#000000"/><path d="M220.05879,179.02867c-4.20585,0.76926 -7.81325,2.76555 -12.23545,2.94264c-2.3801,0.09531 -4.58581,0.03639 -6.92868,-0.38455c-1.87072,-0.33611 -5.26184,-1.34955 -7.25815,-0.86515c-1.29713,0.31474 -1.06868,4.71024 -1.06872,5.45805c1.87507,7.25372 6.81813,15.60672 13.96973,18.77371c2.23982,0.99187 5.44283,2.29087 7.98554,1.62506c1.14803,-0.30061 2.14925,-1.00769 3.23681,-1.48263c1.62027,-0.70756 2.72785,-1.72129 3.95639,-2.96351c3.55263,-4.15974 10.37427,-9.18166 8.16751,-15.82304c-0.57687,-1.73612 -2.80254,-3.25109 -4.07905,-4.41307c-1.45133,-1.32111 -2.6916,-2.29202 -4.60988,-2.74298l-0.41328,0.04644c0,0 -0.35662,0.00143 -0.72277,-0.17098zM222.86968,176.53885c3.71048,1.35287 8.64004,5.24629 9.84914,8.78933c0.99839,2.92559 0.11853,7.02285 -1.19552,9.69152c-1.91705,3.89329 -4.91293,5.96881 -7.5977,9.14208c-1.53261,1.54103 -2.94986,2.78204 -4.95553,3.67908c-1.24609,0.55731 -2.42134,1.32503 -3.74601,1.6545c-7.07133,1.75879 -13.8655,-3.77394 -18.08339,-8.61852c-1.91253,-2.1967 -3.89352,-4.22268 -5.07654,-6.92378c-1.04603,-2.38834 -1.8394,-4.87247 -2.47233,-7.39493c-0.01823,-2.5274 -0.21485,-7.24957 2.76137,-8.54819c3.17598,-1.38578 8.11486,0.69669 11.25706,0.98418c2.40656,0.22019 5.88968,0.38621 8.18443,-0.36226c3.33922,-1.08914 5.97868,-2.4663 9.6148,-2.81727c0,0 1.0298,-0.09779 1.46024,0.72423z" fill="#000000"/><path d="M220.80968,179.1583l0.41404,-0.04591c1.91829,0.45096 3.16933,1.43223 4.62066,2.75334c1.27651,1.16197 3.50959,2.69054 4.08645,4.42665c2.20676,6.64138 -4.62475,11.71359 -8.17738,15.87333c-1.22854,1.24221 -2.35033,2.26693 -3.9706,2.97449c-1.08755,0.47493 -2.10081,1.1864 -3.24883,1.487c-2.54272,0.66581 -5.77558,-0.63569 -8.01539,-1.62756c-7.15159,-3.16698 -12.12283,-11.58306 -13.9979,-18.83679c0.00004,-0.74781 -0.22259,-5.15475 1.07454,-5.46949c1.9963,-0.48439 5.39461,0.52072 7.26532,0.85683c2.34287,0.42094 4.56692,0.46898 6.94702,0.37367c4.42219,-0.17708 8.07168,-2.16844 12.27754,-2.9377c0.36617,0.17241 0.72456,0.17214 0.72456,0.17214z" data-paper-data="{&quot;noHover&quot;:false,&quot;origItem&quot;:[&quot;Path&quot;,{&quot;applyMatrix&quot;:true,&quot;segments&quot;:[[[429.90791,387.32211],[0.73093,0.34776],[-8.41783,1.50473]],[[405.41357,393.10906],[8.84574,-0.31865],[-4.76092,0.1715]],[[391.55941,392.2843],[4.68232,0.8607],[-3.73869,-0.68724]],[[377.05018,390.4957],[3.99646,-0.95274],[-2.59677,0.61906]],[[374.86892,401.40313],[0.00607,-1.4956],[3.69184,14.52239]],[[402.65734,439.06246],[-14.27763,-6.39137],[4.47163,2.00172]],[[418.61523,442.3767],[-5.09074,1.31118],[2.29846,-0.59199]],[[425.1007,439.43747],[-2.17891,0.94112],[3.24619,-1.4021]],[[433.03722,433.5423],[-2.46703,2.47453],[7.13862,-8.29088]],[[449.49922,401.96208],[4.36015,13.30038],[-1.13978,-3.47683]],[[441.37664,393.10325],[2.54365,2.33419],[-2.89202,-2.65387]],[[432.17899,387.5803],[3.83292,0.91732],[0,0]],[431.35207,387.66987]],&quot;closed&quot;:true}]}" fill="#f89587"/></g><g><path d="M188.30064,259.28114c-0.35539,0.5093 -1.04238,0.5093 -1.04238,0.5093c-6.56254,-0.00381 -21.36971,-2.52903 -18.53044,-12.27642c0.62045,-2.13006 2.97652,-3.68742 4.47989,-5.19079c3.3579,-3.35549 7.71457,-5.68255 11.01034,-9.01022c1.69856,-1.715 3.11455,-3.78448 4.84224,-5.50862c1.11313,-1.11084 3.81062,-1.97401 4.57906,-2.90705c0.64636,-0.78481 -0.24211,-3.56675 0.13073,-4.50192c0.45448,-1.13993 1.63864,-1.8273 2.44834,-2.74945c4.67854,-3.89024 12.58527,-5.96809 17.63305,-2.09805c2.63395,2.0194 4.68259,4.69094 6.84849,7.17051c0.40737,0.46636 2.76625,3.09251 2.84194,2.80996c0.37353,-2.88404 1.41417,-4.6445 3.27204,-6.80695c0.89481,-1.04151 1.60357,-2.67744 3.30967,-2.76392c2.35911,-0.11958 4.41776,4.18544 4.01787,6.03678c-0.58404,2.70391 -3.29914,4.82984 -5.07047,6.70827c-3.08224,3.2686 -6.46697,6.23391 -9.46078,9.58588c-6.87283,5.30801 -14.09922,10.21028 -20.91605,15.57058c-3.04133,2.3915 -5.80569,4.93556 -9.79789,5.42376l-0.47137,0.00765c0,0 -0.04763,0 -0.12429,-0.0093z" fill="#ff2d32" stroke="none" stroke-width="0.5" stroke-linecap="butt"/><path d="M250.15644,224.97423c1.96692,0.20434 3.93022,3.19951 5.84428,4.53025c1.03541,0.71986 2.6459,0.0095 2.89374,0.25247c-0.19552,-0.47277 -0.38559,-1.01333 -0.48872,-1.32123c-1.00026,-2.98638 -2.08729,-4.07775 0.98088,-5.75543c3.32588,-0.83147 8.56748,-5.62758 12.16571,-3.55433c1.72811,0.99571 2.25988,5.23489 3.28706,6.95373c2.26663,3.7929 6.01657,6.39041 9.81806,8.37653c1.64875,0.86285 3.86402,2.56239 5.88599,2.06051c0.83608,-0.20753 1.32541,-1.11403 2.07005,-1.54718c1.97676,-1.14986 4.59051,-1.82432 6.89609,-1.32026c1.67446,0.36609 3.40321,1.97589 4.50477,3.21459c0.75164,0.84523 0.99427,2.02668 2.22412,2.29984c2.88359,0.64047 6.95822,-1.08567 8.37682,2.82856c0.07547,0.20824 0.05963,2.98554 0.05963,3.38147c-0.02039,2.76362 -0.84082,8.41212 -3.07444,10.257c-2.29685,1.89711 -5.89844,2.10665 -8.6912,2.90463c-8.42772,2.40806 -17.13383,3.95053 -25.31422,7.10444c-2.31138,0.89114 -4.67845,1.70538 -6.95539,2.68071c-0.61962,0.26542 -4.59475,2.24523 -5.02799,2.23706c-1.23558,-0.02332 -3.96701,-2.04982 -4.98899,-2.74441c-2.67872,-1.8206 -5.34059,-3.68004 -6.67223,-6.76255c-0.98784,-2.28668 -0.72041,-4.66049 -0.93715,-7.06462c-0.24202,-2.68445 -1.6774,-5.65258 -2.7319,-8.1074c-2.05484,-4.52151 -7.53738,-7.58063 -8.42368,-12.4713c-0.41851,-2.30936 -0.55811,-9.31488 1.91003,-10.76354c2.07438,-1.21755 4.83558,0.77996 6.38867,2.33044z" fill="#ff2d32" stroke="none" stroke-width="0.5" stroke-linecap="butt"/><path d="M238.34039,173.75959c-0.01072,-0.08988 -0.01073,-0.14554 -0.01073,-0.14554l0.21376,-1.57174c5.79101,-9.49858 21.92838,-10.95428 31.68944,-8.27305c3.73469,1.02587 7.25672,3.3036 10.72409,4.9868c1.90323,0.92585 4.09689,1.29702 5.83383,2.50637c1.27918,0.89064 1.66154,2.63853 2.44277,3.98732c1.50025,2.59018 2.57343,5.41073 4.07687,7.9835c1.22229,2.09166 5.66825,6.68245 1.50797,8.76044c-2.21578,1.10675 -4.05177,-1.72109 -5.74798,-2.38779c-4.30711,-1.69291 -8.52935,-2.6882 -13.11703,-2.69696c-2.0204,0.33674 -4.4244,0.00667 -6.16721,1.26057c-1.0354,0.74494 -1.28803,2.2126 -1.7619,3.39685c-1.99936,4.99656 0.01593,14.78598 -5.34483,17.99964c-0.86592,0.51909 -2.9496,0.00817 -3.94299,-0.05485c-3.88449,-0.24644 -7.1661,-0.4632 -10.94707,-1.41647c-9.98798,-0.75091 -21.28994,1.06025 -30.89128,-2.25706c-0.39912,-0.1379 -4.32847,-1.73092 -4.8544,-2.50514c-3.12797,-4.6047 1.16225,-8.16073 4.86414,-10.03334c3.16432,-1.8986 6.52827,-3.73189 9.89757,-5.24903c1.27654,-0.5748 4.09233,-1.2155 5.16358,-2.29673c1.35797,-1.37062 1.78533,-3.99636 2.46882,-5.69859c0.94381,-2.35055 2.22909,-4.46364 3.90257,-6.29521z" fill="#feebf7" stroke="none" stroke-width="0.5" stroke-linecap="butt"/><path d="M270.50167,218.06998c-4.06835,-2.03682 -8.94828,-4.27167 -13.45446,-5.00866c-2.95297,-0.48296 -5.96258,-0.52125 -8.92885,-1.05505c-3.27431,-0.58922 -6.5481,-1.25248 -9.8511,-1.64322c0.09982,0.39375 0.19863,0.78668 0.2969,1.17833c0.1044,0.12293 0.1992,0.27644 0.27867,0.46717c0.31037,0.74489 0.05304,1.25602 -0.25101,1.56932c-0.16427,0.25835 -0.44421,0.48856 -0.91266,0.60567c-0.12233,0.03059 -0.23696,0.04831 -0.3443,0.05513c-2.72226,1.00214 -7.25752,2.22971 -9.85325,1.84204c-4.76155,-0.71114 -10.14932,-6.35697 -13.51264,-9.72029l-0.56791,-0.73208c0,0 -0.62889,-0.83851 -0.13434,-1.63938c-0.26181,-1.46903 1.20887,-1.73643 1.20887,-1.73643c2.57011,-0.46729 5.00501,-1.75951 7.53103,-2.2134c0.34767,-0.28403 0.75468,-0.35803 0.75468,-0.35803c6.08232,-1.10572 12.33761,-2.8597 18.63423,-1.86467c2.64346,0.41773 6.13398,1.93277 8.64834,2.95953c0.97544,0.39832 1.66721,1.4831 2.71125,1.6249c0.6752,0.0917 1.37312,-0.4793 2.02487,-0.28047c1.10332,0.33658 1.97044,1.19988 2.95567,1.79982c4.55187,3.3091 9.02702,6.3474 13.22596,10.05845l0.73883,0.12232c3.01258,1.51246 5.8422,1.12735 9.18633,1.12735c5.91413,0 13.06437,1.28286 18.59249,-1.07232c0.27896,-0.25935 0.56605,-0.36304 0.83123,-0.38118c0.31705,-0.12256 1.35428,-0.41603 1.91792,0.71125c0.0869,0.17379 0.14002,0.33632 0.16667,0.48761c0.92022,0.77856 1.84051,1.55703 2.76087,2.33543l1.0577,1.63113c0.31498,0.36703 0.37651,0.73892 0.33333,1.05724c-0.00997,0.3192 -0.13078,0.67351 -0.49705,0.98216c-4.30485,4.7698 -9.0931,9.18127 -13.8809,13.44123l-1.02164,0.69839c0,0 -0.0799,0.05327 -0.21273,0.11263c-0.132,0.06118 -0.22465,0.08644 -0.22465,0.08644c-2.20346,0.59253 -5.38549,1.23604 -7.58519,0.20485c-1.57808,-0.73978 -1.86746,-1.65328 -3.0593,-2.64572c-4.68097,-3.89782 -7.57064,-8.94869 -9.28994,-14.70791c-0.16766,-0.04645 -0.27392,-0.09958 -0.27392,-0.09958z" fill="#0f1b82" stroke="none" stroke-width="0.5" stroke-linecap="butt"/><path d="M201.44597,214.57149c-1.12886,0.98775 -2.11662,-0.14111 -2.11662,-0.14111c-2.93931,-3.50232 -1.93482,-8.08094 2.94685,-9.16644c2.79653,-0.62184 6.21332,-0.06176 9.12663,-0.45101l1.48646,-0.01203c0.63811,-1.13493 1.59873,-1.01823 1.59873,-1.01823c5.12055,2.24362 9.06985,5.02601 13.24367,8.67394l0.78689,1.04435c0.33756,0.29609 0.44162,0.65223 0.4486,0.96612c0.04112,0.30417 -0.00311,0.6627 -0.2735,1.00106c-1.25639,2.50149 -2.51504,4.83822 -3.2868,7.53624c0.0166,0.27369 -0.04363,0.58145 -0.27196,0.87556c-0.15133,0.24595 -0.39359,0.47486 -0.78141,0.57747c-0.37447,0.14388 -0.7049,0.10015 -0.97158,-0.01063c-0.43587,-0.12778 -0.68083,-0.41848 -0.81849,-0.70487c-1.47337,-2.08666 -2.69797,-4.73314 -4.47572,-6.54902c-4.00258,-4.08844 -11.37892,-5.79353 -16.43262,-2.83295c-0.05982,0.07092 -0.12916,0.14159 -0.20912,0.21156z" fill="#0066cc" stroke="none" stroke-width="0.5" stroke-linecap="butt"/><path d="M265.60109,207.87121l12.57143,-1.85715l11,8l8.14285,-2.85714l4,4c0,0 -6.80829,12.92247 -11.34945,13.49011c-4.94774,0.61847 -18.22198,-9.91868 -18.22198,-9.91868l-15.42857,3.71428l3.57143,9.71428l-6.14286,-5.71428l-7.14285,-3.14286l-3.85715,0.14286l-4.71428,-7l-7.28572,-8.14286c0,0 3.53455,-1.39293 7.99684,-1.09545c2.13777,0.14252 7.96951,0.5856 11.91361,1.48719c7.70114,1.76043 14.66098,4.75111 14.66098,4.75111z" fill="#0066cc" stroke="#0066cc" stroke-width="0.5" stroke-linecap="round"/><path d="M274.02964,188.31405l1.07082,0.15836c2.83909,1.43046 6.70953,1.43016 9.34565,2.97418c0.80542,0.47174 1.71332,1.06972 2.12523,1.89646c1.1583,0.20847 1.1583,1.47101 1.1583,1.47101v1.8c-0.02135,4.85396 3.08583,9.06196 6.70094,12.11417c0.27267,0.14927 0.53631,0.40259 0.64589,0.83248c0.10183,0.27077 0.13746,0.60413 -0.01783,0.97072c-0.11539,0.38104 -0.35618,0.61433 -0.60775,0.75715c-0.3605,0.26091 -0.72636,0.28608 -1.03196,0.22548h-0.58929c-0.73197,0 -1.44628,-0.01382 -2.14678,-0.05304c0.02915,0.37768 0.04532,0.76164 0.04678,1.15304c0,0 0,1.5 -1.5,1.5c-1.5,0 -1.5,-1.5 -1.5,-1.5c0.00226,-0.5117 -0.02419,-1.02202 -0.07509,-1.5308c-1.41732,-0.29611 -2.79807,-0.78346 -4.179,-1.57253c-2.185,-1.24852 -4.29963,-3.77631 -6.91354,-4.22074c-3.21855,-0.54722 -5.97569,1.56366 -9.03067,2.15772c-0.14512,0.04219 -0.31132,0.06635 -0.50169,0.06635c-0.4592,0 -0.77783,-0.14057 -0.99891,-0.33566c-0.22643,-0.18885 -0.41382,-0.48239 -0.48365,-0.93625c-0.02507,-0.16299 -0.02948,-0.31082 -0.01744,-0.44485v-0.58324c0.00906,-6.54513 1.36579,-12.66029 6.8,-16.8c0,0 0.87597,-0.65698 1.69239,-0.09989c0.005,-0.00011 0.00761,-0.00011 0.00761,-0.00011z" fill="#fddfbd" stroke="none" stroke-width="0.5" stroke-linecap="butt"/><path d="M271.1237,187.60767l1.08905,-1.84959c6.23284,-4.07801 19.78166,1.32274 17.69038,9.68877c-0.02245,0.20245 -0.0948,0.42446 -0.23875,0.66438c-0.21814,0.36357 -0.4774,0.56271 -0.73709,0.66134c-0.2591,0.10018 -0.58504,0.12528 -0.99028,0.00059c-0.24883,-0.07656 0.78105,0.92809 0.63306,0.80442c0,0 -4.54503,-4.71245 -5.93631,-5.67262c-3.78229,-2.61031 -8.45575,-1.39338 -12.46227,0.266c0,0 -1.38702,0.57112 -1.95815,-0.81589c-0.57112,-1.38701 0.81589,-1.95814 0.81589,-1.95814c0.65364,-0.26773 1.32073,-0.51277 1.997,-0.72897c-0.1378,-0.5427 0.09746,-1.06027 0.09746,-1.06027z" fill="#f89587" stroke="none" stroke-width="0.5" stroke-linecap="butt"/><path d="M240.3464,171.37125l7,-9.42857l4.42857,-4.57143l6.85715,-3.85715l6.14285,-2.28572l8,2.42857l5.28571,4.71429l9.57143,-2l6.28571,2.57143l0.85714,7.42857l-5.57143,10.85714c0,0 -8.55421,-10.53098 -28.85065,-11.0602c-12.01739,-0.31335 -22.14935,9.0602 -22.14935,9.0602z" fill="#db93e6" stroke="#db93e6" stroke-width="0.5" stroke-linecap="round"/><path d="M266.15592,188.11726c0,0 0.95968,-0.62751 1.63295,-0.94907c0.57894,-0.27651 1.75736,-0.80719 2.90264,-1.31793c1.48217,-0.66098 2.01997,0.04478 2.01997,0.04478l-5.11111,10c0,0 -0.71702,-1.77322 -0.93953,-3.21281c-0.49617,-3.21017 -0.50492,-4.56496 -0.50492,-4.56496z" fill="#db93e6" stroke="#db93e6" stroke-width="0.5" stroke-linecap="round"/><path d="M185.75827,258.87377c0,0 -2.09869,-2.37744 -0.35095,-7.84117c0.38698,-1.20977 1.88688,-3.18023 3.02867,-4.44889c1.85924,-2.06582 7.57719,-7.27488 13.03606,-12.03797c8.48416,-7.40277 17.28622,-14.67197 17.28622,-14.67197l4.83333,5.5l0.33333,3.5c0,0 2.04305,-1.00815 3.38267,-2.08276c4.60624,-3.69503 6.61733,-6.75057 6.61733,-6.75057l-4,-3.66667l1.66667,-1.16667l5.33333,1l5.5,6.83333l-0.5,12.66667l5,3.5l-1.33333,2.5l-8.83333,1.83333l-9.83333,0.16667l-2.5,1.5l-6.66667,6.16667l-8.33333,4.5l-15,3.33333l-13.16667,0.16667z" fill="#ab164a" stroke="#ab164a" stroke-width="0.5" stroke-linecap="round"/><path d="M249.12306,234.66596c0.2276,0.0512 0.41084,0.17351 0.54673,0.29795c0.12058,0.10237 0.22148,0.22722 0.29624,0.36806l0.56184,1.01131c0.215,0.28847 0.37644,0.73485 0.05138,1.30583c-0.01242,0.02233 -0.02551,0.04424 -0.03924,0.0657c-0.38264,0.61139 -0.90859,0.63783 -1.27309,0.55822c-0.16139,-0.02856 -0.31209,-0.08809 -0.44573,-0.17222c-0.95449,-0.57856 -1.68157,-1.13402 -2.36823,-1.81355l-0.54903,-0.16471c-0.52907,-0.14552 -0.91771,-0.63005 -0.91771,-1.20535c0,-0.09409 0.0104,-0.18575 0.0301,-0.2739l-0.25619,-0.32023c0,0 -0.02977,-0.03721 -0.07042,-0.10291c-0.13903,-0.20494 -0.28018,-0.51476 -0.21587,-0.87532c0.03089,-0.22971 0.14205,-0.47513 0.39715,-0.70687c0.24276,-0.24463 0.49284,-0.34487 0.72369,-0.3656c0.14391,-0.01917 0.27843,-0.00644 0.40076,0.02513c0.03812,-0.0035 0.07674,-0.00529 0.11577,-0.00529c0.20857,0 0.4052,0.05108 0.57808,0.14141c0.59377,0.09701 1.04692,0.61238 1.04692,1.23359c0,0.02681 -0.00084,0.05341 -0.00251,0.0798c0.06517,-0.00237 0.13074,-0.00187 0.19673,0.0018c0.50528,0.02812 0.83422,0.51062 1.19263,0.91716z" fill="#000000" stroke="none" stroke-width="0.5" stroke-linecap="butt"/><path d="M234.01266,226.23441c0.78804,-1.63057 2.27345,-3.28751 3.17947,-2.85995c0.90601,0.42755 0.81624,2.00593 0.04335,3.64373c-0.77289,1.6378 -2.41299,3.03751 -3.31901,2.60995c-0.90602,-0.42755 -1.23486,-0.63964 0.09618,-3.39373z" fill="#000000" stroke="none" stroke-width="0" stroke-linecap="butt"/><path d="M246.01749,183.52001c-3.08464,1.08606 -9.14259,4.61343 -8.7054,7.24586c5.18729,0.56084 8.49851,-0.5653 13.09234,-2.6488c-0.17121,-0.18952 -3.25385,-3.52775 -4.38694,-4.59706zM253.27272,187.11768c1.61265,-0.69601 9.90007,-4.49106 8.53854,-5.63694c-1.96786,-1.65617 -11.1496,0.38042 -12.1101,0.60618c0.81185,0.82644 3.5336,4.70692 3.57156,5.03076zM257.06066,178.44266c2.86869,0.00635 8.69446,-0.37681 7.70361,4.27517c-0.39208,1.8408 -6.33081,5.36465 -7.81255,6.02583c-4.31889,1.92717 -13.03895,7.29104 -21.72072,5.06992c-1.41246,-0.36136 -1.93055,-3.56626 0.16047,-6.37234c2.43757,-3.27116 8.25499,-6.28123 10.52495,-7.11206c4.41915,-1.61746 9.35225,-1.88652 11.14424,-1.88652z" fill="#ff0000" stroke="none" stroke-width="0.5" stroke-linecap="butt"/><path d="M191.01438,230.68842c-0.17595,0.14269 -0.35143,0.2948 -0.52693,0.45633c1.4121,0.33256 2.82294,0.99525 4.23062,1.83306c1.02948,0.61272 3.59401,2.01416 3.97099,3.10617c0.81866,2.37142 -1.36729,4.45594 -3.34669,4.99576c-0.88054,0.24014 -3.3345,-1.08795 -4.09585,-1.48894c-2.45621,-1.29365 -4.1745,-2.76933 -6.82688,-3.75559c0,0 -0.08252,-0.03094 -0.20004,-0.09783c-0.17322,-0.0553 -0.35541,-0.15144 -0.54364,-0.30203c-1.1713,-0.93705 -0.23426,-2.10834 -0.23426,-2.10834l0.97778,-1.12514c0.78076,-0.51468 1.56196,-0.8605 2.34328,-1.06371c0.06829,-0.50221 0.3958,-0.87065 0.3958,-0.87065c0.54578,-0.61248 1.10818,-1.15409 1.68498,-1.62665c0.25425,-0.94409 1.12001,-1.04041 1.47177,-1.03932c3.98899,-2.38779 8.53438,-1.78533 12.98432,1.2622c1.15183,0.78883 3.37007,0.99473 3.43992,2.38903c0.17234,3.44008 -5.02823,4.26029 -7.18909,3.40181c-0.8204,-0.32593 -1.34623,-1.15 -2.08614,-1.63148c-1.8575,-1.20871 -4.13754,-1.73768 -6.24624,-2.31196z" fill="#feebf7" stroke="none" stroke-width="0.5" stroke-linecap="butt"/><path d="M198.7812,225.4721c-0.17087,-0.09216 -0.34212,-0.2326 -0.50618,-0.43768c-0.93705,-1.1713 0.23426,-2.10835 0.23426,-2.10835l1.60473,-0.98618c3.66743,-0.40214 7.23591,-0.23616 10.81327,0.69078c1.03425,0.26799 2.32945,0.13741 3.07567,0.90204c1.87042,1.91655 0.53536,4.1854 -1.31594,5.11715c-1.23988,0.62403 -4.1233,-0.27875 -5.183,-0.53361c-2.5219,-0.60653 -4.83863,-1.04262 -7.41041,-1.36379c0,0 -1.21603,-0.15201 -1.31241,-1.28036z" fill="#feebf7" stroke="none" stroke-width="0.5" stroke-linecap="butt"/><path d="M169.01992,248.93837c0.40093,0.25393 0.60138,0.65485 0.60138,0.65485l0.27218,0.60948c0.345,1.26729 0.4548,3.39159 1.25582,4.49865c1.10444,1.52639 3.78798,1.6446 5.39838,2.12706c2.2451,0.6726 4.32521,1.41553 6.53642,2.1782c2.20889,0.76187 5.01164,0.54572 7.0499,1.75769c3.61328,2.14849 3.22734,7.11357 -0.44698,9.05223c-1.92184,1.01401 -5.64108,0.28143 -7.80866,0.2793c-3.23523,-0.2966 -6.00678,-1.3864 -9.07304,-2.40877c-0.82271,-0.27432 -3.96849,-1.27873 -4.53682,-1.68334c-5.8937,-4.19597 -7.24008,-14.6145 -1.38884,-19.10635c0,0 1.2,-0.9 2.1,0.3c0.55697,0.74263 0.30967,1.37036 0.04026,1.74099z" fill="#feebf7" stroke="none" stroke-width="0.5" stroke-linecap="butt"/><path d="M296.84031,238.37006l0.16667,0.16666c1.86694,1.91652 2.23482,3.04948 2.27267,5.72733c0,0 0,0.25566 -0.10555,0.55589c0.4341,0.0742 0.86561,0.16162 1.30174,0.26694l0.05041,-0.30242l1.97567,0.32928c0.72302,0.1074 1.27773,0.73074 1.27773,1.48364c0,0.45317 -0.20096,0.8594 -0.51862,1.13445l-1.32695,1.16108l-0.0919,-0.10503l-0.23247,0.3215c-1.8444,0.416 -3.44088,0.81116 -5.33005,0.82133c-2.24536,-0.01062 -4.0607,0.77198 -6.22427,1.17307c-4.69532,0.87043 -9.40777,0.32235 -13.98845,2.06887c-2.68451,1.02355 -7.83129,4.17548 -10.8284,2.58058c-2.5542,-1.35921 -1.79369,-2.95121 -1.2087,-4.81603c0.33074,-1.0543 0.96799,-1.60415 0.57752,-1.81488c-0.24053,0.02049 -0.51782,-0.02627 -0.83186,-0.18329c-0.41456,-0.20728 -0.63697,-0.4786 -0.7464,-0.7546c-0.11778,-0.27255 -0.15237,-0.62167 -0.0058,-1.06137c0.0687,-0.2061 0.1573,-0.3724 0.25859,-0.5061c0.00362,-0.65838 0.00564,-2.13415 -0.04806,-2.26304c-0.45792,-1.09915 -2.05075,-1.5984 -2.25339,-2.77176c-0.43502,-2.51886 1.83509,-4.01437 3.41112,-5.36027c1.81459,-1.13172 3.55962,-1.56984 5.23772,-1.5145c0.06731,-0.24213 0.21702,-0.49481 0.49594,-0.73887c1.12887,-0.98775 2.11662,0.14111 2.11662,0.14111c0.47238,0.54239 0.95252,1.09218 1.43975,1.64591c2.93149,1.37936 5.63682,3.90037 8.13318,6.25626c1.08004,1.01926 2.49185,2.9435 3.8258,3.51477c0.31236,0.13377 0.67868,-0.04473 1.01535,-0.09074c1.52949,-0.20899 3.09094,-0.42115 4.09981,-1.75087c1.05391,-1.38908 0.72352,-3.72586 2.2811,-4.79919c2.62011,-1.80552 3.25556,-1.82619 3.53225,-0.72482c0.17046,0.10835 0.27122,0.20911 0.27122,0.20911z" fill="#feebf7" stroke="none" stroke-width="0.5" stroke-linecap="butt"/><path d="M251.94632,253.09738c1.5,0 1.5,1.5 1.5,1.5c0,0.61111 0,1.55555 0,2.16666c-0.00102,1.65021 -0.20755,3.79827 0.26683,5.39166c0.92917,3.12097 4.28124,5.15926 6.95498,6.62677c1.90778,1.0471 3.81154,2.8694 5.98616,3.36245c4.96103,1.1248 11.70407,0.5539 16.66735,-0.35231c5.21834,-1.11525 9.22206,-3.69415 14.14979,-5.45141c5.39725,-1.92469 11.07649,-2.90078 15.70297,-6.58056c2.43866,-1.93964 3.96375,-4.33459 6.04264,-6.39256l-0.33138,-0.33137l1.5,-1.5l0.42979,0.42978c0.35724,-0.27285 0.73406,-0.53429 1.13515,-0.78181l0.5066,1.3116l0.48168,-0.04816l0.16667,1.66666l-0.02235,0.00223l0.02792,0.0723c-0.00313,0.586 -0.00625,1.17199 -0.00937,1.75799c-0.10204,0.41701 -1.02343,4.26796 -1.18346,4.55577c-1.33584,2.40254 -4.50219,3.94707 -6.48916,5.72746c-9.79066,8.77278 -23.14524,14.19712 -36.31614,14.20015c-7.41811,-0.0002 -16.78088,-0.16046 -23.31737,-4.40893c-6.14644,-3.99496 -8.38966,-12.76089 -6.55483,-19.65096c-0.0237,-0.05352 -0.04436,-0.10867 -0.06176,-0.16526l-0.13848,-0.41544l-0.08678,-0.00867l0.01936,-0.19359l-0.28316,-0.84948l0.01657,-0.00552l-0.02918,-0.03414c-0.63897,-2.36196 -1.6582,-4.53963 -2.19531,-6.94261c0,0 -0.3254,-1.46428 1.13888,-1.78967c1.46428,-0.32539 1.78968,1.13888 1.78968,1.13888c0.44534,2.01701 1.25135,3.86697 1.86795,5.8141c0.11378,0.05642 0.21937,0.12686 0.31453,0.20906c0.10738,-0.02011 0.22481,-0.0311 0.35324,-0.0311z" fill="#feebf7" stroke="none" stroke-width="0.5" stroke-linecap="butt"/><path d="M278.61298,232.26406l3.16667,1.66667c0,0 2.3639,1.12284 3.50162,1.66326c1.08167,0.51379 3.16505,1.5034 3.16505,1.5034l4.16667,-3.83334l5.16667,2.16666c0,0 -0.06295,1.37762 -1.18016,3.22435c-2.24595,3.71251 -6.72504,9.32091 -9.32554,9.44438c-2.21276,0.10507 -14.4943,-13.16872 -14.4943,-13.16872l-1.83334,-0.33334z" fill="#db93e6" stroke="#db93e6" stroke-width="0.5" stroke-linecap="round"/><path d="M314.89385,269.4068l-0.80071,0.63965c-0.43752,0.36924 -0.87503,0.73848 -1.31255,1.10772c-6.55233,2.96549 -13.33844,5.0801 -20.09399,7.45845c-5.06953,1.78478 -9.75922,3.30556 -14.69926,2.13477l-0.06443,0.4188l-2.14748,-0.33039c-0.33811,-0.04622 -0.63316,-0.22764 -0.82889,-0.488c-3.06991,0.01517 -6.53049,0.43547 -9.53175,-0.22155c-6.63566,-1.45265 -13.58029,-6.67955 -16.8945,-12.58848c0,0 -0.60705,-1.09269 0.48565,-1.69975c1.09269,-0.60706 1.69975,0.48564 1.69975,0.48564c2.90773,5.29316 9.32304,10.03917 15.21689,11.35469c2.87316,0.6413 6.26381,0.16903 9.19041,0.16903c4.83263,0 9.12651,-1.59965 13.77718,-2.7149c1.38567,-0.33229 2.83329,-0.39342 4.24616,-0.56792c1.00813,-0.28251 2.02891,-0.55768 3.06972,-0.81574c6.23906,-2.79461 13.66359,-4.87099 19.15377,-8.98237c2.22403,-1.66549 4.16068,-3.80542 6.27303,-5.61813c0,0 0.94907,-0.81349 1.76256,0.13558c0.81349,0.94907 -0.13559,1.76256 -0.13559,1.76256c-0.29406,0.25173 -0.58472,0.5095 -0.8732,0.77128c0.04374,0.56339 -0.38974,0.99686 -0.38974,0.99686l-0.53338,0.50933c-1.46027,2.01692 -3.29937,3.1965 -5.47502,4.38713c-0.2181,0.11906 -0.43764,0.23895 -0.65854,0.35956c0.27118,0.77038 -0.43608,1.33619 -0.43608,1.33619z" fill="#db93e6" stroke="none" stroke-width="0.5" stroke-linecap="butt"/><path d="M199.00641,237.92917l0.5252,0.71471c0.4575,0.81839 1.52759,1.31686 1.70426,2.23765c0.0257,0.13395 0.04021,0.26835 0.04585,0.4031l0.0716,-0.00895l0.16422,1.31377c0.00797,0.05706 0.0121,0.11534 0.0121,0.1746c0,0.69036 -0.55964,1.25 -1.25,1.25c-0.28596,0 -0.54948,-0.09602 -0.7601,-0.25758l-1.30272,-0.97704c-2.95237,-1.9778 -4.6159,-2.63942 -1.23741,-5.47566c0,0 0.96027,-0.80023 1.7605,0.16004c0.13383,0.1606 0.21841,0.31671 0.26649,0.46535z" fill="#db93e6" stroke="none" stroke-width="0.5" stroke-linecap="butt"/><path d="M217.74656,230.55766c-0.96027,0.80023 -1.76051,-0.16004 -1.76051,-0.16004l-0.62002,-0.79797c-1.02391,-0.39963 -4.22301,-0.61395 -4.56928,-1.84472c-1.24791,-4.43553 3.59967,-2.54921 4.97875,-1.71755c0,0 0.81652,0.51032 0.5684,1.35181c0.19034,0.06875 0.3654,0.13839 0.51608,0.20592l1.04664,1.20203c0,0 0.80023,0.96027 -0.16005,1.7605z" fill="#db93e6" stroke="none" stroke-width="0.5" stroke-linecap="butt"/><path d="M208.92905,232.0703c2.5788,1.59806 3.22891,6.12311 -0.41973,7.08913c-2.04638,0.54181 -5.46155,-2.42326 -5.9624,-4.0216c-0.80093,-2.55596 3.55727,-4.73669 5.15424,-5.09951c0,0 1.22573,-0.24515 1.47088,0.98058c0.09867,0.49332 -0.04093,0.82781 -0.24299,1.0514z" fill="#db93e6" stroke="none" stroke-width="0.5" stroke-linecap="butt"/><path d="M190.36785,260.53832l0.97467,-0.18662c5.57067,-0.45218 10.8745,-2.94218 16.16281,-4.59062c2.23908,-0.99488 4.86196,-1.36709 6.93397,-2.71663c2.59388,-1.68946 5.33178,-3.81264 7.66827,-5.87389c0.85299,-0.75251 2.24107,-2.48332 3.02707,-2.8947c0.2486,-0.13011 3.66408,-0.09515 3.81169,-0.09515c2.839,0 5.63211,-0.03938 8.44798,-0.48072c2.49333,-0.39079 3.56563,-2.46493 6.14102,-2.8502c2.02469,0.08718 3.60218,-0.49522 4.31328,2.22514c0.37302,1.42701 -1.67902,3.05797 -2.02907,4.34915c-0.1511,0.55735 0.01571,1.20031 -0.24658,1.71478c-0.30202,0.59238 -0.85547,1.02816 -1.36789,1.4519c-3.23825,2.6778 -8.3042,3.21569 -12.29372,3.74966c-1.0861,0.14537 -2.21716,-0.27812 -3.28708,-0.04149c-1.13378,0.25076 -1.86419,1.38776 -2.8389,2.01887c-1.58669,1.02737 -3.36467,1.68362 -4.987,2.65826c-8.70406,6.22665 -17.85115,10.14099 -28.58914,10.20388c-0.23263,0.04195 -0.45358,0.00106 -0.62438,-0.05536c-0.1725,-0.04756 -0.37778,-0.13542 -0.54755,-0.29773l-0.75347,-0.50281c-0.94485,-0.59382 -2.36506,-0.71573 -2.88106,-1.70522c-1.05885,-2.03048 0.37687,-3.61932 1.96219,-4.75008c-0.1281,-1.10422 1.00288,-1.33042 1.00288,-1.33042z" fill="#db93e6" stroke="none" stroke-width="0.5" stroke-linecap="butt"/><path d="M307.25825,256.70709c0,0 3.75327,-5.42649 4.73333,-8.36667c0.90241,-2.70724 0.26667,-8.3 0.26667,-8.3c0,0 4.93651,2.12434 5.83428,3.5084c1.47264,2.27032 2.16572,8.82493 2.16572,8.82493l-3.83333,6.16667l-19.66667,9.5l-20.16667,4.5l-12,-1l-6.5,-4.33333c0,0 -2.57686,-2.89547 -3.61218,-4.32665c-0.7808,-1.07934 -1.72115,-5.00669 -1.72115,-5.00669c0,0 2.59293,3.87542 3.95756,5.21329c0.93205,0.91378 3.68857,2.76388 4.71868,3.38092c0.21747,0.13026 1.58214,-2.71281 8.45658,-5.67283c3.67229,-1.58123 9.51239,-3.52916 16.26461,-4.74171c13.81169,-2.48027 21.10258,0.65366 21.10258,0.65366z" fill="#ab164a" stroke="#ab164a" stroke-width="0.5" stroke-linecap="round"/><path d="M258.92494,231.70711l3.83333,5.33333l-2.5,2.33333c0,0 -2.82512,-2.95814 -5.44944,-4.96324c-1.28924,-0.98503 -9.3839,-6.37009 -9.3839,-6.37009l3.16667,-3.66667z" fill="#ab164a" stroke="#ab164a" stroke-width="0.5" stroke-linecap="round"/><path d="M273.11805,225.33491l0.58928,-0.4413c1.43199,1.68215 3.81022,5.08356 3.94717,7.37437c0.06998,1.1706 0.48774,-0.43474 -0.18349,0.45559c-0.06574,0.0872 -3.71335,0.4539 -3.80132,0.52773c-0.80012,0.67144 -0.00997,0.84034 -0.96902,0.42654c-2.22931,-0.96188 -3.03269,-1.93122 -3.19207,-4.44169c-0.14674,-2.31138 1.85207,-4.29117 1.833,-6.69571c0,0 0,-1.25 1.25,-1.25c1.25,0 -1.46429,0.39285 -1.46429,0.39285c-0.00492,0.78051 2.37029,2.624 1.99075,3.65161z" fill="#ab164a" stroke="none" stroke-width="0.5" stroke-linecap="butt"/><path d="M306.47839,222.56237c0.28506,-0.24714 0.76223,-0.4717 1.40005,-0.10724c1.0853,0.62017 0.46513,1.70548 0.46513,1.70548c-2.23825,3.90664 -4.67929,7.96255 -7.90095,10.96206c-0.80507,0.74956 -2.46224,4.02826 -3.85102,3.83443c-2.44184,-0.34079 -2.86075,-2.73318 -2.12663,-4.45815c0.9424,-2.21439 4.01338,-5.04126 5.60855,-6.85044c1.01048,-1.73016 2.53524,-2.76909 4.04454,-4.06277l1.00665,-0.83891c0,0 0.66779,-0.5565 1.35368,-0.18446z" fill="#ab164a" stroke="none" stroke-width="0.5" stroke-linecap="butt"/><path d="M214.22937,202.94704c0.24601,0.91974 2.12628,2.5796 2.12628,2.5796l-2.98104,0.12953c-1.92955,0.12056 -6.67441,0.52223 -9.92503,1.13387c-2.97907,0.56054 -4.54305,1.2174 -4.91415,3.68555c-0.18406,1.22411 0.58565,2.54868 1.02773,3.83837c0.07326,-0.04726 0.14251,-0.09252 0.20742,-0.13571c8.71679,-5.79922 16.25147,-0.59234 21.64252,6.59665c0.44042,0.55044 0.88084,1.10089 1.32126,1.65133l0.73064,1.08749c0,0 0.06767,0.10149 0.12902,0.26221c1.16512,-2.97366 2.48158,-6.60901 4.61371,-8.61939c1.46943,-1.38552 1.81218,-1.17454 3.55055,-1.19945c0.98555,-0.01412 1.89308,0.10148 2.73566,0.32457c-0.0365,-0.32067 -4.54883,-5.80481 -4.11652,-6.15066c3.40933,2.5121 5.27134,4.27576 7.17389,6.40733c2.88327,3.23035 4.95199,6.39801 5.4601,7.11583c1.47797,-1.01087 4.59361,-0.98369 6.17668,-0.0037c0.46301,0.28662 1.03209,0.70852 1.66013,1.216c2.34111,1.89171 5.50159,4.97265 7.04203,6.66915c-0.41867,-1.29574 -1.68348,-5.02589 -2.11488,-6.32435c-0.17611,-0.35843 -0.1499,-0.66915 -0.05069,-0.91601c0.0756,-0.26396 0.25433,-0.53389 0.63751,-0.70847l0.6239,-0.38344c2.09674,-0.77482 3.90342,-2.00686 6.07324,-2.69157c2.5,-0.78892 5.60011,-0.32617 8.16891,-0.30085c0.21095,-0.39207 0.19654,-2.08716 0.67295,-2.08716c0.68683,0 1.05011,3.75056 0.79198,3.92659c2.07508,6.07831 4.44525,10.96449 10.75412,13.85442l0.68321,0.06933c0,0 0.32321,0.05387 0.61109,0.27192l0.18342,0.0444c1.80936,0 3.83018,0.23352 5.56632,-0.42236c3.767,-1.42311 5.92482,-5.05241 8.51065,-7.83723c2.00953,-2.16416 3.4963,-3.00261 5.24954,-5.37372c-0.39607,-0.44756 -0.83515,-1.19119 -1.26279,-1.89005c-1.94955,-1.38725 -4.02501,-5.04489 -5.38079,-6.53907c-1.56225,0.7136 -3.65209,1.40438 -5.29827,1.66318c-0.27276,0.37422 -0.71448,0.61742 -1.21301,0.61742c-0.14764,0 -0.2903,-0.02133 -0.42505,-0.06108c-2.28188,0.51781 -5.50198,-1.23428 -7.24344,-2.90113c-0.09249,-0.01075 -0.19176,-0.05688 -0.26685,-0.10194c-0.2249,-0.0681 -0.42746,-0.18759 -0.59404,-0.34481c-0.8227,-0.47054 -3.46175,-2.03817 -5.68367,-2.89709c-1.592,-0.61542 -2.90902,-0.68452 -3.47147,-0.56895c-0.83355,0.17128 -2.11018,1.18344 -4.32296,2.51185c-1.37994,0.82842 -4.11698,1.61315 -4.29251,1.61315c-0.0602,0.04662 -1.73565,-1.2455 -3.57687,-2.61794c-1.47441,-1.09902 -3.05512,-2.24954 -3.99783,-2.80536c-4.81055,-2.83633 -11.84352,-6.44085 -19.72119,-7.45846c-5.98216,-0.77275 -10.23284,0.24686 -14.67237,1.63336c-3.77953,1.18038 -8.19133,2.40925 -8.59899,2.43684zM263.50782,206.39085c0.07106,-1.40628 0.41633,-2.83986 0.95288,-3.72092l0.09621,-1.32129c0.99961,-5.35062 3.93102,-10.23114 6.74033,-14.94031c-0.23831,0.05618 -0.48059,0.11168 -0.72745,0.16582c0,0 -2.04913,1.33707 -4.83745,2.09778c-0.58434,0.15942 -0.44274,-0.81836 0.76051,-1.8687c1.27996,-1.11729 3.64611,-2.31669 3.64611,-2.31669c1.88489,-0.41112 9.24887,-2.10472 13.77479,-0.98761c5.13492,1.26742 6.87059,4.89887 6.97761,4.95491c0.92203,0.27031 2.21105,0.6756 3.50784,1.1526c-0.91212,-3.09148 -1.74058,-5.12252 -3.44545,-7.84549c-0.66059,-1.05507 -2.67168,-3.26553 -3.01492,-4.31382c-0.10978,-0.33529 -0.1466,-0.65392 -0.11061,-0.94501c-0.03077,-0.09826 -0.05592,-0.19845 -0.07577,-0.30038c-0.49118,-2.52293 2.27061,-6.11085 3.6322,-7.97935c0.31097,-0.42674 0.6162,-1.0976 1.00928,-1.62781c0.54188,-2.64627 1.27308,-6.21438 -1.35498,-7.40422c-2.56637,-1.16191 -6.63228,-1.3865 -11.34484,-0.14458c-3.51208,0.92555 -8.27249,3.49922 -8.27249,2.63783c0,-0.25689 4.21832,-3.97498 4.72805,-4.30574c-1.54708,-1.60258 -3.49847,-2.78308 -5.24129,-4.19912l-0.02663,-0.01689c-2.20234,-0.61972 -4.28409,-1.00472 -6.58513,-1.00326l-0.12504,-0.05924c-3.3835,0.82984 -7.23707,2.61112 -9.89409,4.78533l-0.14085,0.0438c-0.10372,0.09473 -0.1849,0.14469 -0.1849,0.14469l-1.22177,0.74769c-2.43621,2.06803 -5.59865,4.6244 -7.55768,7.37896c-0.04319,0.58943 -0.5823,0.94884 -0.5823,0.94884l-0.03632,-0.00218c-0.08975,0.15112 -0.17534,0.30271 -0.25647,0.45474c0,0 -0.22653,0.42069 -0.65958,0.60183c-1.29212,1.66115 -2.35407,3.56384 -3.34042,5.39817c0,0 -0.01658,0.03079 -0.04934,0.0793c-0.03027,0.05011 -0.05125,0.07808 -0.05125,0.07808l-0.48197,0.60902c-0.95186,1.90028 -2.27948,3.62594 -2.93218,5.63627c0,0 -0.01488,0.04462 -0.04752,0.11368c-0.0297,0.07037 -0.05303,0.11121 -0.05303,0.11121l-0.38794,0.67839c-1.27919,2.34428 -2.7637,4.55696 -3.49546,7.14484c0,0 -10.37927,6.11351 -11.29385,6.57962c-2.54882,1.299 -7.75591,3.96691 -8.95027,6.84591c-0.32597,0.78575 0.25512,0.681 0.76041,1.39119c0.66077,-0.8142 15.70795,-6.32995 25.49335,-5.49558c15.90455,0.97707 23.67235,9.14996 24.69964,10.01771zM304.60184,215.76597l0.28342,-0.19245c0.77296,0.92769 1.55786,1.84147 2.36355,2.73663c0.01203,0.00761 0.0241,0.01546 0.03622,0.02354c0.25586,0.17057 0.40682,0.36213 0.489,0.55402c0.5374,0.58476 1.08467,1.16097 1.64434,1.7273l0.61987,1.06656c0.16632,0.18982 0.24215,0.41649 0.27558,0.6057c0.04822,0.20262 0.0682,0.46546 -0.0339,0.72594c-0.71001,3.78703 -4.05787,7.94089 -5.80892,11.53606c0.76106,1.16235 1.00424,1.42477 1.75826,2.5931c4.21657,0.19454 8.65617,1.91425 11.50461,5.20316c0.19991,-0.0546 0.3549,-0.0551 0.35774,-0.05511l1.32696,0.49162c1.99899,2.62185 6.77424,12.24382 3.98547,19.45419c-2.18628,5.65265 -12.57634,12.23982 -13.69255,12.89954c-5.76838,3.40924 -24.19799,7.76995 -27.69732,8.03137c-7.80982,0.58344 -20.02198,0.12872 -26.60389,-4.724c-2.76196,-2.03635 -4.66377,-6.04342 -6.59134,-8.82022c-1.47419,-3.94015 -1.06536,-5.94945 -1.23733,-10.08479c0.10423,-1.49651 0.10541,-3.25689 0.13097,-3.91017c0.00509,-0.13011 0.01503,-0.19302 0.02363,-0.22105c-0.01673,-0.00529 -0.04881,-0.03777 -0.10506,-0.14355c-0.64112,-1.20556 -1.92952,-3.39749 -1.96986,-3.49983c-0.04452,0.00858 -5.26243,2.18641 -8.60543,2.69343c-2.49339,0.37816 -6.534,0.43711 -6.75897,0.53686c-6.45847,2.86365 -14.32328,8.9841 -17.66496,10.7072c-5.05297,1.86642 -8.21887,3.44563 -11.24474,3.84195c-5.53522,0.72501 -18.86014,1.74163 -24.26967,0.54241c-2.47603,-0.70744 -6.93742,-1.53337 -8.99241,-3.12986c-4.57287,-3.55257 -5.96475,-7.72727 -5.95016,-13.41509c0.0057,-2.22403 0.27335,-4.6889 2.08119,-6.26311c1.4953,-1.30205 2.08351,-1.2938 3.94019,-1.92274c0,0 0.2523,-0.0841 0.56295,-0.05835c1.32388,-2.12435 2.45243,-3.96592 4.53711,-5.72604c1.62005,-1.36783 4.21361,-2.68648 5.38242,-4.05041c2.76955,-2.76738 7.33,-6.59142 10.44235,-8.90299c1.39823,-1.03848 3.21369,-2.03775 3.21369,-2.03775c-0.15383,-0.9303 -0.28157,-1.64301 -0.37591,-2.58091c0,0 -0.11459,-1.84629 0.71063,-2.74817c1.13356,-1.23887 3.04336,-2.52371 4.68012,-3.55534c-0.10083,-1.95968 -1.63857,-3.4771 -1.29182,-5.55302c0.99158,-5.93622 8.65181,-6.58848 14.25201,-6.84423c-0.85779,-1.37453 -1.11525,-3.65974 -0.45889,-5.14518c2.09239,-4.7354 12.00168,-9.19233 16.23329,-10.7424c0.78398,-0.28718 2.94047,-1.57123 4.40433,-1.85761c0.82218,-2.64225 2.2901,-4.42015 3.6107,-6.84214l0.35461,-0.62099c0.73969,-2.09466 2.02841,-3.84303 3.02472,-5.83946l0.65665,-0.90627c1.28877,-2.38648 2.69895,-4.8048 4.49738,-6.8317c2.09897,-3.26502 5.75158,-6.28572 8.63065,-8.71528l1.16132,-0.71816c0.16114,-0.18356 0.36732,-0.28681 0.54831,-0.34489c3.02137,-2.307 7.03527,-4.20075 10.72474,-5.09115c0.31285,-0.15323 0.6088,-0.12594 0.84602,-0.04356c0.06668,0.01522 0.13489,0.03621 0.20257,0.06467c2.41842,0.0485 4.64931,0.47432 6.9938,1.14346c0,0 0.07378,0.02108 0.17955,0.07107c0.10659,0.04821 0.17043,0.09078 0.17043,0.09078l0.39486,0.26992c2.09629,1.70325 5.61165,2.9609 7.36089,5.00292c0.34046,-0.06968 3.14392,-0.57697 3.90234,-0.63278c2.36035,-0.17368 11.09083,-0.69563 12.64842,4.13615c2.34238,7.26628 -5.02337,16.12476 -5.00567,16.39578c0.53438,0.5758 0.3647,1.04573 0.61775,1.38186c2.51623,3.34233 4.31565,7.05108 5.82968,10.91539c0.39893,1.01819 1.12604,4.49137 0.35702,5.12609c-0.17665,0.41671 -1.5012,0.79473 -1.50247,0.79472c-1.01445,0.05686 -4.71568,-0.48846 -4.80532,-0.42499c-0.55428,2.02319 -2.34228,3.0174 -2.59087,5.57009c-0.07781,0.79892 2.15965,2.87763 3.0761,4.48361c1.02454,0.7276 2.15476,1.89831 3.02438,2.96236c2.64732,-1.08631 5.67762,2.49036 5.61573,4.39838c1.34942,1.40475 2.69933,3.28138 3.589,4.41792zM289.86848,205.70642l-0.10946,-0.44446c-0.4516,-0.48519 -0.87097,-1.04622 -1.05331,-1.24313c-3.75413,-4.054 -2.55696,-6.40319 0.10161,-12.6857c0.09825,-0.23332 -3.1068,-3.86068 -7.10536,-5.07738c-0.52298,-0.15913 -1.13629,-0.41591 -1.50126,-0.84187c-2.01401,-0.39199 -3.73411,-0.20226 -5.51408,0.17807c-2.94741,5.0322 -6.56434,10.30919 -7.65027,16.07663l-0.09289,1.32909c0,0 -0.00793,0.11101 -0.05219,0.26442c0.17514,0.94185 0.08065,2.20291 -0.10328,3.3573c3.01036,-1.32203 7.21998,-2.667 8.15359,-2.57455c0.65805,0.06516 2.83416,0.17719 3.11636,0.67105l0.0743,0.13001c1.92429,0.56848 4.53909,2.47685 5.93863,3.71276c1.62574,0.53338 3.66319,2.92292 4.76919,2.94995c0.68255,0.01668 1.59504,-0.29558 2.26846,-0.2272c0.66323,-0.41611 1.49143,-0.79648 2.36138,-1.11516c-1.3514,-1.3027 -3.17808,-3.6132 -3.60139,-4.45983zM195.91173,241.19655c0.90814,1.05793 4.76181,2.26739 4.89687,1.64648c0.16318,-0.7502 -1.19867,-3.3336 -3.54441,-5.27936c-2.78327,-2.30868 -6.77044,-4.03689 -8.68385,-5.21129c0,0 -0.00154,-0.00095 -0.00447,-0.00283c-0.2261,-0.1289 -2.24453,1.0583 -3.83524,2.52291c0,0 2.45429,0.78233 4.4774,1.78391c2.53544,1.25521 4.90086,2.91818 6.6937,4.54018zM203.06935,239.84053c1.22726,3.18103 -1.14404,9.19658 -5.4319,7.32273c-1.12164,-0.49017 -2.72785,-3.29975 -3.52271,-4.22864c-2.85173,-2.66103 -4.8532,-3.91542 -10.75091,-5.02763c0,0 -2.65604,-0.88281 -2.85943,-0.67924c-3.54365,3.98064 -14.90599,10.72465 -7.83715,17.24018c1.06466,0.98133 1.54766,0.22518 2.75319,1.0713l1.28205,1.28519c3.19875,1.07471 12.26965,1.46602 15.60339,1.46602c5.89285,0 19.00835,-4.47864 22.03649,-6.75058c4.21822,-3.16483 7.82743,-7.30911 12.8412,-9.28368c0.04565,-0.0205 0.09094,-0.03782 0.13489,-0.05247c0.0003,-0.00011 0.0006,-0.00024 0.00091,-0.00035c0,0 0.08452,-0.03169 0.21663,-0.05533c0.13201,-0.02426 0.22227,-0.02426 0.22227,-0.02426h0.00118c0.03534,-0.00131 0.07196,-0.00143 0.10952,0h0.8893c4.16838,0 7.64202,0.25785 11.50761,-1.39893c0,0 0.01731,-0.00742 0.04861,-0.01832c0.03063,-0.01265 0.0485,-0.01861 0.0485,-0.01861l0.90289,-0.29641c1.25286,-0.53629 2.33139,-1.10551 3.45708,-1.83295c-0.9781,-0.65983 -1.97242,-0.99559 -2.8955,-2.12831c-1.16513,-1.42973 -0.74641,-3.85191 -0.74165,-5.513c0.3596,-1.81626 -0.14011,-4.47275 0.3551,-6.43376c-1.29384,-1.94592 -2.59836,-3.90995 -3.94697,-5.83354c-1.26635,-1.22534 -2.69738,-2.12067 -4.30479,-2.19475c-0.95631,-0.04408 -2.58729,0.86878 -3.32477,1.69135c-2.21357,2.46899 -3.33514,5.21248 -4.62384,8.21963c0,0 -1.38676,3.40645 -1.39178,3.41944c-0.95144,0.49462 -1.13054,-4.10736 -1.13054,-4.10736l-1.93603,-1.69029c-0.44847,-0.56067 -0.89694,-1.12134 -1.34541,-1.68201c-1.2029,-1.60367 -3.50376,-3.26981 -4.9839,-4.63708c-7.1878,-6.63967 -13.6686,-2.05336 -19.31072,3.58876c0,0 -0.04973,0.04973 -0.13741,0.11381l-0.00268,0.37793c0.10769,1.08361 0.26429,2.16293 0.45609,3.23496c0.0082,0.02133 0.0157,0.04247 0.02251,0.06342c0.18753,0.00193 0.37507,0.00419 0.56261,0.00681c0.92368,-1.17978 1.81348,-2.65999 3.11384,-3.39967c1.81881,-1.03458 4.7455,-0.95044 6.74502,-0.95044c3.87887,0 13.4213,0.95768 12.48552,11.76961c-0.031,0.35822 -0.6658,0.8238 -2.03928,0.3589c-1.21877,-0.41253 -3.02544,-2.01465 -4.56926,-2.75269c-2.59034,-1.23833 -4.8441,-1.65761 -5.28662,-1.73238c1.29649,0.66058 2.50929,1.44012 3.594,2.35765c2.39872,2.02902 3.75993,8.03568 -0.21075,9.31581c-0.88118,0.28409 -3.90723,0.25917 -4.99621,0.27c-0.74155,-0.32379 -1.43232,-0.69424 -2.08804,-1.09354c0.09998,0.20795 0.19276,0.42207 0.27787,0.64269zM189.48061,230.06208l0.00681,0.0019c0.03567,0.00869 0.06968,0.01834 0.10172,0.02846l0.20188,0.05648c3.5636,0.0061 9.53653,1.18076 12.35076,3.50962c1.28874,1.06647 3.74178,3.10322 5.4849,3.86257c0.97638,0.42534 1.73003,0.1449 1.93156,-0.19123c1.51845,-2.53259 -1.15395,-4.86316 -2.97634,-5.97654c-3.95239,-2.41468 -9.01054,-3.49848 -13.59701,-3.80745c-1.4845,0.72307 -2.94014,1.61687 -4.35078,2.61586c0.29483,-0.16866 0.60362,-0.15652 0.84131,-0.10064c0.00342,0.00062 0.0052,0.00097 0.0052,0.00097zM205.90214,223.20447c-1.41379,0 -3.75453,-0.39309 -5.03276,0.38289c-0.57972,0.35193 -0.16115,0.93509 -0.69246,1.55119c5.69715,0.23779 10.33202,1.00348 15.5624,3.3474c-1.30805,-4.14872 -5.72226,-5.28147 -9.83717,-5.28147zM164.67492,255.37377c-0.00206,0.73402 -0.13366,1.76658 0.22647,2.49431c0.80471,1.6261 2.10762,3.14139 3.18912,4.5876c1.00442,1.34314 1.83265,2.47262 3.53563,3.06657c1.71477,0.59807 4.33907,1.63502 6.10619,2.1399c5.16316,1.15051 12.93187,0.4441 18.20652,-0.17188c2.65839,-0.31045 9.98486,-1.47447 12.34295,-2.6805c2.07853,-1.06306 8.33767,-4.94107 13.81464,-8.26195c2.33381,-1.41507 4.92182,-3.15897 6.34752,-3.98059c0.5265,-0.30341 16.30687,-3.13178 16.30687,-3.13178c0.26009,-2.42067 0.60433,-4.12449 2.7207,-5.18393c-0.6599,-1.22808 -1.59134,-2.98055 -1.59134,-2.98055c-1.37712,0.91553 -2.11432,0.76827 -3.62955,1.41839l-1.04636,0.35313c-1.01951,0.43367 -1.8469,0.84292 -3.38017,1.21395c-4.76978,1.15425 -10.98348,1.65304 -10.98348,1.65304c-0.62731,0.23935 -2.27509,2.3619 -5.17201,4.42916c-0.71632,0.51117 -7.12599,4.53452 -15.30213,7.66726c-3.01567,1.15547 -6.27164,2.18978 -9.57089,2.88202c-9.0918,1.9076 -19.47357,-0.513 -20.98158,-1.01241l-1.21484,-0.51947c0,0 -0.04748,-0.02035 -0.11901,-0.06243c-0.07309,-0.0393 -0.11514,-0.06933 -0.11514,-0.06933c-1.30382,-0.93131 -2.99168,-1.85143 -4.13482,-2.94466c-1.17256,-1.12137 -1.54631,-2.0016 -2.12881,-3.43234c-0.67644,-1.66147 -0.80822,-3.16368 -0.554,-4.54425c-2.81711,1.39851 -2.86248,3.49652 -2.87248,7.07075zM223.84873,229.78562h0.00001c-0.00002,0.00005 -0.00003,0.00005 -0.00001,0zM266.33617,254.70311c2.9985,-0.62343 4.93344,-1.59545 7.55303,-2.15471c4.32048,-0.92237 8.90771,-1.54863 12.36737,-2.13623c4.64229,-0.78845 7.75468,-1.40722 10.2385,-1.6243c1.89447,-0.16557 9.10739,-0.03677 4.84434,-2.67754c-0.19095,-0.11828 -1.90278,-0.24272 -3.47804,-0.32159c-1.82227,-0.09124 -3.58862,-0.1215 -4.64428,-0.01073c-2.85442,0.28543 -8.17478,0.52443 -11.03204,0.73465c-1.95081,0.14353 -8.39085,0.83452 -12.70933,2.2475c-2.74165,0.89705 -4.75858,3.2726 -4.88743,4.64312c-0.10563,1.12351 1.42654,1.36662 1.74789,1.29981zM293.77964,251.46075c-3.76578,0.14375 -18.36476,2.79049 -20.35422,3.2612c-2.51581,0.59526 -4.54441,1.55491 -7.18947,1.59549c-2.56285,0.03932 -4.46203,0.0089 -3.6715,-2.83755c0.00248,-0.00894 1.20902,-3.35991 1.17786,-3.35452c-0.15525,0.06297 -1.83182,0.42565 -2.27335,-1.14684c-1.13656,-4.04778 0.5024,-2.58401 -0.08868,-3.87603c-0.20182,-0.44115 -2.8478,-0.16913 -2.93244,-1.87369c-0.14085,-2.83684 0.83318,-5.19036 2.69267,-6.99974c-0.20303,-0.08828 -0.36007,-0.22772 -0.46708,-0.34641c-0.07953,-0.08524 -0.12192,-0.14882 -0.12192,-0.14882c-2.65683,-4.01669 -6.93046,-7.00266 -10.64732,-10.07584c-1.04716,-0.86581 -3.83462,-1.02927 -5.30525,-0.77784c-1.98325,3.42939 -1.95514,8.27953 -1.33844,8.91334c1.44914,1.48934 4.27252,4.77906 5.61373,6.40997c2.82124,3.43061 5.09907,8.56016 5.33665,13.43648c0.36878,0.37037 -0.83898,4.80777 0.06457,7.49932c0.18393,0.54791 2.42948,4.41898 5.08415,6.0884c5.06857,3.18744 11.38437,4.6307 13.99424,4.82559c11.2239,-0.00712 23.39061,-6.73413 33.47344,-11.06218c1.74676,-0.7498 9.20089,-3.91747 11.34714,-7.61286c2.08828,-3.59559 -0.95683,-6.72123 -1.45405,-7.44021c-1.88838,-2.73066 -2.6683,-3.89183 -5.50857,-4.93379c-0.65152,-0.23901 -3.78572,-0.42794 -5.52324,-0.85656c-0.68535,-0.16906 -1.15339,-0.85796 -1.16607,-0.87144c-0.16201,-0.15224 -0.29282,-0.37116 -0.33402,-0.68597c-0.89463,-1.40117 -1.8829,-2.72747 -2.76994,-4.13522c-0.25488,-0.31673 -0.29912,-0.62761 -0.25573,-0.89163c0.01599,-0.24987 0.11598,-0.52245 0.3906,-0.76236c0.96165,-2.12394 1.96822,-2.61945 3.41124,-4.45991c0.47238,-0.60249 1.88365,-2.53438 2.17417,-3.56764c0.36622,-1.30247 -0.17372,-2.25332 -0.31072,-2.395c-1.76,2.27304 -4.30141,4.50843 -6.26586,6.62395c-1.4798,1.59359 -2.75498,3.03589 -4.21386,4.27472c1.17255,1.04118 1.73599,1.77289 2.12888,3.48628l0.01786,0.30555c0,0 0,0.19165 -0.09688,0.3812c1.73577,1.04764 2.86728,2.84165 2.8826,5.76166l-0.01167,0.0883c0.65902,0.3579 2.10727,0.62882 3.17879,1.79796c1.01201,1.10422 1.70147,3.09065 0.62545,4.0256c-1.28318,1.11493 -2.06363,1.806 -4.27934,2.10188c-2.30919,0.30836 -6.04806,0.19826 -7.01442,0.23515zM266.30084,233.2391c3.52479,-1.19402 9.61988,-1.37776 9.92611,-1.44978c-2.90124,-3.09963 -4.58826,-7.01673 -6.09805,-11.51793c-2.1396,-0.02942 -4.26193,0.68911 -6.33832,1.34534c-1.91608,0.60556 -4.68339,1.21353 -5.06566,2.55303c1.09208,3.37326 1.77869,5.91003 3.30788,9.12517l0.64408,1.12536c0,0 0.03791,0.06635 0.07858,0.1756c0.03188,0.08137 0.06262,0.17889 0.082,0.28672c1.00602,-0.65478 2.16671,-1.20426 3.46338,-1.64351zM272.40072,245.14547c4.21331,-0.39233 7.2741,-1.06246 11.49376,-1.37731c2.82648,-0.21089 3.74327,-0.44465 6.56815,-0.72715c1.96607,-0.20514 6.34884,-0.81928 8.31412,-0.82855c-0.12273,-1.58835 -2.91653,-3.68254 -5.93333,-3.75141c-3.34051,-0.07626 -5.96841,0.79311 -9.12453,1.40214c-3.52733,0.68067 -8.22706,0.75678 -11.8424,1.47892c-0.92729,0.23032 -3.57124,0.84153 -5.33768,2.02842c-1.88197,1.26452 -2.85231,3.13184 -2.5355,4.18055c2.66683,-0.61678 5.48217,-2.13415 8.3974,-2.40561zM296.94205,236.78156c-0.31988,-1.27934 -0.76461,-1.68216 -1.79649,-2.56544c-1.06631,0.75948 -0.26257,1.42039 -1.70733,1.9668c1.96239,-0.08783 1.88558,0.04604 3.50382,0.59864zM281.52765,236.92611c-1.51614,-0.69977 -1.96082,-2.25337 -3.12162,-3.15235c-0.09445,0.04462 -0.15886,0.06394 -0.15886,0.06394c-1.55603,0.4647 -3.34345,0.68207 -5.11516,0.97778c-1.22049,0.528 -8.76417,4.02629 -10.58201,5.27295c-0.78442,0.53796 4.17369,-1.0979 9.33057,-2.06744c4.72,-0.88739 9.64708,-1.09488 9.64708,-1.09488zM247.97875,246.64121c-0.69268,0.33724 -0.31615,3.65007 0.22724,5.47599c0.28827,0.96868 0.6355,1.80483 1.15768,2.48715c1.01824,1.33051 1.87386,2.07607 1.87693,2.07875c1.10787,-4.6488 -1.88273,-6.78503 -3.26185,-10.04189zM255.63005,275.16155c6.11547,4.45406 18.14098,5.30993 25.34499,4.79793c3.4447,-0.24481 19.21887,-3.2794 24.73475,-6.53818c2.37421,-1.40268 9.42329,-5.60584 11.46649,-7.49349c0.97034,-0.89647 4.10821,-4.87039 4.87479,-7.52604c1.37819,-4.77445 0.30372,-4.54321 -0.55139,-6.25756c0.11877,0.43643 0.32941,1.04552 -2.19911,4.64331c-3.32166,4.72634 -10.38664,7.02991 -12.46847,7.92131c-10.47244,4.48411 -21.63149,9.99237 -33.28847,9.98543c-2.76948,-0.21839 -11.2535,-0.8683 -16.50516,-5.5852c-2.60956,-2.34384 -4.03987,-4.81794 -4.78625,-7.27558c-0.47007,-1.54781 -0.66886,-3.77864 -0.72009,-3.79913c-0.1779,-0.07116 -1.31763,-0.30154 -1.4267,-0.39873c0.0479,3.47375 -0.71932,7.44786 0.49692,10.67947c0,0 2.56077,5.04972 5.0277,6.84645z" fill="#000000" stroke="none" stroke-width="0.5" stroke-linecap="butt"/></g><g><g><path d="M344.82021,187.50714c-0.54153,0.3075 -0.93731,0.08628 -1.15886,-0.1244c-1.4219,2.1375 -4.31914,2.53449 -6.87782,2.98913c-1.76489,0.3136 -3.55983,-0.25958 -4.87418,-1.23119c-3.41612,-2.52527 -5.81445,-5.033 -8.52044,-8.26053c-1.28225,-2.41929 -5.68376,-6.30503 -4.64929,-9.22932c1.00456,-2.83977 4.29808,-1.10018 5.95055,-0.27163c5.87633,2.94647 11.16086,5.96706 16.13993,10.32176c1.37594,1.20437 2.72407,2.26941 3.90539,3.66563l0.46053,0.77714c0,0 0.49379,0.86957 -0.37579,1.36337z" fill="#0f1b82" stroke="none" stroke-width="0.5" stroke-linecap="butt"/><path d="M320.88604,168.75207c0.47165,-0.6177 1.21801,-0.242 1.21801,-0.242l1.25049,0.62948c2.4473,1.23192 4.79399,2.63942 7.23445,3.86558c4.76465,2.39843 13.03411,5.12985 15.19933,10.37406c1.10627,2.6794 -2.27606,5.61378 -4.72629,5.76938c-0.93907,0.05964 -2.78489,-1.38149 -3.50995,-1.90904c-6.64594,-5.25226 -12.77151,-9.68037 -17.36984,-16.94558c0,0 -0.53459,-0.84512 0.31051,-1.37971c0.13995,-0.08853 0.27138,-0.13922 0.39328,-0.16218z" fill="#0066cc" stroke="none" stroke-width="0.5" stroke-linecap="butt"/><path d="M322.76856,160.75577c0.07671,-0.11522 0.20209,-0.21917 0.40246,-0.28537c0.71215,-0.23525 0.9474,0.47689 0.9474,0.47689l0.31509,1.07656c-0.9795,3.24335 -2.67345,4.93788 -4.98403,7.21823c-1.62682,1.60554 -2.77806,4.01541 -4.29592,5.77624c-1.48531,1.60147 -5.28781,4.43545 -7.48056,3.43315c-2.1437,-0.97989 -2.80142,-4.33312 -3.12085,-6.0141c-0.28257,-1.48702 -3.62066,-1.47221 -3.37682,-3.96693c0.04338,-0.44381 0.37681,-0.80833 0.56521,-1.21249c3.33702,-4.06402 8.80131,-3.52319 13.34648,-4.86124c2.54588,-0.74949 5.04336,-1.24938 7.68154,-1.64094z" fill="#fddfbd" stroke="none" stroke-width="0.5" stroke-linecap="butt"/><path d="M311.8805,169.70663l0.14776,0.15721c-0.11752,0.1174 -0.24692,0.23829 -0.38492,0.36231c-0.57219,1.03675 -1.6094,1.79094 -2.77531,2.57c-0.96336,1.19319 -1.18387,2.44163 1.02493,3.55522c0.50829,0.25627 1.057,0.42782 1.60644,0.58037c0.13248,0.00525 0.27779,0.05346 0.42454,0.17866c0.11344,0.0826 0.22889,0.20842 0.27139,0.39226c0.05332,0.18098 0.01461,0.34731 -0.04358,0.47499c-0.06949,0.18999 -0.17929,0.30546 -0.29853,0.37414l-0.26456,0.24936c-2.97515,1.97059 -8.69899,7.10421 -11.11537,1.48725c-0.02717,-0.06316 -0.81759,-2.71598 -0.83222,-2.76498c-0.5079,-1.1835 -1.70338,-3.0416 -1.55341,-4.38017c0.66947,-5.97537 9.65075,-6.52119 14.11662,-5.88108c0,0 0.74218,0.10807 0.6341,0.85024c-0.03938,0.27044 -0.16296,0.428 -0.30415,0.519c0.04171,0.1424 0.04151,0.29737 -0.00721,0.44496l-0.22192,0.71434l-0.11114,-0.03452l-0.10304,0.20468l-0.19473,-0.09803c-0.00515,0.01464 -0.01038,0.02924 -0.01569,0.04377z" fill="#f89587" stroke="none" stroke-width="0.5" stroke-linecap="butt"/><path d="M325.26669,116.85075c0.73869,5.52856 -3.07233,12.74227 -6.3685,17.07397c-3.27065,4.29817 -13.50523,8.69019 -16.56808,10.61913c-4.96972,3.12986 -6.28071,4.73653 -11.12947,5.93481c-5.47376,1.35275 -12.70942,-6.12636 -17.26823,-8.33171c-3.1944,-1.54531 -6.6956,-3.1723 -9.89138,-4.71473c-6.88226,-3.32169 -14.3472,-6.98483 -21.19026,-10.38399c-0.0619,-0.03075 -3.86654,-1.63781 -6.61607,-3.34248c-0.1324,-0.07899 -0.26196,-0.16115 -0.3886,-0.24629c-2.64845,-1.7806 -4.0291,-4.87291 -3.70278,-7.9475c-0.10671,-6.37002 4.50319,-14.18956 6.31562,-19.18306c1.0462,-2.88242 2.25197,-5.62807 3.35498,-8.4665c1.50776,-3.87997 1.50039,-6.28516 4.14266,-9.89775c1.78809,-2.4447 4.52882,-10.23807 6.80917,-10.35858l1.02164,-0.05398c6.80781,-2.73856 18.42432,1.06736 24.00738,2.40239c4.7026,1.12449 9.96496,4.27296 13.99456,6.17148c1.55594,0.73308 3.25083,0.55887 4.7034,1.52793c1.83904,1.22689 3.39699,3.60376 5.28381,4.61897c9.75461,5.24862 20.46799,12.56503 26.41068,21.95946l0.55449,1.67855c0.58372,1.76705 0.59074,3.72459 -0.08015,5.56611c-0.1015,0.35985 -0.23898,0.67857 -0.42012,0.96445c-0.74128,1.45267 -1.8439,2.6017 -3.14301,3.39263c0.06651,0.33694 0.12273,0.67584 0.16828,1.01669z" fill="#ff2d32" stroke="none" stroke-width="0.5" stroke-linecap="butt"/><path d="M327.49584,105.16686c0.60121,-0.44838 1.04959,0.15284 1.04959,0.15284l0.33787,0.47327c0.3776,0.76375 0.6731,1.5677 0.94073,2.37656c0.58315,2.74694 -0.18339,3.31903 0.6045,5.88499c0.63712,2.07496 1.49766,6.94508 1.06468,8.96372c-0.71551,3.33583 -1.07091,6.26716 -1.08464,9.64256c-0.31853,2.18753 -0.20287,4.33069 -0.95321,6.45621c-0.43897,1.2435 -1.19793,2.50153 -1.31285,3.84814c-0.19359,2.26834 0.44866,4.53735 0.15895,6.81173c-0.31512,2.47378 -1.80709,4.7115 -3.31195,6.63517c-2.97251,3.45079 -6.39725,4.74545 -10.66474,6.0281c-2.14027,0.64328 -4.77337,1.8005 -7.04279,1.14838c-1.23718,-0.35549 -2.54695,-1.26693 -3.70564,-1.85019c-1.7568,-0.91058 -2.63483,-2.66442 -4.27321,-3.72471c-2.69399,-1.74344 -3.85091,-3.76082 -5.86708,-6.15084c-2.06364,-2.44631 -4.52499,-4.51505 -6.68613,-6.87033c-1.60946,-2.43837 -0.18759,-3.75466 1.41825,-5.88372c2.44723,-3.24458 5.72321,-6.05914 7.55741,-9.70288c0,0 0.01603,-0.03184 0.04803,-0.07813c0.03049,-0.04728 0.05377,-0.07428 0.05377,-0.07428l0.51926,-0.6016c2.05361,-2.79039 4.86092,-5.23716 7.10581,-7.87435c0.00032,-0.00037 0.00047,-0.00056 0.00047,-0.00056l0.00001,-0.00001l0.55755,-0.64608c4.45279,-4.4288 7.93493,-9.02449 12.93102,-12.88734c0.05131,-0.12361 0.13685,-0.21625 0.22145,-0.28305c0.08246,-0.07762 0.1933,-0.15208 0.33238,-0.18216c2.5206,-2.9681 6.58214,-3.02741 9.98636,-1.60073c0.00464,-0.00357 0.00935,-0.00715 0.01412,-0.01071z" fill="#ab164a" stroke="none" stroke-width="0.5" stroke-linecap="butt"/><path d="M230.78505,118.30372c0,0 6.57463,-19.2262 13.15323,-34.42499c4.0005,-9.24249 7.25194,-17.37347 11.19428,-17.69519c22.10284,-1.8037 43.31231,13.88475 54.11656,20.79107c6.47153,4.13675 17.57715,12.98547 19.32224,19.54808c3.41195,12.83092 1.86745,24.94315 0.63112,33.67046c-1.10825,7.82313 -1.76396,12.95621 -1.76396,12.95621l-7.17591,7.58328l-15.4012,3.53614c0,0 -24.28226,-27.9867 -37.85007,-35.63229c-21.56663,-12.15299 -36.22626,-10.33275 -36.22626,-10.33275z" fill="none" stroke="#000000" stroke-width="3" stroke-linecap="round"/><path d="M285.51919,143.61668c0,0 14.35047,-22.69733 32.86641,-37.62534c3.45731,-2.78737 8.60484,-0.83498 8.60484,-0.83498" fill="none" stroke="#000000" stroke-width="1.5" stroke-linecap="round"/><path d="M231.24019,124.65604c4.75522,-3.41527 9.22673,-2.29863 14.76239,-1.05279c2.42743,0.54631 5.04535,0.88788 7.40515,1.67234c6.6492,2.21036 12.99474,7.44674 17.96006,12.21426c6.93981,7.52636 15.43012,14.36419 18.92183,24.22498c0.57981,1.69464 0.49034,2.33336 0.3151,4.08769c-1.04851,10.4972 -12.97309,5.03412 -19.64496,4.62357c-6.28789,-0.54077 -13.3718,-2.13359 -19.27245,-4.48968c-2.37225,-0.94723 2.38768,0.29696 -0.05478,-0.46618c-8.0056,-2.85032 -23.05117,-9.8089 -29.61548,-15.16057c-3.78784,-3.09233 -7.88811,-6.88436 -10.17086,-11.27175c-1.99593,-3.83609 -0.19884,-6.88836 3.64446,-8.08932c3.04797,0.2551 6.0943,0.28993 9.08785,1.01831c0.69707,0.16961 3.00547,1.1869 3.81095,0.83875c0.46574,-0.20133 0.27484,-0.9769 0.41769,-1.46375c0.61403,-2.0926 0.65232,-4.23064 1.17251,-6.32021c0,0 0.18386,-0.72711 0.91099,-0.54325c0.15383,0.0389 0.26689,0.10212 0.34955,0.17762z" fill="#fddfbd" stroke="none" stroke-width="0.5" stroke-linecap="butt"/><path d="M230.72489,118.49734c0,0 25.81877,3.51336 37.07629,10.51142c13.08244,8.13248 36.76914,35.3934 36.76914,35.3934l-5.65564,7.67683l-2.41471,-0.09596l-10.73188,-0.47619l-0.16053,-6.79811l-12.08559,3.9923c0,0 0.39473,-20.69049 -1.21841,-21.98018c-1.61678,-1.29262 -19.38651,1.0843 -19.38651,1.0843l6.1258,-16.17265l-29.86604,-2.94283z" fill="#f89587" stroke="#f89587" stroke-width="0.5" stroke-linecap="round"/><path d="M311.72081,168.39c-2.03684,-0.09543 -4.30285,-0.14599 -6.37381,-0.14225c-0.35432,1.80134 -0.19644,4.56073 -0.05383,6.55655c2.17811,-2.01098 4.84424,-3.95179 6.42765,-6.41429zM302.50507,168.31951c-1.58497,1.94477 -3.08457,4.35504 -3.08457,4.35504c0.64425,1.32793 3.04054,8.90273 4.17363,9.1272c2.3144,0.4585 6.20905,-3.73514 7.81912,-4.94372c1.18463,-0.88923 2.2347,-1.80128 3.18997,-2.74371c3.24242,-3.19888 5.39265,-6.74791 8.00583,-10.94386c0.26058,-0.40926 1.24547,-1.24867 0.76036,-1.24112c-2.82433,0.04388 -5.50247,0.93585 -8.25034,1.56075c-3.20236,0.72825 -7.51943,0.90265 -10.40024,2.65101c-0.35608,0.2161 -0.75524,0.56548 -1.17055,0.99328c0.70185,0.20883 1.62829,-0.30336 2.47073,-0.3175c1.58147,-0.02655 2.39337,-0.49948 3.77465,-0.51001c0.26475,-0.00203 4.49369,-0.25776 4.00938,1.35729c-0.73335,2.44548 -6.56917,7.29602 -8.17298,8.89238l-0.4434,0.27401c-0.09522,0.09406 -0.23217,0.1681 -0.42894,0.19178c-0.13512,0.02465 -0.3044,0.02351 -0.46536,-0.06683c-0.16465,-0.0834 -0.25988,-0.2234 -0.31462,-0.34935c-0.08364,-0.16434 -0.10222,-0.30995 -0.08417,-0.43531c-0.16862,-2.34966 -0.37857,-5.18977 0.0101,-7.50798c-0.47962,-0.0685 -0.94724,-0.17821 -1.39861,-0.34335zM324.08236,167.70673c5.83215,2.93579 12.81173,5.80774 17.84802,9.98138c1.90557,1.57916 4.43427,4.00879 4.3218,6.7187c-0.10439,2.51523 -1.79112,4.86748 -3.57707,6.18809c-1.4123,0.58517 -3.58654,3.49964 -5.07745,3.27159c-2.63952,-0.40377 -7.18892,-3.43465 -8.81565,-5.25262c-3.67817,-4.11062 -8.59941,-9.58515 -10.92062,-14.58136c-2.0026,2.46204 -3.07743,3.20441 -5.51396,5.17226c-2.13196,1.72186 -6.35147,5.62173 -9.41861,5.02454c-2.14815,-0.41826 -4.04206,-5.34279 -4.04206,-5.34279c-1.31036,-2.01038 -2.1929,-3.84092 -3.19422,-5.91723l-0.40218,0.01503c-3.90004,-0.48909 -8.30146,0.06269 -12.2624,0.16792c-7.75945,-0.65622 -15.99717,-1.95983 -23.46503,-4.12923c-3.64922,-1.06009 -7.16838,-2.5827 -10.86276,-3.47326c-0.40836,0.21557 -16.25769,-7.50018 -26.48817,-14.16037c-3.89041,-2.53271 -8.23739,-7.14772 -8.75229,-7.83791c0,0 -0.02063,-0.02766 -0.05143,-0.07772c-0.03346,-0.04833 -0.0505,-0.07834 -0.0505,-0.07834l-0.12381,-0.25472c-1.18821,-1.49475 -2.24133,-2.95098 -3.18523,-4.60969c0,0 -0.01451,-0.02555 -0.03588,-0.07151c-0.0239,-0.04471 -0.03561,-0.07166 -0.03561,-0.07166c0,0 -2.37351,-4.14203 1.26423,-6.48865c0.97419,-0.62843 2.08785,-1.23275 3.36685,-1.43857c4.9116,-0.79039 11.61775,1.22004 12.31641,1.434c0.80839,-4.62846 1.12944,-9.29701 2.46354,-13.83364c0,0 0.42388,-1.43887 1.86273,-1.01497c1.43887,0.42388 1.01498,1.86275 1.01498,1.86275c-1.46197,4.95322 -1.6698,10.08958 -2.69329,15.13611l-0.07526,0.19502c-0.01833,0.06319 -0.04082,0.12827 -0.06784,0.19527c-0.20763,0.51505 -0.52908,0.76254 -0.85162,0.87001c-0.29822,0.12596 -0.67956,0.15591 -1.14362,-0.05714c-0.81261,-0.32782 -11.0603,-3.12505 -13.45613,-2.1452c-3.64955,1.49261 0.40202,7.19394 1.01175,7.89263c3.30232,3.78411 9.39739,9.07627 11.39125,10.28392c10.70134,6.48164 30.14912,14.08086 33.86839,15.16039c7.23219,2.09917 15.35317,3.05501 22.86568,3.71376c4.06742,-0.11673 8.5079,-0.59963 12.52696,-0.14848l0.66828,-0.05156c0.453,-0.11837 0.81139,-0.00384 1.07715,0.17371c0.00477,0.00246 0.00957,0.00497 0.01435,0.00752c1.73915,-2.10215 3.38674,-5.09257 5.71393,-6.5295c3.74165,-2.31033 9.31862,-2.61237 13.51861,-3.54725c2.84096,-0.63236 10.08967,-4.06209 10.19422,1.10029c0.01817,0.89684 -1.24062,2.66105 -1.60401,3.48117c-0.57231,0.91896 -1.13281,1.85291 -1.69544,2.78896zM330.78188,186.06017c1.20477,1.34544 2.79035,3.69888 4.72985,4.10894c0.85774,0.18135 3.64324,-1.123 4.51862,-1.49408c1.15819,-0.87463 3.63152,-2.88149 3.73508,-4.52533c0.13315,-2.11364 -3.51928,-4.6645 -4.97705,-5.60999c-4.99262,-3.23815 -10.51299,-5.92342 -15.83009,-8.59992l-0.72911,-0.36702c-0.64422,1.04557 -1.30464,2.08138 -2.00099,3.08924c1.88283,5.44109 6.80007,9.20627 10.55369,13.39817z" fill="#000000" stroke="none" stroke-width="0.5" stroke-linecap="butt"/></g><g stroke-width="0.5"><path d="M267.67512,112.31345c-2.53439,5.27059 -8.15411,1.21456 -11.66839,-0.45376c-0.84074,-0.39912 -0.81061,1.82816 -1.6323,2.26519c-1.01234,0.53845 -2.14318,0.89404 -3.2815,1.03187c-2.10438,0.2548 -4.78845,-3.16536 -6.26708,-3.21484c-2.26024,-0.07564 -4.32873,1.31607 -6.46247,2.06542c-3.8371,1.34755 -7.57432,2.97923 -11.44603,4.22385c-0.65464,0.21044 -3.22386,0.3736 -3.97914,-0.22472c-2.11352,-1.67429 -20.92971,5.27199 -19.32728,2.80999c0.17371,-0.26688 2.31193,-2.38466 7.09235,-5.76283c5.65498,-3.99621 14.07751,-9.33006 14.02383,-9.35735c-1.94689,-0.98953 -7.35822,-3.87436 -11.36324,-5.64811c-3.81215,-1.68833 -6.30015,-2.21852 -5.2463,-5.00007c0.13545,-0.3575 9.8342,-5.06348 10.53879,-5.36152c6.48724,-2.74423 14.02872,-6.87329 20.75833,-8.8995c1.42464,-0.42895 8.31492,-2.85402 9.61899,-0.91987c0.01182,0.00584 0.02362,0.01173 0.03543,0.01766c1.03331,0.52015 1.80801,1.34997 2.26815,2.32005c0.41184,0.46969 0.75731,0.89342 0.99591,1.17003c3.86277,4.47819 7.49233,8.61286 10.91267,13.44886c0.70089,0.99099 2.11371,4.25462 2.23165,4.32674c0.71722,0.43864 2.11066,-5.10769 6.88375,-8.45993c2.112,-1.4833 9.77813,-2.9554 10.01147,-2.57711c0.85427,1.38494 -12.72174,16.94043 -13.34505,18.1787c-0.25572,0.50801 -0.58629,0.95351 -0.97157,1.32985c0.08226,0.97535 -0.03734,1.97688 -0.38093,2.69144z" fill="#66ffff" stroke="none" stroke-linecap="butt"/><path d="M281.85438,94.82089l-3.00256,18.86437l-1.13224,21.82105l-14.76524,2.64342l3.60547,-10.27622l-6.165,-2.43162l-21.0081,-4.08167l-9.92617,-0.74235l-0.63431,3.03935l-7.06064,-1.98681l-7.95868,-0.64759l-6.31378,-0.56481c0,0 18.41639,-6.56484 25.53406,-8.8828c3.62843,-1.18164 15.19877,-4.53547 15.19877,-4.53547c0,0 -7.38523,-2.20144 -10.7046,-3.28755c-5.27458,-1.72586 -18.78755,-5.6246 -18.78755,-5.6246c0,0 22.86883,-7.34767 26.02545,-6.68144c2.26316,0.47765 20.48729,22.37012 20.48729,22.37012c0,0 0.67714,-3.72155 4.15499,-8.11557c2.49318,-3.14997 14.75965,-15.78172 14.75965,-15.78172z" fill="#50a5eb" stroke="#50a5eb" stroke-linecap="round"/><path d="M266.47925,96.92892c0,0 0.12167,-0.17473 0.33335,-0.30679c0.79951,-0.9567 1.86581,-2.08313 3.16866,-3.10846c0.75227,-0.59202 2.90164,-1.68545 3.58346,-2.06765c5.67923,-3.18354 12.76465,-5.04506 12.19072,-3.09614c-4.33807,14.73099 -7.27249,39.94873 -6.4028,47.29347c0.06367,0.17218 0.07827,0.38327 -0.0139,0.63312c-0.04959,0.18293 -0.15368,0.38557 -0.36748,0.52462c-0.20312,0.15424 -0.42901,0.18373 -0.61794,0.16859c-0.14663,0.00127 -0.27127,-0.02395 -0.37711,-0.06656c-5.59298,0.99215 -10.69047,1.71069 -16.1022,3.70264c-0.17226,0.10922 -0.40005,0.1778 -0.68341,0.10779c-0.19116,-0.02553 -0.39984,-0.10844 -0.5656,-0.31348c-0.18604,-0.18684 -0.24602,-0.40324 -0.25084,-0.59604c-0.03977,-0.29406 0.05667,-0.51563 0.18703,-0.67576l0.21922,-0.42594c1.22176,-3.42198 2.0821,-6.84917 3.11942,-10.30658l-0.36443,-0.18345c-3.32826,-1.68757 -7.92681,-2.19011 -11.53895,-3.31295c-3.84452,-0.862 -7.70945,-1.13837 -11.56936,-1.9194c-2.83947,-0.57455 -6.18812,-1.36722 -9.09368,-0.94955c-0.88734,0.12755 -0.95468,1.99519 -0.99106,2.79745c0.02584,0.16889 0.00217,0.36693 -0.10846,0.594c-0.07087,0.16352 -0.19325,0.34717 -0.40308,0.46052c-0.20657,0.1192 -0.42713,0.12706 -0.60353,0.1016c-0.23471,-0.02327 -0.40811,-0.09781 -0.53608,-0.19764l-0.7019,-0.35333c-3.30459,-1.72763 -8.92787,-2.89819 -12.58422,-3.22116c-2.87035,-0.25353 -6.69422,0.10197 -10.52,-0.03293c-2.67248,-0.09424 -5.49781,1.10669 -5.09372,-0.04524c1.44955,-4.13221 9.88331,-8.89644 12.67365,-10.6763c1.53796,-0.98101 7.96753,-4.45954 9.7582,-5.33374c-4.12441,-3.76918 -9.24818,-5.29632 -15.05819,-7.22246c-1.39896,-0.46378 -2.71915,-0.9652 -3.8991,-1.5481c-0.07153,-0.01774 1.62326,-1.77675 8.15489,-5.34462c8.66621,-4.73386 23.61034,-11.8322 32.37861,-14.25996c1.89855,-0.52567 3.85988,-1.069 5.43899,-0.29122c4.78641,2.35751 8.45804,9.58671 9.01655,10.37078c2.49223,3.4987 4.93452,6.24988 6.58793,10.36294c0.11316,0.20715 0.22295,0.41619 0.32912,0.62724c0.12603,-0.18185 0.43126,-0.6459 0.90182,-1.2675c0.12842,-0.20892 0.26283,-0.41613 0.40536,-0.62185zM266.65238,100.693l-0.1927,0.38282c0,0 -0.09584,0.19041 -0.28695,0.35114l-0.09931,0.7339c0,0 -0.44963,0.89322 -1.34285,0.44359c-0.5467,-0.2752 -0.59034,-0.71657 -0.54194,-1.01762c-0.97567,-2.7541 -10.71012,-17.89964 -16.12023,-21.47412c-1.0425,-0.68878 -10.66814,2.15705 -18.6021,5.67266c-9.48827,4.20431 -17.65645,9.36354 -20.78346,10.54025c3.90667,1.68126 7.77305,3.28204 11.51727,5.1402c2.09905,1.0417 4.3359,1.81431 6.09169,3.578l0.30767,0.40042c0.08403,0.08403 0.16136,0.19391 0.22661,0.33629c0.12111,0.26429 0.13019,0.48695 0.08212,0.66985c-0.04558,0.18354 -0.16034,0.37457 -0.39339,0.54837c-0.11925,0.08894 -0.23401,0.14692 -0.34294,0.18115c-7.49701,3.42956 -14.04436,8.34242 -20.81844,12.93753c7.61689,0.01192 16.07427,-0.44391 22.81835,2.6988c0.21072,-1.42237 0.50595,-2.51931 2.0239,-2.94186c2.27667,-0.63374 5.70082,0.0994 7.98228,0.35989c4.78569,0.54641 9.63758,1.67207 14.33514,2.73296c1.87718,0.58281 14.34123,2.31508 14.64233,4.13756c0.04382,0.26519 -0.2283,2.78276 -0.79029,4.28016c-1.08027,2.87843 -2.19389,5.47818 -2.54975,6.55439c4.70433,-1.50936 8.04803,-2.33475 12.94471,-3.19919c-0.56303,-5.60698 0.32104,-17.40115 1.87553,-27.69386c1.16098,-7.68708 2.86595,-14.73399 3.70193,-16.67374c-6.82864,1.77427 -11.11889,4.73729 -14.89108,8.78552c-0.27804,0.49908 -0.53007,1.01037 -0.79411,1.53494z" fill="#000000" stroke="none" stroke-linecap="butt"/><path d="M280.20908,138.58078c0.11792,0.0446 0.19538,0.11993 0.19538,0.11993l0.51852,0.50492c2.97298,2.40591 5.07474,5.47927 7.71305,8.13108c3.86808,4.95755 9.88345,8.42126 13.4372,13.55698c2.80478,4.05519 -2.22622,7.77846 -4.43835,11.06585c-0.98112,1.45799 -1.62258,3.60042 -3.68262,2.57708c-0.57173,-3.06601 -1.68999,-5.98461 -2.80726,-8.88234c-1.12686,-2.92257 -1.49489,-5.56497 -3.41748,-8.14287c-1.21976,-2.32743 -4.55769,2.12905 -6.39329,2.17058c-3.50447,0.07925 -2.72628,-4.91098 -2.52626,-7.13548c0.49965,-5.49931 -1.80367,-9.87159 0.80493,-15.05377c0,0 0.22481,-0.4466 0.67141,-0.22179c0.4466,0.22481 0.22179,0.67141 0.22179,0.67141c-0.10766,0.21387 -0.20648,0.42663 -0.29706,0.63842z" fill="#50a5eb" stroke="none" stroke-linecap="butt"/><path d="M279.06188,142.81313c0,0 3.90366,4.44957 4.84882,5.52877c0.49308,0.56299 -4.1729,9.14173 -4.1729,9.14173z" fill="#66ffff" stroke="#66ffff" stroke-linecap="round"/><path d="M279.73614,137.26036c0.79957,0.65328 1.60424,1.30029 2.41073,1.94499c4.54731,4.02104 8.89511,8.19127 13.1774,12.50105c2.86978,2.88819 9.4799,9.82356 9.55661,10.08252c0.09265,0.25368 0.0999,0.57457 -0.09528,0.96234l-0.06423,0.12761c-2.63853,5.24163 -6.12649,10.06666 -10.34183,14.13885c-0.23205,0.3115 -0.51914,0.42655 -0.78187,0.45158c-0.31608,0.06534 -0.70661,0.01274 -1.09012,-0.38661c-0.18656,-0.19426 -0.29105,-0.38685 -0.3402,-0.56949l-0.11624,-0.14026c-1.09756,-6.13059 -2.77246,-12.9552 -5.00624,-18.85824c-2.62733,1.24732 -5.27432,2.49218 -7.77863,3.9711c-0.11398,0.08858 -0.25716,0.16586 -0.4363,0.22504c-0.3427,0.11321 -0.61914,0.09478 -0.83901,0.01129c-0.22084,-0.08089 -0.44182,-0.248 -0.62668,-0.55798c-0.11271,-0.18898 -0.17228,-0.36455 -0.19398,-0.52554l-0.16721,-0.57504c-0.70792,-7.83521 -0.33583,-16.06395 -0.32428,-23.94957c0,0 0.00337,-1.25 1.25337,-1.24663c1.25,0.00338 1.24662,1.25337 1.24662,1.25337c-0.00086,0.21195 -0.00199,0.42422 -0.00334,0.63677c0.22665,0.09785 0.38013,0.25613 0.484,0.42251zM280.53837,141.11918c-0.19015,-0.15188 -0.38021,-0.30393 -0.57009,-0.45614c0.15142,5.84152 0.06181,11.70291 0.04528,17.53844c1.99093,-1.06618 4.03889,-2.03316 6.07698,-3.00123l1.26365,-0.42734c0.40438,-0.15034 0.72194,-0.1026 0.96318,0.02111c0.24865,0.10517 0.4881,0.31672 0.63254,0.71998c2.21928,5.62082 3.95474,12.15286 5.15137,18.23315c3.13122,-3.30221 5.7892,-7.05272 7.91818,-11.0833c-3.3667,-2.25924 -16.99048,-17.57981 -21.4811,-21.54465z" fill="#000000" stroke="none" stroke-linecap="butt"/></g><g fill="none" stroke="none" stroke-width="1" stroke-linecap="butt" font-family="sans-serif" font-weight="normal" font-size="12" text-anchor="start"/></g><g stroke-linecap="round"><path d="M237.35002,145.6c0,0 8.60279,7.55727 14.08864,9.01817c3.07166,0.818 8.37885,0.95153 13.11733,0.7246c1.87615,-0.08984 4.46723,-0.76153 5.98694,-0.99532c4.83518,-0.74382 1.83186,9.67317 -0.96356,16.2961c-0.71032,1.68289 -2.01827,3.67245 -3.38189,4.15213c-1.27944,0.45006 -2.61876,-0.53786 -3.23832,-1.14425c-1.04938,-1.02708 -1.49039,-2.82253 -1.82776,-3.23625c-6.22199,-7.63001 -9.18789,-13.28341 -9.91673,-13.83696c-1.21458,-0.92246 -4.11579,-1.95208 -8.92523,-5.54592c-4.31248,-3.22249 -4.93942,-5.4323 -4.93942,-5.4323z" fill="#000000" stroke="#000000" stroke-width="0.5"/><path d="M254.82761,157.41431c0,0 5.33101,0.35335 7.91155,0.32515c4.26123,-0.04656 7.99754,-0.7797 7.99754,-0.7797c0,0 -0.60152,4.7669 -1.55822,8.54343c-1.09051,4.30479 -2.64251,7.77669 -4.29114,6.03619c-1.29828,-1.37062 -3.2335,-4.49593 -5.68067,-8.07344c-1.74703,-2.55397 -4.37906,-6.05164 -4.37906,-6.05164z" fill="#ff6666" stroke="#ff6666" stroke-width="0.5"/><path d="M252.71965,141.40863c0,0 -1.70191,7.77301 -3.11522,7.22654c-3.20633,-1.23976 -3.88478,-24.47654 -3.88478,-24.47654z" fill="#000000" stroke="#000000" stroke-width="2"/><path d="M274.84465,135.03363c0,0 -5.79357,15.51028 -9.12156,16.72053c-1.70578,0.62032 -2.75344,-9.47053 -2.75344,-9.47053z" fill="#000000" stroke="#000000" stroke-width="2"/><path d="M308.34466,124.78362c0,0 -12.25943,1.91618 -22.73784,6.03095c-14.89095,5.84754 -29.62605,14.47847 -30.03185,14.12586c-4.36003,-3.78849 -11.91517,-25.9537 -14.79545,-37.64095c-1.57134,-6.37597 -0.55987,-9.89085 -0.55987,-9.89085c0,0 3.74036,16.72212 7.16307,26.19106c4.1922,11.59775 6.658,16.50344 9.07214,18.94086c0.22602,0.22821 20.42842,-11.02396 30.18131,-14.51182c16.20902,-5.79672 21.70848,-3.2451 21.70848,-3.2451z" fill="#000000" stroke="#000000" stroke-width="0.5"/></g><g><g><path d="M165.93589,195.56772c1.21854,-0.58129 2.61579,-1.7071 4.04187,-1.40185c3.84202,0.82237 7.35757,4.65092 10.26618,7.05259c0.93631,0.77312 2.1346,1.47718 2.55137,2.61769c0.73448,2.00984 -1.65473,2.71104 -2.58326,3.61989c-1.78477,1.74698 -2.62613,4.42113 -4.58546,6.14521c-1.06248,0.93492 -3.22186,0.85004 -4.51275,1.01468c-1.43007,0.45401 -6.36429,1.49141 -7.63081,0.08462c-1.02013,-1.13306 -1.75382,-3.94631 -2.42416,-5.35156c-0.49416,-1.03591 -1.57312,-1.90509 -1.62945,-3.05142c-0.04514,-0.91875 0.70424,-1.71303 1.00581,-2.58205c0.87126,-2.51071 2.74291,-5.36362 4.45737,-7.64941z" data-paper-data="{&quot;noHover&quot;:false,&quot;origItem&quot;:[&quot;Path&quot;,{&quot;applyMatrix&quot;:true,&quot;segments&quot;:[[[149.94202,212.32093],[0,0],[-2.35446,1.23222]],[[143.17243,216.93298],[1.73675,-1.75867],[-0.60112,0.60871]],[[141.29885,218.68699],[0.33,-0.78929],[-0.41175,0.98483]],[[141.44689,221.88588],[0,-1.06744],[0,1.44805]],[[141.33271,227.32542],[-0.4026,-1.35962],[0.49986,1.68806]],[[147.74833,230.28825],[-1.38224,-0.19154],[1.14955,0.3787]],[[151.92038,231.23942],[-1.26624,0.35934],[2.33511,-0.66266]],[[158.1958,227.93329],[-2.19773,0.75176],[1.14337,-0.3911]],[[161.80428,225.94417],[-0.18828,1.98122],[0.10684,-1.12425]],[[160.70743,222.73868],[0.47638,1.02392],[-1.47986,-3.18076]],[[154.94562,212.75942],[2.89578,2.22881],[-1.07486,-0.8273]],[[151.01184,212.32093],[1.25564,0],[0,0]]],&quot;closed&quot;:true}]}" fill="#465e85" stroke="none" stroke-width="0.5" stroke-linecap="butt"/><path d="M166.25246,196.53064c-1.5945,2.12589 -3.31392,4.74229 -4.12425,7.07736c-0.28046,0.80822 -0.97782,1.53533 -0.93585,2.38978c0.0524,1.06614 1.05134,1.86003 1.51092,2.82348c0.62346,1.30696 1.29022,3.90488 2.23897,4.95868c1.17797,1.30836 5.73614,0.3341 7.06617,-0.08814c1.2006,-0.15316 3.18693,-0.06829 4.17507,-0.93779c1.82226,-1.60351 2.58059,-4.06115 4.24049,-5.68592c0.86357,-0.84528 3.08354,-1.47974 2.40044,-3.34897c-0.38763,-1.0607 -1.4993,-1.70185 -2.37011,-2.42092c-2.70516,-2.23366 -5.92378,-5.76127 -9.49703,-6.52613c-1.32631,-0.2839 -2.60598,0.75731 -3.7393,1.29796zM166.49423,193.08347c1.63462,-0.82018 3.00069,-1.60422 4.99846,-1.26324c4.10006,0.69974 7.85607,4.64455 10.90632,7.19361c1.31527,1.09914 2.80448,2.29098 3.32222,3.925c0.98726,3.11581 -1.37241,4.5416 -3.1568,6.23131c-1.78151,1.687 -2.54172,4.32477 -4.58327,5.98565c-1.48719,1.20989 -3.54136,1.25265 -5.33767,1.46802c-2.47482,0.76369 -7.54924,1.42367 -9.70848,-0.61435c-1.23444,-1.16513 -2.18609,-4.31746 -2.93938,-5.89654c-0.30842,-0.64655 -1.77874,-3.64319 -1.8032,-4.12389c-0.03441,-0.67548 0.54672,-1.23975 0.75725,-1.88253c1.22703,-3.74614 3.38009,-7.40671 5.79809,-10.5395c0,0 0.74085,-0.95058 1.74649,-0.48355z" fill="#000000" stroke="none" stroke-width="0.5" stroke-linecap="butt"/><g stroke="none" stroke-width="0.5" stroke-linecap="butt"><path d="M192.83275,200.73356c-1.98365,-3.30072 -3.38092,-7.08738 -5.03163,-10.54768c-0.55388,-1.16107 -3.04229,-5.11264 -2.3791,-6.29119c0.82227,-1.46122 3.09134,-1.30298 4.60302,-2.02833c4.08737,-1.96128 8.25294,-4.50879 12.69921,-5.40515c6.98851,0.48873 9.1856,5.21425 12.29591,10.74978c1.511,2.68919 3.22865,6.79335 0.47176,9.45631c-2.95599,2.85525 -7.80797,1.92601 -8.86529,6.5734c-0.16586,1.09033 0.25316,2.25558 -0.07746,3.30773c-0.15736,0.5008 -0.34688,2.59981 -0.57124,2.86813c-3.50853,4.19603 -8.19308,-0.27558 -10.60346,-3.94923c-0.00424,-0.00636 -0.0084,-0.01273 -0.01254,-0.01914c-0.24342,-0.37173 -0.47223,-0.74193 -0.68459,-1.10212l-0.47901,-0.7713l0.02987,-0.01854c-0.26221,-0.47832 -0.48929,-0.92445 -0.67618,-1.31498z" fill="#f49285"/><path d="M173.59935,187.42258c0.02779,-1.49974 1.52756,-1.47192 1.52756,-1.47192l0.03549,0.08673c2.70972,-0.90352 5.4516,-1.73427 8.09565,-2.82179c-0.05003,-0.4505 0.0527,-1.0779 0.85139,-1.45889c0.85017,-0.40556 1.42113,-0.02256 1.72829,0.31855c9.10737,-4.24812 19.14266,-10.7101 27.66682,-1.86758c2.69996,4.04834 6.82693,11.0932 4.05683,16.07636c-1.76116,3.16813 -6.49941,3.56427 -8.80642,6.42027c-1.46616,1.81506 0.1494,3.73479 -0.05491,5.78366c-0.33593,3.36902 -3.61622,4.17854 -6.47562,4.52744c-2.52656,-0.5692 -6.01575,-1.66977 -7.70018,-3.80102c-3.19934,-4.04799 -4.05649,-10.00018 -5.97236,-14.66475c-1.1981,-2.91701 -2.66563,-5.75202 -4.07563,-8.59166c-2.73291,1.12714 -5.56299,1.99113 -8.36492,2.92539l-1.04005,0.06677c0,0 -1.49974,-0.02779 -1.47192,-1.52755zM187.20637,184.71242c1.42226,2.86514 2.90066,5.72592 4.10895,8.66955c2.67253,6.51072 3.19821,14.68178 11.06842,16.63766c0.86749,-0.11097 2.66725,-0.47188 3.30101,-1.07969c0.70381,-0.67502 -0.64905,-3.55135 -0.66492,-4.175c-0.0258,-1.01358 0.68575,-3.00586 1.30654,-3.82183c0.43968,-0.57795 2.85265,-2.77953 3.58083,-3.23034c1.18478,-0.73349 4.31629,-1.4919 5.06089,-2.93695c1.93495,-3.7552 -1.86565,-9.76811 -3.80204,-12.6889c-6.99332,-7.2619 -16.29774,-1.13618 -23.95967,2.62553z" fill="#000000"/></g><path d="M181.55083,211.02186c0.26195,0.24721 0.45993,0.6322 0.39194,1.22871c-0.05548,0.48689 -0.25191,0.79659 -0.49127,0.99288c-0.16743,0.34349 -0.49836,0.66988 -1.14516,0.75008c-0.69496,0.08618 -1.1057,-0.19236 -1.34615,-0.51383c-2.81758,-0.09335 -6.07575,0.29031 -8.46425,-1.00788c-2.49427,-1.35568 -3.08351,-3.95267 -4.3523,-6.24c-0.99997,-1.80274 -2.74841,-2.90551 -3.98168,-4.51351c-0.54334,-0.70845 -2.04234,-3.09109 -2.09112,-4.00375c-0.09056,-1.69431 1.55143,-4.15407 2.24535,-5.65998c1.02269,-2.88398 2.67058,-6.10677 3.09235,-9.1529c0.22504,-1.62528 -0.52934,-5.34157 -0.02493,-6.64987c1.35081,-3.50358 7.50743,-3.61897 10.02513,-5.63811c0.47149,-0.3781 -1.19564,-3.47 -1.19661,-3.47658c-0.21266,-1.46523 0.32401,-2.9434 0.47383,-4.41638c2.30685,-3.0225 3.87346,-2.96021 7.33705,-3.00165c1.58326,-0.01895 4.18443,-0.91432 5.69215,-0.04657c0.44122,0.25393 0.71947,0.66983 0.94908,1.13797c0.14472,-0.00254 0.2882,0.01602 0.426,0.05408l2.13306,0.57549l-0.12189,0.45182c3.42624,0.48633 7.08034,1.82402 9.57909,3.9093c2.90412,2.42358 4.85034,9.1289 4.37602,12.74715c-0.81239,6.19699 -5.75614,9.28209 -9.26268,13.83835c-2.33996,3.04044 -4.42778,5.28238 -7.57897,7.56034c-4.27538,3.08044 -6.41446,5.93993 -6.66405,11.07483z" fill="#fddfbd" stroke="none" stroke-width="0.5" stroke-linecap="butt"/><path d="M168.40206,209.76475c3.50642,2.10219 8.21687,3.28679 9.27931,-1.94321c0.14545,-0.71603 -0.36658,-1.42684 -0.5209,-2.141c-0.37066,-1.71515 -0.81544,-3.39761 -1.36689,-5.04635c2.60807,2.13891 6.06482,2.53306 8.67582,4.41919c0.65282,0.4716 1.37575,0.86608 2.11256,1.19118c0.58681,0.25892 2.01136,0.17625 1.7672,0.76937c-0.68526,1.66472 -1.74525,3.60072 -2.62622,5.25341c-0.79689,1.49496 -1.32911,1.94414 -2.8366,2.66329c-3.26644,0.36974 -5.85767,-0.89933 -8.86915,-1.79632c-1.84507,-0.54957 -3.85401,-0.50826 -5.08552,-2.26016c-0.23052,-0.32792 -0.43946,-0.70281 -0.62847,-1.09454z" data-paper-data="{&quot;noHover&quot;:false,&quot;origItem&quot;:[&quot;Path&quot;,{&quot;applyMatrix&quot;:true,&quot;segments&quot;:[[[292.27259,450.35302],[0,0],[0.00386,0.86986]],[[292.46735,452.85822],[-0.13372,-0.79044],[0.71446,4.22288]],[[299.69469,461.2609],[-2.85734,-2.58084],[4.6637,4.21236]],[[314.05027,472.08106],[-6.21472,-2.14538],[3.3405,0]],[[321.42067,469.73416],[-2.7258,2.01234],[3.01346,-2.22472]],[[330.64919,462.5618],[-2.6705,2.41496],[0.95146,-0.86042]],[[328.11865,459.6624],[0.8363,0.97272],[-1.05006,-1.22134]],[[325.32895,455.71702],[0.77232,1.41342],[-3.08898,-5.6531]],[[313.56087,440.36446],[2.86608,6.10686],[-0.4243,3.45106]],[[311.69295,450.6516],[0.80786,-3.41526],[-0.33638,1.42204]],[[310.84131,454.95192],[0.87914,-1.16726],[-6.42148,8.52596]],[[292.27261,450.35306],[4.51934,6.8141],[0,0]]],&quot;closed&quot;:true,&quot;fillColor&quot;:[0,0,0,1]}]}" fill="#f49285" stroke="none" stroke-width="0.5" stroke-linecap="butt"/><path d="M179.67198,200.01987c3.46214,-0.35665 7.34338,-1.73535 9.21671,-4.79948c0.38965,-0.63732 0.65673,-2.01363 0.6888,-3.29593c0.90096,0.71906 2.02029,1.20422 3.09591,1.47561c0.36168,0.09125 2.93164,0.21304 2.90796,1.05878c-0.02406,0.85898 -0.78124,1.53895 -1.15319,2.31358c-0.37563,1.451 -0.59025,3.40198 -1.29377,4.75816c-0.65156,1.25604 -2.09955,1.76421 -3.28711,2.32903c-0.84163,0.40027 -1.56381,1.24512 -2.4937,1.30729c-0.83385,0.05576 -1.52274,-0.73511 -2.27568,-1.09772c-1.97845,-0.95282 -3.80944,-2.43925 -5.40596,-4.04936z" data-paper-data="{&quot;noHover&quot;:false,&quot;origItem&quot;:[&quot;Path&quot;,{&quot;applyMatrix&quot;:true,&quot;segments&quot;:[[[321.19917,442.52486],[0,0],[1.49544,4.28122]],[[327.45837,454.40592],[-2.75086,-3.4236],[1.04692,1.30294]],[[330.59357,458.31922],[-1.55322,-0.6174],[1.73212,0.6885]],[[336.18071,458.09086],[-1.86394,-0.00216],[2.63006,0.00304]],[[344.04827,456.7328],[-2.25774,1.70622],[2.43778,-1.84228]],[[350.43759,449.32674],[-1.92754,2.29582],[1.33848,-1.07802]],[[354.51083,446.1658],[-0.7831,1.52982],[0.77104,-1.5063]],[[350.18243,441.78466],[0.57428,0.47616],[-1.70792,-1.41612]],[[345.89649,436.49366],[1.00718,2.07384],[-1.16208,2.28712]],[[341.81685,441.85142],[1.25216,-0.81492],[-6.02014,3.91802]],[[321.19919,442.52488],[6.55672,2.33748],[0,0]]],&quot;closed&quot;:true,&quot;fillColor&quot;:[0,0,0,1]}]}" fill="#f49285" stroke="none" stroke-width="0.5" stroke-linecap="butt"/><path d="M207.98376,189.08376c-0.2877,0.81383 -0.69154,1.64436 -1.18371,2.42452l-1.37531,0.65677c-0.3164,0.09815 -0.62696,0.19471 -0.9263,0.28843c-0.31961,0.02729 -0.65239,0.14728 -0.99109,0.31818c-1.68148,0.55682 -3.10122,1.14398 -4.33125,2.14196c-1.73383,0.27531 -4.71774,0.40059 -5.68782,0.03953c-0.74769,-0.27829 -1.26928,-1.62213 -1.59913,-2.67529c0.20576,-0.04551 0.38482,-0.20021 0.38482,-0.20021c1.42212,-0.6784 4.04459,-1.47453 5.14129,-2.54478c1.02139,-0.99676 1.58947,-3.01528 2.05427,-4.32505c1.87308,-5.27828 1.99947,-9.58107 -0.44598,-14.71933c-0.75182,-1.57969 -1.6224,-4.5253 -3.14351,-6.00173c1.65727,0.4988 3.6962,0.50177 5.12835,1.49312c1.37903,0.95455 1.70667,3.2304 2.53228,4.57119c1.54705,2.51242 4.42721,4.07403 5.79818,6.5596c0.42108,0.7634 1.2791,1.43358 1.25571,2.30508c-0.01088,0.40569 -0.53503,0.6517 -0.63028,1.04617c-0.68268,2.82664 -1.24622,5.74177 -1.98047,8.62183z" data-paper-data="{&quot;noHover&quot;:false,&quot;origItem&quot;:[&quot;Path&quot;,{&quot;applyMatrix&quot;:true,&quot;segments&quot;:[[[381.59284,447.04069],[0,0],[3.8055,-4.5666]],[[392.54006,433.22621],[-3.66638,4.5146],[0.51168,-0.63006]],[[394.57458,431.88833],[-0.369,0.72294],[0.7927,-1.55304]],[[394.28604,426.66537],[0.1027,1.74062],[-0.3344,-5.6673]],[[389.48224,409.91035],[0.62914,5.86744],[-0.33576,-3.13126]],[[388.8702,399.50235],[1.66732,2.91058],[-1.73158,-3.02274]],[[380.93036,392.40715],[2.56208,2.32748],[1.47438,3.97498]],[[381.51618,405.76605],[0.00316,-3.49896],[-0.01024,11.38102]],[[369.57254,432.90379],[7.92632,-7.91502],[-1.96688,1.96408]],[[362.11264,438.93129],[2.70206,-0.91974],[-2.90128,0.98756]],[[350.61324,439.07441],[3.15128,0],[0,0]],[[349.90228,438.97939],[0.41062,0.09502],[-0.31148,2.18516]],[[350.47416,445.17377],[-1.11004,-1.1462],[1.4402,1.48712]],[[360.74526,449.98123],[-3.36688,-0.99606],[3.07972,-0.74228]],[[370.37742,449.83737],[-3.51474,-0.44278],[0.75856,-0.01684]],[[372.43326,450.11627],[-0.60044,-0.22594],[0.62106,0.08858]],[[374.34712,450.39349],[-0.65566,-0.09528],[0,0]],[[377.38508,450.39349],[0,0],[1.56024,-0.9845]],[[381.59282,447.04071],[-1.22014,1.22132],[0,0]]],&quot;closed&quot;:true,&quot;fillColor&quot;:[0,0,0,1]}]}" fill="#f49285" stroke="none" stroke-width="0.5" stroke-linecap="butt"/><path d="M186.33525,181.23537c0.22166,0.09109 0.45185,0.33 0.6739,0.66053c0.36126,0.90543 0.67084,1.81106 0.91688,2.32682c1.53167,3.21079 2.70458,6.67287 5.3793,9.03687c0.0198,0.06008 0.04324,0.12005 0.07119,0.17863c0.22773,0.47738 0.59431,0.72017 1.08255,0.78313l0.24805,0.08274c-0.11395,0.1081 -0.23255,0.23379 -0.35257,0.38029l-0.74667,0.9573c-1.79594,-0.71312 -3.3901,-1.86155 -4.60104,-3.68676c-1.62752,-2.45312 -2.01931,-6.21738 -4.06031,-8.36473c-1.29673,-1.36428 -3.9758,-1.79471 -5.72391,-1.72328c-0.34353,0.01404 -0.75778,0.02836 -1.09784,0.08203c2.63353,-1.14967 5.95532,-1.64015 8.21044,-0.71359z" data-paper-data="{&quot;noHover&quot;:false,&quot;origItem&quot;:[&quot;Path&quot;,{&quot;applyMatrix&quot;:true,&quot;segments&quot;:[[[333.91683,408.63274],[5.74384,0.19247],[0.66002,0.19593]],[[335.8855,409.24853],[-0.63215,-0.27045],[3.21708,1.37635]],[[344.78461,417.28125],[-1.16594,-3.57933],[1.83515,5.63376]],[[344.91498,436.07495],[-0.82548,-5.82966],[0.61419,4.33751]],[[349.99713,446.49874],[-2.62782,-2.83381],[0,0]],[[352.15812,445.41825],[0,0],[0.34282,-0.16111]],[[353.11747,445.03776],[-0.29878,0.09703],[0,0]],[[352.83654,444.85047],[0,0],[-0.8271,-0.53416]],[[351.46193,442.32851],[0,1.05784],[0,-0.12982]],[[351.48617,441.94533],[-0.016,0.12547],[-2.79252,-6.57054]],[[349.53759,421.16078],[0,7.11479],[0,-1.1429]],[[349.90569,416.18539],[-0.12758,1.9455],[-0.11618,-0.78785]],[[349.26689,414.41716],[0.32171,0.35528],[-3.27291,-3.61451]]],&quot;closed&quot;:true}]}" fill="#000000" stroke="none" stroke-width="0.5" stroke-linecap="butt"/><path d="M186.27923,206.67245c-0.73684,0.25947 -2.93129,-1.1355 -3.47947,-1.43455c-1.62152,-0.88462 -4.04673,-1.48266 -5.2129,-3.02917c-1.06018,-1.40596 -1.37862,-3.34569 -2.53355,-4.76961c-0.80686,-0.99481 -2.77562,-2.52542 -4.51793,-3.10802c1.19114,-0.63284 2.50981,-1.21321 3.66931,-0.95126c1.63581,0.36955 2.99333,2.88384 4.04144,3.97142c1.6843,1.74778 2.54409,4.04816 4.64893,5.54509c1.35357,0.96263 3.85867,1.28934 5.31728,1.93058c-0.58297,0.80751 -1.25833,1.60793 -1.9331,1.84554z" data-paper-data="{&quot;noHover&quot;:false,&quot;origItem&quot;:[&quot;Path&quot;,{&quot;applyMatrix&quot;:true,&quot;segments&quot;:[[[332.32289,458.44583],[-1.74771,0.95566],[-5.31642,-6.16662]],[[320.82948,436.55107],[2.52271,7.56691],[-0.95542,-2.86579]],[[316.97562,425.8992],[2.63462,2.07571],[-1.86749,-1.47132]],[[309.56314,424.44377],[2.69509,-0.11667],[2.64337,2.55195]],[[315.04621,433.9419],[-0.59988,-2.49057],[0.85864,3.56492]],[[315.54628,444.61182],[-0.70308,-3.45088],[0.77335,3.79581]],[[322.24548,454.50921],[-2.1653,-2.99318],[0.73203,1.01191]],[[327.26825,460.1002],[-1.55353,-0.16613],[1.42267,0.15213]]],&quot;closed&quot;:true}]}" fill="#000000" stroke="none" stroke-width="0.5" stroke-linecap="butt"/><path d="M190.97605,160.95426c0,0 9.66373,5.63633 12.52612,8.3488c3.49536,3.31231 6.92905,10.08743 6.92905,10.08743c0,0 -0.32113,3.60269 -1.08923,5.55542c-0.98434,2.50247 -4.33068,8.22349 -4.33068,8.22349c0,0 -5.30537,1.43079 -6.91368,1.72156c-1.93086,0.34908 -3.88173,0.23012 -3.88173,0.23012l1.03568,2.17105c0,0 -0.56643,2.60479 -1.16528,3.78373c-0.5922,1.16585 -2.4081,3.2511 -2.4081,3.2511l-5.84189,1.72077l2.54544,1.98386c0,0 -0.96877,2.44353 -1.60968,3.53864c-0.7202,1.23066 -2.5015,3.48623 -2.5015,3.48623c0,0 -4.51418,-0.09304 -6.61896,-0.38593c-2.5623,-0.35655 -7.65399,-1.6002 -7.65399,-1.6002c0,0 -3.61865,-4.53179 -5.25279,-7.29153c-1.56193,-2.63779 -4.34519,-8.91767 -4.34519,-8.91767c0,0 0.0667,-2.2268 0.38051,-3.11312c0.70169,-1.98187 3.70686,-8.43107 3.70686,-8.43107c0,0 0.86089,-2.05664 0.99442,-3.16906c0.18727,-1.56018 0.02356,-5.31185 0.02356,-5.31185l7.82576,-4.26619c0,0 1.4676,-3.0862 1.48868,-3.60638c0.06078,-1.49946 0.21054,-6.79856 0.21054,-6.79856l3.27652,-2.62907c0,0 4.50786,-0.59594 6.33246,-0.39168c2.29135,0.25654 6.33713,1.81011 6.33713,1.81011z" fill="none" stroke="#000000" stroke-width="3" stroke-linecap="round"/></g><path d="M189.87923,169.489l0.04738,-0.14727c0.41073,-0.41056 3.20843,-3.0002 3.79673,-2.79022c0.09512,0.03395 0.87798,1.84595 1.00829,2.12518c0.68551,1.46908 1.64229,2.76172 2.71591,3.96744c3.58889,3.57888 8.96664,8.24355 14.30622,8.23126c0.40441,0.17834 1.02639,0.13448 1.21323,0.53504c0.16009,0.34325 -0.6685,1.21062 -0.94899,1.44245c-1.07554,0.8889 -2.40871,2.40888 -3.64225,2.9898c-0.716,0.33719 -1.81007,-0.11901 -2.498,-0.27927c-2.89091,-0.67352 -5.23599,-0.89011 -7.94914,-2.25383c-4.30681,-3.32771 -6.47815,-8.07563 -8.222,-13.25591c0,0 -0.12335,-0.36873 0.17264,-0.56464z" fill="#485e84" stroke="none" stroke-width="0.5" stroke-linecap="butt"/><path d="M203.31739,176.9503c-0.07173,0.01746 -0.12498,0.01751 -0.12498,0.01751c-6.58745,0.00713 -9.29714,-6.08452 -10.89432,-11.63324c-0.42171,-1.46659 -1.08707,-3.67127 -0.61058,-5.21918c0.67354,-2.188 2.09071,-3.96363 3.03822,-5.92661c-0.18094,-0.07507 -0.3083,-0.25336 -0.30852,-0.46148c-0.00006,-0.05614 0.00913,-0.11013 0.02615,-0.16052l0.25079,-0.80423c0.38391,-1.22798 0.40125,-2.40134 0.94729,-3.42209l-0.1763,-0.08791l0.24463,-0.49058c0.07999,-0.16921 0.25215,-0.28635 0.45174,-0.28657c0.27614,-0.0003 0.50025,0.22332 0.50054,0.49946l0.00017,0.15205c0.19991,-0.31406 0.39653,-0.61959 0.57367,-0.91554c1.4836,-2.4785 2.97415,-4.32224 5.21151,-5.44387c0.03553,-0.08101 0.09191,-0.1508 0.16235,-0.20257l0.79469,-0.59737l0.09779,0.13009c3.69627,-2.95523 10.83355,-3.91286 15.00639,-2.55458c3.43567,1.14247 7.30882,3.66245 8.36996,7.48643c0.76066,2.74115 0.29708,6.1645 0.28554,8.98666c-0.87276,2.90094 -2.03651,5.62272 -3.27951,8.38465c-0.42883,0.95285 -0.84976,2.61501 -1.57224,3.37127c-1.65519,1.73259 -4.68032,2.5248 -6.65823,3.91528c-3.63044,2.54717 -7.2032,5.27473 -11.71178,5.27961l-0.5,0.00054c0,0 -0.05326,0.00006 -0.12502,-0.01724zM206.53362,141.43271c0.12809,-0.04772 0.2566,-0.09551 0.38435,-0.1447c-0.13015,0.04088 -0.25808,0.08982 -0.38435,0.1447z" fill="#485e84" stroke="none" stroke-width="0.5" stroke-linecap="butt"/><path d="M194.66337,166.84947c0.10591,-0.00128 0.22556,0.03725 0.34529,0.15674c0.15739,0.15705 0.17495,0.31425 0.14593,0.4404c0.00067,0.01233 0.00102,0.02499 0.00104,0.03799c0.0004,0.37132 -0.27528,0.46719 -0.41719,0.49193c-1.18892,1.12051 -2.52409,1.95437 -3.75143,3.01531c-0.29531,0.25528 -0.90972,1.07903 -1.36109,0.84766c-0.78921,-0.40455 -0.53319,-1.41596 -0.59037,-2.04899c-0.15909,-1.76142 -0.25959,-3.44696 -0.25436,-5.23509c0.1873,-0.74435 0.51208,-1.2534 0.96923,-1.86496c0.30921,-0.41364 1.89319,-2.94666 2.42593,-2.82678c2.02972,0.45673 1.42255,5.2791 2.48701,6.98581z" fill="#ff66ca" stroke="none" stroke-width="0.5" stroke-linecap="butt"/><path d="M189.18064,169.64685c-0.24655,-0.3252 -0.31827,-0.67883 -0.31827,-0.67883l-0.1411,-1.77082c0.43329,-1.22015 0.2963,-2.74594 1.16584,-3.7053c2.9939,-3.3031 3.09783,-2.01183 4.49665,0.698c0.32938,0.63812 0.82601,1.27127 0.82667,1.9894c0.00257,2.72421 -2.9481,4.43016 -4.55583,6.26299c0,0 -0.49197,-0.70694 -1.6189,-1.69694c-1.12693,-0.98998 -0.63497,-0.28303 -0.63497,-0.28303c0.24821,-0.28215 0.51036,-0.55224 0.77987,-0.81549z" fill="#8fbbbe" stroke="none" stroke-width="0.5" stroke-linecap="butt"/><path d="M196.05772,170.44145c0.44698,-0.22409 0.67106,0.22288 0.67106,0.22288l0.10021,0.1999c0.055,0.10977 0.10694,0.21654 0.15587,0.32049c0.02968,0.02477 0.05906,0.05466 0.08779,0.0905c0.10931,0.13634 0.13277,0.26324 0.11703,0.37065c0.99402,2.39475 0.13965,3.20286 -1.91985,5.26684c-0.35993,0.5065 -0.49626,1.28031 -1.06541,1.52965c-1.00515,0.44034 -2.54967,-1.57136 -2.29569,-2.49409c0.33861,-1.23022 2.83386,-3.41579 4.11064,-4.46571c-0.02717,-0.05558 -0.05528,-0.11228 -0.08433,-0.17017l-0.10021,-0.1999c0,0 -0.2241,-0.44698 0.22287,-0.67105z" fill="#8fbbbe" stroke="none" stroke-width="0.5" stroke-linecap="butt"/><path d="M229.74679,150.06466l2.13095,5.49769l-0.4897,9.50054l-2.49323,6.2527l-3.62066,4.00393l-10.24511,4.5111l-7.62581,-0.74174l-5.7542,-3.86877c0,0 -2.805,-2.93886 -3.72301,-3.90069c-0.53884,-0.56456 -0.65713,-0.84457 -0.65713,-0.84457c0,0 7.505,4.65148 15.43876,1.27288c16.12707,-6.86774 12.78278,-27.55348 12.78278,-27.55348z" fill="#343545" stroke="#343545" stroke-width="1.5" stroke-linecap="round"/><path d="M216.40361,179.45413c0.00081,0.75 -0.74919,0.75082 -0.74919,0.75082l-0.3179,-0.00274c-2.86208,-0.26455 -5.65961,-1.17297 -8.05638,-2.7047c-2.6312,1.12623 -4.7426,1.33463 -7.46385,-0.80751c-0.9179,-0.72257 -1.73935,-1.0119 -1.65901,-2.45911c0.01471,-0.26516 1.08794,-1.49401 1.28285,-1.73276c0.56889,-0.69684 1.1337,-1.37993 1.71297,-2.04532c-1.0041,-1.66286 -2.17976,-3.58874 -3.03235,-5.33305c-0.5091,1.0801 -2.04599,5.01999 -3.03249,5.11652c-1.4276,0.1397 -0.83296,-0.99934 -1.03733,-1.65934c-0.01821,-0.05884 -0.03612,-0.11761 -0.05369,-0.17628c-0.69584,0.88831 -2.62005,-6.41419 -2.59777,-6.43835c-0.05626,-0.13547 -0.07456,-0.32877 0.11856,-0.52231c0.35317,-0.35394 0.70711,-0.00076 0.70711,-0.00076l0.16267,0.17603c0.16991,0.25619 0.37838,0.64158 0.59457,1.10229c-0.10314,-0.97628 -0.19741,-1.96677 -0.3251,-2.99071c-0.04158,-0.13449 -0.03377,-0.2681 -0.01314,-0.37336c0.01586,-0.10972 0.05468,-0.24349 0.14448,-0.35933l0.09359,-0.1806c0.53412,-0.80013 0.95062,-1.66831 1.38866,-2.5248c-0.3833,-1.08318 -0.64004,-2.2106 -0.64608,-3.43499c0,0 -0.0008,-0.75 0.74919,-0.75082c0.75,-0.00081 0.75082,0.74919 0.75082,0.74919c-0.00196,0.56676 0.05991,1.11406 0.16925,1.64691c1.10195,-1.64012 2.53684,-3.16547 4.15869,-4.52173c-0.20427,-2.4318 0.00656,-4.89549 0.82445,-7.36793c0,0 0.2364,-0.71177 0.94817,-0.47537c0.71177,0.2364 0.47537,0.94817 0.47537,0.94817c-0.63785,1.91197 -0.87947,3.85058 -0.82703,5.78379c2.1912,-1.60374 4.61977,-2.9067 6.98186,-3.79577c-0.24081,-1.57717 -0.36767,-3.222 -0.36957,-4.98147c0,0 -0.00081,-0.75 0.74919,-0.75082c0.75,-0.00081 0.75082,0.74919 0.75082,0.74919c0.0017,1.56752 0.10581,3.03889 0.3046,4.4508c2.24567,-0.92815 4.62727,-2.3588 6.93834,-2.8216c0.37002,-0.0741 0.74379,-0.12156 1.12027,-0.14823c-0.2,-0.24881 -0.4134,-0.4859 -0.6427,-0.70899l-0.4453,-0.57985c0,0 -0.45065,-0.59951 0.14886,-1.05017c0.59951,-0.45065 1.05016,0.14886 1.05016,0.14886l0.30579,0.41934c0.53126,0.54043 0.98164,1.13967 1.37983,1.77651c1.83622,0.11635 3.6971,0.49832 5.46731,0.4964c0,0 0.75,-0.00081 0.75082,0.74919c0.00081,0.75 -0.74919,0.75082 -0.74919,0.75082c-1.48514,0.00161 -3.05769,-0.29172 -4.61915,-0.44819c0.7003,1.4303 1.26966,2.95331 1.97199,4.37438c0.58185,-0.06577 1.15972,-0.15081 1.72878,-0.28013c0.79162,-0.17989 1.78363,-1.10443 2.6504,-0.73716c1.56718,0.66405 1.05806,1.12528 1.67185,2.21037c0.39924,0.70582 2.08112,1.85376 2.10451,2.62477c0.01668,0.55001 -1.09977,1.37337 -1.53365,1.7155c-0.90344,0.71241 -1.75796,1.49778 -2.63203,2.2541c0.93497,1.7411 1.85477,3.4713 2.63564,5.24818c0.33874,-0.77031 0.67279,-1.53692 1.03757,-2.26929c0.24843,-0.48501 0.43623,-1.01409 0.50586,-1.55456l-0.00797,-0.39391c0,0 -0.00081,-0.75 0.74919,-0.75082c0.75,-0.00081 0.75082,0.74919 0.75082,0.74919l-0.00688,0.60607c-0.10569,0.69713 -0.33938,1.37975 -0.64865,2.01342c-0.56674,1.13527 -1.06625,2.32945 -1.61195,3.49732c0.85005,2.31327 1.40423,4.73505 1.4071,7.38414c0,0 0.00081,0.75 -0.74919,0.75082c-0.75,0.00081 -0.75082,-0.74919 -0.75082,-0.74919c-0.00211,-1.95152 -0.32392,-3.7777 -0.85036,-5.52866c-0.70093,1.24234 -1.53546,2.39466 -2.66071,3.33881c-0.72397,0.60746 -1.4985,1.17732 -2.31046,1.71712c0.99014,0.99366 2.03329,1.94125 3.28419,2.55465c0.25013,0.12473 0.50028,0.24946 0.75041,0.37419l0.0395,-0.07922c0,0 0.75,-0.00081 0.75082,0.74919c0.00081,0.75 -0.74919,0.75082 -0.74919,0.75082l-0.7105,-0.07841c-0.25013,-0.12473 -0.50027,-0.24946 -0.7504,-0.37419c-1.47067,-0.7433 -2.88617,-1.73288 -4.22795,-2.8887c-1.85931,1.09677 -3.85571,2.07435 -5.8541,3.01039c2.68416,1.10781 5.74519,1.70899 8.50132,2.48804l0.37956,0.17492c0,0 0.67119,0.33468 0.3365,1.00587c-0.33468,0.67119 -1.00586,0.3365 -1.00586,0.3365l-0.12071,-0.07456c-3.09985,-0.8873 -6.57495,-1.52691 -9.49822,-2.91046c-0.12792,-0.06054 -0.25554,-0.1237 -0.38286,-0.18937c-1.75162,0.80917 -3.47339,1.60413 -5.07288,2.43804c-0.07074,0.03547 -0.14104,0.07058 -0.21089,0.10533c2.00752,1.11052 4.27549,1.77374 6.56532,1.97273l0.18211,-0.00328c0,0 0.75,-0.00081 0.75082,0.74919zM203.54455,174.16359c-0.55259,-0.81009 -1.07468,-1.60202 -1.57157,-2.38606c-0.29257,0.34151 -0.58199,0.68896 -0.87063,1.04252c-0.26399,0.32337 -1.4159,1.32731 -1.4635,1.64522c-0.08454,0.56462 1.35478,1.24538 1.72954,1.54449c1.5423,1.23097 3.01756,1.08587 4.52908,0.49778c-0.86092,-0.68889 -1.65173,-1.47063 -2.35293,-2.34395zM196.69329,161.64203c-0.49275,-1.16833 -1.08163,-2.28476 -1.61116,-3.41535c-0.30926,0.45433 -0.61845,0.91619 -0.92931,1.38492c0.21865,1.95277 0.13219,3.92372 0.47485,5.86448c0.12181,0.68987 0.62349,1.66017 0.8528,2.50573c0.02304,-0.10169 0.05498,-0.20447 0.09788,-0.30493c0.45264,-1.05993 1.00224,-2.00751 1.51337,-3.03726c0.15933,-0.31952 0.32562,-0.63629 0.4986,-0.95016c-0.30268,-0.66432 -0.60085,-1.34515 -0.89704,-2.04743zM198.07468,161.0574c0.15127,0.35769 0.30283,0.7095 0.45509,1.0561c0.87771,-1.36715 1.88151,-2.67088 2.98628,-3.89877c-0.76004,-1.95344 -1.38337,-3.94809 -1.75656,-5.97028c-1.3253,1.38946 -2.52841,2.92732 -3.70414,4.58117c0.61416,1.42856 1.41407,2.80053 2.01932,4.23177zM204.75023,173.27121c0.77641,0.96996 1.68219,1.81492 2.68045,2.53227c0.33066,-0.16669 0.66456,-0.33935 1.0027,-0.50887c1.33031,-0.69362 2.75191,-1.35976 4.20673,-2.03036c-2.22186,-1.51158 -4.30093,-3.68714 -6.05273,-5.91566c-0.47273,0.30212 -0.91597,0.64091 -1.30838,1.04026c-0.81004,0.71033 -1.5563,1.45033 -2.26979,2.22221c0.54541,0.87211 1.12294,1.75354 1.74101,2.66015zM204.25305,167.29459c0.43825,-0.43354 0.92402,-0.80079 1.43742,-1.12887c-0.6777,-0.92619 -1.29324,-1.84286 -1.83335,-2.70614c-0.59355,-1.21064 -1.17324,-2.44386 -1.70811,-3.69596c-1.07903,1.25906 -2.04605,2.59593 -2.87235,3.99639c0.90568,1.93199 1.85577,3.72755 2.92604,5.52872c0.64653,-0.68942 1.32235,-1.35575 2.05033,-1.99413zM205.16463,162.72443c0.53506,0.85277 1.15151,1.7699 1.83358,2.69836c0.96332,-0.49818 1.96214,-0.94348 2.88715,-1.48529c1.48028,-0.86704 2.98733,-1.71145 4.48725,-2.57282c-0.8644,-1.38302 -1.6322,-2.76074 -2.28883,-4.07047c-0.73157,-1.46506 -1.38827,-2.87752 -1.96092,-4.27675c-2.51909,1.54388 -4.87506,3.42552 -6.90819,5.56572c0.59343,1.4222 1.25963,2.80771 1.94996,4.14126zM222.78524,148.9747c0.72729,1.68304 1.56332,3.30059 2.41448,4.89621c0.43395,-0.39128 0.87241,-0.78033 1.33949,-1.1448c0.37319,-0.29121 0.74792,-0.58044 1.12001,-0.87304c0.28916,-0.22736 1.14773,-0.21858 0.96391,-0.53721c-0.31606,-0.54786 -1.49537,-1.17201 -1.90035,-1.87089c-0.30084,-0.51913 -0.23881,-1.19317 -0.83222,-1.53693c-0.09805,-0.05679 -1.70773,0.73466 -1.84798,0.76772c-0.42809,0.10085 -0.86157,0.17492 -1.29822,0.23345c0.01356,0.02188 0.02719,0.0437 0.04087,0.06547zM221.45671,149.67112c-0.12074,-0.19327 -0.23633,-0.39157 -0.34774,-0.59406c-0.98501,0.08361 -1.97201,0.1597 -2.93618,0.35401c-2.28284,0.65633 -4.56553,1.61511 -6.75001,2.82767c0.57708,1.42642 1.24765,2.86535 2.00192,4.36319c0.71717,1.43048 1.4859,2.72981 2.31463,3.95035c2.45435,-1.43957 4.86158,-2.95768 7.07102,-4.73053c0.43818,-0.29281 0.84636,-0.61502 1.24141,-0.95094c-0.91955,-1.70126 -1.82699,-3.42268 -2.59505,-5.21969zM216.49816,143.19197c-2.30816,0.46696 -4.71269,1.96483 -6.95437,2.8601c0.31896,1.64432 0.76959,3.22239 1.33862,4.79704c2.24512,-1.22942 4.5883,-2.20347 6.93539,-2.87542c0.85106,-0.17087 1.71848,-0.25353 2.58657,-0.32957c-0.68596,-1.53109 -1.26957,-3.172 -2.0827,-4.61773c-0.61742,-0.00097 -1.22738,0.04496 -1.82352,0.16557zM223.69704,157.05163c-2.21576,1.7752 -4.6262,3.30212 -7.08512,4.74861c1.58587,2.13568 3.38035,4.06946 5.43453,6.11745c0.11175,0.11142 0.22323,0.22403 0.33466,0.33741c0.85098,-0.55723 1.66013,-1.14712 2.41143,-1.77851c1.32346,-1.11223 2.2111,-2.56709 2.9619,-4.10743c-0.81438,-2.09313 -1.87375,-4.10057 -2.96413,-6.11555c-0.35538,0.27947 -0.71841,0.54753 -1.09326,0.79801zM209.57173,151.60264c-0.61071,-1.65458 -1.09875,-3.3092 -1.44873,-5.02954c-2.83048,1.09998 -5.10343,2.59962 -7.0788,4.40998c0.27117,2.0563 0.83528,4.0931 1.56786,6.07136c2.07359,-2.09265 4.44042,-3.9332 6.95969,-5.45179zM210.63965,165.23405c-0.86168,0.50321 -1.81537,0.91542 -2.73473,1.37802c1.83167,2.31333 4.02912,4.55667 6.34898,5.90979c2.17845,-1.0041 4.38299,-2.04372 6.42515,-3.22258c-2.05297,-1.97186 -3.9077,-4.30162 -5.49063,-6.67196c-1.51989,0.8741 -3.04748,1.73 -4.54876,2.60671z" fill="#000000" stroke="none" stroke-width="0.5" stroke-linecap="butt"/><path d="M207.72818,142.85241c0.27743,0.55337 -0.00439,1.31537 -0.49015,1.80446c-0.49514,0.49853 -1.19892,0.72001 -1.39109,0.8404c0,0 -1.05947,0.49698 -1.72311,-0.5623c-0.66364,-1.05928 0.39563,-1.72293 0.39563,-1.72293c0.3807,-0.23851 0.76138,-0.47701 1.14208,-0.71552l0.38898,-0.20131c0,0 1.11742,-0.56023 1.67766,0.5572z" fill="#8fbbbe" stroke="none" stroke-width="0.5" stroke-linecap="butt"/><path d="M211.73937,141.84401c0.12577,0.18822 -0.15113,0.77243 -0.51793,1.04328c-0.44338,0.32739 -1.01801,0.3122 -1.17006,0.08469c-0.2778,-0.41573 0.13793,-0.69353 0.13793,-0.69353c0.14276,-0.0954 0.28551,-0.19079 0.42826,-0.28618l0.42826,-0.28617c0,0 0.41573,-0.27781 0.69353,0.13793z" fill="#8fbbbe" stroke="none" stroke-width="0.5" stroke-linecap="butt"/><path d="M232.55146,159.74912c0.01249,11.52893 -8.78768,20.88453 -19.65572,20.89631c-10.86804,0.01178 -19.68845,-9.32473 -19.70095,-20.85367c-0.01249,-11.52893 8.78766,-20.88453 19.65571,-20.8963c10.86804,-0.01178 19.68847,9.32474 19.70096,20.85366z" fill="none" stroke="#000000" stroke-width="2.5" stroke-linecap="butt"/><path d="M192.01988,159.84304c0,0 2.84796,10.71108 5.78553,13.44677c12.08807,11.25731 17.4372,7.52809 17.4372,7.52809c0,0 -7.39564,4.7809 -8.71479,4.73993c-14.19041,-0.44062 -17.54733,-13.84604 -17.62132,-19.23393c-0.01413,-1.02939 3.11337,-6.48086 3.11337,-6.48086z" fill="none" stroke="#000000" stroke-width="2.5" stroke-linecap="round"/></g><path d="M-3.9767,363.06856v-366.13712h487.95341v366.13712z" fill="none" stroke-opacity="0.01384" stroke="#ff0000" stroke-width="0.5" stroke-linecap="butt"/></g></g></svg>